G75*
%MOIN*%
%OFA0B0*%
%FSLAX24Y24*%
%IPPOS*%
%LPD*%
%AMOC8*
5,1,8,0,0,1.08239X$1,22.5*
%
%ADD10C,0.0000*%
%ADD11C,0.0600*%
%ADD12R,0.0110X0.0660*%
%ADD13R,0.0591X0.0512*%
%ADD14R,0.0472X0.0236*%
%ADD15R,0.0787X0.0630*%
%ADD16R,0.0236X0.0472*%
%ADD17R,0.0630X0.0787*%
%ADD18R,0.0157X0.0315*%
%ADD19R,0.0217X0.0433*%
%ADD20OC8,0.0600*%
%ADD21C,0.1000*%
%ADD22R,0.0630X0.0710*%
%ADD23R,0.0512X0.0591*%
%ADD24R,0.0710X0.0630*%
%ADD25R,0.0512X0.0630*%
%ADD26C,0.0160*%
%ADD27C,0.0080*%
%ADD28C,0.0120*%
%ADD29C,0.0337*%
%ADD30C,0.0290*%
%ADD31C,0.0100*%
%ADD32C,0.0376*%
%ADD33C,0.0110*%
%ADD34C,0.0416*%
D10*
X003760Y002393D02*
X003760Y033889D01*
X035780Y033889D01*
X035730Y002343D01*
X003760Y002393D01*
X013130Y003393D02*
X013132Y003443D01*
X013138Y003493D01*
X013148Y003542D01*
X013162Y003590D01*
X013179Y003637D01*
X013200Y003682D01*
X013225Y003726D01*
X013253Y003767D01*
X013285Y003806D01*
X013319Y003843D01*
X013356Y003877D01*
X013396Y003907D01*
X013438Y003934D01*
X013482Y003958D01*
X013528Y003979D01*
X013575Y003995D01*
X013623Y004008D01*
X013673Y004017D01*
X013722Y004022D01*
X013773Y004023D01*
X013823Y004020D01*
X013872Y004013D01*
X013921Y004002D01*
X013969Y003987D01*
X014015Y003969D01*
X014060Y003947D01*
X014103Y003921D01*
X014144Y003892D01*
X014183Y003860D01*
X014219Y003825D01*
X014251Y003787D01*
X014281Y003747D01*
X014308Y003704D01*
X014331Y003660D01*
X014350Y003614D01*
X014366Y003566D01*
X014378Y003517D01*
X014386Y003468D01*
X014390Y003418D01*
X014390Y003368D01*
X014386Y003318D01*
X014378Y003269D01*
X014366Y003220D01*
X014350Y003172D01*
X014331Y003126D01*
X014308Y003082D01*
X014281Y003039D01*
X014251Y002999D01*
X014219Y002961D01*
X014183Y002926D01*
X014144Y002894D01*
X014103Y002865D01*
X014060Y002839D01*
X014015Y002817D01*
X013969Y002799D01*
X013921Y002784D01*
X013872Y002773D01*
X013823Y002766D01*
X013773Y002763D01*
X013722Y002764D01*
X013673Y002769D01*
X013623Y002778D01*
X013575Y002791D01*
X013528Y002807D01*
X013482Y002828D01*
X013438Y002852D01*
X013396Y002879D01*
X013356Y002909D01*
X013319Y002943D01*
X013285Y002980D01*
X013253Y003019D01*
X013225Y003060D01*
X013200Y003104D01*
X013179Y003149D01*
X013162Y003196D01*
X013148Y003244D01*
X013138Y003293D01*
X013132Y003343D01*
X013130Y003393D01*
X025130Y003393D02*
X025132Y003443D01*
X025138Y003493D01*
X025148Y003542D01*
X025162Y003590D01*
X025179Y003637D01*
X025200Y003682D01*
X025225Y003726D01*
X025253Y003767D01*
X025285Y003806D01*
X025319Y003843D01*
X025356Y003877D01*
X025396Y003907D01*
X025438Y003934D01*
X025482Y003958D01*
X025528Y003979D01*
X025575Y003995D01*
X025623Y004008D01*
X025673Y004017D01*
X025722Y004022D01*
X025773Y004023D01*
X025823Y004020D01*
X025872Y004013D01*
X025921Y004002D01*
X025969Y003987D01*
X026015Y003969D01*
X026060Y003947D01*
X026103Y003921D01*
X026144Y003892D01*
X026183Y003860D01*
X026219Y003825D01*
X026251Y003787D01*
X026281Y003747D01*
X026308Y003704D01*
X026331Y003660D01*
X026350Y003614D01*
X026366Y003566D01*
X026378Y003517D01*
X026386Y003468D01*
X026390Y003418D01*
X026390Y003368D01*
X026386Y003318D01*
X026378Y003269D01*
X026366Y003220D01*
X026350Y003172D01*
X026331Y003126D01*
X026308Y003082D01*
X026281Y003039D01*
X026251Y002999D01*
X026219Y002961D01*
X026183Y002926D01*
X026144Y002894D01*
X026103Y002865D01*
X026060Y002839D01*
X026015Y002817D01*
X025969Y002799D01*
X025921Y002784D01*
X025872Y002773D01*
X025823Y002766D01*
X025773Y002763D01*
X025722Y002764D01*
X025673Y002769D01*
X025623Y002778D01*
X025575Y002791D01*
X025528Y002807D01*
X025482Y002828D01*
X025438Y002852D01*
X025396Y002879D01*
X025356Y002909D01*
X025319Y002943D01*
X025285Y002980D01*
X025253Y003019D01*
X025225Y003060D01*
X025200Y003104D01*
X025179Y003149D01*
X025162Y003196D01*
X025148Y003244D01*
X025138Y003293D01*
X025132Y003343D01*
X025130Y003393D01*
X025130Y032893D02*
X025132Y032943D01*
X025138Y032993D01*
X025148Y033042D01*
X025162Y033090D01*
X025179Y033137D01*
X025200Y033182D01*
X025225Y033226D01*
X025253Y033267D01*
X025285Y033306D01*
X025319Y033343D01*
X025356Y033377D01*
X025396Y033407D01*
X025438Y033434D01*
X025482Y033458D01*
X025528Y033479D01*
X025575Y033495D01*
X025623Y033508D01*
X025673Y033517D01*
X025722Y033522D01*
X025773Y033523D01*
X025823Y033520D01*
X025872Y033513D01*
X025921Y033502D01*
X025969Y033487D01*
X026015Y033469D01*
X026060Y033447D01*
X026103Y033421D01*
X026144Y033392D01*
X026183Y033360D01*
X026219Y033325D01*
X026251Y033287D01*
X026281Y033247D01*
X026308Y033204D01*
X026331Y033160D01*
X026350Y033114D01*
X026366Y033066D01*
X026378Y033017D01*
X026386Y032968D01*
X026390Y032918D01*
X026390Y032868D01*
X026386Y032818D01*
X026378Y032769D01*
X026366Y032720D01*
X026350Y032672D01*
X026331Y032626D01*
X026308Y032582D01*
X026281Y032539D01*
X026251Y032499D01*
X026219Y032461D01*
X026183Y032426D01*
X026144Y032394D01*
X026103Y032365D01*
X026060Y032339D01*
X026015Y032317D01*
X025969Y032299D01*
X025921Y032284D01*
X025872Y032273D01*
X025823Y032266D01*
X025773Y032263D01*
X025722Y032264D01*
X025673Y032269D01*
X025623Y032278D01*
X025575Y032291D01*
X025528Y032307D01*
X025482Y032328D01*
X025438Y032352D01*
X025396Y032379D01*
X025356Y032409D01*
X025319Y032443D01*
X025285Y032480D01*
X025253Y032519D01*
X025225Y032560D01*
X025200Y032604D01*
X025179Y032649D01*
X025162Y032696D01*
X025148Y032744D01*
X025138Y032793D01*
X025132Y032843D01*
X025130Y032893D01*
X013130Y032893D02*
X013132Y032943D01*
X013138Y032993D01*
X013148Y033042D01*
X013162Y033090D01*
X013179Y033137D01*
X013200Y033182D01*
X013225Y033226D01*
X013253Y033267D01*
X013285Y033306D01*
X013319Y033343D01*
X013356Y033377D01*
X013396Y033407D01*
X013438Y033434D01*
X013482Y033458D01*
X013528Y033479D01*
X013575Y033495D01*
X013623Y033508D01*
X013673Y033517D01*
X013722Y033522D01*
X013773Y033523D01*
X013823Y033520D01*
X013872Y033513D01*
X013921Y033502D01*
X013969Y033487D01*
X014015Y033469D01*
X014060Y033447D01*
X014103Y033421D01*
X014144Y033392D01*
X014183Y033360D01*
X014219Y033325D01*
X014251Y033287D01*
X014281Y033247D01*
X014308Y033204D01*
X014331Y033160D01*
X014350Y033114D01*
X014366Y033066D01*
X014378Y033017D01*
X014386Y032968D01*
X014390Y032918D01*
X014390Y032868D01*
X014386Y032818D01*
X014378Y032769D01*
X014366Y032720D01*
X014350Y032672D01*
X014331Y032626D01*
X014308Y032582D01*
X014281Y032539D01*
X014251Y032499D01*
X014219Y032461D01*
X014183Y032426D01*
X014144Y032394D01*
X014103Y032365D01*
X014060Y032339D01*
X014015Y032317D01*
X013969Y032299D01*
X013921Y032284D01*
X013872Y032273D01*
X013823Y032266D01*
X013773Y032263D01*
X013722Y032264D01*
X013673Y032269D01*
X013623Y032278D01*
X013575Y032291D01*
X013528Y032307D01*
X013482Y032328D01*
X013438Y032352D01*
X013396Y032379D01*
X013356Y032409D01*
X013319Y032443D01*
X013285Y032480D01*
X013253Y032519D01*
X013225Y032560D01*
X013200Y032604D01*
X013179Y032649D01*
X013162Y032696D01*
X013148Y032744D01*
X013138Y032793D01*
X013132Y032843D01*
X013130Y032893D01*
D11*
X014260Y029693D02*
X014260Y029093D01*
X015260Y029093D02*
X015260Y029693D01*
X016260Y029693D02*
X016260Y029093D01*
X017260Y029093D02*
X017260Y029693D01*
X020760Y029693D02*
X020760Y029093D01*
X021760Y029093D02*
X021760Y029693D01*
X022760Y029693D02*
X022760Y029093D01*
X023760Y029093D02*
X023760Y029693D01*
X024760Y029693D02*
X024760Y029093D01*
X025760Y029093D02*
X025760Y029693D01*
X026760Y029693D02*
X026760Y029093D01*
X027760Y029093D02*
X027760Y029693D01*
X028760Y029693D02*
X028760Y029093D01*
X029760Y029093D02*
X029760Y029693D01*
X031910Y026893D02*
X032510Y026893D01*
X032510Y025893D02*
X031910Y025893D01*
X031910Y024893D02*
X032510Y024893D01*
X032510Y023893D02*
X031910Y023893D01*
X031960Y018893D02*
X032560Y018893D01*
X032560Y017893D02*
X031960Y017893D01*
X031960Y016893D02*
X032560Y016893D01*
X032560Y015893D02*
X031960Y015893D01*
X031960Y012393D02*
X032560Y012393D01*
X032560Y011393D02*
X031960Y011393D01*
X031960Y010393D02*
X032560Y010393D01*
X032560Y009393D02*
X031960Y009393D01*
X031960Y008393D02*
X032560Y008393D01*
X027940Y006733D02*
X027340Y006733D01*
X027340Y004953D02*
X027940Y004953D01*
X025380Y004953D02*
X024780Y004953D01*
X024780Y006733D02*
X025380Y006733D01*
X013760Y005443D02*
X013760Y004843D01*
X012760Y004843D02*
X012760Y005443D01*
X009260Y005693D02*
X009260Y005093D01*
X008260Y005093D02*
X008260Y005693D01*
X007260Y005693D02*
X007260Y005093D01*
X006260Y005093D02*
X006260Y005693D01*
X007060Y011393D02*
X007660Y011393D01*
X007660Y012393D02*
X007060Y012393D01*
X006960Y016393D02*
X007560Y016393D01*
X007560Y017393D02*
X006960Y017393D01*
X006960Y018393D02*
X007560Y018393D01*
X007560Y019393D02*
X006960Y019393D01*
X007260Y029093D02*
X007260Y029693D01*
X008260Y029693D02*
X008260Y029093D01*
X009260Y029093D02*
X009260Y029693D01*
X010260Y029693D02*
X010260Y029093D01*
D12*
G36*
X014079Y019489D02*
X014001Y019411D01*
X013535Y019877D01*
X013613Y019955D01*
X014079Y019489D01*
G37*
G36*
X013945Y019355D02*
X013867Y019277D01*
X013401Y019743D01*
X013479Y019821D01*
X013945Y019355D01*
G37*
G36*
X013803Y019214D02*
X013725Y019136D01*
X013259Y019602D01*
X013337Y019680D01*
X013803Y019214D01*
G37*
G36*
X013662Y019072D02*
X013584Y018994D01*
X013118Y019460D01*
X013196Y019538D01*
X013662Y019072D01*
G37*
G36*
X013520Y018931D02*
X013442Y018853D01*
X012976Y019319D01*
X013054Y019397D01*
X013520Y018931D01*
G37*
G36*
X013386Y018796D02*
X013308Y018718D01*
X012842Y019184D01*
X012920Y019262D01*
X013386Y018796D01*
G37*
G36*
X013245Y018655D02*
X013167Y018577D01*
X012701Y019043D01*
X012779Y019121D01*
X013245Y018655D01*
G37*
G36*
X013103Y018514D02*
X013025Y018436D01*
X012559Y018902D01*
X012637Y018980D01*
X013103Y018514D01*
G37*
G36*
X012969Y018379D02*
X012891Y018301D01*
X012425Y018767D01*
X012503Y018845D01*
X012969Y018379D01*
G37*
G36*
X012827Y018238D02*
X012749Y018160D01*
X012283Y018626D01*
X012361Y018704D01*
X012827Y018238D01*
G37*
G36*
X012686Y018096D02*
X012608Y018018D01*
X012142Y018484D01*
X012220Y018562D01*
X012686Y018096D01*
G37*
G36*
X012552Y017962D02*
X012474Y017884D01*
X012008Y018350D01*
X012086Y018428D01*
X012552Y017962D01*
G37*
G36*
X012410Y017821D02*
X012332Y017743D01*
X011866Y018209D01*
X011944Y018287D01*
X012410Y017821D01*
G37*
G36*
X012269Y017679D02*
X012191Y017601D01*
X011725Y018067D01*
X011803Y018145D01*
X012269Y017679D01*
G37*
G36*
X012134Y017545D02*
X012056Y017467D01*
X011590Y017933D01*
X011668Y018011D01*
X012134Y017545D01*
G37*
G36*
X011993Y017403D02*
X011915Y017325D01*
X011449Y017791D01*
X011527Y017869D01*
X011993Y017403D01*
G37*
G36*
X011852Y017262D02*
X011774Y017184D01*
X011308Y017650D01*
X011386Y017728D01*
X011852Y017262D01*
G37*
G36*
X011717Y017128D02*
X011639Y017050D01*
X011173Y017516D01*
X011251Y017594D01*
X011717Y017128D01*
G37*
G36*
X011576Y016986D02*
X011498Y016908D01*
X011032Y017374D01*
X011110Y017452D01*
X011576Y016986D01*
G37*
G36*
X011434Y016845D02*
X011356Y016767D01*
X010890Y017233D01*
X010968Y017311D01*
X011434Y016845D01*
G37*
G36*
X011300Y016710D02*
X011222Y016632D01*
X010756Y017098D01*
X010834Y017176D01*
X011300Y016710D01*
G37*
G36*
X011159Y016569D02*
X011081Y016491D01*
X010615Y016957D01*
X010693Y017035D01*
X011159Y016569D01*
G37*
G36*
X011017Y016428D02*
X010939Y016350D01*
X010473Y016816D01*
X010551Y016894D01*
X011017Y016428D01*
G37*
G36*
X010876Y016286D02*
X010798Y016208D01*
X010332Y016674D01*
X010410Y016752D01*
X010876Y016286D01*
G37*
G36*
X010741Y016152D02*
X010663Y016074D01*
X010197Y016540D01*
X010275Y016618D01*
X010741Y016152D01*
G37*
G36*
X010663Y015713D02*
X010741Y015635D01*
X010275Y015169D01*
X010197Y015247D01*
X010663Y015713D01*
G37*
G36*
X010798Y015578D02*
X010876Y015500D01*
X010410Y015034D01*
X010332Y015112D01*
X010798Y015578D01*
G37*
G36*
X010939Y015437D02*
X011017Y015359D01*
X010551Y014893D01*
X010473Y014971D01*
X010939Y015437D01*
G37*
G36*
X011081Y015296D02*
X011159Y015218D01*
X010693Y014752D01*
X010615Y014830D01*
X011081Y015296D01*
G37*
G36*
X011222Y015154D02*
X011300Y015076D01*
X010834Y014610D01*
X010756Y014688D01*
X011222Y015154D01*
G37*
G36*
X011356Y015020D02*
X011434Y014942D01*
X010968Y014476D01*
X010890Y014554D01*
X011356Y015020D01*
G37*
G36*
X011498Y014878D02*
X011576Y014800D01*
X011110Y014334D01*
X011032Y014412D01*
X011498Y014878D01*
G37*
G36*
X011639Y014737D02*
X011717Y014659D01*
X011251Y014193D01*
X011173Y014271D01*
X011639Y014737D01*
G37*
G36*
X011774Y014603D02*
X011852Y014525D01*
X011386Y014059D01*
X011308Y014137D01*
X011774Y014603D01*
G37*
G36*
X011915Y014461D02*
X011993Y014383D01*
X011527Y013917D01*
X011449Y013995D01*
X011915Y014461D01*
G37*
G36*
X012056Y014320D02*
X012134Y014242D01*
X011668Y013776D01*
X011590Y013854D01*
X012056Y014320D01*
G37*
G36*
X012191Y014185D02*
X012269Y014107D01*
X011803Y013641D01*
X011725Y013719D01*
X012191Y014185D01*
G37*
G36*
X012332Y014044D02*
X012410Y013966D01*
X011944Y013500D01*
X011866Y013578D01*
X012332Y014044D01*
G37*
G36*
X012474Y013903D02*
X012552Y013825D01*
X012086Y013359D01*
X012008Y013437D01*
X012474Y013903D01*
G37*
G36*
X012608Y013768D02*
X012686Y013690D01*
X012220Y013224D01*
X012142Y013302D01*
X012608Y013768D01*
G37*
G36*
X012749Y013627D02*
X012827Y013549D01*
X012361Y013083D01*
X012283Y013161D01*
X012749Y013627D01*
G37*
G36*
X012891Y013485D02*
X012969Y013407D01*
X012503Y012941D01*
X012425Y013019D01*
X012891Y013485D01*
G37*
G36*
X013025Y013351D02*
X013103Y013273D01*
X012637Y012807D01*
X012559Y012885D01*
X013025Y013351D01*
G37*
G36*
X013167Y013210D02*
X013245Y013132D01*
X012779Y012666D01*
X012701Y012744D01*
X013167Y013210D01*
G37*
G36*
X013308Y013068D02*
X013386Y012990D01*
X012920Y012524D01*
X012842Y012602D01*
X013308Y013068D01*
G37*
G36*
X013442Y012934D02*
X013520Y012856D01*
X013054Y012390D01*
X012976Y012468D01*
X013442Y012934D01*
G37*
G36*
X013584Y012792D02*
X013662Y012714D01*
X013196Y012248D01*
X013118Y012326D01*
X013584Y012792D01*
G37*
G36*
X013725Y012651D02*
X013803Y012573D01*
X013337Y012107D01*
X013259Y012185D01*
X013725Y012651D01*
G37*
G36*
X013867Y012510D02*
X013945Y012432D01*
X013479Y011966D01*
X013401Y012044D01*
X013867Y012510D01*
G37*
G36*
X014001Y012375D02*
X014079Y012297D01*
X013613Y011831D01*
X013535Y011909D01*
X014001Y012375D01*
G37*
G36*
X014984Y011909D02*
X014906Y011831D01*
X014440Y012297D01*
X014518Y012375D01*
X014984Y011909D01*
G37*
G36*
X015118Y012044D02*
X015040Y011966D01*
X014574Y012432D01*
X014652Y012510D01*
X015118Y012044D01*
G37*
G36*
X015260Y012185D02*
X015182Y012107D01*
X014716Y012573D01*
X014794Y012651D01*
X015260Y012185D01*
G37*
G36*
X015401Y012326D02*
X015323Y012248D01*
X014857Y012714D01*
X014935Y012792D01*
X015401Y012326D01*
G37*
G36*
X015543Y012468D02*
X015465Y012390D01*
X014999Y012856D01*
X015077Y012934D01*
X015543Y012468D01*
G37*
G36*
X015677Y012602D02*
X015599Y012524D01*
X015133Y012990D01*
X015211Y013068D01*
X015677Y012602D01*
G37*
G36*
X015818Y012744D02*
X015740Y012666D01*
X015274Y013132D01*
X015352Y013210D01*
X015818Y012744D01*
G37*
G36*
X015960Y012885D02*
X015882Y012807D01*
X015416Y013273D01*
X015494Y013351D01*
X015960Y012885D01*
G37*
G36*
X016094Y013019D02*
X016016Y012941D01*
X015550Y013407D01*
X015628Y013485D01*
X016094Y013019D01*
G37*
G36*
X016236Y013161D02*
X016158Y013083D01*
X015692Y013549D01*
X015770Y013627D01*
X016236Y013161D01*
G37*
G36*
X016377Y013302D02*
X016299Y013224D01*
X015833Y013690D01*
X015911Y013768D01*
X016377Y013302D01*
G37*
G36*
X016511Y013437D02*
X016433Y013359D01*
X015967Y013825D01*
X016045Y013903D01*
X016511Y013437D01*
G37*
G36*
X016653Y013578D02*
X016575Y013500D01*
X016109Y013966D01*
X016187Y014044D01*
X016653Y013578D01*
G37*
G36*
X016794Y013719D02*
X016716Y013641D01*
X016250Y014107D01*
X016328Y014185D01*
X016794Y013719D01*
G37*
G36*
X016929Y013854D02*
X016851Y013776D01*
X016385Y014242D01*
X016463Y014320D01*
X016929Y013854D01*
G37*
G36*
X017070Y013995D02*
X016992Y013917D01*
X016526Y014383D01*
X016604Y014461D01*
X017070Y013995D01*
G37*
G36*
X017211Y014137D02*
X017133Y014059D01*
X016667Y014525D01*
X016745Y014603D01*
X017211Y014137D01*
G37*
G36*
X017346Y014271D02*
X017268Y014193D01*
X016802Y014659D01*
X016880Y014737D01*
X017346Y014271D01*
G37*
G36*
X017487Y014412D02*
X017409Y014334D01*
X016943Y014800D01*
X017021Y014878D01*
X017487Y014412D01*
G37*
G36*
X017629Y014554D02*
X017551Y014476D01*
X017085Y014942D01*
X017163Y015020D01*
X017629Y014554D01*
G37*
G36*
X017763Y014688D02*
X017685Y014610D01*
X017219Y015076D01*
X017297Y015154D01*
X017763Y014688D01*
G37*
G36*
X017904Y014830D02*
X017826Y014752D01*
X017360Y015218D01*
X017438Y015296D01*
X017904Y014830D01*
G37*
G36*
X018046Y014971D02*
X017968Y014893D01*
X017502Y015359D01*
X017580Y015437D01*
X018046Y014971D01*
G37*
G36*
X018187Y015112D02*
X018109Y015034D01*
X017643Y015500D01*
X017721Y015578D01*
X018187Y015112D01*
G37*
G36*
X018322Y015247D02*
X018244Y015169D01*
X017778Y015635D01*
X017856Y015713D01*
X018322Y015247D01*
G37*
G36*
X018244Y016618D02*
X018322Y016540D01*
X017856Y016074D01*
X017778Y016152D01*
X018244Y016618D01*
G37*
G36*
X018109Y016752D02*
X018187Y016674D01*
X017721Y016208D01*
X017643Y016286D01*
X018109Y016752D01*
G37*
G36*
X017968Y016894D02*
X018046Y016816D01*
X017580Y016350D01*
X017502Y016428D01*
X017968Y016894D01*
G37*
G36*
X017826Y017035D02*
X017904Y016957D01*
X017438Y016491D01*
X017360Y016569D01*
X017826Y017035D01*
G37*
G36*
X017685Y017176D02*
X017763Y017098D01*
X017297Y016632D01*
X017219Y016710D01*
X017685Y017176D01*
G37*
G36*
X017551Y017311D02*
X017629Y017233D01*
X017163Y016767D01*
X017085Y016845D01*
X017551Y017311D01*
G37*
G36*
X017409Y017452D02*
X017487Y017374D01*
X017021Y016908D01*
X016943Y016986D01*
X017409Y017452D01*
G37*
G36*
X017268Y017594D02*
X017346Y017516D01*
X016880Y017050D01*
X016802Y017128D01*
X017268Y017594D01*
G37*
G36*
X017133Y017728D02*
X017211Y017650D01*
X016745Y017184D01*
X016667Y017262D01*
X017133Y017728D01*
G37*
G36*
X016992Y017869D02*
X017070Y017791D01*
X016604Y017325D01*
X016526Y017403D01*
X016992Y017869D01*
G37*
G36*
X016851Y018011D02*
X016929Y017933D01*
X016463Y017467D01*
X016385Y017545D01*
X016851Y018011D01*
G37*
G36*
X016716Y018145D02*
X016794Y018067D01*
X016328Y017601D01*
X016250Y017679D01*
X016716Y018145D01*
G37*
G36*
X016575Y018287D02*
X016653Y018209D01*
X016187Y017743D01*
X016109Y017821D01*
X016575Y018287D01*
G37*
G36*
X016433Y018428D02*
X016511Y018350D01*
X016045Y017884D01*
X015967Y017962D01*
X016433Y018428D01*
G37*
G36*
X016299Y018562D02*
X016377Y018484D01*
X015911Y018018D01*
X015833Y018096D01*
X016299Y018562D01*
G37*
G36*
X016158Y018704D02*
X016236Y018626D01*
X015770Y018160D01*
X015692Y018238D01*
X016158Y018704D01*
G37*
G36*
X016016Y018845D02*
X016094Y018767D01*
X015628Y018301D01*
X015550Y018379D01*
X016016Y018845D01*
G37*
G36*
X015882Y018980D02*
X015960Y018902D01*
X015494Y018436D01*
X015416Y018514D01*
X015882Y018980D01*
G37*
G36*
X015740Y019121D02*
X015818Y019043D01*
X015352Y018577D01*
X015274Y018655D01*
X015740Y019121D01*
G37*
G36*
X015599Y019262D02*
X015677Y019184D01*
X015211Y018718D01*
X015133Y018796D01*
X015599Y019262D01*
G37*
G36*
X015465Y019397D02*
X015543Y019319D01*
X015077Y018853D01*
X014999Y018931D01*
X015465Y019397D01*
G37*
G36*
X015323Y019538D02*
X015401Y019460D01*
X014935Y018994D01*
X014857Y019072D01*
X015323Y019538D01*
G37*
G36*
X015182Y019680D02*
X015260Y019602D01*
X014794Y019136D01*
X014716Y019214D01*
X015182Y019680D01*
G37*
G36*
X015040Y019821D02*
X015118Y019743D01*
X014652Y019277D01*
X014574Y019355D01*
X015040Y019821D01*
G37*
G36*
X014906Y019955D02*
X014984Y019877D01*
X014518Y019411D01*
X014440Y019489D01*
X014906Y019955D01*
G37*
D13*
X026260Y016767D03*
X026260Y016019D03*
X027760Y016019D03*
X027760Y016767D03*
D14*
X027607Y023393D03*
X027607Y023893D03*
X027607Y024393D03*
X027607Y024893D03*
X027607Y025393D03*
X027607Y025893D03*
X027607Y026393D03*
X029812Y026393D03*
X029812Y025893D03*
X029812Y025393D03*
X029812Y024893D03*
X029812Y024393D03*
X029812Y023893D03*
X029812Y023393D03*
D15*
X025710Y024342D03*
X025710Y025444D03*
X027210Y013644D03*
X027210Y012542D03*
D16*
X017260Y025291D03*
X016760Y025291D03*
X016260Y025291D03*
X015760Y025291D03*
X015260Y025291D03*
X014760Y025291D03*
X014260Y025291D03*
X014260Y027496D03*
X014760Y027496D03*
X015260Y027496D03*
X015760Y027496D03*
X016260Y027496D03*
X016760Y027496D03*
X017260Y027496D03*
X010260Y027496D03*
X009760Y027496D03*
X009260Y027496D03*
X008760Y027496D03*
X008260Y027496D03*
X007760Y027496D03*
X007260Y027496D03*
X007260Y025291D03*
X007760Y025291D03*
X008260Y025291D03*
X008760Y025291D03*
X009260Y025291D03*
X009760Y025291D03*
X010260Y025291D03*
D17*
X010311Y022393D03*
X009208Y022393D03*
X015208Y022393D03*
X016311Y022393D03*
X009961Y008043D03*
X008858Y008043D03*
D18*
X008826Y010105D03*
X009082Y010105D03*
X009337Y010105D03*
X009593Y010105D03*
X009593Y011581D03*
X009337Y011581D03*
X009082Y011581D03*
X008826Y011581D03*
X024876Y012655D03*
X025132Y012655D03*
X025387Y012655D03*
X025643Y012655D03*
X025643Y014131D03*
X025387Y014131D03*
X025132Y014131D03*
X024876Y014131D03*
D19*
X028885Y016381D03*
X029260Y016381D03*
X029634Y016381D03*
X029634Y017484D03*
X028885Y017484D03*
D20*
X031760Y020893D03*
X032760Y020893D03*
X032760Y021893D03*
X031760Y021893D03*
X020810Y005693D03*
X020810Y004693D03*
X019810Y004693D03*
X019810Y005693D03*
X018810Y005693D03*
X017810Y005693D03*
X017810Y004693D03*
X018810Y004693D03*
X016810Y004693D03*
X016810Y005693D03*
D21*
X024260Y016393D03*
X029210Y011343D03*
D22*
X023219Y006243D03*
X022100Y006243D03*
X016419Y007643D03*
X015300Y007643D03*
X007869Y014143D03*
X006750Y014143D03*
D23*
X022185Y004343D03*
X022934Y004343D03*
D24*
X005560Y022383D03*
X005560Y023503D03*
D25*
X006885Y020893D03*
X007634Y020893D03*
X007634Y015193D03*
X006885Y015193D03*
D26*
X006470Y015232D02*
X006170Y015232D01*
X006170Y015390D02*
X006470Y015390D01*
X006470Y015549D02*
X006170Y015549D01*
X006170Y015707D02*
X007424Y015707D01*
X007424Y015668D02*
X007311Y015668D01*
X007260Y015616D01*
X007208Y015668D01*
X006563Y015668D01*
X006470Y015575D01*
X006470Y014812D01*
X006540Y014742D01*
X006540Y014658D01*
X006368Y014658D01*
X006275Y014565D01*
X006275Y013722D01*
X006368Y013628D01*
X007131Y013628D01*
X007225Y013722D01*
X007225Y014565D01*
X007131Y014658D01*
X006960Y014658D01*
X006960Y014718D01*
X007208Y014718D01*
X007260Y014770D01*
X007311Y014718D01*
X007956Y014718D01*
X008049Y014812D01*
X008049Y015575D01*
X007956Y015668D01*
X007881Y015668D01*
X008096Y015883D01*
X008917Y015883D01*
X008860Y015826D01*
X008570Y015536D01*
X008487Y015502D01*
X008401Y015416D01*
X008355Y015304D01*
X008355Y015183D01*
X008401Y015071D01*
X008487Y014985D01*
X008599Y014938D01*
X008720Y014938D01*
X008832Y014985D01*
X008918Y015071D01*
X008965Y015183D01*
X008965Y015304D01*
X008947Y015347D01*
X009142Y015543D01*
X009878Y015543D01*
X009937Y015485D01*
X010049Y015438D01*
X010163Y015438D01*
X010037Y015313D01*
X010037Y015180D01*
X010172Y015046D01*
X010181Y015037D01*
X010097Y015002D01*
X010011Y014916D01*
X009965Y014804D01*
X009965Y014683D01*
X010011Y014571D01*
X010070Y014512D01*
X010070Y014336D01*
X009678Y013945D01*
X009715Y014033D01*
X009715Y014154D01*
X009668Y014266D01*
X009582Y014352D01*
X009470Y014398D01*
X009349Y014398D01*
X009237Y014352D01*
X009151Y014266D01*
X009105Y014154D01*
X009105Y014085D01*
X008273Y013253D01*
X006346Y013253D01*
X006170Y013430D01*
X006170Y015780D01*
X006046Y015903D01*
X005870Y016080D01*
X005870Y021206D01*
X006251Y021588D01*
X006320Y021588D01*
X006432Y021635D01*
X006518Y021721D01*
X006565Y021833D01*
X006565Y021841D01*
X007038Y021368D01*
X006563Y021368D01*
X006470Y021275D01*
X006470Y020600D01*
X005950Y020080D01*
X005950Y019906D01*
X005950Y017356D01*
X006073Y017233D01*
X006611Y016695D01*
X006570Y016654D01*
X006500Y016485D01*
X006500Y016302D01*
X006570Y016133D01*
X006699Y016003D01*
X006868Y015933D01*
X007553Y015933D01*
X007424Y015804D01*
X007424Y015668D01*
X007485Y015866D02*
X006084Y015866D01*
X006046Y015903D02*
X006046Y015903D01*
X005925Y016024D02*
X006678Y016024D01*
X006549Y016183D02*
X005870Y016183D01*
X005870Y016341D02*
X006500Y016341D01*
X006506Y016500D02*
X005870Y016500D01*
X005870Y016658D02*
X006574Y016658D01*
X006489Y016817D02*
X005870Y016817D01*
X005870Y016975D02*
X006331Y016975D01*
X006172Y017134D02*
X005870Y017134D01*
X005870Y017292D02*
X006014Y017292D01*
X005950Y017451D02*
X005870Y017451D01*
X005870Y017609D02*
X005950Y017609D01*
X005950Y017768D02*
X005870Y017768D01*
X005870Y017926D02*
X005950Y017926D01*
X005950Y018085D02*
X005870Y018085D01*
X005870Y018243D02*
X005950Y018243D01*
X005950Y018402D02*
X005870Y018402D01*
X005870Y018560D02*
X005950Y018560D01*
X005950Y018719D02*
X005870Y018719D01*
X005870Y018877D02*
X005950Y018877D01*
X005950Y019036D02*
X005870Y019036D01*
X005870Y019194D02*
X005950Y019194D01*
X005950Y019353D02*
X005870Y019353D01*
X005870Y019511D02*
X005950Y019511D01*
X005950Y019670D02*
X005870Y019670D01*
X005870Y019828D02*
X005950Y019828D01*
X005950Y019987D02*
X005870Y019987D01*
X005870Y020145D02*
X006015Y020145D01*
X005870Y020304D02*
X006173Y020304D01*
X006332Y020462D02*
X005870Y020462D01*
X005870Y020621D02*
X006470Y020621D01*
X006470Y020779D02*
X005870Y020779D01*
X005870Y020938D02*
X006470Y020938D01*
X006470Y021096D02*
X005870Y021096D01*
X005918Y021255D02*
X006470Y021255D01*
X006235Y021572D02*
X006834Y021572D01*
X006675Y021730D02*
X006522Y021730D01*
X006077Y021413D02*
X006993Y021413D01*
X007269Y021730D02*
X011497Y021730D01*
X011501Y021721D02*
X011587Y021635D01*
X011687Y021593D01*
X010391Y021593D01*
X010332Y021652D01*
X010220Y021698D01*
X010099Y021698D01*
X009987Y021652D01*
X009901Y021566D01*
X009855Y021454D01*
X009855Y021333D01*
X009901Y021221D01*
X009987Y021135D01*
X010099Y021088D01*
X010220Y021088D01*
X010332Y021135D01*
X010391Y021193D01*
X012842Y021193D01*
X012805Y021104D01*
X012805Y021021D01*
X012710Y020926D01*
X012710Y019664D01*
X012827Y019546D01*
X012902Y019471D01*
X012816Y019386D01*
X012816Y019386D01*
X012712Y019281D01*
X012712Y019281D01*
X012540Y019110D01*
X012540Y019110D01*
X012492Y019061D01*
X012377Y019176D01*
X012260Y019293D01*
X012242Y019293D01*
X012092Y019443D01*
X010477Y019443D01*
X010432Y019398D01*
X010349Y019398D01*
X010237Y019352D01*
X010151Y019266D01*
X010105Y019154D01*
X010105Y019033D01*
X010151Y018921D01*
X010237Y018835D01*
X010349Y018788D01*
X010470Y018788D01*
X010582Y018835D01*
X010668Y018921D01*
X010715Y019033D01*
X010715Y019043D01*
X011678Y019043D01*
X011651Y019016D01*
X011605Y018904D01*
X011605Y018783D01*
X011651Y018671D01*
X011737Y018585D01*
X011849Y018538D01*
X011969Y018538D01*
X011877Y018447D01*
X011706Y018275D01*
X011613Y018183D01*
X011598Y018179D01*
X011557Y018155D01*
X011502Y018099D01*
X011446Y018044D01*
X011422Y018003D01*
X011418Y017988D01*
X011319Y017888D01*
X011196Y017766D01*
X011181Y017762D01*
X011140Y017738D01*
X011085Y017682D01*
X011147Y017620D01*
X011147Y017620D01*
X011085Y017682D01*
X011029Y017627D01*
X011005Y017586D01*
X011001Y017571D01*
X010872Y017441D01*
X010872Y017441D01*
X010833Y017403D01*
X009792Y018444D01*
X009818Y018471D01*
X009865Y018583D01*
X009865Y018704D01*
X009818Y018816D01*
X009732Y018902D01*
X009646Y018938D01*
X009665Y018983D01*
X009665Y019104D01*
X009618Y019216D01*
X009532Y019302D01*
X009420Y019348D01*
X009299Y019348D01*
X009187Y019302D01*
X009101Y019216D01*
X009055Y019104D01*
X009055Y019049D01*
X008618Y018613D01*
X007966Y018613D01*
X007949Y018654D01*
X007820Y018783D01*
X007651Y018853D01*
X006868Y018853D01*
X006699Y018783D01*
X006570Y018654D01*
X006500Y018485D01*
X006500Y018302D01*
X006570Y018133D01*
X006699Y018003D01*
X006868Y017933D01*
X007651Y017933D01*
X007820Y018003D01*
X007949Y018133D01*
X007966Y018173D01*
X008801Y018173D01*
X008930Y018302D01*
X009255Y018627D01*
X009255Y018583D01*
X009301Y018471D01*
X009310Y018462D01*
X009310Y018360D01*
X009427Y018243D01*
X010008Y017662D01*
X009920Y017698D01*
X009799Y017698D01*
X009687Y017652D01*
X009648Y017613D01*
X007966Y017613D01*
X007949Y017654D01*
X007820Y017783D01*
X007651Y017853D01*
X006868Y017853D01*
X006699Y017783D01*
X006570Y017654D01*
X006500Y017485D01*
X006500Y017400D01*
X006370Y017530D01*
X006370Y019906D01*
X006882Y020418D01*
X007208Y020418D01*
X007260Y020470D01*
X007311Y020418D01*
X007956Y020418D01*
X008049Y020512D01*
X008049Y021275D01*
X007956Y021368D01*
X007620Y021368D01*
X007620Y021380D01*
X007496Y021503D01*
X006775Y022224D01*
X008733Y022224D01*
X008733Y021933D01*
X008827Y021840D01*
X009590Y021840D01*
X009683Y021933D01*
X009683Y022853D01*
X009590Y022947D01*
X008827Y022947D01*
X008733Y022853D01*
X008733Y022664D01*
X006799Y022664D01*
X006565Y022899D01*
X006565Y022954D01*
X006518Y023066D01*
X006432Y023152D01*
X006320Y023198D01*
X006199Y023198D01*
X006092Y023154D01*
X006094Y023164D01*
X006094Y023426D01*
X005637Y023426D01*
X005637Y023581D01*
X005482Y023581D01*
X005482Y023998D01*
X005181Y023998D01*
X005135Y023986D01*
X005094Y023962D01*
X005061Y023929D01*
X005037Y023888D01*
X005025Y023842D01*
X005025Y023581D01*
X005482Y023581D01*
X005482Y023426D01*
X005025Y023426D01*
X005025Y023164D01*
X005037Y023119D01*
X005061Y023078D01*
X005094Y023044D01*
X005135Y023020D01*
X005181Y023008D01*
X005482Y023008D01*
X005482Y023426D01*
X005637Y023426D01*
X005637Y023008D01*
X005938Y023008D01*
X005982Y023020D01*
X005955Y022954D01*
X005955Y022858D01*
X005138Y022858D01*
X005045Y022765D01*
X005045Y022002D01*
X005138Y021909D01*
X005955Y021909D01*
X005955Y021885D01*
X005450Y021380D01*
X005450Y015906D01*
X005750Y015606D01*
X005750Y013256D01*
X006050Y012956D01*
X006173Y012833D01*
X006866Y012833D01*
X006808Y012804D01*
X006747Y012759D01*
X006693Y012706D01*
X006649Y012645D01*
X006615Y012578D01*
X006591Y012506D01*
X006580Y012431D01*
X006580Y012413D01*
X007340Y012413D01*
X007340Y012373D01*
X007380Y012373D01*
X007380Y012413D01*
X008140Y012413D01*
X008140Y012431D01*
X008128Y012506D01*
X008104Y012578D01*
X008070Y012645D01*
X008026Y012706D01*
X007972Y012759D01*
X007911Y012804D01*
X007853Y012833D01*
X008446Y012833D01*
X009401Y013788D01*
X009470Y013788D01*
X009558Y013825D01*
X008626Y012892D01*
X008626Y011844D01*
X008587Y011805D01*
X008587Y011433D01*
X008407Y011613D01*
X008066Y011613D01*
X008049Y011654D01*
X007920Y011783D01*
X007751Y011853D01*
X006968Y011853D01*
X006799Y011783D01*
X006670Y011654D01*
X006661Y011633D01*
X006359Y011633D01*
X006108Y011885D01*
X006108Y011963D01*
X006055Y012090D01*
X005957Y012188D01*
X005829Y012241D01*
X005690Y012241D01*
X005562Y012188D01*
X005464Y012090D01*
X005411Y011963D01*
X005411Y011824D01*
X005464Y011696D01*
X005562Y011598D01*
X005690Y011545D01*
X005768Y011545D01*
X005920Y011393D01*
X005768Y011241D01*
X005690Y011241D01*
X005562Y011188D01*
X005464Y011090D01*
X005411Y010963D01*
X005411Y010824D01*
X005464Y010696D01*
X005562Y010598D01*
X005690Y010545D01*
X005829Y010545D01*
X005957Y010598D01*
X006055Y010696D01*
X006108Y010824D01*
X006108Y010902D01*
X006359Y011153D01*
X006661Y011153D01*
X006670Y011133D01*
X006799Y011003D01*
X006968Y010933D01*
X007751Y010933D01*
X007920Y011003D01*
X008049Y011133D01*
X008066Y011173D01*
X008224Y011173D01*
X008975Y010423D01*
X008681Y010423D01*
X008587Y010329D01*
X008587Y009881D01*
X008600Y009869D01*
X008600Y009698D01*
X008531Y009629D01*
X008481Y009509D01*
X008481Y009378D01*
X008531Y009257D01*
X008623Y009165D01*
X008744Y009115D01*
X008875Y009115D01*
X008996Y009165D01*
X009050Y009219D01*
X009050Y008656D01*
X009089Y008617D01*
X008936Y008617D01*
X008936Y008121D01*
X008781Y008121D01*
X008781Y008617D01*
X008520Y008617D01*
X008474Y008605D01*
X008433Y008581D01*
X008399Y008548D01*
X008376Y008506D01*
X008363Y008461D01*
X008363Y008121D01*
X008781Y008121D01*
X008781Y007966D01*
X008936Y007966D01*
X008936Y008121D01*
X009353Y008121D01*
X009353Y008354D01*
X009486Y008221D01*
X009486Y007583D01*
X009579Y007490D01*
X010342Y007490D01*
X010436Y007583D01*
X010436Y008503D01*
X010342Y008597D01*
X009704Y008597D01*
X009547Y008754D01*
X009470Y008831D01*
X009470Y009556D01*
X009547Y009634D01*
X009547Y009744D01*
X010418Y008873D01*
X011948Y008873D01*
X011941Y008866D01*
X011895Y008754D01*
X011895Y008709D01*
X011860Y008674D01*
X010428Y007243D01*
X008691Y007243D01*
X008020Y007914D01*
X008020Y008654D01*
X007891Y008783D01*
X007891Y008783D01*
X007011Y009663D01*
X005801Y009663D01*
X004788Y010676D01*
X004788Y010759D01*
X004738Y010879D01*
X004646Y010972D01*
X004525Y011022D01*
X004394Y011022D01*
X004273Y010972D01*
X004181Y010879D01*
X004131Y010759D01*
X004131Y010628D01*
X004181Y010507D01*
X004273Y010415D01*
X004394Y010365D01*
X004477Y010365D01*
X005618Y009223D01*
X006828Y009223D01*
X007580Y008472D01*
X007580Y007732D01*
X008380Y006932D01*
X008508Y006803D01*
X010611Y006803D01*
X012171Y008363D01*
X012181Y008363D01*
X012206Y008388D01*
X012260Y008388D01*
X012372Y008435D01*
X012458Y008521D01*
X012505Y008633D01*
X012505Y008754D01*
X012458Y008866D01*
X012451Y008873D01*
X013068Y008873D01*
X013381Y008561D01*
X013381Y008478D01*
X013431Y008357D01*
X013523Y008265D01*
X013644Y008215D01*
X013775Y008215D01*
X013896Y008265D01*
X013988Y008357D01*
X014038Y008478D01*
X014038Y008609D01*
X013988Y008729D01*
X013896Y008822D01*
X013775Y008872D01*
X013692Y008872D01*
X013271Y009293D01*
X015648Y009293D01*
X015540Y009184D01*
X015540Y009170D01*
X015341Y008972D01*
X015244Y008972D01*
X015123Y008922D01*
X015031Y008829D01*
X014981Y008709D01*
X014981Y008578D01*
X015031Y008457D01*
X015100Y008389D01*
X015100Y008158D01*
X014918Y008158D01*
X014825Y008065D01*
X014825Y007222D01*
X014918Y007128D01*
X015681Y007128D01*
X015775Y007222D01*
X015775Y008065D01*
X015681Y008158D01*
X015520Y008158D01*
X015520Y008389D01*
X015588Y008457D01*
X015638Y008578D01*
X015638Y008675D01*
X015836Y008873D01*
X021468Y008873D01*
X023040Y007302D01*
X023040Y006758D01*
X022838Y006758D01*
X022744Y006665D01*
X022744Y005822D01*
X022838Y005728D01*
X023601Y005728D01*
X023694Y005822D01*
X023694Y006665D01*
X023601Y006758D01*
X023480Y006758D01*
X023480Y007484D01*
X023351Y007613D01*
X021671Y009293D01*
X021777Y009293D01*
X023010Y008060D01*
X023127Y007943D01*
X023778Y007943D01*
X023837Y007885D01*
X023949Y007838D01*
X024070Y007838D01*
X024182Y007885D01*
X024268Y007971D01*
X024315Y008083D01*
X024315Y008204D01*
X024268Y008316D01*
X024182Y008402D01*
X024070Y008448D01*
X023949Y008448D01*
X023837Y008402D01*
X023778Y008343D01*
X023292Y008343D01*
X021962Y009673D01*
X024298Y009673D01*
X024337Y009635D01*
X024449Y009588D01*
X024570Y009588D01*
X024682Y009635D01*
X024768Y009721D01*
X024815Y009833D01*
X024815Y009954D01*
X024782Y010033D01*
X030696Y010033D01*
X031683Y011020D01*
X031699Y011003D01*
X031868Y010933D01*
X032651Y010933D01*
X032820Y011003D01*
X032949Y011133D01*
X033020Y011302D01*
X033020Y011485D01*
X032949Y011654D01*
X032820Y011783D01*
X032651Y011853D01*
X031868Y011853D01*
X031699Y011783D01*
X031570Y011654D01*
X031500Y011485D01*
X031500Y011430D01*
X030523Y010453D01*
X021102Y010453D01*
X021115Y010483D01*
X021115Y010604D01*
X021068Y010716D01*
X021051Y010733D01*
X021538Y010733D01*
X021587Y010685D01*
X021699Y010638D01*
X021820Y010638D01*
X021932Y010685D01*
X022018Y010771D01*
X022065Y010883D01*
X022065Y011004D01*
X022018Y011116D01*
X021932Y011202D01*
X021820Y011248D01*
X021699Y011248D01*
X021587Y011202D01*
X021538Y011153D01*
X020566Y011153D01*
X020761Y011348D01*
X020830Y011348D01*
X020942Y011395D01*
X021028Y011481D01*
X021075Y011593D01*
X021075Y011714D01*
X021028Y011826D01*
X020942Y011912D01*
X020830Y011958D01*
X020709Y011958D01*
X020597Y011912D01*
X020511Y011826D01*
X020465Y011714D01*
X020465Y011645D01*
X020273Y011453D01*
X019852Y011453D01*
X019885Y011533D01*
X019885Y011654D01*
X019838Y011766D01*
X019752Y011852D01*
X019640Y011898D01*
X019519Y011898D01*
X019421Y011858D01*
X019465Y011963D01*
X019465Y012084D01*
X019418Y012196D01*
X019332Y012282D01*
X019220Y012328D01*
X019099Y012328D01*
X018987Y012282D01*
X018928Y012223D01*
X018775Y012223D01*
X018802Y012235D01*
X018888Y012321D01*
X018935Y012433D01*
X018935Y012554D01*
X018888Y012666D01*
X018802Y012752D01*
X018690Y012798D01*
X018637Y012798D01*
X018144Y013291D01*
X018152Y013295D01*
X018238Y013381D01*
X018271Y013460D01*
X018299Y013448D01*
X018420Y013448D01*
X018532Y013495D01*
X018618Y013581D01*
X018665Y013693D01*
X018665Y013814D01*
X018618Y013926D01*
X018532Y014012D01*
X018420Y014058D01*
X018337Y014058D01*
X018302Y014093D01*
X018292Y014093D01*
X017844Y014542D01*
X017923Y014621D01*
X017923Y014621D01*
X018035Y014733D01*
X018176Y014874D01*
X018310Y015009D01*
X018411Y015109D01*
X022105Y011415D01*
X022105Y011333D01*
X022151Y011221D01*
X022237Y011135D01*
X022349Y011088D01*
X022470Y011088D01*
X022582Y011135D01*
X022655Y011207D01*
X022655Y011183D01*
X022701Y011071D01*
X022787Y010985D01*
X022899Y010938D01*
X023020Y010938D01*
X023132Y010985D01*
X023218Y011071D01*
X023265Y011183D01*
X023265Y011304D01*
X023246Y011349D01*
X023332Y011385D01*
X023418Y011471D01*
X023465Y011583D01*
X023465Y011704D01*
X023418Y011816D01*
X023332Y011902D01*
X023220Y011948D01*
X023137Y011948D01*
X019165Y015921D01*
X019165Y016004D01*
X019118Y016116D01*
X019032Y016202D01*
X018920Y016248D01*
X018799Y016248D01*
X018687Y016202D01*
X018601Y016116D01*
X018577Y016057D01*
X018532Y016102D01*
X018420Y016148D01*
X018299Y016148D01*
X018187Y016102D01*
X018101Y016016D01*
X018092Y015994D01*
X018047Y016039D01*
X018482Y016474D01*
X018482Y016607D01*
X018347Y016741D01*
X018269Y016820D01*
X019420Y017970D01*
X019420Y018222D01*
X019468Y018271D01*
X019515Y018383D01*
X019515Y018504D01*
X019468Y018616D01*
X019382Y018702D01*
X019270Y018748D01*
X019149Y018748D01*
X019037Y018702D01*
X018951Y018616D01*
X018905Y018504D01*
X018905Y018383D01*
X018951Y018271D01*
X019000Y018222D01*
X019000Y018144D01*
X018288Y017433D01*
X018288Y017509D01*
X018238Y017629D01*
X018146Y017722D01*
X018060Y017757D01*
X018060Y018176D01*
X017942Y018293D01*
X017292Y018943D01*
X016727Y018943D01*
X016610Y018826D01*
X016450Y018667D01*
X016410Y018707D01*
X016369Y018730D01*
X016354Y018734D01*
X016254Y018834D01*
X016169Y018920D01*
X016737Y019488D01*
X016820Y019488D01*
X016932Y019535D01*
X017018Y019621D01*
X017065Y019733D01*
X017065Y019854D01*
X017018Y019966D01*
X016991Y019993D01*
X018121Y019993D01*
X018105Y019954D01*
X018105Y019833D01*
X018151Y019721D01*
X018237Y019635D01*
X018349Y019588D01*
X018470Y019588D01*
X018582Y019635D01*
X018641Y019693D01*
X022128Y019693D01*
X022187Y019635D01*
X022299Y019588D01*
X022420Y019588D01*
X022532Y019635D01*
X022618Y019721D01*
X022665Y019833D01*
X022665Y019954D01*
X022648Y019993D01*
X029642Y019993D01*
X029960Y020310D01*
X029960Y020412D01*
X030018Y020471D01*
X030065Y020583D01*
X030065Y020704D01*
X030018Y020816D01*
X029932Y020902D01*
X029820Y020948D01*
X029699Y020948D01*
X029587Y020902D01*
X029501Y020816D01*
X029455Y020704D01*
X029455Y020583D01*
X029501Y020471D01*
X029527Y020444D01*
X029477Y020393D01*
X028542Y020393D01*
X028714Y020565D01*
X028825Y020565D01*
X028946Y020615D01*
X029038Y020707D01*
X029088Y020828D01*
X029088Y020959D01*
X029038Y021079D01*
X028946Y021172D01*
X028825Y021222D01*
X028694Y021222D01*
X028573Y021172D01*
X028481Y021079D01*
X028431Y020959D01*
X028431Y020848D01*
X028177Y020593D01*
X025248Y020593D01*
X025265Y020633D01*
X025265Y020754D01*
X025228Y020843D01*
X027342Y020843D01*
X027737Y021238D01*
X027820Y021238D01*
X027932Y021285D01*
X028018Y021371D01*
X028065Y021483D01*
X028065Y021604D01*
X028018Y021716D01*
X027932Y021802D01*
X027820Y021848D01*
X027699Y021848D01*
X027587Y021802D01*
X027501Y021716D01*
X027455Y021604D01*
X027455Y021521D01*
X027177Y021243D01*
X026492Y021243D01*
X026737Y021488D01*
X026820Y021488D01*
X026932Y021535D01*
X027018Y021621D01*
X027065Y021733D01*
X027065Y021854D01*
X027018Y021966D01*
X026932Y022052D01*
X026820Y022098D01*
X026699Y022098D01*
X026587Y022052D01*
X026501Y021966D01*
X026455Y021854D01*
X026455Y021771D01*
X026277Y021593D01*
X024428Y021593D01*
X024465Y021683D01*
X024465Y021804D01*
X024448Y021843D01*
X025728Y021843D01*
X025787Y021785D01*
X025899Y021738D01*
X026020Y021738D01*
X026132Y021785D01*
X026218Y021871D01*
X026265Y021983D01*
X026265Y022104D01*
X026218Y022216D01*
X026132Y022302D01*
X026020Y022348D01*
X025899Y022348D01*
X025787Y022302D01*
X025728Y022243D01*
X018941Y022243D01*
X018882Y022302D01*
X018770Y022348D01*
X018649Y022348D01*
X018537Y022302D01*
X018451Y022216D01*
X018405Y022104D01*
X018405Y021983D01*
X018421Y021943D01*
X016797Y021943D01*
X016806Y021976D01*
X016806Y022316D01*
X016388Y022316D01*
X016388Y022471D01*
X016806Y022471D01*
X016806Y022811D01*
X016793Y022856D01*
X016770Y022898D01*
X016736Y022931D01*
X016715Y022943D01*
X022978Y022943D01*
X023037Y022885D01*
X023149Y022838D01*
X023270Y022838D01*
X023382Y022885D01*
X023468Y022971D01*
X023515Y023083D01*
X023515Y023204D01*
X023498Y023243D01*
X024028Y023243D01*
X024087Y023185D01*
X024199Y023138D01*
X024320Y023138D01*
X024432Y023185D01*
X024518Y023271D01*
X024565Y023383D01*
X024565Y023504D01*
X024518Y023616D01*
X024432Y023702D01*
X024320Y023748D01*
X024199Y023748D01*
X024087Y023702D01*
X024028Y023643D01*
X022928Y023643D01*
X022965Y023733D01*
X022965Y023815D01*
X023892Y024743D01*
X025158Y024743D01*
X025148Y024727D01*
X025136Y024681D01*
X025136Y024420D01*
X025632Y024420D01*
X025632Y024265D01*
X025136Y024265D01*
X025136Y024003D01*
X025148Y023958D01*
X025172Y023917D01*
X025205Y023883D01*
X025246Y023859D01*
X025292Y023847D01*
X025632Y023847D01*
X025632Y024265D01*
X025787Y024265D01*
X025787Y024420D01*
X026283Y024420D01*
X026283Y024681D01*
X026271Y024727D01*
X026261Y024743D01*
X026813Y024743D01*
X026673Y024603D01*
X026550Y024480D01*
X026550Y023766D01*
X026427Y023643D01*
X025141Y023643D01*
X025082Y023702D01*
X024970Y023748D01*
X024849Y023748D01*
X024737Y023702D01*
X024651Y023616D01*
X024605Y023504D01*
X024605Y023383D01*
X024651Y023271D01*
X024737Y023185D01*
X024849Y023138D01*
X024970Y023138D01*
X025082Y023185D01*
X025141Y023243D01*
X026592Y023243D01*
X026832Y023483D01*
X026846Y023483D01*
X026970Y023606D01*
X026970Y023721D01*
X027049Y023688D01*
X027170Y023688D01*
X027214Y023706D01*
X027263Y023657D01*
X027260Y023655D01*
X027227Y023622D01*
X027203Y023581D01*
X027191Y023535D01*
X027191Y023393D01*
X027191Y023251D01*
X027203Y023206D01*
X027227Y023165D01*
X027260Y023131D01*
X027301Y023107D01*
X027347Y023095D01*
X027607Y023095D01*
X027607Y023393D01*
X027607Y023393D01*
X027191Y023393D01*
X027607Y023393D01*
X027607Y023393D01*
X027607Y023095D01*
X027867Y023095D01*
X027913Y023107D01*
X027954Y023131D01*
X027987Y023165D01*
X028011Y023206D01*
X028023Y023251D01*
X028023Y023393D01*
X027607Y023393D01*
X027607Y023393D01*
X028023Y023393D01*
X028023Y023535D01*
X028011Y023581D01*
X027987Y023622D01*
X027954Y023655D01*
X027951Y023657D01*
X028003Y023709D01*
X028003Y024078D01*
X027938Y024143D01*
X028003Y024209D01*
X028003Y024578D01*
X027938Y024643D01*
X028003Y024709D01*
X028003Y025078D01*
X027938Y025143D01*
X028003Y025209D01*
X028003Y025578D01*
X027938Y025643D01*
X028003Y025709D01*
X028003Y026078D01*
X027938Y026143D01*
X027968Y026173D01*
X028238Y026173D01*
X028187Y026152D01*
X028101Y026066D01*
X028055Y025954D01*
X028055Y025833D01*
X028101Y025721D01*
X028187Y025635D01*
X028299Y025588D01*
X028420Y025588D01*
X028532Y025635D01*
X028571Y025673D01*
X029451Y025673D01*
X029481Y025643D01*
X029416Y025578D01*
X029416Y025209D01*
X029481Y025143D01*
X029416Y025078D01*
X029416Y024709D01*
X029481Y024643D01*
X029416Y024578D01*
X029416Y024209D01*
X029481Y024143D01*
X029416Y024078D01*
X029416Y023709D01*
X029481Y023643D01*
X029461Y023623D01*
X029432Y023652D01*
X029320Y023698D01*
X029199Y023698D01*
X029087Y023652D01*
X029001Y023566D01*
X028955Y023454D01*
X028955Y023333D01*
X029001Y023221D01*
X029087Y023135D01*
X029199Y023088D01*
X029320Y023088D01*
X029432Y023135D01*
X029461Y023164D01*
X029509Y023115D01*
X030114Y023115D01*
X030208Y023209D01*
X030208Y023578D01*
X030142Y023643D01*
X030208Y023709D01*
X030208Y024078D01*
X030142Y024143D01*
X030172Y024173D01*
X031520Y024173D01*
X031499Y024145D01*
X031465Y024078D01*
X031441Y024006D01*
X031430Y023931D01*
X031430Y023913D01*
X032190Y023913D01*
X032190Y024373D01*
X032001Y024373D01*
X032061Y024433D01*
X032601Y024433D01*
X032770Y024503D01*
X032899Y024633D01*
X032970Y024802D01*
X032970Y024985D01*
X032899Y025154D01*
X032770Y025283D01*
X032601Y025353D01*
X031981Y025353D01*
X032061Y025433D01*
X032601Y025433D01*
X032770Y025503D01*
X032899Y025633D01*
X032970Y025802D01*
X032970Y025985D01*
X032899Y026154D01*
X032770Y026283D01*
X032601Y026353D01*
X031818Y026353D01*
X031649Y026283D01*
X031520Y026154D01*
X031450Y025985D01*
X031450Y025802D01*
X031520Y025633D01*
X031579Y025574D01*
X031118Y025113D01*
X030172Y025113D01*
X030142Y025143D01*
X030208Y025209D01*
X030208Y025223D01*
X030701Y025223D01*
X030830Y025352D01*
X031092Y025615D01*
X031175Y025615D01*
X031296Y025665D01*
X031388Y025757D01*
X031438Y025878D01*
X031438Y026009D01*
X031388Y026129D01*
X031296Y026222D01*
X031175Y026272D01*
X031044Y026272D01*
X030923Y026222D01*
X030831Y026129D01*
X030781Y026009D01*
X030781Y025926D01*
X030518Y025663D01*
X030162Y025663D01*
X030208Y025709D01*
X030208Y026078D01*
X030142Y026143D01*
X030208Y026209D01*
X030208Y026565D01*
X030275Y026565D01*
X030396Y026615D01*
X030488Y026707D01*
X030538Y026828D01*
X030538Y026959D01*
X030488Y027079D01*
X030396Y027172D01*
X030275Y027222D01*
X030144Y027222D01*
X030023Y027172D01*
X029931Y027079D01*
X029881Y026959D01*
X029881Y026876D01*
X029676Y026671D01*
X029509Y026671D01*
X029416Y026578D01*
X029416Y026209D01*
X029481Y026143D01*
X029451Y026113D01*
X029361Y026113D01*
X029368Y026121D01*
X029415Y026233D01*
X029415Y026354D01*
X029368Y026466D01*
X029282Y026552D01*
X029170Y026598D01*
X029116Y026598D01*
X029101Y026613D01*
X027968Y026613D01*
X027910Y026671D01*
X027305Y026671D01*
X027247Y026613D01*
X026198Y026613D01*
X025848Y026963D01*
X021311Y026963D01*
X021341Y026993D01*
X025692Y026993D01*
X025737Y027038D01*
X025820Y027038D01*
X025932Y027085D01*
X026018Y027171D01*
X026065Y027283D01*
X026065Y027404D01*
X026018Y027516D01*
X026011Y027523D01*
X032818Y027523D01*
X033205Y027137D01*
X033205Y027083D01*
X033251Y026971D01*
X033337Y026885D01*
X033449Y026838D01*
X033570Y026838D01*
X033682Y026885D01*
X033768Y026971D01*
X033815Y027083D01*
X033815Y027204D01*
X033768Y027316D01*
X033682Y027402D01*
X033570Y027448D01*
X033516Y027448D01*
X033001Y027963D01*
X030407Y027963D01*
X030415Y027983D01*
X030415Y028104D01*
X030368Y028216D01*
X030282Y028302D01*
X030170Y028348D01*
X030049Y028348D01*
X029937Y028302D01*
X029898Y028263D01*
X028536Y028263D01*
X028565Y028333D01*
X028565Y028454D01*
X028518Y028566D01*
X028432Y028652D01*
X028320Y028698D01*
X028266Y028698D01*
X028251Y028713D01*
X028030Y028713D01*
X028149Y028833D01*
X028220Y029002D01*
X028220Y029785D01*
X028149Y029954D01*
X028020Y030083D01*
X027851Y030153D01*
X027668Y030153D01*
X027499Y030083D01*
X027370Y029954D01*
X027300Y029785D01*
X027300Y029002D01*
X027370Y028833D01*
X027489Y028713D01*
X027030Y028713D01*
X027149Y028833D01*
X027220Y029002D01*
X027220Y029785D01*
X027149Y029954D01*
X027020Y030083D01*
X026851Y030153D01*
X026668Y030153D01*
X026499Y030083D01*
X026370Y029954D01*
X026300Y029785D01*
X026300Y029002D01*
X026370Y028833D01*
X026489Y028713D01*
X026030Y028713D01*
X026149Y028833D01*
X026220Y029002D01*
X026220Y029785D01*
X026149Y029954D01*
X026020Y030083D01*
X025851Y030153D01*
X025668Y030153D01*
X025499Y030083D01*
X025370Y029954D01*
X025300Y029785D01*
X025300Y029002D01*
X025370Y028833D01*
X025489Y028713D01*
X025030Y028713D01*
X025149Y028833D01*
X025220Y029002D01*
X025220Y029785D01*
X025149Y029954D01*
X025020Y030083D01*
X024851Y030153D01*
X024668Y030153D01*
X024499Y030083D01*
X024370Y029954D01*
X024300Y029785D01*
X024300Y029002D01*
X024370Y028833D01*
X024489Y028713D01*
X024030Y028713D01*
X024149Y028833D01*
X024220Y029002D01*
X024220Y029785D01*
X024149Y029954D01*
X024020Y030083D01*
X023851Y030153D01*
X023668Y030153D01*
X023499Y030083D01*
X023370Y029954D01*
X023300Y029785D01*
X023300Y029002D01*
X023370Y028833D01*
X023489Y028713D01*
X023030Y028713D01*
X023149Y028833D01*
X023220Y029002D01*
X023220Y029785D01*
X023149Y029954D01*
X023020Y030083D01*
X022851Y030153D01*
X022668Y030153D01*
X022499Y030083D01*
X022370Y029954D01*
X022300Y029785D01*
X022300Y029002D01*
X022370Y028833D01*
X022489Y028713D01*
X022030Y028713D01*
X022149Y028833D01*
X022220Y029002D01*
X022220Y029785D01*
X022149Y029954D01*
X022140Y029963D01*
X022351Y030173D01*
X031618Y030173D01*
X031905Y029887D01*
X031905Y029833D01*
X031951Y029721D01*
X032037Y029635D01*
X032149Y029588D01*
X032270Y029588D01*
X032382Y029635D01*
X032468Y029721D01*
X032515Y029833D01*
X032515Y029954D01*
X032468Y030066D01*
X032382Y030152D01*
X032270Y030198D01*
X032216Y030198D01*
X031801Y030613D01*
X022168Y030613D01*
X021760Y030204D01*
X021351Y030613D01*
X018381Y030613D01*
X018432Y030635D01*
X018518Y030721D01*
X018565Y030833D01*
X018565Y030954D01*
X018536Y031023D01*
X030415Y031023D01*
X030473Y030965D01*
X030594Y030915D01*
X030725Y030915D01*
X030846Y030965D01*
X030938Y031057D01*
X030988Y031178D01*
X030988Y031309D01*
X030938Y031429D01*
X030846Y031522D01*
X030725Y031572D01*
X030594Y031572D01*
X030473Y031522D01*
X030415Y031463D01*
X009771Y031463D01*
X009732Y031502D01*
X009620Y031548D01*
X009499Y031548D01*
X009387Y031502D01*
X009301Y031416D01*
X009255Y031304D01*
X009255Y031183D01*
X009301Y031071D01*
X009387Y030985D01*
X009499Y030938D01*
X009620Y030938D01*
X009732Y030985D01*
X009771Y031023D01*
X011983Y031023D01*
X011955Y030954D01*
X011955Y030833D01*
X011963Y030813D01*
X007618Y030813D01*
X007168Y030363D01*
X007040Y030234D01*
X007040Y030100D01*
X006999Y030083D01*
X006870Y029954D01*
X006800Y029785D01*
X006800Y029002D01*
X006870Y028833D01*
X006999Y028703D01*
X007168Y028633D01*
X007351Y028633D01*
X007392Y028650D01*
X007498Y028543D01*
X007040Y028084D01*
X007040Y027902D01*
X007060Y027882D01*
X007060Y027876D01*
X006981Y027798D01*
X006981Y027193D01*
X007075Y027099D01*
X007444Y027099D01*
X007510Y027165D01*
X007540Y027135D01*
X007540Y026484D01*
X007168Y026113D01*
X006060Y026113D01*
X005968Y026205D01*
X005833Y026261D01*
X005686Y026261D01*
X005551Y026205D01*
X005448Y026102D01*
X005392Y025966D01*
X005392Y025820D01*
X005448Y025685D01*
X005551Y025582D01*
X005686Y025526D01*
X005833Y025526D01*
X005968Y025582D01*
X006060Y025673D01*
X007061Y025673D01*
X006981Y025593D01*
X006981Y025324D01*
X006845Y025188D01*
X006820Y025198D01*
X006699Y025198D01*
X006587Y025152D01*
X006501Y025066D01*
X006455Y024954D01*
X006455Y024833D01*
X006501Y024721D01*
X006587Y024635D01*
X006638Y024613D01*
X004668Y024613D01*
X004540Y024484D01*
X004240Y024184D01*
X004240Y024166D01*
X004164Y024090D01*
X004111Y023963D01*
X004111Y023824D01*
X004164Y023696D01*
X004262Y023598D01*
X004390Y023545D01*
X004529Y023545D01*
X004657Y023598D01*
X004755Y023696D01*
X004808Y023824D01*
X004808Y023963D01*
X004758Y024081D01*
X004851Y024173D01*
X007351Y024173D01*
X007851Y024673D01*
X007980Y024802D01*
X007980Y024930D01*
X008010Y024960D01*
X008060Y024910D01*
X008060Y024310D01*
X008660Y023710D01*
X008777Y023593D01*
X009328Y023593D01*
X009387Y023535D01*
X009463Y023503D01*
X007881Y023503D01*
X007832Y023552D01*
X007720Y023598D01*
X007599Y023598D01*
X007487Y023552D01*
X007401Y023466D01*
X007355Y023354D01*
X007355Y023233D01*
X007401Y023121D01*
X007487Y023035D01*
X007599Y022988D01*
X007720Y022988D01*
X007832Y023035D01*
X007881Y023083D01*
X013346Y023083D01*
X013351Y023088D01*
X013420Y023088D01*
X013532Y023135D01*
X013618Y023221D01*
X013665Y023333D01*
X013665Y023454D01*
X013618Y023566D01*
X013532Y023652D01*
X013420Y023698D01*
X013299Y023698D01*
X013187Y023652D01*
X013101Y023566D01*
X013075Y023503D01*
X009656Y023503D01*
X009732Y023535D01*
X009818Y023621D01*
X009865Y023733D01*
X009865Y023854D01*
X009857Y023873D01*
X012418Y023873D01*
X012455Y023837D01*
X012455Y023783D01*
X012501Y023671D01*
X012587Y023585D01*
X012699Y023538D01*
X012820Y023538D01*
X012932Y023585D01*
X013018Y023671D01*
X013065Y023783D01*
X013065Y023904D01*
X013018Y024016D01*
X012932Y024102D01*
X012820Y024148D01*
X012766Y024148D01*
X012601Y024313D01*
X009551Y024313D01*
X009541Y024323D01*
X012637Y024323D01*
X012712Y024248D01*
X012840Y024195D01*
X012979Y024195D01*
X013107Y024248D01*
X013205Y024346D01*
X013258Y024474D01*
X013258Y024613D01*
X013232Y024673D01*
X013668Y024673D01*
X013890Y024452D01*
X013890Y022752D01*
X014340Y022302D01*
X014468Y022173D01*
X014733Y022173D01*
X014733Y021943D01*
X014192Y021943D01*
X013592Y022543D01*
X011841Y022543D01*
X011782Y022602D01*
X011670Y022648D01*
X011549Y022648D01*
X011437Y022602D01*
X011351Y022516D01*
X011305Y022404D01*
X011305Y022283D01*
X011351Y022171D01*
X011437Y022085D01*
X011498Y022059D01*
X011455Y021954D01*
X011455Y021833D01*
X011501Y021721D01*
X011455Y021889D02*
X010769Y021889D01*
X010770Y021889D02*
X010793Y021930D01*
X010806Y021976D01*
X010806Y022316D01*
X010388Y022316D01*
X010388Y021820D01*
X010649Y021820D01*
X010695Y021832D01*
X010736Y021856D01*
X010770Y021889D01*
X010806Y022047D02*
X011493Y022047D01*
X011336Y022206D02*
X010806Y022206D01*
X010806Y022471D02*
X010388Y022471D01*
X010233Y022471D01*
X010233Y022967D01*
X009972Y022967D01*
X009926Y022955D01*
X009885Y022931D01*
X009852Y022898D01*
X009828Y022856D01*
X009816Y022811D01*
X009816Y022471D01*
X010233Y022471D01*
X010233Y022316D01*
X009816Y022316D01*
X009816Y021976D01*
X009828Y021930D01*
X009852Y021889D01*
X009639Y021889D01*
X009683Y022047D02*
X009816Y022047D01*
X009816Y022206D02*
X009683Y022206D01*
X009683Y022364D02*
X010233Y022364D01*
X010233Y022316D02*
X010388Y022316D01*
X010388Y022471D01*
X010388Y022967D01*
X010649Y022967D01*
X010695Y022955D01*
X010736Y022931D01*
X010770Y022898D01*
X010793Y022856D01*
X010806Y022811D01*
X010806Y022471D01*
X010806Y022523D02*
X011358Y022523D01*
X011305Y022364D02*
X010388Y022364D01*
X010388Y022206D02*
X010233Y022206D01*
X010233Y022316D02*
X010233Y021820D01*
X009972Y021820D01*
X009926Y021832D01*
X009885Y021856D01*
X009852Y021889D01*
X009907Y021572D02*
X007428Y021572D01*
X007586Y021413D02*
X009855Y021413D01*
X009887Y021255D02*
X008049Y021255D01*
X008049Y021096D02*
X009581Y021096D01*
X009587Y021102D02*
X009501Y021016D01*
X009455Y020904D01*
X009455Y020783D01*
X009501Y020671D01*
X009587Y020585D01*
X009699Y020538D01*
X009820Y020538D01*
X009932Y020585D01*
X009971Y020623D01*
X011648Y020623D01*
X011687Y020585D01*
X011799Y020538D01*
X011920Y020538D01*
X012032Y020585D01*
X012118Y020671D01*
X012165Y020783D01*
X012165Y020904D01*
X012118Y021016D01*
X012032Y021102D01*
X011920Y021148D01*
X011799Y021148D01*
X011687Y021102D01*
X011648Y021063D01*
X009971Y021063D01*
X009932Y021102D01*
X009820Y021148D01*
X009699Y021148D01*
X009587Y021102D01*
X009469Y020938D02*
X008049Y020938D01*
X008049Y020779D02*
X009456Y020779D01*
X009551Y020621D02*
X008049Y020621D01*
X008000Y020462D02*
X012710Y020462D01*
X012710Y020304D02*
X006767Y020304D01*
X006609Y020145D02*
X012710Y020145D01*
X012710Y019987D02*
X006450Y019987D01*
X006370Y019828D02*
X006756Y019828D01*
X006775Y019838D02*
X006708Y019804D01*
X006647Y019759D01*
X006593Y019706D01*
X006549Y019645D01*
X006515Y019578D01*
X006491Y019506D01*
X006480Y019431D01*
X006480Y019413D01*
X007240Y019413D01*
X007240Y019873D01*
X006922Y019873D01*
X006847Y019861D01*
X006775Y019838D01*
X006567Y019670D02*
X006370Y019670D01*
X006370Y019511D02*
X006493Y019511D01*
X006480Y019373D02*
X006480Y019356D01*
X006491Y019281D01*
X006515Y019209D01*
X006549Y019142D01*
X006593Y019081D01*
X006647Y019027D01*
X006708Y018983D01*
X006775Y018948D01*
X006847Y018925D01*
X006922Y018913D01*
X007240Y018913D01*
X007240Y019373D01*
X007280Y019373D01*
X007280Y019413D01*
X008040Y019413D01*
X008040Y019431D01*
X008028Y019506D01*
X008004Y019578D01*
X007970Y019645D01*
X007926Y019706D01*
X007872Y019759D01*
X007811Y019804D01*
X007744Y019838D01*
X007672Y019861D01*
X007597Y019873D01*
X007280Y019873D01*
X007280Y019413D01*
X007240Y019413D01*
X007240Y019373D01*
X006480Y019373D01*
X006480Y019353D02*
X006370Y019353D01*
X006370Y019194D02*
X006522Y019194D01*
X006638Y019036D02*
X006370Y019036D01*
X006370Y018877D02*
X008882Y018877D01*
X008724Y018719D02*
X007885Y018719D01*
X007744Y018948D02*
X007811Y018983D01*
X007872Y019027D01*
X007926Y019081D01*
X007970Y019142D01*
X008004Y019209D01*
X008028Y019281D01*
X008040Y019356D01*
X008040Y019373D01*
X007280Y019373D01*
X007280Y018913D01*
X007597Y018913D01*
X007672Y018925D01*
X007744Y018948D01*
X007881Y019036D02*
X009041Y019036D01*
X009092Y019194D02*
X007997Y019194D01*
X008039Y019353D02*
X010239Y019353D01*
X010121Y019194D02*
X009627Y019194D01*
X009665Y019036D02*
X010105Y019036D01*
X010194Y018877D02*
X009757Y018877D01*
X009858Y018719D02*
X011631Y018719D01*
X011605Y018877D02*
X010625Y018877D01*
X010715Y019036D02*
X011671Y019036D01*
X011796Y018560D02*
X009855Y018560D01*
X009834Y018402D02*
X011832Y018402D01*
X011877Y018447D02*
X011877Y018447D01*
X011706Y018275D02*
X011706Y018275D01*
X011674Y018243D02*
X009992Y018243D01*
X010151Y018085D02*
X011487Y018085D01*
X011502Y018099D02*
X011565Y018037D01*
X011565Y018037D01*
X011502Y018099D01*
X011516Y018085D02*
X011516Y018085D01*
X011357Y017926D02*
X010309Y017926D01*
X010468Y017768D02*
X011198Y017768D01*
X011019Y017609D02*
X010626Y017609D01*
X010785Y017451D02*
X010881Y017451D01*
X009902Y017768D02*
X007836Y017768D01*
X007902Y018085D02*
X009585Y018085D01*
X009427Y018243D02*
X008871Y018243D01*
X009029Y018402D02*
X009310Y018402D01*
X009264Y018560D02*
X009188Y018560D01*
X009744Y017926D02*
X006370Y017926D01*
X006370Y017768D02*
X006684Y017768D01*
X006551Y017609D02*
X006370Y017609D01*
X006449Y017451D02*
X006500Y017451D01*
X006617Y018085D02*
X006370Y018085D01*
X006370Y018243D02*
X006524Y018243D01*
X006500Y018402D02*
X006370Y018402D01*
X006370Y018560D02*
X006531Y018560D01*
X006635Y018719D02*
X006370Y018719D01*
X005450Y018719D02*
X003990Y018719D01*
X003990Y018877D02*
X005450Y018877D01*
X005450Y019036D02*
X003990Y019036D01*
X003990Y019194D02*
X005450Y019194D01*
X005450Y019353D02*
X003990Y019353D01*
X003990Y019511D02*
X005450Y019511D01*
X005450Y019670D02*
X003990Y019670D01*
X003990Y019828D02*
X005450Y019828D01*
X005450Y019987D02*
X003990Y019987D01*
X003990Y020145D02*
X005450Y020145D01*
X005450Y020304D02*
X003990Y020304D01*
X003990Y020462D02*
X005450Y020462D01*
X005450Y020621D02*
X003990Y020621D01*
X003990Y020779D02*
X005450Y020779D01*
X005450Y020938D02*
X003990Y020938D01*
X003990Y021096D02*
X005450Y021096D01*
X005450Y021255D02*
X003990Y021255D01*
X003990Y021413D02*
X005483Y021413D01*
X005641Y021572D02*
X003990Y021572D01*
X003990Y021730D02*
X005800Y021730D01*
X005955Y021889D02*
X003990Y021889D01*
X003990Y022047D02*
X005045Y022047D01*
X005045Y022206D02*
X003990Y022206D01*
X003990Y022364D02*
X005045Y022364D01*
X005045Y022523D02*
X003990Y022523D01*
X003990Y022681D02*
X005045Y022681D01*
X005120Y022840D02*
X003990Y022840D01*
X003990Y022998D02*
X005973Y022998D01*
X006092Y023157D02*
X006099Y023157D01*
X006094Y023315D02*
X007355Y023315D01*
X007386Y023157D02*
X006420Y023157D01*
X006546Y022998D02*
X007575Y022998D01*
X007744Y022998D02*
X013890Y022998D01*
X013890Y022840D02*
X010798Y022840D01*
X010806Y022681D02*
X013960Y022681D01*
X014119Y022523D02*
X013613Y022523D01*
X013771Y022364D02*
X014277Y022364D01*
X014340Y022302D02*
X014340Y022302D01*
X014436Y022206D02*
X013930Y022206D01*
X014088Y022047D02*
X014733Y022047D01*
X015683Y022047D02*
X015816Y022047D01*
X015816Y021976D02*
X015824Y021943D01*
X015683Y021943D01*
X015683Y022838D01*
X015770Y022838D01*
X015832Y022864D01*
X015828Y022856D01*
X015816Y022811D01*
X015816Y022471D01*
X016233Y022471D01*
X016233Y022316D01*
X015816Y022316D01*
X015816Y021976D01*
X015816Y022206D02*
X015683Y022206D01*
X015683Y022364D02*
X016233Y022364D01*
X016388Y022364D02*
X032552Y022364D01*
X032561Y022373D02*
X032280Y022092D01*
X032280Y021913D01*
X032740Y021913D01*
X032740Y022373D01*
X032561Y022373D01*
X032740Y022364D02*
X032780Y022364D01*
X032780Y022373D02*
X032780Y021913D01*
X033240Y021913D01*
X033240Y022092D01*
X032958Y022373D01*
X032780Y022373D01*
X032780Y022206D02*
X032740Y022206D01*
X032740Y022047D02*
X032780Y022047D01*
X032780Y021913D02*
X032740Y021913D01*
X032740Y021873D01*
X032780Y021873D01*
X032780Y021913D01*
X032780Y021889D02*
X035531Y021889D01*
X035531Y022047D02*
X033240Y022047D01*
X033240Y021873D02*
X032780Y021873D01*
X032780Y021413D01*
X032958Y021413D01*
X033240Y021694D01*
X033240Y021873D01*
X033240Y021730D02*
X035530Y021730D01*
X035530Y021572D02*
X033117Y021572D01*
X032958Y021413D02*
X035530Y021413D01*
X035530Y021255D02*
X033077Y021255D01*
X032958Y021373D02*
X033240Y021092D01*
X033240Y020913D01*
X032780Y020913D01*
X032780Y020873D01*
X033240Y020873D01*
X033240Y020694D01*
X032958Y020413D01*
X032780Y020413D01*
X032780Y020873D01*
X032740Y020873D01*
X032740Y020413D01*
X032561Y020413D01*
X032280Y020694D01*
X032280Y020873D01*
X032740Y020873D01*
X032740Y020913D01*
X032740Y021373D01*
X032561Y021373D01*
X032280Y021092D01*
X032280Y020913D01*
X032740Y020913D01*
X032780Y020913D01*
X032780Y021373D01*
X032958Y021373D01*
X032780Y021413D02*
X032740Y021413D01*
X032740Y021873D01*
X032280Y021873D01*
X032280Y021694D01*
X032561Y021413D01*
X032740Y021413D01*
X032740Y021255D02*
X032780Y021255D01*
X032780Y021096D02*
X032740Y021096D01*
X032740Y020938D02*
X032780Y020938D01*
X032780Y020779D02*
X032740Y020779D01*
X032740Y020621D02*
X032780Y020621D01*
X032780Y020462D02*
X032740Y020462D01*
X032512Y020462D02*
X031980Y020462D01*
X031980Y020463D02*
X032220Y020703D01*
X032220Y021084D01*
X031950Y021353D01*
X031569Y021353D01*
X031300Y021084D01*
X031300Y020703D01*
X031540Y020463D01*
X031540Y020449D01*
X030288Y019197D01*
X030288Y019309D01*
X030238Y019429D01*
X030146Y019522D01*
X030025Y019572D01*
X029894Y019572D01*
X029773Y019522D01*
X029705Y019453D01*
X022442Y019453D01*
X022357Y019538D01*
X022229Y019591D01*
X022090Y019591D01*
X021962Y019538D01*
X021864Y019440D01*
X021811Y019313D01*
X021811Y019174D01*
X021864Y019046D01*
X021962Y018948D01*
X022090Y018895D01*
X022229Y018895D01*
X022357Y018948D01*
X022442Y019033D01*
X029705Y019033D01*
X029773Y018965D01*
X029894Y018915D01*
X030005Y018915D01*
X028951Y017860D01*
X028711Y017860D01*
X028617Y017767D01*
X028617Y017613D01*
X027168Y017613D01*
X027040Y017484D01*
X026694Y017139D01*
X026665Y017167D01*
X026624Y017191D01*
X026578Y017203D01*
X026307Y017203D01*
X026307Y016815D01*
X026212Y016815D01*
X026212Y017203D01*
X025941Y017203D01*
X025895Y017191D01*
X025854Y017167D01*
X025820Y017134D01*
X025797Y017093D01*
X025784Y017047D01*
X025784Y016815D01*
X026212Y016815D01*
X026212Y016719D01*
X025784Y016719D01*
X025784Y016593D01*
X024891Y016593D01*
X024819Y016767D01*
X024633Y016953D01*
X024391Y017053D01*
X024128Y017053D01*
X023886Y016953D01*
X023700Y016767D01*
X023600Y016525D01*
X023600Y016262D01*
X023700Y016019D01*
X023886Y015834D01*
X024128Y015733D01*
X024391Y015733D01*
X024633Y015834D01*
X024819Y016019D01*
X024891Y016193D01*
X025803Y016193D01*
X025804Y016192D01*
X025804Y015735D01*
X025460Y015390D01*
X025459Y015390D01*
X025460Y015390D02*
X025396Y015453D01*
X021996Y015453D01*
X020846Y016603D01*
X020832Y016603D01*
X020565Y016871D01*
X020565Y016954D01*
X020518Y017066D01*
X020432Y017152D01*
X020320Y017198D01*
X020199Y017198D01*
X020087Y017152D01*
X020001Y017066D01*
X019955Y016954D01*
X019955Y016833D01*
X020001Y016721D01*
X020087Y016635D01*
X020199Y016588D01*
X020282Y016588D01*
X020550Y016320D01*
X020550Y016306D01*
X021700Y015156D01*
X021823Y015033D01*
X024655Y015033D01*
X024601Y014979D01*
X024551Y014859D01*
X024551Y014728D01*
X024601Y014607D01*
X024670Y014539D01*
X024670Y014388D01*
X024637Y014355D01*
X024637Y013908D01*
X024731Y013814D01*
X025226Y013814D01*
X025239Y013806D01*
X025285Y013794D01*
X025387Y013794D01*
X025387Y014131D01*
X025387Y014131D01*
X025387Y013794D01*
X025490Y013794D01*
X025536Y013806D01*
X025549Y013814D01*
X025788Y013814D01*
X025882Y013908D01*
X025882Y014355D01*
X025788Y014449D01*
X025549Y014449D01*
X025536Y014457D01*
X025490Y014469D01*
X025387Y014469D01*
X025382Y014469D01*
X025546Y014633D01*
X025670Y014756D01*
X025670Y015006D01*
X026267Y015603D01*
X026621Y015603D01*
X026715Y015697D01*
X026715Y016037D01*
X026851Y016173D01*
X026980Y016302D01*
X026980Y016802D01*
X027351Y017173D01*
X027364Y017173D01*
X027354Y017167D01*
X027320Y017134D01*
X027297Y017093D01*
X027284Y017047D01*
X027284Y016815D01*
X027712Y016815D01*
X027712Y016719D01*
X027284Y016719D01*
X027284Y016488D01*
X027297Y016442D01*
X027320Y016401D01*
X027342Y016379D01*
X027304Y016341D01*
X026980Y016341D01*
X026980Y016500D02*
X027284Y016500D01*
X027284Y016658D02*
X026980Y016658D01*
X026994Y016817D02*
X027284Y016817D01*
X027284Y016975D02*
X027153Y016975D01*
X027311Y017134D02*
X027320Y017134D01*
X027006Y017451D02*
X018900Y017451D01*
X019059Y017609D02*
X021148Y017609D01*
X021199Y017588D02*
X021320Y017588D01*
X021432Y017635D01*
X021518Y017721D01*
X021565Y017833D01*
X021565Y017901D01*
X021846Y018183D01*
X026738Y018183D01*
X026787Y018135D01*
X026899Y018088D01*
X027020Y018088D01*
X027132Y018135D01*
X027218Y018221D01*
X027265Y018333D01*
X027265Y018454D01*
X027218Y018566D01*
X027132Y018652D01*
X027020Y018698D01*
X026899Y018698D01*
X026787Y018652D01*
X026738Y018603D01*
X021846Y018603D01*
X021673Y018603D01*
X021268Y018198D01*
X021199Y018198D01*
X021087Y018152D01*
X021001Y018066D01*
X020955Y017954D01*
X020955Y017833D01*
X021001Y017721D01*
X021087Y017635D01*
X021199Y017588D01*
X021371Y017609D02*
X027164Y017609D01*
X026847Y017292D02*
X018742Y017292D01*
X018583Y017134D02*
X020069Y017134D01*
X019963Y016975D02*
X018425Y016975D01*
X018272Y016817D02*
X019961Y016817D01*
X020063Y016658D02*
X018430Y016658D01*
X018482Y016500D02*
X020370Y016500D01*
X020529Y016341D02*
X018349Y016341D01*
X018191Y016183D02*
X018668Y016183D01*
X019051Y016183D02*
X020673Y016183D01*
X020832Y016024D02*
X019156Y016024D01*
X019220Y015866D02*
X020990Y015866D01*
X021149Y015707D02*
X019378Y015707D01*
X019537Y015549D02*
X021307Y015549D01*
X021466Y015390D02*
X019695Y015390D01*
X019854Y015232D02*
X021624Y015232D01*
X021783Y015073D02*
X020012Y015073D01*
X020171Y014915D02*
X024574Y014915D01*
X024551Y014756D02*
X020329Y014756D01*
X020488Y014598D02*
X024611Y014598D01*
X024670Y014439D02*
X020646Y014439D01*
X020805Y014281D02*
X024637Y014281D01*
X024637Y014122D02*
X020963Y014122D01*
X021122Y013964D02*
X024637Y013964D01*
X025243Y013805D02*
X021280Y013805D01*
X021439Y013647D02*
X027132Y013647D01*
X027132Y013722D02*
X027132Y013567D01*
X026636Y013567D01*
X026636Y013306D01*
X026647Y013263D01*
X024923Y013263D01*
X024800Y013140D01*
X024670Y013010D01*
X024670Y012911D01*
X024637Y012879D01*
X024637Y012431D01*
X024731Y012338D01*
X024920Y012338D01*
X024920Y012306D01*
X025043Y012183D01*
X025050Y012176D01*
X025050Y012094D01*
X025040Y012084D01*
X025040Y011902D01*
X025568Y011373D01*
X025918Y011373D01*
X026031Y011261D01*
X026031Y011178D01*
X026081Y011057D01*
X026173Y010965D01*
X026294Y010915D01*
X026425Y010915D01*
X026546Y010965D01*
X026638Y011057D01*
X026676Y011148D01*
X027430Y011902D01*
X027430Y012067D01*
X027669Y012067D01*
X027763Y012161D01*
X027763Y012843D01*
X028425Y012843D01*
X028493Y012775D01*
X028614Y012725D01*
X028745Y012725D01*
X028866Y012775D01*
X028958Y012867D01*
X029008Y012988D01*
X029008Y013119D01*
X028958Y013239D01*
X028866Y013332D01*
X028745Y013382D01*
X028614Y013382D01*
X028493Y013332D01*
X028425Y013263D01*
X027772Y013263D01*
X027783Y013306D01*
X027783Y013567D01*
X027287Y013567D01*
X027287Y013722D01*
X027132Y013722D01*
X026636Y013722D01*
X026636Y013983D01*
X026648Y014029D01*
X026672Y014070D01*
X026705Y014103D01*
X026746Y014127D01*
X026792Y014139D01*
X027132Y014139D01*
X027132Y013722D01*
X027132Y013805D02*
X027287Y013805D01*
X027287Y013722D02*
X027287Y014139D01*
X027627Y014139D01*
X027673Y014127D01*
X027714Y014103D01*
X027747Y014070D01*
X027771Y014029D01*
X027783Y013983D01*
X027783Y013722D01*
X027287Y013722D01*
X027287Y013647D02*
X035518Y013647D01*
X035518Y013805D02*
X027783Y013805D01*
X027783Y013964D02*
X035518Y013964D01*
X035518Y014122D02*
X027681Y014122D01*
X027287Y014122D02*
X027132Y014122D01*
X027132Y013964D02*
X027287Y013964D01*
X026738Y014122D02*
X025882Y014122D01*
X025882Y013964D02*
X026636Y013964D01*
X026636Y013805D02*
X025532Y013805D01*
X025387Y013805D02*
X025387Y013805D01*
X025387Y013964D02*
X025387Y013964D01*
X025387Y014122D02*
X025387Y014122D01*
X025387Y014132D02*
X025387Y014469D01*
X025387Y014132D01*
X025387Y014132D01*
X025387Y014281D02*
X025387Y014281D01*
X025387Y014439D02*
X025387Y014439D01*
X025511Y014598D02*
X035519Y014598D01*
X035519Y014756D02*
X025670Y014756D01*
X025670Y014915D02*
X035520Y014915D01*
X035520Y015073D02*
X025737Y015073D01*
X025895Y015232D02*
X035520Y015232D01*
X035520Y015390D02*
X026054Y015390D01*
X026212Y015549D02*
X027893Y015549D01*
X027840Y015602D02*
X027968Y015473D01*
X028603Y015473D01*
X028885Y015756D01*
X028940Y015702D01*
X029068Y015573D01*
X029701Y015573D01*
X030051Y015923D01*
X030413Y015923D01*
X030462Y015903D01*
X030557Y015903D01*
X030645Y015940D01*
X030751Y016045D01*
X030829Y016045D01*
X030957Y016098D01*
X031055Y016196D01*
X031108Y016324D01*
X031108Y016463D01*
X031055Y016590D01*
X030972Y016673D01*
X031553Y016673D01*
X031570Y016633D01*
X031699Y016503D01*
X031868Y016433D01*
X032651Y016433D01*
X032820Y016503D01*
X032949Y016633D01*
X033020Y016802D01*
X033020Y016985D01*
X032949Y017154D01*
X032820Y017283D01*
X032651Y017353D01*
X031868Y017353D01*
X031699Y017283D01*
X031570Y017154D01*
X031553Y017113D01*
X030588Y017113D01*
X030588Y017159D01*
X030538Y017279D01*
X030446Y017372D01*
X030325Y017422D01*
X030194Y017422D01*
X030073Y017372D01*
X029981Y017279D01*
X029931Y017159D01*
X029931Y017028D01*
X029981Y016907D01*
X030073Y016815D01*
X030194Y016765D01*
X030277Y016765D01*
X030368Y016673D01*
X030547Y016673D01*
X030464Y016590D01*
X030411Y016463D01*
X030411Y016385D01*
X030390Y016363D01*
X029963Y016363D01*
X029902Y016424D01*
X029902Y016664D01*
X029808Y016758D01*
X029459Y016758D01*
X029456Y016755D01*
X029437Y016766D01*
X029391Y016778D01*
X029260Y016778D01*
X029260Y016382D01*
X029260Y016382D01*
X029260Y016778D01*
X029128Y016778D01*
X029082Y016766D01*
X029063Y016755D01*
X029060Y016758D01*
X028711Y016758D01*
X028617Y016664D01*
X028617Y016110D01*
X028420Y015913D01*
X028215Y015913D01*
X028215Y016341D01*
X028617Y016341D01*
X028617Y016183D02*
X028215Y016183D01*
X028215Y016341D02*
X028177Y016379D01*
X028199Y016401D01*
X028223Y016442D01*
X028235Y016488D01*
X028235Y016719D01*
X027807Y016719D01*
X027807Y016815D01*
X028235Y016815D01*
X028235Y017047D01*
X028223Y017093D01*
X028199Y017134D01*
X028165Y017167D01*
X028155Y017173D01*
X028645Y017173D01*
X028711Y017107D01*
X029060Y017107D01*
X029154Y017201D01*
X029154Y017441D01*
X029365Y017652D01*
X029365Y017201D01*
X029459Y017107D01*
X029808Y017107D01*
X029902Y017201D01*
X029902Y017767D01*
X029808Y017860D01*
X029573Y017860D01*
X031980Y020267D01*
X031980Y020463D01*
X031980Y020304D02*
X035528Y020304D01*
X035528Y020462D02*
X033007Y020462D01*
X033166Y020621D02*
X035529Y020621D01*
X035529Y020779D02*
X033240Y020779D01*
X033240Y020938D02*
X035529Y020938D01*
X035529Y021096D02*
X033235Y021096D01*
X032780Y021572D02*
X032740Y021572D01*
X032740Y021730D02*
X032780Y021730D01*
X032740Y021889D02*
X032220Y021889D01*
X032220Y022047D02*
X032280Y022047D01*
X032220Y022084D02*
X031950Y022353D01*
X031569Y022353D01*
X031300Y022084D01*
X031300Y021703D01*
X031569Y021433D01*
X031950Y021433D01*
X032220Y021703D01*
X032220Y022084D01*
X032098Y022206D02*
X032393Y022206D01*
X032967Y022364D02*
X035531Y022364D01*
X035531Y022206D02*
X033126Y022206D01*
X032402Y021572D02*
X032089Y021572D01*
X032220Y021730D02*
X032280Y021730D01*
X032561Y021413D02*
X028036Y021413D01*
X028065Y021572D02*
X031430Y021572D01*
X031300Y021730D02*
X028004Y021730D01*
X027860Y021255D02*
X031471Y021255D01*
X031312Y021096D02*
X029021Y021096D01*
X029088Y020938D02*
X029674Y020938D01*
X029845Y020938D02*
X031300Y020938D01*
X031300Y020779D02*
X030033Y020779D01*
X030065Y020621D02*
X031381Y020621D01*
X031540Y020462D02*
X030010Y020462D01*
X029953Y020304D02*
X031394Y020304D01*
X031236Y020145D02*
X029794Y020145D01*
X029509Y020462D02*
X028611Y020462D01*
X028952Y020621D02*
X029455Y020621D01*
X029486Y020779D02*
X029068Y020779D01*
X028498Y021096D02*
X027595Y021096D01*
X027437Y020938D02*
X028431Y020938D01*
X028363Y020779D02*
X025254Y020779D01*
X025260Y020621D02*
X028204Y020621D01*
X027347Y021413D02*
X026662Y021413D01*
X026504Y021255D02*
X027188Y021255D01*
X026969Y021572D02*
X027455Y021572D01*
X027515Y021730D02*
X027064Y021730D01*
X027050Y021889D02*
X031300Y021889D01*
X031300Y022047D02*
X026937Y022047D01*
X026582Y022047D02*
X026265Y022047D01*
X026226Y021889D02*
X026469Y021889D01*
X026414Y021730D02*
X024465Y021730D01*
X023480Y022998D02*
X035532Y022998D01*
X035532Y022840D02*
X023274Y022840D01*
X023145Y022840D02*
X016798Y022840D01*
X016806Y022681D02*
X035532Y022681D01*
X035532Y022523D02*
X016806Y022523D01*
X016806Y022206D02*
X018447Y022206D01*
X018405Y022047D02*
X016806Y022047D01*
X015816Y022523D02*
X015683Y022523D01*
X015683Y022681D02*
X015816Y022681D01*
X015824Y022840D02*
X015774Y022840D01*
X013890Y023157D02*
X013554Y023157D01*
X013657Y023315D02*
X013890Y023315D01*
X013890Y023474D02*
X013656Y023474D01*
X013552Y023632D02*
X013890Y023632D01*
X013890Y023791D02*
X013065Y023791D01*
X013046Y023949D02*
X013890Y023949D01*
X013890Y024108D02*
X012918Y024108D01*
X013125Y024266D02*
X013890Y024266D01*
X013890Y024425D02*
X013237Y024425D01*
X013258Y024583D02*
X013758Y024583D01*
X013618Y025113D02*
X011021Y025113D01*
X010982Y025152D01*
X010870Y025198D01*
X010749Y025198D01*
X010637Y025152D01*
X010558Y025073D01*
X010558Y025291D01*
X010558Y025551D01*
X010545Y025597D01*
X010522Y025638D01*
X010488Y025671D01*
X010447Y025695D01*
X010401Y025707D01*
X010260Y025707D01*
X010260Y025291D01*
X010558Y025291D01*
X010260Y025291D01*
X010260Y025291D01*
X010260Y025291D01*
X010260Y024875D01*
X010401Y024875D01*
X010447Y024887D01*
X010488Y024911D01*
X010505Y024927D01*
X010505Y024833D01*
X010533Y024763D01*
X009601Y024763D01*
X009480Y024884D01*
X009480Y024930D01*
X009510Y024960D01*
X009575Y024895D01*
X009944Y024895D01*
X009996Y024947D01*
X009997Y024944D01*
X010031Y024911D01*
X010072Y024887D01*
X010118Y024875D01*
X010260Y024875D01*
X010260Y025291D01*
X010260Y025291D01*
X010260Y025707D01*
X010118Y025707D01*
X010072Y025695D01*
X010031Y025671D01*
X009997Y025638D01*
X009996Y025635D01*
X009944Y025687D01*
X009575Y025687D01*
X009510Y025622D01*
X009444Y025687D01*
X009346Y025687D01*
X009405Y025746D01*
X009458Y025874D01*
X009458Y026013D01*
X009405Y026140D01*
X009307Y026238D01*
X009179Y026291D01*
X009040Y026291D01*
X008912Y026238D01*
X008837Y026163D01*
X008550Y026163D01*
X008571Y026185D01*
X008627Y026320D01*
X008627Y026466D01*
X008571Y026602D01*
X008480Y026693D01*
X008480Y027135D01*
X008510Y027165D01*
X008575Y027099D01*
X008944Y027099D01*
X009010Y027165D01*
X009040Y027135D01*
X009040Y026802D01*
X009590Y026252D01*
X009718Y026123D01*
X012178Y026123D01*
X012103Y026048D01*
X012049Y026048D01*
X011937Y026002D01*
X011851Y025916D01*
X011805Y025804D01*
X011805Y025683D01*
X011851Y025571D01*
X011937Y025485D01*
X012049Y025438D01*
X012170Y025438D01*
X012282Y025485D01*
X012368Y025571D01*
X012415Y025683D01*
X012415Y025737D01*
X012701Y026023D01*
X014378Y026023D01*
X014240Y025884D01*
X014240Y025687D01*
X014075Y025687D01*
X013981Y025593D01*
X013981Y025463D01*
X013968Y025463D01*
X013840Y025334D01*
X013618Y025113D01*
X013722Y025217D02*
X010558Y025217D01*
X010558Y025376D02*
X013881Y025376D01*
X013981Y025534D02*
X012332Y025534D01*
X012415Y025693D02*
X014240Y025693D01*
X014240Y025851D02*
X012529Y025851D01*
X012687Y026010D02*
X014365Y026010D01*
X012694Y024266D02*
X012648Y024266D01*
X012455Y023791D02*
X009865Y023791D01*
X009823Y023632D02*
X012539Y023632D01*
X012980Y023632D02*
X013167Y023632D01*
X011887Y025534D02*
X010558Y025534D01*
X010451Y025693D02*
X011805Y025693D01*
X011824Y025851D02*
X009448Y025851D01*
X009458Y026010D02*
X011956Y026010D01*
X010260Y025693D02*
X010260Y025693D01*
X010260Y025534D02*
X010260Y025534D01*
X010260Y025376D02*
X010260Y025376D01*
X010260Y025217D02*
X010260Y025217D01*
X010260Y025059D02*
X010260Y025059D01*
X010260Y024900D02*
X010260Y024900D01*
X010470Y024900D02*
X010505Y024900D01*
X010049Y024900D02*
X009950Y024900D01*
X009570Y024900D02*
X009480Y024900D01*
X009351Y025693D02*
X010068Y025693D01*
X009673Y026168D02*
X009377Y026168D01*
X009515Y026327D02*
X008627Y026327D01*
X008619Y026485D02*
X009356Y026485D01*
X009198Y026644D02*
X008529Y026644D01*
X008480Y026802D02*
X009040Y026802D01*
X009040Y026961D02*
X008480Y026961D01*
X008480Y027119D02*
X008555Y027119D01*
X008964Y027119D02*
X009040Y027119D01*
X008842Y026168D02*
X008555Y026168D01*
X007540Y026485D02*
X003990Y026485D01*
X003990Y026327D02*
X007382Y026327D01*
X007223Y026168D02*
X006005Y026168D01*
X005514Y026168D02*
X003990Y026168D01*
X003990Y026010D02*
X005410Y026010D01*
X005392Y025851D02*
X003990Y025851D01*
X003990Y025693D02*
X005444Y025693D01*
X005665Y025534D02*
X003990Y025534D01*
X003990Y025376D02*
X006981Y025376D01*
X006981Y025534D02*
X005854Y025534D01*
X006498Y025059D02*
X003990Y025059D01*
X003990Y025217D02*
X006875Y025217D01*
X006455Y024900D02*
X003990Y024900D01*
X003990Y024742D02*
X006492Y024742D01*
X006025Y023962D02*
X005984Y023986D01*
X005938Y023998D01*
X005637Y023998D01*
X005637Y023581D01*
X006094Y023581D01*
X006094Y023842D01*
X006082Y023888D01*
X006058Y023929D01*
X006025Y023962D01*
X006038Y023949D02*
X008421Y023949D01*
X008579Y023791D02*
X006094Y023791D01*
X006094Y023632D02*
X008738Y023632D01*
X008262Y024108D02*
X004785Y024108D01*
X004808Y023949D02*
X005081Y023949D01*
X005025Y023791D02*
X004794Y023791D01*
X004691Y023632D02*
X005025Y023632D01*
X005025Y023315D02*
X003990Y023315D01*
X003990Y023157D02*
X005027Y023157D01*
X005482Y023157D02*
X005637Y023157D01*
X005637Y023315D02*
X005482Y023315D01*
X005482Y023474D02*
X003990Y023474D01*
X003990Y023632D02*
X004228Y023632D01*
X004125Y023791D02*
X003990Y023791D01*
X003990Y023949D02*
X004111Y023949D01*
X004182Y024108D02*
X003990Y024108D01*
X003990Y024266D02*
X004321Y024266D01*
X004480Y024425D02*
X003990Y024425D01*
X003990Y024583D02*
X004638Y024583D01*
X005482Y023949D02*
X005637Y023949D01*
X005637Y023791D02*
X005482Y023791D01*
X005482Y023632D02*
X005637Y023632D01*
X005637Y023474D02*
X007409Y023474D01*
X007444Y024266D02*
X008104Y024266D01*
X008060Y024425D02*
X007602Y024425D01*
X007761Y024583D02*
X008060Y024583D01*
X008060Y024742D02*
X007919Y024742D01*
X007980Y024900D02*
X008060Y024900D01*
X007540Y026644D02*
X003990Y026644D01*
X003990Y026802D02*
X007540Y026802D01*
X007540Y026961D02*
X003990Y026961D01*
X003990Y027119D02*
X007055Y027119D01*
X006981Y027278D02*
X003990Y027278D01*
X003990Y027436D02*
X006981Y027436D01*
X006981Y027595D02*
X003990Y027595D01*
X003990Y027753D02*
X006981Y027753D01*
X007040Y027912D02*
X003990Y027912D01*
X003990Y028070D02*
X007040Y028070D01*
X007184Y028229D02*
X003990Y028229D01*
X003990Y028387D02*
X007342Y028387D01*
X007496Y028546D02*
X003990Y028546D01*
X003990Y028704D02*
X006998Y028704D01*
X006857Y028863D02*
X003990Y028863D01*
X003990Y029021D02*
X006800Y029021D01*
X006800Y029180D02*
X003990Y029180D01*
X003990Y029338D02*
X006800Y029338D01*
X006800Y029497D02*
X003990Y029497D01*
X003990Y029655D02*
X006800Y029655D01*
X006812Y029814D02*
X003990Y029814D01*
X003990Y029972D02*
X006888Y029972D01*
X007040Y030131D02*
X003990Y030131D01*
X003990Y030289D02*
X007094Y030289D01*
X007253Y030448D02*
X003990Y030448D01*
X003990Y030606D02*
X007411Y030606D01*
X007570Y030765D02*
X003990Y030765D01*
X003990Y030923D02*
X011955Y030923D01*
X012437Y030302D02*
X012351Y030216D01*
X012305Y030104D01*
X012305Y029983D01*
X012351Y029871D01*
X012437Y029785D01*
X012549Y029738D01*
X012670Y029738D01*
X012782Y029785D01*
X012868Y029871D01*
X012915Y029983D01*
X012915Y030033D01*
X013921Y030033D01*
X013893Y030006D01*
X013849Y029945D01*
X013815Y029878D01*
X013791Y029806D01*
X013780Y029731D01*
X013780Y029413D01*
X014240Y029413D01*
X014240Y029373D01*
X013780Y029373D01*
X013780Y029056D01*
X013791Y028981D01*
X013815Y028909D01*
X013849Y028842D01*
X013893Y028781D01*
X013947Y028727D01*
X013966Y028713D01*
X012011Y028713D01*
X012018Y028721D01*
X012065Y028833D01*
X012065Y028954D01*
X012018Y029066D01*
X011932Y029152D01*
X011820Y029198D01*
X011699Y029198D01*
X011587Y029152D01*
X011548Y029113D01*
X010740Y029113D01*
X010740Y029373D01*
X010280Y029373D01*
X010280Y029413D01*
X010740Y029413D01*
X010740Y029731D01*
X010728Y029806D01*
X010704Y029878D01*
X010670Y029945D01*
X010626Y030006D01*
X010608Y030023D01*
X010868Y030023D01*
X010955Y029937D01*
X010955Y029833D01*
X011001Y029721D01*
X011087Y029635D01*
X011199Y029588D01*
X011320Y029588D01*
X011432Y029635D01*
X011518Y029721D01*
X011565Y029833D01*
X011565Y029954D01*
X011518Y030066D01*
X011432Y030152D01*
X011320Y030198D01*
X011316Y030198D01*
X011180Y030334D01*
X011180Y030334D01*
X011141Y030373D01*
X012643Y030373D01*
X012618Y030348D01*
X012549Y030348D01*
X012437Y030302D01*
X012424Y030289D02*
X011225Y030289D01*
X011453Y030131D02*
X012316Y030131D01*
X012309Y029972D02*
X011557Y029972D01*
X011557Y029814D02*
X012408Y029814D01*
X012811Y029814D02*
X013794Y029814D01*
X013780Y029655D02*
X011453Y029655D01*
X011066Y029655D02*
X010740Y029655D01*
X010740Y029497D02*
X013780Y029497D01*
X013780Y029338D02*
X010740Y029338D01*
X010740Y029180D02*
X011654Y029180D01*
X011865Y029180D02*
X013780Y029180D01*
X013785Y029021D02*
X012037Y029021D01*
X012065Y028863D02*
X013838Y028863D01*
X014280Y029373D02*
X014280Y029413D01*
X014740Y029413D01*
X014740Y029731D01*
X014728Y029806D01*
X014704Y029878D01*
X014670Y029945D01*
X014626Y030006D01*
X014598Y030033D01*
X014858Y030033D01*
X014904Y029988D01*
X014870Y029954D01*
X014800Y029785D01*
X014800Y029002D01*
X014870Y028833D01*
X014989Y028713D01*
X014553Y028713D01*
X014572Y028727D01*
X014626Y028781D01*
X014670Y028842D01*
X014704Y028909D01*
X014728Y028981D01*
X014740Y029056D01*
X014740Y029373D01*
X014280Y029373D01*
X014740Y029338D02*
X014800Y029338D01*
X014800Y029180D02*
X014740Y029180D01*
X014734Y029021D02*
X014800Y029021D01*
X014857Y028863D02*
X014681Y028863D01*
X014740Y029497D02*
X014800Y029497D01*
X014800Y029655D02*
X014740Y029655D01*
X014725Y029814D02*
X014812Y029814D01*
X014888Y029972D02*
X014650Y029972D01*
X013869Y029972D02*
X012910Y029972D01*
X010962Y029814D02*
X010725Y029814D01*
X010650Y029972D02*
X010919Y029972D01*
X010240Y029413D02*
X010240Y029373D01*
X009780Y029373D01*
X009780Y029056D01*
X009791Y028981D01*
X009815Y028909D01*
X009849Y028842D01*
X009893Y028781D01*
X009911Y028763D01*
X009580Y028763D01*
X009649Y028833D01*
X009720Y029002D01*
X009720Y029785D01*
X009649Y029954D01*
X009580Y030023D01*
X009911Y030023D01*
X009893Y030006D01*
X009849Y029945D01*
X009815Y029878D01*
X009791Y029806D01*
X009780Y029731D01*
X009780Y029413D01*
X010240Y029413D01*
X009780Y029338D02*
X009720Y029338D01*
X009720Y029180D02*
X009780Y029180D01*
X009785Y029021D02*
X009720Y029021D01*
X009662Y028863D02*
X009838Y028863D01*
X009780Y029497D02*
X009720Y029497D01*
X009720Y029655D02*
X009780Y029655D01*
X009794Y029814D02*
X009707Y029814D01*
X009631Y029972D02*
X009869Y029972D01*
X009296Y031082D02*
X003990Y031082D01*
X003990Y031240D02*
X009255Y031240D01*
X009294Y031399D02*
X003990Y031399D01*
X003990Y031557D02*
X030559Y031557D01*
X030760Y031557D02*
X035546Y031557D01*
X035546Y031399D02*
X030951Y031399D01*
X030988Y031240D02*
X035545Y031240D01*
X035545Y031082D02*
X030948Y031082D01*
X030745Y030923D02*
X035545Y030923D01*
X035545Y030765D02*
X018536Y030765D01*
X018565Y030923D02*
X030574Y030923D01*
X030020Y030083D02*
X029851Y030153D01*
X029668Y030153D01*
X029499Y030083D01*
X029370Y029954D01*
X029300Y029785D01*
X029300Y029002D01*
X029370Y028833D01*
X029499Y028703D01*
X029668Y028633D01*
X029851Y028633D01*
X030020Y028703D01*
X030149Y028833D01*
X030220Y029002D01*
X030220Y029785D01*
X030149Y029954D01*
X030020Y030083D01*
X029905Y030131D02*
X031661Y030131D01*
X031819Y029972D02*
X030131Y029972D01*
X030207Y029814D02*
X031912Y029814D01*
X032016Y029655D02*
X030220Y029655D01*
X030220Y029497D02*
X035543Y029497D01*
X035543Y029655D02*
X032403Y029655D01*
X032507Y029814D02*
X035543Y029814D01*
X035543Y029972D02*
X032507Y029972D01*
X032403Y030131D02*
X035544Y030131D01*
X035544Y030289D02*
X032125Y030289D01*
X031966Y030448D02*
X035544Y030448D01*
X035544Y030606D02*
X031808Y030606D01*
X030220Y029338D02*
X035542Y029338D01*
X035542Y029180D02*
X030220Y029180D01*
X030220Y029021D02*
X035542Y029021D01*
X035542Y028863D02*
X030162Y028863D01*
X030021Y028704D02*
X035541Y028704D01*
X035541Y028546D02*
X028526Y028546D01*
X028499Y028703D02*
X028668Y028633D01*
X028851Y028633D01*
X029020Y028703D01*
X029149Y028833D01*
X029220Y029002D01*
X029220Y029785D01*
X029149Y029954D01*
X029020Y030083D01*
X028851Y030153D01*
X028668Y030153D01*
X028499Y030083D01*
X028370Y029954D01*
X028300Y029785D01*
X028300Y029002D01*
X028370Y028833D01*
X028499Y028703D01*
X028498Y028704D02*
X028260Y028704D01*
X028162Y028863D02*
X028357Y028863D01*
X028300Y029021D02*
X028220Y029021D01*
X028220Y029180D02*
X028300Y029180D01*
X028300Y029338D02*
X028220Y029338D01*
X028220Y029497D02*
X028300Y029497D01*
X028300Y029655D02*
X028220Y029655D01*
X028207Y029814D02*
X028312Y029814D01*
X028388Y029972D02*
X028131Y029972D01*
X027905Y030131D02*
X028614Y030131D01*
X028905Y030131D02*
X029614Y030131D01*
X029388Y029972D02*
X029131Y029972D01*
X029207Y029814D02*
X029312Y029814D01*
X029300Y029655D02*
X029220Y029655D01*
X029220Y029497D02*
X029300Y029497D01*
X029300Y029338D02*
X029220Y029338D01*
X029220Y029180D02*
X029300Y029180D01*
X029300Y029021D02*
X029220Y029021D01*
X029162Y028863D02*
X029357Y028863D01*
X029498Y028704D02*
X029021Y028704D01*
X028565Y028387D02*
X035541Y028387D01*
X035541Y028229D02*
X030355Y028229D01*
X030415Y028070D02*
X035540Y028070D01*
X035540Y027912D02*
X033052Y027912D01*
X033211Y027753D02*
X035540Y027753D01*
X035540Y027595D02*
X033369Y027595D01*
X033599Y027436D02*
X035539Y027436D01*
X035539Y027278D02*
X033784Y027278D01*
X033815Y027119D02*
X035539Y027119D01*
X035539Y026961D02*
X033758Y026961D01*
X033261Y026961D02*
X032970Y026961D01*
X032970Y026985D02*
X032899Y027154D01*
X032770Y027283D01*
X032601Y027353D01*
X031818Y027353D01*
X031649Y027283D01*
X031520Y027154D01*
X031450Y026985D01*
X031450Y026802D01*
X031520Y026633D01*
X031649Y026503D01*
X031818Y026433D01*
X032601Y026433D01*
X032770Y026503D01*
X032899Y026633D01*
X032970Y026802D01*
X032970Y026985D01*
X032914Y027119D02*
X033205Y027119D01*
X033064Y027278D02*
X032776Y027278D01*
X032905Y027436D02*
X026051Y027436D01*
X026063Y027278D02*
X031644Y027278D01*
X031505Y027119D02*
X030448Y027119D01*
X030537Y026961D02*
X031450Y026961D01*
X031450Y026802D02*
X030527Y026802D01*
X030425Y026644D02*
X031515Y026644D01*
X031692Y026485D02*
X030208Y026485D01*
X030208Y026327D02*
X031754Y026327D01*
X031534Y026168D02*
X031349Y026168D01*
X031437Y026010D02*
X031460Y026010D01*
X031450Y025851D02*
X031427Y025851D01*
X031495Y025693D02*
X031324Y025693D01*
X031539Y025534D02*
X031012Y025534D01*
X030853Y025376D02*
X031381Y025376D01*
X031222Y025217D02*
X030208Y025217D01*
X030192Y025693D02*
X030548Y025693D01*
X030706Y025851D02*
X030208Y025851D01*
X030208Y026010D02*
X030782Y026010D01*
X030870Y026168D02*
X030168Y026168D01*
X029456Y026168D02*
X029388Y026168D01*
X029415Y026327D02*
X029416Y026327D01*
X029416Y026485D02*
X029349Y026485D01*
X029482Y026644D02*
X027937Y026644D01*
X027277Y026644D02*
X026168Y026644D01*
X026009Y026802D02*
X029807Y026802D01*
X029882Y026961D02*
X025851Y026961D01*
X025967Y027119D02*
X029971Y027119D01*
X029416Y025534D02*
X028003Y025534D01*
X028003Y025376D02*
X029416Y025376D01*
X029416Y025217D02*
X028003Y025217D01*
X028003Y025059D02*
X029416Y025059D01*
X029416Y024900D02*
X028003Y024900D01*
X028003Y024742D02*
X029416Y024742D01*
X029421Y024583D02*
X027998Y024583D01*
X028003Y024425D02*
X029416Y024425D01*
X029416Y024266D02*
X028003Y024266D01*
X027973Y024108D02*
X029446Y024108D01*
X029416Y023949D02*
X028003Y023949D01*
X028003Y023791D02*
X029416Y023791D01*
X029452Y023632D02*
X029470Y023632D01*
X029067Y023632D02*
X027977Y023632D01*
X028023Y023474D02*
X028963Y023474D01*
X028962Y023315D02*
X028023Y023315D01*
X027980Y023157D02*
X029065Y023157D01*
X029454Y023157D02*
X029468Y023157D01*
X030156Y023157D02*
X035533Y023157D01*
X035533Y023315D02*
X030208Y023315D01*
X030208Y023474D02*
X031675Y023474D01*
X031658Y023483D02*
X031725Y023448D01*
X031797Y023425D01*
X031872Y023413D01*
X032190Y023413D01*
X032190Y023873D01*
X032230Y023873D01*
X032230Y023913D01*
X032990Y023913D01*
X032990Y023931D01*
X032978Y024006D01*
X032954Y024078D01*
X032920Y024145D01*
X032876Y024206D01*
X032822Y024259D01*
X032761Y024304D01*
X032694Y024338D01*
X032622Y024361D01*
X032547Y024373D01*
X032230Y024373D01*
X032230Y023913D01*
X032190Y023913D01*
X032190Y023873D01*
X031430Y023873D01*
X031430Y023856D01*
X031441Y023781D01*
X031465Y023709D01*
X031499Y023642D01*
X031543Y023581D01*
X031597Y023527D01*
X031658Y023483D01*
X031506Y023632D02*
X030153Y023632D01*
X030208Y023791D02*
X031440Y023791D01*
X031432Y023949D02*
X030208Y023949D01*
X030178Y024108D02*
X031480Y024108D01*
X032052Y024425D02*
X035535Y024425D01*
X035535Y024583D02*
X032850Y024583D01*
X032945Y024742D02*
X035535Y024742D01*
X035535Y024900D02*
X032970Y024900D01*
X032939Y025059D02*
X035536Y025059D01*
X035536Y025217D02*
X032836Y025217D01*
X032801Y025534D02*
X035536Y025534D01*
X035536Y025376D02*
X032003Y025376D01*
X032924Y025693D02*
X035537Y025693D01*
X035537Y025851D02*
X032970Y025851D01*
X032959Y026010D02*
X035537Y026010D01*
X035537Y026168D02*
X032885Y026168D01*
X032665Y026327D02*
X035538Y026327D01*
X035538Y026485D02*
X032727Y026485D01*
X032904Y026644D02*
X035538Y026644D01*
X035538Y026802D02*
X032970Y026802D01*
X032813Y024266D02*
X035534Y024266D01*
X035534Y024108D02*
X032939Y024108D01*
X032987Y023949D02*
X035534Y023949D01*
X035534Y023791D02*
X032979Y023791D01*
X032978Y023781D02*
X032990Y023856D01*
X032990Y023873D01*
X032230Y023873D01*
X032230Y023413D01*
X032547Y023413D01*
X032622Y023425D01*
X032694Y023448D01*
X032761Y023483D01*
X032822Y023527D01*
X032876Y023581D01*
X032920Y023642D01*
X032954Y023709D01*
X032978Y023781D01*
X032913Y023632D02*
X035533Y023632D01*
X035533Y023474D02*
X032744Y023474D01*
X032230Y023474D02*
X032190Y023474D01*
X032190Y023632D02*
X032230Y023632D01*
X032230Y023791D02*
X032190Y023791D01*
X032190Y023949D02*
X032230Y023949D01*
X032230Y024108D02*
X032190Y024108D01*
X032190Y024266D02*
X032230Y024266D01*
X031422Y022206D02*
X026222Y022206D01*
X026664Y023315D02*
X027191Y023315D01*
X027191Y023474D02*
X026823Y023474D01*
X026970Y023632D02*
X027237Y023632D01*
X027235Y023157D02*
X025015Y023157D01*
X024804Y023157D02*
X024365Y023157D01*
X024154Y023157D02*
X023515Y023157D01*
X022965Y023791D02*
X026550Y023791D01*
X026550Y023949D02*
X026266Y023949D01*
X026271Y023958D02*
X026283Y024003D01*
X026283Y024265D01*
X025787Y024265D01*
X025787Y023847D01*
X026127Y023847D01*
X026173Y023859D01*
X026214Y023883D01*
X026247Y023917D01*
X026271Y023958D01*
X026283Y024108D02*
X026550Y024108D01*
X026550Y024266D02*
X025787Y024266D01*
X025632Y024266D02*
X023415Y024266D01*
X023257Y024108D02*
X025136Y024108D01*
X025153Y023949D02*
X023098Y023949D01*
X022850Y024266D02*
X022614Y024266D01*
X022638Y024209D02*
X022588Y024329D01*
X022496Y024422D01*
X022375Y024472D01*
X022244Y024472D01*
X022123Y024422D01*
X022095Y024393D01*
X020577Y024393D01*
X020460Y024276D01*
X020427Y024243D01*
X019482Y024243D01*
X019582Y024285D01*
X019668Y024371D01*
X019715Y024483D01*
X019715Y024604D01*
X019668Y024716D01*
X019582Y024802D01*
X019470Y024848D01*
X019401Y024848D01*
X019346Y024903D01*
X017475Y024903D01*
X017488Y024911D01*
X017522Y024944D01*
X017545Y024985D01*
X017558Y025031D01*
X017558Y025164D01*
X017587Y025135D01*
X017699Y025088D01*
X017820Y025088D01*
X017932Y025135D01*
X017981Y025183D01*
X021373Y025183D01*
X021605Y024951D01*
X021605Y024883D01*
X021651Y024771D01*
X021737Y024685D01*
X021849Y024638D01*
X021970Y024638D01*
X022082Y024685D01*
X022168Y024771D01*
X022215Y024883D01*
X022215Y025004D01*
X022168Y025116D01*
X022082Y025202D01*
X021970Y025248D01*
X021901Y025248D01*
X021576Y025573D01*
X023201Y025573D01*
X023373Y025745D01*
X023429Y025745D01*
X023557Y025798D01*
X023655Y025896D01*
X023708Y026024D01*
X023708Y026163D01*
X023655Y026290D01*
X023557Y026388D01*
X023429Y026441D01*
X023290Y026441D01*
X023162Y026388D01*
X023064Y026290D01*
X023011Y026163D01*
X023011Y026024D01*
X023016Y026013D01*
X020331Y026013D01*
X020382Y026035D01*
X020468Y026121D01*
X020515Y026233D01*
X020515Y026354D01*
X020468Y026466D01*
X020411Y026523D01*
X025666Y026523D01*
X025796Y026393D01*
X025490Y026087D01*
X025490Y025919D01*
X025250Y025919D01*
X025156Y025826D01*
X025156Y025143D01*
X023727Y025143D01*
X022682Y024098D01*
X022638Y024098D01*
X022638Y024209D01*
X022638Y024108D02*
X022691Y024108D01*
X022488Y024425D02*
X023008Y024425D01*
X023167Y024583D02*
X019715Y024583D01*
X019691Y024425D02*
X022131Y024425D01*
X022139Y024742D02*
X023325Y024742D01*
X023484Y024900D02*
X022215Y024900D01*
X022192Y025059D02*
X023642Y025059D01*
X023891Y024742D02*
X025157Y024742D01*
X025136Y024583D02*
X023732Y024583D01*
X023574Y024425D02*
X025136Y024425D01*
X025632Y024108D02*
X025787Y024108D01*
X025787Y023949D02*
X025632Y023949D01*
X026283Y024425D02*
X026550Y024425D01*
X026653Y024583D02*
X026283Y024583D01*
X026262Y024742D02*
X026811Y024742D01*
X027987Y025693D02*
X028129Y025693D01*
X028055Y025851D02*
X028003Y025851D01*
X028003Y026010D02*
X028078Y026010D01*
X027963Y026168D02*
X028227Y026168D01*
X025730Y026327D02*
X023618Y026327D01*
X023705Y026168D02*
X025571Y026168D01*
X025490Y026010D02*
X023702Y026010D01*
X023610Y025851D02*
X025181Y025851D01*
X025156Y025693D02*
X023320Y025693D01*
X023014Y026168D02*
X020488Y026168D01*
X020515Y026327D02*
X023101Y026327D01*
X022045Y025217D02*
X025156Y025217D01*
X025156Y025376D02*
X021774Y025376D01*
X021615Y025534D02*
X025156Y025534D01*
X025704Y026485D02*
X020449Y026485D01*
X021497Y025059D02*
X017558Y025059D01*
X017472Y025291D02*
X017260Y025291D01*
X017472Y025291D01*
X017472Y025291D01*
X017260Y025291D02*
X017260Y025291D01*
X019349Y024900D02*
X021605Y024900D01*
X021680Y024742D02*
X019642Y024742D01*
X019538Y024266D02*
X020450Y024266D01*
X024502Y023632D02*
X024667Y023632D01*
X024605Y023474D02*
X024565Y023474D01*
X024537Y023315D02*
X024632Y023315D01*
X027607Y023315D02*
X027607Y023315D01*
X027607Y023157D02*
X027607Y023157D01*
X030919Y019828D02*
X022663Y019828D01*
X022651Y019987D02*
X031077Y019987D01*
X031383Y019670D02*
X035527Y019670D01*
X035527Y019828D02*
X031541Y019828D01*
X031700Y019987D02*
X035528Y019987D01*
X035528Y020145D02*
X031858Y020145D01*
X032138Y020621D02*
X032353Y020621D01*
X032280Y020779D02*
X032220Y020779D01*
X032220Y020938D02*
X032280Y020938D01*
X032284Y021096D02*
X032207Y021096D01*
X032049Y021255D02*
X032442Y021255D01*
X031224Y019511D02*
X035527Y019511D01*
X035527Y019353D02*
X032652Y019353D01*
X032651Y019353D02*
X032820Y019283D01*
X032949Y019154D01*
X033020Y018985D01*
X033020Y018802D01*
X032949Y018633D01*
X032820Y018503D01*
X032651Y018433D01*
X031868Y018433D01*
X031699Y018503D01*
X031570Y018633D01*
X031561Y018653D01*
X031359Y018653D01*
X031065Y018359D01*
X031065Y018333D01*
X031018Y018221D01*
X030932Y018135D01*
X030820Y018088D01*
X030699Y018088D01*
X030587Y018135D01*
X030501Y018221D01*
X030455Y018333D01*
X030455Y018454D01*
X030501Y018566D01*
X030587Y018652D01*
X030699Y018698D01*
X030725Y018698D01*
X031124Y019097D01*
X031212Y019133D01*
X031561Y019133D01*
X031570Y019154D01*
X031699Y019283D01*
X031868Y019353D01*
X032651Y019353D01*
X032909Y019194D02*
X035526Y019194D01*
X035526Y019036D02*
X032998Y019036D01*
X033020Y018877D02*
X035526Y018877D01*
X035526Y018719D02*
X032985Y018719D01*
X032877Y018560D02*
X035525Y018560D01*
X035525Y018402D02*
X031107Y018402D01*
X031028Y018243D02*
X031659Y018243D01*
X031699Y018283D02*
X031570Y018154D01*
X031500Y017985D01*
X031500Y017802D01*
X031570Y017633D01*
X031699Y017503D01*
X031868Y017433D01*
X032651Y017433D01*
X032820Y017503D01*
X032949Y017633D01*
X033020Y017802D01*
X033020Y017985D01*
X032949Y018154D01*
X032820Y018283D01*
X032651Y018353D01*
X031868Y018353D01*
X031699Y018283D01*
X031541Y018085D02*
X029798Y018085D01*
X029956Y018243D02*
X030492Y018243D01*
X030455Y018402D02*
X030115Y018402D01*
X030273Y018560D02*
X030499Y018560D01*
X030432Y018719D02*
X030746Y018719D01*
X030590Y018877D02*
X030904Y018877D01*
X030749Y019036D02*
X031063Y019036D01*
X030907Y019194D02*
X031610Y019194D01*
X031867Y019353D02*
X031066Y019353D01*
X030760Y019670D02*
X022567Y019670D01*
X022384Y019511D02*
X029763Y019511D01*
X030156Y019511D02*
X030602Y019511D01*
X030443Y019353D02*
X030270Y019353D01*
X029968Y018877D02*
X017358Y018877D01*
X017517Y018719D02*
X019078Y018719D01*
X018928Y018560D02*
X017675Y018560D01*
X017834Y018402D02*
X018905Y018402D01*
X018978Y018243D02*
X017992Y018243D01*
X018060Y018085D02*
X018940Y018085D01*
X018782Y017926D02*
X018060Y017926D01*
X018060Y017768D02*
X018623Y017768D01*
X018465Y017609D02*
X018246Y017609D01*
X018288Y017451D02*
X018306Y017451D01*
X019217Y017768D02*
X020981Y017768D01*
X020955Y017926D02*
X019376Y017926D01*
X019420Y018085D02*
X021020Y018085D01*
X021313Y018243D02*
X019441Y018243D01*
X019515Y018402D02*
X021471Y018402D01*
X021630Y018560D02*
X019491Y018560D01*
X019341Y018719D02*
X029809Y018719D01*
X029651Y018560D02*
X027220Y018560D01*
X027265Y018402D02*
X029492Y018402D01*
X029334Y018243D02*
X027228Y018243D01*
X026307Y017134D02*
X026212Y017134D01*
X026212Y016975D02*
X026307Y016975D01*
X026307Y016817D02*
X026212Y016817D01*
X025784Y016817D02*
X024769Y016817D01*
X024864Y016658D02*
X025784Y016658D01*
X025784Y016975D02*
X024579Y016975D01*
X023940Y016975D02*
X020556Y016975D01*
X020619Y016817D02*
X023750Y016817D01*
X023655Y016658D02*
X020777Y016658D01*
X020950Y016500D02*
X023600Y016500D01*
X023600Y016341D02*
X021108Y016341D01*
X021267Y016183D02*
X023632Y016183D01*
X023698Y016024D02*
X021425Y016024D01*
X021584Y015866D02*
X023854Y015866D01*
X024665Y015866D02*
X025804Y015866D01*
X025804Y016024D02*
X024821Y016024D01*
X024887Y016183D02*
X025804Y016183D01*
X025777Y015707D02*
X021742Y015707D01*
X021901Y015549D02*
X025618Y015549D01*
X026715Y015707D02*
X027304Y015707D01*
X027304Y015697D02*
X027398Y015603D01*
X027838Y015603D01*
X027840Y015602D01*
X027304Y015697D02*
X027304Y016341D01*
X027304Y016183D02*
X026860Y016183D01*
X026715Y016024D02*
X027304Y016024D01*
X027304Y015866D02*
X026715Y015866D01*
X028215Y016024D02*
X028531Y016024D01*
X028837Y015707D02*
X028934Y015707D01*
X028678Y015549D02*
X031625Y015549D01*
X031647Y015527D02*
X031708Y015483D01*
X031775Y015448D01*
X031847Y015425D01*
X031922Y015413D01*
X032240Y015413D01*
X032240Y015873D01*
X032280Y015873D01*
X032280Y015913D01*
X033040Y015913D01*
X033040Y015931D01*
X033028Y016006D01*
X033004Y016078D01*
X032970Y016145D01*
X032926Y016206D01*
X032872Y016259D01*
X032811Y016304D01*
X032744Y016338D01*
X032672Y016361D01*
X032597Y016373D01*
X032280Y016373D01*
X032280Y015913D01*
X032240Y015913D01*
X032240Y016373D01*
X031922Y016373D01*
X031847Y016361D01*
X031775Y016338D01*
X031708Y016304D01*
X031647Y016259D01*
X031593Y016206D01*
X031549Y016145D01*
X031515Y016078D01*
X031491Y016006D01*
X031480Y015931D01*
X031480Y015913D01*
X032240Y015913D01*
X032240Y015873D01*
X031480Y015873D01*
X031480Y015856D01*
X031491Y015781D01*
X031515Y015709D01*
X031549Y015642D01*
X031593Y015581D01*
X031647Y015527D01*
X031516Y015707D02*
X029835Y015707D01*
X029993Y015866D02*
X031480Y015866D01*
X031497Y016024D02*
X030730Y016024D01*
X030510Y016143D02*
X030760Y016393D01*
X031092Y016500D02*
X031707Y016500D01*
X031785Y016341D02*
X031108Y016341D01*
X031041Y016183D02*
X031577Y016183D01*
X031559Y016658D02*
X030987Y016658D01*
X030532Y016658D02*
X029902Y016658D01*
X029902Y016500D02*
X030427Y016500D01*
X030072Y016817D02*
X028235Y016817D01*
X028235Y016975D02*
X029953Y016975D01*
X029931Y017134D02*
X029835Y017134D01*
X029902Y017292D02*
X029994Y017292D01*
X029902Y017451D02*
X031826Y017451D01*
X031721Y017292D02*
X030525Y017292D01*
X030588Y017134D02*
X031561Y017134D01*
X031593Y017609D02*
X029902Y017609D01*
X029901Y017768D02*
X031514Y017768D01*
X031500Y017926D02*
X029639Y017926D01*
X029365Y017609D02*
X029322Y017609D01*
X029365Y017451D02*
X029164Y017451D01*
X029154Y017292D02*
X029365Y017292D01*
X029432Y017134D02*
X029087Y017134D01*
X028684Y017134D02*
X028199Y017134D01*
X028235Y016658D02*
X028617Y016658D01*
X028617Y016500D02*
X028235Y016500D01*
X029260Y016500D02*
X029260Y016500D01*
X029260Y016658D02*
X029260Y016658D01*
X028618Y017768D02*
X021538Y017768D01*
X021590Y017926D02*
X029017Y017926D01*
X029175Y018085D02*
X021748Y018085D01*
X021875Y019036D02*
X016285Y019036D01*
X016211Y018877D02*
X016661Y018877D01*
X016502Y018719D02*
X016389Y018719D01*
X016443Y019194D02*
X021811Y019194D01*
X021828Y019353D02*
X016602Y019353D01*
X016876Y019511D02*
X021935Y019511D01*
X022152Y019670D02*
X018617Y019670D01*
X018202Y019670D02*
X017038Y019670D01*
X017065Y019828D02*
X018106Y019828D01*
X018118Y019987D02*
X016997Y019987D01*
X015404Y018298D02*
X015256Y018447D01*
X015256Y018447D01*
X015144Y018558D01*
X015144Y018558D01*
X014973Y018730D01*
X014973Y018730D01*
X014869Y018834D01*
X014869Y018834D01*
X014727Y018975D01*
X014572Y019130D01*
X014568Y019121D01*
X014491Y019043D01*
X014518Y019016D01*
X014565Y018904D01*
X014565Y018784D01*
X014599Y018798D01*
X014720Y018798D01*
X014832Y018752D01*
X014918Y018666D01*
X014965Y018554D01*
X014965Y018433D01*
X014918Y018321D01*
X014832Y018235D01*
X014720Y018188D01*
X014599Y018188D01*
X014487Y018235D01*
X014428Y018293D01*
X013527Y018293D01*
X013410Y018410D01*
X013410Y018410D01*
X013318Y018502D01*
X013263Y018447D01*
X013263Y018447D01*
X013129Y018313D01*
X012988Y018171D01*
X012846Y018030D01*
X012712Y017895D01*
X012540Y017724D01*
X012540Y017724D01*
X012429Y017612D01*
X012429Y017612D01*
X012306Y017490D01*
X012302Y017475D01*
X012279Y017434D01*
X012223Y017378D01*
X012160Y017441D01*
X012160Y017441D01*
X012223Y017378D01*
X012167Y017323D01*
X012126Y017299D01*
X012111Y017295D01*
X012012Y017195D01*
X011889Y017073D01*
X011885Y017058D01*
X011861Y017017D01*
X011806Y016961D01*
X011743Y017024D01*
X011743Y017024D01*
X011806Y016961D01*
X011750Y016905D01*
X011709Y016882D01*
X011694Y016878D01*
X011651Y016835D01*
X012887Y015598D01*
X012970Y015598D01*
X013049Y015566D01*
X014060Y016576D01*
X014060Y016876D01*
X014177Y016993D01*
X015155Y017971D01*
X015155Y018054D01*
X015201Y018166D01*
X015287Y018252D01*
X015399Y018298D01*
X015404Y018298D01*
X015278Y018243D02*
X014841Y018243D01*
X014952Y018402D02*
X015301Y018402D01*
X015142Y018560D02*
X014962Y018560D01*
X014984Y018719D02*
X014865Y018719D01*
X014825Y018877D02*
X014565Y018877D01*
X014498Y019036D02*
X014667Y019036D01*
X014478Y018243D02*
X013060Y018243D01*
X012901Y018085D02*
X015167Y018085D01*
X015110Y017926D02*
X012743Y017926D01*
X012584Y017768D02*
X014951Y017768D01*
X014793Y017609D02*
X012426Y017609D01*
X012288Y017451D02*
X014634Y017451D01*
X014476Y017292D02*
X012109Y017292D01*
X011950Y017134D02*
X014317Y017134D01*
X014159Y016975D02*
X011820Y016975D01*
X011792Y016975D02*
X011792Y016975D01*
X011669Y016817D02*
X014060Y016817D01*
X014060Y016658D02*
X011827Y016658D01*
X011986Y016500D02*
X013983Y016500D01*
X013825Y016341D02*
X012144Y016341D01*
X012303Y016183D02*
X013666Y016183D01*
X013508Y016024D02*
X012461Y016024D01*
X012620Y015866D02*
X013349Y015866D01*
X013191Y015707D02*
X012778Y015707D01*
X012642Y013993D02*
X015471Y013993D01*
X015501Y013921D01*
X015587Y013835D01*
X015699Y013788D01*
X015704Y013788D01*
X015673Y013757D01*
X015573Y013657D01*
X015558Y013653D01*
X015517Y013630D01*
X015462Y013574D01*
X015524Y013511D01*
X015462Y013574D01*
X015406Y013518D01*
X015382Y013477D01*
X015378Y013462D01*
X015297Y013382D01*
X015283Y013378D01*
X015241Y013354D01*
X015186Y013298D01*
X015130Y013243D01*
X015106Y013202D01*
X015102Y013187D01*
X014973Y013057D01*
X014973Y013057D01*
X014869Y012953D01*
X014869Y012953D01*
X014697Y012781D01*
X014556Y012640D01*
X014556Y012640D01*
X014414Y012498D01*
X014280Y012364D01*
X014280Y012231D01*
X014840Y011671D01*
X014973Y011671D01*
X015107Y011805D01*
X015279Y011977D01*
X015390Y012088D01*
X015469Y012167D01*
X016892Y010743D01*
X014591Y010743D01*
X014532Y010802D01*
X014420Y010848D01*
X014299Y010848D01*
X014187Y010802D01*
X014101Y010716D01*
X014055Y010604D01*
X014055Y010483D01*
X014067Y010453D01*
X013431Y010453D01*
X013382Y010502D01*
X013270Y010548D01*
X013149Y010548D01*
X013037Y010502D01*
X012951Y010416D01*
X012905Y010304D01*
X012905Y010183D01*
X012933Y010113D01*
X012769Y010113D01*
X012815Y010223D01*
X012815Y010281D01*
X013646Y011113D01*
X013770Y011236D01*
X013770Y011762D01*
X014239Y012231D01*
X014239Y012364D01*
X014068Y012535D01*
X014068Y012535D01*
X013963Y012640D01*
X013834Y012769D01*
X013830Y012784D01*
X013806Y012825D01*
X013750Y012881D01*
X013695Y012937D01*
X013654Y012960D01*
X013639Y012964D01*
X013546Y013057D01*
X013375Y013228D01*
X013263Y013340D01*
X013092Y013511D01*
X012958Y013646D01*
X012816Y013787D01*
X012675Y013928D01*
X012626Y013977D01*
X012642Y013993D01*
X012639Y013964D02*
X015483Y013964D01*
X015658Y013805D02*
X012798Y013805D01*
X012956Y013647D02*
X015547Y013647D01*
X015524Y013511D02*
X015524Y013511D01*
X015389Y013488D02*
X013115Y013488D01*
X013263Y013340D02*
X013263Y013340D01*
X013273Y013330D02*
X015217Y013330D01*
X015186Y013298D02*
X015256Y013228D01*
X015256Y013228D01*
X015256Y013228D01*
X015186Y013298D01*
X015087Y013171D02*
X013432Y013171D01*
X013375Y013228D02*
X013375Y013228D01*
X013546Y013057D02*
X013546Y013057D01*
X013590Y013013D02*
X014929Y013013D01*
X014770Y012854D02*
X013777Y012854D01*
X013750Y012881D02*
X013681Y012811D01*
X013681Y012811D01*
X013681Y012811D01*
X013750Y012881D01*
X013724Y012854D02*
X013724Y012854D01*
X013907Y012696D02*
X014612Y012696D01*
X014453Y012537D02*
X014066Y012537D01*
X013963Y012640D02*
X013963Y012640D01*
X014224Y012379D02*
X014295Y012379D01*
X014291Y012220D02*
X014228Y012220D01*
X014070Y012062D02*
X014449Y012062D01*
X014608Y011903D02*
X013911Y011903D01*
X013770Y011745D02*
X014766Y011745D01*
X015047Y011745D02*
X015891Y011745D01*
X016049Y011586D02*
X013770Y011586D01*
X013770Y011428D02*
X016208Y011428D01*
X016366Y011269D02*
X013770Y011269D01*
X013644Y011111D02*
X016525Y011111D01*
X016683Y010952D02*
X013486Y010952D01*
X013327Y010794D02*
X014179Y010794D01*
X014067Y010635D02*
X013169Y010635D01*
X013012Y010477D02*
X013010Y010477D01*
X012910Y010318D02*
X012852Y010318D01*
X012914Y010160D02*
X012788Y010160D01*
X013407Y010477D02*
X014057Y010477D01*
X014540Y010794D02*
X016842Y010794D01*
X015732Y011903D02*
X015205Y011903D01*
X015279Y011977D02*
X015279Y011977D01*
X015364Y012062D02*
X015574Y012062D01*
X013099Y012230D02*
X013029Y012160D01*
X013036Y012153D01*
X012637Y011753D01*
X012623Y011753D01*
X012500Y011630D01*
X012500Y011315D01*
X012451Y011266D01*
X012405Y011154D01*
X012405Y011085D01*
X012323Y011003D01*
X009496Y011003D01*
X009270Y011230D01*
X009270Y011244D01*
X009337Y011244D01*
X009337Y011581D01*
X009337Y011581D01*
X009337Y011244D01*
X009440Y011244D01*
X009486Y011256D01*
X009499Y011264D01*
X009738Y011264D01*
X009832Y011358D01*
X009832Y011537D01*
X009860Y011565D01*
X009860Y012179D01*
X009938Y012257D01*
X009988Y012378D01*
X009988Y012509D01*
X009971Y012550D01*
X009999Y012538D01*
X010120Y012538D01*
X010232Y012585D01*
X010318Y012671D01*
X010347Y012739D01*
X010349Y012738D01*
X010470Y012738D01*
X010582Y012785D01*
X010668Y012871D01*
X010715Y012983D01*
X010715Y013104D01*
X010668Y013216D01*
X010582Y013302D01*
X010470Y013348D01*
X010387Y013348D01*
X010367Y013368D01*
X011108Y014109D01*
X011147Y014070D01*
X011289Y013928D01*
X011430Y013787D01*
X011565Y013653D01*
X011706Y013511D01*
X011877Y013340D01*
X011877Y013340D01*
X011982Y013235D01*
X012123Y013094D01*
X012265Y012953D01*
X012399Y012818D01*
X012540Y012677D01*
X012540Y012677D01*
X012619Y012598D01*
X012574Y012553D01*
X012331Y012553D01*
X012282Y012602D01*
X012170Y012648D01*
X012049Y012648D01*
X011937Y012602D01*
X011851Y012516D01*
X011805Y012404D01*
X011805Y012283D01*
X011813Y012263D01*
X011787Y012252D01*
X011701Y012166D01*
X011655Y012054D01*
X011655Y011933D01*
X011701Y011821D01*
X011787Y011735D01*
X011899Y011688D01*
X012020Y011688D01*
X012132Y011735D01*
X012191Y011793D01*
X012663Y011793D01*
X012780Y011910D01*
X013099Y012230D01*
X013099Y012230D01*
X013099Y012230D01*
X013090Y012220D02*
X013090Y012220D01*
X012945Y012062D02*
X012931Y012062D01*
X012787Y011903D02*
X012773Y011903D01*
X012614Y011745D02*
X012142Y011745D01*
X011777Y011745D02*
X009860Y011745D01*
X009860Y011903D02*
X011667Y011903D01*
X011658Y012062D02*
X009860Y012062D01*
X009901Y012220D02*
X011755Y012220D01*
X011805Y012379D02*
X009988Y012379D01*
X009976Y012537D02*
X011872Y012537D01*
X012204Y013013D02*
X010715Y013013D01*
X010687Y013171D02*
X012046Y013171D01*
X011887Y013330D02*
X010515Y013330D01*
X010487Y013488D02*
X011729Y013488D01*
X011706Y013511D02*
X011706Y013511D01*
X011570Y013647D02*
X010646Y013647D01*
X010804Y013805D02*
X011412Y013805D01*
X011253Y013964D02*
X010963Y013964D01*
X010014Y014281D02*
X009653Y014281D01*
X009715Y014122D02*
X009856Y014122D01*
X009697Y013964D02*
X009686Y013964D01*
X009539Y013805D02*
X009511Y013805D01*
X009380Y013647D02*
X009260Y013647D01*
X009222Y013488D02*
X009102Y013488D01*
X009063Y013330D02*
X008943Y013330D01*
X008905Y013171D02*
X008785Y013171D01*
X008746Y013013D02*
X008626Y013013D01*
X008626Y012854D02*
X008468Y012854D01*
X008626Y012696D02*
X008033Y012696D01*
X008117Y012537D02*
X008626Y012537D01*
X008626Y012379D02*
X007380Y012379D01*
X007380Y012373D02*
X008140Y012373D01*
X008140Y012356D01*
X008128Y012281D01*
X008104Y012209D01*
X008070Y012142D01*
X008026Y012081D01*
X007972Y012027D01*
X007911Y011983D01*
X007844Y011948D01*
X007772Y011925D01*
X007697Y011913D01*
X007380Y011913D01*
X007380Y012373D01*
X007340Y012373D02*
X007340Y011913D01*
X007022Y011913D01*
X006947Y011925D01*
X006875Y011948D01*
X006808Y011983D01*
X006747Y012027D01*
X006693Y012081D01*
X006649Y012142D01*
X006615Y012209D01*
X006591Y012281D01*
X006580Y012356D01*
X006580Y012373D01*
X007340Y012373D01*
X007340Y012379D02*
X003990Y012379D01*
X003990Y012537D02*
X006602Y012537D01*
X006686Y012696D02*
X003990Y012696D01*
X003990Y012854D02*
X006152Y012854D01*
X005993Y013013D02*
X003990Y013013D01*
X003990Y013171D02*
X005835Y013171D01*
X005750Y013330D02*
X003990Y013330D01*
X003990Y013488D02*
X005750Y013488D01*
X005750Y013647D02*
X003990Y013647D01*
X003990Y013805D02*
X005750Y013805D01*
X005750Y013964D02*
X003990Y013964D01*
X003990Y014122D02*
X005750Y014122D01*
X005750Y014281D02*
X003990Y014281D01*
X003990Y014439D02*
X005750Y014439D01*
X005750Y014598D02*
X003990Y014598D01*
X003990Y014756D02*
X005750Y014756D01*
X005750Y014915D02*
X003990Y014915D01*
X003990Y015073D02*
X005750Y015073D01*
X005750Y015232D02*
X003990Y015232D01*
X003990Y015390D02*
X005750Y015390D01*
X005750Y015549D02*
X003990Y015549D01*
X003990Y015707D02*
X005649Y015707D01*
X005490Y015866D02*
X003990Y015866D01*
X003990Y016024D02*
X005450Y016024D01*
X005450Y016183D02*
X003990Y016183D01*
X003990Y016341D02*
X005450Y016341D01*
X005450Y016500D02*
X003990Y016500D01*
X003990Y016658D02*
X005450Y016658D01*
X005450Y016817D02*
X003990Y016817D01*
X003990Y016975D02*
X005450Y016975D01*
X005450Y017134D02*
X003990Y017134D01*
X003990Y017292D02*
X005450Y017292D01*
X005450Y017451D02*
X003990Y017451D01*
X003990Y017609D02*
X005450Y017609D01*
X005450Y017768D02*
X003990Y017768D01*
X003990Y017926D02*
X005450Y017926D01*
X005450Y018085D02*
X003990Y018085D01*
X003990Y018243D02*
X005450Y018243D01*
X005450Y018402D02*
X003990Y018402D01*
X003990Y018560D02*
X005450Y018560D01*
X007240Y019036D02*
X007280Y019036D01*
X007280Y019194D02*
X007240Y019194D01*
X007240Y019353D02*
X007280Y019353D01*
X007280Y019511D02*
X007240Y019511D01*
X007240Y019670D02*
X007280Y019670D01*
X007280Y019828D02*
X007240Y019828D01*
X007763Y019828D02*
X012710Y019828D01*
X012710Y019670D02*
X007952Y019670D01*
X008026Y019511D02*
X012862Y019511D01*
X012783Y019353D02*
X012183Y019353D01*
X012359Y019194D02*
X012625Y019194D01*
X013218Y018402D02*
X013418Y018402D01*
X012710Y020621D02*
X012068Y020621D01*
X012163Y020779D02*
X012710Y020779D01*
X012721Y020938D02*
X012150Y020938D01*
X012038Y021096D02*
X012805Y021096D01*
X011681Y021096D02*
X010240Y021096D01*
X010079Y021096D02*
X009938Y021096D01*
X009968Y020621D02*
X011651Y020621D01*
X010388Y021889D02*
X010233Y021889D01*
X010233Y022047D02*
X010388Y022047D01*
X010388Y022523D02*
X010233Y022523D01*
X010233Y022681D02*
X010388Y022681D01*
X010388Y022840D02*
X010233Y022840D01*
X009824Y022840D02*
X009683Y022840D01*
X009683Y022681D02*
X009816Y022681D01*
X009816Y022523D02*
X009683Y022523D01*
X008733Y022681D02*
X006783Y022681D01*
X006624Y022840D02*
X008733Y022840D01*
X008733Y022206D02*
X006794Y022206D01*
X006952Y022047D02*
X008733Y022047D01*
X008778Y021889D02*
X007111Y021889D01*
X007252Y020462D02*
X007267Y020462D01*
X008079Y015866D02*
X008899Y015866D01*
X008741Y015707D02*
X007921Y015707D01*
X008049Y015549D02*
X008582Y015549D01*
X008390Y015390D02*
X008049Y015390D01*
X008049Y015232D02*
X008355Y015232D01*
X008400Y015073D02*
X008049Y015073D01*
X008049Y014915D02*
X010010Y014915D01*
X009965Y014756D02*
X007994Y014756D01*
X007947Y014678D02*
X008208Y014678D01*
X008254Y014666D01*
X008295Y014642D01*
X008328Y014609D01*
X008352Y014568D01*
X008364Y014522D01*
X008364Y014221D01*
X007947Y014221D01*
X007792Y014221D01*
X007792Y014678D01*
X007531Y014678D01*
X007485Y014666D01*
X007444Y014642D01*
X007410Y014609D01*
X007387Y014568D01*
X007374Y014522D01*
X007374Y014221D01*
X007792Y014221D01*
X007792Y014066D01*
X007374Y014066D01*
X007374Y013765D01*
X007387Y013719D01*
X007410Y013678D01*
X007444Y013644D01*
X007485Y013621D01*
X007531Y013608D01*
X007792Y013608D01*
X007792Y014066D01*
X007947Y014066D01*
X007947Y014221D01*
X007947Y014678D01*
X007947Y014598D02*
X007792Y014598D01*
X007792Y014439D02*
X007947Y014439D01*
X007947Y014281D02*
X007792Y014281D01*
X007792Y014122D02*
X007225Y014122D01*
X007225Y013964D02*
X007374Y013964D01*
X007374Y013805D02*
X007225Y013805D01*
X007149Y013647D02*
X007441Y013647D01*
X007792Y013647D02*
X007947Y013647D01*
X007947Y013608D02*
X008208Y013608D01*
X008254Y013621D01*
X008295Y013644D01*
X008328Y013678D01*
X008352Y013719D01*
X008364Y013765D01*
X008364Y014066D01*
X007947Y014066D01*
X007947Y013608D01*
X007947Y013805D02*
X007792Y013805D01*
X007792Y013964D02*
X007947Y013964D01*
X007947Y014122D02*
X009105Y014122D01*
X009166Y014281D02*
X008364Y014281D01*
X008364Y014439D02*
X010070Y014439D01*
X010000Y014598D02*
X008335Y014598D01*
X008364Y013964D02*
X008983Y013964D01*
X008825Y013805D02*
X008364Y013805D01*
X008297Y013647D02*
X008666Y013647D01*
X008508Y013488D02*
X006170Y013488D01*
X006170Y013647D02*
X006350Y013647D01*
X006275Y013805D02*
X006170Y013805D01*
X006170Y013964D02*
X006275Y013964D01*
X006275Y014122D02*
X006170Y014122D01*
X006170Y014281D02*
X006275Y014281D01*
X006275Y014439D02*
X006170Y014439D01*
X006170Y014598D02*
X006308Y014598D01*
X006170Y014756D02*
X006525Y014756D01*
X006470Y014915D02*
X006170Y014915D01*
X006170Y015073D02*
X006470Y015073D01*
X007246Y014756D02*
X007273Y014756D01*
X007191Y014598D02*
X007404Y014598D01*
X007374Y014439D02*
X007225Y014439D01*
X007225Y014281D02*
X007374Y014281D01*
X008349Y013330D02*
X006270Y013330D01*
X006611Y012220D02*
X005880Y012220D01*
X005639Y012220D02*
X003990Y012220D01*
X003990Y012062D02*
X005453Y012062D01*
X005411Y011903D02*
X003990Y011903D01*
X003990Y011745D02*
X005444Y011745D01*
X005591Y011586D02*
X003990Y011586D01*
X003990Y011428D02*
X005886Y011428D01*
X005796Y011269D02*
X003990Y011269D01*
X003990Y011111D02*
X005485Y011111D01*
X005411Y010952D02*
X004665Y010952D01*
X004773Y010794D02*
X005424Y010794D01*
X005525Y010635D02*
X004829Y010635D01*
X004987Y010477D02*
X008921Y010477D01*
X008762Y010635D02*
X005994Y010635D01*
X006095Y010794D02*
X008604Y010794D01*
X008445Y010952D02*
X007797Y010952D01*
X008028Y011111D02*
X008287Y011111D01*
X008434Y011586D02*
X008587Y011586D01*
X008587Y011745D02*
X007959Y011745D01*
X008007Y012062D02*
X008626Y012062D01*
X008626Y012220D02*
X008108Y012220D01*
X008626Y011903D02*
X006108Y011903D01*
X006067Y012062D02*
X006712Y012062D01*
X006760Y011745D02*
X006247Y011745D01*
X006260Y011393D02*
X005760Y010893D01*
X006158Y010952D02*
X006922Y010952D01*
X006691Y011111D02*
X006316Y011111D01*
X006260Y011393D02*
X005760Y011893D01*
X006260Y011393D02*
X007360Y011393D01*
X007340Y012062D02*
X007380Y012062D01*
X007380Y012220D02*
X007340Y012220D01*
X009310Y012012D02*
X009368Y012071D01*
X009415Y012183D01*
X009415Y012224D01*
X009460Y012179D01*
X009460Y011914D01*
X009440Y011919D01*
X009337Y011919D01*
X009310Y011919D01*
X009310Y012012D01*
X009359Y012062D02*
X009460Y012062D01*
X009418Y012220D02*
X009415Y012220D01*
X009337Y011919D02*
X009337Y011582D01*
X009337Y011919D01*
X009337Y011903D02*
X009337Y011903D01*
X009337Y011745D02*
X009337Y011745D01*
X009337Y011586D02*
X009337Y011586D01*
X009337Y011582D02*
X009337Y011582D01*
X009337Y011428D02*
X009337Y011428D01*
X009337Y011269D02*
X009337Y011269D01*
X009389Y011111D02*
X012405Y011111D01*
X012454Y011269D02*
X009744Y011269D01*
X009832Y011428D02*
X012500Y011428D01*
X012500Y011586D02*
X009860Y011586D01*
X010329Y012696D02*
X012521Y012696D01*
X012363Y012854D02*
X010652Y012854D01*
X010144Y015073D02*
X008919Y015073D01*
X008965Y015232D02*
X010037Y015232D01*
X010115Y015390D02*
X008989Y015390D01*
X004254Y010952D02*
X003990Y010952D01*
X003990Y010794D02*
X004146Y010794D01*
X004131Y010635D02*
X003990Y010635D01*
X003990Y010477D02*
X004212Y010477D01*
X003990Y010318D02*
X004523Y010318D01*
X004682Y010160D02*
X003990Y010160D01*
X003990Y010001D02*
X004840Y010001D01*
X004999Y009843D02*
X003990Y009843D01*
X003990Y009684D02*
X005157Y009684D01*
X005316Y009526D02*
X003990Y009526D01*
X003990Y009367D02*
X005474Y009367D01*
X005780Y009684D02*
X008586Y009684D01*
X008600Y009843D02*
X005621Y009843D01*
X005463Y010001D02*
X008587Y010001D01*
X008587Y010160D02*
X005304Y010160D01*
X005146Y010318D02*
X008587Y010318D01*
X008488Y009526D02*
X007148Y009526D01*
X007307Y009367D02*
X008486Y009367D01*
X008580Y009209D02*
X007465Y009209D01*
X007624Y009050D02*
X009050Y009050D01*
X009050Y008892D02*
X007782Y008892D01*
X007941Y008733D02*
X009050Y008733D01*
X008936Y008575D02*
X008781Y008575D01*
X008781Y008416D02*
X008936Y008416D01*
X008936Y008258D02*
X008781Y008258D01*
X008781Y008099D02*
X008020Y008099D01*
X008020Y007941D02*
X008363Y007941D01*
X008363Y007966D02*
X008363Y007626D01*
X008376Y007580D01*
X008399Y007539D01*
X008433Y007506D01*
X008474Y007482D01*
X008520Y007470D01*
X008781Y007470D01*
X008781Y007966D01*
X008363Y007966D01*
X008363Y007782D02*
X008152Y007782D01*
X008310Y007624D02*
X008364Y007624D01*
X008469Y007465D02*
X010650Y007465D01*
X010492Y007307D02*
X008627Y007307D01*
X008936Y007470D02*
X009197Y007470D01*
X009243Y007482D01*
X009284Y007506D01*
X009317Y007539D01*
X009341Y007580D01*
X009353Y007626D01*
X009353Y007966D01*
X008936Y007966D01*
X008936Y007470D01*
X008936Y007624D02*
X008781Y007624D01*
X008781Y007782D02*
X008936Y007782D01*
X008936Y007941D02*
X008781Y007941D01*
X008936Y008099D02*
X009486Y008099D01*
X009486Y007941D02*
X009353Y007941D01*
X009353Y007782D02*
X009486Y007782D01*
X009486Y007624D02*
X009353Y007624D01*
X009353Y008258D02*
X009449Y008258D01*
X009568Y008733D02*
X011895Y008733D01*
X011760Y008575D02*
X010364Y008575D01*
X010436Y008416D02*
X011601Y008416D01*
X011443Y008258D02*
X010436Y008258D01*
X010436Y008099D02*
X011284Y008099D01*
X011126Y007941D02*
X010436Y007941D01*
X010436Y007782D02*
X010967Y007782D01*
X010809Y007624D02*
X010436Y007624D01*
X010956Y007148D02*
X014899Y007148D01*
X014825Y007307D02*
X011114Y007307D01*
X011273Y007465D02*
X014825Y007465D01*
X014825Y007624D02*
X011431Y007624D01*
X011590Y007782D02*
X014825Y007782D01*
X014825Y007941D02*
X011748Y007941D01*
X011907Y008099D02*
X014860Y008099D01*
X015100Y008258D02*
X013878Y008258D01*
X014012Y008416D02*
X015072Y008416D01*
X014982Y008575D02*
X014038Y008575D01*
X013984Y008733D02*
X014991Y008733D01*
X015094Y008892D02*
X013672Y008892D01*
X013514Y009050D02*
X015420Y009050D01*
X015564Y009209D02*
X013355Y009209D01*
X013208Y008733D02*
X012505Y008733D01*
X012481Y008575D02*
X013367Y008575D01*
X013407Y008416D02*
X012328Y008416D01*
X012065Y008258D02*
X013541Y008258D01*
X015520Y008258D02*
X022084Y008258D01*
X021925Y008416D02*
X015547Y008416D01*
X015637Y008575D02*
X021767Y008575D01*
X021608Y008733D02*
X015697Y008733D01*
X015740Y008099D02*
X015979Y008099D01*
X015944Y008065D02*
X016038Y008158D01*
X016801Y008158D01*
X016894Y008065D01*
X016894Y007222D01*
X016801Y007128D01*
X016639Y007128D01*
X016639Y006412D01*
X016280Y006052D01*
X016280Y005534D01*
X016661Y005153D01*
X017000Y005153D01*
X017270Y004884D01*
X017270Y004503D01*
X017000Y004233D01*
X016619Y004233D01*
X016350Y004503D01*
X016350Y004842D01*
X015840Y005352D01*
X015840Y006234D01*
X015968Y006363D01*
X016199Y006594D01*
X016199Y007128D01*
X016038Y007128D01*
X015944Y007222D01*
X015944Y008065D01*
X015944Y007941D02*
X015775Y007941D01*
X015775Y007782D02*
X015944Y007782D01*
X015944Y007624D02*
X015775Y007624D01*
X015775Y007465D02*
X015944Y007465D01*
X015944Y007307D02*
X015775Y007307D01*
X015701Y007148D02*
X016018Y007148D01*
X016199Y006990D02*
X010797Y006990D01*
X010639Y006831D02*
X016199Y006831D01*
X016199Y006673D02*
X006480Y006673D01*
X006480Y006831D02*
X008480Y006831D01*
X008322Y006990D02*
X006480Y006990D01*
X006480Y007148D02*
X008163Y007148D01*
X008005Y007307D02*
X006480Y007307D01*
X006480Y007465D02*
X007846Y007465D01*
X007688Y007624D02*
X006480Y007624D01*
X006480Y007782D02*
X007580Y007782D01*
X007580Y007941D02*
X006480Y007941D01*
X006480Y008099D02*
X007580Y008099D01*
X007580Y008258D02*
X006480Y008258D01*
X006480Y008416D02*
X007580Y008416D01*
X007477Y008575D02*
X006480Y008575D01*
X006480Y008649D02*
X006538Y008707D01*
X006588Y008828D01*
X006588Y008959D01*
X006538Y009079D01*
X006446Y009172D01*
X006325Y009222D01*
X006194Y009222D01*
X006073Y009172D01*
X005981Y009079D01*
X005931Y008959D01*
X005931Y008828D01*
X005981Y008707D01*
X006040Y008649D01*
X006040Y006100D01*
X005999Y006083D01*
X005870Y005954D01*
X005800Y005785D01*
X005800Y005002D01*
X005870Y004833D01*
X005999Y004703D01*
X006168Y004633D01*
X006351Y004633D01*
X006520Y004703D01*
X006649Y004833D01*
X006720Y005002D01*
X006720Y005785D01*
X006649Y005954D01*
X006520Y006083D01*
X006480Y006100D01*
X006480Y008649D01*
X006549Y008733D02*
X007318Y008733D01*
X007160Y008892D02*
X006588Y008892D01*
X006550Y009050D02*
X007001Y009050D01*
X006843Y009209D02*
X006356Y009209D01*
X006163Y009209D02*
X003990Y009209D01*
X003990Y009050D02*
X005969Y009050D01*
X005931Y008892D02*
X003990Y008892D01*
X003990Y008733D02*
X005970Y008733D01*
X006040Y008575D02*
X003990Y008575D01*
X003990Y008416D02*
X006040Y008416D01*
X006040Y008258D02*
X003990Y008258D01*
X003990Y008099D02*
X006040Y008099D01*
X006040Y007941D02*
X003990Y007941D01*
X003990Y007782D02*
X006040Y007782D01*
X006040Y007624D02*
X003990Y007624D01*
X003990Y007465D02*
X006040Y007465D01*
X006040Y007307D02*
X003990Y007307D01*
X003990Y007148D02*
X006040Y007148D01*
X006040Y006990D02*
X003990Y006990D01*
X003990Y006831D02*
X006040Y006831D01*
X006040Y006673D02*
X003990Y006673D01*
X003990Y006514D02*
X006040Y006514D01*
X006040Y006356D02*
X003990Y006356D01*
X003990Y006197D02*
X006040Y006197D01*
X005954Y006039D02*
X003990Y006039D01*
X003990Y005880D02*
X005839Y005880D01*
X005800Y005722D02*
X003990Y005722D01*
X003990Y005563D02*
X005800Y005563D01*
X005800Y005405D02*
X003990Y005405D01*
X003990Y005246D02*
X005800Y005246D01*
X005800Y005088D02*
X003990Y005088D01*
X003990Y004929D02*
X005830Y004929D01*
X005931Y004771D02*
X003990Y004771D01*
X003990Y004612D02*
X012357Y004612D01*
X012370Y004583D02*
X012499Y004453D01*
X012668Y004383D01*
X012851Y004383D01*
X013020Y004453D01*
X013149Y004583D01*
X013220Y004752D01*
X013220Y005535D01*
X013149Y005704D01*
X013020Y005833D01*
X012851Y005903D01*
X012668Y005903D01*
X012499Y005833D01*
X012370Y005704D01*
X012300Y005535D01*
X012300Y004752D01*
X012370Y004583D01*
X012498Y004454D02*
X003990Y004454D01*
X003990Y004295D02*
X016557Y004295D01*
X016398Y004454D02*
X014021Y004454D01*
X014020Y004453D02*
X014149Y004583D01*
X014220Y004752D01*
X014220Y005535D01*
X014149Y005704D01*
X014020Y005833D01*
X013851Y005903D01*
X013668Y005903D01*
X013499Y005833D01*
X013370Y005704D01*
X013300Y005535D01*
X013300Y004752D01*
X013370Y004583D01*
X013499Y004453D01*
X013668Y004383D01*
X013851Y004383D01*
X014020Y004453D01*
X014162Y004612D02*
X016350Y004612D01*
X016350Y004771D02*
X014220Y004771D01*
X014220Y004929D02*
X016262Y004929D01*
X016104Y005088D02*
X014220Y005088D01*
X014220Y005246D02*
X015945Y005246D01*
X015840Y005405D02*
X014220Y005405D01*
X014208Y005563D02*
X015840Y005563D01*
X015840Y005722D02*
X014132Y005722D01*
X013907Y005880D02*
X015840Y005880D01*
X015840Y006039D02*
X009593Y006039D01*
X009572Y006059D02*
X009511Y006104D01*
X009444Y006138D01*
X009372Y006161D01*
X009297Y006173D01*
X009280Y006173D01*
X009280Y005413D01*
X009740Y005413D01*
X009740Y005731D01*
X009728Y005806D01*
X009704Y005878D01*
X009670Y005945D01*
X009626Y006006D01*
X009572Y006059D01*
X009703Y005880D02*
X012613Y005880D01*
X012387Y005722D02*
X009740Y005722D01*
X009740Y005563D02*
X012311Y005563D01*
X012300Y005405D02*
X009280Y005405D01*
X009280Y005413D02*
X009280Y005373D01*
X009740Y005373D01*
X009740Y005056D01*
X009728Y004981D01*
X009704Y004909D01*
X009670Y004842D01*
X009626Y004781D01*
X009572Y004727D01*
X009511Y004683D01*
X009444Y004648D01*
X009372Y004625D01*
X009297Y004613D01*
X009280Y004613D01*
X009280Y005373D01*
X009240Y005373D01*
X009240Y004613D01*
X009222Y004613D01*
X009147Y004625D01*
X009075Y004648D01*
X009008Y004683D01*
X008947Y004727D01*
X008893Y004781D01*
X008849Y004842D01*
X008815Y004909D01*
X008791Y004981D01*
X008780Y005056D01*
X008780Y005373D01*
X009240Y005373D01*
X009240Y005413D01*
X009240Y006173D01*
X009222Y006173D01*
X009147Y006161D01*
X009075Y006138D01*
X009008Y006104D01*
X008947Y006059D01*
X008893Y006006D01*
X008849Y005945D01*
X008815Y005878D01*
X008791Y005806D01*
X008780Y005731D01*
X008780Y005413D01*
X009240Y005413D01*
X009280Y005413D01*
X009240Y005405D02*
X008720Y005405D01*
X008720Y005563D02*
X008780Y005563D01*
X008780Y005722D02*
X008720Y005722D01*
X008720Y005785D02*
X008649Y005954D01*
X008520Y006083D01*
X008351Y006153D01*
X008168Y006153D01*
X007999Y006083D01*
X007870Y005954D01*
X007800Y005785D01*
X007800Y005002D01*
X007870Y004833D01*
X007999Y004703D01*
X008168Y004633D01*
X008351Y004633D01*
X008520Y004703D01*
X008649Y004833D01*
X008720Y005002D01*
X008720Y005785D01*
X008680Y005880D02*
X008816Y005880D01*
X008926Y006039D02*
X008565Y006039D01*
X007954Y006039D02*
X007565Y006039D01*
X007520Y006083D02*
X007351Y006153D01*
X007168Y006153D01*
X006999Y006083D01*
X006870Y005954D01*
X006800Y005785D01*
X006800Y005002D01*
X006870Y004833D01*
X006999Y004703D01*
X007168Y004633D01*
X007351Y004633D01*
X007520Y004703D01*
X007649Y004833D01*
X007720Y005002D01*
X007720Y005785D01*
X007649Y005954D01*
X007520Y006083D01*
X007680Y005880D02*
X007839Y005880D01*
X007800Y005722D02*
X007720Y005722D01*
X007720Y005563D02*
X007800Y005563D01*
X007800Y005405D02*
X007720Y005405D01*
X007720Y005246D02*
X007800Y005246D01*
X007800Y005088D02*
X007720Y005088D01*
X007689Y004929D02*
X007830Y004929D01*
X007931Y004771D02*
X007588Y004771D01*
X006931Y004771D02*
X006588Y004771D01*
X006689Y004929D02*
X006830Y004929D01*
X006800Y005088D02*
X006720Y005088D01*
X006720Y005246D02*
X006800Y005246D01*
X006800Y005405D02*
X006720Y005405D01*
X006720Y005563D02*
X006800Y005563D01*
X006800Y005722D02*
X006720Y005722D01*
X006680Y005880D02*
X006839Y005880D01*
X006954Y006039D02*
X006565Y006039D01*
X006480Y006197D02*
X015840Y006197D01*
X015961Y006356D02*
X006480Y006356D01*
X006480Y006514D02*
X016119Y006514D01*
X016425Y006197D02*
X021625Y006197D01*
X021625Y006039D02*
X021115Y006039D01*
X021000Y006153D02*
X021270Y005884D01*
X021270Y005613D01*
X021518Y005613D01*
X021676Y005771D01*
X021625Y005822D01*
X021625Y006665D01*
X021718Y006758D01*
X022481Y006758D01*
X022575Y006665D01*
X022575Y005822D01*
X022481Y005728D01*
X022256Y005728D01*
X022201Y005673D01*
X021921Y005393D01*
X022320Y004994D01*
X022320Y004799D01*
X022508Y004799D01*
X022545Y004761D01*
X022567Y004783D01*
X022608Y004806D01*
X022654Y004819D01*
X022886Y004819D01*
X022886Y004391D01*
X022981Y004391D01*
X022981Y004819D01*
X023213Y004819D01*
X023259Y004806D01*
X023300Y004783D01*
X023333Y004749D01*
X023357Y004708D01*
X023369Y004662D01*
X023369Y004391D01*
X022981Y004391D01*
X022981Y004295D01*
X022886Y004295D01*
X022981Y004295D01*
X022981Y003868D01*
X023213Y003868D01*
X023259Y003880D01*
X023300Y003904D01*
X023333Y003938D01*
X023357Y003979D01*
X023369Y004024D01*
X023369Y004295D01*
X025050Y004295D01*
X025050Y004280D02*
X024573Y003803D01*
X022596Y003803D01*
X022510Y003890D01*
X022545Y003926D01*
X022567Y003904D01*
X022608Y003880D01*
X022654Y003868D01*
X022886Y003868D01*
X022886Y004295D01*
X022981Y004295D02*
X023369Y004295D01*
X023369Y004137D02*
X024906Y004137D01*
X025050Y004280D02*
X025050Y004493D01*
X024688Y004493D01*
X024519Y004563D01*
X024390Y004693D01*
X024320Y004862D01*
X024320Y005045D01*
X024390Y005214D01*
X024519Y005343D01*
X024688Y005413D01*
X025471Y005413D01*
X025640Y005343D01*
X025769Y005214D01*
X025786Y005173D01*
X026933Y005173D01*
X026950Y005214D01*
X027079Y005343D01*
X027248Y005413D01*
X028031Y005413D01*
X028200Y005343D01*
X028329Y005214D01*
X028400Y005045D01*
X028400Y004862D01*
X028329Y004693D01*
X028200Y004563D01*
X028031Y004493D01*
X027248Y004493D01*
X027079Y004563D01*
X026950Y004693D01*
X026933Y004733D01*
X025786Y004733D01*
X025769Y004693D01*
X025640Y004563D01*
X025471Y004493D01*
X025470Y004493D01*
X025470Y004204D01*
X025588Y004253D01*
X025931Y004253D01*
X026247Y004122D01*
X026489Y003880D01*
X026619Y003564D01*
X026619Y003222D01*
X026489Y002906D01*
X026247Y002664D01*
X026063Y002588D01*
X035500Y002574D01*
X035547Y032393D01*
X026476Y032393D01*
X026247Y032164D01*
X025931Y032033D01*
X025588Y032033D01*
X025272Y032164D01*
X025043Y032393D01*
X014476Y032393D01*
X014247Y032164D01*
X013931Y032033D01*
X013588Y032033D01*
X013272Y032164D01*
X013043Y032393D01*
X003990Y032393D01*
X003990Y002623D01*
X013408Y002608D01*
X013272Y002664D01*
X013031Y002906D01*
X012900Y003222D01*
X012900Y003564D01*
X013031Y003880D01*
X013272Y004122D01*
X013588Y004253D01*
X013931Y004253D01*
X014247Y004122D01*
X014489Y003880D01*
X014619Y003564D01*
X014619Y003222D01*
X014489Y002906D01*
X014247Y002664D01*
X014109Y002607D01*
X025453Y002589D01*
X025272Y002664D01*
X025031Y002906D01*
X024900Y003222D01*
X024900Y003536D01*
X024746Y003383D01*
X022423Y003383D01*
X022300Y003506D01*
X022300Y003506D01*
X022099Y003707D01*
X022099Y003707D01*
X021975Y003830D01*
X021975Y003866D01*
X021965Y003876D01*
X021965Y003888D01*
X021863Y003888D01*
X021770Y003982D01*
X021770Y004705D01*
X021863Y004799D01*
X021880Y004799D01*
X021880Y004812D01*
X021518Y005173D01*
X020968Y005173D01*
X020908Y005233D01*
X020619Y005233D01*
X020350Y005503D01*
X020350Y005884D01*
X020619Y006153D01*
X021000Y006153D01*
X021270Y005880D02*
X021625Y005880D01*
X021627Y005722D02*
X021270Y005722D01*
X021008Y005173D02*
X020830Y005173D01*
X020830Y004713D01*
X021290Y004713D01*
X021290Y004892D01*
X021008Y005173D01*
X021094Y005088D02*
X021604Y005088D01*
X021762Y004929D02*
X021252Y004929D01*
X021290Y004771D02*
X021836Y004771D01*
X021770Y004612D02*
X021290Y004612D01*
X021290Y004673D02*
X020830Y004673D01*
X020830Y004713D01*
X020790Y004713D01*
X020790Y005173D01*
X020611Y005173D01*
X020330Y004892D01*
X020330Y004713D01*
X020790Y004713D01*
X020790Y004673D01*
X020830Y004673D01*
X020830Y004213D01*
X021008Y004213D01*
X021290Y004494D01*
X021290Y004673D01*
X021249Y004454D02*
X021770Y004454D01*
X021770Y004295D02*
X021090Y004295D01*
X020830Y004295D02*
X020790Y004295D01*
X020790Y004213D02*
X020790Y004673D01*
X020330Y004673D01*
X020330Y004494D01*
X020611Y004213D01*
X020790Y004213D01*
X020790Y004454D02*
X020830Y004454D01*
X020830Y004612D02*
X020790Y004612D01*
X020790Y004771D02*
X020830Y004771D01*
X020830Y004929D02*
X020790Y004929D01*
X020790Y005088D02*
X020830Y005088D01*
X020606Y005246D02*
X020013Y005246D01*
X020000Y005233D02*
X020270Y005503D01*
X020270Y005884D01*
X020000Y006153D01*
X019619Y006153D01*
X019350Y005884D01*
X019350Y005503D01*
X019619Y005233D01*
X020000Y005233D01*
X020008Y005173D02*
X019830Y005173D01*
X019830Y004713D01*
X020290Y004713D01*
X020290Y004892D01*
X020008Y005173D01*
X020094Y005088D02*
X020525Y005088D01*
X020367Y004929D02*
X020252Y004929D01*
X020290Y004771D02*
X020330Y004771D01*
X020290Y004673D02*
X019830Y004673D01*
X019830Y004713D01*
X019790Y004713D01*
X019790Y005173D01*
X019611Y005173D01*
X019330Y004892D01*
X019330Y004713D01*
X019790Y004713D01*
X019790Y004673D01*
X019830Y004673D01*
X019830Y004213D01*
X020008Y004213D01*
X020290Y004494D01*
X020290Y004673D01*
X020290Y004612D02*
X020330Y004612D01*
X020370Y004454D02*
X020249Y004454D01*
X020090Y004295D02*
X020529Y004295D01*
X019830Y004295D02*
X019790Y004295D01*
X019790Y004213D02*
X019790Y004673D01*
X019330Y004673D01*
X019330Y004494D01*
X019611Y004213D01*
X019790Y004213D01*
X019790Y004454D02*
X019830Y004454D01*
X019830Y004612D02*
X019790Y004612D01*
X019790Y004771D02*
X019830Y004771D01*
X019830Y004929D02*
X019790Y004929D01*
X019790Y005088D02*
X019830Y005088D01*
X019606Y005246D02*
X019013Y005246D01*
X019000Y005233D02*
X019270Y005503D01*
X019270Y005884D01*
X019000Y006153D01*
X018619Y006153D01*
X018350Y005884D01*
X018350Y005503D01*
X018619Y005233D01*
X019000Y005233D01*
X019008Y005173D02*
X018830Y005173D01*
X018830Y004713D01*
X019290Y004713D01*
X019290Y004892D01*
X019008Y005173D01*
X019094Y005088D02*
X019525Y005088D01*
X019367Y004929D02*
X019252Y004929D01*
X019290Y004771D02*
X019330Y004771D01*
X019290Y004673D02*
X018830Y004673D01*
X018830Y004713D01*
X018790Y004713D01*
X018790Y005173D01*
X018611Y005173D01*
X018330Y004892D01*
X018330Y004713D01*
X018790Y004713D01*
X018790Y004673D01*
X018830Y004673D01*
X018830Y004213D01*
X019008Y004213D01*
X019290Y004494D01*
X019290Y004673D01*
X019290Y004612D02*
X019330Y004612D01*
X019370Y004454D02*
X019249Y004454D01*
X019090Y004295D02*
X019529Y004295D01*
X018830Y004295D02*
X018790Y004295D01*
X018790Y004213D02*
X018790Y004673D01*
X018330Y004673D01*
X018330Y004494D01*
X018611Y004213D01*
X018790Y004213D01*
X018790Y004454D02*
X018830Y004454D01*
X018830Y004612D02*
X018790Y004612D01*
X018790Y004771D02*
X018830Y004771D01*
X018830Y004929D02*
X018790Y004929D01*
X018790Y005088D02*
X018830Y005088D01*
X018606Y005246D02*
X018013Y005246D01*
X018000Y005233D02*
X018270Y005503D01*
X018270Y005884D01*
X018000Y006153D01*
X017619Y006153D01*
X017350Y005884D01*
X017350Y005503D01*
X017619Y005233D01*
X018000Y005233D01*
X018008Y005173D02*
X017830Y005173D01*
X017830Y004713D01*
X018290Y004713D01*
X018290Y004892D01*
X018008Y005173D01*
X018094Y005088D02*
X018525Y005088D01*
X018367Y004929D02*
X018252Y004929D01*
X018290Y004771D02*
X018330Y004771D01*
X018290Y004673D02*
X017830Y004673D01*
X017830Y004713D01*
X017790Y004713D01*
X017790Y005173D01*
X017611Y005173D01*
X017330Y004892D01*
X017330Y004713D01*
X017790Y004713D01*
X017790Y004673D01*
X017830Y004673D01*
X017830Y004213D01*
X018008Y004213D01*
X018290Y004494D01*
X018290Y004673D01*
X018290Y004612D02*
X018330Y004612D01*
X018370Y004454D02*
X018249Y004454D01*
X018090Y004295D02*
X018529Y004295D01*
X017830Y004295D02*
X017790Y004295D01*
X017790Y004213D02*
X017790Y004673D01*
X017330Y004673D01*
X017330Y004494D01*
X017611Y004213D01*
X017790Y004213D01*
X017790Y004454D02*
X017830Y004454D01*
X017830Y004612D02*
X017790Y004612D01*
X017790Y004771D02*
X017830Y004771D01*
X017830Y004929D02*
X017790Y004929D01*
X017790Y005088D02*
X017830Y005088D01*
X017606Y005246D02*
X017013Y005246D01*
X017000Y005233D02*
X017270Y005503D01*
X017270Y005884D01*
X017000Y006153D01*
X016619Y006153D01*
X016350Y005884D01*
X016350Y005503D01*
X016619Y005233D01*
X017000Y005233D01*
X017066Y005088D02*
X017525Y005088D01*
X017367Y004929D02*
X017224Y004929D01*
X017270Y004771D02*
X017330Y004771D01*
X017330Y004612D02*
X017270Y004612D01*
X017221Y004454D02*
X017370Y004454D01*
X017529Y004295D02*
X017062Y004295D01*
X016606Y005246D02*
X016568Y005246D01*
X016447Y005405D02*
X016409Y005405D01*
X016350Y005563D02*
X016280Y005563D01*
X016280Y005722D02*
X016350Y005722D01*
X016350Y005880D02*
X016280Y005880D01*
X016280Y006039D02*
X016504Y006039D01*
X016583Y006356D02*
X021625Y006356D01*
X021625Y006514D02*
X016639Y006514D01*
X016639Y006673D02*
X021633Y006673D01*
X022566Y006673D02*
X022753Y006673D01*
X022744Y006514D02*
X022575Y006514D01*
X022575Y006356D02*
X022744Y006356D01*
X022744Y006197D02*
X022575Y006197D01*
X022575Y006039D02*
X022744Y006039D01*
X022744Y005880D02*
X022575Y005880D01*
X022249Y005722D02*
X035505Y005722D01*
X035505Y005880D02*
X023694Y005880D01*
X023694Y006039D02*
X035505Y006039D01*
X035506Y006197D02*
X023694Y006197D01*
X023694Y006356D02*
X024482Y006356D01*
X024467Y006367D02*
X024528Y006323D01*
X024595Y006288D01*
X024667Y006265D01*
X024742Y006253D01*
X025060Y006253D01*
X025060Y006713D01*
X025100Y006713D01*
X025100Y006753D01*
X025860Y006753D01*
X025860Y006771D01*
X025848Y006846D01*
X025824Y006918D01*
X025790Y006985D01*
X025746Y007046D01*
X025692Y007099D01*
X025631Y007144D01*
X025564Y007178D01*
X025492Y007201D01*
X025417Y007213D01*
X025100Y007213D01*
X025100Y006753D01*
X025060Y006753D01*
X025060Y007213D01*
X024742Y007213D01*
X024667Y007201D01*
X024595Y007178D01*
X024528Y007144D01*
X024467Y007099D01*
X024413Y007046D01*
X024369Y006985D01*
X024335Y006918D01*
X024311Y006846D01*
X024300Y006771D01*
X024300Y006753D01*
X025060Y006753D01*
X025060Y006713D01*
X024300Y006713D01*
X024300Y006696D01*
X024311Y006621D01*
X024335Y006549D01*
X024369Y006482D01*
X024413Y006421D01*
X024467Y006367D01*
X024352Y006514D02*
X023694Y006514D01*
X023686Y006673D02*
X024303Y006673D01*
X024309Y006831D02*
X023480Y006831D01*
X023480Y006990D02*
X024373Y006990D01*
X024537Y007148D02*
X023480Y007148D01*
X023480Y007307D02*
X035507Y007307D01*
X035508Y007465D02*
X023480Y007465D01*
X023340Y007624D02*
X035508Y007624D01*
X035508Y007782D02*
X023182Y007782D01*
X023023Y007941D02*
X023781Y007941D01*
X024238Y007941D02*
X031850Y007941D01*
X031868Y007933D02*
X032651Y007933D01*
X032820Y008003D01*
X032949Y008133D01*
X033020Y008302D01*
X033020Y008485D01*
X032949Y008654D01*
X032820Y008783D01*
X032651Y008853D01*
X031868Y008853D01*
X031699Y008783D01*
X031570Y008654D01*
X031500Y008485D01*
X031500Y008302D01*
X031570Y008133D01*
X031699Y008003D01*
X031868Y007933D01*
X031603Y008099D02*
X024315Y008099D01*
X024292Y008258D02*
X031518Y008258D01*
X031500Y008416D02*
X024147Y008416D01*
X023872Y008416D02*
X023219Y008416D01*
X023061Y008575D02*
X031537Y008575D01*
X031649Y008733D02*
X022902Y008733D01*
X022744Y008892D02*
X035510Y008892D01*
X035510Y009050D02*
X032867Y009050D01*
X032820Y009003D02*
X032949Y009133D01*
X033020Y009302D01*
X033020Y009485D01*
X032949Y009654D01*
X032820Y009783D01*
X032651Y009853D01*
X031868Y009853D01*
X031699Y009783D01*
X031570Y009654D01*
X031500Y009485D01*
X031500Y009302D01*
X031570Y009133D01*
X031699Y009003D01*
X031868Y008933D01*
X032651Y008933D01*
X032820Y009003D01*
X032981Y009209D02*
X035510Y009209D01*
X035511Y009367D02*
X033020Y009367D01*
X033003Y009526D02*
X035511Y009526D01*
X035511Y009684D02*
X032919Y009684D01*
X032676Y009843D02*
X035511Y009843D01*
X035512Y010001D02*
X032815Y010001D01*
X032820Y010003D02*
X032949Y010133D01*
X033020Y010302D01*
X033020Y010485D01*
X032949Y010654D01*
X032820Y010783D01*
X032651Y010853D01*
X031868Y010853D01*
X031699Y010783D01*
X031570Y010654D01*
X031500Y010485D01*
X031500Y010302D01*
X031570Y010133D01*
X031699Y010003D01*
X031868Y009933D01*
X032651Y009933D01*
X032820Y010003D01*
X032961Y010160D02*
X035512Y010160D01*
X035512Y010318D02*
X033020Y010318D01*
X033020Y010477D02*
X035512Y010477D01*
X035513Y010635D02*
X032957Y010635D01*
X032795Y010794D02*
X035513Y010794D01*
X035513Y010952D02*
X032697Y010952D01*
X032928Y011111D02*
X035513Y011111D01*
X035514Y011269D02*
X033006Y011269D01*
X033020Y011428D02*
X035514Y011428D01*
X035514Y011586D02*
X032977Y011586D01*
X032859Y011745D02*
X035514Y011745D01*
X035515Y011903D02*
X029597Y011903D01*
X029588Y011910D02*
X029659Y011856D01*
X029722Y011793D01*
X029776Y011722D01*
X029821Y011645D01*
X029855Y011562D01*
X029878Y011476D01*
X029885Y011423D01*
X029290Y011423D01*
X029290Y011263D01*
X029885Y011263D01*
X029878Y011210D01*
X029855Y011124D01*
X029821Y011042D01*
X029776Y010965D01*
X029722Y010894D01*
X029659Y010831D01*
X029588Y010777D01*
X029511Y010732D01*
X029429Y010698D01*
X029342Y010675D01*
X029290Y010668D01*
X029290Y011263D01*
X029130Y011263D01*
X029130Y010668D01*
X029077Y010675D01*
X028990Y010698D01*
X028908Y010732D01*
X028831Y010777D01*
X028760Y010831D01*
X028697Y010894D01*
X028643Y010965D01*
X028598Y011042D01*
X028564Y011124D01*
X028541Y011210D01*
X028534Y011263D01*
X029130Y011263D01*
X029130Y011423D01*
X029130Y012019D01*
X029077Y012012D01*
X028990Y011989D01*
X028908Y011954D01*
X028831Y011910D01*
X028760Y011856D01*
X028697Y011793D01*
X028643Y011722D01*
X028598Y011645D01*
X028564Y011562D01*
X028541Y011476D01*
X028534Y011423D01*
X029130Y011423D01*
X029290Y011423D01*
X029290Y012019D01*
X029342Y012012D01*
X029429Y011989D01*
X029511Y011954D01*
X029588Y011910D01*
X029759Y011745D02*
X031660Y011745D01*
X031542Y011586D02*
X029845Y011586D01*
X029884Y011428D02*
X031497Y011428D01*
X031339Y011269D02*
X029290Y011269D01*
X029290Y011111D02*
X029130Y011111D01*
X029130Y011269D02*
X026797Y011269D01*
X026660Y011111D02*
X028570Y011111D01*
X028652Y010952D02*
X026515Y010952D01*
X026204Y010952D02*
X023054Y010952D01*
X022865Y010952D02*
X022065Y010952D01*
X022028Y010794D02*
X028809Y010794D01*
X029130Y010794D02*
X029290Y010794D01*
X029290Y010952D02*
X029130Y010952D01*
X029130Y011428D02*
X029290Y011428D01*
X029290Y011586D02*
X029130Y011586D01*
X029130Y011745D02*
X029290Y011745D01*
X029290Y011903D02*
X029130Y011903D01*
X028822Y011903D02*
X027430Y011903D01*
X027430Y012062D02*
X031640Y012062D01*
X031699Y012003D02*
X031868Y011933D01*
X032651Y011933D01*
X032820Y012003D01*
X032949Y012133D01*
X033020Y012302D01*
X033020Y012485D01*
X032949Y012654D01*
X032820Y012783D01*
X032651Y012853D01*
X031868Y012853D01*
X031699Y012783D01*
X031570Y012654D01*
X031500Y012485D01*
X031500Y012302D01*
X031570Y012133D01*
X031699Y012003D01*
X031533Y012220D02*
X027763Y012220D01*
X027763Y012379D02*
X031500Y012379D01*
X031521Y012537D02*
X027763Y012537D01*
X027763Y012696D02*
X031611Y012696D01*
X032908Y012696D02*
X035516Y012696D01*
X035516Y012854D02*
X028945Y012854D01*
X029008Y013013D02*
X035517Y013013D01*
X035517Y013171D02*
X028986Y013171D01*
X028867Y013330D02*
X035517Y013330D01*
X035517Y013488D02*
X027783Y013488D01*
X027783Y013330D02*
X028492Y013330D01*
X028660Y011745D02*
X027272Y011745D01*
X027114Y011586D02*
X028574Y011586D01*
X028535Y011428D02*
X026955Y011428D01*
X026022Y011269D02*
X023265Y011269D01*
X023235Y011111D02*
X026059Y011111D01*
X025514Y011428D02*
X023375Y011428D01*
X023465Y011586D02*
X025355Y011586D01*
X025197Y011745D02*
X023448Y011745D01*
X023329Y011903D02*
X025040Y011903D01*
X025040Y012062D02*
X023024Y012062D01*
X022865Y012220D02*
X025006Y012220D01*
X024689Y012379D02*
X022707Y012379D01*
X022548Y012537D02*
X024637Y012537D01*
X024637Y012696D02*
X022390Y012696D01*
X022231Y012854D02*
X024637Y012854D01*
X024672Y013013D02*
X022073Y013013D01*
X021914Y013171D02*
X024831Y013171D01*
X025882Y014281D02*
X035519Y014281D01*
X035519Y014439D02*
X025798Y014439D01*
X026636Y013488D02*
X021597Y013488D01*
X021756Y013330D02*
X026636Y013330D01*
X029610Y010794D02*
X030863Y010794D01*
X031022Y010952D02*
X029767Y010952D01*
X029849Y011111D02*
X031180Y011111D01*
X031457Y010794D02*
X031724Y010794D01*
X031822Y010952D02*
X031616Y010952D01*
X031562Y010635D02*
X031299Y010635D01*
X031140Y010477D02*
X031500Y010477D01*
X031500Y010318D02*
X030982Y010318D01*
X030823Y010160D02*
X031558Y010160D01*
X031704Y010001D02*
X024795Y010001D01*
X024815Y009843D02*
X031843Y009843D01*
X031600Y009684D02*
X024732Y009684D01*
X022971Y008099D02*
X022865Y008099D01*
X022812Y008258D02*
X022706Y008258D01*
X022654Y008416D02*
X022548Y008416D01*
X022495Y008575D02*
X022389Y008575D01*
X022337Y008733D02*
X022231Y008733D01*
X022178Y008892D02*
X022072Y008892D01*
X022020Y009050D02*
X021914Y009050D01*
X021861Y009209D02*
X021755Y009209D01*
X022110Y009526D02*
X031517Y009526D01*
X031500Y009367D02*
X022268Y009367D01*
X022427Y009209D02*
X031538Y009209D01*
X031652Y009050D02*
X022585Y009050D01*
X022242Y008099D02*
X016860Y008099D01*
X016894Y007941D02*
X022401Y007941D01*
X022559Y007782D02*
X016894Y007782D01*
X016894Y007624D02*
X022718Y007624D01*
X022876Y007465D02*
X016894Y007465D01*
X016894Y007307D02*
X023035Y007307D01*
X023040Y007148D02*
X016821Y007148D01*
X016639Y006990D02*
X023040Y006990D01*
X023040Y006831D02*
X016639Y006831D01*
X017115Y006039D02*
X017504Y006039D01*
X017350Y005880D02*
X017270Y005880D01*
X017270Y005722D02*
X017350Y005722D01*
X017350Y005563D02*
X017270Y005563D01*
X017172Y005405D02*
X017447Y005405D01*
X018172Y005405D02*
X018447Y005405D01*
X018350Y005563D02*
X018270Y005563D01*
X018270Y005722D02*
X018350Y005722D01*
X018350Y005880D02*
X018270Y005880D01*
X018115Y006039D02*
X018504Y006039D01*
X019115Y006039D02*
X019504Y006039D01*
X019350Y005880D02*
X019270Y005880D01*
X019270Y005722D02*
X019350Y005722D01*
X019350Y005563D02*
X019270Y005563D01*
X019172Y005405D02*
X019447Y005405D01*
X020172Y005405D02*
X020447Y005405D01*
X020350Y005563D02*
X020270Y005563D01*
X020270Y005722D02*
X020350Y005722D01*
X020350Y005880D02*
X020270Y005880D01*
X020115Y006039D02*
X020504Y006039D01*
X021932Y005405D02*
X024668Y005405D01*
X024422Y005246D02*
X022068Y005246D01*
X022226Y005088D02*
X024337Y005088D01*
X024320Y004929D02*
X022320Y004929D01*
X022535Y004771D02*
X022555Y004771D01*
X022886Y004771D02*
X022981Y004771D01*
X022981Y004612D02*
X022886Y004612D01*
X022886Y004454D02*
X022981Y004454D01*
X022981Y004137D02*
X022886Y004137D01*
X022886Y003978D02*
X022981Y003978D01*
X023357Y003978D02*
X024748Y003978D01*
X024589Y003820D02*
X022580Y003820D01*
X022303Y003503D02*
X014619Y003503D01*
X014619Y003344D02*
X024900Y003344D01*
X024900Y003503D02*
X024866Y003503D01*
X024915Y003186D02*
X014604Y003186D01*
X014539Y003027D02*
X024980Y003027D01*
X025068Y002869D02*
X014451Y002869D01*
X014293Y002710D02*
X025226Y002710D01*
X026293Y002710D02*
X035500Y002710D01*
X035500Y002869D02*
X026451Y002869D01*
X026539Y003027D02*
X035501Y003027D01*
X035501Y003186D02*
X026604Y003186D01*
X026619Y003344D02*
X035501Y003344D01*
X035501Y003503D02*
X026619Y003503D01*
X026579Y003661D02*
X035502Y003661D01*
X035502Y003820D02*
X026514Y003820D01*
X026391Y003978D02*
X035502Y003978D01*
X035502Y004137D02*
X026212Y004137D01*
X025689Y004612D02*
X027030Y004612D01*
X026982Y005246D02*
X025737Y005246D01*
X025492Y005405D02*
X027228Y005405D01*
X028052Y005405D02*
X035504Y005405D01*
X035505Y005563D02*
X022091Y005563D01*
X023312Y004771D02*
X024357Y004771D01*
X024470Y004612D02*
X023369Y004612D01*
X023369Y004454D02*
X025050Y004454D01*
X025470Y004454D02*
X035503Y004454D01*
X035503Y004612D02*
X028249Y004612D01*
X028362Y004771D02*
X035503Y004771D01*
X035504Y004929D02*
X028400Y004929D01*
X028382Y005088D02*
X035504Y005088D01*
X035504Y005246D02*
X028297Y005246D01*
X028052Y006265D02*
X028124Y006288D01*
X028191Y006323D01*
X028252Y006367D01*
X028306Y006421D01*
X028350Y006482D01*
X028384Y006549D01*
X028408Y006621D01*
X028420Y006696D01*
X028420Y006713D01*
X027660Y006713D01*
X027660Y006753D01*
X028420Y006753D01*
X028420Y006771D01*
X028408Y006846D01*
X028384Y006918D01*
X028350Y006985D01*
X028306Y007046D01*
X028252Y007099D01*
X028191Y007144D01*
X028124Y007178D01*
X028052Y007201D01*
X027977Y007213D01*
X027660Y007213D01*
X027660Y006753D01*
X027620Y006753D01*
X027620Y007213D01*
X027302Y007213D01*
X027227Y007201D01*
X027155Y007178D01*
X027088Y007144D01*
X027027Y007099D01*
X026973Y007046D01*
X026929Y006985D01*
X026895Y006918D01*
X026871Y006846D01*
X026860Y006771D01*
X026860Y006753D01*
X027620Y006753D01*
X027620Y006713D01*
X027660Y006713D01*
X027660Y006253D01*
X027977Y006253D01*
X028052Y006265D01*
X028237Y006356D02*
X035506Y006356D01*
X035506Y006514D02*
X028367Y006514D01*
X028416Y006673D02*
X035506Y006673D01*
X035507Y006831D02*
X028410Y006831D01*
X028346Y006990D02*
X035507Y006990D01*
X035507Y007148D02*
X028182Y007148D01*
X027660Y007148D02*
X027620Y007148D01*
X027620Y006990D02*
X027660Y006990D01*
X027660Y006831D02*
X027620Y006831D01*
X027620Y006713D02*
X026860Y006713D01*
X026860Y006696D01*
X026871Y006621D01*
X026895Y006549D01*
X026929Y006482D01*
X026973Y006421D01*
X027027Y006367D01*
X027088Y006323D01*
X027155Y006288D01*
X027227Y006265D01*
X027302Y006253D01*
X027620Y006253D01*
X027620Y006713D01*
X027620Y006673D02*
X027660Y006673D01*
X027660Y006514D02*
X027620Y006514D01*
X027620Y006356D02*
X027660Y006356D01*
X027042Y006356D02*
X025677Y006356D01*
X025692Y006367D02*
X025746Y006421D01*
X025790Y006482D01*
X025824Y006549D01*
X025848Y006621D01*
X025860Y006696D01*
X025860Y006713D01*
X025100Y006713D01*
X025100Y006253D01*
X025417Y006253D01*
X025492Y006265D01*
X025564Y006288D01*
X025631Y006323D01*
X025692Y006367D01*
X025807Y006514D02*
X026912Y006514D01*
X026863Y006673D02*
X025856Y006673D01*
X025850Y006831D02*
X026869Y006831D01*
X026933Y006990D02*
X025786Y006990D01*
X025622Y007148D02*
X027097Y007148D01*
X025100Y007148D02*
X025060Y007148D01*
X025060Y006990D02*
X025100Y006990D01*
X025100Y006831D02*
X025060Y006831D01*
X025060Y006673D02*
X025100Y006673D01*
X025100Y006514D02*
X025060Y006514D01*
X025060Y006356D02*
X025100Y006356D01*
X025470Y004295D02*
X035503Y004295D01*
X035508Y007941D02*
X032669Y007941D01*
X032916Y008099D02*
X035509Y008099D01*
X035509Y008258D02*
X033001Y008258D01*
X033020Y008416D02*
X035509Y008416D01*
X035509Y008575D02*
X032982Y008575D01*
X032870Y008733D02*
X035510Y008733D01*
X035515Y012062D02*
X032879Y012062D01*
X032986Y012220D02*
X035515Y012220D01*
X035516Y012379D02*
X033020Y012379D01*
X032998Y012537D02*
X035516Y012537D01*
X035521Y015549D02*
X032894Y015549D01*
X032872Y015527D02*
X032926Y015581D01*
X032970Y015642D01*
X033004Y015709D01*
X033028Y015781D01*
X033040Y015856D01*
X033040Y015873D01*
X032280Y015873D01*
X032280Y015413D01*
X032597Y015413D01*
X032672Y015425D01*
X032744Y015448D01*
X032811Y015483D01*
X032872Y015527D01*
X033003Y015707D02*
X035521Y015707D01*
X035521Y015866D02*
X033040Y015866D01*
X033022Y016024D02*
X035521Y016024D01*
X035522Y016183D02*
X032942Y016183D01*
X032734Y016341D02*
X035522Y016341D01*
X035522Y016500D02*
X032812Y016500D01*
X032960Y016658D02*
X035522Y016658D01*
X035523Y016817D02*
X033020Y016817D01*
X033020Y016975D02*
X035523Y016975D01*
X035523Y017134D02*
X032958Y017134D01*
X032798Y017292D02*
X035523Y017292D01*
X035524Y017451D02*
X032693Y017451D01*
X032926Y017609D02*
X035524Y017609D01*
X035524Y017768D02*
X033005Y017768D01*
X033020Y017926D02*
X035524Y017926D01*
X035525Y018085D02*
X032978Y018085D01*
X032860Y018243D02*
X035525Y018243D01*
X032260Y018893D02*
X031260Y018893D01*
X030760Y018393D01*
X031266Y018560D02*
X031642Y018560D01*
X032240Y016341D02*
X032280Y016341D01*
X032280Y016183D02*
X032240Y016183D01*
X032240Y016024D02*
X032280Y016024D01*
X032280Y015866D02*
X032240Y015866D01*
X032240Y015707D02*
X032280Y015707D01*
X032280Y015549D02*
X032240Y015549D01*
X030705Y010635D02*
X021102Y010635D01*
X021112Y010477D02*
X030546Y010477D01*
X025820Y017134D02*
X020450Y017134D01*
X018447Y015073D02*
X018375Y015073D01*
X018217Y014915D02*
X018605Y014915D01*
X018764Y014756D02*
X018058Y014756D01*
X018176Y014874D02*
X018176Y014874D01*
X017900Y014598D02*
X018922Y014598D01*
X019081Y014439D02*
X017946Y014439D01*
X018105Y014281D02*
X019239Y014281D01*
X019398Y014122D02*
X018263Y014122D01*
X018580Y013964D02*
X019556Y013964D01*
X019715Y013805D02*
X018665Y013805D01*
X018646Y013647D02*
X019873Y013647D01*
X020032Y013488D02*
X018517Y013488D01*
X018187Y013330D02*
X020190Y013330D01*
X020349Y013171D02*
X018264Y013171D01*
X018423Y013013D02*
X020507Y013013D01*
X020666Y012854D02*
X018581Y012854D01*
X018858Y012696D02*
X020824Y012696D01*
X020983Y012537D02*
X018935Y012537D01*
X018912Y012379D02*
X021141Y012379D01*
X021300Y012220D02*
X019394Y012220D01*
X019465Y012062D02*
X021458Y012062D01*
X021617Y011903D02*
X020951Y011903D01*
X021062Y011745D02*
X021775Y011745D01*
X021934Y011586D02*
X021072Y011586D01*
X020975Y011428D02*
X022092Y011428D01*
X022131Y011269D02*
X020683Y011269D01*
X020406Y011586D02*
X019885Y011586D01*
X019847Y011745D02*
X020477Y011745D01*
X020588Y011903D02*
X019440Y011903D01*
X022020Y011111D02*
X022294Y011111D01*
X022525Y011111D02*
X022684Y011111D01*
X018109Y016024D02*
X018061Y016024D01*
X010400Y008892D02*
X009470Y008892D01*
X009470Y009050D02*
X010241Y009050D01*
X010083Y009209D02*
X009470Y009209D01*
X009470Y009367D02*
X009924Y009367D01*
X009766Y009526D02*
X009470Y009526D01*
X009547Y009684D02*
X009607Y009684D01*
X009050Y009209D02*
X009039Y009209D01*
X008427Y008575D02*
X008020Y008575D01*
X008020Y008416D02*
X008363Y008416D01*
X008363Y008258D02*
X008020Y008258D01*
X009240Y006039D02*
X009280Y006039D01*
X009280Y005880D02*
X009240Y005880D01*
X009240Y005722D02*
X009280Y005722D01*
X009280Y005563D02*
X009240Y005563D01*
X009240Y005246D02*
X009280Y005246D01*
X009280Y005088D02*
X009240Y005088D01*
X009240Y004929D02*
X009280Y004929D01*
X009280Y004771D02*
X009240Y004771D01*
X008903Y004771D02*
X008588Y004771D01*
X008689Y004929D02*
X008808Y004929D01*
X008780Y005088D02*
X008720Y005088D01*
X008720Y005246D02*
X008780Y005246D01*
X009740Y005246D02*
X012300Y005246D01*
X012300Y005088D02*
X009740Y005088D01*
X009711Y004929D02*
X012300Y004929D01*
X012300Y004771D02*
X009616Y004771D01*
X013021Y004454D02*
X013498Y004454D01*
X013357Y004612D02*
X013162Y004612D01*
X013220Y004771D02*
X013300Y004771D01*
X013300Y004929D02*
X013220Y004929D01*
X013220Y005088D02*
X013300Y005088D01*
X013300Y005246D02*
X013220Y005246D01*
X013220Y005405D02*
X013300Y005405D01*
X013311Y005563D02*
X013208Y005563D01*
X013132Y005722D02*
X013387Y005722D01*
X013613Y005880D02*
X012907Y005880D01*
X013307Y004137D02*
X003990Y004137D01*
X003990Y003978D02*
X013128Y003978D01*
X013005Y003820D02*
X003990Y003820D01*
X003990Y003661D02*
X012940Y003661D01*
X012900Y003503D02*
X003990Y003503D01*
X003990Y003344D02*
X012900Y003344D01*
X012915Y003186D02*
X003990Y003186D01*
X003990Y003027D02*
X012980Y003027D01*
X013068Y002869D02*
X003990Y002869D01*
X003990Y002710D02*
X013226Y002710D01*
X014579Y003661D02*
X022145Y003661D01*
X021986Y003820D02*
X014514Y003820D01*
X014391Y003978D02*
X021773Y003978D01*
X021770Y004137D02*
X014212Y004137D01*
X007540Y027119D02*
X007464Y027119D01*
X003990Y031716D02*
X035546Y031716D01*
X035546Y031874D02*
X003990Y031874D01*
X003990Y032033D02*
X035547Y032033D01*
X035547Y032191D02*
X026274Y032191D01*
X026432Y032350D02*
X035547Y032350D01*
X027614Y030131D02*
X026905Y030131D01*
X027131Y029972D02*
X027388Y029972D01*
X027312Y029814D02*
X027207Y029814D01*
X027220Y029655D02*
X027300Y029655D01*
X027300Y029497D02*
X027220Y029497D01*
X027220Y029338D02*
X027300Y029338D01*
X027300Y029180D02*
X027220Y029180D01*
X027220Y029021D02*
X027300Y029021D01*
X027357Y028863D02*
X027162Y028863D01*
X026357Y028863D02*
X026162Y028863D01*
X026220Y029021D02*
X026300Y029021D01*
X026300Y029180D02*
X026220Y029180D01*
X026220Y029338D02*
X026300Y029338D01*
X026300Y029497D02*
X026220Y029497D01*
X026220Y029655D02*
X026300Y029655D01*
X026312Y029814D02*
X026207Y029814D01*
X026131Y029972D02*
X026388Y029972D01*
X026614Y030131D02*
X025905Y030131D01*
X025614Y030131D02*
X024905Y030131D01*
X025131Y029972D02*
X025388Y029972D01*
X025312Y029814D02*
X025207Y029814D01*
X025220Y029655D02*
X025300Y029655D01*
X025300Y029497D02*
X025220Y029497D01*
X025220Y029338D02*
X025300Y029338D01*
X025300Y029180D02*
X025220Y029180D01*
X025220Y029021D02*
X025300Y029021D01*
X025357Y028863D02*
X025162Y028863D01*
X024357Y028863D02*
X024162Y028863D01*
X024220Y029021D02*
X024300Y029021D01*
X024300Y029180D02*
X024220Y029180D01*
X024220Y029338D02*
X024300Y029338D01*
X024300Y029497D02*
X024220Y029497D01*
X024220Y029655D02*
X024300Y029655D01*
X024312Y029814D02*
X024207Y029814D01*
X024131Y029972D02*
X024388Y029972D01*
X024614Y030131D02*
X023905Y030131D01*
X023614Y030131D02*
X022905Y030131D01*
X023131Y029972D02*
X023388Y029972D01*
X023312Y029814D02*
X023207Y029814D01*
X023220Y029655D02*
X023300Y029655D01*
X023300Y029497D02*
X023220Y029497D01*
X023220Y029338D02*
X023300Y029338D01*
X023300Y029180D02*
X023220Y029180D01*
X023220Y029021D02*
X023300Y029021D01*
X023357Y028863D02*
X023162Y028863D01*
X022357Y028863D02*
X022162Y028863D01*
X022220Y029021D02*
X022300Y029021D01*
X022300Y029180D02*
X022220Y029180D01*
X022220Y029338D02*
X022300Y029338D01*
X022300Y029497D02*
X022220Y029497D01*
X022220Y029655D02*
X022300Y029655D01*
X022312Y029814D02*
X022207Y029814D01*
X022150Y029972D02*
X022388Y029972D01*
X022308Y030131D02*
X022614Y030131D01*
X022161Y030606D02*
X021358Y030606D01*
X021516Y030448D02*
X022003Y030448D01*
X021844Y030289D02*
X021675Y030289D01*
X021369Y029972D02*
X021150Y029972D01*
X021170Y029945D02*
X021126Y030006D01*
X021072Y030059D01*
X021011Y030104D01*
X020944Y030138D01*
X020872Y030161D01*
X020797Y030173D01*
X020780Y030173D01*
X020780Y029413D01*
X021240Y029413D01*
X021240Y029731D01*
X021228Y029806D01*
X021204Y029878D01*
X021170Y029945D01*
X021225Y029814D02*
X021312Y029814D01*
X021300Y029785D02*
X021300Y029002D01*
X021370Y028833D01*
X021489Y028713D01*
X021053Y028713D01*
X021072Y028727D01*
X021126Y028781D01*
X021170Y028842D01*
X021204Y028909D01*
X021228Y028981D01*
X021240Y029056D01*
X021240Y029373D01*
X020780Y029373D01*
X020780Y029413D01*
X020740Y029413D01*
X020740Y030173D01*
X020722Y030173D01*
X020647Y030161D01*
X020575Y030138D01*
X020508Y030104D01*
X020447Y030059D01*
X020393Y030006D01*
X020349Y029945D01*
X020315Y029878D01*
X020291Y029806D01*
X020280Y029731D01*
X020280Y029413D01*
X020740Y029413D01*
X020740Y029373D01*
X020280Y029373D01*
X020280Y029056D01*
X020291Y028981D01*
X020315Y028909D01*
X020349Y028842D01*
X020393Y028781D01*
X020447Y028727D01*
X020466Y028713D01*
X017530Y028713D01*
X017649Y028833D01*
X017720Y029002D01*
X017720Y029542D01*
X018351Y030173D01*
X021168Y030173D01*
X021379Y029963D01*
X021370Y029954D01*
X021300Y029785D01*
X021300Y029655D02*
X021240Y029655D01*
X021240Y029497D02*
X021300Y029497D01*
X021300Y029338D02*
X021240Y029338D01*
X021240Y029180D02*
X021300Y029180D01*
X021300Y029021D02*
X021234Y029021D01*
X021181Y028863D02*
X021357Y028863D01*
X020780Y029497D02*
X020740Y029497D01*
X020740Y029655D02*
X020780Y029655D01*
X020780Y029814D02*
X020740Y029814D01*
X020740Y029972D02*
X020780Y029972D01*
X020780Y030131D02*
X020740Y030131D01*
X020561Y030131D02*
X018308Y030131D01*
X018150Y029972D02*
X020369Y029972D01*
X020294Y029814D02*
X017991Y029814D01*
X017833Y029655D02*
X020280Y029655D01*
X020280Y029497D02*
X017720Y029497D01*
X017720Y029338D02*
X020280Y029338D01*
X020280Y029180D02*
X017720Y029180D01*
X017720Y029021D02*
X020285Y029021D01*
X020338Y028863D02*
X017662Y028863D01*
X020958Y030131D02*
X021211Y030131D01*
X025087Y032350D02*
X014432Y032350D01*
X014274Y032191D02*
X025245Y032191D01*
X013245Y032191D02*
X003990Y032191D01*
X003990Y032350D02*
X013087Y032350D01*
D27*
X010260Y027496D02*
X010260Y027293D01*
X008260Y025291D02*
X008260Y024393D01*
X008860Y023793D01*
X009560Y023793D01*
X011610Y022343D02*
X013510Y022343D01*
X014110Y021743D01*
X024160Y021743D01*
X024960Y020693D02*
X017660Y020693D01*
X016910Y021043D02*
X027260Y021043D01*
X027760Y021543D01*
X026760Y021793D02*
X026360Y021393D01*
X016960Y021393D01*
X014988Y019422D01*
X014988Y019408D01*
X014865Y019549D02*
X014846Y019549D01*
X014865Y019549D02*
X015660Y020343D01*
X015660Y020743D01*
X015010Y021393D01*
X010160Y021393D01*
X010560Y019243D02*
X010410Y019093D01*
X010560Y019243D02*
X012010Y019243D01*
X012160Y019093D01*
X012177Y019093D01*
X012697Y018573D01*
X012555Y018432D02*
X012144Y018843D01*
X011910Y018843D01*
X011560Y018043D02*
X011460Y018043D01*
X011160Y017743D01*
X011160Y017607D01*
X011445Y017322D01*
X011164Y017039D02*
X012910Y015293D01*
X013060Y015293D01*
X014260Y016493D01*
X014260Y016793D01*
X015460Y017993D01*
X016107Y018290D02*
X017410Y019593D01*
X018010Y019593D01*
X018210Y019393D01*
X018410Y019893D02*
X022360Y019893D01*
X020260Y016893D02*
X020760Y016393D01*
X018860Y015943D02*
X023160Y011643D01*
X022960Y011243D02*
X018360Y015843D01*
X017960Y015843D02*
X017060Y015843D01*
X015410Y014193D01*
X012560Y014193D01*
X012138Y013772D01*
X012047Y013931D02*
X012610Y014493D01*
X015310Y014493D01*
X017060Y016243D01*
X017260Y016243D01*
X016710Y016543D02*
X014910Y014743D01*
X012560Y014743D01*
X011864Y014048D01*
X011862Y014048D01*
X011997Y013931D02*
X012047Y013931D01*
X011997Y013931D02*
X011997Y013913D01*
X011323Y014606D02*
X010160Y013443D01*
X010160Y013293D01*
X010410Y013043D01*
X010060Y012843D02*
X009960Y012943D01*
X009960Y013543D01*
X011162Y014746D01*
X011162Y014748D01*
X011304Y014606D02*
X011323Y014606D01*
X010270Y014743D02*
X010270Y014253D01*
X008826Y012809D01*
X008826Y011581D01*
X009060Y011559D02*
X009060Y011343D01*
X009060Y011559D02*
X009082Y011581D01*
X009110Y011609D01*
X009110Y012243D01*
X009660Y012443D02*
X009660Y011648D01*
X009593Y011581D01*
X011560Y011043D02*
X012260Y011743D01*
X012610Y011743D01*
X013387Y012520D01*
X013390Y012520D01*
X013390Y012524D01*
X013960Y013093D01*
X013248Y012662D02*
X012580Y011993D01*
X011960Y011993D01*
X012710Y011543D02*
X013531Y012365D01*
X013531Y012379D01*
X013673Y012238D02*
X013183Y011748D01*
X013160Y011691D02*
X013160Y011493D01*
X013160Y011691D02*
X013162Y011707D01*
X013166Y011722D01*
X013173Y011735D01*
X013183Y011748D01*
X013760Y012056D02*
X013807Y012103D01*
X013807Y012091D01*
X015260Y013225D02*
X015260Y013493D01*
X015560Y013493D01*
X015822Y013231D01*
X015822Y013213D01*
X015688Y013079D02*
X017174Y011593D01*
X019580Y011593D01*
X019160Y012023D02*
X018650Y012023D01*
X017260Y013413D01*
X017260Y013993D01*
X016939Y014313D01*
X016939Y014331D01*
X017074Y014465D02*
X017088Y014465D01*
X017560Y013993D01*
X017560Y013593D01*
X018630Y012523D01*
X018630Y012493D01*
X017980Y013553D02*
X017980Y013833D01*
X017570Y014243D01*
X017560Y014243D01*
X017215Y014588D01*
X017215Y014606D01*
X017357Y014746D02*
X018210Y013893D01*
X018220Y013893D01*
X018360Y013753D01*
X017357Y014746D02*
X017357Y014748D01*
X017960Y015843D02*
X022410Y011393D01*
X020810Y010543D02*
X014360Y010543D01*
X015546Y012938D02*
X015260Y013225D01*
X015777Y014093D02*
X016239Y013631D01*
X015777Y014093D02*
X015760Y014093D01*
X014860Y016493D02*
X016381Y018015D01*
X016860Y018493D01*
X017010Y018493D01*
X017392Y018111D01*
X017860Y018093D02*
X017210Y018743D01*
X016810Y018743D01*
X016239Y018173D01*
X016239Y018156D01*
X016522Y017873D02*
X016310Y017660D01*
X016310Y017643D01*
X016210Y017543D01*
X016210Y017293D01*
X016310Y017193D01*
X015688Y018708D02*
X015688Y018722D01*
X016760Y019793D01*
X016610Y020193D02*
X029560Y020193D01*
X029760Y020393D01*
X029760Y020643D01*
X028760Y020893D02*
X028260Y020393D01*
X016560Y020393D01*
X015291Y019125D01*
X015271Y019125D01*
X015405Y018990D02*
X015407Y018990D01*
X016610Y020193D01*
X016910Y021043D02*
X015132Y019266D01*
X015129Y019266D01*
X014712Y019683D02*
X014700Y019683D01*
X014310Y019293D01*
X014260Y018843D02*
X013510Y018843D01*
X013510Y018864D01*
X013248Y019125D01*
X013248Y019104D01*
X013114Y018990D02*
X013114Y018989D01*
X013610Y018493D01*
X014660Y018493D01*
X013531Y019408D02*
X013110Y019829D01*
X013110Y020543D01*
X013260Y020693D01*
X012910Y020843D02*
X013110Y021043D01*
X012910Y020843D02*
X012910Y019746D01*
X013390Y019266D01*
X013640Y019562D02*
X013310Y019893D01*
X013310Y020293D01*
X013860Y020843D01*
X013710Y020293D02*
X013510Y020093D01*
X013510Y019993D01*
X013798Y019705D01*
X013798Y019704D02*
X013803Y019698D01*
X013806Y019691D01*
X013807Y019683D01*
X013673Y019550D02*
X013661Y019552D01*
X013651Y019556D01*
X013641Y019563D01*
X011862Y017740D02*
X011560Y018043D01*
X011862Y017740D02*
X011862Y017739D01*
X011864Y017739D01*
X012160Y017443D01*
X012410Y017443D01*
X012460Y017493D01*
X011164Y017039D02*
X011162Y017039D01*
X011028Y016925D02*
X011028Y016904D01*
X011028Y016925D02*
X009510Y018443D01*
X009510Y018593D01*
X009560Y018643D01*
X010310Y017043D02*
X010731Y016622D01*
X010745Y016622D01*
X010887Y016763D02*
X011210Y016440D01*
X011210Y016293D01*
X010860Y015943D01*
X010310Y015943D01*
X010160Y016093D01*
X010110Y015743D02*
X009060Y015743D01*
X008660Y015343D01*
X008660Y015243D01*
X011360Y009643D02*
X011510Y009493D01*
X021860Y009493D01*
X023210Y008143D01*
X024010Y008143D01*
X026260Y016019D02*
X025885Y016393D01*
X024260Y016393D01*
X025960Y022043D02*
X018710Y022043D01*
X017260Y023793D02*
X020660Y023793D01*
X020510Y024043D02*
X020660Y024193D01*
X022260Y024193D01*
X022310Y024143D01*
X022660Y023793D02*
X023810Y024943D01*
X026810Y024943D01*
X027260Y025393D01*
X027607Y025393D01*
X027607Y025893D02*
X026860Y025893D01*
X026660Y025693D01*
X026510Y025693D01*
X026460Y025643D01*
X025610Y027193D02*
X025760Y027343D01*
X025610Y027193D02*
X021110Y027193D01*
X020510Y024043D02*
X017710Y024043D01*
X017660Y024093D01*
X017110Y024093D01*
X017060Y024043D01*
X016060Y024043D01*
X016510Y023443D02*
X024260Y023443D01*
X024910Y023443D02*
X026510Y023443D01*
X026760Y023693D01*
X029812Y026393D02*
X029812Y026496D01*
X023210Y023143D02*
X015710Y023143D01*
X017860Y018093D02*
X017860Y017543D01*
X017960Y017443D01*
X007260Y027496D02*
X007260Y027993D01*
D28*
X007810Y028543D01*
X007260Y029093D01*
X007260Y029393D01*
X007260Y030143D01*
X007710Y030593D01*
X016060Y030593D01*
X017260Y029393D01*
X018260Y030393D01*
X021260Y030393D01*
X021760Y029893D01*
X022260Y030393D01*
X031710Y030393D01*
X032210Y029893D01*
X030660Y031243D02*
X009560Y031243D01*
X009110Y030243D02*
X010960Y030243D01*
X011260Y029943D01*
X011260Y029893D01*
X010760Y028893D02*
X011760Y028893D01*
X011660Y028493D02*
X028160Y028493D01*
X028260Y028393D01*
X030110Y028043D02*
X018860Y028043D01*
X017260Y027496D02*
X017260Y027043D01*
X017560Y026743D01*
X025757Y026743D01*
X026107Y026393D01*
X025710Y025996D01*
X025710Y025444D01*
X026107Y026393D02*
X027607Y026393D01*
X029010Y026393D01*
X029110Y026293D01*
X029812Y026496D02*
X030210Y026893D01*
X029812Y025893D02*
X028360Y025893D01*
X029812Y025393D02*
X029862Y025443D01*
X030610Y025443D01*
X031110Y025943D01*
X031210Y024893D02*
X029812Y024893D01*
X029812Y024393D02*
X031710Y024393D01*
X032210Y024893D01*
X031210Y024893D02*
X032210Y025893D01*
X033510Y027143D02*
X032910Y027743D01*
X023560Y027743D01*
X023360Y027543D01*
X023360Y026093D02*
X023360Y026043D01*
X023110Y025793D01*
X018910Y025793D01*
X017960Y026443D02*
X020060Y026443D01*
X020210Y026293D01*
X017960Y026443D02*
X017410Y025893D01*
X016260Y025893D01*
X015760Y025393D01*
X015760Y025343D01*
X015760Y025993D02*
X016510Y026743D01*
X016960Y026743D01*
X017260Y027043D01*
X016260Y027496D02*
X016260Y027793D01*
X016110Y027943D01*
X015960Y027943D01*
X015760Y027496D02*
X015760Y026493D01*
X015510Y026243D01*
X012610Y026243D01*
X012110Y025743D01*
X012160Y026343D02*
X012360Y026543D01*
X012160Y026343D02*
X009810Y026343D01*
X009260Y026893D01*
X009260Y027496D01*
X008760Y027496D02*
X008760Y027893D01*
X008960Y028093D01*
X009210Y028093D01*
X008260Y027496D02*
X008260Y026393D01*
X007760Y026393D02*
X007760Y027496D01*
X007810Y028543D02*
X010460Y028543D01*
X010460Y028593D01*
X010760Y028893D01*
X010460Y028543D02*
X010860Y028143D01*
X013860Y028143D01*
X014260Y027743D01*
X014310Y027743D01*
X014260Y027743D02*
X014260Y027496D01*
X014760Y027496D02*
X014760Y026643D01*
X015260Y026793D02*
X015260Y027496D01*
X015760Y027496D02*
X015760Y027193D01*
X015760Y025993D02*
X014660Y025993D01*
X014460Y025793D01*
X014460Y025491D01*
X014260Y025291D01*
X014212Y025243D01*
X014060Y025243D01*
X013710Y024893D01*
X013760Y024893D01*
X014110Y024543D01*
X014110Y022843D01*
X014560Y022393D01*
X015208Y022393D01*
X012760Y023843D02*
X012510Y024093D01*
X009460Y024093D01*
X008760Y024793D01*
X008760Y025291D01*
X009260Y025291D02*
X009260Y024793D01*
X009510Y024543D01*
X012910Y024543D01*
X013710Y024893D02*
X010810Y024893D01*
X010362Y025393D02*
X011260Y025393D01*
X010362Y025393D02*
X010260Y025291D01*
X009110Y025943D02*
X007660Y025943D01*
X007260Y025543D01*
X007260Y025291D01*
X006862Y024893D01*
X006760Y024893D01*
X007260Y024393D02*
X007760Y024893D01*
X007760Y025291D01*
X007260Y025893D02*
X007760Y026393D01*
X007260Y025893D02*
X005760Y025893D01*
X004760Y024393D02*
X007260Y024393D01*
X006260Y022893D02*
X006708Y022444D01*
X009260Y022444D01*
X010311Y022393D02*
X011060Y022393D01*
X011310Y022643D01*
X011310Y022843D01*
X011860Y020843D02*
X009760Y020843D01*
X009360Y019043D02*
X008710Y018393D01*
X007260Y018393D01*
X007260Y017393D02*
X009860Y017393D01*
X008315Y011393D02*
X007360Y011393D01*
X008315Y011393D02*
X009337Y010371D01*
X009593Y010009D02*
X010510Y009093D01*
X013160Y009093D01*
X013710Y008543D01*
X012200Y008693D02*
X012090Y008583D01*
X012080Y008583D01*
X010520Y007023D01*
X008600Y007023D01*
X007800Y007823D01*
X007800Y008563D01*
X006920Y009443D01*
X005710Y009443D01*
X004460Y010693D01*
X006260Y008893D02*
X006260Y005393D01*
X012260Y009893D02*
X024260Y009893D01*
X025660Y011593D02*
X026010Y011593D01*
X026360Y011243D01*
X026460Y011243D01*
X027210Y011993D01*
X027210Y012542D01*
X025660Y011593D02*
X025260Y011993D01*
X021560Y009093D02*
X023260Y007393D01*
X023260Y006283D01*
X023219Y006243D01*
X022110Y006233D02*
X022110Y005893D01*
X021610Y005393D01*
X022100Y004903D01*
X022100Y004429D01*
X022185Y004343D02*
X022185Y003967D01*
X021610Y005393D02*
X021060Y005393D01*
X020810Y005643D01*
X020810Y005693D01*
X022100Y006243D02*
X022110Y006233D01*
X021560Y009093D02*
X015760Y009093D01*
X016419Y007643D02*
X016419Y006503D01*
X016060Y006143D01*
X016060Y005443D01*
X016810Y004693D01*
X025080Y004953D02*
X025260Y004773D01*
X025440Y004953D01*
X027640Y004953D01*
X028060Y015693D02*
X028511Y015693D01*
X028885Y016067D01*
X029160Y015793D01*
X029610Y015793D01*
X029960Y016143D01*
X029872Y016143D01*
X029634Y016381D01*
X029960Y016143D02*
X030510Y016143D01*
X030460Y016893D02*
X032260Y016893D01*
X030460Y016893D02*
X030260Y017093D01*
X028885Y017484D02*
X028795Y017393D01*
X027260Y017393D01*
X026760Y016893D01*
X026760Y016393D01*
X026385Y016019D01*
X026260Y016019D01*
X027760Y016019D02*
X027760Y015993D01*
X028060Y015693D01*
X028885Y016067D02*
X028885Y016381D01*
X028885Y017484D02*
X031760Y020358D01*
X031760Y020893D01*
X029812Y023393D02*
X029260Y023393D01*
X021760Y029393D02*
X021760Y029893D01*
X018260Y030893D02*
X012260Y030893D01*
X014960Y030243D02*
X015260Y029943D01*
X015260Y029393D01*
X010260Y027293D02*
X009960Y026993D01*
X008260Y029393D02*
X009110Y030243D01*
X004760Y024393D02*
X004460Y024093D01*
X004460Y023893D01*
D29*
X009210Y028093D03*
X011260Y025393D03*
X011310Y022843D03*
X013010Y027643D03*
X018210Y019393D03*
X017960Y017443D03*
X024880Y014793D03*
X026360Y011243D03*
X028680Y013053D03*
X030260Y017093D03*
X029960Y019243D03*
X028760Y020893D03*
X031110Y025943D03*
X030210Y026893D03*
X030660Y031243D03*
X022310Y024143D03*
X009660Y012443D03*
X007610Y013443D03*
X004460Y010693D03*
X006260Y008893D03*
X008810Y009443D03*
X011360Y009643D03*
X013710Y008543D03*
X015310Y008643D03*
D30*
X014360Y010543D03*
X013210Y010243D03*
X012510Y010283D03*
X012710Y011093D03*
X013160Y011493D03*
X012110Y012343D03*
X011960Y011993D03*
X010410Y013043D03*
X010060Y012843D03*
X009110Y012243D03*
X009410Y014093D03*
X010270Y014743D03*
X010110Y015743D03*
X008660Y015243D03*
X008610Y016693D03*
X009860Y017393D03*
X009560Y018643D03*
X009360Y019043D03*
X010410Y019093D03*
X011910Y018843D03*
X012460Y017493D03*
X014260Y018843D03*
X014310Y019293D03*
X014660Y018493D03*
X015460Y017993D03*
X016310Y017193D03*
X016710Y016543D03*
X017260Y016243D03*
X018360Y015843D03*
X018860Y015943D03*
X020260Y016893D03*
X021260Y017893D03*
X019210Y018443D03*
X018410Y019893D03*
X017660Y020693D03*
X016760Y019793D03*
X017392Y018111D03*
X014860Y016493D03*
X012910Y015293D03*
X013960Y013093D03*
X015260Y013493D03*
X015760Y014093D03*
X017980Y013553D03*
X018360Y013753D03*
X018630Y012493D03*
X019160Y012023D03*
X019580Y011593D03*
X020770Y011653D03*
X021760Y010943D03*
X022410Y011393D03*
X022960Y011243D03*
X023160Y011643D03*
X024510Y009893D03*
X024010Y008143D03*
X020810Y010543D03*
X012200Y008693D03*
X022360Y019893D03*
X024160Y021743D03*
X024960Y020693D03*
X025960Y022043D03*
X026760Y021793D03*
X027760Y021543D03*
X029260Y023393D03*
X027110Y023993D03*
X026460Y025643D03*
X025760Y027343D03*
X028260Y028393D03*
X030110Y028043D03*
X029110Y026293D03*
X028360Y025893D03*
X024910Y023443D03*
X024260Y023443D03*
X023210Y023143D03*
X022660Y023793D03*
X021910Y024943D03*
X020660Y023793D03*
X019410Y024543D03*
X018710Y024393D03*
X017910Y024993D03*
X017760Y025393D03*
X016210Y024543D03*
X016060Y024043D03*
X016510Y023443D03*
X017260Y023793D03*
X017360Y022543D03*
X018710Y022043D03*
X015710Y023143D03*
X015060Y023643D03*
X014510Y023193D03*
X013360Y023393D03*
X012760Y023843D03*
X011610Y022343D03*
X011760Y021893D03*
X011860Y020843D03*
X013110Y021043D03*
X013260Y020693D03*
X013710Y020293D03*
X013860Y020843D03*
X013310Y021993D03*
X010160Y021393D03*
X009760Y020843D03*
X007660Y023293D03*
X006260Y022893D03*
X006260Y021893D03*
X006760Y024893D03*
X009560Y023793D03*
X010810Y024893D03*
X012110Y025743D03*
X012360Y026543D03*
X011660Y028493D03*
X011760Y028893D03*
X011260Y029893D03*
X012610Y030043D03*
X012260Y030893D03*
X009560Y031243D03*
X015960Y027943D03*
X018860Y028043D03*
X020210Y026293D03*
X021110Y027193D03*
X018260Y030893D03*
X029760Y020643D03*
X030760Y018393D03*
X026960Y018393D03*
X033510Y027143D03*
X032210Y029893D03*
D31*
X027260Y024893D02*
X026760Y024393D01*
X026760Y023693D01*
X027110Y023993D02*
X027110Y024193D01*
X027310Y024393D01*
X027607Y024393D01*
X029960Y019243D02*
X022160Y019243D01*
X021760Y018393D02*
X021260Y017893D01*
X021760Y018393D02*
X026960Y018393D01*
X026260Y016019D02*
X026210Y015969D01*
X026210Y015843D01*
X025460Y015093D01*
X025310Y015243D01*
X021910Y015243D01*
X020760Y016393D01*
X019210Y018057D02*
X017774Y016622D01*
X019210Y018057D02*
X019210Y018443D01*
X016107Y018290D02*
X016105Y018290D01*
X013310Y021993D02*
X011860Y021993D01*
X011760Y021893D01*
X013260Y023293D02*
X013360Y023393D01*
X013260Y023293D02*
X007660Y023293D01*
X006319Y022383D02*
X007410Y021293D01*
X007410Y021117D01*
X007634Y020893D01*
X006885Y020893D02*
X006810Y020817D01*
X006810Y020643D01*
X006160Y019993D01*
X006160Y017443D01*
X006710Y016893D01*
X007760Y016893D01*
X007910Y017043D01*
X010310Y017043D01*
X010160Y016093D02*
X008010Y016093D01*
X007634Y015717D01*
X007634Y015193D01*
X006885Y015193D02*
X006750Y015057D01*
X006750Y014143D01*
X007610Y013443D02*
X007869Y013703D01*
X007869Y014143D01*
X008360Y013043D02*
X009410Y014093D01*
X008360Y013043D02*
X006260Y013043D01*
X005960Y013343D01*
X005960Y015693D01*
X005660Y015993D01*
X005660Y021293D01*
X006260Y021893D01*
X006319Y022383D02*
X005560Y022383D01*
X009208Y022393D02*
X009260Y022444D01*
X014510Y023193D02*
X014510Y023893D01*
X014760Y024143D01*
X014760Y025291D01*
X015260Y025291D02*
X015260Y023843D01*
X015060Y023643D01*
X016210Y024543D02*
X016360Y024393D01*
X018710Y024393D01*
X019260Y024693D02*
X019410Y024543D01*
X019310Y024643D01*
X019260Y024693D02*
X016660Y024693D01*
X016310Y025043D01*
X016260Y025043D01*
X016260Y025291D01*
X015760Y025291D02*
X015760Y025343D01*
X017260Y025291D02*
X017312Y025291D01*
X017312Y025191D01*
X017510Y024993D01*
X017910Y024993D01*
X017760Y025393D02*
X021460Y025393D01*
X021910Y024943D01*
X017360Y022543D02*
X017210Y022393D01*
X016311Y022393D01*
X013010Y027643D02*
X010810Y027643D01*
X010360Y028093D01*
X009210Y028093D01*
X007260Y027496D02*
X007210Y027446D01*
X012610Y030043D02*
X012810Y030243D01*
X014960Y030243D01*
X008610Y016693D02*
X008310Y016393D01*
X007260Y016393D01*
X012110Y012343D02*
X012661Y012343D01*
X013114Y012796D01*
X013807Y012103D02*
X013560Y011856D01*
X013560Y011323D01*
X012520Y010283D01*
X012510Y010283D01*
X012260Y009893D02*
X011860Y009893D01*
X011260Y010493D01*
X009460Y010493D01*
X009337Y010371D01*
X009337Y010105D01*
X009337Y009721D01*
X009260Y009643D01*
X009110Y009793D01*
X009110Y010077D01*
X009082Y010105D01*
X008826Y010105D02*
X008810Y010089D01*
X008810Y009443D01*
X009260Y009643D02*
X009260Y008743D01*
X009336Y008667D01*
X009337Y008667D01*
X009961Y008043D01*
X009593Y010009D02*
X009593Y010105D01*
X009410Y010793D02*
X012410Y010793D01*
X012710Y011093D01*
X012710Y011543D01*
X013210Y010243D02*
X030610Y010243D01*
X031760Y011393D01*
X032260Y011393D01*
X028680Y013053D02*
X025010Y013053D01*
X024880Y012923D01*
X024880Y012651D01*
X024876Y012655D01*
X025130Y012653D02*
X025130Y012393D01*
X025260Y012263D01*
X025260Y012203D01*
X025387Y012331D01*
X025387Y012655D01*
X025132Y012655D02*
X025130Y012653D01*
X025260Y012203D02*
X025260Y011993D01*
X025387Y014131D02*
X025390Y014134D01*
X025132Y014131D02*
X025132Y014515D01*
X025460Y014843D01*
X025460Y015093D01*
X024880Y014793D02*
X024880Y014135D01*
X024876Y014131D01*
X021760Y010943D02*
X016989Y010943D01*
X015271Y012662D01*
X015405Y012796D02*
X016958Y011243D01*
X020360Y011243D01*
X020770Y011653D01*
X024260Y009893D02*
X024510Y009893D01*
X025260Y004773D02*
X025260Y004193D01*
X024660Y003593D01*
X022510Y003593D01*
X022185Y003917D01*
X022185Y003967D01*
X022185Y004343D02*
X022100Y004429D01*
X015760Y009093D02*
X015310Y008643D01*
X015310Y007653D01*
X015300Y007643D01*
X011560Y011043D02*
X009560Y011043D01*
X009360Y011243D01*
X009360Y011559D01*
X009337Y011581D01*
X009060Y011343D02*
X009060Y011143D01*
X009410Y010793D01*
D32*
X005760Y010893D03*
X005760Y011893D03*
X004460Y023893D03*
X009110Y025943D03*
X009960Y026993D03*
X012910Y024543D03*
X014760Y026643D03*
X015260Y026793D03*
X018910Y025793D03*
X023360Y026093D03*
X023360Y027543D03*
X022160Y019243D03*
X030760Y016393D03*
D33*
X027607Y024893D02*
X027260Y024893D01*
D34*
X008260Y026393D03*
X005760Y025893D03*
M02*
