%
M48
M72
T01C0.0150
T02C0.0197
T03C0.0236
T04C0.0276
T05C0.0400
T06C0.1260
%
T01
X12200Y8693
X12510Y10283
X13210Y10243
X12710Y11093
X13160Y11493
X12110Y12343
X11960Y11993
X10410Y13043
X10060Y12843
X9110Y12243
X9410Y14093
X10270Y14743
X10110Y15743
X8660Y15243
X8610Y16693
X9860Y17393
X9560Y18643
X9360Y19043
X10410Y19093
X11910Y18843
X12460Y17493
X14260Y18843
X14310Y19293
X14660Y18493
X15460Y17993
X16310Y17193
X16710Y16543
X17260Y16243
X18360Y15843
X18860Y15943
X20260Y16893
X21260Y17893
X19210Y18443
X18410Y19893
X17660Y20693
X16760Y19793
X17392Y18111
X14860Y16493
X12910Y15293
X13960Y13093
X15260Y13493
X15760Y14093
X17980Y13553
X18360Y13753
X18630Y12493
X19160Y12023
X19580Y11593
X20770Y11653
X21760Y10943
X22410Y11393
X22960Y11243
X23160Y11643
X24510Y9893
X24010Y8143
X20810Y10543
X14360Y10543
X22360Y19893
X24160Y21743
X24960Y20693
X25960Y22043
X26760Y21793
X27760Y21543
X29260Y23393
X27110Y23993
X26460Y25643
X25760Y27343
X28260Y28393
X30110Y28043
X29110Y26293
X28360Y25893
X24910Y23443
X24260Y23443
X23210Y23143
X22660Y23793
X21910Y24943
X20660Y23793
X19410Y24543
X18710Y24393
X17910Y24993
X17760Y25393
X16210Y24543
X16060Y24043
X16510Y23443
X17260Y23793
X17360Y22543
X18710Y22043
X15710Y23143
X15060Y23643
X14510Y23193
X13360Y23393
X12760Y23843
X11610Y22343
X11760Y21893
X11860Y20843
X13110Y21043
X13260Y20693
X13710Y20293
X13860Y20843
X13310Y21993
X10160Y21393
X9760Y20843
X7660Y23293
X6260Y22893
X6260Y21893
X6760Y24893
X9560Y23793
X10810Y24893
X12110Y25743
X12360Y26543
X11660Y28493
X11760Y28893
X11260Y29893
X12610Y30043
X12260Y30893
X9560Y31243
X15960Y27943
X18860Y28043
X20210Y26293
X21110Y27193
X18260Y30893
X29760Y20643
X30760Y18393
X26960Y18393
X33510Y27143
X32210Y29893
T02
X30660Y31243
X30210Y26893
X31110Y25943
X28760Y20893
X29960Y19243
X30260Y17093
X28680Y13053
X26360Y11243
X24880Y14793
X18210Y19393
X17960Y17443
X11310Y22843
X11260Y25393
X13010Y27643
X9210Y28093
X22310Y24143
X9660Y12443
X7610Y13443
X4460Y10693
X6260Y8893
X8810Y9443
X11360Y9643
X13710Y8543
X15310Y8643
T03
X5760Y10893
X5760Y11893
X4460Y23893
X9110Y25943
X9960Y26993
X12910Y24543
X14760Y26643
X15260Y26793
X18910Y25793
X23360Y26093
X23360Y27543
X22160Y19243
X30760Y16393
T04
X8260Y26393
X5760Y25893
T05
X6260Y5393
X7260Y5393
X8260Y5393
X9260Y5393
X12760Y5143
X13760Y5143
X16810Y4693
X17810Y4693
X18810Y4693
X19810Y4693
X20810Y4693
X20810Y5693
X19810Y5693
X18810Y5693
X17810Y5693
X16810Y5693
X25080Y4953
X25080Y6733
X27640Y6733
X27640Y4953
X32260Y8393
X32260Y9393
X32260Y10393
X32260Y11393
X32260Y12393
X32260Y15893
X32260Y16893
X32260Y17893
X32260Y18893
X32760Y20893
X32760Y21893
X31760Y21893
X31760Y20893
X32210Y23893
X32210Y24893
X32210Y25893
X32210Y26893
X29760Y29393
X28760Y29393
X27760Y29393
X26760Y29393
X25760Y29393
X24760Y29393
X23760Y29393
X22760Y29393
X21760Y29393
X20760Y29393
X17260Y29393
X16260Y29393
X15260Y29393
X14260Y29393
X10260Y29393
X9260Y29393
X8260Y29393
X7260Y29393
X7260Y19393
X7260Y18393
X7260Y17393
X7260Y16393
X7360Y12393
X7360Y11393
T06
X13760Y3393
X25760Y3393
X25760Y32893
X13760Y32893
M30
