G75*
%MOIN*%
%OFA0B0*%
%FSLAX24Y24*%
%IPPOS*%
%LPD*%
%AMOC8*
5,1,8,0,0,1.08239X$1,22.5*
%
%ADD10C,0.0000*%
%ADD11C,0.1320*%
%ADD12C,0.0660*%
%ADD13R,0.0572X0.0651*%
%ADD14R,0.0490X0.0610*%
%ADD15R,0.0769X0.0493*%
%ADD16R,0.0828X0.0651*%
%ADD17R,0.0375X0.0336*%
%ADD18OC8,0.0660*%
%ADD19C,0.0397*%
%ADD20C,0.0350*%
%ADD21C,0.0436*%
%ADD22C,0.0476*%
D10*
X003760Y002393D02*
X003760Y033889D01*
X035780Y033889D01*
X035730Y002343D01*
X003760Y002393D01*
X013130Y003393D02*
X013132Y003443D01*
X013138Y003493D01*
X013148Y003542D01*
X013162Y003590D01*
X013179Y003637D01*
X013200Y003682D01*
X013225Y003726D01*
X013253Y003767D01*
X013285Y003806D01*
X013319Y003843D01*
X013356Y003877D01*
X013396Y003907D01*
X013438Y003934D01*
X013482Y003958D01*
X013528Y003979D01*
X013575Y003995D01*
X013623Y004008D01*
X013673Y004017D01*
X013722Y004022D01*
X013773Y004023D01*
X013823Y004020D01*
X013872Y004013D01*
X013921Y004002D01*
X013969Y003987D01*
X014015Y003969D01*
X014060Y003947D01*
X014103Y003921D01*
X014144Y003892D01*
X014183Y003860D01*
X014219Y003825D01*
X014251Y003787D01*
X014281Y003747D01*
X014308Y003704D01*
X014331Y003660D01*
X014350Y003614D01*
X014366Y003566D01*
X014378Y003517D01*
X014386Y003468D01*
X014390Y003418D01*
X014390Y003368D01*
X014386Y003318D01*
X014378Y003269D01*
X014366Y003220D01*
X014350Y003172D01*
X014331Y003126D01*
X014308Y003082D01*
X014281Y003039D01*
X014251Y002999D01*
X014219Y002961D01*
X014183Y002926D01*
X014144Y002894D01*
X014103Y002865D01*
X014060Y002839D01*
X014015Y002817D01*
X013969Y002799D01*
X013921Y002784D01*
X013872Y002773D01*
X013823Y002766D01*
X013773Y002763D01*
X013722Y002764D01*
X013673Y002769D01*
X013623Y002778D01*
X013575Y002791D01*
X013528Y002807D01*
X013482Y002828D01*
X013438Y002852D01*
X013396Y002879D01*
X013356Y002909D01*
X013319Y002943D01*
X013285Y002980D01*
X013253Y003019D01*
X013225Y003060D01*
X013200Y003104D01*
X013179Y003149D01*
X013162Y003196D01*
X013148Y003244D01*
X013138Y003293D01*
X013132Y003343D01*
X013130Y003393D01*
X025130Y003393D02*
X025132Y003443D01*
X025138Y003493D01*
X025148Y003542D01*
X025162Y003590D01*
X025179Y003637D01*
X025200Y003682D01*
X025225Y003726D01*
X025253Y003767D01*
X025285Y003806D01*
X025319Y003843D01*
X025356Y003877D01*
X025396Y003907D01*
X025438Y003934D01*
X025482Y003958D01*
X025528Y003979D01*
X025575Y003995D01*
X025623Y004008D01*
X025673Y004017D01*
X025722Y004022D01*
X025773Y004023D01*
X025823Y004020D01*
X025872Y004013D01*
X025921Y004002D01*
X025969Y003987D01*
X026015Y003969D01*
X026060Y003947D01*
X026103Y003921D01*
X026144Y003892D01*
X026183Y003860D01*
X026219Y003825D01*
X026251Y003787D01*
X026281Y003747D01*
X026308Y003704D01*
X026331Y003660D01*
X026350Y003614D01*
X026366Y003566D01*
X026378Y003517D01*
X026386Y003468D01*
X026390Y003418D01*
X026390Y003368D01*
X026386Y003318D01*
X026378Y003269D01*
X026366Y003220D01*
X026350Y003172D01*
X026331Y003126D01*
X026308Y003082D01*
X026281Y003039D01*
X026251Y002999D01*
X026219Y002961D01*
X026183Y002926D01*
X026144Y002894D01*
X026103Y002865D01*
X026060Y002839D01*
X026015Y002817D01*
X025969Y002799D01*
X025921Y002784D01*
X025872Y002773D01*
X025823Y002766D01*
X025773Y002763D01*
X025722Y002764D01*
X025673Y002769D01*
X025623Y002778D01*
X025575Y002791D01*
X025528Y002807D01*
X025482Y002828D01*
X025438Y002852D01*
X025396Y002879D01*
X025356Y002909D01*
X025319Y002943D01*
X025285Y002980D01*
X025253Y003019D01*
X025225Y003060D01*
X025200Y003104D01*
X025179Y003149D01*
X025162Y003196D01*
X025148Y003244D01*
X025138Y003293D01*
X025132Y003343D01*
X025130Y003393D01*
X025130Y032893D02*
X025132Y032943D01*
X025138Y032993D01*
X025148Y033042D01*
X025162Y033090D01*
X025179Y033137D01*
X025200Y033182D01*
X025225Y033226D01*
X025253Y033267D01*
X025285Y033306D01*
X025319Y033343D01*
X025356Y033377D01*
X025396Y033407D01*
X025438Y033434D01*
X025482Y033458D01*
X025528Y033479D01*
X025575Y033495D01*
X025623Y033508D01*
X025673Y033517D01*
X025722Y033522D01*
X025773Y033523D01*
X025823Y033520D01*
X025872Y033513D01*
X025921Y033502D01*
X025969Y033487D01*
X026015Y033469D01*
X026060Y033447D01*
X026103Y033421D01*
X026144Y033392D01*
X026183Y033360D01*
X026219Y033325D01*
X026251Y033287D01*
X026281Y033247D01*
X026308Y033204D01*
X026331Y033160D01*
X026350Y033114D01*
X026366Y033066D01*
X026378Y033017D01*
X026386Y032968D01*
X026390Y032918D01*
X026390Y032868D01*
X026386Y032818D01*
X026378Y032769D01*
X026366Y032720D01*
X026350Y032672D01*
X026331Y032626D01*
X026308Y032582D01*
X026281Y032539D01*
X026251Y032499D01*
X026219Y032461D01*
X026183Y032426D01*
X026144Y032394D01*
X026103Y032365D01*
X026060Y032339D01*
X026015Y032317D01*
X025969Y032299D01*
X025921Y032284D01*
X025872Y032273D01*
X025823Y032266D01*
X025773Y032263D01*
X025722Y032264D01*
X025673Y032269D01*
X025623Y032278D01*
X025575Y032291D01*
X025528Y032307D01*
X025482Y032328D01*
X025438Y032352D01*
X025396Y032379D01*
X025356Y032409D01*
X025319Y032443D01*
X025285Y032480D01*
X025253Y032519D01*
X025225Y032560D01*
X025200Y032604D01*
X025179Y032649D01*
X025162Y032696D01*
X025148Y032744D01*
X025138Y032793D01*
X025132Y032843D01*
X025130Y032893D01*
X013130Y032893D02*
X013132Y032943D01*
X013138Y032993D01*
X013148Y033042D01*
X013162Y033090D01*
X013179Y033137D01*
X013200Y033182D01*
X013225Y033226D01*
X013253Y033267D01*
X013285Y033306D01*
X013319Y033343D01*
X013356Y033377D01*
X013396Y033407D01*
X013438Y033434D01*
X013482Y033458D01*
X013528Y033479D01*
X013575Y033495D01*
X013623Y033508D01*
X013673Y033517D01*
X013722Y033522D01*
X013773Y033523D01*
X013823Y033520D01*
X013872Y033513D01*
X013921Y033502D01*
X013969Y033487D01*
X014015Y033469D01*
X014060Y033447D01*
X014103Y033421D01*
X014144Y033392D01*
X014183Y033360D01*
X014219Y033325D01*
X014251Y033287D01*
X014281Y033247D01*
X014308Y033204D01*
X014331Y033160D01*
X014350Y033114D01*
X014366Y033066D01*
X014378Y033017D01*
X014386Y032968D01*
X014390Y032918D01*
X014390Y032868D01*
X014386Y032818D01*
X014378Y032769D01*
X014366Y032720D01*
X014350Y032672D01*
X014331Y032626D01*
X014308Y032582D01*
X014281Y032539D01*
X014251Y032499D01*
X014219Y032461D01*
X014183Y032426D01*
X014144Y032394D01*
X014103Y032365D01*
X014060Y032339D01*
X014015Y032317D01*
X013969Y032299D01*
X013921Y032284D01*
X013872Y032273D01*
X013823Y032266D01*
X013773Y032263D01*
X013722Y032264D01*
X013673Y032269D01*
X013623Y032278D01*
X013575Y032291D01*
X013528Y032307D01*
X013482Y032328D01*
X013438Y032352D01*
X013396Y032379D01*
X013356Y032409D01*
X013319Y032443D01*
X013285Y032480D01*
X013253Y032519D01*
X013225Y032560D01*
X013200Y032604D01*
X013179Y032649D01*
X013162Y032696D01*
X013148Y032744D01*
X013138Y032793D01*
X013132Y032843D01*
X013130Y032893D01*
D11*
X013760Y032893D03*
X025760Y032893D03*
X025760Y003393D03*
X013760Y003393D03*
D12*
X013760Y004843D02*
X013760Y005443D01*
X012760Y005443D02*
X012760Y004843D01*
X009260Y005093D02*
X009260Y005693D01*
X008260Y005693D02*
X008260Y005093D01*
X007260Y005093D02*
X007260Y005693D01*
X006260Y005693D02*
X006260Y005093D01*
X007060Y011393D02*
X007660Y011393D01*
X007660Y012393D02*
X007060Y012393D01*
X006960Y016393D02*
X007560Y016393D01*
X007560Y017393D02*
X006960Y017393D01*
X006960Y018393D02*
X007560Y018393D01*
X007560Y019393D02*
X006960Y019393D01*
X007260Y029093D02*
X007260Y029693D01*
X008260Y029693D02*
X008260Y029093D01*
X009260Y029093D02*
X009260Y029693D01*
X010260Y029693D02*
X010260Y029093D01*
X014260Y029093D02*
X014260Y029693D01*
X015260Y029693D02*
X015260Y029093D01*
X016260Y029093D02*
X016260Y029693D01*
X017260Y029693D02*
X017260Y029093D01*
X020760Y029093D02*
X020760Y029693D01*
X021760Y029693D02*
X021760Y029093D01*
X022760Y029093D02*
X022760Y029693D01*
X023760Y029693D02*
X023760Y029093D01*
X024760Y029093D02*
X024760Y029693D01*
X025760Y029693D02*
X025760Y029093D01*
X026760Y029093D02*
X026760Y029693D01*
X027760Y029693D02*
X027760Y029093D01*
X028760Y029093D02*
X028760Y029693D01*
X029760Y029693D02*
X029760Y029093D01*
X031910Y026893D02*
X032510Y026893D01*
X032510Y025893D02*
X031910Y025893D01*
X031910Y024893D02*
X032510Y024893D01*
X032510Y023893D02*
X031910Y023893D01*
X031960Y018893D02*
X032560Y018893D01*
X032560Y017893D02*
X031960Y017893D01*
X031960Y016893D02*
X032560Y016893D01*
X032560Y015893D02*
X031960Y015893D01*
X031960Y012393D02*
X032560Y012393D01*
X032560Y011393D02*
X031960Y011393D01*
X031960Y010393D02*
X032560Y010393D01*
X032560Y009393D02*
X031960Y009393D01*
X031960Y008393D02*
X032560Y008393D01*
X027940Y006733D02*
X027340Y006733D01*
X027340Y004953D02*
X027940Y004953D01*
X025380Y004953D02*
X024780Y004953D01*
X024780Y006733D02*
X025380Y006733D01*
D13*
G36*
X016063Y015156D02*
X016468Y015561D01*
X016927Y015102D01*
X016522Y014697D01*
X016063Y015156D01*
G37*
G36*
X014842Y014535D02*
X015247Y014940D01*
X015706Y014481D01*
X015301Y014076D01*
X014842Y014535D01*
G37*
G36*
X014313Y014006D02*
X014718Y014411D01*
X015177Y013952D01*
X014772Y013547D01*
X014313Y014006D01*
G37*
G36*
X013497Y013197D02*
X013092Y013602D01*
X013551Y014061D01*
X013956Y013656D01*
X013497Y013197D01*
G37*
G36*
X012968Y013726D02*
X012563Y014131D01*
X013022Y014590D01*
X013427Y014185D01*
X012968Y013726D01*
G37*
G36*
X012051Y015561D02*
X012456Y015156D01*
X011997Y014697D01*
X011592Y015102D01*
X012051Y015561D01*
G37*
G36*
X011522Y016090D02*
X011927Y015685D01*
X011468Y015226D01*
X011063Y015631D01*
X011522Y016090D01*
G37*
G36*
X013427Y017102D02*
X013022Y016697D01*
X012563Y017156D01*
X012968Y017561D01*
X013427Y017102D01*
G37*
G36*
X013956Y017631D02*
X013551Y017226D01*
X013092Y017685D01*
X013497Y018090D01*
X013956Y017631D01*
G37*
G36*
X016592Y015685D02*
X016997Y016090D01*
X017456Y015631D01*
X017051Y015226D01*
X016592Y015685D01*
G37*
D14*
G36*
X016163Y016970D02*
X016509Y016624D01*
X016079Y016194D01*
X015733Y016540D01*
X016163Y016970D01*
G37*
G36*
X015640Y017493D02*
X015986Y017147D01*
X015556Y016717D01*
X015210Y017063D01*
X015640Y017493D01*
G37*
D15*
X019760Y016263D03*
X019760Y015523D03*
D16*
G36*
X018654Y017589D02*
X018070Y018173D01*
X018530Y018633D01*
X019114Y018049D01*
X018654Y017589D01*
G37*
G36*
X017889Y018354D02*
X017305Y018938D01*
X017765Y019398D01*
X018349Y018814D01*
X017889Y018354D01*
G37*
D17*
G36*
X019079Y017811D02*
X019343Y017547D01*
X019105Y017309D01*
X018841Y017573D01*
X019079Y017811D01*
G37*
G36*
X019414Y017477D02*
X019678Y017213D01*
X019440Y016975D01*
X019176Y017239D01*
X019414Y017477D01*
G37*
D18*
X031760Y020893D03*
X032760Y020893D03*
X032760Y021893D03*
X031760Y021893D03*
X020810Y005693D03*
X020810Y004693D03*
X019810Y004693D03*
X019810Y005693D03*
X018810Y005693D03*
X017810Y005693D03*
X017810Y004693D03*
X018810Y004693D03*
X016810Y004693D03*
X016810Y005693D03*
D19*
X015310Y008643D03*
X013710Y008543D03*
X011360Y009643D03*
X008810Y009443D03*
X006260Y008893D03*
X004460Y010693D03*
X007610Y013443D03*
X009660Y012443D03*
X017960Y017443D03*
X018210Y019393D03*
X022310Y024143D03*
X028760Y020893D03*
X029960Y019243D03*
X030260Y017093D03*
X028680Y013053D03*
X026360Y011243D03*
X024880Y014793D03*
X031110Y025943D03*
X030210Y026893D03*
X030660Y031243D03*
X013010Y027643D03*
X011260Y025393D03*
X011310Y022843D03*
X009210Y028093D03*
D20*
X011260Y029893D03*
X011760Y028893D03*
X011660Y028493D03*
X012610Y030043D03*
X012260Y030893D03*
X009560Y031243D03*
X012360Y026543D03*
X012110Y025743D03*
X010810Y024893D03*
X009560Y023793D03*
X007660Y023293D03*
X006260Y022893D03*
X006260Y021893D03*
X006760Y024893D03*
X010160Y021393D03*
X009760Y020843D03*
X010410Y019093D03*
X009560Y018643D03*
X009360Y019043D03*
X009860Y017393D03*
X008610Y016693D03*
X010110Y015743D03*
X010270Y014743D03*
X009410Y014093D03*
X008660Y015243D03*
X010410Y013043D03*
X010060Y012843D03*
X009110Y012243D03*
X011960Y011993D03*
X012110Y012343D03*
X013160Y011493D03*
X012710Y011093D03*
X012510Y010283D03*
X013210Y010243D03*
X014360Y010543D03*
X012200Y008693D03*
X013960Y013093D03*
X015260Y013493D03*
X015760Y014093D03*
X017980Y013553D03*
X018360Y013753D03*
X018630Y012493D03*
X019160Y012023D03*
X019580Y011593D03*
X020770Y011653D03*
X021760Y010943D03*
X022410Y011393D03*
X022960Y011243D03*
X023160Y011643D03*
X024510Y009893D03*
X024010Y008143D03*
X020810Y010543D03*
X018860Y015943D03*
X018360Y015843D03*
X017260Y016243D03*
X016710Y016543D03*
X016310Y017193D03*
X015460Y017993D03*
X014660Y018493D03*
X014260Y018843D03*
X014310Y019293D03*
X013710Y020293D03*
X013260Y020693D03*
X013110Y021043D03*
X013860Y020843D03*
X013310Y021993D03*
X013360Y023393D03*
X012760Y023843D03*
X014510Y023193D03*
X015060Y023643D03*
X015710Y023143D03*
X016510Y023443D03*
X016060Y024043D03*
X016210Y024543D03*
X017260Y023793D03*
X017360Y022543D03*
X018710Y022043D03*
X017660Y020693D03*
X018410Y019893D03*
X016760Y019793D03*
X017392Y018111D03*
X019210Y018443D03*
X020260Y016893D03*
X021260Y017893D03*
X022360Y019893D03*
X024160Y021743D03*
X024960Y020693D03*
X025960Y022043D03*
X026760Y021793D03*
X027760Y021543D03*
X029260Y023393D03*
X027110Y023993D03*
X026460Y025643D03*
X025760Y027343D03*
X028260Y028393D03*
X030110Y028043D03*
X029110Y026293D03*
X028360Y025893D03*
X024910Y023443D03*
X024260Y023443D03*
X023210Y023143D03*
X022660Y023793D03*
X021910Y024943D03*
X020660Y023793D03*
X019410Y024543D03*
X018710Y024393D03*
X017910Y024993D03*
X017760Y025393D03*
X020210Y026293D03*
X021110Y027193D03*
X018860Y028043D03*
X015960Y027943D03*
X018260Y030893D03*
X011610Y022343D03*
X011760Y021893D03*
X011860Y020843D03*
X011910Y018843D03*
X012460Y017493D03*
X014860Y016493D03*
X012910Y015293D03*
X026960Y018393D03*
X029760Y020643D03*
X030760Y018393D03*
X033510Y027143D03*
X032210Y029893D03*
D21*
X023360Y027543D03*
X023360Y026093D03*
X018910Y025793D03*
X015260Y026793D03*
X014760Y026643D03*
X012910Y024543D03*
X009960Y026993D03*
X009110Y025943D03*
X004460Y023893D03*
X005760Y011893D03*
X005760Y010893D03*
X022160Y019243D03*
X030760Y016393D03*
D22*
X008260Y026393D03*
X005760Y025893D03*
M02*
