G75*
%MOIN*%
%OFA0B0*%
%FSLAX24Y24*%
%IPPOS*%
%LPD*%
%AMOC8*
5,1,8,0,0,1.08239X$1,22.5*
%
%ADD10C,0.0000*%
%ADD11C,0.0600*%
%ADD12R,0.0512X0.0591*%
%ADD13R,0.0430X0.0550*%
%ADD14R,0.0709X0.0433*%
%ADD15R,0.0768X0.0591*%
%ADD16R,0.0315X0.0276*%
%ADD17OC8,0.0600*%
%ADD18C,0.0160*%
%ADD19C,0.0337*%
%ADD20C,0.0080*%
%ADD21C,0.0290*%
%ADD22C,0.0120*%
%ADD23C,0.0100*%
%ADD24C,0.0376*%
%ADD25C,0.0416*%
D10*
X003760Y002393D02*
X003760Y033889D01*
X035780Y033889D01*
X035730Y002343D01*
X003760Y002393D01*
X013130Y003393D02*
X013132Y003443D01*
X013138Y003493D01*
X013148Y003542D01*
X013162Y003590D01*
X013179Y003637D01*
X013200Y003682D01*
X013225Y003726D01*
X013253Y003767D01*
X013285Y003806D01*
X013319Y003843D01*
X013356Y003877D01*
X013396Y003907D01*
X013438Y003934D01*
X013482Y003958D01*
X013528Y003979D01*
X013575Y003995D01*
X013623Y004008D01*
X013673Y004017D01*
X013722Y004022D01*
X013773Y004023D01*
X013823Y004020D01*
X013872Y004013D01*
X013921Y004002D01*
X013969Y003987D01*
X014015Y003969D01*
X014060Y003947D01*
X014103Y003921D01*
X014144Y003892D01*
X014183Y003860D01*
X014219Y003825D01*
X014251Y003787D01*
X014281Y003747D01*
X014308Y003704D01*
X014331Y003660D01*
X014350Y003614D01*
X014366Y003566D01*
X014378Y003517D01*
X014386Y003468D01*
X014390Y003418D01*
X014390Y003368D01*
X014386Y003318D01*
X014378Y003269D01*
X014366Y003220D01*
X014350Y003172D01*
X014331Y003126D01*
X014308Y003082D01*
X014281Y003039D01*
X014251Y002999D01*
X014219Y002961D01*
X014183Y002926D01*
X014144Y002894D01*
X014103Y002865D01*
X014060Y002839D01*
X014015Y002817D01*
X013969Y002799D01*
X013921Y002784D01*
X013872Y002773D01*
X013823Y002766D01*
X013773Y002763D01*
X013722Y002764D01*
X013673Y002769D01*
X013623Y002778D01*
X013575Y002791D01*
X013528Y002807D01*
X013482Y002828D01*
X013438Y002852D01*
X013396Y002879D01*
X013356Y002909D01*
X013319Y002943D01*
X013285Y002980D01*
X013253Y003019D01*
X013225Y003060D01*
X013200Y003104D01*
X013179Y003149D01*
X013162Y003196D01*
X013148Y003244D01*
X013138Y003293D01*
X013132Y003343D01*
X013130Y003393D01*
X025130Y003393D02*
X025132Y003443D01*
X025138Y003493D01*
X025148Y003542D01*
X025162Y003590D01*
X025179Y003637D01*
X025200Y003682D01*
X025225Y003726D01*
X025253Y003767D01*
X025285Y003806D01*
X025319Y003843D01*
X025356Y003877D01*
X025396Y003907D01*
X025438Y003934D01*
X025482Y003958D01*
X025528Y003979D01*
X025575Y003995D01*
X025623Y004008D01*
X025673Y004017D01*
X025722Y004022D01*
X025773Y004023D01*
X025823Y004020D01*
X025872Y004013D01*
X025921Y004002D01*
X025969Y003987D01*
X026015Y003969D01*
X026060Y003947D01*
X026103Y003921D01*
X026144Y003892D01*
X026183Y003860D01*
X026219Y003825D01*
X026251Y003787D01*
X026281Y003747D01*
X026308Y003704D01*
X026331Y003660D01*
X026350Y003614D01*
X026366Y003566D01*
X026378Y003517D01*
X026386Y003468D01*
X026390Y003418D01*
X026390Y003368D01*
X026386Y003318D01*
X026378Y003269D01*
X026366Y003220D01*
X026350Y003172D01*
X026331Y003126D01*
X026308Y003082D01*
X026281Y003039D01*
X026251Y002999D01*
X026219Y002961D01*
X026183Y002926D01*
X026144Y002894D01*
X026103Y002865D01*
X026060Y002839D01*
X026015Y002817D01*
X025969Y002799D01*
X025921Y002784D01*
X025872Y002773D01*
X025823Y002766D01*
X025773Y002763D01*
X025722Y002764D01*
X025673Y002769D01*
X025623Y002778D01*
X025575Y002791D01*
X025528Y002807D01*
X025482Y002828D01*
X025438Y002852D01*
X025396Y002879D01*
X025356Y002909D01*
X025319Y002943D01*
X025285Y002980D01*
X025253Y003019D01*
X025225Y003060D01*
X025200Y003104D01*
X025179Y003149D01*
X025162Y003196D01*
X025148Y003244D01*
X025138Y003293D01*
X025132Y003343D01*
X025130Y003393D01*
X025130Y032893D02*
X025132Y032943D01*
X025138Y032993D01*
X025148Y033042D01*
X025162Y033090D01*
X025179Y033137D01*
X025200Y033182D01*
X025225Y033226D01*
X025253Y033267D01*
X025285Y033306D01*
X025319Y033343D01*
X025356Y033377D01*
X025396Y033407D01*
X025438Y033434D01*
X025482Y033458D01*
X025528Y033479D01*
X025575Y033495D01*
X025623Y033508D01*
X025673Y033517D01*
X025722Y033522D01*
X025773Y033523D01*
X025823Y033520D01*
X025872Y033513D01*
X025921Y033502D01*
X025969Y033487D01*
X026015Y033469D01*
X026060Y033447D01*
X026103Y033421D01*
X026144Y033392D01*
X026183Y033360D01*
X026219Y033325D01*
X026251Y033287D01*
X026281Y033247D01*
X026308Y033204D01*
X026331Y033160D01*
X026350Y033114D01*
X026366Y033066D01*
X026378Y033017D01*
X026386Y032968D01*
X026390Y032918D01*
X026390Y032868D01*
X026386Y032818D01*
X026378Y032769D01*
X026366Y032720D01*
X026350Y032672D01*
X026331Y032626D01*
X026308Y032582D01*
X026281Y032539D01*
X026251Y032499D01*
X026219Y032461D01*
X026183Y032426D01*
X026144Y032394D01*
X026103Y032365D01*
X026060Y032339D01*
X026015Y032317D01*
X025969Y032299D01*
X025921Y032284D01*
X025872Y032273D01*
X025823Y032266D01*
X025773Y032263D01*
X025722Y032264D01*
X025673Y032269D01*
X025623Y032278D01*
X025575Y032291D01*
X025528Y032307D01*
X025482Y032328D01*
X025438Y032352D01*
X025396Y032379D01*
X025356Y032409D01*
X025319Y032443D01*
X025285Y032480D01*
X025253Y032519D01*
X025225Y032560D01*
X025200Y032604D01*
X025179Y032649D01*
X025162Y032696D01*
X025148Y032744D01*
X025138Y032793D01*
X025132Y032843D01*
X025130Y032893D01*
X013130Y032893D02*
X013132Y032943D01*
X013138Y032993D01*
X013148Y033042D01*
X013162Y033090D01*
X013179Y033137D01*
X013200Y033182D01*
X013225Y033226D01*
X013253Y033267D01*
X013285Y033306D01*
X013319Y033343D01*
X013356Y033377D01*
X013396Y033407D01*
X013438Y033434D01*
X013482Y033458D01*
X013528Y033479D01*
X013575Y033495D01*
X013623Y033508D01*
X013673Y033517D01*
X013722Y033522D01*
X013773Y033523D01*
X013823Y033520D01*
X013872Y033513D01*
X013921Y033502D01*
X013969Y033487D01*
X014015Y033469D01*
X014060Y033447D01*
X014103Y033421D01*
X014144Y033392D01*
X014183Y033360D01*
X014219Y033325D01*
X014251Y033287D01*
X014281Y033247D01*
X014308Y033204D01*
X014331Y033160D01*
X014350Y033114D01*
X014366Y033066D01*
X014378Y033017D01*
X014386Y032968D01*
X014390Y032918D01*
X014390Y032868D01*
X014386Y032818D01*
X014378Y032769D01*
X014366Y032720D01*
X014350Y032672D01*
X014331Y032626D01*
X014308Y032582D01*
X014281Y032539D01*
X014251Y032499D01*
X014219Y032461D01*
X014183Y032426D01*
X014144Y032394D01*
X014103Y032365D01*
X014060Y032339D01*
X014015Y032317D01*
X013969Y032299D01*
X013921Y032284D01*
X013872Y032273D01*
X013823Y032266D01*
X013773Y032263D01*
X013722Y032264D01*
X013673Y032269D01*
X013623Y032278D01*
X013575Y032291D01*
X013528Y032307D01*
X013482Y032328D01*
X013438Y032352D01*
X013396Y032379D01*
X013356Y032409D01*
X013319Y032443D01*
X013285Y032480D01*
X013253Y032519D01*
X013225Y032560D01*
X013200Y032604D01*
X013179Y032649D01*
X013162Y032696D01*
X013148Y032744D01*
X013138Y032793D01*
X013132Y032843D01*
X013130Y032893D01*
D11*
X014260Y029693D02*
X014260Y029093D01*
X015260Y029093D02*
X015260Y029693D01*
X016260Y029693D02*
X016260Y029093D01*
X017260Y029093D02*
X017260Y029693D01*
X020760Y029693D02*
X020760Y029093D01*
X021760Y029093D02*
X021760Y029693D01*
X022760Y029693D02*
X022760Y029093D01*
X023760Y029093D02*
X023760Y029693D01*
X024760Y029693D02*
X024760Y029093D01*
X025760Y029093D02*
X025760Y029693D01*
X026760Y029693D02*
X026760Y029093D01*
X027760Y029093D02*
X027760Y029693D01*
X028760Y029693D02*
X028760Y029093D01*
X029760Y029093D02*
X029760Y029693D01*
X031910Y026893D02*
X032510Y026893D01*
X032510Y025893D02*
X031910Y025893D01*
X031910Y024893D02*
X032510Y024893D01*
X032510Y023893D02*
X031910Y023893D01*
X031960Y018893D02*
X032560Y018893D01*
X032560Y017893D02*
X031960Y017893D01*
X031960Y016893D02*
X032560Y016893D01*
X032560Y015893D02*
X031960Y015893D01*
X031960Y012393D02*
X032560Y012393D01*
X032560Y011393D02*
X031960Y011393D01*
X031960Y010393D02*
X032560Y010393D01*
X032560Y009393D02*
X031960Y009393D01*
X031960Y008393D02*
X032560Y008393D01*
X027940Y006733D02*
X027340Y006733D01*
X027340Y004953D02*
X027940Y004953D01*
X025380Y004953D02*
X024780Y004953D01*
X024780Y006733D02*
X025380Y006733D01*
X013760Y005443D02*
X013760Y004843D01*
X012760Y004843D02*
X012760Y005443D01*
X009260Y005693D02*
X009260Y005093D01*
X008260Y005093D02*
X008260Y005693D01*
X007260Y005693D02*
X007260Y005093D01*
X006260Y005093D02*
X006260Y005693D01*
X007060Y011393D02*
X007660Y011393D01*
X007660Y012393D02*
X007060Y012393D01*
X006960Y016393D02*
X007560Y016393D01*
X007560Y017393D02*
X006960Y017393D01*
X006960Y018393D02*
X007560Y018393D01*
X007560Y019393D02*
X006960Y019393D01*
X007260Y029093D02*
X007260Y029693D01*
X008260Y029693D02*
X008260Y029093D01*
X009260Y029093D02*
X009260Y029693D01*
X010260Y029693D02*
X010260Y029093D01*
D12*
G36*
X013913Y017631D02*
X013551Y017269D01*
X013135Y017685D01*
X013497Y018047D01*
X013913Y017631D01*
G37*
G36*
X013384Y017102D02*
X013022Y016740D01*
X012606Y017156D01*
X012968Y017518D01*
X013384Y017102D01*
G37*
G36*
X011522Y016047D02*
X011884Y015685D01*
X011468Y015269D01*
X011106Y015631D01*
X011522Y016047D01*
G37*
G36*
X012051Y015518D02*
X012413Y015156D01*
X011997Y014740D01*
X011635Y015102D01*
X012051Y015518D01*
G37*
G36*
X012968Y013769D02*
X012606Y014131D01*
X013022Y014547D01*
X013384Y014185D01*
X012968Y013769D01*
G37*
G36*
X013497Y013240D02*
X013135Y013602D01*
X013551Y014018D01*
X013913Y013656D01*
X013497Y013240D01*
G37*
G36*
X014356Y014006D02*
X014718Y014368D01*
X015134Y013952D01*
X014772Y013590D01*
X014356Y014006D01*
G37*
G36*
X014885Y014535D02*
X015247Y014897D01*
X015663Y014481D01*
X015301Y014119D01*
X014885Y014535D01*
G37*
G36*
X016106Y015156D02*
X016468Y015518D01*
X016884Y015102D01*
X016522Y014740D01*
X016106Y015156D01*
G37*
G36*
X016635Y015685D02*
X016997Y016047D01*
X017413Y015631D01*
X017051Y015269D01*
X016635Y015685D01*
G37*
D13*
G36*
X016163Y016928D02*
X016467Y016624D01*
X016079Y016236D01*
X015775Y016540D01*
X016163Y016928D01*
G37*
G36*
X015640Y017451D02*
X015944Y017147D01*
X015556Y016759D01*
X015252Y017063D01*
X015640Y017451D01*
G37*
D14*
X019760Y016263D03*
X019760Y015523D03*
D15*
G36*
X018654Y017631D02*
X018112Y018173D01*
X018530Y018591D01*
X019072Y018049D01*
X018654Y017631D01*
G37*
G36*
X017889Y018396D02*
X017347Y018938D01*
X017765Y019356D01*
X018307Y018814D01*
X017889Y018396D01*
G37*
D16*
G36*
X019079Y017768D02*
X019300Y017547D01*
X019105Y017352D01*
X018884Y017573D01*
X019079Y017768D01*
G37*
G36*
X019414Y017434D02*
X019635Y017213D01*
X019440Y017018D01*
X019219Y017239D01*
X019414Y017434D01*
G37*
D17*
X031760Y020893D03*
X032760Y020893D03*
X032760Y021893D03*
X031760Y021893D03*
X020810Y005693D03*
X020810Y004693D03*
X019810Y004693D03*
X019810Y005693D03*
X018810Y005693D03*
X017810Y005693D03*
X017810Y004693D03*
X018810Y004693D03*
X016810Y004693D03*
X016810Y005693D03*
D18*
X017270Y005722D02*
X017350Y005722D01*
X017350Y005880D02*
X017270Y005880D01*
X017270Y005884D02*
X017020Y006134D01*
X017020Y011770D01*
X018050Y012800D01*
X018050Y012680D01*
X017723Y012353D01*
X017600Y012230D01*
X017600Y006134D01*
X017350Y005884D01*
X017350Y005503D01*
X017619Y005233D01*
X018000Y005233D01*
X018270Y005503D01*
X018270Y005884D01*
X018020Y006134D01*
X018020Y012056D01*
X018345Y012382D01*
X018371Y012321D01*
X018420Y012272D01*
X018420Y006486D01*
X018543Y006363D01*
X018600Y006306D01*
X018600Y006134D01*
X018350Y005884D01*
X018350Y005503D01*
X018619Y005233D01*
X019000Y005233D01*
X019270Y005503D01*
X019270Y005884D01*
X019020Y006134D01*
X019020Y006480D01*
X018896Y006603D01*
X018840Y006660D01*
X018840Y012272D01*
X018888Y012321D01*
X018935Y012433D01*
X018935Y012554D01*
X018888Y012666D01*
X018802Y012752D01*
X018690Y012798D01*
X018569Y012798D01*
X018470Y012757D01*
X018470Y013240D01*
X018472Y013243D01*
X018590Y013360D01*
X018590Y013552D01*
X018618Y013581D01*
X018665Y013693D01*
X018665Y013814D01*
X018618Y013926D01*
X018532Y014012D01*
X018420Y014058D01*
X018299Y014058D01*
X018187Y014012D01*
X018101Y013926D01*
X018068Y013847D01*
X018040Y013858D01*
X017919Y013858D01*
X017807Y013812D01*
X017721Y013726D01*
X017675Y013614D01*
X017675Y013493D01*
X017721Y013381D01*
X017780Y013322D01*
X017780Y013096D01*
X016737Y012053D01*
X016723Y012053D01*
X016600Y011930D01*
X016600Y006134D01*
X016350Y005884D01*
X016350Y005503D01*
X016619Y005233D01*
X017000Y005233D01*
X017270Y005503D01*
X017270Y005884D01*
X017115Y006039D02*
X017504Y006039D01*
X017600Y006197D02*
X017020Y006197D01*
X017020Y006356D02*
X017600Y006356D01*
X017600Y006514D02*
X017020Y006514D01*
X017020Y006673D02*
X017600Y006673D01*
X017600Y006831D02*
X017020Y006831D01*
X017020Y006990D02*
X017600Y006990D01*
X017600Y007148D02*
X017020Y007148D01*
X017020Y007307D02*
X017600Y007307D01*
X017600Y007465D02*
X017020Y007465D01*
X017020Y007624D02*
X017600Y007624D01*
X017600Y007782D02*
X017020Y007782D01*
X017020Y007941D02*
X017600Y007941D01*
X017600Y008099D02*
X017020Y008099D01*
X017020Y008258D02*
X017600Y008258D01*
X017600Y008416D02*
X017020Y008416D01*
X017020Y008575D02*
X017600Y008575D01*
X017600Y008733D02*
X017020Y008733D01*
X017020Y008892D02*
X017600Y008892D01*
X017600Y009050D02*
X017020Y009050D01*
X017020Y009209D02*
X017600Y009209D01*
X017600Y009367D02*
X017020Y009367D01*
X017020Y009526D02*
X017600Y009526D01*
X017600Y009684D02*
X017020Y009684D01*
X017020Y009843D02*
X017600Y009843D01*
X017600Y010001D02*
X017020Y010001D01*
X017020Y010160D02*
X017600Y010160D01*
X017600Y010318D02*
X017020Y010318D01*
X017020Y010477D02*
X017600Y010477D01*
X017600Y010635D02*
X017020Y010635D01*
X017020Y010794D02*
X017600Y010794D01*
X017600Y010952D02*
X017020Y010952D01*
X017020Y011111D02*
X017600Y011111D01*
X017600Y011269D02*
X017020Y011269D01*
X017020Y011428D02*
X017600Y011428D01*
X017600Y011586D02*
X017020Y011586D01*
X017020Y011745D02*
X017600Y011745D01*
X017600Y011903D02*
X017152Y011903D01*
X017311Y012062D02*
X017600Y012062D01*
X017600Y012220D02*
X017469Y012220D01*
X017628Y012379D02*
X017748Y012379D01*
X017786Y012537D02*
X017907Y012537D01*
X017945Y012696D02*
X018050Y012696D01*
X018342Y012379D02*
X018347Y012379D01*
X018420Y012220D02*
X018184Y012220D01*
X018025Y012062D02*
X018420Y012062D01*
X018420Y011903D02*
X018020Y011903D01*
X018020Y011745D02*
X018420Y011745D01*
X018420Y011586D02*
X018020Y011586D01*
X018020Y011428D02*
X018420Y011428D01*
X018420Y011269D02*
X018020Y011269D01*
X018020Y011111D02*
X018420Y011111D01*
X018420Y010952D02*
X018020Y010952D01*
X018020Y010794D02*
X018420Y010794D01*
X018420Y010635D02*
X018020Y010635D01*
X018020Y010477D02*
X018420Y010477D01*
X018420Y010318D02*
X018020Y010318D01*
X018020Y010160D02*
X018420Y010160D01*
X018420Y010001D02*
X018020Y010001D01*
X018020Y009843D02*
X018420Y009843D01*
X018420Y009684D02*
X018020Y009684D01*
X018020Y009526D02*
X018420Y009526D01*
X018420Y009367D02*
X018020Y009367D01*
X018020Y009209D02*
X018420Y009209D01*
X018420Y009050D02*
X018020Y009050D01*
X018020Y008892D02*
X018420Y008892D01*
X018420Y008733D02*
X018020Y008733D01*
X018020Y008575D02*
X018420Y008575D01*
X018420Y008416D02*
X018020Y008416D01*
X018020Y008258D02*
X018420Y008258D01*
X018420Y008099D02*
X018020Y008099D01*
X018020Y007941D02*
X018420Y007941D01*
X018420Y007782D02*
X018020Y007782D01*
X018020Y007624D02*
X018420Y007624D01*
X018420Y007465D02*
X018020Y007465D01*
X018020Y007307D02*
X018420Y007307D01*
X018420Y007148D02*
X018020Y007148D01*
X018020Y006990D02*
X018420Y006990D01*
X018420Y006831D02*
X018020Y006831D01*
X018020Y006673D02*
X018420Y006673D01*
X018420Y006514D02*
X018020Y006514D01*
X018020Y006356D02*
X018550Y006356D01*
X018543Y006363D02*
X018543Y006363D01*
X018600Y006197D02*
X018020Y006197D01*
X018115Y006039D02*
X018504Y006039D01*
X018350Y005880D02*
X018270Y005880D01*
X018270Y005722D02*
X018350Y005722D01*
X018350Y005563D02*
X018270Y005563D01*
X018172Y005405D02*
X018447Y005405D01*
X018606Y005246D02*
X018013Y005246D01*
X018008Y005173D02*
X017830Y005173D01*
X017830Y004713D01*
X018290Y004713D01*
X018290Y004892D01*
X018008Y005173D01*
X018094Y005088D02*
X018525Y005088D01*
X018611Y005173D02*
X018330Y004892D01*
X018330Y004713D01*
X018790Y004713D01*
X018790Y005173D01*
X018611Y005173D01*
X018790Y005088D02*
X018830Y005088D01*
X018830Y005173D02*
X018830Y004713D01*
X019290Y004713D01*
X019290Y004892D01*
X019008Y005173D01*
X018830Y005173D01*
X019013Y005246D02*
X019606Y005246D01*
X019619Y005233D02*
X020000Y005233D01*
X020270Y005503D01*
X020270Y005884D01*
X020000Y006153D01*
X019996Y006153D01*
X019896Y006253D01*
X019470Y006680D01*
X019470Y011309D01*
X019519Y011288D01*
X019640Y011288D01*
X019752Y011335D01*
X019762Y011344D01*
X020050Y011056D01*
X020050Y006906D01*
X020600Y006356D01*
X019794Y006356D01*
X019635Y006514D02*
X020442Y006514D01*
X020600Y006356D02*
X020600Y006134D01*
X020350Y005884D01*
X020350Y005503D01*
X020619Y005233D01*
X021000Y005233D01*
X021270Y005503D01*
X021270Y005884D01*
X021020Y006134D01*
X021020Y006530D01*
X020896Y006653D01*
X020470Y007080D01*
X020470Y011230D01*
X020346Y011353D01*
X019896Y011803D01*
X019801Y011803D01*
X019752Y011852D01*
X019640Y011898D01*
X019519Y011898D01*
X019470Y011878D01*
X019470Y012010D01*
X019465Y012015D01*
X019465Y012084D01*
X019418Y012196D01*
X019332Y012282D01*
X019220Y012328D01*
X019099Y012328D01*
X018987Y012282D01*
X018901Y012196D01*
X018855Y012084D01*
X018855Y011963D01*
X018901Y011851D01*
X018987Y011765D01*
X019050Y011739D01*
X019050Y006506D01*
X019511Y006045D01*
X019350Y005884D01*
X019350Y005503D01*
X019619Y005233D01*
X019611Y005173D02*
X019330Y004892D01*
X019330Y004713D01*
X019790Y004713D01*
X019790Y005173D01*
X019611Y005173D01*
X019525Y005088D02*
X019094Y005088D01*
X019252Y004929D02*
X019367Y004929D01*
X019330Y004771D02*
X019290Y004771D01*
X019290Y004673D02*
X018830Y004673D01*
X018830Y004713D01*
X018790Y004713D01*
X018790Y004673D01*
X018830Y004673D01*
X018830Y004213D01*
X019008Y004213D01*
X019290Y004494D01*
X019290Y004673D01*
X019330Y004673D02*
X019330Y004494D01*
X019611Y004213D01*
X019790Y004213D01*
X019790Y004673D01*
X019830Y004673D01*
X019830Y004713D01*
X020290Y004713D01*
X020290Y004892D01*
X020008Y005173D01*
X019830Y005173D01*
X019830Y004713D01*
X019790Y004713D01*
X019790Y004673D01*
X019330Y004673D01*
X019330Y004612D02*
X019290Y004612D01*
X019249Y004454D02*
X019370Y004454D01*
X019529Y004295D02*
X019090Y004295D01*
X018830Y004295D02*
X018790Y004295D01*
X018790Y004213D02*
X018790Y004673D01*
X018330Y004673D01*
X018330Y004494D01*
X018611Y004213D01*
X018790Y004213D01*
X018790Y004454D02*
X018830Y004454D01*
X018830Y004612D02*
X018790Y004612D01*
X018790Y004771D02*
X018830Y004771D01*
X018830Y004929D02*
X018790Y004929D01*
X018367Y004929D02*
X018252Y004929D01*
X018290Y004771D02*
X018330Y004771D01*
X018290Y004673D02*
X017830Y004673D01*
X017830Y004713D01*
X017790Y004713D01*
X017790Y005173D01*
X017611Y005173D01*
X017330Y004892D01*
X017330Y004713D01*
X017790Y004713D01*
X017790Y004673D01*
X017830Y004673D01*
X017830Y004213D01*
X018008Y004213D01*
X018290Y004494D01*
X018290Y004673D01*
X018290Y004612D02*
X018330Y004612D01*
X018370Y004454D02*
X018249Y004454D01*
X018090Y004295D02*
X018529Y004295D01*
X017830Y004295D02*
X017790Y004295D01*
X017790Y004213D02*
X017790Y004673D01*
X017330Y004673D01*
X017330Y004494D01*
X017611Y004213D01*
X017790Y004213D01*
X017790Y004454D02*
X017830Y004454D01*
X017830Y004612D02*
X017790Y004612D01*
X017790Y004771D02*
X017830Y004771D01*
X017830Y004929D02*
X017790Y004929D01*
X017790Y005088D02*
X017830Y005088D01*
X017606Y005246D02*
X017013Y005246D01*
X017000Y005153D02*
X016619Y005153D01*
X016350Y004884D01*
X016350Y004503D01*
X016619Y004233D01*
X017000Y004233D01*
X017270Y004503D01*
X017270Y004884D01*
X017000Y005153D01*
X017066Y005088D02*
X017525Y005088D01*
X017367Y004929D02*
X017224Y004929D01*
X017270Y004771D02*
X017330Y004771D01*
X017330Y004612D02*
X017270Y004612D01*
X017221Y004454D02*
X017370Y004454D01*
X017529Y004295D02*
X017062Y004295D01*
X016557Y004295D02*
X003990Y004295D01*
X003990Y004137D02*
X013307Y004137D01*
X013272Y004122D02*
X013031Y003880D01*
X012900Y003564D01*
X012900Y003222D01*
X013031Y002906D01*
X013272Y002664D01*
X013408Y002608D01*
X003990Y002623D01*
X003990Y032393D01*
X013043Y032393D01*
X013272Y032164D01*
X013588Y032033D01*
X013931Y032033D01*
X014247Y032164D01*
X014476Y032393D01*
X025043Y032393D01*
X025272Y032164D01*
X025588Y032033D01*
X025931Y032033D01*
X026247Y032164D01*
X026476Y032393D01*
X035547Y032393D01*
X035500Y002574D01*
X026063Y002588D01*
X026247Y002664D01*
X026489Y002906D01*
X026619Y003222D01*
X026619Y003564D01*
X026489Y003880D01*
X026247Y004122D01*
X025931Y004253D01*
X025588Y004253D01*
X025272Y004122D01*
X025031Y003880D01*
X024900Y003564D01*
X024900Y003222D01*
X025031Y002906D01*
X025272Y002664D01*
X025453Y002589D01*
X014109Y002607D01*
X014247Y002664D01*
X014489Y002906D01*
X014619Y003222D01*
X014619Y003564D01*
X014489Y003880D01*
X014247Y004122D01*
X013931Y004253D01*
X013588Y004253D01*
X013272Y004122D01*
X013128Y003978D02*
X003990Y003978D01*
X003990Y003820D02*
X013005Y003820D01*
X012940Y003661D02*
X003990Y003661D01*
X003990Y003503D02*
X012900Y003503D01*
X012900Y003344D02*
X003990Y003344D01*
X003990Y003186D02*
X012915Y003186D01*
X012980Y003027D02*
X003990Y003027D01*
X003990Y002869D02*
X013068Y002869D01*
X013226Y002710D02*
X003990Y002710D01*
X003990Y004454D02*
X012498Y004454D01*
X012499Y004453D02*
X012668Y004383D01*
X012851Y004383D01*
X013020Y004453D01*
X013149Y004583D01*
X013220Y004752D01*
X013220Y005535D01*
X013149Y005704D01*
X013020Y005833D01*
X012970Y005854D01*
X012970Y008030D01*
X012520Y008480D01*
X012464Y008536D01*
X012505Y008633D01*
X012505Y008754D01*
X012458Y008866D01*
X012410Y008915D01*
X012410Y009886D01*
X012501Y009978D01*
X012570Y009978D01*
X012682Y010025D01*
X012768Y010111D01*
X012815Y010223D01*
X012815Y010341D01*
X012905Y010251D01*
X012905Y010183D01*
X012951Y010071D01*
X013037Y009985D01*
X013149Y009938D01*
X013270Y009938D01*
X013382Y009985D01*
X013468Y010071D01*
X013502Y010153D01*
X014981Y008675D01*
X014981Y008578D01*
X015031Y008457D01*
X015123Y008365D01*
X015244Y008315D01*
X015375Y008315D01*
X015496Y008365D01*
X015588Y008457D01*
X015638Y008578D01*
X015638Y008709D01*
X015588Y008829D01*
X015496Y008922D01*
X015375Y008972D01*
X015278Y008972D01*
X013070Y011180D01*
X013035Y011215D01*
X013099Y011188D01*
X013182Y011188D01*
X013886Y010484D01*
X013886Y010484D01*
X013941Y010429D01*
X013984Y010386D01*
X014003Y010367D01*
X014030Y010367D01*
X014041Y010363D01*
X014060Y010343D01*
X014128Y010343D01*
X014187Y010285D01*
X014299Y010238D01*
X014420Y010238D01*
X014532Y010285D01*
X014618Y010371D01*
X014665Y010483D01*
X014665Y010604D01*
X014618Y010716D01*
X014532Y010802D01*
X014420Y010848D01*
X014299Y010848D01*
X014187Y010802D01*
X014160Y010775D01*
X013465Y011471D01*
X013465Y011554D01*
X013418Y011666D01*
X013332Y011752D01*
X013220Y011798D01*
X013099Y011798D01*
X012987Y011752D01*
X012901Y011666D01*
X012855Y011554D01*
X012855Y011433D01*
X012892Y011342D01*
X012882Y011352D01*
X012770Y011398D01*
X012649Y011398D01*
X012537Y011352D01*
X012451Y011266D01*
X012405Y011154D01*
X012405Y011033D01*
X012431Y010969D01*
X011620Y011780D01*
X011620Y012036D01*
X011655Y012001D01*
X011655Y011933D01*
X011701Y011821D01*
X011787Y011735D01*
X011899Y011688D01*
X012020Y011688D01*
X012132Y011735D01*
X012218Y011821D01*
X012265Y011933D01*
X012265Y012054D01*
X012256Y012074D01*
X012282Y012085D01*
X012368Y012171D01*
X012415Y012283D01*
X012415Y012404D01*
X012368Y012516D01*
X012282Y012602D01*
X012170Y012648D01*
X012101Y012648D01*
X010311Y014438D01*
X010330Y014438D01*
X010442Y014485D01*
X010528Y014571D01*
X010575Y014683D01*
X010575Y014804D01*
X010528Y014916D01*
X010442Y015002D01*
X010330Y015048D01*
X010247Y015048D01*
X009910Y015386D01*
X009910Y015512D01*
X009937Y015485D01*
X010049Y015438D01*
X010170Y015438D01*
X010282Y015485D01*
X010341Y015543D01*
X010727Y015543D01*
X011310Y014960D01*
X011427Y014843D01*
X011666Y014843D01*
X011930Y014579D01*
X012062Y014579D01*
X012574Y015090D01*
X012574Y015223D01*
X012451Y015346D01*
X012909Y015926D01*
X012960Y015976D01*
X012960Y015990D01*
X012968Y016000D01*
X012960Y016071D01*
X012960Y016579D01*
X013089Y016579D01*
X013176Y016665D01*
X013548Y016293D01*
X014628Y016293D01*
X014687Y016235D01*
X014799Y016188D01*
X014920Y016188D01*
X015032Y016235D01*
X015118Y016321D01*
X015165Y016433D01*
X015165Y016554D01*
X015118Y016666D01*
X015032Y016752D01*
X014920Y016798D01*
X014799Y016798D01*
X014687Y016752D01*
X014628Y016693D01*
X013713Y016693D01*
X013458Y016948D01*
X013545Y017035D01*
X013545Y017088D01*
X013576Y017088D01*
X013621Y017100D01*
X013662Y017124D01*
X013826Y017288D01*
X013524Y017590D01*
X013592Y017658D01*
X013524Y017726D01*
X013798Y018000D01*
X013607Y018192D01*
X013566Y018215D01*
X013520Y018228D01*
X013472Y018228D01*
X013427Y018215D01*
X013386Y018192D01*
X013222Y018028D01*
X013524Y017726D01*
X013456Y017658D01*
X013154Y017960D01*
X012990Y017796D01*
X012967Y017755D01*
X012954Y017709D01*
X012954Y017679D01*
X012901Y017679D01*
X012445Y017223D01*
X012445Y017090D01*
X012560Y016976D01*
X012560Y016976D01*
X012560Y016129D01*
X012166Y015631D01*
X012118Y015679D01*
X012065Y015679D01*
X012065Y015709D01*
X012053Y015755D01*
X012029Y015796D01*
X011865Y015960D01*
X011563Y015658D01*
X011495Y015726D01*
X011427Y015658D01*
X011153Y015932D01*
X011028Y015807D01*
X010892Y015943D01*
X010341Y015943D01*
X010282Y016002D01*
X010170Y016048D01*
X010049Y016048D01*
X009937Y016002D01*
X009910Y015975D01*
X009910Y016660D01*
X011805Y018556D01*
X011849Y018538D01*
X011970Y018538D01*
X012082Y018585D01*
X012168Y018671D01*
X012215Y018783D01*
X012215Y018904D01*
X012168Y019016D01*
X012082Y019102D01*
X011970Y019148D01*
X011926Y019148D01*
X012551Y019773D01*
X012560Y019782D01*
X012560Y019460D01*
X012677Y019343D01*
X012927Y019093D01*
X014078Y019093D01*
X014001Y019016D01*
X013955Y018904D01*
X013955Y018783D01*
X014001Y018671D01*
X014087Y018585D01*
X014199Y018538D01*
X014320Y018538D01*
X014355Y018553D01*
X014355Y018433D01*
X014401Y018321D01*
X014487Y018235D01*
X014599Y018188D01*
X014720Y018188D01*
X014832Y018235D01*
X014891Y018293D01*
X015387Y018293D01*
X015287Y018252D01*
X015201Y018166D01*
X015155Y018054D01*
X015155Y017933D01*
X015201Y017821D01*
X015287Y017735D01*
X015399Y017688D01*
X015520Y017688D01*
X015632Y017735D01*
X015718Y017821D01*
X015765Y017933D01*
X015765Y017943D01*
X016027Y017943D01*
X016377Y017593D01*
X017666Y017593D01*
X017631Y017509D01*
X017631Y017378D01*
X017681Y017257D01*
X017773Y017165D01*
X017894Y017115D01*
X018005Y017115D01*
X018872Y016248D01*
X018837Y016248D01*
X018342Y016743D01*
X016941Y016743D01*
X016882Y016802D01*
X016770Y016848D01*
X016649Y016848D01*
X016537Y016802D01*
X016526Y016792D01*
X016510Y016808D01*
X016510Y016962D01*
X016568Y017021D01*
X016615Y017133D01*
X016615Y017254D01*
X016568Y017366D01*
X016482Y017452D01*
X016370Y017498D01*
X016249Y017498D01*
X016137Y017452D01*
X016051Y017366D01*
X016030Y017316D01*
X015939Y017407D01*
X015637Y017105D01*
X015598Y017144D01*
X015900Y017446D01*
X015751Y017595D01*
X015710Y017619D01*
X015664Y017631D01*
X015617Y017631D01*
X015571Y017619D01*
X015530Y017595D01*
X015338Y017404D01*
X015598Y017144D01*
X015559Y017105D01*
X015299Y017365D01*
X015107Y017173D01*
X015084Y017132D01*
X015071Y017086D01*
X015071Y017039D01*
X015084Y016993D01*
X015107Y016952D01*
X015257Y016803D01*
X015559Y017105D01*
X015598Y017066D01*
X015296Y016764D01*
X015445Y016614D01*
X015486Y016591D01*
X015532Y016578D01*
X015579Y016578D01*
X015615Y016588D01*
X015615Y016473D01*
X016012Y016075D01*
X016145Y016075D01*
X016245Y016176D01*
X016581Y015859D01*
X016474Y015752D01*
X016474Y015699D01*
X016444Y015699D01*
X016398Y015686D01*
X016357Y015663D01*
X016193Y015499D01*
X016495Y015197D01*
X016427Y015129D01*
X016125Y015431D01*
X015961Y015267D01*
X015938Y015226D01*
X015925Y015180D01*
X015925Y015133D01*
X015938Y015087D01*
X015961Y015046D01*
X016153Y014855D01*
X016427Y015129D01*
X016495Y015061D01*
X016221Y014787D01*
X016412Y014595D01*
X016453Y014571D01*
X016499Y014559D01*
X016547Y014559D01*
X016592Y014571D01*
X016633Y014595D01*
X016797Y014759D01*
X016495Y015061D01*
X016563Y015129D01*
X016865Y014827D01*
X017029Y014990D01*
X017053Y015032D01*
X017065Y015077D01*
X017065Y015108D01*
X017118Y015108D01*
X017468Y015458D01*
X017912Y015458D01*
X018060Y015310D01*
X018177Y015193D01*
X019292Y015193D01*
X019339Y015147D01*
X020180Y015147D01*
X020274Y015240D01*
X020274Y015806D01*
X020187Y015893D01*
X020274Y015980D01*
X020274Y016546D01*
X020232Y016588D01*
X020320Y016588D01*
X020432Y016635D01*
X020518Y016721D01*
X020550Y016796D01*
X020550Y015306D01*
X020560Y015296D01*
X020560Y011875D01*
X020511Y011826D01*
X020465Y011714D01*
X020465Y011593D01*
X020511Y011481D01*
X020597Y011395D01*
X020709Y011348D01*
X020830Y011348D01*
X020942Y011395D01*
X021028Y011481D01*
X021040Y011508D01*
X021040Y011056D01*
X020832Y010848D01*
X020749Y010848D01*
X020637Y010802D01*
X020551Y010716D01*
X020505Y010604D01*
X020505Y010483D01*
X020551Y010371D01*
X020637Y010285D01*
X020749Y010238D01*
X020870Y010238D01*
X020982Y010285D01*
X021068Y010371D01*
X021115Y010483D01*
X021115Y010565D01*
X021319Y010770D01*
X021348Y010799D01*
X021436Y010887D01*
X021436Y010909D01*
X021455Y010927D01*
X021455Y010883D01*
X021501Y010771D01*
X021587Y010685D01*
X021699Y010638D01*
X021820Y010638D01*
X021932Y010685D01*
X022018Y010771D01*
X022065Y010883D01*
X022065Y010937D01*
X022101Y010973D01*
X022210Y011082D01*
X022210Y009260D01*
X022950Y008520D01*
X022950Y008506D01*
X023073Y008383D01*
X023818Y008383D01*
X023751Y008316D01*
X023705Y008204D01*
X023705Y008083D01*
X023751Y007971D01*
X023837Y007885D01*
X023949Y007838D01*
X024070Y007838D01*
X024182Y007885D01*
X024241Y007943D01*
X030727Y007943D01*
X031010Y007660D01*
X031127Y007543D01*
X032992Y007543D01*
X033442Y007993D01*
X033560Y008110D01*
X033560Y012026D01*
X033010Y012576D01*
X032962Y012624D01*
X032949Y012654D01*
X032820Y012783D01*
X032651Y012853D01*
X031868Y012853D01*
X031699Y012783D01*
X031570Y012654D01*
X031500Y012485D01*
X031500Y012302D01*
X031570Y012133D01*
X031699Y012003D01*
X031868Y011933D01*
X032651Y011933D01*
X032820Y012003D01*
X032918Y012102D01*
X033160Y011860D01*
X033160Y008276D01*
X032827Y007943D01*
X032675Y007943D01*
X032820Y008003D01*
X032949Y008133D01*
X033020Y008302D01*
X033020Y008485D01*
X032949Y008654D01*
X032820Y008783D01*
X032651Y008853D01*
X031868Y008853D01*
X031747Y008803D01*
X023232Y008803D01*
X022610Y009426D01*
X022610Y011162D01*
X022655Y011207D01*
X022655Y011183D01*
X022701Y011071D01*
X022750Y011022D01*
X022750Y009506D01*
X023150Y009106D01*
X023273Y008983D01*
X031747Y008983D01*
X031868Y008933D01*
X032651Y008933D01*
X032820Y009003D01*
X032949Y009133D01*
X033020Y009302D01*
X033020Y009485D01*
X032949Y009654D01*
X032820Y009783D01*
X032651Y009853D01*
X031868Y009853D01*
X031699Y009783D01*
X031570Y009654D01*
X031500Y009485D01*
X031500Y009403D01*
X031316Y009403D01*
X031370Y009456D01*
X031853Y009940D01*
X031868Y009933D01*
X032651Y009933D01*
X032820Y010003D01*
X032949Y010133D01*
X033020Y010302D01*
X033020Y010485D01*
X032949Y010654D01*
X032820Y010783D01*
X032651Y010853D01*
X031868Y010853D01*
X031699Y010783D01*
X031570Y010654D01*
X031500Y010485D01*
X031500Y010302D01*
X031535Y010216D01*
X031073Y009753D01*
X026131Y009753D01*
X026451Y010073D01*
X026580Y010202D01*
X026580Y010999D01*
X026638Y011057D01*
X026688Y011178D01*
X026688Y011309D01*
X026638Y011429D01*
X026546Y011522D01*
X026425Y011572D01*
X026294Y011572D01*
X026173Y011522D01*
X026081Y011429D01*
X026031Y011309D01*
X026031Y011178D01*
X026081Y011057D01*
X026140Y010999D01*
X026140Y010384D01*
X025868Y010113D01*
X024721Y010113D01*
X024682Y010152D01*
X024570Y010198D01*
X024449Y010198D01*
X024337Y010152D01*
X024251Y010066D01*
X024205Y009954D01*
X024205Y009833D01*
X024237Y009753D01*
X023746Y009753D01*
X023670Y009830D01*
X023670Y011430D01*
X023546Y011553D01*
X023465Y011635D01*
X023465Y011704D01*
X023418Y011816D01*
X023332Y011902D01*
X023220Y011948D01*
X023099Y011948D01*
X022987Y011902D01*
X022901Y011816D01*
X022855Y011704D01*
X022855Y011583D01*
X022873Y011538D01*
X022787Y011502D01*
X022715Y011430D01*
X022715Y011454D01*
X022668Y011566D01*
X022582Y011652D01*
X022470Y011698D01*
X022349Y011698D01*
X022237Y011652D01*
X022230Y011645D01*
X022230Y018134D01*
X022101Y018263D01*
X021601Y018763D01*
X020851Y018763D01*
X020430Y019184D01*
X020430Y023592D01*
X020487Y023535D01*
X020599Y023488D01*
X020720Y023488D01*
X020832Y023535D01*
X020918Y023621D01*
X020965Y023733D01*
X020965Y023801D01*
X021220Y024056D01*
X021220Y026909D01*
X021282Y026935D01*
X021368Y027021D01*
X021415Y027133D01*
X021415Y027254D01*
X021368Y027366D01*
X021282Y027452D01*
X021170Y027498D01*
X021049Y027498D01*
X020937Y027452D01*
X020851Y027366D01*
X020805Y027254D01*
X020805Y027135D01*
X020800Y027130D01*
X020800Y024230D01*
X020668Y024098D01*
X020599Y024098D01*
X020487Y024052D01*
X020430Y023995D01*
X020430Y026082D01*
X020468Y026121D01*
X020515Y026233D01*
X020515Y026354D01*
X020468Y026466D01*
X020382Y026552D01*
X020270Y026598D01*
X020149Y026598D01*
X020037Y026552D01*
X019951Y026466D01*
X019905Y026354D01*
X019905Y026233D01*
X019951Y026121D01*
X019990Y026082D01*
X019990Y024260D01*
X019715Y024535D01*
X019715Y024604D01*
X019668Y024716D01*
X019582Y024802D01*
X019470Y024848D01*
X019349Y024848D01*
X019237Y024802D01*
X019151Y024716D01*
X019105Y024604D01*
X019105Y024483D01*
X019151Y024371D01*
X019237Y024285D01*
X019349Y024238D01*
X019418Y024238D01*
X019600Y024056D01*
X019600Y017936D01*
X019509Y018026D01*
X019360Y018176D01*
X019382Y018185D01*
X019468Y018271D01*
X019515Y018383D01*
X019515Y018504D01*
X019468Y018616D01*
X019420Y018665D01*
X019420Y023980D01*
X019015Y024385D01*
X019015Y024454D01*
X018968Y024566D01*
X018882Y024652D01*
X018770Y024698D01*
X018649Y024698D01*
X018537Y024652D01*
X018451Y024566D01*
X018405Y024454D01*
X018405Y024333D01*
X018451Y024221D01*
X018537Y024135D01*
X018649Y024088D01*
X018718Y024088D01*
X019000Y023806D01*
X019000Y022140D01*
X018968Y022216D01*
X018882Y022302D01*
X018770Y022348D01*
X018649Y022348D01*
X018537Y022302D01*
X018478Y022243D01*
X017977Y022243D01*
X017860Y022126D01*
X014777Y019043D01*
X014491Y019043D01*
X014491Y019043D01*
X014568Y019121D01*
X014615Y019233D01*
X014615Y019354D01*
X014568Y019466D01*
X014482Y019552D01*
X014370Y019598D01*
X014249Y019598D01*
X014137Y019552D01*
X014078Y019493D01*
X013092Y019493D01*
X012960Y019626D01*
X012960Y020621D01*
X013001Y020521D01*
X013087Y020435D01*
X013199Y020388D01*
X013320Y020388D01*
X013432Y020435D01*
X013442Y020444D01*
X013405Y020354D01*
X013405Y020233D01*
X013451Y020121D01*
X013537Y020035D01*
X013649Y019988D01*
X013770Y019988D01*
X013882Y020035D01*
X013968Y020121D01*
X014015Y020233D01*
X014015Y020265D01*
X017237Y023488D01*
X017320Y023488D01*
X017432Y023535D01*
X017518Y023621D01*
X017565Y023733D01*
X017565Y023854D01*
X017518Y023966D01*
X017432Y024052D01*
X017320Y024098D01*
X017199Y024098D01*
X017087Y024052D01*
X017001Y023966D01*
X016955Y023854D01*
X016955Y023771D01*
X016777Y023594D01*
X016768Y023616D01*
X016682Y023702D01*
X016570Y023748D01*
X016449Y023748D01*
X016337Y023702D01*
X016251Y023616D01*
X016205Y023504D01*
X016205Y023424D01*
X016005Y023228D01*
X015968Y023316D01*
X015882Y023402D01*
X015770Y023448D01*
X015755Y023448D01*
X016040Y023738D01*
X016120Y023738D01*
X016232Y023785D01*
X016318Y023871D01*
X016365Y023983D01*
X016365Y024104D01*
X016318Y024216D01*
X016288Y024246D01*
X016382Y024285D01*
X016468Y024371D01*
X016515Y024483D01*
X016515Y024604D01*
X016468Y024716D01*
X016382Y024802D01*
X016270Y024848D01*
X016149Y024848D01*
X016037Y024802D01*
X015988Y024753D01*
X013192Y024753D01*
X013107Y024838D01*
X012979Y024891D01*
X012840Y024891D01*
X012712Y024838D01*
X012680Y024806D01*
X012680Y025102D01*
X013401Y025823D01*
X013530Y025952D01*
X013530Y027202D01*
X013601Y027273D01*
X015601Y027273D01*
X015966Y027638D01*
X016020Y027638D01*
X016132Y027685D01*
X016218Y027771D01*
X016265Y027883D01*
X016265Y028004D01*
X016218Y028116D01*
X016132Y028202D01*
X016020Y028248D01*
X015911Y028248D01*
X016296Y028633D01*
X016351Y028633D01*
X016520Y028703D01*
X016649Y028833D01*
X016720Y029002D01*
X016720Y029785D01*
X016649Y029954D01*
X016520Y030083D01*
X016351Y030153D01*
X016168Y030153D01*
X015999Y030083D01*
X015870Y029954D01*
X015800Y029785D01*
X015800Y029002D01*
X015870Y028833D01*
X015886Y028817D01*
X015423Y028353D01*
X013423Y028353D01*
X013300Y028230D01*
X013041Y027972D01*
X012944Y027972D01*
X012823Y027922D01*
X012731Y027829D01*
X012681Y027709D01*
X012681Y027578D01*
X012731Y027457D01*
X012823Y027365D01*
X012944Y027315D01*
X013075Y027315D01*
X013090Y027321D01*
X013090Y026134D01*
X012330Y025374D01*
X012330Y025532D01*
X012368Y025571D01*
X012415Y025683D01*
X012415Y025804D01*
X012368Y025916D01*
X012282Y026002D01*
X012170Y026048D01*
X012049Y026048D01*
X011937Y026002D01*
X011851Y025916D01*
X011805Y025804D01*
X011805Y025683D01*
X011851Y025571D01*
X011890Y025532D01*
X011890Y022464D01*
X011868Y022516D01*
X011782Y022602D01*
X011670Y022648D01*
X011549Y022648D01*
X011437Y022602D01*
X011351Y022516D01*
X011305Y022404D01*
X011305Y022321D01*
X010457Y021473D01*
X010418Y021566D01*
X010332Y021652D01*
X010220Y021698D01*
X010137Y021698D01*
X010060Y021776D01*
X010060Y023676D01*
X009942Y023793D01*
X009852Y023883D01*
X009818Y023966D01*
X009732Y024052D01*
X009620Y024098D01*
X009499Y024098D01*
X009387Y024052D01*
X009301Y023966D01*
X009255Y023854D01*
X009255Y023733D01*
X009301Y023621D01*
X009387Y023535D01*
X009499Y023488D01*
X009620Y023488D01*
X009660Y023505D01*
X009660Y021610D01*
X009855Y021415D01*
X009855Y021333D01*
X009901Y021221D01*
X009987Y021135D01*
X010099Y021088D01*
X010110Y021088D01*
X010110Y019476D01*
X009665Y019031D01*
X009665Y019104D01*
X009618Y019216D01*
X009580Y019255D01*
X009580Y020352D01*
X009766Y020538D01*
X009820Y020538D01*
X009932Y020585D01*
X010018Y020671D01*
X010065Y020783D01*
X010065Y020904D01*
X010018Y021016D01*
X009932Y021102D01*
X009820Y021148D01*
X009699Y021148D01*
X009587Y021102D01*
X009501Y021016D01*
X009455Y020904D01*
X009455Y020849D01*
X009268Y020663D01*
X009140Y020534D01*
X009140Y019255D01*
X009101Y019216D01*
X009055Y019104D01*
X009055Y018983D01*
X009101Y018871D01*
X009187Y018785D01*
X009273Y018749D01*
X009255Y018704D01*
X009255Y018583D01*
X009301Y018471D01*
X009387Y018385D01*
X009409Y018376D01*
X008980Y017946D01*
X008980Y025620D01*
X009040Y025595D01*
X009096Y025595D01*
X009890Y024802D01*
X010018Y024673D01*
X010598Y024673D01*
X010637Y024635D01*
X010749Y024588D01*
X010870Y024588D01*
X010982Y024635D01*
X011068Y024721D01*
X011115Y024833D01*
X011115Y024954D01*
X011068Y025066D01*
X010982Y025152D01*
X010870Y025198D01*
X010749Y025198D01*
X010637Y025152D01*
X010598Y025113D01*
X010201Y025113D01*
X009452Y025862D01*
X009458Y025874D01*
X009458Y025980D01*
X009530Y026052D01*
X009530Y026702D01*
X009601Y026773D01*
X009687Y026773D01*
X009762Y026698D01*
X009890Y026645D01*
X010029Y026645D01*
X010157Y026698D01*
X010255Y026796D01*
X010308Y026924D01*
X010308Y027063D01*
X010255Y027190D01*
X010157Y027288D01*
X010029Y027341D01*
X009890Y027341D01*
X009762Y027288D01*
X009687Y027213D01*
X009418Y027213D01*
X009290Y027084D01*
X009090Y026884D01*
X009090Y026291D01*
X009040Y026291D01*
X008980Y026266D01*
X008980Y027859D01*
X009023Y027815D01*
X009144Y027765D01*
X009275Y027765D01*
X009396Y027815D01*
X009488Y027907D01*
X009538Y028028D01*
X009538Y028159D01*
X009488Y028279D01*
X009396Y028372D01*
X009275Y028422D01*
X009144Y028422D01*
X009023Y028372D01*
X008933Y028281D01*
X008730Y028484D01*
X008601Y028613D01*
X007751Y028613D01*
X007590Y028774D01*
X007649Y028833D01*
X007720Y029002D01*
X007720Y029785D01*
X007649Y029954D01*
X007520Y030083D01*
X007351Y030153D01*
X007168Y030153D01*
X006999Y030083D01*
X006870Y029954D01*
X006800Y029785D01*
X006800Y029002D01*
X006870Y028833D01*
X006999Y028703D01*
X007066Y028675D01*
X007168Y028573D01*
X007568Y028173D01*
X008418Y028173D01*
X008540Y028052D01*
X008540Y026633D01*
X008468Y026705D01*
X008333Y026761D01*
X008186Y026761D01*
X008051Y026705D01*
X007948Y026602D01*
X007892Y026466D01*
X007892Y026320D01*
X007948Y026185D01*
X008040Y026093D01*
X008040Y012687D01*
X008026Y012706D01*
X007972Y012759D01*
X007911Y012804D01*
X007844Y012838D01*
X007772Y012861D01*
X007697Y012873D01*
X007380Y012873D01*
X007380Y012413D01*
X007340Y012413D01*
X007340Y012873D01*
X007022Y012873D01*
X006947Y012861D01*
X006875Y012838D01*
X006808Y012804D01*
X006747Y012759D01*
X006693Y012706D01*
X006649Y012645D01*
X006615Y012578D01*
X006591Y012506D01*
X006580Y012431D01*
X006580Y012413D01*
X007340Y012413D01*
X007340Y012373D01*
X007380Y012373D01*
X007380Y011913D01*
X007697Y011913D01*
X007772Y011925D01*
X007844Y011948D01*
X007911Y011983D01*
X007972Y012027D01*
X008026Y012081D01*
X008040Y012100D01*
X008040Y011664D01*
X007920Y011783D01*
X007751Y011853D01*
X006968Y011853D01*
X006799Y011783D01*
X006670Y011654D01*
X006600Y011485D01*
X006600Y011302D01*
X006670Y011133D01*
X006799Y011003D01*
X006968Y010933D01*
X007751Y010933D01*
X007920Y011003D01*
X008040Y011123D01*
X008040Y006100D01*
X007999Y006083D01*
X007870Y005954D01*
X007800Y005785D01*
X007800Y005002D01*
X007870Y004833D01*
X007999Y004703D01*
X008168Y004633D01*
X008351Y004633D01*
X008520Y004703D01*
X008649Y004833D01*
X008720Y005002D01*
X008720Y005785D01*
X008649Y005954D01*
X008520Y006083D01*
X008480Y006100D01*
X008480Y012790D01*
X008852Y012418D01*
X008851Y012416D01*
X008805Y012304D01*
X008805Y012183D01*
X008851Y012071D01*
X008937Y011985D01*
X009049Y011938D01*
X009170Y011938D01*
X009282Y011985D01*
X009368Y012071D01*
X009415Y012183D01*
X009415Y012224D01*
X009473Y012165D01*
X009594Y012115D01*
X009725Y012115D01*
X009846Y012165D01*
X009938Y012257D01*
X009988Y012378D01*
X009988Y012509D01*
X009971Y012550D01*
X009999Y012538D01*
X010082Y012538D01*
X010860Y011760D01*
X010860Y009860D01*
X011031Y009689D01*
X011031Y009578D01*
X011081Y009457D01*
X011173Y009365D01*
X011294Y009315D01*
X011425Y009315D01*
X011546Y009365D01*
X011638Y009457D01*
X011688Y009578D01*
X011688Y009709D01*
X011638Y009829D01*
X011546Y009922D01*
X011425Y009972D01*
X011314Y009972D01*
X011260Y010026D01*
X011260Y011546D01*
X012250Y010556D01*
X012300Y010505D01*
X012251Y010456D01*
X012205Y010344D01*
X012205Y010275D01*
X011990Y010060D01*
X011990Y008915D01*
X011941Y008866D01*
X011895Y008754D01*
X011895Y008633D01*
X011907Y008603D01*
X009946Y008603D01*
X009138Y009412D01*
X009138Y009509D01*
X009088Y009629D01*
X008996Y009722D01*
X008875Y009772D01*
X008744Y009772D01*
X008623Y009722D01*
X008531Y009629D01*
X008481Y009509D01*
X008481Y009378D01*
X008531Y009257D01*
X008623Y009165D01*
X008744Y009115D01*
X008841Y009115D01*
X009773Y008183D01*
X012223Y008183D01*
X012550Y007856D01*
X012550Y005854D01*
X012499Y005833D01*
X012370Y005704D01*
X012300Y005535D01*
X012300Y004752D01*
X012370Y004583D01*
X012499Y004453D01*
X012357Y004612D02*
X003990Y004612D01*
X003990Y004771D02*
X005931Y004771D01*
X005870Y004833D02*
X005999Y004703D01*
X006168Y004633D01*
X006351Y004633D01*
X006520Y004703D01*
X006649Y004833D01*
X006720Y005002D01*
X006720Y005785D01*
X006649Y005954D01*
X006520Y006083D01*
X006351Y006153D01*
X006168Y006153D01*
X005999Y006083D01*
X005870Y005954D01*
X005800Y005785D01*
X005800Y005002D01*
X005870Y004833D01*
X005830Y004929D02*
X003990Y004929D01*
X003990Y005088D02*
X005800Y005088D01*
X005800Y005246D02*
X003990Y005246D01*
X003990Y005405D02*
X005800Y005405D01*
X005800Y005563D02*
X003990Y005563D01*
X003990Y005722D02*
X005800Y005722D01*
X005839Y005880D02*
X003990Y005880D01*
X003990Y006039D02*
X005954Y006039D01*
X006565Y006039D02*
X006954Y006039D01*
X006999Y006083D02*
X006870Y005954D01*
X006800Y005785D01*
X006800Y005002D01*
X006870Y004833D01*
X006999Y004703D01*
X007168Y004633D01*
X007351Y004633D01*
X007520Y004703D01*
X007649Y004833D01*
X007720Y005002D01*
X007720Y005785D01*
X007649Y005954D01*
X007520Y006083D01*
X007480Y006100D01*
X007480Y006984D01*
X007351Y007113D01*
X005180Y009284D01*
X005180Y025252D01*
X005530Y025603D01*
X005551Y025582D01*
X005686Y025526D01*
X005833Y025526D01*
X005968Y025582D01*
X006071Y025685D01*
X006127Y025820D01*
X006127Y025966D01*
X006071Y026102D01*
X005968Y026205D01*
X005833Y026261D01*
X005686Y026261D01*
X005551Y026205D01*
X005459Y026113D01*
X005418Y026113D01*
X005290Y025984D01*
X004868Y025563D01*
X004740Y025434D01*
X004740Y024106D01*
X004657Y024188D01*
X004529Y024241D01*
X004390Y024241D01*
X004262Y024188D01*
X004164Y024090D01*
X004111Y023963D01*
X004111Y023824D01*
X004164Y023696D01*
X004240Y023621D01*
X004240Y010938D01*
X004181Y010879D01*
X004131Y010759D01*
X004131Y010628D01*
X004181Y010507D01*
X004273Y010415D01*
X004394Y010365D01*
X004525Y010365D01*
X004646Y010415D01*
X004738Y010507D01*
X004740Y010511D01*
X004740Y009102D01*
X007040Y006802D01*
X007040Y006100D01*
X006999Y006083D01*
X007040Y006197D02*
X003990Y006197D01*
X003990Y006356D02*
X007040Y006356D01*
X007040Y006514D02*
X003990Y006514D01*
X003990Y006673D02*
X007040Y006673D01*
X007010Y006831D02*
X003990Y006831D01*
X003990Y006990D02*
X006852Y006990D01*
X006693Y007148D02*
X003990Y007148D01*
X003990Y007307D02*
X006535Y007307D01*
X006376Y007465D02*
X003990Y007465D01*
X003990Y007624D02*
X006218Y007624D01*
X006059Y007782D02*
X003990Y007782D01*
X003990Y007941D02*
X005901Y007941D01*
X005742Y008099D02*
X003990Y008099D01*
X003990Y008258D02*
X005584Y008258D01*
X005425Y008416D02*
X003990Y008416D01*
X003990Y008575D02*
X005267Y008575D01*
X005108Y008733D02*
X003990Y008733D01*
X003990Y008892D02*
X004950Y008892D01*
X004791Y009050D02*
X003990Y009050D01*
X003990Y009209D02*
X004740Y009209D01*
X004740Y009367D02*
X003990Y009367D01*
X003990Y009526D02*
X004740Y009526D01*
X004740Y009684D02*
X003990Y009684D01*
X003990Y009843D02*
X004740Y009843D01*
X004740Y010001D02*
X003990Y010001D01*
X003990Y010160D02*
X004740Y010160D01*
X004740Y010318D02*
X003990Y010318D01*
X003990Y010477D02*
X004212Y010477D01*
X004131Y010635D02*
X003990Y010635D01*
X003990Y010794D02*
X004146Y010794D01*
X004240Y010952D02*
X003990Y010952D01*
X003990Y011111D02*
X004240Y011111D01*
X004240Y011269D02*
X003990Y011269D01*
X003990Y011428D02*
X004240Y011428D01*
X004240Y011586D02*
X003990Y011586D01*
X003990Y011745D02*
X004240Y011745D01*
X004240Y011903D02*
X003990Y011903D01*
X003990Y012062D02*
X004240Y012062D01*
X004240Y012220D02*
X003990Y012220D01*
X003990Y012379D02*
X004240Y012379D01*
X004240Y012537D02*
X003990Y012537D01*
X003990Y012696D02*
X004240Y012696D01*
X004240Y012854D02*
X003990Y012854D01*
X003990Y013013D02*
X004240Y013013D01*
X004240Y013171D02*
X003990Y013171D01*
X003990Y013330D02*
X004240Y013330D01*
X004240Y013488D02*
X003990Y013488D01*
X003990Y013647D02*
X004240Y013647D01*
X004240Y013805D02*
X003990Y013805D01*
X003990Y013964D02*
X004240Y013964D01*
X004240Y014122D02*
X003990Y014122D01*
X003990Y014281D02*
X004240Y014281D01*
X004240Y014439D02*
X003990Y014439D01*
X003990Y014598D02*
X004240Y014598D01*
X004240Y014756D02*
X003990Y014756D01*
X003990Y014915D02*
X004240Y014915D01*
X004240Y015073D02*
X003990Y015073D01*
X003990Y015232D02*
X004240Y015232D01*
X004240Y015390D02*
X003990Y015390D01*
X003990Y015549D02*
X004240Y015549D01*
X004240Y015707D02*
X003990Y015707D01*
X003990Y015866D02*
X004240Y015866D01*
X004240Y016024D02*
X003990Y016024D01*
X003990Y016183D02*
X004240Y016183D01*
X004240Y016341D02*
X003990Y016341D01*
X003990Y016500D02*
X004240Y016500D01*
X004240Y016658D02*
X003990Y016658D01*
X003990Y016817D02*
X004240Y016817D01*
X004240Y016975D02*
X003990Y016975D01*
X003990Y017134D02*
X004240Y017134D01*
X004240Y017292D02*
X003990Y017292D01*
X003990Y017451D02*
X004240Y017451D01*
X004240Y017609D02*
X003990Y017609D01*
X003990Y017768D02*
X004240Y017768D01*
X004240Y017926D02*
X003990Y017926D01*
X003990Y018085D02*
X004240Y018085D01*
X004240Y018243D02*
X003990Y018243D01*
X003990Y018402D02*
X004240Y018402D01*
X004240Y018560D02*
X003990Y018560D01*
X003990Y018719D02*
X004240Y018719D01*
X004240Y018877D02*
X003990Y018877D01*
X003990Y019036D02*
X004240Y019036D01*
X004240Y019194D02*
X003990Y019194D01*
X003990Y019353D02*
X004240Y019353D01*
X004240Y019511D02*
X003990Y019511D01*
X003990Y019670D02*
X004240Y019670D01*
X004240Y019828D02*
X003990Y019828D01*
X003990Y019987D02*
X004240Y019987D01*
X004240Y020145D02*
X003990Y020145D01*
X003990Y020304D02*
X004240Y020304D01*
X004240Y020462D02*
X003990Y020462D01*
X003990Y020621D02*
X004240Y020621D01*
X004240Y020779D02*
X003990Y020779D01*
X003990Y020938D02*
X004240Y020938D01*
X004240Y021096D02*
X003990Y021096D01*
X003990Y021255D02*
X004240Y021255D01*
X004240Y021413D02*
X003990Y021413D01*
X003990Y021572D02*
X004240Y021572D01*
X004240Y021730D02*
X003990Y021730D01*
X003990Y021889D02*
X004240Y021889D01*
X004240Y022047D02*
X003990Y022047D01*
X003990Y022206D02*
X004240Y022206D01*
X004240Y022364D02*
X003990Y022364D01*
X003990Y022523D02*
X004240Y022523D01*
X004240Y022681D02*
X003990Y022681D01*
X003990Y022840D02*
X004240Y022840D01*
X004240Y022998D02*
X003990Y022998D01*
X003990Y023157D02*
X004240Y023157D01*
X004240Y023315D02*
X003990Y023315D01*
X003990Y023474D02*
X004240Y023474D01*
X004228Y023632D02*
X003990Y023632D01*
X003990Y023791D02*
X004125Y023791D01*
X004111Y023949D02*
X003990Y023949D01*
X003990Y024108D02*
X004182Y024108D01*
X003990Y024266D02*
X004740Y024266D01*
X004737Y024108D02*
X004740Y024108D01*
X004740Y024425D02*
X003990Y024425D01*
X003990Y024583D02*
X004740Y024583D01*
X004740Y024742D02*
X003990Y024742D01*
X003990Y024900D02*
X004740Y024900D01*
X004740Y025059D02*
X003990Y025059D01*
X003990Y025217D02*
X004740Y025217D01*
X004740Y025376D02*
X003990Y025376D01*
X003990Y025534D02*
X004839Y025534D01*
X004998Y025693D02*
X003990Y025693D01*
X003990Y025851D02*
X005156Y025851D01*
X005315Y026010D02*
X003990Y026010D01*
X003990Y026168D02*
X005514Y026168D01*
X006005Y026168D02*
X007964Y026168D01*
X007892Y026327D02*
X003990Y026327D01*
X003990Y026485D02*
X007900Y026485D01*
X007990Y026644D02*
X003990Y026644D01*
X003990Y026802D02*
X008540Y026802D01*
X008529Y026644D02*
X008540Y026644D01*
X008540Y026961D02*
X003990Y026961D01*
X003990Y027119D02*
X008540Y027119D01*
X008540Y027278D02*
X003990Y027278D01*
X003990Y027436D02*
X008540Y027436D01*
X008540Y027595D02*
X003990Y027595D01*
X003990Y027753D02*
X008540Y027753D01*
X008540Y027912D02*
X003990Y027912D01*
X003990Y028070D02*
X008521Y028070D01*
X008827Y028387D02*
X009061Y028387D01*
X009168Y028633D02*
X008999Y028703D01*
X008870Y028833D01*
X008800Y029002D01*
X008800Y029785D01*
X008870Y029954D01*
X008999Y030083D01*
X009040Y030100D01*
X009040Y031034D01*
X009255Y031249D01*
X009255Y031304D01*
X009301Y031416D01*
X009387Y031502D01*
X009499Y031548D01*
X009620Y031548D01*
X009732Y031502D01*
X009818Y031416D01*
X009865Y031304D01*
X009865Y031183D01*
X009818Y031071D01*
X009732Y030985D01*
X009620Y030938D01*
X009566Y030938D01*
X009480Y030852D01*
X009480Y030100D01*
X009520Y030083D01*
X009649Y029954D01*
X009720Y029785D01*
X009720Y029002D01*
X009649Y028833D01*
X009520Y028703D01*
X009351Y028633D01*
X009168Y028633D01*
X008998Y028704D02*
X008521Y028704D01*
X008520Y028703D02*
X008649Y028833D01*
X008720Y029002D01*
X008720Y029785D01*
X008649Y029954D01*
X008520Y030083D01*
X008351Y030153D01*
X008168Y030153D01*
X007999Y030083D01*
X007870Y029954D01*
X007800Y029785D01*
X007800Y029002D01*
X007870Y028833D01*
X007999Y028703D01*
X008168Y028633D01*
X008351Y028633D01*
X008520Y028703D01*
X008662Y028863D02*
X008857Y028863D01*
X008800Y029021D02*
X008720Y029021D01*
X008720Y029180D02*
X008800Y029180D01*
X008800Y029338D02*
X008720Y029338D01*
X008720Y029497D02*
X008800Y029497D01*
X008800Y029655D02*
X008720Y029655D01*
X008707Y029814D02*
X008812Y029814D01*
X008888Y029972D02*
X008631Y029972D01*
X008405Y030131D02*
X009040Y030131D01*
X009040Y030289D02*
X003990Y030289D01*
X003990Y030131D02*
X007114Y030131D01*
X006888Y029972D02*
X003990Y029972D01*
X003990Y029814D02*
X006812Y029814D01*
X006800Y029655D02*
X003990Y029655D01*
X003990Y029497D02*
X006800Y029497D01*
X006800Y029338D02*
X003990Y029338D01*
X003990Y029180D02*
X006800Y029180D01*
X006800Y029021D02*
X003990Y029021D01*
X003990Y028863D02*
X006857Y028863D01*
X006998Y028704D02*
X003990Y028704D01*
X003990Y028546D02*
X007196Y028546D01*
X007354Y028387D02*
X003990Y028387D01*
X003990Y028229D02*
X007513Y028229D01*
X007660Y028704D02*
X007998Y028704D01*
X007857Y028863D02*
X007662Y028863D01*
X007720Y029021D02*
X007800Y029021D01*
X007800Y029180D02*
X007720Y029180D01*
X007720Y029338D02*
X007800Y029338D01*
X007800Y029497D02*
X007720Y029497D01*
X007720Y029655D02*
X007800Y029655D01*
X007812Y029814D02*
X007707Y029814D01*
X007631Y029972D02*
X007888Y029972D01*
X008114Y030131D02*
X007405Y030131D01*
X009040Y030448D02*
X003990Y030448D01*
X003990Y030606D02*
X009040Y030606D01*
X009040Y030765D02*
X003990Y030765D01*
X003990Y030923D02*
X009040Y030923D01*
X009087Y031082D02*
X003990Y031082D01*
X003990Y031240D02*
X009245Y031240D01*
X009294Y031399D02*
X003990Y031399D01*
X003990Y031557D02*
X030559Y031557D01*
X030594Y031572D02*
X030473Y031522D01*
X030381Y031429D01*
X030331Y031309D01*
X030331Y031178D01*
X030381Y031057D01*
X030473Y030965D01*
X030594Y030915D01*
X030677Y030915D01*
X030890Y030702D01*
X030890Y026188D01*
X030831Y026129D01*
X030781Y026009D01*
X030781Y025878D01*
X030831Y025757D01*
X030923Y025665D01*
X031044Y025615D01*
X031175Y025615D01*
X031296Y025665D01*
X031388Y025757D01*
X031438Y025878D01*
X031438Y026009D01*
X031388Y026129D01*
X031330Y026188D01*
X031330Y030884D01*
X030988Y031226D01*
X030988Y031309D01*
X030938Y031429D01*
X030846Y031522D01*
X030725Y031572D01*
X030594Y031572D01*
X030760Y031557D02*
X035546Y031557D01*
X035546Y031399D02*
X030951Y031399D01*
X030988Y031240D02*
X035545Y031240D01*
X035545Y031082D02*
X031132Y031082D01*
X031291Y030923D02*
X035545Y030923D01*
X035545Y030765D02*
X031330Y030765D01*
X031330Y030606D02*
X035544Y030606D01*
X035544Y030448D02*
X031330Y030448D01*
X031330Y030289D02*
X035544Y030289D01*
X035544Y030131D02*
X032403Y030131D01*
X032382Y030152D02*
X032270Y030198D01*
X032149Y030198D01*
X032037Y030152D01*
X031951Y030066D01*
X031905Y029954D01*
X031905Y029833D01*
X031951Y029721D01*
X031990Y029682D01*
X031990Y027353D01*
X031818Y027353D01*
X031649Y027283D01*
X031520Y027154D01*
X031450Y026985D01*
X031450Y026802D01*
X031520Y026633D01*
X031649Y026503D01*
X031818Y026433D01*
X032358Y026433D01*
X032438Y026353D01*
X031818Y026353D01*
X031649Y026283D01*
X031520Y026154D01*
X031450Y025985D01*
X031450Y025802D01*
X031520Y025633D01*
X031649Y025503D01*
X031818Y025433D01*
X032601Y025433D01*
X032740Y025491D01*
X032740Y025296D01*
X032601Y025353D01*
X031818Y025353D01*
X031649Y025283D01*
X031520Y025154D01*
X031450Y024985D01*
X031450Y024802D01*
X031520Y024633D01*
X031649Y024503D01*
X031818Y024433D01*
X032601Y024433D01*
X032740Y024491D01*
X032740Y024315D01*
X032694Y024338D01*
X032622Y024361D01*
X032547Y024373D01*
X032230Y024373D01*
X032230Y023913D01*
X032190Y023913D01*
X032190Y024373D01*
X031872Y024373D01*
X031797Y024361D01*
X031725Y024338D01*
X031658Y024304D01*
X031597Y024259D01*
X031543Y024206D01*
X031499Y024145D01*
X031465Y024078D01*
X031441Y024006D01*
X031430Y023931D01*
X031430Y023913D01*
X032190Y023913D01*
X032190Y023873D01*
X032230Y023873D01*
X032230Y023413D01*
X032547Y023413D01*
X032572Y023417D01*
X032168Y023013D01*
X032040Y022884D01*
X032040Y022264D01*
X031950Y022353D01*
X031569Y022353D01*
X031329Y022113D01*
X030768Y022113D01*
X030118Y021463D01*
X029990Y021334D01*
X029990Y020845D01*
X029960Y020875D01*
X029960Y026679D01*
X030023Y026615D01*
X030144Y026565D01*
X030275Y026565D01*
X030396Y026615D01*
X030488Y026707D01*
X030538Y026828D01*
X030538Y026959D01*
X030488Y027079D01*
X030480Y027088D01*
X030480Y028084D01*
X030382Y028182D01*
X030368Y028216D01*
X030282Y028302D01*
X030170Y028348D01*
X030049Y028348D01*
X029960Y028311D01*
X029960Y028678D01*
X030020Y028703D01*
X030149Y028833D01*
X030220Y029002D01*
X030220Y029785D01*
X030149Y029954D01*
X030020Y030083D01*
X029851Y030153D01*
X029668Y030153D01*
X029499Y030083D01*
X029370Y029954D01*
X029300Y029785D01*
X029300Y029002D01*
X029370Y028833D01*
X029499Y028703D01*
X029560Y028678D01*
X029560Y023466D01*
X029518Y023566D01*
X029432Y023652D01*
X029330Y023694D01*
X029330Y026082D01*
X029368Y026121D01*
X029415Y026233D01*
X029415Y026354D01*
X029368Y026466D01*
X029282Y026552D01*
X029170Y026598D01*
X029049Y026598D01*
X028970Y026565D01*
X028970Y028682D01*
X029020Y028703D01*
X029149Y028833D01*
X029220Y029002D01*
X029220Y029785D01*
X029149Y029954D01*
X029020Y030083D01*
X028851Y030153D01*
X028668Y030153D01*
X028499Y030083D01*
X028370Y029954D01*
X028300Y029785D01*
X028300Y029002D01*
X028370Y028833D01*
X028499Y028703D01*
X028550Y028682D01*
X028550Y028490D01*
X028518Y028566D01*
X028432Y028652D01*
X028320Y028698D01*
X028199Y028698D01*
X028087Y028652D01*
X028001Y028566D01*
X027960Y028466D01*
X027960Y028678D01*
X028020Y028703D01*
X028149Y028833D01*
X028220Y029002D01*
X028220Y029785D01*
X028149Y029954D01*
X028020Y030083D01*
X027851Y030153D01*
X027668Y030153D01*
X027499Y030083D01*
X027370Y029954D01*
X027300Y029785D01*
X027300Y029002D01*
X027370Y028833D01*
X027499Y028703D01*
X027560Y028678D01*
X027560Y021775D01*
X027501Y021716D01*
X027455Y021604D01*
X027455Y021483D01*
X027501Y021371D01*
X027587Y021285D01*
X027699Y021238D01*
X027820Y021238D01*
X027932Y021285D01*
X028018Y021371D01*
X028065Y021483D01*
X028065Y021604D01*
X028018Y021716D01*
X027960Y021775D01*
X027960Y028321D01*
X028001Y028221D01*
X028040Y028182D01*
X028040Y025902D01*
X028055Y025887D01*
X028055Y025833D01*
X028101Y025721D01*
X028187Y025635D01*
X028299Y025588D01*
X028420Y025588D01*
X028532Y025635D01*
X028550Y025652D01*
X028550Y021148D01*
X028481Y021079D01*
X028431Y020959D01*
X028431Y020828D01*
X028481Y020707D01*
X028573Y020615D01*
X028694Y020565D01*
X028825Y020565D01*
X028946Y020615D01*
X029038Y020707D01*
X029088Y020828D01*
X029088Y020959D01*
X029038Y021079D01*
X028970Y021148D01*
X028970Y023296D01*
X029001Y023221D01*
X029087Y023135D01*
X029199Y023088D01*
X029320Y023088D01*
X029432Y023135D01*
X029518Y023221D01*
X029560Y023321D01*
X029560Y020875D01*
X029501Y020816D01*
X029455Y020704D01*
X029455Y020583D01*
X029501Y020471D01*
X029587Y020385D01*
X029699Y020338D01*
X029820Y020338D01*
X029932Y020385D01*
X029990Y020442D01*
X029990Y020084D01*
X029078Y019173D01*
X028950Y019044D01*
X028950Y013620D01*
X028711Y013382D01*
X028614Y013382D01*
X028493Y013332D01*
X028401Y013239D01*
X028351Y013119D01*
X028351Y012988D01*
X028401Y012867D01*
X028493Y012775D01*
X028614Y012725D01*
X028745Y012725D01*
X028866Y012775D01*
X028958Y012867D01*
X029008Y012988D01*
X029008Y013085D01*
X029246Y013323D01*
X029261Y013323D01*
X029390Y013452D01*
X029390Y018862D01*
X029653Y019125D01*
X029681Y019057D01*
X029773Y018965D01*
X029894Y018915D01*
X029991Y018915D01*
X030000Y018906D01*
X030000Y017298D01*
X029981Y017279D01*
X029931Y017159D01*
X029931Y017028D01*
X029981Y016907D01*
X030073Y016815D01*
X030194Y016765D01*
X030325Y016765D01*
X030446Y016815D01*
X030520Y016889D01*
X030520Y016646D01*
X030464Y016590D01*
X030411Y016463D01*
X030411Y016324D01*
X030464Y016196D01*
X030562Y016098D01*
X030690Y016045D01*
X030829Y016045D01*
X030957Y016098D01*
X031055Y016196D01*
X031108Y016324D01*
X031108Y016463D01*
X031055Y016590D01*
X031000Y016646D01*
X031000Y018202D01*
X031018Y018221D01*
X031065Y018333D01*
X031065Y018454D01*
X031018Y018566D01*
X030932Y018652D01*
X030820Y018698D01*
X030699Y018698D01*
X030587Y018652D01*
X030501Y018566D01*
X030455Y018454D01*
X030455Y018333D01*
X030501Y018221D01*
X030520Y018202D01*
X030520Y017298D01*
X030446Y017372D01*
X030420Y017383D01*
X030420Y019080D01*
X030296Y019203D01*
X030288Y019212D01*
X030288Y019309D01*
X030238Y019429D01*
X030146Y019522D01*
X030077Y019550D01*
X030430Y019902D01*
X030430Y021152D01*
X030951Y021673D01*
X031329Y021673D01*
X031569Y021433D01*
X031950Y021433D01*
X032040Y021523D01*
X032040Y021264D01*
X031950Y021353D01*
X031569Y021353D01*
X031300Y021084D01*
X031300Y020703D01*
X031569Y020433D01*
X031950Y020433D01*
X032040Y020523D01*
X032040Y019353D01*
X031868Y019353D01*
X031699Y019283D01*
X031570Y019154D01*
X031500Y018985D01*
X031500Y018802D01*
X031570Y018633D01*
X031699Y018503D01*
X031868Y018433D01*
X032651Y018433D01*
X032820Y018503D01*
X032949Y018633D01*
X033020Y018802D01*
X033020Y018985D01*
X032949Y019154D01*
X032820Y019283D01*
X032651Y019353D01*
X032480Y019353D01*
X032480Y020494D01*
X032561Y020413D01*
X032740Y020413D01*
X032740Y020873D01*
X032780Y020873D01*
X032780Y020913D01*
X033240Y020913D01*
X033240Y021092D01*
X032958Y021373D01*
X032780Y021373D01*
X032780Y020913D01*
X032740Y020913D01*
X032740Y021373D01*
X032561Y021373D01*
X032480Y021292D01*
X032480Y021494D01*
X032561Y021413D01*
X032740Y021413D01*
X032740Y021873D01*
X032780Y021873D01*
X032780Y021913D01*
X033240Y021913D01*
X033240Y022092D01*
X032958Y022373D01*
X032780Y022373D01*
X032780Y021913D01*
X032740Y021913D01*
X032740Y022373D01*
X032561Y022373D01*
X032480Y022292D01*
X032480Y022702D01*
X033180Y023402D01*
X033180Y026234D01*
X033051Y026363D01*
X032840Y026574D01*
X032899Y026633D01*
X032970Y026802D01*
X032970Y026985D01*
X032899Y027154D01*
X032770Y027283D01*
X032601Y027353D01*
X032430Y027353D01*
X032430Y029682D01*
X032468Y029721D01*
X032515Y029833D01*
X032515Y029954D01*
X032468Y030066D01*
X032382Y030152D01*
X032507Y029972D02*
X035543Y029972D01*
X035543Y029814D02*
X032507Y029814D01*
X032430Y029655D02*
X035543Y029655D01*
X035543Y029497D02*
X032430Y029497D01*
X032430Y029338D02*
X035542Y029338D01*
X035542Y029180D02*
X032430Y029180D01*
X032430Y029021D02*
X035542Y029021D01*
X035542Y028863D02*
X032430Y028863D01*
X032430Y028704D02*
X035541Y028704D01*
X035541Y028546D02*
X032430Y028546D01*
X032430Y028387D02*
X035541Y028387D01*
X035541Y028229D02*
X032430Y028229D01*
X032430Y028070D02*
X035540Y028070D01*
X035540Y027912D02*
X032430Y027912D01*
X032430Y027753D02*
X035540Y027753D01*
X035540Y027595D02*
X032430Y027595D01*
X032430Y027436D02*
X033420Y027436D01*
X033449Y027448D02*
X033337Y027402D01*
X033251Y027316D01*
X033205Y027204D01*
X033205Y027083D01*
X033251Y026971D01*
X033290Y026932D01*
X033290Y018434D01*
X032968Y018113D01*
X032966Y018113D01*
X032949Y018154D01*
X032820Y018283D01*
X032651Y018353D01*
X031868Y018353D01*
X031699Y018283D01*
X031570Y018154D01*
X031500Y017985D01*
X031500Y017802D01*
X031570Y017633D01*
X031699Y017503D01*
X031868Y017433D01*
X032651Y017433D01*
X032820Y017503D01*
X032949Y017633D01*
X032966Y017673D01*
X033151Y017673D01*
X033730Y018252D01*
X033730Y026932D01*
X033768Y026971D01*
X033815Y027083D01*
X033815Y027204D01*
X033768Y027316D01*
X033682Y027402D01*
X033570Y027448D01*
X033449Y027448D01*
X033599Y027436D02*
X035539Y027436D01*
X035539Y027278D02*
X033784Y027278D01*
X033815Y027119D02*
X035539Y027119D01*
X035539Y026961D02*
X033758Y026961D01*
X033730Y026802D02*
X035538Y026802D01*
X035538Y026644D02*
X033730Y026644D01*
X033730Y026485D02*
X035538Y026485D01*
X035538Y026327D02*
X033730Y026327D01*
X033730Y026168D02*
X035537Y026168D01*
X035537Y026010D02*
X033730Y026010D01*
X033730Y025851D02*
X035537Y025851D01*
X035537Y025693D02*
X033730Y025693D01*
X033730Y025534D02*
X035536Y025534D01*
X035536Y025376D02*
X033730Y025376D01*
X033730Y025217D02*
X035536Y025217D01*
X035536Y025059D02*
X033730Y025059D01*
X033730Y024900D02*
X035535Y024900D01*
X035535Y024742D02*
X033730Y024742D01*
X033730Y024583D02*
X035535Y024583D01*
X035535Y024425D02*
X033730Y024425D01*
X033730Y024266D02*
X035534Y024266D01*
X035534Y024108D02*
X033730Y024108D01*
X033730Y023949D02*
X035534Y023949D01*
X035534Y023791D02*
X033730Y023791D01*
X033730Y023632D02*
X035533Y023632D01*
X035533Y023474D02*
X033730Y023474D01*
X033730Y023315D02*
X035533Y023315D01*
X035533Y023157D02*
X033730Y023157D01*
X033730Y022998D02*
X035532Y022998D01*
X035532Y022840D02*
X033730Y022840D01*
X033730Y022681D02*
X035532Y022681D01*
X035532Y022523D02*
X033730Y022523D01*
X033730Y022364D02*
X035531Y022364D01*
X035531Y022206D02*
X033730Y022206D01*
X033730Y022047D02*
X035531Y022047D01*
X035531Y021889D02*
X033730Y021889D01*
X033730Y021730D02*
X035530Y021730D01*
X035530Y021572D02*
X033730Y021572D01*
X033730Y021413D02*
X035530Y021413D01*
X035530Y021255D02*
X033730Y021255D01*
X033730Y021096D02*
X035529Y021096D01*
X035529Y020938D02*
X033730Y020938D01*
X033730Y020779D02*
X035529Y020779D01*
X035529Y020621D02*
X033730Y020621D01*
X033730Y020462D02*
X035528Y020462D01*
X035528Y020304D02*
X033730Y020304D01*
X033730Y020145D02*
X035528Y020145D01*
X035528Y019987D02*
X033730Y019987D01*
X033730Y019828D02*
X035527Y019828D01*
X035527Y019670D02*
X033730Y019670D01*
X033730Y019511D02*
X035527Y019511D01*
X035527Y019353D02*
X033730Y019353D01*
X033730Y019194D02*
X035526Y019194D01*
X035526Y019036D02*
X033730Y019036D01*
X033730Y018877D02*
X035526Y018877D01*
X035526Y018719D02*
X033730Y018719D01*
X033730Y018560D02*
X035525Y018560D01*
X035525Y018402D02*
X033730Y018402D01*
X033721Y018243D02*
X035525Y018243D01*
X035525Y018085D02*
X033562Y018085D01*
X033404Y017926D02*
X035524Y017926D01*
X035524Y017768D02*
X033245Y017768D01*
X032926Y017609D02*
X035524Y017609D01*
X035524Y017451D02*
X032693Y017451D01*
X032651Y017353D02*
X032820Y017283D01*
X032949Y017154D01*
X033020Y016985D01*
X033020Y016802D01*
X032949Y016633D01*
X032820Y016503D01*
X032651Y016433D01*
X031868Y016433D01*
X031699Y016503D01*
X031570Y016633D01*
X031500Y016802D01*
X031500Y016985D01*
X031570Y017154D01*
X031699Y017283D01*
X031868Y017353D01*
X032651Y017353D01*
X032798Y017292D02*
X035523Y017292D01*
X035523Y017134D02*
X032958Y017134D01*
X033020Y016975D02*
X035523Y016975D01*
X035523Y016817D02*
X033020Y016817D01*
X032960Y016658D02*
X035522Y016658D01*
X035522Y016500D02*
X032812Y016500D01*
X032744Y016338D02*
X032672Y016361D01*
X032597Y016373D01*
X032280Y016373D01*
X032280Y015913D01*
X033040Y015913D01*
X033040Y015931D01*
X033028Y016006D01*
X033004Y016078D01*
X032970Y016145D01*
X032926Y016206D01*
X032872Y016259D01*
X032811Y016304D01*
X032744Y016338D01*
X032734Y016341D02*
X035522Y016341D01*
X035522Y016183D02*
X032942Y016183D01*
X033022Y016024D02*
X035521Y016024D01*
X035521Y015866D02*
X033040Y015866D01*
X033040Y015873D02*
X032280Y015873D01*
X032280Y015913D01*
X032240Y015913D01*
X032240Y016373D01*
X031922Y016373D01*
X031847Y016361D01*
X031775Y016338D01*
X031708Y016304D01*
X031647Y016259D01*
X031593Y016206D01*
X031549Y016145D01*
X031515Y016078D01*
X031491Y016006D01*
X031480Y015931D01*
X031480Y015913D01*
X032240Y015913D01*
X032240Y015873D01*
X032280Y015873D01*
X032280Y015413D01*
X032597Y015413D01*
X032672Y015425D01*
X032744Y015448D01*
X032811Y015483D01*
X032872Y015527D01*
X032926Y015581D01*
X032970Y015642D01*
X033004Y015709D01*
X033028Y015781D01*
X033040Y015856D01*
X033040Y015873D01*
X033003Y015707D02*
X035521Y015707D01*
X035521Y015549D02*
X032894Y015549D01*
X032280Y015549D02*
X032240Y015549D01*
X032240Y015413D02*
X032240Y015873D01*
X031480Y015873D01*
X031480Y015856D01*
X031491Y015781D01*
X031515Y015709D01*
X031549Y015642D01*
X031593Y015581D01*
X031647Y015527D01*
X031708Y015483D01*
X031775Y015448D01*
X031847Y015425D01*
X031922Y015413D01*
X032240Y015413D01*
X032240Y015707D02*
X032280Y015707D01*
X032280Y015866D02*
X032240Y015866D01*
X032240Y016024D02*
X032280Y016024D01*
X032280Y016183D02*
X032240Y016183D01*
X032240Y016341D02*
X032280Y016341D01*
X031785Y016341D02*
X031108Y016341D01*
X031092Y016500D02*
X031707Y016500D01*
X031559Y016658D02*
X031000Y016658D01*
X031000Y016817D02*
X031500Y016817D01*
X031500Y016975D02*
X031000Y016975D01*
X031000Y017134D02*
X031561Y017134D01*
X031721Y017292D02*
X031000Y017292D01*
X031000Y017451D02*
X031826Y017451D01*
X031593Y017609D02*
X031000Y017609D01*
X031000Y017768D02*
X031514Y017768D01*
X031500Y017926D02*
X031000Y017926D01*
X031000Y018085D02*
X031541Y018085D01*
X031659Y018243D02*
X031028Y018243D01*
X031065Y018402D02*
X033257Y018402D01*
X033290Y018560D02*
X032877Y018560D01*
X032985Y018719D02*
X033290Y018719D01*
X033290Y018877D02*
X033020Y018877D01*
X032998Y019036D02*
X033290Y019036D01*
X033290Y019194D02*
X032909Y019194D01*
X032652Y019353D02*
X033290Y019353D01*
X033290Y019511D02*
X032480Y019511D01*
X032480Y019670D02*
X033290Y019670D01*
X033290Y019828D02*
X032480Y019828D01*
X032480Y019987D02*
X033290Y019987D01*
X033290Y020145D02*
X032480Y020145D01*
X032480Y020304D02*
X033290Y020304D01*
X033290Y020462D02*
X033007Y020462D01*
X032958Y020413D02*
X033240Y020694D01*
X033240Y020873D01*
X032780Y020873D01*
X032780Y020413D01*
X032958Y020413D01*
X032780Y020462D02*
X032740Y020462D01*
X032740Y020621D02*
X032780Y020621D01*
X032780Y020779D02*
X032740Y020779D01*
X032740Y020938D02*
X032780Y020938D01*
X032780Y021096D02*
X032740Y021096D01*
X032740Y021255D02*
X032780Y021255D01*
X032780Y021413D02*
X032958Y021413D01*
X033240Y021694D01*
X033240Y021873D01*
X032780Y021873D01*
X032780Y021413D01*
X032740Y021413D01*
X032740Y021572D02*
X032780Y021572D01*
X032780Y021730D02*
X032740Y021730D01*
X032780Y021889D02*
X033290Y021889D01*
X033290Y022047D02*
X033240Y022047D01*
X033290Y022206D02*
X033126Y022206D01*
X032967Y022364D02*
X033290Y022364D01*
X033290Y022523D02*
X032480Y022523D01*
X032480Y022681D02*
X033290Y022681D01*
X033290Y022840D02*
X032617Y022840D01*
X032776Y022998D02*
X033290Y022998D01*
X033290Y023157D02*
X032934Y023157D01*
X033093Y023315D02*
X033290Y023315D01*
X033290Y023474D02*
X033180Y023474D01*
X033180Y023632D02*
X033290Y023632D01*
X033290Y023791D02*
X033180Y023791D01*
X033180Y023949D02*
X033290Y023949D01*
X033290Y024108D02*
X033180Y024108D01*
X033180Y024266D02*
X033290Y024266D01*
X033290Y024425D02*
X033180Y024425D01*
X033180Y024583D02*
X033290Y024583D01*
X033290Y024742D02*
X033180Y024742D01*
X033180Y024900D02*
X033290Y024900D01*
X033290Y025059D02*
X033180Y025059D01*
X033180Y025217D02*
X033290Y025217D01*
X033290Y025376D02*
X033180Y025376D01*
X033180Y025534D02*
X033290Y025534D01*
X033290Y025693D02*
X033180Y025693D01*
X033180Y025851D02*
X033290Y025851D01*
X033290Y026010D02*
X033180Y026010D01*
X033180Y026168D02*
X033290Y026168D01*
X033290Y026327D02*
X033087Y026327D01*
X032929Y026485D02*
X033290Y026485D01*
X033290Y026644D02*
X032904Y026644D01*
X032970Y026802D02*
X033290Y026802D01*
X033261Y026961D02*
X032970Y026961D01*
X032914Y027119D02*
X033205Y027119D01*
X033235Y027278D02*
X032776Y027278D01*
X031990Y027436D02*
X031330Y027436D01*
X031330Y027278D02*
X031644Y027278D01*
X031505Y027119D02*
X031330Y027119D01*
X031330Y026961D02*
X031450Y026961D01*
X031450Y026802D02*
X031330Y026802D01*
X031330Y026644D02*
X031515Y026644D01*
X031692Y026485D02*
X031330Y026485D01*
X031330Y026327D02*
X031754Y026327D01*
X031534Y026168D02*
X031349Y026168D01*
X031437Y026010D02*
X031460Y026010D01*
X031450Y025851D02*
X031427Y025851D01*
X031495Y025693D02*
X031324Y025693D01*
X031618Y025534D02*
X029960Y025534D01*
X029960Y025376D02*
X032740Y025376D01*
X032740Y024425D02*
X029960Y024425D01*
X029960Y024583D02*
X031569Y024583D01*
X031474Y024742D02*
X029960Y024742D01*
X029960Y024900D02*
X031450Y024900D01*
X031480Y025059D02*
X029960Y025059D01*
X029960Y025217D02*
X031583Y025217D01*
X030896Y025693D02*
X029960Y025693D01*
X029960Y025851D02*
X030792Y025851D01*
X030782Y026010D02*
X029960Y026010D01*
X029960Y026168D02*
X030870Y026168D01*
X030890Y026327D02*
X029960Y026327D01*
X029960Y026485D02*
X030890Y026485D01*
X030890Y026644D02*
X030425Y026644D01*
X030527Y026802D02*
X030890Y026802D01*
X030890Y026961D02*
X030537Y026961D01*
X030480Y027119D02*
X030890Y027119D01*
X030890Y027278D02*
X030480Y027278D01*
X030480Y027436D02*
X030890Y027436D01*
X030890Y027595D02*
X030480Y027595D01*
X030480Y027753D02*
X030890Y027753D01*
X030890Y027912D02*
X030480Y027912D01*
X030480Y028070D02*
X030890Y028070D01*
X030890Y028229D02*
X030355Y028229D01*
X029960Y028387D02*
X030890Y028387D01*
X030890Y028546D02*
X029960Y028546D01*
X030021Y028704D02*
X030890Y028704D01*
X030890Y028863D02*
X030162Y028863D01*
X030220Y029021D02*
X030890Y029021D01*
X030890Y029180D02*
X030220Y029180D01*
X030220Y029338D02*
X030890Y029338D01*
X030890Y029497D02*
X030220Y029497D01*
X030220Y029655D02*
X030890Y029655D01*
X030890Y029814D02*
X030207Y029814D01*
X030131Y029972D02*
X030890Y029972D01*
X030890Y030131D02*
X029905Y030131D01*
X029614Y030131D02*
X028905Y030131D01*
X029131Y029972D02*
X029388Y029972D01*
X029312Y029814D02*
X029207Y029814D01*
X029220Y029655D02*
X029300Y029655D01*
X029300Y029497D02*
X029220Y029497D01*
X029220Y029338D02*
X029300Y029338D01*
X029300Y029180D02*
X029220Y029180D01*
X029220Y029021D02*
X029300Y029021D01*
X029357Y028863D02*
X029162Y028863D01*
X029021Y028704D02*
X029498Y028704D01*
X029560Y028546D02*
X028970Y028546D01*
X028970Y028387D02*
X029560Y028387D01*
X029560Y028229D02*
X028970Y028229D01*
X028970Y028070D02*
X029560Y028070D01*
X029560Y027912D02*
X028970Y027912D01*
X028970Y027753D02*
X029560Y027753D01*
X029560Y027595D02*
X028970Y027595D01*
X028970Y027436D02*
X029560Y027436D01*
X029560Y027278D02*
X028970Y027278D01*
X028970Y027119D02*
X029560Y027119D01*
X029560Y026961D02*
X028970Y026961D01*
X028970Y026802D02*
X029560Y026802D01*
X029560Y026644D02*
X028970Y026644D01*
X029349Y026485D02*
X029560Y026485D01*
X029560Y026327D02*
X029415Y026327D01*
X029388Y026168D02*
X029560Y026168D01*
X029560Y026010D02*
X029330Y026010D01*
X029330Y025851D02*
X029560Y025851D01*
X029560Y025693D02*
X029330Y025693D01*
X029330Y025534D02*
X029560Y025534D01*
X029560Y025376D02*
X029330Y025376D01*
X029330Y025217D02*
X029560Y025217D01*
X029560Y025059D02*
X029330Y025059D01*
X029330Y024900D02*
X029560Y024900D01*
X029560Y024742D02*
X029330Y024742D01*
X029330Y024583D02*
X029560Y024583D01*
X029560Y024425D02*
X029330Y024425D01*
X029330Y024266D02*
X029560Y024266D01*
X029560Y024108D02*
X029330Y024108D01*
X029330Y023949D02*
X029560Y023949D01*
X029560Y023791D02*
X029330Y023791D01*
X029452Y023632D02*
X029560Y023632D01*
X029556Y023474D02*
X029560Y023474D01*
X029557Y023315D02*
X029560Y023315D01*
X029560Y023157D02*
X029454Y023157D01*
X029560Y022998D02*
X028970Y022998D01*
X028970Y022840D02*
X029560Y022840D01*
X029560Y022681D02*
X028970Y022681D01*
X028970Y022523D02*
X029560Y022523D01*
X029560Y022364D02*
X028970Y022364D01*
X028970Y022206D02*
X029560Y022206D01*
X029560Y022047D02*
X028970Y022047D01*
X028970Y021889D02*
X029560Y021889D01*
X029560Y021730D02*
X028970Y021730D01*
X028970Y021572D02*
X029560Y021572D01*
X029560Y021413D02*
X028970Y021413D01*
X028970Y021255D02*
X029560Y021255D01*
X029560Y021096D02*
X029021Y021096D01*
X029088Y020938D02*
X029560Y020938D01*
X029486Y020779D02*
X029068Y020779D01*
X028952Y020621D02*
X029455Y020621D01*
X029509Y020462D02*
X027320Y020462D01*
X027320Y020304D02*
X029990Y020304D01*
X029990Y020145D02*
X027320Y020145D01*
X027320Y019987D02*
X029892Y019987D01*
X029733Y019828D02*
X027320Y019828D01*
X027320Y019670D02*
X029575Y019670D01*
X029416Y019511D02*
X027320Y019511D01*
X027320Y019353D02*
X029258Y019353D01*
X029099Y019194D02*
X027320Y019194D01*
X027320Y019036D02*
X028950Y019036D01*
X028950Y018877D02*
X027320Y018877D01*
X027320Y018719D02*
X028950Y018719D01*
X028950Y018560D02*
X027320Y018560D01*
X027320Y018406D02*
X027320Y023772D01*
X027368Y023821D01*
X027415Y023933D01*
X027415Y024054D01*
X027368Y024166D01*
X027282Y024252D01*
X027170Y024298D01*
X027049Y024298D01*
X026960Y024261D01*
X026960Y028678D01*
X027020Y028703D01*
X027149Y028833D01*
X027220Y029002D01*
X027220Y029785D01*
X027149Y029954D01*
X027020Y030083D01*
X026851Y030153D01*
X026668Y030153D01*
X026499Y030083D01*
X026370Y029954D01*
X026300Y029785D01*
X026300Y029002D01*
X026370Y028833D01*
X026499Y028703D01*
X026560Y028678D01*
X026560Y025932D01*
X026520Y025948D01*
X026399Y025948D01*
X026287Y025902D01*
X026201Y025816D01*
X026155Y025704D01*
X026155Y025621D01*
X026110Y025576D01*
X026110Y022476D01*
X025982Y022348D01*
X025899Y022348D01*
X025787Y022302D01*
X025701Y022216D01*
X025655Y022104D01*
X025655Y021983D01*
X025701Y021871D01*
X025787Y021785D01*
X025899Y021738D01*
X026020Y021738D01*
X026132Y021785D01*
X026218Y021871D01*
X026265Y021983D01*
X026265Y022065D01*
X026392Y022193D01*
X026510Y022310D01*
X026510Y025338D01*
X026520Y025338D01*
X026560Y025355D01*
X026560Y022025D01*
X026501Y021966D01*
X026455Y021854D01*
X026455Y021733D01*
X026501Y021621D01*
X026587Y021535D01*
X026699Y021488D01*
X026820Y021488D01*
X026900Y021521D01*
X026900Y018698D01*
X026899Y018698D01*
X026787Y018652D01*
X026701Y018566D01*
X026655Y018454D01*
X026655Y018333D01*
X026701Y018221D01*
X026787Y018135D01*
X026899Y018088D01*
X027020Y018088D01*
X027132Y018135D01*
X027218Y018221D01*
X027265Y018333D01*
X027265Y018351D01*
X027320Y018406D01*
X027315Y018402D02*
X028950Y018402D01*
X028950Y018243D02*
X027228Y018243D01*
X026692Y018243D02*
X026330Y018243D01*
X026330Y018085D02*
X028950Y018085D01*
X028950Y017926D02*
X026330Y017926D01*
X026330Y017768D02*
X028950Y017768D01*
X028950Y017609D02*
X026330Y017609D01*
X026330Y017451D02*
X028950Y017451D01*
X028950Y017292D02*
X026330Y017292D01*
X026330Y017134D02*
X028950Y017134D01*
X028950Y016975D02*
X026330Y016975D01*
X026330Y016817D02*
X028950Y016817D01*
X028950Y016658D02*
X026330Y016658D01*
X026330Y016500D02*
X028950Y016500D01*
X028950Y016341D02*
X026330Y016341D01*
X026330Y016183D02*
X028950Y016183D01*
X028950Y016024D02*
X026330Y016024D01*
X026330Y015866D02*
X028950Y015866D01*
X028950Y015707D02*
X026330Y015707D01*
X026330Y015549D02*
X028950Y015549D01*
X028950Y015390D02*
X026330Y015390D01*
X026330Y015232D02*
X028950Y015232D01*
X028950Y015073D02*
X026237Y015073D01*
X026320Y015156D02*
X026320Y015192D01*
X026330Y015202D01*
X026330Y020234D01*
X026201Y020363D01*
X026172Y020363D01*
X025642Y020893D01*
X025191Y020893D01*
X025132Y020952D01*
X025020Y020998D01*
X024899Y020998D01*
X024787Y020952D01*
X024701Y020866D01*
X024655Y020754D01*
X024655Y020633D01*
X024701Y020521D01*
X024787Y020435D01*
X024899Y020388D01*
X025020Y020388D01*
X025132Y020435D01*
X025191Y020493D01*
X025477Y020493D01*
X025890Y020080D01*
X025890Y015320D01*
X025803Y015233D01*
X025023Y015233D01*
X024911Y015122D01*
X024814Y015122D01*
X024693Y015072D01*
X024601Y014979D01*
X024551Y014859D01*
X024551Y014728D01*
X024601Y014607D01*
X024693Y014515D01*
X024814Y014465D01*
X024945Y014465D01*
X025066Y014515D01*
X025158Y014607D01*
X025208Y014728D01*
X025208Y014813D01*
X025976Y014813D01*
X026100Y014936D01*
X026320Y015156D01*
X026078Y014915D02*
X028950Y014915D01*
X028950Y014756D02*
X025208Y014756D01*
X025148Y014598D02*
X028950Y014598D01*
X028950Y014439D02*
X022230Y014439D01*
X022230Y014281D02*
X028950Y014281D01*
X028950Y014122D02*
X022230Y014122D01*
X022230Y013964D02*
X028950Y013964D01*
X028950Y013805D02*
X022230Y013805D01*
X022230Y013647D02*
X028950Y013647D01*
X028818Y013488D02*
X022230Y013488D01*
X022230Y013330D02*
X028492Y013330D01*
X028373Y013171D02*
X022230Y013171D01*
X022230Y013013D02*
X028351Y013013D01*
X028414Y012854D02*
X022230Y012854D01*
X022230Y012696D02*
X031611Y012696D01*
X031521Y012537D02*
X022230Y012537D01*
X022230Y012379D02*
X031500Y012379D01*
X031533Y012220D02*
X022230Y012220D01*
X022230Y012062D02*
X031640Y012062D01*
X031699Y011783D02*
X031570Y011654D01*
X031500Y011485D01*
X031500Y011302D01*
X031570Y011133D01*
X031699Y011003D01*
X031868Y010933D01*
X032651Y010933D01*
X032820Y011003D01*
X032949Y011133D01*
X033020Y011302D01*
X033020Y011485D01*
X032949Y011654D01*
X032820Y011783D01*
X032651Y011853D01*
X031868Y011853D01*
X031699Y011783D01*
X031660Y011745D02*
X023448Y011745D01*
X023513Y011586D02*
X031542Y011586D01*
X031500Y011428D02*
X026639Y011428D01*
X026688Y011269D02*
X031513Y011269D01*
X031591Y011111D02*
X026660Y011111D01*
X026580Y010952D02*
X031822Y010952D01*
X031724Y010794D02*
X026580Y010794D01*
X026580Y010635D02*
X031562Y010635D01*
X031500Y010477D02*
X026580Y010477D01*
X026580Y010318D02*
X031500Y010318D01*
X031479Y010160D02*
X026537Y010160D01*
X026379Y010001D02*
X031321Y010001D01*
X031162Y009843D02*
X026220Y009843D01*
X025915Y010160D02*
X024663Y010160D01*
X024356Y010160D02*
X023670Y010160D01*
X023670Y010318D02*
X026073Y010318D01*
X026140Y010477D02*
X023670Y010477D01*
X023670Y010635D02*
X026140Y010635D01*
X026140Y010794D02*
X023670Y010794D01*
X023670Y010952D02*
X026140Y010952D01*
X026059Y011111D02*
X023670Y011111D01*
X023670Y011269D02*
X026031Y011269D01*
X026080Y011428D02*
X023670Y011428D01*
X023329Y011903D02*
X033117Y011903D01*
X033160Y011745D02*
X032859Y011745D01*
X032977Y011586D02*
X033160Y011586D01*
X033160Y011428D02*
X033020Y011428D01*
X033006Y011269D02*
X033160Y011269D01*
X033160Y011111D02*
X032928Y011111D01*
X032697Y010952D02*
X033160Y010952D01*
X033160Y010794D02*
X032795Y010794D01*
X032957Y010635D02*
X033160Y010635D01*
X033160Y010477D02*
X033020Y010477D01*
X033020Y010318D02*
X033160Y010318D01*
X033160Y010160D02*
X032961Y010160D01*
X032815Y010001D02*
X033160Y010001D01*
X033160Y009843D02*
X032676Y009843D01*
X032919Y009684D02*
X033160Y009684D01*
X033160Y009526D02*
X033003Y009526D01*
X033020Y009367D02*
X033160Y009367D01*
X033160Y009209D02*
X032981Y009209D01*
X032867Y009050D02*
X033160Y009050D01*
X033160Y008892D02*
X023144Y008892D01*
X023206Y009050D02*
X022985Y009050D01*
X023047Y009209D02*
X022827Y009209D01*
X022889Y009367D02*
X022668Y009367D01*
X022610Y009526D02*
X022750Y009526D01*
X022750Y009684D02*
X022610Y009684D01*
X022610Y009843D02*
X022750Y009843D01*
X022750Y010001D02*
X022610Y010001D01*
X022610Y010160D02*
X022750Y010160D01*
X022750Y010318D02*
X022610Y010318D01*
X022610Y010477D02*
X022750Y010477D01*
X022750Y010635D02*
X022610Y010635D01*
X022610Y010794D02*
X022750Y010794D01*
X022750Y010952D02*
X022610Y010952D01*
X022610Y011111D02*
X022684Y011111D01*
X022210Y010952D02*
X022080Y010952D01*
X022101Y010973D02*
X022101Y010973D01*
X022028Y010794D02*
X022210Y010794D01*
X022210Y010635D02*
X021184Y010635D01*
X021112Y010477D02*
X022210Y010477D01*
X022210Y010318D02*
X021016Y010318D01*
X020603Y010318D02*
X020470Y010318D01*
X020470Y010160D02*
X022210Y010160D01*
X022210Y010001D02*
X020470Y010001D01*
X020470Y009843D02*
X022210Y009843D01*
X022210Y009684D02*
X020470Y009684D01*
X020470Y009526D02*
X022210Y009526D01*
X022210Y009367D02*
X020470Y009367D01*
X020470Y009209D02*
X022261Y009209D01*
X022420Y009050D02*
X020470Y009050D01*
X020470Y008892D02*
X022578Y008892D01*
X022737Y008733D02*
X020470Y008733D01*
X020470Y008575D02*
X022895Y008575D01*
X023040Y008416D02*
X020470Y008416D01*
X020470Y008258D02*
X023727Y008258D01*
X023705Y008099D02*
X020470Y008099D01*
X020470Y007941D02*
X023781Y007941D01*
X024238Y007941D02*
X030729Y007941D01*
X030888Y007782D02*
X020470Y007782D01*
X020470Y007624D02*
X031046Y007624D01*
X032916Y008099D02*
X032983Y008099D01*
X033001Y008258D02*
X033141Y008258D01*
X033160Y008416D02*
X033020Y008416D01*
X032982Y008575D02*
X033160Y008575D01*
X033160Y008733D02*
X032870Y008733D01*
X033560Y008733D02*
X035510Y008733D01*
X035509Y008575D02*
X033560Y008575D01*
X033560Y008416D02*
X035509Y008416D01*
X035509Y008258D02*
X033560Y008258D01*
X033548Y008099D02*
X035509Y008099D01*
X035508Y007941D02*
X033390Y007941D01*
X033231Y007782D02*
X035508Y007782D01*
X035508Y007624D02*
X033073Y007624D01*
X033560Y008892D02*
X035510Y008892D01*
X035510Y009050D02*
X033560Y009050D01*
X033560Y009209D02*
X035510Y009209D01*
X035511Y009367D02*
X033560Y009367D01*
X033560Y009526D02*
X035511Y009526D01*
X035511Y009684D02*
X033560Y009684D01*
X033560Y009843D02*
X035511Y009843D01*
X035512Y010001D02*
X033560Y010001D01*
X033560Y010160D02*
X035512Y010160D01*
X035512Y010318D02*
X033560Y010318D01*
X033560Y010477D02*
X035512Y010477D01*
X035513Y010635D02*
X033560Y010635D01*
X033560Y010794D02*
X035513Y010794D01*
X035513Y010952D02*
X033560Y010952D01*
X033560Y011111D02*
X035513Y011111D01*
X035514Y011269D02*
X033560Y011269D01*
X033560Y011428D02*
X035514Y011428D01*
X035514Y011586D02*
X033560Y011586D01*
X033560Y011745D02*
X035514Y011745D01*
X035515Y011903D02*
X033560Y011903D01*
X033524Y012062D02*
X035515Y012062D01*
X035515Y012220D02*
X033365Y012220D01*
X033207Y012379D02*
X035516Y012379D01*
X035516Y012537D02*
X033048Y012537D01*
X032908Y012696D02*
X035516Y012696D01*
X035516Y012854D02*
X028945Y012854D01*
X029008Y013013D02*
X035517Y013013D01*
X035517Y013171D02*
X029095Y013171D01*
X029267Y013330D02*
X035517Y013330D01*
X035517Y013488D02*
X029390Y013488D01*
X029390Y013647D02*
X035518Y013647D01*
X035518Y013805D02*
X029390Y013805D01*
X029390Y013964D02*
X035518Y013964D01*
X035518Y014122D02*
X029390Y014122D01*
X029390Y014281D02*
X035519Y014281D01*
X035519Y014439D02*
X029390Y014439D01*
X029390Y014598D02*
X035519Y014598D01*
X035519Y014756D02*
X029390Y014756D01*
X029390Y014915D02*
X035520Y014915D01*
X035520Y015073D02*
X029390Y015073D01*
X029390Y015232D02*
X035520Y015232D01*
X035520Y015390D02*
X029390Y015390D01*
X029390Y015549D02*
X031625Y015549D01*
X031516Y015707D02*
X029390Y015707D01*
X029390Y015866D02*
X031480Y015866D01*
X031497Y016024D02*
X029390Y016024D01*
X029390Y016183D02*
X030478Y016183D01*
X030411Y016341D02*
X029390Y016341D01*
X029390Y016500D02*
X030427Y016500D01*
X030520Y016658D02*
X029390Y016658D01*
X029390Y016817D02*
X030072Y016817D01*
X029953Y016975D02*
X029390Y016975D01*
X029390Y017134D02*
X029931Y017134D01*
X029994Y017292D02*
X029390Y017292D01*
X029390Y017451D02*
X030000Y017451D01*
X030000Y017609D02*
X029390Y017609D01*
X029390Y017768D02*
X030000Y017768D01*
X030000Y017926D02*
X029390Y017926D01*
X029390Y018085D02*
X030000Y018085D01*
X030000Y018243D02*
X029390Y018243D01*
X029390Y018402D02*
X030000Y018402D01*
X030000Y018560D02*
X029390Y018560D01*
X029390Y018719D02*
X030000Y018719D01*
X030000Y018877D02*
X029405Y018877D01*
X029563Y019036D02*
X029703Y019036D01*
X030305Y019194D02*
X031610Y019194D01*
X031521Y019036D02*
X030420Y019036D01*
X030420Y018877D02*
X031500Y018877D01*
X031534Y018719D02*
X030420Y018719D01*
X030420Y018560D02*
X030499Y018560D01*
X030455Y018402D02*
X030420Y018402D01*
X030420Y018243D02*
X030492Y018243D01*
X030520Y018085D02*
X030420Y018085D01*
X030420Y017926D02*
X030520Y017926D01*
X030520Y017768D02*
X030420Y017768D01*
X030420Y017609D02*
X030520Y017609D01*
X030520Y017451D02*
X030420Y017451D01*
X030447Y016817D02*
X030520Y016817D01*
X030760Y016393D02*
X030760Y018393D01*
X031020Y018560D02*
X031642Y018560D01*
X031867Y019353D02*
X030270Y019353D01*
X030156Y019511D02*
X032040Y019511D01*
X032040Y019670D02*
X030197Y019670D01*
X030356Y019828D02*
X032040Y019828D01*
X032040Y019987D02*
X030430Y019987D01*
X030430Y020145D02*
X032040Y020145D01*
X032040Y020304D02*
X030430Y020304D01*
X030430Y020462D02*
X031540Y020462D01*
X031381Y020621D02*
X030430Y020621D01*
X030430Y020779D02*
X031300Y020779D01*
X031300Y020938D02*
X030430Y020938D01*
X030430Y021096D02*
X031312Y021096D01*
X031471Y021255D02*
X030532Y021255D01*
X030691Y021413D02*
X032040Y021413D01*
X032480Y021413D02*
X032561Y021413D01*
X032958Y021413D02*
X033290Y021413D01*
X033290Y021255D02*
X033077Y021255D01*
X033235Y021096D02*
X033290Y021096D01*
X033290Y020938D02*
X033240Y020938D01*
X033240Y020779D02*
X033290Y020779D01*
X033290Y020621D02*
X033166Y020621D01*
X032512Y020462D02*
X032480Y020462D01*
X032040Y020462D02*
X031979Y020462D01*
X031430Y021572D02*
X030849Y021572D01*
X030544Y021889D02*
X029960Y021889D01*
X029960Y022047D02*
X030702Y022047D01*
X030385Y021730D02*
X029960Y021730D01*
X029960Y021572D02*
X030227Y021572D01*
X030068Y021413D02*
X029960Y021413D01*
X029960Y021255D02*
X029990Y021255D01*
X029990Y021096D02*
X029960Y021096D01*
X029960Y020938D02*
X029990Y020938D01*
X029960Y022206D02*
X031422Y022206D01*
X032040Y022364D02*
X029960Y022364D01*
X029960Y022523D02*
X032040Y022523D01*
X032040Y022681D02*
X029960Y022681D01*
X029960Y022840D02*
X032040Y022840D01*
X032153Y022998D02*
X029960Y022998D01*
X029960Y023157D02*
X032312Y023157D01*
X032470Y023315D02*
X029960Y023315D01*
X029960Y023474D02*
X031675Y023474D01*
X031658Y023483D02*
X031725Y023448D01*
X031797Y023425D01*
X031872Y023413D01*
X032190Y023413D01*
X032190Y023873D01*
X031430Y023873D01*
X031430Y023856D01*
X031441Y023781D01*
X031465Y023709D01*
X031499Y023642D01*
X031543Y023581D01*
X031597Y023527D01*
X031658Y023483D01*
X031506Y023632D02*
X029960Y023632D01*
X029960Y023791D02*
X031440Y023791D01*
X031432Y023949D02*
X029960Y023949D01*
X029960Y024108D02*
X031480Y024108D01*
X031606Y024266D02*
X029960Y024266D01*
X029065Y023157D02*
X028970Y023157D01*
X028550Y023157D02*
X027960Y023157D01*
X027960Y023315D02*
X028550Y023315D01*
X028550Y023474D02*
X027960Y023474D01*
X027960Y023632D02*
X028550Y023632D01*
X028550Y023791D02*
X027960Y023791D01*
X027960Y023949D02*
X028550Y023949D01*
X028550Y024108D02*
X027960Y024108D01*
X027960Y024266D02*
X028550Y024266D01*
X028550Y024425D02*
X027960Y024425D01*
X027960Y024583D02*
X028550Y024583D01*
X028550Y024742D02*
X027960Y024742D01*
X027960Y024900D02*
X028550Y024900D01*
X028550Y025059D02*
X027960Y025059D01*
X027960Y025217D02*
X028550Y025217D01*
X028550Y025376D02*
X027960Y025376D01*
X027960Y025534D02*
X028550Y025534D01*
X028129Y025693D02*
X027960Y025693D01*
X027960Y025851D02*
X028055Y025851D01*
X028040Y026010D02*
X027960Y026010D01*
X027960Y026168D02*
X028040Y026168D01*
X028040Y026327D02*
X027960Y026327D01*
X027960Y026485D02*
X028040Y026485D01*
X028040Y026644D02*
X027960Y026644D01*
X027960Y026802D02*
X028040Y026802D01*
X028040Y026961D02*
X027960Y026961D01*
X027960Y027119D02*
X028040Y027119D01*
X028040Y027278D02*
X027960Y027278D01*
X027960Y027436D02*
X028040Y027436D01*
X028040Y027595D02*
X027960Y027595D01*
X027960Y027753D02*
X028040Y027753D01*
X028040Y027912D02*
X027960Y027912D01*
X027960Y028070D02*
X028040Y028070D01*
X027998Y028229D02*
X027960Y028229D01*
X027960Y028546D02*
X027993Y028546D01*
X028021Y028704D02*
X028498Y028704D01*
X028526Y028546D02*
X028550Y028546D01*
X028357Y028863D02*
X028162Y028863D01*
X028220Y029021D02*
X028300Y029021D01*
X028300Y029180D02*
X028220Y029180D01*
X028220Y029338D02*
X028300Y029338D01*
X028300Y029497D02*
X028220Y029497D01*
X028220Y029655D02*
X028300Y029655D01*
X028312Y029814D02*
X028207Y029814D01*
X028131Y029972D02*
X028388Y029972D01*
X028614Y030131D02*
X027905Y030131D01*
X027614Y030131D02*
X026905Y030131D01*
X027131Y029972D02*
X027388Y029972D01*
X027312Y029814D02*
X027207Y029814D01*
X027220Y029655D02*
X027300Y029655D01*
X027300Y029497D02*
X027220Y029497D01*
X027220Y029338D02*
X027300Y029338D01*
X027300Y029180D02*
X027220Y029180D01*
X027220Y029021D02*
X027300Y029021D01*
X027357Y028863D02*
X027162Y028863D01*
X027021Y028704D02*
X027498Y028704D01*
X027560Y028546D02*
X026960Y028546D01*
X026960Y028387D02*
X027560Y028387D01*
X027560Y028229D02*
X026960Y028229D01*
X026960Y028070D02*
X027560Y028070D01*
X027560Y027912D02*
X026960Y027912D01*
X026960Y027753D02*
X027560Y027753D01*
X027560Y027595D02*
X026960Y027595D01*
X026960Y027436D02*
X027560Y027436D01*
X027560Y027278D02*
X026960Y027278D01*
X026960Y027119D02*
X027560Y027119D01*
X027560Y026961D02*
X026960Y026961D01*
X026960Y026802D02*
X027560Y026802D01*
X027560Y026644D02*
X026960Y026644D01*
X026960Y026485D02*
X027560Y026485D01*
X027560Y026327D02*
X026960Y026327D01*
X026960Y026168D02*
X027560Y026168D01*
X027560Y026010D02*
X026960Y026010D01*
X026960Y025851D02*
X027560Y025851D01*
X027560Y025693D02*
X026960Y025693D01*
X026960Y025534D02*
X027560Y025534D01*
X027560Y025376D02*
X026960Y025376D01*
X026960Y025217D02*
X027560Y025217D01*
X027560Y025059D02*
X026960Y025059D01*
X026960Y024900D02*
X027560Y024900D01*
X027560Y024742D02*
X026960Y024742D01*
X026960Y024583D02*
X027560Y024583D01*
X027560Y024425D02*
X026960Y024425D01*
X026960Y024266D02*
X026972Y024266D01*
X027247Y024266D02*
X027560Y024266D01*
X027560Y024108D02*
X027392Y024108D01*
X027415Y023949D02*
X027560Y023949D01*
X027560Y023791D02*
X027338Y023791D01*
X027320Y023632D02*
X027560Y023632D01*
X027560Y023474D02*
X027320Y023474D01*
X027320Y023315D02*
X027560Y023315D01*
X027560Y023157D02*
X027320Y023157D01*
X027320Y022998D02*
X027560Y022998D01*
X027560Y022840D02*
X027320Y022840D01*
X027320Y022681D02*
X027560Y022681D01*
X027560Y022523D02*
X027320Y022523D01*
X027320Y022364D02*
X027560Y022364D01*
X027560Y022206D02*
X027320Y022206D01*
X027320Y022047D02*
X027560Y022047D01*
X027560Y021889D02*
X027320Y021889D01*
X027320Y021730D02*
X027515Y021730D01*
X027455Y021572D02*
X027320Y021572D01*
X027320Y021413D02*
X027483Y021413D01*
X027320Y021255D02*
X027659Y021255D01*
X027860Y021255D02*
X028550Y021255D01*
X028550Y021413D02*
X028036Y021413D01*
X028065Y021572D02*
X028550Y021572D01*
X028550Y021730D02*
X028004Y021730D01*
X027960Y021889D02*
X028550Y021889D01*
X028550Y022047D02*
X027960Y022047D01*
X027960Y022206D02*
X028550Y022206D01*
X028550Y022364D02*
X027960Y022364D01*
X027960Y022523D02*
X028550Y022523D01*
X028550Y022681D02*
X027960Y022681D01*
X027960Y022840D02*
X028550Y022840D01*
X028550Y022998D02*
X027960Y022998D01*
X026560Y022998D02*
X026510Y022998D01*
X026510Y022840D02*
X026560Y022840D01*
X026560Y022681D02*
X026510Y022681D01*
X026510Y022523D02*
X026560Y022523D01*
X026560Y022364D02*
X026510Y022364D01*
X026560Y022206D02*
X026405Y022206D01*
X026265Y022047D02*
X026560Y022047D01*
X026469Y021889D02*
X026226Y021889D01*
X026455Y021730D02*
X024629Y021730D01*
X024471Y021572D02*
X026550Y021572D01*
X026900Y021413D02*
X022860Y021413D01*
X022860Y021255D02*
X026900Y021255D01*
X026900Y021096D02*
X022860Y021096D01*
X022860Y020938D02*
X024773Y020938D01*
X024665Y020779D02*
X022860Y020779D01*
X022860Y020621D02*
X024659Y020621D01*
X024759Y020462D02*
X022860Y020462D01*
X022860Y020304D02*
X025666Y020304D01*
X025508Y020462D02*
X025160Y020462D01*
X025146Y020938D02*
X026900Y020938D01*
X026900Y020779D02*
X025756Y020779D01*
X025915Y020621D02*
X026900Y020621D01*
X026900Y020462D02*
X026073Y020462D01*
X026260Y020304D02*
X026900Y020304D01*
X026900Y020145D02*
X026330Y020145D01*
X026330Y019987D02*
X026900Y019987D01*
X026900Y019828D02*
X026330Y019828D01*
X026330Y019670D02*
X026900Y019670D01*
X026900Y019511D02*
X026330Y019511D01*
X026330Y019353D02*
X026900Y019353D01*
X026900Y019194D02*
X026330Y019194D01*
X026330Y019036D02*
X026900Y019036D01*
X026900Y018877D02*
X026330Y018877D01*
X026330Y018719D02*
X026900Y018719D01*
X026699Y018560D02*
X026330Y018560D01*
X026330Y018402D02*
X026655Y018402D01*
X025890Y018402D02*
X021962Y018402D01*
X021804Y018560D02*
X025890Y018560D01*
X025890Y018719D02*
X021645Y018719D01*
X021875Y019036D02*
X020578Y019036D01*
X020430Y019194D02*
X021811Y019194D01*
X021811Y019174D02*
X021864Y019046D01*
X021962Y018948D01*
X022090Y018895D01*
X022229Y018895D01*
X022357Y018948D01*
X022455Y019046D01*
X022508Y019174D01*
X022508Y019313D01*
X022455Y019440D01*
X022357Y019538D01*
X022229Y019591D01*
X022120Y019591D01*
X022120Y019702D01*
X022187Y019635D01*
X022299Y019588D01*
X022420Y019588D01*
X022532Y019635D01*
X022618Y019721D01*
X022665Y019833D01*
X022665Y019915D01*
X022742Y019993D01*
X022742Y019993D01*
X022860Y020110D01*
X022860Y023562D01*
X022918Y023621D01*
X022965Y023733D01*
X022965Y023854D01*
X022918Y023966D01*
X022832Y024052D01*
X022739Y024090D01*
X022832Y024183D01*
X022846Y024183D01*
X022970Y024306D01*
X022970Y028682D01*
X023020Y028703D01*
X023149Y028833D01*
X023220Y029002D01*
X023220Y029785D01*
X023149Y029954D01*
X023020Y030083D01*
X022851Y030153D01*
X022668Y030153D01*
X022499Y030083D01*
X022370Y029954D01*
X022300Y029785D01*
X022300Y029002D01*
X022370Y028833D01*
X022499Y028703D01*
X022550Y028682D01*
X022550Y024466D01*
X022500Y024417D01*
X022496Y024422D01*
X022375Y024472D01*
X022244Y024472D01*
X022123Y024422D01*
X022120Y024418D01*
X022120Y024722D01*
X022168Y024771D01*
X022215Y024883D01*
X022215Y025004D01*
X022168Y025116D01*
X022082Y025202D01*
X021970Y025248D01*
X021849Y025248D01*
X021737Y025202D01*
X021651Y025116D01*
X021605Y025004D01*
X021605Y024883D01*
X021651Y024771D01*
X021700Y024722D01*
X021700Y019406D01*
X021811Y019294D01*
X021811Y019174D01*
X021753Y019353D02*
X020430Y019353D01*
X020430Y019511D02*
X021700Y019511D01*
X021700Y019670D02*
X020430Y019670D01*
X020430Y019828D02*
X021700Y019828D01*
X021700Y019987D02*
X020430Y019987D01*
X020430Y020145D02*
X021700Y020145D01*
X021700Y020304D02*
X020430Y020304D01*
X020430Y020462D02*
X021700Y020462D01*
X021700Y020621D02*
X020430Y020621D01*
X020430Y020779D02*
X021700Y020779D01*
X021700Y020938D02*
X020430Y020938D01*
X020430Y021096D02*
X021700Y021096D01*
X021700Y021255D02*
X020430Y021255D01*
X020430Y021413D02*
X021700Y021413D01*
X021700Y021572D02*
X020430Y021572D01*
X020430Y021730D02*
X021700Y021730D01*
X021700Y021889D02*
X020430Y021889D01*
X020430Y022047D02*
X021700Y022047D01*
X021700Y022206D02*
X020430Y022206D01*
X020430Y022364D02*
X021700Y022364D01*
X021700Y022523D02*
X020430Y022523D01*
X020430Y022681D02*
X021700Y022681D01*
X021700Y022840D02*
X020430Y022840D01*
X020430Y022998D02*
X021700Y022998D01*
X021700Y023157D02*
X020430Y023157D01*
X020430Y023315D02*
X021700Y023315D01*
X021700Y023474D02*
X020430Y023474D01*
X020923Y023632D02*
X021700Y023632D01*
X021700Y023791D02*
X020965Y023791D01*
X021113Y023949D02*
X021700Y023949D01*
X021700Y024108D02*
X021220Y024108D01*
X021220Y024266D02*
X021700Y024266D01*
X021700Y024425D02*
X021220Y024425D01*
X021220Y024583D02*
X021700Y024583D01*
X021680Y024742D02*
X021220Y024742D01*
X021220Y024900D02*
X021605Y024900D01*
X021627Y025059D02*
X021220Y025059D01*
X021220Y025217D02*
X021774Y025217D01*
X022045Y025217D02*
X022550Y025217D01*
X022550Y025059D02*
X022192Y025059D01*
X022215Y024900D02*
X022550Y024900D01*
X022550Y024742D02*
X022139Y024742D01*
X022120Y024583D02*
X022550Y024583D01*
X022508Y024425D02*
X022488Y024425D01*
X022131Y024425D02*
X022120Y024425D01*
X022757Y024108D02*
X023550Y024108D01*
X023550Y024266D02*
X022930Y024266D01*
X022970Y024425D02*
X023550Y024425D01*
X023550Y024583D02*
X022970Y024583D01*
X022970Y024742D02*
X023550Y024742D01*
X023550Y024900D02*
X022970Y024900D01*
X022970Y025059D02*
X023550Y025059D01*
X023550Y025217D02*
X022970Y025217D01*
X022970Y025376D02*
X023550Y025376D01*
X023550Y025534D02*
X022970Y025534D01*
X022970Y025693D02*
X023550Y025693D01*
X023550Y025795D02*
X023550Y023639D01*
X023388Y023396D01*
X023382Y023402D01*
X023270Y023448D01*
X023149Y023448D01*
X023037Y023402D01*
X022951Y023316D01*
X022905Y023204D01*
X022905Y023083D01*
X022951Y022971D01*
X023037Y022885D01*
X023149Y022838D01*
X023270Y022838D01*
X023382Y022885D01*
X023431Y022934D01*
X023479Y022943D01*
X023542Y022943D01*
X023558Y022959D01*
X023580Y022963D01*
X023615Y023016D01*
X023660Y023060D01*
X023660Y023083D01*
X023887Y023423D01*
X023955Y023491D01*
X023955Y023383D01*
X024001Y023271D01*
X024087Y023185D01*
X024199Y023138D01*
X024320Y023138D01*
X024410Y023175D01*
X024410Y022076D01*
X024334Y022000D01*
X024332Y022002D01*
X024220Y022048D01*
X024099Y022048D01*
X023987Y022002D01*
X023901Y021916D01*
X023855Y021804D01*
X023855Y021683D01*
X023901Y021571D01*
X023987Y021485D01*
X024099Y021438D01*
X024220Y021438D01*
X024332Y021485D01*
X024391Y021543D01*
X024442Y021543D01*
X024810Y021910D01*
X024810Y023060D01*
X024887Y023138D01*
X024970Y023138D01*
X025082Y023185D01*
X025168Y023271D01*
X025215Y023383D01*
X025215Y023504D01*
X025168Y023616D01*
X025082Y023702D01*
X024970Y023748D01*
X024897Y023748D01*
X024960Y023810D01*
X024960Y028678D01*
X025020Y028703D01*
X025149Y028833D01*
X025220Y029002D01*
X025220Y029785D01*
X025149Y029954D01*
X025020Y030083D01*
X024851Y030153D01*
X024668Y030153D01*
X024499Y030083D01*
X024370Y029954D01*
X024300Y029785D01*
X024300Y029002D01*
X024370Y028833D01*
X024499Y028703D01*
X024560Y028678D01*
X024560Y023976D01*
X024328Y023745D01*
X024320Y023748D01*
X024199Y023748D01*
X024087Y023702D01*
X024001Y023616D01*
X023970Y023540D01*
X023970Y023548D01*
X023972Y023551D01*
X023970Y023563D01*
X023970Y028682D01*
X024020Y028703D01*
X024149Y028833D01*
X024220Y029002D01*
X024220Y029785D01*
X024149Y029954D01*
X024020Y030083D01*
X023851Y030153D01*
X023668Y030153D01*
X023499Y030083D01*
X023370Y029954D01*
X023300Y029785D01*
X023300Y029002D01*
X023370Y028833D01*
X023499Y028703D01*
X023550Y028682D01*
X023550Y027841D01*
X023429Y027891D01*
X023290Y027891D01*
X023162Y027838D01*
X023064Y027740D01*
X023011Y027613D01*
X023011Y027474D01*
X023064Y027346D01*
X023140Y027271D01*
X023140Y026366D01*
X023064Y026290D01*
X023011Y026163D01*
X023011Y026024D01*
X023064Y025896D01*
X023162Y025798D01*
X023290Y025745D01*
X023429Y025745D01*
X023550Y025795D01*
X023109Y025851D02*
X022970Y025851D01*
X022970Y026010D02*
X023017Y026010D01*
X023014Y026168D02*
X022970Y026168D01*
X022970Y026327D02*
X023101Y026327D01*
X023140Y026485D02*
X022970Y026485D01*
X022970Y026644D02*
X023140Y026644D01*
X023140Y026802D02*
X022970Y026802D01*
X022970Y026961D02*
X023140Y026961D01*
X023140Y027119D02*
X022970Y027119D01*
X022970Y027278D02*
X023133Y027278D01*
X023027Y027436D02*
X022970Y027436D01*
X022970Y027595D02*
X023011Y027595D01*
X022970Y027753D02*
X023077Y027753D01*
X022970Y027912D02*
X023550Y027912D01*
X023550Y028070D02*
X022970Y028070D01*
X022970Y028229D02*
X023550Y028229D01*
X023550Y028387D02*
X022970Y028387D01*
X022970Y028546D02*
X023550Y028546D01*
X023498Y028704D02*
X023021Y028704D01*
X023162Y028863D02*
X023357Y028863D01*
X023300Y029021D02*
X023220Y029021D01*
X023220Y029180D02*
X023300Y029180D01*
X023300Y029338D02*
X023220Y029338D01*
X023220Y029497D02*
X023300Y029497D01*
X023300Y029655D02*
X023220Y029655D01*
X023207Y029814D02*
X023312Y029814D01*
X023388Y029972D02*
X023131Y029972D01*
X022905Y030131D02*
X023614Y030131D01*
X023905Y030131D02*
X024614Y030131D01*
X024388Y029972D02*
X024131Y029972D01*
X024207Y029814D02*
X024312Y029814D01*
X024300Y029655D02*
X024220Y029655D01*
X024220Y029497D02*
X024300Y029497D01*
X024300Y029338D02*
X024220Y029338D01*
X024220Y029180D02*
X024300Y029180D01*
X024300Y029021D02*
X024220Y029021D01*
X024162Y028863D02*
X024357Y028863D01*
X024498Y028704D02*
X024021Y028704D01*
X023970Y028546D02*
X024560Y028546D01*
X024560Y028387D02*
X023970Y028387D01*
X023970Y028229D02*
X024560Y028229D01*
X024560Y028070D02*
X023970Y028070D01*
X023970Y027912D02*
X024560Y027912D01*
X024560Y027753D02*
X023970Y027753D01*
X023970Y027595D02*
X024560Y027595D01*
X024560Y027436D02*
X023970Y027436D01*
X023970Y027278D02*
X024560Y027278D01*
X024560Y027119D02*
X023970Y027119D01*
X023970Y026961D02*
X024560Y026961D01*
X024560Y026802D02*
X023970Y026802D01*
X023970Y026644D02*
X024560Y026644D01*
X024560Y026485D02*
X023970Y026485D01*
X023970Y026327D02*
X024560Y026327D01*
X024560Y026168D02*
X023970Y026168D01*
X023970Y026010D02*
X024560Y026010D01*
X024560Y025851D02*
X023970Y025851D01*
X023970Y025693D02*
X024560Y025693D01*
X024560Y025534D02*
X023970Y025534D01*
X023970Y025376D02*
X024560Y025376D01*
X024560Y025217D02*
X023970Y025217D01*
X023970Y025059D02*
X024560Y025059D01*
X024560Y024900D02*
X023970Y024900D01*
X023970Y024742D02*
X024560Y024742D01*
X024560Y024583D02*
X023970Y024583D01*
X023970Y024425D02*
X024560Y024425D01*
X024560Y024266D02*
X023970Y024266D01*
X023970Y024108D02*
X024560Y024108D01*
X024533Y023949D02*
X023970Y023949D01*
X023970Y023791D02*
X024374Y023791D01*
X024017Y023632D02*
X023970Y023632D01*
X023955Y023474D02*
X023937Y023474D01*
X023982Y023315D02*
X023815Y023315D01*
X023709Y023157D02*
X024154Y023157D01*
X024365Y023157D02*
X024410Y023157D01*
X024410Y022998D02*
X023603Y022998D01*
X023274Y022840D02*
X024410Y022840D01*
X024410Y022681D02*
X022860Y022681D01*
X022860Y022523D02*
X024410Y022523D01*
X024410Y022364D02*
X022860Y022364D01*
X022860Y022206D02*
X024410Y022206D01*
X024381Y022047D02*
X024223Y022047D01*
X024097Y022047D02*
X022860Y022047D01*
X022860Y021889D02*
X023890Y021889D01*
X023855Y021730D02*
X022860Y021730D01*
X022860Y021572D02*
X023900Y021572D01*
X024788Y021889D02*
X025693Y021889D01*
X025655Y022047D02*
X024810Y022047D01*
X024810Y022206D02*
X025697Y022206D01*
X025998Y022364D02*
X024810Y022364D01*
X024810Y022523D02*
X026110Y022523D01*
X026110Y022681D02*
X024810Y022681D01*
X024810Y022840D02*
X026110Y022840D01*
X026110Y022998D02*
X024810Y022998D01*
X025015Y023157D02*
X026110Y023157D01*
X026110Y023315D02*
X025187Y023315D01*
X025215Y023474D02*
X026110Y023474D01*
X026110Y023632D02*
X025152Y023632D01*
X024940Y023791D02*
X026110Y023791D01*
X026110Y023949D02*
X024960Y023949D01*
X024960Y024108D02*
X026110Y024108D01*
X026110Y024266D02*
X024960Y024266D01*
X024960Y024425D02*
X026110Y024425D01*
X026110Y024583D02*
X024960Y024583D01*
X024960Y024742D02*
X026110Y024742D01*
X026110Y024900D02*
X024960Y024900D01*
X024960Y025059D02*
X026110Y025059D01*
X026110Y025217D02*
X024960Y025217D01*
X024960Y025376D02*
X026110Y025376D01*
X026110Y025534D02*
X024960Y025534D01*
X024960Y025693D02*
X026155Y025693D01*
X026236Y025851D02*
X024960Y025851D01*
X024960Y026010D02*
X026560Y026010D01*
X026560Y026168D02*
X024960Y026168D01*
X024960Y026327D02*
X026560Y026327D01*
X026560Y026485D02*
X024960Y026485D01*
X024960Y026644D02*
X026560Y026644D01*
X026560Y026802D02*
X024960Y026802D01*
X024960Y026961D02*
X026560Y026961D01*
X026560Y027119D02*
X025967Y027119D01*
X025932Y027085D02*
X026018Y027171D01*
X026065Y027283D01*
X026065Y027404D01*
X026018Y027516D01*
X025970Y027565D01*
X025970Y028682D01*
X026020Y028703D01*
X026149Y028833D01*
X026220Y029002D01*
X026220Y029785D01*
X026149Y029954D01*
X026020Y030083D01*
X025851Y030153D01*
X025668Y030153D01*
X025499Y030083D01*
X025370Y029954D01*
X025300Y029785D01*
X025300Y029002D01*
X025370Y028833D01*
X025499Y028703D01*
X025550Y028682D01*
X025550Y027565D01*
X025501Y027516D01*
X025455Y027404D01*
X025455Y027283D01*
X025501Y027171D01*
X025587Y027085D01*
X025699Y027038D01*
X025820Y027038D01*
X025932Y027085D01*
X026063Y027278D02*
X026560Y027278D01*
X026560Y027436D02*
X026051Y027436D01*
X025970Y027595D02*
X026560Y027595D01*
X026560Y027753D02*
X025970Y027753D01*
X025970Y027912D02*
X026560Y027912D01*
X026560Y028070D02*
X025970Y028070D01*
X025970Y028229D02*
X026560Y028229D01*
X026560Y028387D02*
X025970Y028387D01*
X025970Y028546D02*
X026560Y028546D01*
X026498Y028704D02*
X026021Y028704D01*
X026162Y028863D02*
X026357Y028863D01*
X026300Y029021D02*
X026220Y029021D01*
X026220Y029180D02*
X026300Y029180D01*
X026300Y029338D02*
X026220Y029338D01*
X026220Y029497D02*
X026300Y029497D01*
X026300Y029655D02*
X026220Y029655D01*
X026207Y029814D02*
X026312Y029814D01*
X026388Y029972D02*
X026131Y029972D01*
X025905Y030131D02*
X026614Y030131D01*
X025614Y030131D02*
X024905Y030131D01*
X025131Y029972D02*
X025388Y029972D01*
X025312Y029814D02*
X025207Y029814D01*
X025220Y029655D02*
X025300Y029655D01*
X025300Y029497D02*
X025220Y029497D01*
X025220Y029338D02*
X025300Y029338D01*
X025300Y029180D02*
X025220Y029180D01*
X025220Y029021D02*
X025300Y029021D01*
X025357Y028863D02*
X025162Y028863D01*
X025021Y028704D02*
X025498Y028704D01*
X025550Y028546D02*
X024960Y028546D01*
X024960Y028387D02*
X025550Y028387D01*
X025550Y028229D02*
X024960Y028229D01*
X024960Y028070D02*
X025550Y028070D01*
X025550Y027912D02*
X024960Y027912D01*
X024960Y027753D02*
X025550Y027753D01*
X025550Y027595D02*
X024960Y027595D01*
X024960Y027436D02*
X025468Y027436D01*
X025456Y027278D02*
X024960Y027278D01*
X024960Y027119D02*
X025552Y027119D01*
X026510Y025217D02*
X026560Y025217D01*
X026560Y025059D02*
X026510Y025059D01*
X026510Y024900D02*
X026560Y024900D01*
X026560Y024742D02*
X026510Y024742D01*
X026510Y024583D02*
X026560Y024583D01*
X026560Y024425D02*
X026510Y024425D01*
X026510Y024266D02*
X026560Y024266D01*
X026560Y024108D02*
X026510Y024108D01*
X026510Y023949D02*
X026560Y023949D01*
X026560Y023791D02*
X026510Y023791D01*
X026510Y023632D02*
X026560Y023632D01*
X026560Y023474D02*
X026510Y023474D01*
X026510Y023315D02*
X026560Y023315D01*
X026560Y023157D02*
X026510Y023157D01*
X027320Y021096D02*
X028498Y021096D01*
X028431Y020938D02*
X027320Y020938D01*
X027320Y020779D02*
X028451Y020779D01*
X028568Y020621D02*
X027320Y020621D01*
X025890Y019987D02*
X022736Y019987D01*
X022663Y019828D02*
X025890Y019828D01*
X025890Y019670D02*
X022567Y019670D01*
X022384Y019511D02*
X025890Y019511D01*
X025890Y019353D02*
X022491Y019353D01*
X022508Y019194D02*
X025890Y019194D01*
X025890Y019036D02*
X022444Y019036D01*
X022152Y019670D02*
X022120Y019670D01*
X022860Y020145D02*
X025825Y020145D01*
X025890Y018877D02*
X020737Y018877D01*
X019600Y018877D02*
X019420Y018877D01*
X019420Y018719D02*
X019600Y018719D01*
X019600Y018560D02*
X019491Y018560D01*
X019515Y018402D02*
X019600Y018402D01*
X019600Y018243D02*
X019441Y018243D01*
X019451Y018085D02*
X019600Y018085D01*
X018905Y018442D02*
X018596Y018751D01*
X018476Y018751D01*
X018487Y018790D01*
X018487Y018837D01*
X018475Y018883D01*
X018451Y018924D01*
X018211Y019164D01*
X017922Y018876D01*
X018256Y018543D01*
X018160Y018447D01*
X017827Y018780D01*
X017922Y018876D01*
X017827Y018972D01*
X018115Y019260D01*
X017875Y019500D01*
X017834Y019524D01*
X017788Y019536D01*
X017740Y019536D01*
X017695Y019524D01*
X017654Y019500D01*
X017476Y019323D01*
X017827Y018972D01*
X017731Y018876D01*
X017827Y018780D01*
X017538Y018492D01*
X017720Y018311D01*
X017624Y018311D01*
X017565Y018369D01*
X017453Y018416D01*
X017332Y018416D01*
X017220Y018369D01*
X017134Y018283D01*
X017087Y018171D01*
X017087Y018050D01*
X017111Y017993D01*
X016542Y017993D01*
X016310Y018226D01*
X016192Y018343D01*
X015992Y018343D01*
X016060Y018410D01*
X017342Y019693D01*
X018178Y019693D01*
X018237Y019635D01*
X018349Y019588D01*
X018470Y019588D01*
X018582Y019635D01*
X018668Y019721D01*
X018715Y019833D01*
X018715Y019954D01*
X018668Y020066D01*
X018582Y020152D01*
X018470Y020198D01*
X018349Y020198D01*
X018237Y020152D01*
X018178Y020093D01*
X017342Y020093D01*
X017637Y020388D01*
X017720Y020388D01*
X017832Y020435D01*
X017918Y020521D01*
X017965Y020633D01*
X017965Y020754D01*
X017918Y020866D01*
X017832Y020952D01*
X017720Y020998D01*
X017599Y020998D01*
X017487Y020952D01*
X017401Y020866D01*
X017355Y020754D01*
X017355Y020671D01*
X016782Y020098D01*
X016699Y020098D01*
X016587Y020052D01*
X016501Y019966D01*
X016455Y019854D01*
X016455Y019733D01*
X016501Y019621D01*
X016587Y019535D01*
X016609Y019526D01*
X015777Y018693D01*
X014992Y018693D01*
X018142Y021843D01*
X018478Y021843D01*
X018537Y021785D01*
X018649Y021738D01*
X018770Y021738D01*
X018882Y021785D01*
X018968Y021871D01*
X019000Y021946D01*
X019000Y018665D01*
X018951Y018616D01*
X018905Y018504D01*
X018905Y018442D01*
X018928Y018560D02*
X018786Y018560D01*
X018628Y018719D02*
X019000Y018719D01*
X019000Y018877D02*
X018476Y018877D01*
X018339Y019036D02*
X019000Y019036D01*
X019000Y019194D02*
X018049Y019194D01*
X018022Y019353D02*
X019000Y019353D01*
X019000Y019511D02*
X017856Y019511D01*
X017673Y019511D02*
X017160Y019511D01*
X017002Y019353D02*
X017506Y019353D01*
X017380Y019227D02*
X017202Y019049D01*
X017179Y019008D01*
X017167Y018962D01*
X017167Y018915D01*
X017179Y018869D01*
X017202Y018828D01*
X017443Y018588D01*
X017731Y018876D01*
X017380Y019227D01*
X017348Y019194D02*
X016843Y019194D01*
X016685Y019036D02*
X017195Y019036D01*
X017177Y018877D02*
X016526Y018877D01*
X016368Y018719D02*
X017312Y018719D01*
X017574Y018719D02*
X017765Y018719D01*
X017888Y018719D02*
X018080Y018719D01*
X018047Y018560D02*
X018238Y018560D01*
X017924Y018877D02*
X017921Y018877D01*
X017891Y019036D02*
X018082Y019036D01*
X017763Y019036D02*
X017571Y019036D01*
X017604Y019194D02*
X017413Y019194D01*
X017730Y018877D02*
X017732Y018877D01*
X017607Y018560D02*
X016209Y018560D01*
X016051Y018402D02*
X017299Y018402D01*
X017486Y018402D02*
X017629Y018402D01*
X017117Y018243D02*
X016292Y018243D01*
X016451Y018085D02*
X017087Y018085D01*
X017631Y017451D02*
X016483Y017451D01*
X016599Y017292D02*
X017667Y017292D01*
X017848Y017134D02*
X016615Y017134D01*
X016523Y016975D02*
X018145Y016975D01*
X018303Y016817D02*
X016846Y016817D01*
X016573Y016817D02*
X016510Y016817D01*
X016136Y017451D02*
X015895Y017451D01*
X015824Y017292D02*
X015746Y017292D01*
X015666Y017134D02*
X015608Y017134D01*
X015588Y017134D02*
X015530Y017134D01*
X015507Y016975D02*
X015429Y016975D01*
X015349Y016817D02*
X015271Y016817D01*
X015243Y016817D02*
X013590Y016817D01*
X013485Y016975D02*
X015094Y016975D01*
X015085Y017134D02*
X013672Y017134D01*
X013822Y017292D02*
X015227Y017292D01*
X015372Y017292D02*
X015449Y017292D01*
X015385Y017451D02*
X013989Y017451D01*
X014058Y017519D02*
X014081Y017560D01*
X014094Y017606D01*
X014094Y017654D01*
X014081Y017699D01*
X014058Y017740D01*
X013866Y017932D01*
X013592Y017658D01*
X013894Y017356D01*
X014058Y017519D01*
X014094Y017609D02*
X015554Y017609D01*
X015727Y017609D02*
X016361Y017609D01*
X016202Y017768D02*
X015665Y017768D01*
X015762Y017926D02*
X016044Y017926D01*
X015254Y017768D02*
X014030Y017768D01*
X013872Y017926D02*
X015157Y017926D01*
X015167Y018085D02*
X013713Y018085D01*
X013725Y017926D02*
X013860Y017926D01*
X013702Y017768D02*
X013566Y017768D01*
X013482Y017768D02*
X013346Y017768D01*
X013323Y017926D02*
X013188Y017926D01*
X013120Y017926D02*
X011175Y017926D01*
X011017Y017768D02*
X012974Y017768D01*
X012832Y017609D02*
X010858Y017609D01*
X010700Y017451D02*
X012673Y017451D01*
X012515Y017292D02*
X010541Y017292D01*
X010383Y017134D02*
X012445Y017134D01*
X012560Y016975D02*
X010224Y016975D01*
X010066Y016817D02*
X012560Y016817D01*
X012560Y016658D02*
X009910Y016658D01*
X009910Y016500D02*
X012560Y016500D01*
X012560Y016341D02*
X009910Y016341D01*
X009910Y016183D02*
X011404Y016183D01*
X011412Y016192D02*
X011221Y016000D01*
X011495Y015726D01*
X011797Y016028D01*
X011633Y016192D01*
X011592Y016215D01*
X011547Y016228D01*
X011499Y016228D01*
X011453Y016215D01*
X011412Y016192D01*
X011642Y016183D02*
X012560Y016183D01*
X012477Y016024D02*
X011794Y016024D01*
X011771Y015866D02*
X011635Y015866D01*
X011612Y015707D02*
X011513Y015707D01*
X011477Y015707D02*
X011378Y015707D01*
X011355Y015866D02*
X011219Y015866D01*
X011087Y015866D02*
X010970Y015866D01*
X011245Y016024D02*
X010228Y016024D01*
X009991Y016024D02*
X009910Y016024D01*
X009910Y015390D02*
X010880Y015390D01*
X011038Y015232D02*
X010064Y015232D01*
X010222Y015073D02*
X011197Y015073D01*
X011355Y014915D02*
X010529Y014915D01*
X010575Y014756D02*
X011753Y014756D01*
X011911Y014598D02*
X010539Y014598D01*
X010333Y014439D02*
X012688Y014439D01*
X012530Y014281D02*
X010469Y014281D01*
X010627Y014122D02*
X012445Y014122D01*
X012445Y014064D02*
X012901Y013608D01*
X012954Y013608D01*
X012954Y013577D01*
X012967Y013532D01*
X012990Y013490D01*
X013154Y013327D01*
X013456Y013629D01*
X013524Y013561D01*
X013592Y013629D01*
X013524Y013697D01*
X013826Y013999D01*
X013662Y014163D01*
X013621Y014186D01*
X013576Y014199D01*
X013545Y014199D01*
X013545Y014252D01*
X013489Y014308D01*
X014484Y014308D01*
X014745Y014047D01*
X014677Y013979D01*
X014375Y014281D01*
X014211Y014117D01*
X014188Y014076D01*
X014175Y014030D01*
X014175Y013983D01*
X014188Y013937D01*
X014211Y013896D01*
X014403Y013705D01*
X014677Y013979D01*
X014745Y013911D01*
X014471Y013637D01*
X014662Y013445D01*
X014703Y013421D01*
X014749Y013409D01*
X014797Y013409D01*
X014842Y013421D01*
X014883Y013445D01*
X015047Y013609D01*
X014745Y013911D01*
X014813Y013979D01*
X015115Y013677D01*
X015279Y013840D01*
X015303Y013882D01*
X015315Y013927D01*
X015315Y013958D01*
X015368Y013958D01*
X015455Y014044D01*
X015455Y014033D01*
X015501Y013921D01*
X015587Y013835D01*
X015699Y013788D01*
X015820Y013788D01*
X015932Y013835D01*
X016018Y013921D01*
X016065Y014033D01*
X016065Y014154D01*
X016018Y014266D01*
X015932Y014352D01*
X015820Y014398D01*
X015808Y014398D01*
X015824Y014414D01*
X015824Y014546D01*
X015312Y015058D01*
X015180Y015058D01*
X014830Y014708D01*
X013560Y014708D01*
X013560Y014926D01*
X013442Y015043D01*
X013215Y015271D01*
X013215Y015354D01*
X013168Y015466D01*
X013082Y015552D01*
X012970Y015598D01*
X012849Y015598D01*
X012737Y015552D01*
X012651Y015466D01*
X012605Y015354D01*
X012605Y015233D01*
X012651Y015121D01*
X012737Y015035D01*
X012849Y014988D01*
X012932Y014988D01*
X013160Y014760D01*
X013160Y014637D01*
X013089Y014708D01*
X012957Y014708D01*
X012445Y014196D01*
X012445Y014064D01*
X012545Y013964D02*
X010786Y013964D01*
X010944Y013805D02*
X012704Y013805D01*
X012862Y013647D02*
X011103Y013647D01*
X011261Y013488D02*
X012992Y013488D01*
X013151Y013330D02*
X011420Y013330D01*
X011578Y013171D02*
X013309Y013171D01*
X013386Y013095D02*
X013427Y013071D01*
X013472Y013059D01*
X013520Y013059D01*
X013566Y013071D01*
X013607Y013095D01*
X013798Y013287D01*
X013524Y013561D01*
X013222Y013259D01*
X013386Y013095D01*
X013293Y013330D02*
X013157Y013330D01*
X013316Y013488D02*
X013451Y013488D01*
X013597Y013488D02*
X013732Y013488D01*
X013755Y013330D02*
X017772Y013330D01*
X017780Y013171D02*
X013683Y013171D01*
X013866Y013355D02*
X014058Y013546D01*
X014081Y013587D01*
X014094Y013633D01*
X014094Y013680D01*
X014081Y013726D01*
X014058Y013767D01*
X013894Y013931D01*
X013592Y013629D01*
X013866Y013355D01*
X014000Y013488D02*
X014619Y013488D01*
X014481Y013647D02*
X014094Y013647D01*
X014020Y013805D02*
X014302Y013805D01*
X014180Y013964D02*
X013791Y013964D01*
X013768Y013805D02*
X013633Y013805D01*
X013610Y013647D02*
X013574Y013647D01*
X013703Y014122D02*
X014216Y014122D01*
X014375Y014281D02*
X013516Y014281D01*
X013560Y014756D02*
X014879Y014756D01*
X015037Y014915D02*
X013560Y014915D01*
X013412Y015073D02*
X015946Y015073D01*
X015941Y015232D02*
X013254Y015232D01*
X013199Y015390D02*
X016084Y015390D01*
X016166Y015390D02*
X016301Y015390D01*
X016324Y015232D02*
X016460Y015232D01*
X016483Y015073D02*
X016372Y015073D01*
X016507Y015073D02*
X016618Y015073D01*
X016641Y014915D02*
X016777Y014915D01*
X016795Y014756D02*
X020560Y014756D01*
X020560Y014598D02*
X016636Y014598D01*
X016410Y014598D02*
X015772Y014598D01*
X015824Y014439D02*
X020560Y014439D01*
X020560Y014281D02*
X016003Y014281D01*
X016065Y014122D02*
X020560Y014122D01*
X020560Y013964D02*
X018580Y013964D01*
X018665Y013805D02*
X020560Y013805D01*
X020560Y013647D02*
X018646Y013647D01*
X018590Y013488D02*
X020560Y013488D01*
X020560Y013330D02*
X018559Y013330D01*
X018470Y013171D02*
X020560Y013171D01*
X020560Y013013D02*
X018470Y013013D01*
X018470Y012854D02*
X020560Y012854D01*
X020560Y012696D02*
X018858Y012696D01*
X018935Y012537D02*
X020560Y012537D01*
X020560Y012379D02*
X018912Y012379D01*
X018925Y012220D02*
X018840Y012220D01*
X018840Y012062D02*
X018855Y012062D01*
X018840Y011903D02*
X018879Y011903D01*
X018840Y011745D02*
X019035Y011745D01*
X019050Y011586D02*
X018840Y011586D01*
X018840Y011428D02*
X019050Y011428D01*
X019050Y011269D02*
X018840Y011269D01*
X018840Y011111D02*
X019050Y011111D01*
X019050Y010952D02*
X018840Y010952D01*
X018840Y010794D02*
X019050Y010794D01*
X019050Y010635D02*
X018840Y010635D01*
X018840Y010477D02*
X019050Y010477D01*
X019050Y010318D02*
X018840Y010318D01*
X018840Y010160D02*
X019050Y010160D01*
X019050Y010001D02*
X018840Y010001D01*
X018840Y009843D02*
X019050Y009843D01*
X019050Y009684D02*
X018840Y009684D01*
X018840Y009526D02*
X019050Y009526D01*
X019050Y009367D02*
X018840Y009367D01*
X018840Y009209D02*
X019050Y009209D01*
X019050Y009050D02*
X018840Y009050D01*
X018840Y008892D02*
X019050Y008892D01*
X019050Y008733D02*
X018840Y008733D01*
X018840Y008575D02*
X019050Y008575D01*
X019050Y008416D02*
X018840Y008416D01*
X018840Y008258D02*
X019050Y008258D01*
X019050Y008099D02*
X018840Y008099D01*
X018840Y007941D02*
X019050Y007941D01*
X019050Y007782D02*
X018840Y007782D01*
X018840Y007624D02*
X019050Y007624D01*
X019050Y007465D02*
X018840Y007465D01*
X018840Y007307D02*
X019050Y007307D01*
X019050Y007148D02*
X018840Y007148D01*
X018840Y006990D02*
X019050Y006990D01*
X019050Y006831D02*
X018840Y006831D01*
X018840Y006673D02*
X019050Y006673D01*
X019050Y006514D02*
X018985Y006514D01*
X018896Y006603D02*
X018896Y006603D01*
X019020Y006356D02*
X019200Y006356D01*
X019359Y006197D02*
X019020Y006197D01*
X019115Y006039D02*
X019504Y006039D01*
X019350Y005880D02*
X019270Y005880D01*
X019270Y005722D02*
X019350Y005722D01*
X019350Y005563D02*
X019270Y005563D01*
X019172Y005405D02*
X019447Y005405D01*
X019790Y005088D02*
X019830Y005088D01*
X019830Y004929D02*
X019790Y004929D01*
X019790Y004771D02*
X019830Y004771D01*
X019830Y004673D02*
X020290Y004673D01*
X020290Y004494D01*
X020008Y004213D01*
X019830Y004213D01*
X019830Y004673D01*
X019830Y004612D02*
X019790Y004612D01*
X019790Y004454D02*
X019830Y004454D01*
X019830Y004295D02*
X019790Y004295D01*
X020090Y004295D02*
X020529Y004295D01*
X020611Y004213D02*
X020790Y004213D01*
X020790Y004673D01*
X020830Y004673D01*
X020830Y004713D01*
X021290Y004713D01*
X021290Y004892D01*
X021008Y005173D01*
X020830Y005173D01*
X020830Y004713D01*
X020790Y004713D01*
X020790Y005173D01*
X020611Y005173D01*
X020330Y004892D01*
X020330Y004713D01*
X020790Y004713D01*
X020790Y004673D01*
X020330Y004673D01*
X020330Y004494D01*
X020611Y004213D01*
X020790Y004295D02*
X020830Y004295D01*
X020830Y004213D02*
X021008Y004213D01*
X021290Y004494D01*
X021290Y004673D01*
X020830Y004673D01*
X020830Y004213D01*
X020830Y004454D02*
X020790Y004454D01*
X020790Y004612D02*
X020830Y004612D01*
X020830Y004771D02*
X020790Y004771D01*
X020790Y004929D02*
X020830Y004929D01*
X020830Y005088D02*
X020790Y005088D01*
X020606Y005246D02*
X020013Y005246D01*
X020094Y005088D02*
X020525Y005088D01*
X020367Y004929D02*
X020252Y004929D01*
X020290Y004771D02*
X020330Y004771D01*
X020330Y004612D02*
X020290Y004612D01*
X020249Y004454D02*
X020370Y004454D01*
X021090Y004295D02*
X035503Y004295D01*
X035502Y004137D02*
X026212Y004137D01*
X026391Y003978D02*
X035502Y003978D01*
X035502Y003820D02*
X026514Y003820D01*
X026579Y003661D02*
X035502Y003661D01*
X035501Y003503D02*
X026619Y003503D01*
X026619Y003344D02*
X035501Y003344D01*
X035501Y003186D02*
X026604Y003186D01*
X026539Y003027D02*
X035501Y003027D01*
X035500Y002869D02*
X026451Y002869D01*
X026293Y002710D02*
X035500Y002710D01*
X035503Y004454D02*
X021249Y004454D01*
X021290Y004612D02*
X024470Y004612D01*
X024519Y004563D02*
X024688Y004493D01*
X025471Y004493D01*
X025640Y004563D01*
X025769Y004693D01*
X025840Y004862D01*
X025840Y005045D01*
X025769Y005214D01*
X025640Y005343D01*
X025471Y005413D01*
X024688Y005413D01*
X024519Y005343D01*
X024390Y005214D01*
X024320Y005045D01*
X024320Y004862D01*
X024390Y004693D01*
X024519Y004563D01*
X024357Y004771D02*
X021290Y004771D01*
X021252Y004929D02*
X024320Y004929D01*
X024337Y005088D02*
X021094Y005088D01*
X021013Y005246D02*
X024422Y005246D01*
X024668Y005405D02*
X021172Y005405D01*
X021270Y005563D02*
X035505Y005563D01*
X035504Y005405D02*
X028052Y005405D01*
X028031Y005413D02*
X028200Y005343D01*
X028329Y005214D01*
X028400Y005045D01*
X028400Y004862D01*
X028329Y004693D01*
X028200Y004563D01*
X028031Y004493D01*
X027248Y004493D01*
X027079Y004563D01*
X026950Y004693D01*
X026880Y004862D01*
X026880Y005045D01*
X026950Y005214D01*
X027079Y005343D01*
X027248Y005413D01*
X028031Y005413D01*
X028297Y005246D02*
X035504Y005246D01*
X035504Y005088D02*
X028382Y005088D01*
X028400Y004929D02*
X035504Y004929D01*
X035503Y004771D02*
X028362Y004771D01*
X028249Y004612D02*
X035503Y004612D01*
X035505Y005722D02*
X021270Y005722D01*
X021270Y005880D02*
X035505Y005880D01*
X035505Y006039D02*
X021115Y006039D01*
X021020Y006197D02*
X035506Y006197D01*
X035506Y006356D02*
X028237Y006356D01*
X028252Y006367D02*
X028306Y006421D01*
X028350Y006482D01*
X028384Y006549D01*
X028408Y006621D01*
X028420Y006696D01*
X028420Y006713D01*
X027660Y006713D01*
X027660Y006753D01*
X028420Y006753D01*
X028420Y006771D01*
X028408Y006846D01*
X028384Y006918D01*
X028350Y006985D01*
X028306Y007046D01*
X028252Y007099D01*
X028191Y007144D01*
X028124Y007178D01*
X028052Y007201D01*
X027977Y007213D01*
X027660Y007213D01*
X027660Y006753D01*
X027620Y006753D01*
X027620Y007213D01*
X027302Y007213D01*
X027227Y007201D01*
X027155Y007178D01*
X027088Y007144D01*
X027027Y007099D01*
X026973Y007046D01*
X026929Y006985D01*
X026895Y006918D01*
X026871Y006846D01*
X026860Y006771D01*
X026860Y006753D01*
X027620Y006753D01*
X027620Y006713D01*
X027660Y006713D01*
X027660Y006253D01*
X027977Y006253D01*
X028052Y006265D01*
X028124Y006288D01*
X028191Y006323D01*
X028252Y006367D01*
X028367Y006514D02*
X035506Y006514D01*
X035506Y006673D02*
X028416Y006673D01*
X028410Y006831D02*
X035507Y006831D01*
X035507Y006990D02*
X028346Y006990D01*
X028182Y007148D02*
X035507Y007148D01*
X035507Y007307D02*
X020470Y007307D01*
X020470Y007465D02*
X035508Y007465D01*
X031843Y009843D02*
X031756Y009843D01*
X031600Y009684D02*
X031598Y009684D01*
X031517Y009526D02*
X031439Y009526D01*
X032879Y012062D02*
X032958Y012062D01*
X031577Y016183D02*
X031041Y016183D01*
X032860Y018243D02*
X033098Y018243D01*
X033117Y021572D02*
X033290Y021572D01*
X033290Y021730D02*
X033240Y021730D01*
X032780Y022047D02*
X032740Y022047D01*
X032740Y022206D02*
X032780Y022206D01*
X032780Y022364D02*
X032740Y022364D01*
X032552Y022364D02*
X032480Y022364D01*
X032230Y023474D02*
X032190Y023474D01*
X032190Y023632D02*
X032230Y023632D01*
X032230Y023791D02*
X032190Y023791D01*
X032190Y023949D02*
X032230Y023949D01*
X032230Y024108D02*
X032190Y024108D01*
X032190Y024266D02*
X032230Y024266D01*
X029995Y026644D02*
X029960Y026644D01*
X031330Y027595D02*
X031990Y027595D01*
X031990Y027753D02*
X031330Y027753D01*
X031330Y027912D02*
X031990Y027912D01*
X031990Y028070D02*
X031330Y028070D01*
X031330Y028229D02*
X031990Y028229D01*
X031990Y028387D02*
X031330Y028387D01*
X031330Y028546D02*
X031990Y028546D01*
X031990Y028704D02*
X031330Y028704D01*
X031330Y028863D02*
X031990Y028863D01*
X031990Y029021D02*
X031330Y029021D01*
X031330Y029180D02*
X031990Y029180D01*
X031990Y029338D02*
X031330Y029338D01*
X031330Y029497D02*
X031990Y029497D01*
X031990Y029655D02*
X031330Y029655D01*
X031330Y029814D02*
X031912Y029814D01*
X031912Y029972D02*
X031330Y029972D01*
X031330Y030131D02*
X032016Y030131D01*
X030890Y030289D02*
X018980Y030289D01*
X018980Y030131D02*
X020561Y030131D01*
X020575Y030138D02*
X020508Y030104D01*
X020447Y030059D01*
X020393Y030006D01*
X020349Y029945D01*
X020315Y029878D01*
X020291Y029806D01*
X020280Y029731D01*
X020280Y029413D01*
X020740Y029413D01*
X020740Y030173D01*
X020722Y030173D01*
X020647Y030161D01*
X020575Y030138D01*
X020740Y030131D02*
X020780Y030131D01*
X020780Y030173D02*
X020780Y029413D01*
X021240Y029413D01*
X021240Y029731D01*
X021228Y029806D01*
X021204Y029878D01*
X021170Y029945D01*
X021126Y030006D01*
X021072Y030059D01*
X021011Y030104D01*
X020944Y030138D01*
X020872Y030161D01*
X020797Y030173D01*
X020780Y030173D01*
X020958Y030131D02*
X021614Y030131D01*
X021668Y030153D02*
X021499Y030083D01*
X021370Y029954D01*
X021300Y029785D01*
X021300Y029002D01*
X021370Y028833D01*
X021499Y028703D01*
X021668Y028633D01*
X021851Y028633D01*
X022020Y028703D01*
X022149Y028833D01*
X022220Y029002D01*
X022220Y029785D01*
X022149Y029954D01*
X022020Y030083D01*
X021851Y030153D01*
X021668Y030153D01*
X021905Y030131D02*
X022614Y030131D01*
X022388Y029972D02*
X022131Y029972D01*
X022207Y029814D02*
X022312Y029814D01*
X022300Y029655D02*
X022220Y029655D01*
X022220Y029497D02*
X022300Y029497D01*
X022300Y029338D02*
X022220Y029338D01*
X022220Y029180D02*
X022300Y029180D01*
X022300Y029021D02*
X022220Y029021D01*
X022162Y028863D02*
X022357Y028863D01*
X022498Y028704D02*
X022021Y028704D01*
X021498Y028704D02*
X021041Y028704D01*
X021011Y028683D02*
X021072Y028727D01*
X021126Y028781D01*
X021170Y028842D01*
X021204Y028909D01*
X021228Y028981D01*
X021240Y029056D01*
X021240Y029373D01*
X020780Y029373D01*
X020780Y029413D01*
X020740Y029413D01*
X020740Y029373D01*
X020780Y029373D01*
X020780Y028613D01*
X020797Y028613D01*
X020872Y028625D01*
X020944Y028648D01*
X021011Y028683D01*
X020780Y028704D02*
X020740Y028704D01*
X020740Y028613D02*
X020740Y029373D01*
X020280Y029373D01*
X020280Y029056D01*
X020291Y028981D01*
X020315Y028909D01*
X020349Y028842D01*
X020393Y028781D01*
X020447Y028727D01*
X020508Y028683D01*
X020575Y028648D01*
X020647Y028625D01*
X020722Y028613D01*
X020740Y028613D01*
X020740Y028863D02*
X020780Y028863D01*
X020780Y029021D02*
X020740Y029021D01*
X020740Y029180D02*
X020780Y029180D01*
X020780Y029338D02*
X020740Y029338D01*
X020740Y029497D02*
X020780Y029497D01*
X020780Y029655D02*
X020740Y029655D01*
X020740Y029814D02*
X020780Y029814D01*
X020780Y029972D02*
X020740Y029972D01*
X020369Y029972D02*
X018980Y029972D01*
X018980Y029814D02*
X020294Y029814D01*
X020280Y029655D02*
X018980Y029655D01*
X018980Y029497D02*
X020280Y029497D01*
X020280Y029338D02*
X018980Y029338D01*
X018980Y029180D02*
X020280Y029180D01*
X020285Y029021D02*
X018980Y029021D01*
X018980Y028863D02*
X020338Y028863D01*
X020478Y028704D02*
X018980Y028704D01*
X018980Y028546D02*
X022550Y028546D01*
X022550Y028387D02*
X018980Y028387D01*
X018980Y028324D02*
X018980Y030484D01*
X018851Y030613D01*
X018565Y030899D01*
X018565Y030954D01*
X018518Y031066D01*
X018432Y031152D01*
X018320Y031198D01*
X018199Y031198D01*
X018087Y031152D01*
X018001Y031066D01*
X017955Y030954D01*
X017955Y030833D01*
X018001Y030721D01*
X018087Y030635D01*
X018199Y030588D01*
X018253Y030588D01*
X018540Y030302D01*
X018540Y028052D01*
X018555Y028037D01*
X018555Y027983D01*
X018601Y027871D01*
X018687Y027785D01*
X018799Y027738D01*
X018920Y027738D01*
X019032Y027785D01*
X019118Y027871D01*
X019165Y027983D01*
X019165Y028104D01*
X019118Y028216D01*
X019032Y028302D01*
X018980Y028324D01*
X019105Y028229D02*
X022550Y028229D01*
X022550Y028070D02*
X019165Y028070D01*
X019135Y027912D02*
X022550Y027912D01*
X022550Y027753D02*
X018956Y027753D01*
X018763Y027753D02*
X016201Y027753D01*
X016265Y027912D02*
X018584Y027912D01*
X018540Y028070D02*
X016237Y028070D01*
X016067Y028229D02*
X018540Y028229D01*
X018540Y028387D02*
X016051Y028387D01*
X016209Y028546D02*
X018540Y028546D01*
X018540Y028704D02*
X017521Y028704D01*
X017520Y028703D02*
X017649Y028833D01*
X017720Y029002D01*
X017720Y029785D01*
X017649Y029954D01*
X017520Y030083D01*
X017351Y030153D01*
X017168Y030153D01*
X016999Y030083D01*
X016870Y029954D01*
X016800Y029785D01*
X016800Y029002D01*
X016870Y028833D01*
X016999Y028703D01*
X017168Y028633D01*
X017351Y028633D01*
X017520Y028703D01*
X017662Y028863D02*
X018540Y028863D01*
X018540Y029021D02*
X017720Y029021D01*
X017720Y029180D02*
X018540Y029180D01*
X018540Y029338D02*
X017720Y029338D01*
X017720Y029497D02*
X018540Y029497D01*
X018540Y029655D02*
X017720Y029655D01*
X017707Y029814D02*
X018540Y029814D01*
X018540Y029972D02*
X017631Y029972D01*
X017405Y030131D02*
X018540Y030131D01*
X018540Y030289D02*
X012795Y030289D01*
X012782Y030302D02*
X012670Y030348D01*
X012549Y030348D01*
X012437Y030302D01*
X012351Y030216D01*
X012305Y030104D01*
X012305Y030049D01*
X012240Y029984D01*
X012240Y026824D01*
X012187Y026802D01*
X012101Y026716D01*
X012055Y026604D01*
X012055Y026483D01*
X012101Y026371D01*
X012187Y026285D01*
X012299Y026238D01*
X012420Y026238D01*
X012532Y026285D01*
X012618Y026371D01*
X012665Y026483D01*
X012665Y026537D01*
X012680Y026552D01*
X012680Y029742D01*
X012782Y029785D01*
X012868Y029871D01*
X012915Y029983D01*
X012915Y030104D01*
X012868Y030216D01*
X012782Y030302D01*
X012903Y030131D02*
X014061Y030131D01*
X014075Y030138D02*
X014008Y030104D01*
X013947Y030059D01*
X013893Y030006D01*
X013849Y029945D01*
X013815Y029878D01*
X013791Y029806D01*
X013780Y029731D01*
X013780Y029413D01*
X014240Y029413D01*
X014240Y030173D01*
X014222Y030173D01*
X014147Y030161D01*
X014075Y030138D01*
X014240Y030131D02*
X014280Y030131D01*
X014280Y030173D02*
X014280Y029413D01*
X014740Y029413D01*
X014740Y029731D01*
X014728Y029806D01*
X014704Y029878D01*
X014670Y029945D01*
X014626Y030006D01*
X014572Y030059D01*
X014511Y030104D01*
X014444Y030138D01*
X014372Y030161D01*
X014297Y030173D01*
X014280Y030173D01*
X014458Y030131D02*
X015114Y030131D01*
X015168Y030153D02*
X014999Y030083D01*
X014870Y029954D01*
X014800Y029785D01*
X014800Y029002D01*
X014870Y028833D01*
X014999Y028703D01*
X015168Y028633D01*
X015351Y028633D01*
X015520Y028703D01*
X015649Y028833D01*
X015720Y029002D01*
X015720Y029785D01*
X015649Y029954D01*
X015520Y030083D01*
X015351Y030153D01*
X015168Y030153D01*
X015405Y030131D02*
X016114Y030131D01*
X015888Y029972D02*
X015631Y029972D01*
X015707Y029814D02*
X015812Y029814D01*
X015800Y029655D02*
X015720Y029655D01*
X015720Y029497D02*
X015800Y029497D01*
X015800Y029338D02*
X015720Y029338D01*
X015720Y029180D02*
X015800Y029180D01*
X015800Y029021D02*
X015720Y029021D01*
X015662Y028863D02*
X015857Y028863D01*
X015774Y028704D02*
X015521Y028704D01*
X015615Y028546D02*
X012680Y028546D01*
X012680Y028704D02*
X013978Y028704D01*
X014008Y028683D02*
X014075Y028648D01*
X014147Y028625D01*
X014222Y028613D01*
X014240Y028613D01*
X014240Y029373D01*
X014280Y029373D01*
X014280Y029413D01*
X014240Y029413D01*
X014240Y029373D01*
X013780Y029373D01*
X013780Y029056D01*
X013791Y028981D01*
X013815Y028909D01*
X013849Y028842D01*
X013893Y028781D01*
X013947Y028727D01*
X014008Y028683D01*
X014240Y028704D02*
X014280Y028704D01*
X014280Y028613D02*
X014297Y028613D01*
X014372Y028625D01*
X014444Y028648D01*
X014511Y028683D01*
X014572Y028727D01*
X014626Y028781D01*
X014670Y028842D01*
X014704Y028909D01*
X014728Y028981D01*
X014740Y029056D01*
X014740Y029373D01*
X014280Y029373D01*
X014280Y028613D01*
X014280Y028863D02*
X014240Y028863D01*
X014240Y029021D02*
X014280Y029021D01*
X014280Y029180D02*
X014240Y029180D01*
X014240Y029338D02*
X014280Y029338D01*
X014280Y029497D02*
X014240Y029497D01*
X014240Y029655D02*
X014280Y029655D01*
X014280Y029814D02*
X014240Y029814D01*
X014240Y029972D02*
X014280Y029972D01*
X014650Y029972D02*
X014888Y029972D01*
X014812Y029814D02*
X014725Y029814D01*
X014740Y029655D02*
X014800Y029655D01*
X014800Y029497D02*
X014740Y029497D01*
X014740Y029338D02*
X014800Y029338D01*
X014800Y029180D02*
X014740Y029180D01*
X014734Y029021D02*
X014800Y029021D01*
X014857Y028863D02*
X014681Y028863D01*
X014541Y028704D02*
X014998Y028704D01*
X015457Y028387D02*
X012680Y028387D01*
X012680Y028229D02*
X013298Y028229D01*
X013140Y028070D02*
X012680Y028070D01*
X012680Y027912D02*
X012814Y027912D01*
X012700Y027753D02*
X012680Y027753D01*
X012680Y027595D02*
X012681Y027595D01*
X012680Y027436D02*
X012752Y027436D01*
X012680Y027278D02*
X013090Y027278D01*
X013090Y027119D02*
X012680Y027119D01*
X012680Y026961D02*
X013090Y026961D01*
X013090Y026802D02*
X012680Y026802D01*
X012680Y026644D02*
X013090Y026644D01*
X013090Y026485D02*
X012665Y026485D01*
X012574Y026327D02*
X013090Y026327D01*
X013090Y026168D02*
X009530Y026168D01*
X009530Y026327D02*
X012145Y026327D01*
X012055Y026485D02*
X009530Y026485D01*
X009530Y026644D02*
X012071Y026644D01*
X012188Y026802D02*
X010257Y026802D01*
X010308Y026961D02*
X012240Y026961D01*
X012240Y027119D02*
X010284Y027119D01*
X010167Y027278D02*
X012240Y027278D01*
X012240Y027436D02*
X008980Y027436D01*
X008980Y027278D02*
X009752Y027278D01*
X009324Y027119D02*
X008980Y027119D01*
X008980Y026961D02*
X009166Y026961D01*
X009090Y026802D02*
X008980Y026802D01*
X008980Y026644D02*
X009090Y026644D01*
X009090Y026485D02*
X008980Y026485D01*
X008980Y026327D02*
X009090Y026327D01*
X009487Y026010D02*
X011956Y026010D01*
X011824Y025851D02*
X009463Y025851D01*
X009621Y025693D02*
X011805Y025693D01*
X011887Y025534D02*
X009780Y025534D01*
X009938Y025376D02*
X011890Y025376D01*
X011890Y025217D02*
X010097Y025217D01*
X009791Y024900D02*
X008980Y024900D01*
X008980Y024742D02*
X009950Y024742D01*
X009633Y025059D02*
X008980Y025059D01*
X008980Y025217D02*
X009474Y025217D01*
X009316Y025376D02*
X008980Y025376D01*
X008980Y025534D02*
X009157Y025534D01*
X008980Y024583D02*
X011890Y024583D01*
X011890Y024425D02*
X008980Y024425D01*
X008980Y024266D02*
X011890Y024266D01*
X011890Y024108D02*
X008980Y024108D01*
X008980Y023949D02*
X009294Y023949D01*
X009255Y023791D02*
X008980Y023791D01*
X008980Y023632D02*
X009296Y023632D01*
X008980Y023474D02*
X009660Y023474D01*
X009660Y023315D02*
X008980Y023315D01*
X008980Y023157D02*
X009660Y023157D01*
X009660Y022998D02*
X008980Y022998D01*
X008980Y022840D02*
X009660Y022840D01*
X009660Y022681D02*
X008980Y022681D01*
X008980Y022523D02*
X009660Y022523D01*
X009660Y022364D02*
X008980Y022364D01*
X008980Y022206D02*
X009660Y022206D01*
X009660Y022047D02*
X008980Y022047D01*
X008980Y021889D02*
X009660Y021889D01*
X009660Y021730D02*
X008980Y021730D01*
X008980Y021572D02*
X009698Y021572D01*
X009855Y021413D02*
X008980Y021413D01*
X008980Y021255D02*
X009887Y021255D01*
X009938Y021096D02*
X010079Y021096D01*
X010050Y020938D02*
X010110Y020938D01*
X010110Y020779D02*
X010063Y020779D01*
X010110Y020621D02*
X009968Y020621D01*
X010110Y020462D02*
X009690Y020462D01*
X009580Y020304D02*
X010110Y020304D01*
X010110Y020145D02*
X009580Y020145D01*
X009580Y019987D02*
X010110Y019987D01*
X010110Y019828D02*
X009580Y019828D01*
X009580Y019670D02*
X010110Y019670D01*
X010110Y019511D02*
X009580Y019511D01*
X009580Y019353D02*
X009986Y019353D01*
X009828Y019194D02*
X009627Y019194D01*
X009665Y019036D02*
X009669Y019036D01*
X009261Y018719D02*
X008980Y018719D01*
X008980Y018877D02*
X009098Y018877D01*
X009055Y019036D02*
X008980Y019036D01*
X008980Y019194D02*
X009092Y019194D01*
X009140Y019353D02*
X008980Y019353D01*
X008980Y019511D02*
X009140Y019511D01*
X009140Y019670D02*
X008980Y019670D01*
X008980Y019828D02*
X009140Y019828D01*
X009140Y019987D02*
X008980Y019987D01*
X008980Y020145D02*
X009140Y020145D01*
X009140Y020304D02*
X008980Y020304D01*
X008980Y020462D02*
X009140Y020462D01*
X009226Y020621D02*
X008980Y020621D01*
X008980Y020779D02*
X009384Y020779D01*
X009469Y020938D02*
X008980Y020938D01*
X008980Y021096D02*
X009581Y021096D01*
X010105Y021730D02*
X010714Y021730D01*
X010555Y021572D02*
X010412Y021572D01*
X010060Y021889D02*
X010872Y021889D01*
X011031Y022047D02*
X010060Y022047D01*
X010060Y022206D02*
X011189Y022206D01*
X011305Y022364D02*
X010060Y022364D01*
X010060Y022523D02*
X011358Y022523D01*
X011861Y022523D02*
X011890Y022523D01*
X011890Y022681D02*
X010060Y022681D01*
X010060Y022840D02*
X011890Y022840D01*
X011890Y022998D02*
X010060Y022998D01*
X010060Y023157D02*
X011890Y023157D01*
X011890Y023315D02*
X010060Y023315D01*
X010060Y023474D02*
X011890Y023474D01*
X011890Y023632D02*
X010060Y023632D01*
X009945Y023791D02*
X011890Y023791D01*
X011890Y023949D02*
X009825Y023949D01*
X011077Y024742D02*
X011890Y024742D01*
X011890Y024900D02*
X011115Y024900D01*
X011071Y025059D02*
X011890Y025059D01*
X012330Y025376D02*
X012331Y025376D01*
X012332Y025534D02*
X012489Y025534D01*
X012415Y025693D02*
X012648Y025693D01*
X012806Y025851D02*
X012395Y025851D01*
X012263Y026010D02*
X012965Y026010D01*
X013270Y025693D02*
X015399Y025693D01*
X015240Y025851D02*
X013429Y025851D01*
X013530Y026010D02*
X015082Y026010D01*
X014923Y026168D02*
X013530Y026168D01*
X013530Y026327D02*
X014614Y026327D01*
X014562Y026348D02*
X014690Y026295D01*
X014796Y026295D01*
X015790Y025302D01*
X015918Y025173D01*
X017548Y025173D01*
X017587Y025135D01*
X017699Y025088D01*
X017820Y025088D01*
X017932Y025135D01*
X018018Y025221D01*
X018065Y025333D01*
X018065Y025454D01*
X018018Y025566D01*
X018011Y025573D01*
X018637Y025573D01*
X018712Y025498D01*
X018840Y025445D01*
X018979Y025445D01*
X019107Y025498D01*
X019205Y025596D01*
X019258Y025724D01*
X019258Y025863D01*
X019205Y025990D01*
X019107Y026088D01*
X018979Y026141D01*
X018840Y026141D01*
X018712Y026088D01*
X018637Y026013D01*
X016351Y026013D01*
X015608Y026756D01*
X015608Y026863D01*
X015555Y026990D01*
X015457Y027088D01*
X015329Y027141D01*
X015190Y027141D01*
X015062Y027088D01*
X014964Y026990D01*
X014945Y026943D01*
X014829Y026991D01*
X014690Y026991D01*
X014562Y026938D01*
X014464Y026840D01*
X014411Y026713D01*
X014411Y026574D01*
X014464Y026446D01*
X014562Y026348D01*
X014448Y026485D02*
X013530Y026485D01*
X013530Y026644D02*
X014411Y026644D01*
X014449Y026802D02*
X013530Y026802D01*
X013530Y026961D02*
X014616Y026961D01*
X014903Y026961D02*
X014952Y026961D01*
X015137Y027119D02*
X013530Y027119D01*
X012240Y027595D02*
X008980Y027595D01*
X008980Y027753D02*
X012240Y027753D01*
X012240Y027912D02*
X009490Y027912D01*
X009538Y028070D02*
X012240Y028070D01*
X012240Y028229D02*
X011818Y028229D01*
X011832Y028235D02*
X011918Y028321D01*
X011965Y028433D01*
X011965Y028554D01*
X011931Y028634D01*
X011932Y028635D01*
X012018Y028721D01*
X012065Y028833D01*
X012065Y028837D01*
X012101Y028873D01*
X012230Y029002D01*
X012230Y030552D01*
X012266Y030588D01*
X012320Y030588D01*
X012432Y030635D01*
X012518Y030721D01*
X012565Y030833D01*
X012565Y030954D01*
X012518Y031066D01*
X012432Y031152D01*
X012320Y031198D01*
X012199Y031198D01*
X012087Y031152D01*
X012001Y031066D01*
X011955Y030954D01*
X011955Y030899D01*
X011918Y030863D01*
X011790Y030734D01*
X011790Y029198D01*
X011699Y029198D01*
X011587Y029152D01*
X011530Y029095D01*
X011530Y029748D01*
X011565Y029833D01*
X011565Y029954D01*
X011518Y030066D01*
X011432Y030152D01*
X011320Y030198D01*
X011199Y030198D01*
X011087Y030152D01*
X011001Y030066D01*
X010955Y029954D01*
X010955Y029833D01*
X011001Y029721D01*
X011087Y029635D01*
X011090Y029634D01*
X011090Y028452D01*
X011140Y028402D01*
X011268Y028273D01*
X011448Y028273D01*
X011487Y028235D01*
X011599Y028188D01*
X011720Y028188D01*
X011832Y028235D01*
X011946Y028387D02*
X012240Y028387D01*
X012240Y028546D02*
X011965Y028546D01*
X012002Y028704D02*
X012240Y028704D01*
X012240Y028863D02*
X012090Y028863D01*
X012230Y029021D02*
X012240Y029021D01*
X012230Y029180D02*
X012240Y029180D01*
X012230Y029338D02*
X012240Y029338D01*
X012230Y029497D02*
X012240Y029497D01*
X012230Y029655D02*
X012240Y029655D01*
X012230Y029814D02*
X012240Y029814D01*
X012230Y029972D02*
X012240Y029972D01*
X012230Y030131D02*
X012316Y030131D01*
X012230Y030289D02*
X012424Y030289D01*
X012230Y030448D02*
X018394Y030448D01*
X018155Y030606D02*
X012364Y030606D01*
X012536Y030765D02*
X017983Y030765D01*
X017955Y030923D02*
X012565Y030923D01*
X012502Y031082D02*
X018017Y031082D01*
X018502Y031082D02*
X030371Y031082D01*
X030331Y031240D02*
X009865Y031240D01*
X009823Y031082D02*
X012017Y031082D01*
X011955Y030923D02*
X009551Y030923D01*
X009480Y030765D02*
X011820Y030765D01*
X011918Y030863D02*
X011918Y030863D01*
X011790Y030606D02*
X009480Y030606D01*
X009480Y030448D02*
X011790Y030448D01*
X011790Y030289D02*
X009480Y030289D01*
X009480Y030131D02*
X010061Y030131D01*
X010075Y030138D02*
X010008Y030104D01*
X009947Y030059D01*
X009893Y030006D01*
X009849Y029945D01*
X009815Y029878D01*
X009791Y029806D01*
X009780Y029731D01*
X009780Y029413D01*
X010240Y029413D01*
X010240Y030173D01*
X010222Y030173D01*
X010147Y030161D01*
X010075Y030138D01*
X010240Y030131D02*
X010280Y030131D01*
X010280Y030173D02*
X010280Y029413D01*
X010740Y029413D01*
X010740Y029731D01*
X010728Y029806D01*
X010704Y029878D01*
X010670Y029945D01*
X010626Y030006D01*
X010572Y030059D01*
X010511Y030104D01*
X010444Y030138D01*
X010372Y030161D01*
X010297Y030173D01*
X010280Y030173D01*
X010458Y030131D02*
X011066Y030131D01*
X010962Y029972D02*
X010650Y029972D01*
X010725Y029814D02*
X010962Y029814D01*
X011066Y029655D02*
X010740Y029655D01*
X010740Y029497D02*
X011090Y029497D01*
X011090Y029338D02*
X010740Y029338D01*
X010740Y029373D02*
X010280Y029373D01*
X010280Y029413D01*
X010240Y029413D01*
X010240Y029373D01*
X010280Y029373D01*
X010280Y028613D01*
X010297Y028613D01*
X010372Y028625D01*
X010444Y028648D01*
X010511Y028683D01*
X010572Y028727D01*
X010626Y028781D01*
X010670Y028842D01*
X010704Y028909D01*
X010728Y028981D01*
X010740Y029056D01*
X010740Y029373D01*
X010740Y029180D02*
X011090Y029180D01*
X011090Y029021D02*
X010734Y029021D01*
X010681Y028863D02*
X011090Y028863D01*
X011090Y028704D02*
X010541Y028704D01*
X010280Y028704D02*
X010240Y028704D01*
X010240Y028613D02*
X010240Y029373D01*
X009780Y029373D01*
X009780Y029056D01*
X009791Y028981D01*
X009815Y028909D01*
X009849Y028842D01*
X009893Y028781D01*
X009947Y028727D01*
X010008Y028683D01*
X010075Y028648D01*
X010147Y028625D01*
X010222Y028613D01*
X010240Y028613D01*
X010240Y028863D02*
X010280Y028863D01*
X010280Y029021D02*
X010240Y029021D01*
X010240Y029180D02*
X010280Y029180D01*
X010280Y029338D02*
X010240Y029338D01*
X010240Y029497D02*
X010280Y029497D01*
X010280Y029655D02*
X010240Y029655D01*
X010240Y029814D02*
X010280Y029814D01*
X010280Y029972D02*
X010240Y029972D01*
X009869Y029972D02*
X009631Y029972D01*
X009707Y029814D02*
X009794Y029814D01*
X009780Y029655D02*
X009720Y029655D01*
X009720Y029497D02*
X009780Y029497D01*
X009780Y029338D02*
X009720Y029338D01*
X009720Y029180D02*
X009780Y029180D01*
X009785Y029021D02*
X009720Y029021D01*
X009662Y028863D02*
X009838Y028863D01*
X009978Y028704D02*
X009521Y028704D01*
X009358Y028387D02*
X011154Y028387D01*
X011140Y028402D02*
X011140Y028402D01*
X011090Y028546D02*
X008668Y028546D01*
X009509Y028229D02*
X011501Y028229D01*
X011530Y029180D02*
X011654Y029180D01*
X011530Y029338D02*
X011790Y029338D01*
X011790Y029497D02*
X011530Y029497D01*
X011530Y029655D02*
X011790Y029655D01*
X011790Y029814D02*
X011557Y029814D01*
X011557Y029972D02*
X011790Y029972D01*
X011790Y030131D02*
X011453Y030131D01*
X012680Y029655D02*
X013780Y029655D01*
X013780Y029497D02*
X012680Y029497D01*
X012680Y029338D02*
X013780Y029338D01*
X013780Y029180D02*
X012680Y029180D01*
X012680Y029021D02*
X013785Y029021D01*
X013838Y028863D02*
X012680Y028863D01*
X012811Y029814D02*
X013794Y029814D01*
X013869Y029972D02*
X012910Y029972D01*
X013245Y032191D02*
X003990Y032191D01*
X003990Y032033D02*
X035547Y032033D01*
X035547Y032191D02*
X026274Y032191D01*
X026432Y032350D02*
X035547Y032350D01*
X035546Y031874D02*
X003990Y031874D01*
X003990Y031716D02*
X035546Y031716D01*
X030890Y030606D02*
X018858Y030606D01*
X018980Y030448D02*
X030890Y030448D01*
X030827Y030765D02*
X018699Y030765D01*
X018565Y030923D02*
X030574Y030923D01*
X030368Y031399D02*
X009825Y031399D01*
X013087Y032350D02*
X003990Y032350D01*
X006109Y026010D02*
X008040Y026010D01*
X008040Y025851D02*
X006127Y025851D01*
X006075Y025693D02*
X008040Y025693D01*
X008040Y025534D02*
X005854Y025534D01*
X005665Y025534D02*
X005462Y025534D01*
X005303Y025376D02*
X008040Y025376D01*
X008040Y025217D02*
X005180Y025217D01*
X005180Y025059D02*
X006498Y025059D01*
X006501Y025066D02*
X006455Y024954D01*
X006455Y024899D01*
X006040Y024484D01*
X006040Y023105D01*
X006001Y023066D01*
X005955Y022954D01*
X005955Y022833D01*
X006001Y022721D01*
X006087Y022635D01*
X006199Y022588D01*
X006320Y022588D01*
X006432Y022635D01*
X006518Y022721D01*
X006565Y022833D01*
X006565Y022954D01*
X006518Y023066D01*
X006480Y023105D01*
X006480Y024302D01*
X006766Y024588D01*
X006820Y024588D01*
X006932Y024635D01*
X007018Y024721D01*
X007065Y024833D01*
X007065Y024954D01*
X007018Y025066D01*
X006932Y025152D01*
X006820Y025198D01*
X006699Y025198D01*
X006587Y025152D01*
X006501Y025066D01*
X006455Y024900D02*
X005180Y024900D01*
X005180Y024742D02*
X006297Y024742D01*
X006138Y024583D02*
X005180Y024583D01*
X005180Y024425D02*
X006040Y024425D01*
X006040Y024266D02*
X005180Y024266D01*
X005180Y024108D02*
X006040Y024108D01*
X006040Y023949D02*
X005180Y023949D01*
X005180Y023791D02*
X006040Y023791D01*
X006040Y023632D02*
X005180Y023632D01*
X005180Y023474D02*
X006040Y023474D01*
X006040Y023315D02*
X005180Y023315D01*
X005180Y023157D02*
X006040Y023157D01*
X005973Y022998D02*
X005180Y022998D01*
X005180Y022840D02*
X005955Y022840D01*
X006040Y022681D02*
X005180Y022681D01*
X005180Y022523D02*
X006592Y022523D01*
X006479Y022681D02*
X006751Y022681D01*
X006909Y022840D02*
X006565Y022840D01*
X006546Y022998D02*
X007068Y022998D01*
X007226Y023157D02*
X006480Y023157D01*
X006480Y023315D02*
X007355Y023315D01*
X007355Y023285D02*
X006268Y022198D01*
X006199Y022198D01*
X006087Y022152D01*
X006001Y022066D01*
X005955Y021954D01*
X005955Y021833D01*
X006001Y021721D01*
X006087Y021635D01*
X006199Y021588D01*
X006320Y021588D01*
X006432Y021635D01*
X006518Y021721D01*
X006565Y021833D01*
X006565Y021901D01*
X007651Y022988D01*
X007720Y022988D01*
X007832Y023035D01*
X007918Y023121D01*
X007965Y023233D01*
X007965Y023354D01*
X007918Y023466D01*
X007832Y023552D01*
X007720Y023598D01*
X007599Y023598D01*
X007487Y023552D01*
X007401Y023466D01*
X007355Y023354D01*
X007355Y023285D01*
X007409Y023474D02*
X006480Y023474D01*
X006480Y023632D02*
X008040Y023632D01*
X008040Y023474D02*
X007910Y023474D01*
X007965Y023315D02*
X008040Y023315D01*
X008040Y023157D02*
X007933Y023157D01*
X008040Y022998D02*
X007744Y022998D01*
X007503Y022840D02*
X008040Y022840D01*
X008040Y022681D02*
X007345Y022681D01*
X007186Y022523D02*
X008040Y022523D01*
X008040Y022364D02*
X007028Y022364D01*
X006869Y022206D02*
X008040Y022206D01*
X008040Y022047D02*
X006711Y022047D01*
X006565Y021889D02*
X008040Y021889D01*
X008040Y021730D02*
X006522Y021730D01*
X005997Y021730D02*
X005180Y021730D01*
X005180Y021572D02*
X008040Y021572D01*
X008040Y021413D02*
X005180Y021413D01*
X005180Y021255D02*
X008040Y021255D01*
X008040Y021096D02*
X005180Y021096D01*
X005180Y020938D02*
X008040Y020938D01*
X008040Y020779D02*
X005180Y020779D01*
X005180Y020621D02*
X008040Y020621D01*
X008040Y020462D02*
X005180Y020462D01*
X005180Y020304D02*
X008040Y020304D01*
X008040Y020145D02*
X005180Y020145D01*
X005180Y019987D02*
X008040Y019987D01*
X008040Y019828D02*
X007763Y019828D01*
X007744Y019838D02*
X007672Y019861D01*
X007597Y019873D01*
X007280Y019873D01*
X007280Y019413D01*
X008040Y019413D01*
X008040Y019431D01*
X008028Y019506D01*
X008004Y019578D01*
X007970Y019645D01*
X007926Y019706D01*
X007872Y019759D01*
X007811Y019804D01*
X007744Y019838D01*
X007952Y019670D02*
X008040Y019670D01*
X008026Y019511D02*
X008040Y019511D01*
X008040Y019373D02*
X007280Y019373D01*
X007280Y019413D01*
X007240Y019413D01*
X007240Y019873D01*
X006922Y019873D01*
X006847Y019861D01*
X006775Y019838D01*
X006708Y019804D01*
X006647Y019759D01*
X006593Y019706D01*
X006549Y019645D01*
X006515Y019578D01*
X006491Y019506D01*
X006480Y019431D01*
X006480Y019413D01*
X007240Y019413D01*
X007240Y019373D01*
X007280Y019373D01*
X007280Y018913D01*
X007597Y018913D01*
X007672Y018925D01*
X007744Y018948D01*
X007811Y018983D01*
X007872Y019027D01*
X007926Y019081D01*
X007970Y019142D01*
X008004Y019209D01*
X008028Y019281D01*
X008040Y019356D01*
X008040Y019373D01*
X008039Y019353D02*
X008040Y019353D01*
X008040Y019194D02*
X007997Y019194D01*
X008040Y019036D02*
X007881Y019036D01*
X008040Y018877D02*
X005180Y018877D01*
X005180Y018719D02*
X006635Y018719D01*
X006699Y018783D02*
X006570Y018654D01*
X006500Y018485D01*
X006500Y018302D01*
X006570Y018133D01*
X006699Y018003D01*
X006868Y017933D01*
X007651Y017933D01*
X007820Y018003D01*
X007949Y018133D01*
X008020Y018302D01*
X008020Y018485D01*
X007949Y018654D01*
X007820Y018783D01*
X007651Y018853D01*
X006868Y018853D01*
X006699Y018783D01*
X006775Y018948D02*
X006847Y018925D01*
X006922Y018913D01*
X007240Y018913D01*
X007240Y019373D01*
X006480Y019373D01*
X006480Y019356D01*
X006491Y019281D01*
X006515Y019209D01*
X006549Y019142D01*
X006593Y019081D01*
X006647Y019027D01*
X006708Y018983D01*
X006775Y018948D01*
X006638Y019036D02*
X005180Y019036D01*
X005180Y019194D02*
X006522Y019194D01*
X006480Y019353D02*
X005180Y019353D01*
X005180Y019511D02*
X006493Y019511D01*
X006567Y019670D02*
X005180Y019670D01*
X005180Y019828D02*
X006756Y019828D01*
X007240Y019828D02*
X007280Y019828D01*
X007280Y019670D02*
X007240Y019670D01*
X007240Y019511D02*
X007280Y019511D01*
X007280Y019353D02*
X007240Y019353D01*
X007240Y019194D02*
X007280Y019194D01*
X007280Y019036D02*
X007240Y019036D01*
X007885Y018719D02*
X008040Y018719D01*
X008040Y018560D02*
X007988Y018560D01*
X008020Y018402D02*
X008040Y018402D01*
X008040Y018243D02*
X007995Y018243D01*
X008040Y018085D02*
X007902Y018085D01*
X008040Y017926D02*
X005180Y017926D01*
X005180Y017768D02*
X006684Y017768D01*
X006699Y017783D02*
X006570Y017654D01*
X006500Y017485D01*
X006500Y017302D01*
X006570Y017133D01*
X006699Y017003D01*
X006868Y016933D01*
X007651Y016933D01*
X007820Y017003D01*
X007949Y017133D01*
X008020Y017302D01*
X008020Y017485D01*
X007949Y017654D01*
X007820Y017783D01*
X007651Y017853D01*
X006868Y017853D01*
X006699Y017783D01*
X006551Y017609D02*
X005180Y017609D01*
X005180Y017451D02*
X006500Y017451D01*
X006503Y017292D02*
X005180Y017292D01*
X005180Y017134D02*
X006569Y017134D01*
X006767Y016975D02*
X005180Y016975D01*
X005180Y016817D02*
X006780Y016817D01*
X006699Y016783D02*
X006570Y016654D01*
X006500Y016485D01*
X006500Y016444D01*
X005672Y015617D01*
X005624Y015597D01*
X005556Y015529D01*
X005520Y015441D01*
X005520Y012146D01*
X005464Y012090D01*
X005411Y011963D01*
X005411Y011824D01*
X005464Y011696D01*
X005562Y011598D01*
X005690Y011545D01*
X005829Y011545D01*
X005957Y011598D01*
X006055Y011696D01*
X006108Y011824D01*
X006108Y011963D01*
X006055Y012090D01*
X006000Y012146D01*
X006000Y015322D01*
X006690Y016012D01*
X006699Y016003D01*
X006868Y015933D01*
X007651Y015933D01*
X007820Y016003D01*
X007949Y016133D01*
X008020Y016302D01*
X008020Y016485D01*
X007949Y016654D01*
X007820Y016783D01*
X007651Y016853D01*
X006868Y016853D01*
X006699Y016783D01*
X006574Y016658D02*
X005180Y016658D01*
X005180Y016500D02*
X006506Y016500D01*
X006396Y016341D02*
X005180Y016341D01*
X005180Y016183D02*
X006238Y016183D01*
X006079Y016024D02*
X005180Y016024D01*
X005180Y015866D02*
X005921Y015866D01*
X005762Y015707D02*
X005180Y015707D01*
X005180Y015549D02*
X005576Y015549D01*
X005520Y015390D02*
X005180Y015390D01*
X005180Y015232D02*
X005520Y015232D01*
X005520Y015073D02*
X005180Y015073D01*
X005180Y014915D02*
X005520Y014915D01*
X005520Y014756D02*
X005180Y014756D01*
X005180Y014598D02*
X005520Y014598D01*
X005520Y014439D02*
X005180Y014439D01*
X005180Y014281D02*
X005520Y014281D01*
X005520Y014122D02*
X005180Y014122D01*
X005180Y013964D02*
X005520Y013964D01*
X005520Y013805D02*
X005180Y013805D01*
X005180Y013647D02*
X005520Y013647D01*
X005520Y013488D02*
X005180Y013488D01*
X005180Y013330D02*
X005520Y013330D01*
X005520Y013171D02*
X005180Y013171D01*
X005180Y013013D02*
X005520Y013013D01*
X005520Y012854D02*
X005180Y012854D01*
X005180Y012696D02*
X005520Y012696D01*
X005520Y012537D02*
X005180Y012537D01*
X005180Y012379D02*
X005520Y012379D01*
X005520Y012220D02*
X005180Y012220D01*
X005180Y012062D02*
X005453Y012062D01*
X005411Y011903D02*
X005180Y011903D01*
X005180Y011745D02*
X005444Y011745D01*
X005591Y011586D02*
X005180Y011586D01*
X005180Y011428D02*
X006600Y011428D01*
X006613Y011269D02*
X005180Y011269D01*
X005180Y011111D02*
X005485Y011111D01*
X005464Y011090D02*
X005411Y010963D01*
X005411Y010824D01*
X005464Y010696D01*
X005540Y010621D01*
X005540Y009302D01*
X005931Y008911D01*
X005931Y008828D01*
X005981Y008707D01*
X006073Y008615D01*
X006194Y008565D01*
X006325Y008565D01*
X006446Y008615D01*
X006538Y008707D01*
X006588Y008828D01*
X006588Y008959D01*
X006538Y009079D01*
X006446Y009172D01*
X006325Y009222D01*
X006242Y009222D01*
X005980Y009484D01*
X005980Y010621D01*
X006055Y010696D01*
X006108Y010824D01*
X006108Y010963D01*
X006055Y011090D01*
X005957Y011188D01*
X005829Y011241D01*
X005690Y011241D01*
X005562Y011188D01*
X005464Y011090D01*
X005411Y010952D02*
X005180Y010952D01*
X005180Y010794D02*
X005424Y010794D01*
X005525Y010635D02*
X005180Y010635D01*
X005180Y010477D02*
X005540Y010477D01*
X005540Y010318D02*
X005180Y010318D01*
X005180Y010160D02*
X005540Y010160D01*
X005540Y010001D02*
X005180Y010001D01*
X005180Y009843D02*
X005540Y009843D01*
X005540Y009684D02*
X005180Y009684D01*
X005180Y009526D02*
X005540Y009526D01*
X005540Y009367D02*
X005180Y009367D01*
X005255Y009209D02*
X005633Y009209D01*
X005791Y009050D02*
X005414Y009050D01*
X005572Y008892D02*
X005931Y008892D01*
X005970Y008733D02*
X005731Y008733D01*
X005889Y008575D02*
X006170Y008575D01*
X006349Y008575D02*
X008040Y008575D01*
X008040Y008733D02*
X006549Y008733D01*
X006588Y008892D02*
X008040Y008892D01*
X008040Y009050D02*
X006550Y009050D01*
X006356Y009209D02*
X008040Y009209D01*
X008040Y009367D02*
X006097Y009367D01*
X005980Y009526D02*
X008040Y009526D01*
X008040Y009684D02*
X005980Y009684D01*
X005980Y009843D02*
X008040Y009843D01*
X008040Y010001D02*
X005980Y010001D01*
X005980Y010160D02*
X008040Y010160D01*
X008040Y010318D02*
X005980Y010318D01*
X005980Y010477D02*
X008040Y010477D01*
X008040Y010635D02*
X005994Y010635D01*
X006095Y010794D02*
X008040Y010794D01*
X008040Y010952D02*
X007797Y010952D01*
X008028Y011111D02*
X008040Y011111D01*
X008480Y011111D02*
X010860Y011111D01*
X010860Y011269D02*
X008480Y011269D01*
X008480Y011428D02*
X010860Y011428D01*
X010860Y011586D02*
X008480Y011586D01*
X008480Y011745D02*
X010860Y011745D01*
X010717Y011903D02*
X008480Y011903D01*
X008480Y012062D02*
X008860Y012062D01*
X008805Y012220D02*
X008480Y012220D01*
X008480Y012379D02*
X008836Y012379D01*
X008733Y012537D02*
X008480Y012537D01*
X008480Y012696D02*
X008574Y012696D01*
X008040Y012696D02*
X008033Y012696D01*
X008040Y012854D02*
X007794Y012854D01*
X008040Y013013D02*
X006000Y013013D01*
X006000Y013171D02*
X008040Y013171D01*
X008040Y013330D02*
X006000Y013330D01*
X006000Y013488D02*
X008040Y013488D01*
X008040Y013647D02*
X006000Y013647D01*
X006000Y013805D02*
X008040Y013805D01*
X008040Y013964D02*
X006000Y013964D01*
X006000Y014122D02*
X008040Y014122D01*
X008040Y014281D02*
X006000Y014281D01*
X006000Y014439D02*
X008040Y014439D01*
X008040Y014598D02*
X006000Y014598D01*
X006000Y014756D02*
X008040Y014756D01*
X008040Y014915D02*
X006000Y014915D01*
X006000Y015073D02*
X008040Y015073D01*
X008040Y015232D02*
X006000Y015232D01*
X006068Y015390D02*
X008040Y015390D01*
X008040Y015549D02*
X006226Y015549D01*
X006385Y015707D02*
X008040Y015707D01*
X008040Y015866D02*
X006543Y015866D01*
X005760Y015393D02*
X005760Y011893D01*
X006108Y011903D02*
X008040Y011903D01*
X008040Y011745D02*
X007959Y011745D01*
X008007Y012062D02*
X008040Y012062D01*
X007380Y012062D02*
X007340Y012062D01*
X007340Y011913D02*
X007340Y012373D01*
X006580Y012373D01*
X006580Y012356D01*
X006591Y012281D01*
X006615Y012209D01*
X006649Y012142D01*
X006693Y012081D01*
X006747Y012027D01*
X006808Y011983D01*
X006875Y011948D01*
X006947Y011925D01*
X007022Y011913D01*
X007340Y011913D01*
X007340Y012220D02*
X007380Y012220D01*
X007340Y012379D02*
X006000Y012379D01*
X006000Y012537D02*
X006602Y012537D01*
X006686Y012696D02*
X006000Y012696D01*
X006000Y012854D02*
X006925Y012854D01*
X007340Y012854D02*
X007380Y012854D01*
X007380Y012696D02*
X007340Y012696D01*
X007340Y012537D02*
X007380Y012537D01*
X006712Y012062D02*
X006067Y012062D01*
X006000Y012220D02*
X006611Y012220D01*
X006760Y011745D02*
X006075Y011745D01*
X005928Y011586D02*
X006642Y011586D01*
X006691Y011111D02*
X006034Y011111D01*
X006108Y010952D02*
X006922Y010952D01*
X008480Y010952D02*
X010860Y010952D01*
X010860Y010794D02*
X008480Y010794D01*
X008480Y010635D02*
X010860Y010635D01*
X010860Y010477D02*
X008480Y010477D01*
X008480Y010318D02*
X010860Y010318D01*
X010860Y010160D02*
X008480Y010160D01*
X008480Y010001D02*
X010860Y010001D01*
X010877Y009843D02*
X008480Y009843D01*
X008480Y009684D02*
X008586Y009684D01*
X008488Y009526D02*
X008480Y009526D01*
X008480Y009367D02*
X008486Y009367D01*
X008480Y009209D02*
X008580Y009209D01*
X008480Y009050D02*
X008906Y009050D01*
X009064Y008892D02*
X008480Y008892D01*
X008480Y008733D02*
X009223Y008733D01*
X009381Y008575D02*
X008480Y008575D01*
X008480Y008416D02*
X009540Y008416D01*
X009698Y008258D02*
X008480Y008258D01*
X008480Y008099D02*
X012307Y008099D01*
X012465Y007941D02*
X008480Y007941D01*
X008480Y007782D02*
X012550Y007782D01*
X012550Y007624D02*
X008480Y007624D01*
X008480Y007465D02*
X012550Y007465D01*
X012550Y007307D02*
X008480Y007307D01*
X008480Y007148D02*
X012550Y007148D01*
X012550Y006990D02*
X008480Y006990D01*
X008480Y006831D02*
X012550Y006831D01*
X012550Y006673D02*
X008480Y006673D01*
X008480Y006514D02*
X012550Y006514D01*
X012550Y006356D02*
X008480Y006356D01*
X008480Y006197D02*
X012550Y006197D01*
X012550Y006039D02*
X009593Y006039D01*
X009572Y006059D02*
X009511Y006104D01*
X009444Y006138D01*
X009372Y006161D01*
X009297Y006173D01*
X009280Y006173D01*
X009280Y005413D01*
X009740Y005413D01*
X009740Y005731D01*
X009728Y005806D01*
X009704Y005878D01*
X009670Y005945D01*
X009626Y006006D01*
X009572Y006059D01*
X009703Y005880D02*
X012550Y005880D01*
X012387Y005722D02*
X009740Y005722D01*
X009740Y005563D02*
X012311Y005563D01*
X012300Y005405D02*
X009280Y005405D01*
X009280Y005413D02*
X009280Y005373D01*
X009740Y005373D01*
X009740Y005056D01*
X009728Y004981D01*
X009704Y004909D01*
X009670Y004842D01*
X009626Y004781D01*
X009572Y004727D01*
X009511Y004683D01*
X009444Y004648D01*
X009372Y004625D01*
X009297Y004613D01*
X009280Y004613D01*
X009280Y005373D01*
X009240Y005373D01*
X009240Y004613D01*
X009222Y004613D01*
X009147Y004625D01*
X009075Y004648D01*
X009008Y004683D01*
X008947Y004727D01*
X008893Y004781D01*
X008849Y004842D01*
X008815Y004909D01*
X008791Y004981D01*
X008780Y005056D01*
X008780Y005373D01*
X009240Y005373D01*
X009240Y005413D01*
X009240Y006173D01*
X009222Y006173D01*
X009147Y006161D01*
X009075Y006138D01*
X009008Y006104D01*
X008947Y006059D01*
X008893Y006006D01*
X008849Y005945D01*
X008815Y005878D01*
X008791Y005806D01*
X008780Y005731D01*
X008780Y005413D01*
X009240Y005413D01*
X009280Y005413D01*
X009240Y005405D02*
X008720Y005405D01*
X008720Y005563D02*
X008780Y005563D01*
X008780Y005722D02*
X008720Y005722D01*
X008680Y005880D02*
X008816Y005880D01*
X008926Y006039D02*
X008565Y006039D01*
X008040Y006197D02*
X007480Y006197D01*
X007480Y006356D02*
X008040Y006356D01*
X008040Y006514D02*
X007480Y006514D01*
X007480Y006673D02*
X008040Y006673D01*
X008040Y006831D02*
X007480Y006831D01*
X007474Y006990D02*
X008040Y006990D01*
X008040Y007148D02*
X007316Y007148D01*
X007157Y007307D02*
X008040Y007307D01*
X008040Y007465D02*
X006999Y007465D01*
X006840Y007624D02*
X008040Y007624D01*
X008040Y007782D02*
X006682Y007782D01*
X006523Y007941D02*
X008040Y007941D01*
X008040Y008099D02*
X006365Y008099D01*
X006206Y008258D02*
X008040Y008258D01*
X008040Y008416D02*
X006048Y008416D01*
X004740Y010477D02*
X004707Y010477D01*
X009033Y009684D02*
X011031Y009684D01*
X011053Y009526D02*
X009131Y009526D01*
X009182Y009367D02*
X011171Y009367D01*
X011548Y009367D02*
X011990Y009367D01*
X011990Y009209D02*
X009341Y009209D01*
X009499Y009050D02*
X011990Y009050D01*
X011967Y008892D02*
X009658Y008892D01*
X009816Y008733D02*
X011895Y008733D01*
X012432Y008892D02*
X014764Y008892D01*
X014606Y009050D02*
X012410Y009050D01*
X012410Y009209D02*
X014447Y009209D01*
X014289Y009367D02*
X012410Y009367D01*
X012410Y009526D02*
X014130Y009526D01*
X013972Y009684D02*
X012410Y009684D01*
X012410Y009843D02*
X013813Y009843D01*
X013655Y010001D02*
X013399Y010001D01*
X013020Y010001D02*
X012626Y010001D01*
X012788Y010160D02*
X012914Y010160D01*
X012838Y010318D02*
X012815Y010318D01*
X012272Y010477D02*
X011260Y010477D01*
X011260Y010635D02*
X012171Y010635D01*
X012012Y010794D02*
X011260Y010794D01*
X011260Y010952D02*
X011854Y010952D01*
X011695Y011111D02*
X011260Y011111D01*
X011260Y011269D02*
X011537Y011269D01*
X011378Y011428D02*
X011260Y011428D01*
X011655Y011745D02*
X011777Y011745D01*
X011813Y011586D02*
X012868Y011586D01*
X012857Y011428D02*
X011972Y011428D01*
X012130Y011269D02*
X012454Y011269D01*
X012405Y011111D02*
X012289Y011111D01*
X012142Y011745D02*
X012980Y011745D01*
X013339Y011745D02*
X016600Y011745D01*
X016600Y011903D02*
X012252Y011903D01*
X012261Y012062D02*
X016745Y012062D01*
X016904Y012220D02*
X012389Y012220D01*
X012415Y012379D02*
X017062Y012379D01*
X017221Y012537D02*
X012347Y012537D01*
X012054Y012696D02*
X017379Y012696D01*
X017538Y012854D02*
X011895Y012854D01*
X011737Y013013D02*
X017696Y013013D01*
X017676Y013488D02*
X014927Y013488D01*
X015009Y013647D02*
X017688Y013647D01*
X017800Y013805D02*
X015861Y013805D01*
X015658Y013805D02*
X015244Y013805D01*
X015374Y013964D02*
X015483Y013964D01*
X014986Y013805D02*
X014851Y013805D01*
X014828Y013964D02*
X014798Y013964D01*
X014692Y013964D02*
X014662Y013964D01*
X014669Y014122D02*
X014534Y014122D01*
X014511Y014281D02*
X014375Y014281D01*
X014504Y013805D02*
X014639Y013805D01*
X015614Y014756D02*
X016251Y014756D01*
X016213Y014915D02*
X016349Y014915D01*
X016093Y014915D02*
X015455Y014915D01*
X016243Y015549D02*
X013085Y015549D01*
X012734Y015549D02*
X012611Y015549D01*
X012620Y015390D02*
X012486Y015390D01*
X012565Y015232D02*
X012605Y015232D01*
X012557Y015073D02*
X012698Y015073D01*
X012398Y014915D02*
X013005Y014915D01*
X013160Y014756D02*
X012240Y014756D01*
X012081Y014598D02*
X012847Y014598D01*
X012736Y015707D02*
X016474Y015707D01*
X016573Y015866D02*
X012862Y015866D01*
X012965Y016024D02*
X016405Y016024D01*
X015905Y016183D02*
X012960Y016183D01*
X012960Y016341D02*
X013500Y016341D01*
X013341Y016500D02*
X012960Y016500D01*
X013168Y016658D02*
X013183Y016658D01*
X012352Y015866D02*
X011959Y015866D01*
X012065Y015707D02*
X012226Y015707D01*
X013663Y017451D02*
X013799Y017451D01*
X013640Y017609D02*
X013543Y017609D01*
X013279Y018085D02*
X011334Y018085D01*
X011492Y018243D02*
X014478Y018243D01*
X014367Y018402D02*
X011651Y018402D01*
X012023Y018560D02*
X014146Y018560D01*
X013981Y018719D02*
X012188Y018719D01*
X012215Y018877D02*
X013955Y018877D01*
X014021Y019036D02*
X012148Y019036D01*
X011972Y019194D02*
X012826Y019194D01*
X012667Y019353D02*
X012130Y019353D01*
X012289Y019511D02*
X012560Y019511D01*
X012560Y019670D02*
X012447Y019670D01*
X012960Y019670D02*
X015403Y019670D01*
X015245Y019511D02*
X014523Y019511D01*
X014615Y019353D02*
X015086Y019353D01*
X014928Y019194D02*
X014599Y019194D01*
X015018Y018719D02*
X015802Y018719D01*
X015961Y018877D02*
X015176Y018877D01*
X015335Y019036D02*
X016119Y019036D01*
X016278Y019194D02*
X015493Y019194D01*
X015652Y019353D02*
X016436Y019353D01*
X016595Y019511D02*
X015810Y019511D01*
X015969Y019670D02*
X016481Y019670D01*
X016455Y019828D02*
X016127Y019828D01*
X016286Y019987D02*
X016522Y019987D01*
X016444Y020145D02*
X016829Y020145D01*
X016987Y020304D02*
X016603Y020304D01*
X016761Y020462D02*
X017146Y020462D01*
X017304Y020621D02*
X016920Y020621D01*
X017078Y020779D02*
X017365Y020779D01*
X017473Y020938D02*
X017237Y020938D01*
X017395Y021096D02*
X019000Y021096D01*
X019000Y020938D02*
X017846Y020938D01*
X017954Y020779D02*
X019000Y020779D01*
X019000Y020621D02*
X017960Y020621D01*
X017860Y020462D02*
X019000Y020462D01*
X019000Y020304D02*
X017553Y020304D01*
X017394Y020145D02*
X018230Y020145D01*
X018589Y020145D02*
X019000Y020145D01*
X019000Y019987D02*
X018701Y019987D01*
X018713Y019828D02*
X019000Y019828D01*
X019000Y019670D02*
X018617Y019670D01*
X018202Y019670D02*
X017319Y019670D01*
X016354Y020621D02*
X014370Y020621D01*
X014528Y020779D02*
X016513Y020779D01*
X016671Y020938D02*
X014687Y020938D01*
X014845Y021096D02*
X016830Y021096D01*
X016988Y021255D02*
X015004Y021255D01*
X015162Y021413D02*
X017147Y021413D01*
X017305Y021572D02*
X015321Y021572D01*
X015479Y021730D02*
X017464Y021730D01*
X017622Y021889D02*
X015638Y021889D01*
X015796Y022047D02*
X017781Y022047D01*
X017939Y022206D02*
X015955Y022206D01*
X016113Y022364D02*
X019000Y022364D01*
X019000Y022206D02*
X018972Y022206D01*
X018976Y021889D02*
X019000Y021889D01*
X019000Y021730D02*
X018029Y021730D01*
X017871Y021572D02*
X019000Y021572D01*
X019000Y021413D02*
X017712Y021413D01*
X017554Y021255D02*
X019000Y021255D01*
X019420Y021255D02*
X019600Y021255D01*
X019600Y021413D02*
X019420Y021413D01*
X019420Y021572D02*
X019600Y021572D01*
X019600Y021730D02*
X019420Y021730D01*
X019420Y021889D02*
X019600Y021889D01*
X019600Y022047D02*
X019420Y022047D01*
X019420Y022206D02*
X019600Y022206D01*
X019600Y022364D02*
X019420Y022364D01*
X019420Y022523D02*
X019600Y022523D01*
X019600Y022681D02*
X019420Y022681D01*
X019420Y022840D02*
X019600Y022840D01*
X019600Y022998D02*
X019420Y022998D01*
X019420Y023157D02*
X019600Y023157D01*
X019600Y023315D02*
X019420Y023315D01*
X019420Y023474D02*
X019600Y023474D01*
X019600Y023632D02*
X019420Y023632D01*
X019420Y023791D02*
X019600Y023791D01*
X019600Y023949D02*
X019420Y023949D01*
X019292Y024108D02*
X019548Y024108D01*
X019281Y024266D02*
X019133Y024266D01*
X019128Y024425D02*
X019015Y024425D01*
X018951Y024583D02*
X019105Y024583D01*
X019177Y024742D02*
X016442Y024742D01*
X016515Y024583D02*
X018468Y024583D01*
X018405Y024425D02*
X016491Y024425D01*
X016338Y024266D02*
X018432Y024266D01*
X018602Y024108D02*
X016363Y024108D01*
X016351Y023949D02*
X016994Y023949D01*
X016955Y023791D02*
X016238Y023791D01*
X016267Y023632D02*
X015936Y023632D01*
X015780Y023474D02*
X016205Y023474D01*
X016094Y023315D02*
X015968Y023315D01*
X016589Y022840D02*
X019000Y022840D01*
X019000Y022998D02*
X016747Y022998D01*
X016906Y023157D02*
X019000Y023157D01*
X019000Y023315D02*
X017064Y023315D01*
X017223Y023474D02*
X019000Y023474D01*
X019000Y023632D02*
X017523Y023632D01*
X017565Y023791D02*
X019000Y023791D01*
X018856Y023949D02*
X017525Y023949D01*
X016816Y023632D02*
X016752Y023632D01*
X016430Y022681D02*
X019000Y022681D01*
X019000Y022523D02*
X016272Y022523D01*
X016196Y020462D02*
X014211Y020462D01*
X014053Y020304D02*
X016037Y020304D01*
X015879Y020145D02*
X013978Y020145D01*
X013441Y020145D02*
X012960Y020145D01*
X012960Y019987D02*
X015720Y019987D01*
X015562Y019828D02*
X012960Y019828D01*
X013074Y019511D02*
X014096Y019511D01*
X013405Y020304D02*
X012960Y020304D01*
X012960Y020462D02*
X013059Y020462D01*
X014841Y018243D02*
X015278Y018243D01*
X015401Y016658D02*
X015121Y016658D01*
X015165Y016500D02*
X015615Y016500D01*
X015746Y016341D02*
X015127Y016341D01*
X016953Y014915D02*
X020560Y014915D01*
X020560Y015073D02*
X017064Y015073D01*
X017242Y015232D02*
X018138Y015232D01*
X017980Y015390D02*
X017400Y015390D01*
X018427Y016658D02*
X018462Y016658D01*
X018586Y016500D02*
X018620Y016500D01*
X018744Y016341D02*
X018779Y016341D01*
X020274Y016341D02*
X020550Y016341D01*
X020550Y016183D02*
X020274Y016183D01*
X020274Y016024D02*
X020550Y016024D01*
X020550Y015866D02*
X020214Y015866D01*
X020274Y015707D02*
X020550Y015707D01*
X020550Y015549D02*
X020274Y015549D01*
X020274Y015390D02*
X020550Y015390D01*
X020560Y015232D02*
X020265Y015232D01*
X020274Y016500D02*
X020550Y016500D01*
X020550Y016658D02*
X020456Y016658D01*
X022230Y016658D02*
X025890Y016658D01*
X025890Y016500D02*
X022230Y016500D01*
X022230Y016341D02*
X025890Y016341D01*
X025890Y016183D02*
X022230Y016183D01*
X022230Y016024D02*
X025890Y016024D01*
X025890Y015866D02*
X022230Y015866D01*
X022230Y015707D02*
X025890Y015707D01*
X025890Y015549D02*
X022230Y015549D01*
X022230Y015390D02*
X025890Y015390D01*
X025021Y015232D02*
X022230Y015232D01*
X022230Y015073D02*
X024697Y015073D01*
X024574Y014915D02*
X022230Y014915D01*
X022230Y014756D02*
X024551Y014756D01*
X024611Y014598D02*
X022230Y014598D01*
X022230Y016817D02*
X025890Y016817D01*
X025890Y016975D02*
X022230Y016975D01*
X022230Y017134D02*
X025890Y017134D01*
X025890Y017292D02*
X022230Y017292D01*
X022230Y017451D02*
X025890Y017451D01*
X025890Y017609D02*
X022230Y017609D01*
X022230Y017768D02*
X025890Y017768D01*
X025890Y017926D02*
X022230Y017926D01*
X022230Y018085D02*
X025890Y018085D01*
X025890Y018243D02*
X022121Y018243D01*
X019600Y019036D02*
X019420Y019036D01*
X019420Y019194D02*
X019600Y019194D01*
X019600Y019353D02*
X019420Y019353D01*
X019420Y019511D02*
X019600Y019511D01*
X019600Y019670D02*
X019420Y019670D01*
X019420Y019828D02*
X019600Y019828D01*
X019600Y019987D02*
X019420Y019987D01*
X019420Y020145D02*
X019600Y020145D01*
X019600Y020304D02*
X019420Y020304D01*
X019420Y020462D02*
X019600Y020462D01*
X019600Y020621D02*
X019420Y020621D01*
X019420Y020779D02*
X019600Y020779D01*
X019600Y020938D02*
X019420Y020938D01*
X019420Y021096D02*
X019600Y021096D01*
X020430Y024108D02*
X020677Y024108D01*
X020800Y024266D02*
X020430Y024266D01*
X020430Y024425D02*
X020800Y024425D01*
X020800Y024583D02*
X020430Y024583D01*
X020430Y024742D02*
X020800Y024742D01*
X020800Y024900D02*
X020430Y024900D01*
X020430Y025059D02*
X020800Y025059D01*
X020800Y025217D02*
X020430Y025217D01*
X020430Y025376D02*
X020800Y025376D01*
X020800Y025534D02*
X020430Y025534D01*
X020430Y025693D02*
X020800Y025693D01*
X020800Y025851D02*
X020430Y025851D01*
X020430Y026010D02*
X020800Y026010D01*
X020800Y026168D02*
X020488Y026168D01*
X020515Y026327D02*
X020800Y026327D01*
X020800Y026485D02*
X020449Y026485D01*
X020800Y026644D02*
X015720Y026644D01*
X015608Y026802D02*
X020800Y026802D01*
X020800Y026961D02*
X015567Y026961D01*
X015382Y027119D02*
X020800Y027119D01*
X020814Y027278D02*
X015605Y027278D01*
X015764Y027436D02*
X020921Y027436D01*
X021298Y027436D02*
X022550Y027436D01*
X022550Y027278D02*
X021405Y027278D01*
X021409Y027119D02*
X022550Y027119D01*
X022550Y026961D02*
X021308Y026961D01*
X021220Y026802D02*
X022550Y026802D01*
X022550Y026644D02*
X021220Y026644D01*
X021220Y026485D02*
X022550Y026485D01*
X022550Y026327D02*
X021220Y026327D01*
X021220Y026168D02*
X022550Y026168D01*
X022550Y026010D02*
X021220Y026010D01*
X021220Y025851D02*
X022550Y025851D01*
X022550Y025693D02*
X021220Y025693D01*
X021220Y025534D02*
X022550Y025534D01*
X022550Y025376D02*
X021220Y025376D01*
X019990Y025376D02*
X018065Y025376D01*
X018031Y025534D02*
X018676Y025534D01*
X019143Y025534D02*
X019990Y025534D01*
X019990Y025693D02*
X019245Y025693D01*
X019258Y025851D02*
X019990Y025851D01*
X019990Y026010D02*
X019185Y026010D01*
X019931Y026168D02*
X016196Y026168D01*
X016037Y026327D02*
X019905Y026327D01*
X019970Y026485D02*
X015879Y026485D01*
X015557Y025534D02*
X013112Y025534D01*
X012953Y025376D02*
X015716Y025376D01*
X015874Y025217D02*
X012795Y025217D01*
X012680Y025059D02*
X019990Y025059D01*
X019990Y025217D02*
X018015Y025217D01*
X019642Y024742D02*
X019990Y024742D01*
X019990Y024900D02*
X012680Y024900D01*
X015922Y027595D02*
X022550Y027595D01*
X021357Y028863D02*
X021181Y028863D01*
X021234Y029021D02*
X021300Y029021D01*
X021300Y029180D02*
X021240Y029180D01*
X021240Y029338D02*
X021300Y029338D01*
X021300Y029497D02*
X021240Y029497D01*
X021240Y029655D02*
X021300Y029655D01*
X021312Y029814D02*
X021225Y029814D01*
X021150Y029972D02*
X021388Y029972D01*
X017114Y030131D02*
X016405Y030131D01*
X016631Y029972D02*
X016888Y029972D01*
X016812Y029814D02*
X016707Y029814D01*
X016720Y029655D02*
X016800Y029655D01*
X016800Y029497D02*
X016720Y029497D01*
X016720Y029338D02*
X016800Y029338D01*
X016800Y029180D02*
X016720Y029180D01*
X016720Y029021D02*
X016800Y029021D01*
X016857Y028863D02*
X016662Y028863D01*
X016521Y028704D02*
X016998Y028704D01*
X014274Y032191D02*
X025245Y032191D01*
X025087Y032350D02*
X014432Y032350D01*
X008040Y025059D02*
X007021Y025059D01*
X007065Y024900D02*
X008040Y024900D01*
X008040Y024742D02*
X007027Y024742D01*
X006761Y024583D02*
X008040Y024583D01*
X008040Y024425D02*
X006602Y024425D01*
X006480Y024266D02*
X008040Y024266D01*
X008040Y024108D02*
X006480Y024108D01*
X006480Y023949D02*
X008040Y023949D01*
X008040Y023791D02*
X006480Y023791D01*
X006434Y022364D02*
X005180Y022364D01*
X005180Y022206D02*
X006275Y022206D01*
X005993Y022047D02*
X005180Y022047D01*
X005180Y021889D02*
X005955Y021889D01*
X006531Y018560D02*
X005180Y018560D01*
X005180Y018402D02*
X006500Y018402D01*
X006524Y018243D02*
X005180Y018243D01*
X005180Y018085D02*
X006617Y018085D01*
X007836Y017768D02*
X008040Y017768D01*
X008040Y017609D02*
X007968Y017609D01*
X008020Y017451D02*
X008040Y017451D01*
X008040Y017292D02*
X008016Y017292D01*
X008040Y017134D02*
X007950Y017134D01*
X008040Y016975D02*
X007752Y016975D01*
X007739Y016817D02*
X008040Y016817D01*
X008040Y016658D02*
X007945Y016658D01*
X008013Y016500D02*
X008040Y016500D01*
X008040Y016341D02*
X008020Y016341D01*
X008040Y016183D02*
X007970Y016183D01*
X008040Y016024D02*
X007841Y016024D01*
X008980Y018085D02*
X009118Y018085D01*
X008980Y018243D02*
X009277Y018243D01*
X009370Y018402D02*
X008980Y018402D01*
X008980Y018560D02*
X009264Y018560D01*
X009976Y012537D02*
X010083Y012537D01*
X009988Y012379D02*
X010241Y012379D01*
X010400Y012220D02*
X009901Y012220D01*
X009418Y012220D02*
X009415Y012220D01*
X009359Y012062D02*
X010558Y012062D01*
X011620Y011903D02*
X011667Y011903D01*
X011260Y010318D02*
X012205Y010318D01*
X012089Y010160D02*
X011260Y010160D01*
X011284Y010001D02*
X011990Y010001D01*
X011990Y009843D02*
X011624Y009843D01*
X011688Y009684D02*
X011990Y009684D01*
X011990Y009526D02*
X011666Y009526D01*
X012505Y008733D02*
X013435Y008733D01*
X013431Y008729D02*
X013381Y008609D01*
X013381Y008478D01*
X013431Y008357D01*
X013490Y008299D01*
X013490Y005824D01*
X013370Y005704D01*
X013300Y005535D01*
X013300Y004752D01*
X013370Y004583D01*
X013499Y004453D01*
X013668Y004383D01*
X013851Y004383D01*
X014020Y004453D01*
X014149Y004583D01*
X014220Y004752D01*
X014220Y005535D01*
X014149Y005704D01*
X014020Y005833D01*
X013930Y005871D01*
X013930Y008299D01*
X013988Y008357D01*
X014038Y008478D01*
X014038Y008609D01*
X013988Y008729D01*
X013896Y008822D01*
X013775Y008872D01*
X013644Y008872D01*
X013523Y008822D01*
X013431Y008729D01*
X013381Y008575D02*
X012481Y008575D01*
X012583Y008416D02*
X013407Y008416D01*
X013490Y008258D02*
X012742Y008258D01*
X012900Y008099D02*
X013490Y008099D01*
X013490Y007941D02*
X012970Y007941D01*
X012970Y007782D02*
X013490Y007782D01*
X013490Y007624D02*
X012970Y007624D01*
X012970Y007465D02*
X013490Y007465D01*
X013490Y007307D02*
X012970Y007307D01*
X012970Y007148D02*
X013490Y007148D01*
X013490Y006990D02*
X012970Y006990D01*
X012970Y006831D02*
X013490Y006831D01*
X013490Y006673D02*
X012970Y006673D01*
X012970Y006514D02*
X013490Y006514D01*
X013490Y006356D02*
X012970Y006356D01*
X012970Y006197D02*
X013490Y006197D01*
X013490Y006039D02*
X012970Y006039D01*
X012970Y005880D02*
X013490Y005880D01*
X013387Y005722D02*
X013132Y005722D01*
X013208Y005563D02*
X013311Y005563D01*
X013300Y005405D02*
X013220Y005405D01*
X013220Y005246D02*
X013300Y005246D01*
X013300Y005088D02*
X013220Y005088D01*
X013220Y004929D02*
X013300Y004929D01*
X013300Y004771D02*
X013220Y004771D01*
X013162Y004612D02*
X013357Y004612D01*
X013498Y004454D02*
X013021Y004454D01*
X012300Y004771D02*
X009616Y004771D01*
X009711Y004929D02*
X012300Y004929D01*
X012300Y005088D02*
X009740Y005088D01*
X009740Y005246D02*
X012300Y005246D01*
X013930Y005880D02*
X016350Y005880D01*
X016350Y005722D02*
X014132Y005722D01*
X014208Y005563D02*
X016350Y005563D01*
X016447Y005405D02*
X014220Y005405D01*
X014220Y005246D02*
X016606Y005246D01*
X016553Y005088D02*
X014220Y005088D01*
X014220Y004929D02*
X016395Y004929D01*
X016350Y004771D02*
X014220Y004771D01*
X014162Y004612D02*
X016350Y004612D01*
X016398Y004454D02*
X014021Y004454D01*
X014212Y004137D02*
X025307Y004137D01*
X025128Y003978D02*
X014391Y003978D01*
X014514Y003820D02*
X025005Y003820D01*
X024940Y003661D02*
X014579Y003661D01*
X014619Y003503D02*
X024900Y003503D01*
X024900Y003344D02*
X014619Y003344D01*
X014604Y003186D02*
X024915Y003186D01*
X024980Y003027D02*
X014539Y003027D01*
X014451Y002869D02*
X025068Y002869D01*
X025226Y002710D02*
X014293Y002710D01*
X017172Y005405D02*
X017447Y005405D01*
X017350Y005563D02*
X017270Y005563D01*
X016504Y006039D02*
X013930Y006039D01*
X013930Y006197D02*
X016600Y006197D01*
X016600Y006356D02*
X013930Y006356D01*
X013930Y006514D02*
X016600Y006514D01*
X016600Y006673D02*
X013930Y006673D01*
X013930Y006831D02*
X016600Y006831D01*
X016600Y006990D02*
X013930Y006990D01*
X013930Y007148D02*
X016600Y007148D01*
X016600Y007307D02*
X013930Y007307D01*
X013930Y007465D02*
X016600Y007465D01*
X016600Y007624D02*
X013930Y007624D01*
X013930Y007782D02*
X016600Y007782D01*
X016600Y007941D02*
X013930Y007941D01*
X013930Y008099D02*
X016600Y008099D01*
X016600Y008258D02*
X013930Y008258D01*
X014012Y008416D02*
X015072Y008416D01*
X014982Y008575D02*
X014038Y008575D01*
X013984Y008733D02*
X014923Y008733D01*
X015199Y009050D02*
X016600Y009050D01*
X016600Y008892D02*
X015525Y008892D01*
X015628Y008733D02*
X016600Y008733D01*
X016600Y008575D02*
X015637Y008575D01*
X015547Y008416D02*
X016600Y008416D01*
X016600Y009209D02*
X015041Y009209D01*
X014882Y009367D02*
X016600Y009367D01*
X016600Y009526D02*
X014724Y009526D01*
X014565Y009684D02*
X016600Y009684D01*
X016600Y009843D02*
X014407Y009843D01*
X014248Y010001D02*
X016600Y010001D01*
X016600Y010160D02*
X014090Y010160D01*
X014153Y010318D02*
X013931Y010318D01*
X013893Y010477D02*
X013773Y010477D01*
X013735Y010635D02*
X013614Y010635D01*
X013576Y010794D02*
X013456Y010794D01*
X013418Y010952D02*
X013297Y010952D01*
X013259Y011111D02*
X013139Y011111D01*
X013508Y011428D02*
X016600Y011428D01*
X016600Y011586D02*
X013451Y011586D01*
X013666Y011269D02*
X016600Y011269D01*
X016600Y011111D02*
X013825Y011111D01*
X013983Y010952D02*
X016600Y010952D01*
X016600Y010794D02*
X014540Y010794D01*
X014652Y010635D02*
X016600Y010635D01*
X016600Y010477D02*
X014662Y010477D01*
X014566Y010318D02*
X016600Y010318D01*
X014179Y010794D02*
X014142Y010794D01*
X016036Y013964D02*
X018139Y013964D01*
X019394Y012220D02*
X020560Y012220D01*
X020560Y012062D02*
X019465Y012062D01*
X019470Y011903D02*
X020560Y011903D01*
X020477Y011745D02*
X019955Y011745D01*
X020113Y011586D02*
X020467Y011586D01*
X020564Y011428D02*
X020272Y011428D01*
X020430Y011269D02*
X021040Y011269D01*
X021040Y011111D02*
X020470Y011111D01*
X020470Y010952D02*
X020936Y010952D01*
X020629Y010794D02*
X020470Y010794D01*
X020470Y010635D02*
X020517Y010635D01*
X020507Y010477D02*
X020470Y010477D01*
X020050Y010477D02*
X019470Y010477D01*
X019470Y010635D02*
X020050Y010635D01*
X020050Y010794D02*
X019470Y010794D01*
X019470Y010952D02*
X020050Y010952D01*
X019995Y011111D02*
X019470Y011111D01*
X019470Y011269D02*
X019837Y011269D01*
X020050Y010318D02*
X019470Y010318D01*
X019470Y010160D02*
X020050Y010160D01*
X020050Y010001D02*
X019470Y010001D01*
X019470Y009843D02*
X020050Y009843D01*
X020050Y009684D02*
X019470Y009684D01*
X019470Y009526D02*
X020050Y009526D01*
X020050Y009367D02*
X019470Y009367D01*
X019470Y009209D02*
X020050Y009209D01*
X020050Y009050D02*
X019470Y009050D01*
X019470Y008892D02*
X020050Y008892D01*
X020050Y008733D02*
X019470Y008733D01*
X019470Y008575D02*
X020050Y008575D01*
X020050Y008416D02*
X019470Y008416D01*
X019470Y008258D02*
X020050Y008258D01*
X020050Y008099D02*
X019470Y008099D01*
X019470Y007941D02*
X020050Y007941D01*
X020050Y007782D02*
X019470Y007782D01*
X019470Y007624D02*
X020050Y007624D01*
X020050Y007465D02*
X019470Y007465D01*
X019470Y007307D02*
X020050Y007307D01*
X020050Y007148D02*
X019470Y007148D01*
X019470Y006990D02*
X020050Y006990D01*
X020125Y006831D02*
X019470Y006831D01*
X019477Y006673D02*
X020283Y006673D01*
X020560Y006990D02*
X024373Y006990D01*
X024369Y006985D02*
X024335Y006918D01*
X024311Y006846D01*
X024300Y006771D01*
X024300Y006753D01*
X025060Y006753D01*
X025060Y007213D01*
X024742Y007213D01*
X024667Y007201D01*
X024595Y007178D01*
X024528Y007144D01*
X024467Y007099D01*
X024413Y007046D01*
X024369Y006985D01*
X024309Y006831D02*
X020718Y006831D01*
X020877Y006673D02*
X024303Y006673D01*
X024300Y006696D02*
X024311Y006621D01*
X024335Y006549D01*
X024369Y006482D01*
X024413Y006421D01*
X024467Y006367D01*
X024528Y006323D01*
X024595Y006288D01*
X024667Y006265D01*
X024742Y006253D01*
X025060Y006253D01*
X025060Y006713D01*
X025100Y006713D01*
X025100Y006753D01*
X025860Y006753D01*
X025860Y006771D01*
X025848Y006846D01*
X025824Y006918D01*
X025790Y006985D01*
X025746Y007046D01*
X025692Y007099D01*
X025631Y007144D01*
X025564Y007178D01*
X025492Y007201D01*
X025417Y007213D01*
X025100Y007213D01*
X025100Y006753D01*
X025060Y006753D01*
X025060Y006713D01*
X024300Y006713D01*
X024300Y006696D01*
X024352Y006514D02*
X021020Y006514D01*
X021020Y006356D02*
X024482Y006356D01*
X025060Y006356D02*
X025100Y006356D01*
X025100Y006253D02*
X025417Y006253D01*
X025492Y006265D01*
X025564Y006288D01*
X025631Y006323D01*
X025692Y006367D01*
X025746Y006421D01*
X025790Y006482D01*
X025824Y006549D01*
X025848Y006621D01*
X025860Y006696D01*
X025860Y006713D01*
X025100Y006713D01*
X025100Y006253D01*
X025100Y006514D02*
X025060Y006514D01*
X025060Y006673D02*
X025100Y006673D01*
X025100Y006831D02*
X025060Y006831D01*
X025060Y006990D02*
X025100Y006990D01*
X025100Y007148D02*
X025060Y007148D01*
X025622Y007148D02*
X027097Y007148D01*
X026933Y006990D02*
X025786Y006990D01*
X025850Y006831D02*
X026869Y006831D01*
X026860Y006713D02*
X026860Y006696D01*
X026871Y006621D01*
X026895Y006549D01*
X026929Y006482D01*
X026973Y006421D01*
X027027Y006367D01*
X027088Y006323D01*
X027155Y006288D01*
X027227Y006265D01*
X027302Y006253D01*
X027620Y006253D01*
X027620Y006713D01*
X026860Y006713D01*
X026863Y006673D02*
X025856Y006673D01*
X025807Y006514D02*
X026912Y006514D01*
X027042Y006356D02*
X025677Y006356D01*
X025492Y005405D02*
X027228Y005405D01*
X026982Y005246D02*
X025737Y005246D01*
X025822Y005088D02*
X026897Y005088D01*
X026880Y004929D02*
X025840Y004929D01*
X025802Y004771D02*
X026917Y004771D01*
X027030Y004612D02*
X025689Y004612D01*
X027620Y006356D02*
X027660Y006356D01*
X027660Y006514D02*
X027620Y006514D01*
X027620Y006673D02*
X027660Y006673D01*
X027660Y006831D02*
X027620Y006831D01*
X027620Y006990D02*
X027660Y006990D01*
X027660Y007148D02*
X027620Y007148D01*
X024537Y007148D02*
X020470Y007148D01*
X020600Y006197D02*
X019952Y006197D01*
X020115Y006039D02*
X020504Y006039D01*
X020350Y005880D02*
X020270Y005880D01*
X020270Y005722D02*
X020350Y005722D01*
X020350Y005563D02*
X020270Y005563D01*
X020172Y005405D02*
X020447Y005405D01*
X023670Y009843D02*
X024205Y009843D01*
X024224Y010001D02*
X023670Y010001D01*
X022855Y011586D02*
X022648Y011586D01*
X022871Y011745D02*
X022230Y011745D01*
X022230Y011903D02*
X022990Y011903D01*
X021491Y010794D02*
X021343Y010794D01*
X021319Y010770D02*
X021319Y010770D01*
X021040Y011428D02*
X020975Y011428D01*
X009280Y006039D02*
X009240Y006039D01*
X009240Y005880D02*
X009280Y005880D01*
X009280Y005722D02*
X009240Y005722D01*
X009240Y005563D02*
X009280Y005563D01*
X009280Y005246D02*
X009240Y005246D01*
X009240Y005088D02*
X009280Y005088D01*
X009280Y004929D02*
X009240Y004929D01*
X009240Y004771D02*
X009280Y004771D01*
X008903Y004771D02*
X008588Y004771D01*
X008689Y004929D02*
X008808Y004929D01*
X008780Y005088D02*
X008720Y005088D01*
X008720Y005246D02*
X008780Y005246D01*
X007931Y004771D02*
X007588Y004771D01*
X007689Y004929D02*
X007830Y004929D01*
X007800Y005088D02*
X007720Y005088D01*
X007720Y005246D02*
X007800Y005246D01*
X007800Y005405D02*
X007720Y005405D01*
X007720Y005563D02*
X007800Y005563D01*
X007800Y005722D02*
X007720Y005722D01*
X007680Y005880D02*
X007839Y005880D01*
X007954Y006039D02*
X007565Y006039D01*
X006839Y005880D02*
X006680Y005880D01*
X006720Y005722D02*
X006800Y005722D01*
X006800Y005563D02*
X006720Y005563D01*
X006720Y005405D02*
X006800Y005405D01*
X006800Y005246D02*
X006720Y005246D01*
X006720Y005088D02*
X006800Y005088D01*
X006830Y004929D02*
X006689Y004929D01*
X006588Y004771D02*
X006931Y004771D01*
X022860Y022840D02*
X023145Y022840D01*
X022939Y022998D02*
X022860Y022998D01*
X022860Y023157D02*
X022905Y023157D01*
X022860Y023315D02*
X022951Y023315D01*
X022860Y023474D02*
X023440Y023474D01*
X023545Y023632D02*
X022923Y023632D01*
X022965Y023791D02*
X023550Y023791D01*
X023550Y023949D02*
X022925Y023949D01*
X019990Y024266D02*
X019983Y024266D01*
X019990Y024425D02*
X019825Y024425D01*
X019715Y024583D02*
X019990Y024583D01*
D19*
X022310Y024143D03*
X018210Y019393D03*
X017960Y017443D03*
X011310Y022843D03*
X011260Y025393D03*
X013010Y027643D03*
X009210Y028093D03*
X007610Y013443D03*
X009660Y012443D03*
X011360Y009643D03*
X013710Y008543D03*
X015310Y008643D03*
X008810Y009443D03*
X006260Y008893D03*
X004460Y010693D03*
X024880Y014793D03*
X026360Y011243D03*
X028680Y013053D03*
X030260Y017093D03*
X029960Y019243D03*
X028760Y020893D03*
X031110Y025943D03*
X030210Y026893D03*
X030660Y031243D03*
D20*
X029760Y029393D02*
X029760Y020643D01*
X027760Y021543D02*
X027760Y029393D01*
X026760Y029393D02*
X026760Y021793D01*
X026310Y022393D02*
X026310Y025493D01*
X026460Y025643D01*
X024760Y023893D02*
X024333Y023467D01*
X024276Y023443D02*
X024260Y023443D01*
X024276Y023443D02*
X024292Y023445D01*
X024307Y023449D01*
X024320Y023456D01*
X024333Y023466D01*
X024610Y023143D02*
X024910Y023443D01*
X024610Y023143D02*
X024610Y021993D01*
X024360Y021743D01*
X024160Y021743D01*
X024960Y020693D02*
X025560Y020693D01*
X026110Y020143D01*
X025960Y022043D02*
X026310Y022393D01*
X024760Y023893D02*
X024760Y029393D01*
X021110Y027193D02*
X021010Y027093D01*
X021010Y027043D01*
X022760Y024393D02*
X022510Y024143D01*
X022310Y024143D01*
X022660Y023793D02*
X022660Y020193D01*
X022360Y019893D01*
X019427Y017826D02*
X019427Y017226D01*
X019927Y017226D01*
X020260Y016893D01*
X019760Y016263D02*
X019740Y016243D01*
X019160Y016243D01*
X017960Y017443D01*
X018110Y017793D02*
X018610Y017293D01*
X018825Y017293D01*
X019092Y017560D01*
X019427Y017826D02*
X019210Y018043D01*
X018660Y018043D01*
X018592Y018111D01*
X017392Y018111D01*
X018110Y017793D02*
X016460Y017793D01*
X016110Y018143D01*
X015610Y018143D01*
X015460Y017993D01*
X015860Y018493D02*
X014660Y018493D01*
X014860Y018843D02*
X014260Y018843D01*
X014310Y019293D02*
X013010Y019293D01*
X012760Y019543D01*
X012760Y023843D01*
X011610Y022343D02*
X010310Y021043D01*
X010310Y019393D01*
X009560Y018643D01*
X010410Y019093D02*
X009010Y017693D01*
X009010Y013943D01*
X009610Y013343D01*
X009610Y012493D01*
X009660Y012443D01*
X009110Y012443D02*
X009110Y012243D01*
X009110Y012443D02*
X008660Y012893D01*
X008660Y015243D01*
X009710Y015303D02*
X010270Y014743D01*
X009710Y015303D02*
X009710Y016743D01*
X011786Y018820D01*
X011843Y018843D02*
X011910Y018843D01*
X011843Y018843D02*
X011827Y018841D01*
X011812Y018837D01*
X011799Y018830D01*
X011786Y018820D01*
X012910Y017943D02*
X012460Y017493D01*
X012910Y017943D02*
X013238Y017943D01*
X013524Y017658D01*
X013545Y017658D01*
X014360Y016843D01*
X015336Y016843D01*
X015598Y017105D01*
X016310Y017193D02*
X016310Y016770D01*
X016121Y016582D01*
X016310Y016520D01*
X016710Y016543D02*
X018260Y016543D01*
X018860Y015943D01*
X018360Y015843D02*
X017960Y016243D01*
X017260Y016243D01*
X017024Y015658D02*
X017995Y015658D01*
X018260Y015393D01*
X019630Y015393D01*
X019760Y015523D01*
X019722Y015560D01*
X018360Y013753D02*
X018390Y013723D01*
X018390Y013443D01*
X018260Y013313D01*
X017980Y013553D02*
X017980Y013013D01*
X016810Y011843D01*
X015260Y013493D02*
X014774Y013979D01*
X014745Y013979D01*
X014660Y013893D01*
X014660Y013793D01*
X013960Y013093D01*
X012995Y014158D02*
X013360Y014522D01*
X013374Y014508D01*
X015274Y014508D01*
X015345Y014508D01*
X015760Y014093D01*
X013360Y014522D02*
X013360Y014843D01*
X012910Y015293D01*
X012760Y016059D02*
X012024Y015129D01*
X011744Y015043D01*
X011510Y015043D01*
X010810Y015743D01*
X010110Y015743D01*
X012760Y016059D02*
X012760Y016893D01*
X012995Y017129D01*
X013631Y016493D01*
X014860Y016493D01*
X013081Y017043D02*
X012995Y017129D01*
X014860Y018843D02*
X018060Y022043D01*
X018710Y022043D01*
X017660Y020693D02*
X016760Y019793D01*
X017260Y019893D02*
X015860Y018493D01*
X017260Y019893D02*
X018410Y019893D01*
X018210Y019393D02*
X018360Y019243D01*
X018360Y018993D01*
X018060Y018693D01*
X018010Y018693D01*
X017827Y018876D01*
X013860Y020843D02*
X016510Y023443D01*
X016060Y024043D02*
X013110Y021043D01*
X013260Y020693D02*
X015710Y023143D01*
X017260Y023793D02*
X013760Y020293D01*
X013710Y020293D01*
X010160Y021393D02*
X009860Y021693D01*
X009860Y023593D01*
X009660Y023793D01*
X009560Y023793D01*
X010060Y012843D02*
X011060Y011843D01*
X011060Y009943D01*
X011360Y009643D01*
X013160Y011493D02*
X014086Y010567D01*
X014143Y010543D02*
X014360Y010543D01*
X014143Y010543D02*
X014127Y010545D01*
X014112Y010549D01*
X014099Y010556D01*
X014086Y010566D01*
X019160Y012023D02*
X019260Y011923D01*
X020810Y010543D02*
X021236Y010970D01*
X021260Y011026D02*
X021260Y011043D01*
X021260Y011026D02*
X021258Y011010D01*
X021254Y010995D01*
X021247Y010982D01*
X021237Y010969D01*
X022410Y011393D02*
X022410Y009343D01*
X023160Y008593D01*
X024010Y008143D02*
X030810Y008143D01*
X031210Y007743D01*
X032910Y007743D01*
X033360Y008193D01*
X033360Y011943D01*
X032810Y012493D01*
X032360Y012493D01*
X032260Y012393D01*
X023460Y023143D02*
X023210Y023143D01*
X023460Y023143D02*
X023760Y023593D01*
D21*
X024260Y023443D03*
X024910Y023443D03*
X025960Y022043D03*
X026760Y021793D03*
X027760Y021543D03*
X029260Y023393D03*
X027110Y023993D03*
X026460Y025643D03*
X025760Y027343D03*
X028260Y028393D03*
X030110Y028043D03*
X029110Y026293D03*
X028360Y025893D03*
X032210Y029893D03*
X033510Y027143D03*
X029760Y020643D03*
X030760Y018393D03*
X026960Y018393D03*
X024960Y020693D03*
X024160Y021743D03*
X023210Y023143D03*
X022660Y023793D03*
X021910Y024943D03*
X020660Y023793D03*
X019410Y024543D03*
X018710Y024393D03*
X017910Y024993D03*
X017760Y025393D03*
X016210Y024543D03*
X016060Y024043D03*
X016510Y023443D03*
X017260Y023793D03*
X017360Y022543D03*
X018710Y022043D03*
X017660Y020693D03*
X018410Y019893D03*
X016760Y019793D03*
X017392Y018111D03*
X016310Y017193D03*
X016710Y016543D03*
X017260Y016243D03*
X018360Y015843D03*
X018860Y015943D03*
X020260Y016893D03*
X021260Y017893D03*
X019210Y018443D03*
X022360Y019893D03*
X018360Y013753D03*
X017980Y013553D03*
X018630Y012493D03*
X019160Y012023D03*
X019580Y011593D03*
X020770Y011653D03*
X021760Y010943D03*
X022410Y011393D03*
X022960Y011243D03*
X023160Y011643D03*
X024510Y009893D03*
X024010Y008143D03*
X020810Y010543D03*
X015760Y014093D03*
X015260Y013493D03*
X013960Y013093D03*
X013160Y011493D03*
X012710Y011093D03*
X012510Y010283D03*
X013210Y010243D03*
X014360Y010543D03*
X012200Y008693D03*
X011960Y011993D03*
X012110Y012343D03*
X010410Y013043D03*
X010060Y012843D03*
X009110Y012243D03*
X009410Y014093D03*
X010270Y014743D03*
X010110Y015743D03*
X008660Y015243D03*
X008610Y016693D03*
X009860Y017393D03*
X009560Y018643D03*
X009360Y019043D03*
X010410Y019093D03*
X011910Y018843D03*
X012460Y017493D03*
X014260Y018843D03*
X014310Y019293D03*
X014660Y018493D03*
X015460Y017993D03*
X014860Y016493D03*
X012910Y015293D03*
X013710Y020293D03*
X013260Y020693D03*
X013110Y021043D03*
X013860Y020843D03*
X013310Y021993D03*
X013360Y023393D03*
X012760Y023843D03*
X014510Y023193D03*
X015060Y023643D03*
X015710Y023143D03*
X012110Y025743D03*
X012360Y026543D03*
X011660Y028493D03*
X011760Y028893D03*
X011260Y029893D03*
X012610Y030043D03*
X012260Y030893D03*
X009560Y031243D03*
X015960Y027943D03*
X018860Y028043D03*
X020210Y026293D03*
X021110Y027193D03*
X018260Y030893D03*
X010810Y024893D03*
X009560Y023793D03*
X007660Y023293D03*
X006260Y022893D03*
X006260Y021893D03*
X006760Y024893D03*
X010160Y021393D03*
X009760Y020843D03*
X011610Y022343D03*
X011760Y021893D03*
X011860Y020843D03*
D22*
X012110Y021093D01*
X012110Y025743D01*
X012460Y025193D02*
X013310Y026043D01*
X013310Y027293D01*
X013510Y027493D01*
X015510Y027493D01*
X015960Y027943D01*
X016260Y028893D02*
X016260Y029393D01*
X018260Y030893D02*
X018760Y030393D01*
X018760Y028143D01*
X018860Y028043D01*
X020210Y026293D02*
X020210Y019093D01*
X020760Y018543D01*
X021510Y018543D01*
X022010Y018043D01*
X022010Y011193D01*
X021760Y010943D01*
X021260Y011043D02*
X021260Y017893D01*
X026110Y020143D02*
X026110Y015293D01*
X029170Y013543D02*
X029170Y018953D01*
X030210Y019993D01*
X030210Y021243D01*
X030860Y021893D01*
X031760Y021893D01*
X032260Y022793D02*
X032260Y018893D01*
X032260Y017893D02*
X033060Y017893D01*
X033510Y018343D01*
X033510Y027143D01*
X032960Y026143D02*
X032960Y023493D01*
X032260Y022793D01*
X029260Y023393D02*
X029110Y023543D01*
X029110Y026293D01*
X028360Y025893D02*
X028260Y025993D01*
X028260Y028393D01*
X030110Y028043D02*
X030210Y028043D01*
X030260Y027993D01*
X030260Y026943D01*
X030210Y026893D01*
X031110Y025943D02*
X031110Y030793D01*
X030660Y031243D01*
X032210Y029893D02*
X032210Y026893D01*
X032960Y026143D01*
X023360Y026093D02*
X023360Y027543D01*
X018910Y025793D02*
X016260Y025793D01*
X015260Y026793D01*
X014760Y026643D02*
X016010Y025393D01*
X017760Y025393D01*
X012460Y025193D02*
X012460Y019993D01*
X009860Y017393D01*
X008760Y016843D02*
X008610Y016693D01*
X008760Y016843D02*
X008760Y028143D01*
X008510Y028393D01*
X007660Y028393D01*
X007260Y028793D01*
X007260Y029393D01*
X009260Y029393D02*
X009260Y030943D01*
X009560Y031243D01*
X011260Y029893D02*
X011310Y029843D01*
X011310Y028543D01*
X011360Y028493D01*
X011660Y028493D01*
X011760Y028893D02*
X011810Y028893D01*
X012010Y029093D01*
X012010Y030643D01*
X012260Y030893D01*
X012610Y030043D02*
X012460Y029893D01*
X012460Y026643D01*
X012360Y026543D01*
X011260Y025393D02*
X011310Y025343D01*
X011310Y022843D01*
X010810Y024893D02*
X010110Y024893D01*
X009110Y025893D01*
X009110Y025943D01*
X009310Y026143D01*
X009310Y026793D01*
X009510Y026993D01*
X009960Y026993D01*
X008260Y026393D02*
X008260Y005393D01*
X007260Y005393D02*
X007260Y006893D01*
X004960Y009193D01*
X004960Y025343D01*
X005510Y025893D01*
X005760Y025893D01*
X006760Y024893D02*
X006260Y024393D01*
X006260Y022893D01*
X004460Y023893D02*
X004460Y010693D01*
X005760Y010893D02*
X005760Y009393D01*
X006260Y008893D01*
X005760Y015393D02*
X006760Y016393D01*
X007260Y016393D01*
X009360Y019043D02*
X009360Y020443D01*
X009760Y020843D01*
X013710Y008543D02*
X013710Y005193D01*
X013760Y005143D01*
X024510Y009893D02*
X025960Y009893D01*
X026360Y010293D01*
X026360Y011243D01*
D23*
X028680Y013053D02*
X029170Y013543D01*
X026110Y015243D02*
X025890Y015023D01*
X025110Y015023D01*
X024880Y014793D01*
X026110Y015243D02*
X026110Y015293D01*
X026960Y018393D02*
X027010Y018393D01*
X027110Y018493D01*
X027110Y023993D01*
X023760Y023593D02*
X023760Y029393D01*
X022760Y029393D02*
X022760Y024393D01*
X021910Y024943D02*
X021910Y019493D01*
X022160Y019243D01*
X020760Y016893D02*
X020760Y015593D01*
X020770Y015583D01*
X020770Y011653D01*
X020260Y011143D02*
X020260Y006993D01*
X020810Y006443D01*
X020810Y005693D01*
X019810Y005693D02*
X019810Y006043D01*
X019260Y006593D01*
X019260Y011923D01*
X019580Y011593D02*
X019810Y011593D01*
X020260Y011143D01*
X018630Y012493D02*
X018630Y006573D01*
X018810Y006393D01*
X018810Y005693D01*
X017810Y005693D02*
X017810Y012143D01*
X018260Y012593D01*
X018260Y013313D01*
X016810Y011843D02*
X016810Y005693D01*
X015310Y008643D02*
X012860Y011093D01*
X012710Y011093D01*
X012810Y010643D02*
X012460Y010643D01*
X011410Y011693D01*
X011410Y012043D01*
X010410Y013043D01*
X009860Y014093D02*
X009410Y014093D01*
X009860Y014093D02*
X011960Y011993D01*
X012110Y012343D02*
X009310Y015143D01*
X009310Y017393D01*
X010760Y018843D01*
X010760Y020893D01*
X011760Y021893D01*
X013310Y021993D02*
X014510Y023193D01*
X015060Y023643D02*
X013610Y023643D01*
X013360Y023393D01*
X012910Y024543D02*
X016210Y024543D01*
X017910Y024993D02*
X017960Y024993D01*
X018160Y024793D01*
X018160Y023343D01*
X017360Y022543D01*
X019210Y023893D02*
X018710Y024393D01*
X019210Y023893D02*
X019210Y018443D01*
X019810Y017843D02*
X020760Y016893D01*
X019810Y017843D02*
X019810Y024143D01*
X019410Y024543D01*
X020660Y023793D02*
X021010Y024143D01*
X021010Y027043D01*
X025760Y027343D02*
X025760Y029393D01*
X028760Y029393D02*
X028760Y020893D01*
X029960Y019243D02*
X030210Y018993D01*
X030210Y017143D01*
X030260Y017093D01*
X023460Y011343D02*
X023460Y009743D01*
X023660Y009543D01*
X031160Y009543D01*
X032010Y010393D01*
X032260Y010393D01*
X032260Y009393D02*
X032060Y009193D01*
X023360Y009193D01*
X022960Y009593D01*
X022960Y011243D01*
X023160Y011643D02*
X023460Y011343D01*
X023160Y008593D02*
X032060Y008593D01*
X032260Y008393D01*
X020760Y015393D02*
X020760Y015593D01*
X017024Y015658D02*
X017024Y015729D01*
X016121Y016582D01*
X012810Y010643D02*
X013210Y010243D01*
X012510Y010283D02*
X012200Y009973D01*
X012200Y008693D01*
X012310Y008393D02*
X009860Y008393D01*
X008810Y009443D01*
X007360Y012393D02*
X007610Y012643D01*
X007610Y013443D01*
X012310Y008393D02*
X012760Y007943D01*
X012760Y005143D01*
X006260Y021893D02*
X007660Y023293D01*
X013010Y027643D02*
X013510Y028143D01*
X015510Y028143D01*
X016260Y028893D01*
D24*
X015260Y026793D03*
X014760Y026643D03*
X012910Y024543D03*
X009960Y026993D03*
X009110Y025943D03*
X004460Y023893D03*
X005760Y011893D03*
X005760Y010893D03*
X018910Y025793D03*
X023360Y026093D03*
X023360Y027543D03*
X022160Y019243D03*
X030760Y016393D03*
D25*
X008260Y026393D03*
X005760Y025893D03*
M02*
