G75*
%MOIN*%
%OFA0B0*%
%FSLAX24Y24*%
%IPPOS*%
%LPD*%
%AMOC8*
5,1,8,0,0,1.08239X$1,22.5*
%
%ADD10C,0.0000*%
%ADD11C,0.1320*%
%ADD12C,0.0660*%
%ADD13R,0.0170X0.0720*%
%ADD14R,0.0651X0.0572*%
%ADD15R,0.0532X0.0296*%
%ADD16R,0.0847X0.0690*%
%ADD17R,0.0296X0.0532*%
%ADD18R,0.0690X0.0847*%
%ADD19R,0.0197X0.0364*%
%ADD20R,0.0277X0.0493*%
%ADD21OC8,0.0660*%
%ADD22C,0.1060*%
%ADD23R,0.0690X0.0770*%
%ADD24R,0.0572X0.0651*%
%ADD25R,0.0770X0.0690*%
%ADD26R,0.0572X0.0690*%
%ADD27C,0.0397*%
%ADD28C,0.0350*%
%ADD29C,0.0436*%
%ADD30C,0.0476*%
D10*
X003760Y002393D02*
X003760Y033889D01*
X035780Y033889D01*
X035730Y002343D01*
X003760Y002393D01*
X013130Y003393D02*
X013132Y003443D01*
X013138Y003493D01*
X013148Y003542D01*
X013162Y003590D01*
X013179Y003637D01*
X013200Y003682D01*
X013225Y003726D01*
X013253Y003767D01*
X013285Y003806D01*
X013319Y003843D01*
X013356Y003877D01*
X013396Y003907D01*
X013438Y003934D01*
X013482Y003958D01*
X013528Y003979D01*
X013575Y003995D01*
X013623Y004008D01*
X013673Y004017D01*
X013722Y004022D01*
X013773Y004023D01*
X013823Y004020D01*
X013872Y004013D01*
X013921Y004002D01*
X013969Y003987D01*
X014015Y003969D01*
X014060Y003947D01*
X014103Y003921D01*
X014144Y003892D01*
X014183Y003860D01*
X014219Y003825D01*
X014251Y003787D01*
X014281Y003747D01*
X014308Y003704D01*
X014331Y003660D01*
X014350Y003614D01*
X014366Y003566D01*
X014378Y003517D01*
X014386Y003468D01*
X014390Y003418D01*
X014390Y003368D01*
X014386Y003318D01*
X014378Y003269D01*
X014366Y003220D01*
X014350Y003172D01*
X014331Y003126D01*
X014308Y003082D01*
X014281Y003039D01*
X014251Y002999D01*
X014219Y002961D01*
X014183Y002926D01*
X014144Y002894D01*
X014103Y002865D01*
X014060Y002839D01*
X014015Y002817D01*
X013969Y002799D01*
X013921Y002784D01*
X013872Y002773D01*
X013823Y002766D01*
X013773Y002763D01*
X013722Y002764D01*
X013673Y002769D01*
X013623Y002778D01*
X013575Y002791D01*
X013528Y002807D01*
X013482Y002828D01*
X013438Y002852D01*
X013396Y002879D01*
X013356Y002909D01*
X013319Y002943D01*
X013285Y002980D01*
X013253Y003019D01*
X013225Y003060D01*
X013200Y003104D01*
X013179Y003149D01*
X013162Y003196D01*
X013148Y003244D01*
X013138Y003293D01*
X013132Y003343D01*
X013130Y003393D01*
X025130Y003393D02*
X025132Y003443D01*
X025138Y003493D01*
X025148Y003542D01*
X025162Y003590D01*
X025179Y003637D01*
X025200Y003682D01*
X025225Y003726D01*
X025253Y003767D01*
X025285Y003806D01*
X025319Y003843D01*
X025356Y003877D01*
X025396Y003907D01*
X025438Y003934D01*
X025482Y003958D01*
X025528Y003979D01*
X025575Y003995D01*
X025623Y004008D01*
X025673Y004017D01*
X025722Y004022D01*
X025773Y004023D01*
X025823Y004020D01*
X025872Y004013D01*
X025921Y004002D01*
X025969Y003987D01*
X026015Y003969D01*
X026060Y003947D01*
X026103Y003921D01*
X026144Y003892D01*
X026183Y003860D01*
X026219Y003825D01*
X026251Y003787D01*
X026281Y003747D01*
X026308Y003704D01*
X026331Y003660D01*
X026350Y003614D01*
X026366Y003566D01*
X026378Y003517D01*
X026386Y003468D01*
X026390Y003418D01*
X026390Y003368D01*
X026386Y003318D01*
X026378Y003269D01*
X026366Y003220D01*
X026350Y003172D01*
X026331Y003126D01*
X026308Y003082D01*
X026281Y003039D01*
X026251Y002999D01*
X026219Y002961D01*
X026183Y002926D01*
X026144Y002894D01*
X026103Y002865D01*
X026060Y002839D01*
X026015Y002817D01*
X025969Y002799D01*
X025921Y002784D01*
X025872Y002773D01*
X025823Y002766D01*
X025773Y002763D01*
X025722Y002764D01*
X025673Y002769D01*
X025623Y002778D01*
X025575Y002791D01*
X025528Y002807D01*
X025482Y002828D01*
X025438Y002852D01*
X025396Y002879D01*
X025356Y002909D01*
X025319Y002943D01*
X025285Y002980D01*
X025253Y003019D01*
X025225Y003060D01*
X025200Y003104D01*
X025179Y003149D01*
X025162Y003196D01*
X025148Y003244D01*
X025138Y003293D01*
X025132Y003343D01*
X025130Y003393D01*
X025130Y032893D02*
X025132Y032943D01*
X025138Y032993D01*
X025148Y033042D01*
X025162Y033090D01*
X025179Y033137D01*
X025200Y033182D01*
X025225Y033226D01*
X025253Y033267D01*
X025285Y033306D01*
X025319Y033343D01*
X025356Y033377D01*
X025396Y033407D01*
X025438Y033434D01*
X025482Y033458D01*
X025528Y033479D01*
X025575Y033495D01*
X025623Y033508D01*
X025673Y033517D01*
X025722Y033522D01*
X025773Y033523D01*
X025823Y033520D01*
X025872Y033513D01*
X025921Y033502D01*
X025969Y033487D01*
X026015Y033469D01*
X026060Y033447D01*
X026103Y033421D01*
X026144Y033392D01*
X026183Y033360D01*
X026219Y033325D01*
X026251Y033287D01*
X026281Y033247D01*
X026308Y033204D01*
X026331Y033160D01*
X026350Y033114D01*
X026366Y033066D01*
X026378Y033017D01*
X026386Y032968D01*
X026390Y032918D01*
X026390Y032868D01*
X026386Y032818D01*
X026378Y032769D01*
X026366Y032720D01*
X026350Y032672D01*
X026331Y032626D01*
X026308Y032582D01*
X026281Y032539D01*
X026251Y032499D01*
X026219Y032461D01*
X026183Y032426D01*
X026144Y032394D01*
X026103Y032365D01*
X026060Y032339D01*
X026015Y032317D01*
X025969Y032299D01*
X025921Y032284D01*
X025872Y032273D01*
X025823Y032266D01*
X025773Y032263D01*
X025722Y032264D01*
X025673Y032269D01*
X025623Y032278D01*
X025575Y032291D01*
X025528Y032307D01*
X025482Y032328D01*
X025438Y032352D01*
X025396Y032379D01*
X025356Y032409D01*
X025319Y032443D01*
X025285Y032480D01*
X025253Y032519D01*
X025225Y032560D01*
X025200Y032604D01*
X025179Y032649D01*
X025162Y032696D01*
X025148Y032744D01*
X025138Y032793D01*
X025132Y032843D01*
X025130Y032893D01*
X013130Y032893D02*
X013132Y032943D01*
X013138Y032993D01*
X013148Y033042D01*
X013162Y033090D01*
X013179Y033137D01*
X013200Y033182D01*
X013225Y033226D01*
X013253Y033267D01*
X013285Y033306D01*
X013319Y033343D01*
X013356Y033377D01*
X013396Y033407D01*
X013438Y033434D01*
X013482Y033458D01*
X013528Y033479D01*
X013575Y033495D01*
X013623Y033508D01*
X013673Y033517D01*
X013722Y033522D01*
X013773Y033523D01*
X013823Y033520D01*
X013872Y033513D01*
X013921Y033502D01*
X013969Y033487D01*
X014015Y033469D01*
X014060Y033447D01*
X014103Y033421D01*
X014144Y033392D01*
X014183Y033360D01*
X014219Y033325D01*
X014251Y033287D01*
X014281Y033247D01*
X014308Y033204D01*
X014331Y033160D01*
X014350Y033114D01*
X014366Y033066D01*
X014378Y033017D01*
X014386Y032968D01*
X014390Y032918D01*
X014390Y032868D01*
X014386Y032818D01*
X014378Y032769D01*
X014366Y032720D01*
X014350Y032672D01*
X014331Y032626D01*
X014308Y032582D01*
X014281Y032539D01*
X014251Y032499D01*
X014219Y032461D01*
X014183Y032426D01*
X014144Y032394D01*
X014103Y032365D01*
X014060Y032339D01*
X014015Y032317D01*
X013969Y032299D01*
X013921Y032284D01*
X013872Y032273D01*
X013823Y032266D01*
X013773Y032263D01*
X013722Y032264D01*
X013673Y032269D01*
X013623Y032278D01*
X013575Y032291D01*
X013528Y032307D01*
X013482Y032328D01*
X013438Y032352D01*
X013396Y032379D01*
X013356Y032409D01*
X013319Y032443D01*
X013285Y032480D01*
X013253Y032519D01*
X013225Y032560D01*
X013200Y032604D01*
X013179Y032649D01*
X013162Y032696D01*
X013148Y032744D01*
X013138Y032793D01*
X013132Y032843D01*
X013130Y032893D01*
D11*
X013760Y032893D03*
X025760Y032893D03*
X025760Y003393D03*
X013760Y003393D03*
D12*
X013760Y004843D02*
X013760Y005443D01*
X012760Y005443D02*
X012760Y004843D01*
X009260Y005093D02*
X009260Y005693D01*
X008260Y005693D02*
X008260Y005093D01*
X007260Y005093D02*
X007260Y005693D01*
X006260Y005693D02*
X006260Y005093D01*
X007060Y011393D02*
X007660Y011393D01*
X007660Y012393D02*
X007060Y012393D01*
X006960Y016393D02*
X007560Y016393D01*
X007560Y017393D02*
X006960Y017393D01*
X006960Y018393D02*
X007560Y018393D01*
X007560Y019393D02*
X006960Y019393D01*
X007260Y029093D02*
X007260Y029693D01*
X008260Y029693D02*
X008260Y029093D01*
X009260Y029093D02*
X009260Y029693D01*
X010260Y029693D02*
X010260Y029093D01*
X014260Y029093D02*
X014260Y029693D01*
X015260Y029693D02*
X015260Y029093D01*
X016260Y029093D02*
X016260Y029693D01*
X017260Y029693D02*
X017260Y029093D01*
X020760Y029093D02*
X020760Y029693D01*
X021760Y029693D02*
X021760Y029093D01*
X022760Y029093D02*
X022760Y029693D01*
X023760Y029693D02*
X023760Y029093D01*
X024760Y029093D02*
X024760Y029693D01*
X025760Y029693D02*
X025760Y029093D01*
X026760Y029093D02*
X026760Y029693D01*
X027760Y029693D02*
X027760Y029093D01*
X028760Y029093D02*
X028760Y029693D01*
X029760Y029693D02*
X029760Y029093D01*
X031910Y026893D02*
X032510Y026893D01*
X032510Y025893D02*
X031910Y025893D01*
X031910Y024893D02*
X032510Y024893D01*
X032510Y023893D02*
X031910Y023893D01*
X031960Y018893D02*
X032560Y018893D01*
X032560Y017893D02*
X031960Y017893D01*
X031960Y016893D02*
X032560Y016893D01*
X032560Y015893D02*
X031960Y015893D01*
X031960Y012393D02*
X032560Y012393D01*
X032560Y011393D02*
X031960Y011393D01*
X031960Y010393D02*
X032560Y010393D01*
X032560Y009393D02*
X031960Y009393D01*
X031960Y008393D02*
X032560Y008393D01*
X027940Y006733D02*
X027340Y006733D01*
X027340Y004953D02*
X027940Y004953D01*
X025380Y004953D02*
X024780Y004953D01*
X024780Y006733D02*
X025380Y006733D01*
D13*
G36*
X017529Y014412D02*
X017409Y014292D01*
X016901Y014800D01*
X017021Y014920D01*
X017529Y014412D01*
G37*
G36*
X017671Y014554D02*
X017551Y014434D01*
X017043Y014942D01*
X017163Y015062D01*
X017671Y014554D01*
G37*
G36*
X017805Y014688D02*
X017685Y014568D01*
X017177Y015076D01*
X017297Y015196D01*
X017805Y014688D01*
G37*
G36*
X017946Y014830D02*
X017826Y014710D01*
X017318Y015218D01*
X017438Y015338D01*
X017946Y014830D01*
G37*
G36*
X018088Y014971D02*
X017968Y014851D01*
X017460Y015359D01*
X017580Y015479D01*
X018088Y014971D01*
G37*
G36*
X018229Y015112D02*
X018109Y014992D01*
X017601Y015500D01*
X017721Y015620D01*
X018229Y015112D01*
G37*
G36*
X018364Y015247D02*
X018244Y015127D01*
X017736Y015635D01*
X017856Y015755D01*
X018364Y015247D01*
G37*
G36*
X017388Y014271D02*
X017268Y014151D01*
X016760Y014659D01*
X016880Y014779D01*
X017388Y014271D01*
G37*
G36*
X017253Y014137D02*
X017133Y014017D01*
X016625Y014525D01*
X016745Y014645D01*
X017253Y014137D01*
G37*
G36*
X017112Y013995D02*
X016992Y013875D01*
X016484Y014383D01*
X016604Y014503D01*
X017112Y013995D01*
G37*
G36*
X016971Y013854D02*
X016851Y013734D01*
X016343Y014242D01*
X016463Y014362D01*
X016971Y013854D01*
G37*
G36*
X016836Y013719D02*
X016716Y013599D01*
X016208Y014107D01*
X016328Y014227D01*
X016836Y013719D01*
G37*
G36*
X016695Y013578D02*
X016575Y013458D01*
X016067Y013966D01*
X016187Y014086D01*
X016695Y013578D01*
G37*
G36*
X016553Y013437D02*
X016433Y013317D01*
X015925Y013825D01*
X016045Y013945D01*
X016553Y013437D01*
G37*
G36*
X016419Y013302D02*
X016299Y013182D01*
X015791Y013690D01*
X015911Y013810D01*
X016419Y013302D01*
G37*
G36*
X016278Y013161D02*
X016158Y013041D01*
X015650Y013549D01*
X015770Y013669D01*
X016278Y013161D01*
G37*
G36*
X016136Y013019D02*
X016016Y012899D01*
X015508Y013407D01*
X015628Y013527D01*
X016136Y013019D01*
G37*
G36*
X016002Y012885D02*
X015882Y012765D01*
X015374Y013273D01*
X015494Y013393D01*
X016002Y012885D01*
G37*
G36*
X015860Y012744D02*
X015740Y012624D01*
X015232Y013132D01*
X015352Y013252D01*
X015860Y012744D01*
G37*
G36*
X015719Y012602D02*
X015599Y012482D01*
X015091Y012990D01*
X015211Y013110D01*
X015719Y012602D01*
G37*
G36*
X015585Y012468D02*
X015465Y012348D01*
X014957Y012856D01*
X015077Y012976D01*
X015585Y012468D01*
G37*
G36*
X015443Y012326D02*
X015323Y012206D01*
X014815Y012714D01*
X014935Y012834D01*
X015443Y012326D01*
G37*
G36*
X015302Y012185D02*
X015182Y012065D01*
X014674Y012573D01*
X014794Y012693D01*
X015302Y012185D01*
G37*
G36*
X015160Y012044D02*
X015040Y011924D01*
X014532Y012432D01*
X014652Y012552D01*
X015160Y012044D01*
G37*
G36*
X015026Y011909D02*
X014906Y011789D01*
X014398Y012297D01*
X014518Y012417D01*
X015026Y011909D01*
G37*
G36*
X014001Y012417D02*
X014121Y012297D01*
X013613Y011789D01*
X013493Y011909D01*
X014001Y012417D01*
G37*
G36*
X013867Y012552D02*
X013987Y012432D01*
X013479Y011924D01*
X013359Y012044D01*
X013867Y012552D01*
G37*
G36*
X013725Y012693D02*
X013845Y012573D01*
X013337Y012065D01*
X013217Y012185D01*
X013725Y012693D01*
G37*
G36*
X013584Y012834D02*
X013704Y012714D01*
X013196Y012206D01*
X013076Y012326D01*
X013584Y012834D01*
G37*
G36*
X013442Y012976D02*
X013562Y012856D01*
X013054Y012348D01*
X012934Y012468D01*
X013442Y012976D01*
G37*
G36*
X013308Y013110D02*
X013428Y012990D01*
X012920Y012482D01*
X012800Y012602D01*
X013308Y013110D01*
G37*
G36*
X013167Y013252D02*
X013287Y013132D01*
X012779Y012624D01*
X012659Y012744D01*
X013167Y013252D01*
G37*
G36*
X013025Y013393D02*
X013145Y013273D01*
X012637Y012765D01*
X012517Y012885D01*
X013025Y013393D01*
G37*
G36*
X012891Y013527D02*
X013011Y013407D01*
X012503Y012899D01*
X012383Y013019D01*
X012891Y013527D01*
G37*
G36*
X012749Y013669D02*
X012869Y013549D01*
X012361Y013041D01*
X012241Y013161D01*
X012749Y013669D01*
G37*
G36*
X012608Y013810D02*
X012728Y013690D01*
X012220Y013182D01*
X012100Y013302D01*
X012608Y013810D01*
G37*
G36*
X012474Y013945D02*
X012594Y013825D01*
X012086Y013317D01*
X011966Y013437D01*
X012474Y013945D01*
G37*
G36*
X012332Y014086D02*
X012452Y013966D01*
X011944Y013458D01*
X011824Y013578D01*
X012332Y014086D01*
G37*
G36*
X012191Y014227D02*
X012311Y014107D01*
X011803Y013599D01*
X011683Y013719D01*
X012191Y014227D01*
G37*
G36*
X012056Y014362D02*
X012176Y014242D01*
X011668Y013734D01*
X011548Y013854D01*
X012056Y014362D01*
G37*
G36*
X011915Y014503D02*
X012035Y014383D01*
X011527Y013875D01*
X011407Y013995D01*
X011915Y014503D01*
G37*
G36*
X011774Y014645D02*
X011894Y014525D01*
X011386Y014017D01*
X011266Y014137D01*
X011774Y014645D01*
G37*
G36*
X011639Y014779D02*
X011759Y014659D01*
X011251Y014151D01*
X011131Y014271D01*
X011639Y014779D01*
G37*
G36*
X011498Y014920D02*
X011618Y014800D01*
X011110Y014292D01*
X010990Y014412D01*
X011498Y014920D01*
G37*
G36*
X011356Y015062D02*
X011476Y014942D01*
X010968Y014434D01*
X010848Y014554D01*
X011356Y015062D01*
G37*
G36*
X011222Y015196D02*
X011342Y015076D01*
X010834Y014568D01*
X010714Y014688D01*
X011222Y015196D01*
G37*
G36*
X011081Y015338D02*
X011201Y015218D01*
X010693Y014710D01*
X010573Y014830D01*
X011081Y015338D01*
G37*
G36*
X010939Y015479D02*
X011059Y015359D01*
X010551Y014851D01*
X010431Y014971D01*
X010939Y015479D01*
G37*
G36*
X010798Y015620D02*
X010918Y015500D01*
X010410Y014992D01*
X010290Y015112D01*
X010798Y015620D01*
G37*
G36*
X010663Y015755D02*
X010783Y015635D01*
X010275Y015127D01*
X010155Y015247D01*
X010663Y015755D01*
G37*
G36*
X010783Y016152D02*
X010663Y016032D01*
X010155Y016540D01*
X010275Y016660D01*
X010783Y016152D01*
G37*
G36*
X010918Y016286D02*
X010798Y016166D01*
X010290Y016674D01*
X010410Y016794D01*
X010918Y016286D01*
G37*
G36*
X011059Y016428D02*
X010939Y016308D01*
X010431Y016816D01*
X010551Y016936D01*
X011059Y016428D01*
G37*
G36*
X011201Y016569D02*
X011081Y016449D01*
X010573Y016957D01*
X010693Y017077D01*
X011201Y016569D01*
G37*
G36*
X011342Y016710D02*
X011222Y016590D01*
X010714Y017098D01*
X010834Y017218D01*
X011342Y016710D01*
G37*
G36*
X011476Y016845D02*
X011356Y016725D01*
X010848Y017233D01*
X010968Y017353D01*
X011476Y016845D01*
G37*
G36*
X011618Y016986D02*
X011498Y016866D01*
X010990Y017374D01*
X011110Y017494D01*
X011618Y016986D01*
G37*
G36*
X011759Y017128D02*
X011639Y017008D01*
X011131Y017516D01*
X011251Y017636D01*
X011759Y017128D01*
G37*
G36*
X011894Y017262D02*
X011774Y017142D01*
X011266Y017650D01*
X011386Y017770D01*
X011894Y017262D01*
G37*
G36*
X012035Y017403D02*
X011915Y017283D01*
X011407Y017791D01*
X011527Y017911D01*
X012035Y017403D01*
G37*
G36*
X012176Y017545D02*
X012056Y017425D01*
X011548Y017933D01*
X011668Y018053D01*
X012176Y017545D01*
G37*
G36*
X012311Y017679D02*
X012191Y017559D01*
X011683Y018067D01*
X011803Y018187D01*
X012311Y017679D01*
G37*
G36*
X012452Y017821D02*
X012332Y017701D01*
X011824Y018209D01*
X011944Y018329D01*
X012452Y017821D01*
G37*
G36*
X012594Y017962D02*
X012474Y017842D01*
X011966Y018350D01*
X012086Y018470D01*
X012594Y017962D01*
G37*
G36*
X012728Y018096D02*
X012608Y017976D01*
X012100Y018484D01*
X012220Y018604D01*
X012728Y018096D01*
G37*
G36*
X012869Y018238D02*
X012749Y018118D01*
X012241Y018626D01*
X012361Y018746D01*
X012869Y018238D01*
G37*
G36*
X013011Y018379D02*
X012891Y018259D01*
X012383Y018767D01*
X012503Y018887D01*
X013011Y018379D01*
G37*
G36*
X013145Y018514D02*
X013025Y018394D01*
X012517Y018902D01*
X012637Y019022D01*
X013145Y018514D01*
G37*
G36*
X013287Y018655D02*
X013167Y018535D01*
X012659Y019043D01*
X012779Y019163D01*
X013287Y018655D01*
G37*
G36*
X013428Y018796D02*
X013308Y018676D01*
X012800Y019184D01*
X012920Y019304D01*
X013428Y018796D01*
G37*
G36*
X013562Y018931D02*
X013442Y018811D01*
X012934Y019319D01*
X013054Y019439D01*
X013562Y018931D01*
G37*
G36*
X013704Y019072D02*
X013584Y018952D01*
X013076Y019460D01*
X013196Y019580D01*
X013704Y019072D01*
G37*
G36*
X013845Y019214D02*
X013725Y019094D01*
X013217Y019602D01*
X013337Y019722D01*
X013845Y019214D01*
G37*
G36*
X013987Y019355D02*
X013867Y019235D01*
X013359Y019743D01*
X013479Y019863D01*
X013987Y019355D01*
G37*
G36*
X014121Y019489D02*
X014001Y019369D01*
X013493Y019877D01*
X013613Y019997D01*
X014121Y019489D01*
G37*
G36*
X014906Y019997D02*
X015026Y019877D01*
X014518Y019369D01*
X014398Y019489D01*
X014906Y019997D01*
G37*
G36*
X015040Y019863D02*
X015160Y019743D01*
X014652Y019235D01*
X014532Y019355D01*
X015040Y019863D01*
G37*
G36*
X015182Y019722D02*
X015302Y019602D01*
X014794Y019094D01*
X014674Y019214D01*
X015182Y019722D01*
G37*
G36*
X015323Y019580D02*
X015443Y019460D01*
X014935Y018952D01*
X014815Y019072D01*
X015323Y019580D01*
G37*
G36*
X015465Y019439D02*
X015585Y019319D01*
X015077Y018811D01*
X014957Y018931D01*
X015465Y019439D01*
G37*
G36*
X015599Y019304D02*
X015719Y019184D01*
X015211Y018676D01*
X015091Y018796D01*
X015599Y019304D01*
G37*
G36*
X015740Y019163D02*
X015860Y019043D01*
X015352Y018535D01*
X015232Y018655D01*
X015740Y019163D01*
G37*
G36*
X015882Y019022D02*
X016002Y018902D01*
X015494Y018394D01*
X015374Y018514D01*
X015882Y019022D01*
G37*
G36*
X016016Y018887D02*
X016136Y018767D01*
X015628Y018259D01*
X015508Y018379D01*
X016016Y018887D01*
G37*
G36*
X016158Y018746D02*
X016278Y018626D01*
X015770Y018118D01*
X015650Y018238D01*
X016158Y018746D01*
G37*
G36*
X016299Y018604D02*
X016419Y018484D01*
X015911Y017976D01*
X015791Y018096D01*
X016299Y018604D01*
G37*
G36*
X016433Y018470D02*
X016553Y018350D01*
X016045Y017842D01*
X015925Y017962D01*
X016433Y018470D01*
G37*
G36*
X016575Y018329D02*
X016695Y018209D01*
X016187Y017701D01*
X016067Y017821D01*
X016575Y018329D01*
G37*
G36*
X016716Y018187D02*
X016836Y018067D01*
X016328Y017559D01*
X016208Y017679D01*
X016716Y018187D01*
G37*
G36*
X016851Y018053D02*
X016971Y017933D01*
X016463Y017425D01*
X016343Y017545D01*
X016851Y018053D01*
G37*
G36*
X016992Y017911D02*
X017112Y017791D01*
X016604Y017283D01*
X016484Y017403D01*
X016992Y017911D01*
G37*
G36*
X017133Y017770D02*
X017253Y017650D01*
X016745Y017142D01*
X016625Y017262D01*
X017133Y017770D01*
G37*
G36*
X017268Y017636D02*
X017388Y017516D01*
X016880Y017008D01*
X016760Y017128D01*
X017268Y017636D01*
G37*
G36*
X017409Y017494D02*
X017529Y017374D01*
X017021Y016866D01*
X016901Y016986D01*
X017409Y017494D01*
G37*
G36*
X017551Y017353D02*
X017671Y017233D01*
X017163Y016725D01*
X017043Y016845D01*
X017551Y017353D01*
G37*
G36*
X017685Y017218D02*
X017805Y017098D01*
X017297Y016590D01*
X017177Y016710D01*
X017685Y017218D01*
G37*
G36*
X017826Y017077D02*
X017946Y016957D01*
X017438Y016449D01*
X017318Y016569D01*
X017826Y017077D01*
G37*
G36*
X017968Y016936D02*
X018088Y016816D01*
X017580Y016308D01*
X017460Y016428D01*
X017968Y016936D01*
G37*
G36*
X018109Y016794D02*
X018229Y016674D01*
X017721Y016166D01*
X017601Y016286D01*
X018109Y016794D01*
G37*
G36*
X018244Y016660D02*
X018364Y016540D01*
X017856Y016032D01*
X017736Y016152D01*
X018244Y016660D01*
G37*
D14*
X026260Y016767D03*
X026260Y016019D03*
X027760Y016019D03*
X027760Y016767D03*
D15*
X027607Y023393D03*
X027607Y023893D03*
X027607Y024393D03*
X027607Y024893D03*
X027607Y025393D03*
X027607Y025893D03*
X027607Y026393D03*
X029812Y026393D03*
X029812Y025893D03*
X029812Y025393D03*
X029812Y024893D03*
X029812Y024393D03*
X029812Y023893D03*
X029812Y023393D03*
D16*
X025710Y024342D03*
X025710Y025444D03*
X027210Y013644D03*
X027210Y012542D03*
D17*
X017260Y025291D03*
X016760Y025291D03*
X016260Y025291D03*
X015760Y025291D03*
X015260Y025291D03*
X014760Y025291D03*
X014260Y025291D03*
X014260Y027496D03*
X014760Y027496D03*
X015260Y027496D03*
X015760Y027496D03*
X016260Y027496D03*
X016760Y027496D03*
X017260Y027496D03*
X010260Y027496D03*
X009760Y027496D03*
X009260Y027496D03*
X008760Y027496D03*
X008260Y027496D03*
X007760Y027496D03*
X007260Y027496D03*
X007260Y025291D03*
X007760Y025291D03*
X008260Y025291D03*
X008760Y025291D03*
X009260Y025291D03*
X009760Y025291D03*
X010260Y025291D03*
D18*
X010311Y022393D03*
X009208Y022393D03*
X015208Y022393D03*
X016311Y022393D03*
X009961Y008043D03*
X008858Y008043D03*
D19*
X008826Y010100D03*
X009082Y010100D03*
X009337Y010100D03*
X009593Y010100D03*
X009593Y011586D03*
X009337Y011586D03*
X009082Y011586D03*
X008826Y011586D03*
X024876Y012650D03*
X025132Y012650D03*
X025387Y012650D03*
X025643Y012650D03*
X025643Y014136D03*
X025387Y014136D03*
X025132Y014136D03*
X024876Y014136D03*
D20*
X028885Y016381D03*
X029260Y016381D03*
X029634Y016381D03*
X029634Y017484D03*
X028885Y017484D03*
D21*
X031760Y020893D03*
X032760Y020893D03*
X032760Y021893D03*
X031760Y021893D03*
X020810Y005693D03*
X020810Y004693D03*
X019810Y004693D03*
X019810Y005693D03*
X018810Y005693D03*
X017810Y005693D03*
X017810Y004693D03*
X018810Y004693D03*
X016810Y004693D03*
X016810Y005693D03*
D22*
X024260Y016393D03*
X029210Y011343D03*
D23*
X023219Y006243D03*
X022100Y006243D03*
X016419Y007643D03*
X015300Y007643D03*
X007869Y014143D03*
X006750Y014143D03*
D24*
X022185Y004343D03*
X022934Y004343D03*
D25*
X005560Y022383D03*
X005560Y023503D03*
D26*
X006885Y020893D03*
X007634Y020893D03*
X007634Y015193D03*
X006885Y015193D03*
D27*
X007610Y013443D03*
X009660Y012443D03*
X011360Y009643D03*
X013710Y008543D03*
X015310Y008643D03*
X008810Y009443D03*
X006260Y008893D03*
X004460Y010693D03*
X011310Y022843D03*
X011260Y025393D03*
X013010Y027643D03*
X009210Y028093D03*
X018210Y019393D03*
X017960Y017443D03*
X024880Y014793D03*
X026360Y011243D03*
X028680Y013053D03*
X030260Y017093D03*
X029960Y019243D03*
X028760Y020893D03*
X031110Y025943D03*
X030210Y026893D03*
X030660Y031243D03*
X022310Y024143D03*
D28*
X022660Y023793D03*
X023210Y023143D03*
X024260Y023443D03*
X024910Y023443D03*
X025960Y022043D03*
X026760Y021793D03*
X027760Y021543D03*
X029260Y023393D03*
X027110Y023993D03*
X026460Y025643D03*
X025760Y027343D03*
X028260Y028393D03*
X030110Y028043D03*
X029110Y026293D03*
X028360Y025893D03*
X032210Y029893D03*
X033510Y027143D03*
X029760Y020643D03*
X030760Y018393D03*
X026960Y018393D03*
X024960Y020693D03*
X024160Y021743D03*
X022360Y019893D03*
X021260Y017893D03*
X020260Y016893D03*
X018860Y015943D03*
X018360Y015843D03*
X017260Y016243D03*
X016710Y016543D03*
X016310Y017193D03*
X015460Y017993D03*
X014660Y018493D03*
X014260Y018843D03*
X014310Y019293D03*
X013710Y020293D03*
X013260Y020693D03*
X013110Y021043D03*
X013860Y020843D03*
X013310Y021993D03*
X013360Y023393D03*
X012760Y023843D03*
X014510Y023193D03*
X015060Y023643D03*
X015710Y023143D03*
X016510Y023443D03*
X016060Y024043D03*
X016210Y024543D03*
X017260Y023793D03*
X017360Y022543D03*
X018710Y022043D03*
X017660Y020693D03*
X018410Y019893D03*
X016760Y019793D03*
X017392Y018111D03*
X019210Y018443D03*
X014860Y016493D03*
X012910Y015293D03*
X013960Y013093D03*
X015260Y013493D03*
X015760Y014093D03*
X017980Y013553D03*
X018360Y013753D03*
X018630Y012493D03*
X019160Y012023D03*
X019580Y011593D03*
X020770Y011653D03*
X021760Y010943D03*
X022410Y011393D03*
X022960Y011243D03*
X023160Y011643D03*
X024510Y009893D03*
X024010Y008143D03*
X020810Y010543D03*
X014360Y010543D03*
X013210Y010243D03*
X012510Y010283D03*
X012710Y011093D03*
X013160Y011493D03*
X012110Y012343D03*
X011960Y011993D03*
X010410Y013043D03*
X010060Y012843D03*
X009110Y012243D03*
X009410Y014093D03*
X010270Y014743D03*
X010110Y015743D03*
X008660Y015243D03*
X008610Y016693D03*
X009860Y017393D03*
X009560Y018643D03*
X009360Y019043D03*
X010410Y019093D03*
X011910Y018843D03*
X012460Y017493D03*
X011860Y020843D03*
X011760Y021893D03*
X011610Y022343D03*
X010160Y021393D03*
X009760Y020843D03*
X007660Y023293D03*
X006260Y022893D03*
X006260Y021893D03*
X006760Y024893D03*
X009560Y023793D03*
X010810Y024893D03*
X012110Y025743D03*
X012360Y026543D03*
X011660Y028493D03*
X011760Y028893D03*
X011260Y029893D03*
X012610Y030043D03*
X012260Y030893D03*
X009560Y031243D03*
X015960Y027943D03*
X018860Y028043D03*
X020210Y026293D03*
X021110Y027193D03*
X021910Y024943D03*
X020660Y023793D03*
X019410Y024543D03*
X018710Y024393D03*
X017910Y024993D03*
X017760Y025393D03*
X018260Y030893D03*
X012200Y008693D03*
D29*
X005760Y010893D03*
X005760Y011893D03*
X004460Y023893D03*
X009110Y025943D03*
X009960Y026993D03*
X012910Y024543D03*
X014760Y026643D03*
X015260Y026793D03*
X018910Y025793D03*
X023360Y026093D03*
X023360Y027543D03*
X022160Y019243D03*
X030760Y016393D03*
D30*
X008260Y026393D03*
X005760Y025893D03*
M02*
