G75*
%MOIN*%
%OFA0B0*%
%FSLAX24Y24*%
%IPPOS*%
%LPD*%
%AMOC8*
5,1,8,0,0,1.08239X$1,22.5*
%
%ADD10C,0.0000*%
%ADD11C,0.0600*%
%ADD12R,0.0110X0.0660*%
%ADD13R,0.0591X0.0512*%
%ADD14R,0.0472X0.0236*%
%ADD15R,0.0787X0.0630*%
%ADD16R,0.0236X0.0472*%
%ADD17R,0.0630X0.0787*%
%ADD18R,0.0157X0.0315*%
%ADD19R,0.0217X0.0433*%
%ADD20OC8,0.0600*%
%ADD21C,0.1000*%
%ADD22R,0.0476X0.0476*%
%ADD23C,0.0476*%
%ADD24R,0.0630X0.0710*%
%ADD25R,0.0512X0.0591*%
%ADD26R,0.0710X0.0630*%
%ADD27R,0.0512X0.0630*%
%ADD28C,0.0160*%
%ADD29C,0.0080*%
%ADD30C,0.0120*%
%ADD31C,0.0357*%
%ADD32C,0.0310*%
%ADD33C,0.0100*%
%ADD34C,0.0396*%
%ADD35C,0.0110*%
%ADD36C,0.0436*%
D10*
X003760Y002393D02*
X003760Y033889D01*
X035780Y033889D01*
X035730Y002343D01*
X003760Y002393D01*
X013130Y003393D02*
X013132Y003443D01*
X013138Y003493D01*
X013148Y003542D01*
X013162Y003590D01*
X013179Y003637D01*
X013200Y003682D01*
X013225Y003726D01*
X013253Y003767D01*
X013285Y003806D01*
X013319Y003843D01*
X013356Y003877D01*
X013396Y003907D01*
X013438Y003934D01*
X013482Y003958D01*
X013528Y003979D01*
X013575Y003995D01*
X013623Y004008D01*
X013673Y004017D01*
X013722Y004022D01*
X013773Y004023D01*
X013823Y004020D01*
X013872Y004013D01*
X013921Y004002D01*
X013969Y003987D01*
X014015Y003969D01*
X014060Y003947D01*
X014103Y003921D01*
X014144Y003892D01*
X014183Y003860D01*
X014219Y003825D01*
X014251Y003787D01*
X014281Y003747D01*
X014308Y003704D01*
X014331Y003660D01*
X014350Y003614D01*
X014366Y003566D01*
X014378Y003517D01*
X014386Y003468D01*
X014390Y003418D01*
X014390Y003368D01*
X014386Y003318D01*
X014378Y003269D01*
X014366Y003220D01*
X014350Y003172D01*
X014331Y003126D01*
X014308Y003082D01*
X014281Y003039D01*
X014251Y002999D01*
X014219Y002961D01*
X014183Y002926D01*
X014144Y002894D01*
X014103Y002865D01*
X014060Y002839D01*
X014015Y002817D01*
X013969Y002799D01*
X013921Y002784D01*
X013872Y002773D01*
X013823Y002766D01*
X013773Y002763D01*
X013722Y002764D01*
X013673Y002769D01*
X013623Y002778D01*
X013575Y002791D01*
X013528Y002807D01*
X013482Y002828D01*
X013438Y002852D01*
X013396Y002879D01*
X013356Y002909D01*
X013319Y002943D01*
X013285Y002980D01*
X013253Y003019D01*
X013225Y003060D01*
X013200Y003104D01*
X013179Y003149D01*
X013162Y003196D01*
X013148Y003244D01*
X013138Y003293D01*
X013132Y003343D01*
X013130Y003393D01*
X025130Y003393D02*
X025132Y003443D01*
X025138Y003493D01*
X025148Y003542D01*
X025162Y003590D01*
X025179Y003637D01*
X025200Y003682D01*
X025225Y003726D01*
X025253Y003767D01*
X025285Y003806D01*
X025319Y003843D01*
X025356Y003877D01*
X025396Y003907D01*
X025438Y003934D01*
X025482Y003958D01*
X025528Y003979D01*
X025575Y003995D01*
X025623Y004008D01*
X025673Y004017D01*
X025722Y004022D01*
X025773Y004023D01*
X025823Y004020D01*
X025872Y004013D01*
X025921Y004002D01*
X025969Y003987D01*
X026015Y003969D01*
X026060Y003947D01*
X026103Y003921D01*
X026144Y003892D01*
X026183Y003860D01*
X026219Y003825D01*
X026251Y003787D01*
X026281Y003747D01*
X026308Y003704D01*
X026331Y003660D01*
X026350Y003614D01*
X026366Y003566D01*
X026378Y003517D01*
X026386Y003468D01*
X026390Y003418D01*
X026390Y003368D01*
X026386Y003318D01*
X026378Y003269D01*
X026366Y003220D01*
X026350Y003172D01*
X026331Y003126D01*
X026308Y003082D01*
X026281Y003039D01*
X026251Y002999D01*
X026219Y002961D01*
X026183Y002926D01*
X026144Y002894D01*
X026103Y002865D01*
X026060Y002839D01*
X026015Y002817D01*
X025969Y002799D01*
X025921Y002784D01*
X025872Y002773D01*
X025823Y002766D01*
X025773Y002763D01*
X025722Y002764D01*
X025673Y002769D01*
X025623Y002778D01*
X025575Y002791D01*
X025528Y002807D01*
X025482Y002828D01*
X025438Y002852D01*
X025396Y002879D01*
X025356Y002909D01*
X025319Y002943D01*
X025285Y002980D01*
X025253Y003019D01*
X025225Y003060D01*
X025200Y003104D01*
X025179Y003149D01*
X025162Y003196D01*
X025148Y003244D01*
X025138Y003293D01*
X025132Y003343D01*
X025130Y003393D01*
X025130Y032893D02*
X025132Y032943D01*
X025138Y032993D01*
X025148Y033042D01*
X025162Y033090D01*
X025179Y033137D01*
X025200Y033182D01*
X025225Y033226D01*
X025253Y033267D01*
X025285Y033306D01*
X025319Y033343D01*
X025356Y033377D01*
X025396Y033407D01*
X025438Y033434D01*
X025482Y033458D01*
X025528Y033479D01*
X025575Y033495D01*
X025623Y033508D01*
X025673Y033517D01*
X025722Y033522D01*
X025773Y033523D01*
X025823Y033520D01*
X025872Y033513D01*
X025921Y033502D01*
X025969Y033487D01*
X026015Y033469D01*
X026060Y033447D01*
X026103Y033421D01*
X026144Y033392D01*
X026183Y033360D01*
X026219Y033325D01*
X026251Y033287D01*
X026281Y033247D01*
X026308Y033204D01*
X026331Y033160D01*
X026350Y033114D01*
X026366Y033066D01*
X026378Y033017D01*
X026386Y032968D01*
X026390Y032918D01*
X026390Y032868D01*
X026386Y032818D01*
X026378Y032769D01*
X026366Y032720D01*
X026350Y032672D01*
X026331Y032626D01*
X026308Y032582D01*
X026281Y032539D01*
X026251Y032499D01*
X026219Y032461D01*
X026183Y032426D01*
X026144Y032394D01*
X026103Y032365D01*
X026060Y032339D01*
X026015Y032317D01*
X025969Y032299D01*
X025921Y032284D01*
X025872Y032273D01*
X025823Y032266D01*
X025773Y032263D01*
X025722Y032264D01*
X025673Y032269D01*
X025623Y032278D01*
X025575Y032291D01*
X025528Y032307D01*
X025482Y032328D01*
X025438Y032352D01*
X025396Y032379D01*
X025356Y032409D01*
X025319Y032443D01*
X025285Y032480D01*
X025253Y032519D01*
X025225Y032560D01*
X025200Y032604D01*
X025179Y032649D01*
X025162Y032696D01*
X025148Y032744D01*
X025138Y032793D01*
X025132Y032843D01*
X025130Y032893D01*
X013130Y032893D02*
X013132Y032943D01*
X013138Y032993D01*
X013148Y033042D01*
X013162Y033090D01*
X013179Y033137D01*
X013200Y033182D01*
X013225Y033226D01*
X013253Y033267D01*
X013285Y033306D01*
X013319Y033343D01*
X013356Y033377D01*
X013396Y033407D01*
X013438Y033434D01*
X013482Y033458D01*
X013528Y033479D01*
X013575Y033495D01*
X013623Y033508D01*
X013673Y033517D01*
X013722Y033522D01*
X013773Y033523D01*
X013823Y033520D01*
X013872Y033513D01*
X013921Y033502D01*
X013969Y033487D01*
X014015Y033469D01*
X014060Y033447D01*
X014103Y033421D01*
X014144Y033392D01*
X014183Y033360D01*
X014219Y033325D01*
X014251Y033287D01*
X014281Y033247D01*
X014308Y033204D01*
X014331Y033160D01*
X014350Y033114D01*
X014366Y033066D01*
X014378Y033017D01*
X014386Y032968D01*
X014390Y032918D01*
X014390Y032868D01*
X014386Y032818D01*
X014378Y032769D01*
X014366Y032720D01*
X014350Y032672D01*
X014331Y032626D01*
X014308Y032582D01*
X014281Y032539D01*
X014251Y032499D01*
X014219Y032461D01*
X014183Y032426D01*
X014144Y032394D01*
X014103Y032365D01*
X014060Y032339D01*
X014015Y032317D01*
X013969Y032299D01*
X013921Y032284D01*
X013872Y032273D01*
X013823Y032266D01*
X013773Y032263D01*
X013722Y032264D01*
X013673Y032269D01*
X013623Y032278D01*
X013575Y032291D01*
X013528Y032307D01*
X013482Y032328D01*
X013438Y032352D01*
X013396Y032379D01*
X013356Y032409D01*
X013319Y032443D01*
X013285Y032480D01*
X013253Y032519D01*
X013225Y032560D01*
X013200Y032604D01*
X013179Y032649D01*
X013162Y032696D01*
X013148Y032744D01*
X013138Y032793D01*
X013132Y032843D01*
X013130Y032893D01*
D11*
X014260Y029693D02*
X014260Y029093D01*
X015260Y029093D02*
X015260Y029693D01*
X016260Y029693D02*
X016260Y029093D01*
X017260Y029093D02*
X017260Y029693D01*
X020760Y029693D02*
X020760Y029093D01*
X021760Y029093D02*
X021760Y029693D01*
X022760Y029693D02*
X022760Y029093D01*
X023760Y029093D02*
X023760Y029693D01*
X024760Y029693D02*
X024760Y029093D01*
X025760Y029093D02*
X025760Y029693D01*
X026760Y029693D02*
X026760Y029093D01*
X027760Y029093D02*
X027760Y029693D01*
X028760Y029693D02*
X028760Y029093D01*
X029760Y029093D02*
X029760Y029693D01*
X031910Y026893D02*
X032510Y026893D01*
X032510Y025893D02*
X031910Y025893D01*
X031910Y024893D02*
X032510Y024893D01*
X032510Y023893D02*
X031910Y023893D01*
X031960Y018893D02*
X032560Y018893D01*
X032560Y017893D02*
X031960Y017893D01*
X031960Y016893D02*
X032560Y016893D01*
X032560Y015893D02*
X031960Y015893D01*
X031960Y012393D02*
X032560Y012393D01*
X032560Y011393D02*
X031960Y011393D01*
X031960Y010393D02*
X032560Y010393D01*
X032560Y009393D02*
X031960Y009393D01*
X031960Y008393D02*
X032560Y008393D01*
X026940Y006733D02*
X026340Y006733D01*
X026340Y004953D02*
X026940Y004953D01*
X024380Y004953D02*
X023780Y004953D01*
X023780Y006733D02*
X024380Y006733D01*
X013760Y005443D02*
X013760Y004843D01*
X012760Y004843D02*
X012760Y005443D01*
X009260Y005693D02*
X009260Y005093D01*
X008260Y005093D02*
X008260Y005693D01*
X007260Y005693D02*
X007260Y005093D01*
X006260Y005093D02*
X006260Y005693D01*
X007060Y011393D02*
X007660Y011393D01*
X007660Y012393D02*
X007060Y012393D01*
X006960Y016393D02*
X007560Y016393D01*
X007560Y017393D02*
X006960Y017393D01*
X006960Y018393D02*
X007560Y018393D01*
X007560Y019393D02*
X006960Y019393D01*
X007260Y029093D02*
X007260Y029693D01*
X008260Y029693D02*
X008260Y029093D01*
X009260Y029093D02*
X009260Y029693D01*
X010260Y029693D02*
X010260Y029093D01*
D12*
G36*
X014079Y019489D02*
X014001Y019411D01*
X013535Y019877D01*
X013613Y019955D01*
X014079Y019489D01*
G37*
G36*
X013945Y019355D02*
X013867Y019277D01*
X013401Y019743D01*
X013479Y019821D01*
X013945Y019355D01*
G37*
G36*
X013803Y019214D02*
X013725Y019136D01*
X013259Y019602D01*
X013337Y019680D01*
X013803Y019214D01*
G37*
G36*
X013662Y019072D02*
X013584Y018994D01*
X013118Y019460D01*
X013196Y019538D01*
X013662Y019072D01*
G37*
G36*
X013520Y018931D02*
X013442Y018853D01*
X012976Y019319D01*
X013054Y019397D01*
X013520Y018931D01*
G37*
G36*
X013386Y018796D02*
X013308Y018718D01*
X012842Y019184D01*
X012920Y019262D01*
X013386Y018796D01*
G37*
G36*
X013245Y018655D02*
X013167Y018577D01*
X012701Y019043D01*
X012779Y019121D01*
X013245Y018655D01*
G37*
G36*
X013103Y018514D02*
X013025Y018436D01*
X012559Y018902D01*
X012637Y018980D01*
X013103Y018514D01*
G37*
G36*
X012969Y018379D02*
X012891Y018301D01*
X012425Y018767D01*
X012503Y018845D01*
X012969Y018379D01*
G37*
G36*
X012827Y018238D02*
X012749Y018160D01*
X012283Y018626D01*
X012361Y018704D01*
X012827Y018238D01*
G37*
G36*
X012686Y018096D02*
X012608Y018018D01*
X012142Y018484D01*
X012220Y018562D01*
X012686Y018096D01*
G37*
G36*
X012552Y017962D02*
X012474Y017884D01*
X012008Y018350D01*
X012086Y018428D01*
X012552Y017962D01*
G37*
G36*
X012410Y017821D02*
X012332Y017743D01*
X011866Y018209D01*
X011944Y018287D01*
X012410Y017821D01*
G37*
G36*
X012269Y017679D02*
X012191Y017601D01*
X011725Y018067D01*
X011803Y018145D01*
X012269Y017679D01*
G37*
G36*
X012134Y017545D02*
X012056Y017467D01*
X011590Y017933D01*
X011668Y018011D01*
X012134Y017545D01*
G37*
G36*
X011993Y017403D02*
X011915Y017325D01*
X011449Y017791D01*
X011527Y017869D01*
X011993Y017403D01*
G37*
G36*
X011852Y017262D02*
X011774Y017184D01*
X011308Y017650D01*
X011386Y017728D01*
X011852Y017262D01*
G37*
G36*
X011717Y017128D02*
X011639Y017050D01*
X011173Y017516D01*
X011251Y017594D01*
X011717Y017128D01*
G37*
G36*
X011576Y016986D02*
X011498Y016908D01*
X011032Y017374D01*
X011110Y017452D01*
X011576Y016986D01*
G37*
G36*
X011434Y016845D02*
X011356Y016767D01*
X010890Y017233D01*
X010968Y017311D01*
X011434Y016845D01*
G37*
G36*
X011300Y016710D02*
X011222Y016632D01*
X010756Y017098D01*
X010834Y017176D01*
X011300Y016710D01*
G37*
G36*
X011159Y016569D02*
X011081Y016491D01*
X010615Y016957D01*
X010693Y017035D01*
X011159Y016569D01*
G37*
G36*
X011017Y016428D02*
X010939Y016350D01*
X010473Y016816D01*
X010551Y016894D01*
X011017Y016428D01*
G37*
G36*
X010876Y016286D02*
X010798Y016208D01*
X010332Y016674D01*
X010410Y016752D01*
X010876Y016286D01*
G37*
G36*
X010741Y016152D02*
X010663Y016074D01*
X010197Y016540D01*
X010275Y016618D01*
X010741Y016152D01*
G37*
G36*
X010663Y015713D02*
X010741Y015635D01*
X010275Y015169D01*
X010197Y015247D01*
X010663Y015713D01*
G37*
G36*
X010798Y015578D02*
X010876Y015500D01*
X010410Y015034D01*
X010332Y015112D01*
X010798Y015578D01*
G37*
G36*
X010939Y015437D02*
X011017Y015359D01*
X010551Y014893D01*
X010473Y014971D01*
X010939Y015437D01*
G37*
G36*
X011081Y015296D02*
X011159Y015218D01*
X010693Y014752D01*
X010615Y014830D01*
X011081Y015296D01*
G37*
G36*
X011222Y015154D02*
X011300Y015076D01*
X010834Y014610D01*
X010756Y014688D01*
X011222Y015154D01*
G37*
G36*
X011356Y015020D02*
X011434Y014942D01*
X010968Y014476D01*
X010890Y014554D01*
X011356Y015020D01*
G37*
G36*
X011498Y014878D02*
X011576Y014800D01*
X011110Y014334D01*
X011032Y014412D01*
X011498Y014878D01*
G37*
G36*
X011639Y014737D02*
X011717Y014659D01*
X011251Y014193D01*
X011173Y014271D01*
X011639Y014737D01*
G37*
G36*
X011774Y014603D02*
X011852Y014525D01*
X011386Y014059D01*
X011308Y014137D01*
X011774Y014603D01*
G37*
G36*
X011915Y014461D02*
X011993Y014383D01*
X011527Y013917D01*
X011449Y013995D01*
X011915Y014461D01*
G37*
G36*
X012056Y014320D02*
X012134Y014242D01*
X011668Y013776D01*
X011590Y013854D01*
X012056Y014320D01*
G37*
G36*
X012191Y014185D02*
X012269Y014107D01*
X011803Y013641D01*
X011725Y013719D01*
X012191Y014185D01*
G37*
G36*
X012332Y014044D02*
X012410Y013966D01*
X011944Y013500D01*
X011866Y013578D01*
X012332Y014044D01*
G37*
G36*
X012474Y013903D02*
X012552Y013825D01*
X012086Y013359D01*
X012008Y013437D01*
X012474Y013903D01*
G37*
G36*
X012608Y013768D02*
X012686Y013690D01*
X012220Y013224D01*
X012142Y013302D01*
X012608Y013768D01*
G37*
G36*
X012749Y013627D02*
X012827Y013549D01*
X012361Y013083D01*
X012283Y013161D01*
X012749Y013627D01*
G37*
G36*
X012891Y013485D02*
X012969Y013407D01*
X012503Y012941D01*
X012425Y013019D01*
X012891Y013485D01*
G37*
G36*
X013025Y013351D02*
X013103Y013273D01*
X012637Y012807D01*
X012559Y012885D01*
X013025Y013351D01*
G37*
G36*
X013167Y013210D02*
X013245Y013132D01*
X012779Y012666D01*
X012701Y012744D01*
X013167Y013210D01*
G37*
G36*
X013308Y013068D02*
X013386Y012990D01*
X012920Y012524D01*
X012842Y012602D01*
X013308Y013068D01*
G37*
G36*
X013442Y012934D02*
X013520Y012856D01*
X013054Y012390D01*
X012976Y012468D01*
X013442Y012934D01*
G37*
G36*
X013584Y012792D02*
X013662Y012714D01*
X013196Y012248D01*
X013118Y012326D01*
X013584Y012792D01*
G37*
G36*
X013725Y012651D02*
X013803Y012573D01*
X013337Y012107D01*
X013259Y012185D01*
X013725Y012651D01*
G37*
G36*
X013867Y012510D02*
X013945Y012432D01*
X013479Y011966D01*
X013401Y012044D01*
X013867Y012510D01*
G37*
G36*
X014001Y012375D02*
X014079Y012297D01*
X013613Y011831D01*
X013535Y011909D01*
X014001Y012375D01*
G37*
G36*
X014984Y011909D02*
X014906Y011831D01*
X014440Y012297D01*
X014518Y012375D01*
X014984Y011909D01*
G37*
G36*
X015118Y012044D02*
X015040Y011966D01*
X014574Y012432D01*
X014652Y012510D01*
X015118Y012044D01*
G37*
G36*
X015260Y012185D02*
X015182Y012107D01*
X014716Y012573D01*
X014794Y012651D01*
X015260Y012185D01*
G37*
G36*
X015401Y012326D02*
X015323Y012248D01*
X014857Y012714D01*
X014935Y012792D01*
X015401Y012326D01*
G37*
G36*
X015543Y012468D02*
X015465Y012390D01*
X014999Y012856D01*
X015077Y012934D01*
X015543Y012468D01*
G37*
G36*
X015677Y012602D02*
X015599Y012524D01*
X015133Y012990D01*
X015211Y013068D01*
X015677Y012602D01*
G37*
G36*
X015818Y012744D02*
X015740Y012666D01*
X015274Y013132D01*
X015352Y013210D01*
X015818Y012744D01*
G37*
G36*
X015960Y012885D02*
X015882Y012807D01*
X015416Y013273D01*
X015494Y013351D01*
X015960Y012885D01*
G37*
G36*
X016094Y013019D02*
X016016Y012941D01*
X015550Y013407D01*
X015628Y013485D01*
X016094Y013019D01*
G37*
G36*
X016236Y013161D02*
X016158Y013083D01*
X015692Y013549D01*
X015770Y013627D01*
X016236Y013161D01*
G37*
G36*
X016377Y013302D02*
X016299Y013224D01*
X015833Y013690D01*
X015911Y013768D01*
X016377Y013302D01*
G37*
G36*
X016511Y013437D02*
X016433Y013359D01*
X015967Y013825D01*
X016045Y013903D01*
X016511Y013437D01*
G37*
G36*
X016653Y013578D02*
X016575Y013500D01*
X016109Y013966D01*
X016187Y014044D01*
X016653Y013578D01*
G37*
G36*
X016794Y013719D02*
X016716Y013641D01*
X016250Y014107D01*
X016328Y014185D01*
X016794Y013719D01*
G37*
G36*
X016929Y013854D02*
X016851Y013776D01*
X016385Y014242D01*
X016463Y014320D01*
X016929Y013854D01*
G37*
G36*
X017070Y013995D02*
X016992Y013917D01*
X016526Y014383D01*
X016604Y014461D01*
X017070Y013995D01*
G37*
G36*
X017211Y014137D02*
X017133Y014059D01*
X016667Y014525D01*
X016745Y014603D01*
X017211Y014137D01*
G37*
G36*
X017346Y014271D02*
X017268Y014193D01*
X016802Y014659D01*
X016880Y014737D01*
X017346Y014271D01*
G37*
G36*
X017487Y014412D02*
X017409Y014334D01*
X016943Y014800D01*
X017021Y014878D01*
X017487Y014412D01*
G37*
G36*
X017629Y014554D02*
X017551Y014476D01*
X017085Y014942D01*
X017163Y015020D01*
X017629Y014554D01*
G37*
G36*
X017763Y014688D02*
X017685Y014610D01*
X017219Y015076D01*
X017297Y015154D01*
X017763Y014688D01*
G37*
G36*
X017904Y014830D02*
X017826Y014752D01*
X017360Y015218D01*
X017438Y015296D01*
X017904Y014830D01*
G37*
G36*
X018046Y014971D02*
X017968Y014893D01*
X017502Y015359D01*
X017580Y015437D01*
X018046Y014971D01*
G37*
G36*
X018187Y015112D02*
X018109Y015034D01*
X017643Y015500D01*
X017721Y015578D01*
X018187Y015112D01*
G37*
G36*
X018322Y015247D02*
X018244Y015169D01*
X017778Y015635D01*
X017856Y015713D01*
X018322Y015247D01*
G37*
G36*
X018244Y016618D02*
X018322Y016540D01*
X017856Y016074D01*
X017778Y016152D01*
X018244Y016618D01*
G37*
G36*
X018109Y016752D02*
X018187Y016674D01*
X017721Y016208D01*
X017643Y016286D01*
X018109Y016752D01*
G37*
G36*
X017968Y016894D02*
X018046Y016816D01*
X017580Y016350D01*
X017502Y016428D01*
X017968Y016894D01*
G37*
G36*
X017826Y017035D02*
X017904Y016957D01*
X017438Y016491D01*
X017360Y016569D01*
X017826Y017035D01*
G37*
G36*
X017685Y017176D02*
X017763Y017098D01*
X017297Y016632D01*
X017219Y016710D01*
X017685Y017176D01*
G37*
G36*
X017551Y017311D02*
X017629Y017233D01*
X017163Y016767D01*
X017085Y016845D01*
X017551Y017311D01*
G37*
G36*
X017409Y017452D02*
X017487Y017374D01*
X017021Y016908D01*
X016943Y016986D01*
X017409Y017452D01*
G37*
G36*
X017268Y017594D02*
X017346Y017516D01*
X016880Y017050D01*
X016802Y017128D01*
X017268Y017594D01*
G37*
G36*
X017133Y017728D02*
X017211Y017650D01*
X016745Y017184D01*
X016667Y017262D01*
X017133Y017728D01*
G37*
G36*
X016992Y017869D02*
X017070Y017791D01*
X016604Y017325D01*
X016526Y017403D01*
X016992Y017869D01*
G37*
G36*
X016851Y018011D02*
X016929Y017933D01*
X016463Y017467D01*
X016385Y017545D01*
X016851Y018011D01*
G37*
G36*
X016716Y018145D02*
X016794Y018067D01*
X016328Y017601D01*
X016250Y017679D01*
X016716Y018145D01*
G37*
G36*
X016575Y018287D02*
X016653Y018209D01*
X016187Y017743D01*
X016109Y017821D01*
X016575Y018287D01*
G37*
G36*
X016433Y018428D02*
X016511Y018350D01*
X016045Y017884D01*
X015967Y017962D01*
X016433Y018428D01*
G37*
G36*
X016299Y018562D02*
X016377Y018484D01*
X015911Y018018D01*
X015833Y018096D01*
X016299Y018562D01*
G37*
G36*
X016158Y018704D02*
X016236Y018626D01*
X015770Y018160D01*
X015692Y018238D01*
X016158Y018704D01*
G37*
G36*
X016016Y018845D02*
X016094Y018767D01*
X015628Y018301D01*
X015550Y018379D01*
X016016Y018845D01*
G37*
G36*
X015882Y018980D02*
X015960Y018902D01*
X015494Y018436D01*
X015416Y018514D01*
X015882Y018980D01*
G37*
G36*
X015740Y019121D02*
X015818Y019043D01*
X015352Y018577D01*
X015274Y018655D01*
X015740Y019121D01*
G37*
G36*
X015599Y019262D02*
X015677Y019184D01*
X015211Y018718D01*
X015133Y018796D01*
X015599Y019262D01*
G37*
G36*
X015465Y019397D02*
X015543Y019319D01*
X015077Y018853D01*
X014999Y018931D01*
X015465Y019397D01*
G37*
G36*
X015323Y019538D02*
X015401Y019460D01*
X014935Y018994D01*
X014857Y019072D01*
X015323Y019538D01*
G37*
G36*
X015182Y019680D02*
X015260Y019602D01*
X014794Y019136D01*
X014716Y019214D01*
X015182Y019680D01*
G37*
G36*
X015040Y019821D02*
X015118Y019743D01*
X014652Y019277D01*
X014574Y019355D01*
X015040Y019821D01*
G37*
G36*
X014906Y019955D02*
X014984Y019877D01*
X014518Y019411D01*
X014440Y019489D01*
X014906Y019955D01*
G37*
D13*
X026260Y016767D03*
X026260Y016019D03*
X027760Y016019D03*
X027760Y016767D03*
D14*
X027607Y023393D03*
X027607Y023893D03*
X027607Y024393D03*
X027607Y024893D03*
X027607Y025393D03*
X027607Y025893D03*
X027607Y026393D03*
X029812Y026393D03*
X029812Y025893D03*
X029812Y025393D03*
X029812Y024893D03*
X029812Y024393D03*
X029812Y023893D03*
X029812Y023393D03*
D15*
X025710Y024342D03*
X025710Y025444D03*
X027210Y013644D03*
X027210Y012542D03*
D16*
X017260Y025291D03*
X016760Y025291D03*
X016260Y025291D03*
X015760Y025291D03*
X015260Y025291D03*
X014760Y025291D03*
X014260Y025291D03*
X014260Y027496D03*
X014760Y027496D03*
X015260Y027496D03*
X015760Y027496D03*
X016260Y027496D03*
X016760Y027496D03*
X017260Y027496D03*
X010260Y027496D03*
X009760Y027496D03*
X009260Y027496D03*
X008760Y027496D03*
X008260Y027496D03*
X007760Y027496D03*
X007260Y027496D03*
X007260Y025291D03*
X007760Y025291D03*
X008260Y025291D03*
X008760Y025291D03*
X009260Y025291D03*
X009760Y025291D03*
X010260Y025291D03*
D17*
X010311Y022393D03*
X009208Y022393D03*
X015208Y022393D03*
X016311Y022393D03*
X009961Y008043D03*
X008858Y008043D03*
D18*
X008826Y010105D03*
X009082Y010105D03*
X009337Y010105D03*
X009593Y010105D03*
X009593Y011581D03*
X009337Y011581D03*
X009082Y011581D03*
X008826Y011581D03*
X024876Y012655D03*
X025132Y012655D03*
X025387Y012655D03*
X025643Y012655D03*
X025643Y014131D03*
X025387Y014131D03*
X025132Y014131D03*
X024876Y014131D03*
D19*
X028885Y016381D03*
X029260Y016381D03*
X029634Y016381D03*
X029634Y017484D03*
X028885Y017484D03*
D20*
X031760Y020893D03*
X032760Y020893D03*
X032760Y021893D03*
X031760Y021893D03*
D21*
X024260Y016393D03*
X029210Y011343D03*
D22*
X017760Y004693D03*
D23*
X018260Y004693D03*
X018760Y004693D03*
X019260Y004693D03*
X019760Y004693D03*
X019760Y005193D03*
X019260Y005193D03*
X018760Y005193D03*
X018260Y005193D03*
X017760Y005193D03*
D24*
X016419Y007643D03*
X015300Y007643D03*
X021100Y006243D03*
X022219Y006243D03*
X007869Y014143D03*
X006750Y014143D03*
D25*
X021185Y004343D03*
X021934Y004343D03*
D26*
X005560Y022383D03*
X005560Y023503D03*
D27*
X006885Y020893D03*
X007634Y020893D03*
X007634Y015193D03*
X006885Y015193D03*
D28*
X006470Y015232D02*
X006170Y015232D01*
X006170Y015390D02*
X006470Y015390D01*
X006470Y015549D02*
X006170Y015549D01*
X006170Y015707D02*
X007424Y015707D01*
X007424Y015668D02*
X007311Y015668D01*
X007260Y015616D01*
X007208Y015668D01*
X006563Y015668D01*
X006470Y015575D01*
X006470Y014812D01*
X006540Y014742D01*
X006540Y014658D01*
X006368Y014658D01*
X006275Y014565D01*
X006275Y013722D01*
X006368Y013628D01*
X007131Y013628D01*
X007225Y013722D01*
X007225Y014565D01*
X007131Y014658D01*
X006960Y014658D01*
X006960Y014718D01*
X007208Y014718D01*
X007260Y014770D01*
X007311Y014718D01*
X007956Y014718D01*
X008049Y014812D01*
X008049Y015575D01*
X007956Y015668D01*
X007881Y015668D01*
X008096Y015883D01*
X008917Y015883D01*
X008860Y015826D01*
X008588Y015555D01*
X008481Y015510D01*
X008392Y015422D01*
X008345Y015306D01*
X008345Y015181D01*
X008392Y015065D01*
X008481Y014976D01*
X008597Y014928D01*
X008722Y014928D01*
X008838Y014976D01*
X008927Y015065D01*
X008975Y015181D01*
X008975Y015306D01*
X008954Y015355D01*
X009142Y015543D01*
X009864Y015543D01*
X009931Y015476D01*
X010047Y015428D01*
X010153Y015428D01*
X010037Y015313D01*
X010037Y015180D01*
X010172Y015046D01*
X010173Y015044D01*
X010091Y015010D01*
X010002Y014922D01*
X009955Y014806D01*
X009955Y014681D01*
X010002Y014565D01*
X010070Y014498D01*
X010070Y014336D01*
X009697Y013963D01*
X009725Y014031D01*
X009725Y014156D01*
X009677Y014272D01*
X009588Y014360D01*
X009472Y014408D01*
X009347Y014408D01*
X009231Y014360D01*
X009142Y014272D01*
X009095Y014156D01*
X009095Y014075D01*
X008273Y013253D01*
X006346Y013253D01*
X006170Y013430D01*
X006170Y015780D01*
X006046Y015903D01*
X005870Y016080D01*
X005870Y021206D01*
X006241Y021578D01*
X006322Y021578D01*
X006438Y021626D01*
X006527Y021715D01*
X006575Y021831D01*
X007038Y021368D01*
X006563Y021368D01*
X006470Y021275D01*
X006470Y020600D01*
X005950Y020080D01*
X005950Y017356D01*
X006073Y017233D01*
X006611Y016695D01*
X006570Y016654D01*
X006500Y016485D01*
X006500Y016302D01*
X006570Y016133D01*
X006699Y016003D01*
X006868Y015933D01*
X007553Y015933D01*
X007424Y015804D01*
X007424Y015668D01*
X007485Y015866D02*
X006084Y015866D01*
X006046Y015903D02*
X006046Y015903D01*
X005925Y016024D02*
X006678Y016024D01*
X006549Y016183D02*
X005870Y016183D01*
X005870Y016341D02*
X006500Y016341D01*
X006506Y016500D02*
X005870Y016500D01*
X005870Y016658D02*
X006574Y016658D01*
X006489Y016817D02*
X005870Y016817D01*
X005870Y016975D02*
X006331Y016975D01*
X006172Y017134D02*
X005870Y017134D01*
X005870Y017292D02*
X006014Y017292D01*
X005950Y017451D02*
X005870Y017451D01*
X005870Y017609D02*
X005950Y017609D01*
X005950Y017768D02*
X005870Y017768D01*
X005870Y017926D02*
X005950Y017926D01*
X005950Y018085D02*
X005870Y018085D01*
X005870Y018243D02*
X005950Y018243D01*
X005950Y018402D02*
X005870Y018402D01*
X005870Y018560D02*
X005950Y018560D01*
X005950Y018719D02*
X005870Y018719D01*
X005870Y018877D02*
X005950Y018877D01*
X005950Y019036D02*
X005870Y019036D01*
X005870Y019194D02*
X005950Y019194D01*
X005950Y019353D02*
X005870Y019353D01*
X005870Y019511D02*
X005950Y019511D01*
X005950Y019670D02*
X005870Y019670D01*
X005870Y019828D02*
X005950Y019828D01*
X005950Y019987D02*
X005870Y019987D01*
X005870Y020145D02*
X006015Y020145D01*
X005870Y020304D02*
X006173Y020304D01*
X006332Y020462D02*
X005870Y020462D01*
X005870Y020621D02*
X006470Y020621D01*
X006470Y020779D02*
X005870Y020779D01*
X005870Y020938D02*
X006470Y020938D01*
X006470Y021096D02*
X005870Y021096D01*
X005918Y021255D02*
X006470Y021255D01*
X006235Y021572D02*
X006834Y021572D01*
X006675Y021730D02*
X006533Y021730D01*
X006575Y021831D02*
X006575Y021831D01*
X006794Y022206D02*
X008733Y022206D01*
X008733Y022224D02*
X008733Y021933D01*
X008827Y021840D01*
X009590Y021840D01*
X009683Y021933D01*
X009683Y022853D01*
X009590Y022947D01*
X008827Y022947D01*
X008733Y022853D01*
X008733Y022664D01*
X006799Y022664D01*
X006575Y022889D01*
X006575Y022956D01*
X006527Y023072D01*
X006438Y023160D01*
X006322Y023208D01*
X006197Y023208D01*
X006094Y023166D01*
X006094Y023426D01*
X005637Y023426D01*
X005637Y023581D01*
X005482Y023581D01*
X005482Y023998D01*
X005181Y023998D01*
X005135Y023986D01*
X005094Y023962D01*
X005061Y023929D01*
X005037Y023888D01*
X005025Y023842D01*
X005025Y023581D01*
X005482Y023581D01*
X005482Y023426D01*
X005025Y023426D01*
X005025Y023164D01*
X005037Y023119D01*
X005061Y023078D01*
X005094Y023044D01*
X005135Y023020D01*
X005181Y023008D01*
X005482Y023008D01*
X005482Y023426D01*
X005637Y023426D01*
X005637Y023008D01*
X005938Y023008D01*
X005970Y023017D01*
X005945Y022956D01*
X005945Y022858D01*
X005138Y022858D01*
X005045Y022765D01*
X005045Y022002D01*
X005138Y021909D01*
X005945Y021909D01*
X005945Y021875D01*
X005573Y021503D01*
X005450Y021380D01*
X005450Y015906D01*
X005573Y015783D01*
X005750Y015606D01*
X005750Y013256D01*
X006050Y012956D01*
X006173Y012833D01*
X006866Y012833D01*
X006808Y012804D01*
X006747Y012759D01*
X006693Y012706D01*
X006649Y012645D01*
X006615Y012578D01*
X006591Y012506D01*
X006580Y012431D01*
X006580Y012413D01*
X007340Y012413D01*
X007340Y012373D01*
X007380Y012373D01*
X007380Y012413D01*
X008140Y012413D01*
X008140Y012431D01*
X008128Y012506D01*
X008104Y012578D01*
X008070Y012645D01*
X008026Y012706D01*
X007972Y012759D01*
X007911Y012804D01*
X007853Y012833D01*
X008446Y012833D01*
X009391Y013778D01*
X009472Y013778D01*
X009540Y013806D01*
X008626Y012892D01*
X008626Y011844D01*
X008587Y011805D01*
X008587Y011433D01*
X008407Y011613D01*
X008066Y011613D01*
X008049Y011654D01*
X007920Y011783D01*
X007751Y011853D01*
X006968Y011853D01*
X006799Y011783D01*
X006670Y011654D01*
X006661Y011633D01*
X006359Y011633D01*
X006118Y011875D01*
X006118Y011965D01*
X006063Y012096D01*
X005962Y012197D01*
X005831Y012251D01*
X005688Y012251D01*
X005557Y012197D01*
X005456Y012096D01*
X005401Y011965D01*
X005401Y011822D01*
X005456Y011690D01*
X005557Y011590D01*
X005688Y011535D01*
X005778Y011535D01*
X005920Y011393D01*
X005778Y011251D01*
X005688Y011251D01*
X005557Y011197D01*
X005456Y011096D01*
X005401Y010965D01*
X005401Y010822D01*
X005456Y010690D01*
X005557Y010590D01*
X005688Y010535D01*
X005831Y010535D01*
X005962Y010590D01*
X006063Y010690D01*
X006118Y010822D01*
X006118Y010912D01*
X006359Y011153D01*
X006661Y011153D01*
X006670Y011133D01*
X006799Y011003D01*
X006968Y010933D01*
X007751Y010933D01*
X007920Y011003D01*
X008049Y011133D01*
X008066Y011173D01*
X008224Y011173D01*
X008975Y010423D01*
X008681Y010423D01*
X008587Y010329D01*
X008587Y009881D01*
X008600Y009869D01*
X008600Y009712D01*
X008523Y009635D01*
X008471Y009511D01*
X008471Y009376D01*
X008523Y009252D01*
X008618Y009156D01*
X008742Y009105D01*
X008877Y009105D01*
X009001Y009156D01*
X009050Y009205D01*
X009050Y008656D01*
X009089Y008617D01*
X008936Y008617D01*
X008936Y008121D01*
X008781Y008121D01*
X008781Y008617D01*
X008520Y008617D01*
X008474Y008605D01*
X008433Y008581D01*
X008399Y008548D01*
X008376Y008506D01*
X008363Y008461D01*
X008363Y008121D01*
X008781Y008121D01*
X008781Y007966D01*
X008936Y007966D01*
X008936Y008121D01*
X009353Y008121D01*
X009353Y008354D01*
X009486Y008221D01*
X009486Y007583D01*
X009579Y007490D01*
X010342Y007490D01*
X010436Y007583D01*
X010436Y008503D01*
X010342Y008597D01*
X009704Y008597D01*
X009547Y008754D01*
X009470Y008831D01*
X009470Y009556D01*
X009547Y009634D01*
X009547Y009744D01*
X010290Y009002D01*
X010418Y008873D01*
X011934Y008873D01*
X011932Y008872D01*
X011885Y008756D01*
X011885Y008699D01*
X011860Y008674D01*
X010428Y007243D01*
X008691Y007243D01*
X008020Y007914D01*
X008020Y008654D01*
X007891Y008783D01*
X007891Y008783D01*
X007140Y009534D01*
X007140Y009534D01*
X007011Y009663D01*
X005801Y009663D01*
X004798Y010666D01*
X004798Y010761D01*
X004746Y010885D01*
X004651Y010980D01*
X004527Y011032D01*
X004392Y011032D01*
X004268Y010980D01*
X004240Y010952D01*
X004240Y010952D01*
X004240Y023607D01*
X004257Y023590D01*
X004388Y023535D01*
X004531Y023535D01*
X004662Y023590D01*
X004763Y023690D01*
X004818Y023822D01*
X004818Y023965D01*
X004766Y024089D01*
X004851Y024173D01*
X007351Y024173D01*
X007851Y024673D01*
X007980Y024802D01*
X007980Y024930D01*
X008010Y024960D01*
X008060Y024910D01*
X008060Y024310D01*
X008660Y023710D01*
X008777Y023593D01*
X009314Y023593D01*
X009381Y023526D01*
X009437Y023503D01*
X007895Y023503D01*
X007838Y023560D01*
X007722Y023608D01*
X007597Y023608D01*
X007481Y023560D01*
X007392Y023472D01*
X007345Y023356D01*
X007345Y023231D01*
X007392Y023115D01*
X007481Y023026D01*
X007597Y022978D01*
X007722Y022978D01*
X007838Y023026D01*
X007895Y023083D01*
X013285Y023083D01*
X013297Y023078D01*
X013422Y023078D01*
X013538Y023126D01*
X013627Y023215D01*
X013675Y023331D01*
X013675Y023456D01*
X013627Y023572D01*
X013538Y023660D01*
X013422Y023708D01*
X013297Y023708D01*
X013181Y023660D01*
X013092Y023572D01*
X013064Y023503D01*
X009683Y023503D01*
X009738Y023526D01*
X009827Y023615D01*
X009875Y023731D01*
X009875Y023856D01*
X009867Y023873D01*
X012418Y023873D01*
X012445Y023847D01*
X012445Y023781D01*
X012492Y023665D01*
X012581Y023576D01*
X012697Y023528D01*
X012822Y023528D01*
X012938Y023576D01*
X013027Y023665D01*
X013075Y023781D01*
X013075Y023906D01*
X013027Y024022D01*
X012938Y024110D01*
X012822Y024158D01*
X012756Y024158D01*
X012601Y024313D01*
X009551Y024313D01*
X009541Y024323D01*
X012623Y024323D01*
X012707Y024240D01*
X012838Y024185D01*
X012981Y024185D01*
X013112Y024240D01*
X013213Y024340D01*
X013268Y024472D01*
X013268Y024615D01*
X013243Y024673D01*
X013668Y024673D01*
X013890Y024452D01*
X013890Y022752D01*
X014018Y022623D01*
X014018Y022623D01*
X014340Y022302D01*
X014468Y022173D01*
X014733Y022173D01*
X014733Y021943D01*
X014192Y021943D01*
X013592Y022543D01*
X011855Y022543D01*
X011788Y022610D01*
X011672Y022658D01*
X011547Y022658D01*
X011431Y022610D01*
X011342Y022522D01*
X011295Y022406D01*
X011295Y022281D01*
X011342Y022165D01*
X011431Y022076D01*
X011485Y022054D01*
X011445Y021956D01*
X011445Y021831D01*
X011492Y021715D01*
X011581Y021626D01*
X011661Y021593D01*
X010405Y021593D01*
X010338Y021660D01*
X010222Y021708D01*
X010097Y021708D01*
X009981Y021660D01*
X009892Y021572D01*
X009845Y021456D01*
X009845Y021331D01*
X009892Y021215D01*
X009981Y021126D01*
X010097Y021078D01*
X010222Y021078D01*
X010338Y021126D01*
X010405Y021193D01*
X012831Y021193D01*
X012795Y021106D01*
X012795Y021011D01*
X012710Y020926D01*
X012710Y019664D01*
X012827Y019546D01*
X012902Y019471D01*
X012816Y019386D01*
X012816Y019386D01*
X012712Y019281D01*
X012712Y019281D01*
X012540Y019110D01*
X012540Y019110D01*
X012492Y019061D01*
X012377Y019176D01*
X012260Y019293D01*
X012242Y019293D01*
X012092Y019443D01*
X010477Y019443D01*
X010442Y019408D01*
X010347Y019408D01*
X010231Y019360D01*
X010142Y019272D01*
X010095Y019156D01*
X010095Y019031D01*
X010142Y018915D01*
X010231Y018826D01*
X010347Y018778D01*
X010472Y018778D01*
X010588Y018826D01*
X010677Y018915D01*
X010725Y019031D01*
X010725Y019043D01*
X011664Y019043D01*
X011642Y019022D01*
X011595Y018906D01*
X011595Y018781D01*
X011642Y018665D01*
X011731Y018576D01*
X011847Y018528D01*
X011959Y018528D01*
X011877Y018447D01*
X011706Y018275D01*
X011613Y018183D01*
X011598Y018179D01*
X011557Y018155D01*
X011502Y018099D01*
X011446Y018044D01*
X011422Y018003D01*
X011418Y017988D01*
X011319Y017888D01*
X011196Y017766D01*
X011181Y017762D01*
X011140Y017738D01*
X011085Y017682D01*
X011147Y017620D01*
X011147Y017620D01*
X011085Y017682D01*
X011029Y017627D01*
X011005Y017586D01*
X011001Y017571D01*
X010872Y017441D01*
X010872Y017441D01*
X010833Y017403D01*
X009799Y018437D01*
X009827Y018465D01*
X009875Y018581D01*
X009875Y018706D01*
X009827Y018822D01*
X009738Y018910D01*
X009659Y018943D01*
X009675Y018981D01*
X009675Y019106D01*
X009627Y019222D01*
X009538Y019310D01*
X009422Y019358D01*
X009297Y019358D01*
X009181Y019310D01*
X009092Y019222D01*
X009045Y019106D01*
X009045Y019039D01*
X008618Y018613D01*
X007966Y018613D01*
X007949Y018654D01*
X007820Y018783D01*
X007651Y018853D01*
X006868Y018853D01*
X006699Y018783D01*
X006570Y018654D01*
X006500Y018485D01*
X006500Y018302D01*
X006570Y018133D01*
X006699Y018003D01*
X006868Y017933D01*
X007651Y017933D01*
X007820Y018003D01*
X007949Y018133D01*
X007966Y018173D01*
X008801Y018173D01*
X008930Y018302D01*
X009245Y018617D01*
X009245Y018581D01*
X009292Y018465D01*
X009310Y018448D01*
X009310Y018360D01*
X009427Y018243D01*
X009990Y017680D01*
X009922Y017708D01*
X009797Y017708D01*
X009681Y017660D01*
X009634Y017613D01*
X007966Y017613D01*
X007949Y017654D01*
X007820Y017783D01*
X007651Y017853D01*
X006868Y017853D01*
X006699Y017783D01*
X006570Y017654D01*
X006500Y017485D01*
X006500Y017400D01*
X006370Y017530D01*
X006370Y019906D01*
X006882Y020418D01*
X007208Y020418D01*
X007260Y020470D01*
X007311Y020418D01*
X007956Y020418D01*
X008049Y020512D01*
X008049Y021275D01*
X007956Y021368D01*
X007620Y021368D01*
X007620Y021380D01*
X007496Y021503D01*
X006775Y022224D01*
X008733Y022224D01*
X008733Y022047D02*
X006952Y022047D01*
X007111Y021889D02*
X008778Y021889D01*
X008733Y022681D02*
X006783Y022681D01*
X006624Y022840D02*
X008733Y022840D01*
X008738Y023632D02*
X006094Y023632D01*
X006094Y023581D02*
X006094Y023842D01*
X006082Y023888D01*
X006058Y023929D01*
X006025Y023962D01*
X005984Y023986D01*
X005938Y023998D01*
X005637Y023998D01*
X005637Y023581D01*
X006094Y023581D01*
X006094Y023791D02*
X008579Y023791D01*
X008421Y023949D02*
X006038Y023949D01*
X005637Y023949D02*
X005482Y023949D01*
X005482Y023791D02*
X005637Y023791D01*
X005637Y023632D02*
X005482Y023632D01*
X005482Y023474D02*
X004240Y023474D01*
X004240Y023315D02*
X005025Y023315D01*
X005027Y023157D02*
X004240Y023157D01*
X004240Y022998D02*
X005962Y022998D01*
X006094Y023315D02*
X007345Y023315D01*
X007375Y023157D02*
X006441Y023157D01*
X006557Y022998D02*
X007548Y022998D01*
X007771Y022998D02*
X013890Y022998D01*
X013890Y022840D02*
X010798Y022840D01*
X010793Y022856D02*
X010770Y022898D01*
X010736Y022931D01*
X010695Y022955D01*
X010649Y022967D01*
X010388Y022967D01*
X010388Y022471D01*
X010233Y022471D01*
X010233Y022967D01*
X009972Y022967D01*
X009926Y022955D01*
X009885Y022931D01*
X009852Y022898D01*
X009828Y022856D01*
X009816Y022811D01*
X009816Y022471D01*
X010233Y022471D01*
X010233Y022316D01*
X009816Y022316D01*
X009816Y021976D01*
X009828Y021930D01*
X009852Y021889D01*
X009639Y021889D01*
X009683Y022047D02*
X009816Y022047D01*
X009816Y022206D02*
X009683Y022206D01*
X009683Y022364D02*
X010233Y022364D01*
X010233Y022316D02*
X010388Y022316D01*
X010388Y021820D01*
X010649Y021820D01*
X010695Y021832D01*
X010736Y021856D01*
X010770Y021889D01*
X010793Y021930D01*
X010806Y021976D01*
X010806Y022316D01*
X010388Y022316D01*
X010388Y022471D01*
X010806Y022471D01*
X010806Y022811D01*
X010793Y022856D01*
X010806Y022681D02*
X013960Y022681D01*
X014119Y022523D02*
X013613Y022523D01*
X013771Y022364D02*
X014277Y022364D01*
X014340Y022302D02*
X014340Y022302D01*
X014436Y022206D02*
X013930Y022206D01*
X014088Y022047D02*
X014733Y022047D01*
X015683Y022047D02*
X015816Y022047D01*
X015816Y021976D02*
X015824Y021943D01*
X015683Y021943D01*
X015683Y022828D01*
X015772Y022828D01*
X015826Y022851D01*
X015816Y022811D01*
X015816Y022471D01*
X016233Y022471D01*
X016233Y022316D01*
X015816Y022316D01*
X015816Y021976D01*
X015816Y022206D02*
X015683Y022206D01*
X015683Y022364D02*
X016233Y022364D01*
X016388Y022364D02*
X032552Y022364D01*
X032561Y022373D02*
X032280Y022092D01*
X032280Y021913D01*
X032740Y021913D01*
X032740Y022373D01*
X032561Y022373D01*
X032740Y022364D02*
X032780Y022364D01*
X032780Y022373D02*
X032780Y021913D01*
X033240Y021913D01*
X033240Y022092D01*
X032958Y022373D01*
X032780Y022373D01*
X032780Y022206D02*
X032740Y022206D01*
X032740Y022047D02*
X032780Y022047D01*
X032780Y021913D02*
X032740Y021913D01*
X032740Y021873D01*
X032780Y021873D01*
X032780Y021913D01*
X032780Y021889D02*
X035281Y021889D01*
X035281Y022047D02*
X033240Y022047D01*
X033240Y021873D02*
X032780Y021873D01*
X032780Y021413D01*
X032958Y021413D01*
X033240Y021694D01*
X033240Y021873D01*
X033240Y021730D02*
X035280Y021730D01*
X035280Y021572D02*
X033117Y021572D01*
X032958Y021413D02*
X035280Y021413D01*
X035280Y021255D02*
X033077Y021255D01*
X032958Y021373D02*
X033240Y021092D01*
X033240Y020913D01*
X032780Y020913D01*
X032780Y020873D01*
X033240Y020873D01*
X033240Y020694D01*
X032958Y020413D01*
X032780Y020413D01*
X032780Y020873D01*
X032740Y020873D01*
X032740Y020413D01*
X032561Y020413D01*
X032280Y020694D01*
X032280Y020873D01*
X032740Y020873D01*
X032740Y020913D01*
X032740Y021373D01*
X032561Y021373D01*
X032280Y021092D01*
X032280Y020913D01*
X032740Y020913D01*
X032780Y020913D01*
X032780Y021373D01*
X032958Y021373D01*
X032780Y021413D02*
X032740Y021413D01*
X032740Y021873D01*
X032280Y021873D01*
X032280Y021694D01*
X032561Y021413D01*
X032740Y021413D01*
X032740Y021255D02*
X032780Y021255D01*
X032780Y021096D02*
X032740Y021096D01*
X032740Y020938D02*
X032780Y020938D01*
X032780Y020779D02*
X032740Y020779D01*
X032740Y020621D02*
X032780Y020621D01*
X032780Y020462D02*
X032740Y020462D01*
X032512Y020462D02*
X031980Y020462D01*
X031980Y020463D02*
X032220Y020703D01*
X032220Y021084D01*
X031950Y021353D01*
X031569Y021353D01*
X031300Y021084D01*
X031300Y020703D01*
X031540Y020463D01*
X031540Y020449D01*
X030298Y019207D01*
X030298Y019311D01*
X030246Y019435D01*
X030151Y019530D01*
X030027Y019582D01*
X029892Y019582D01*
X029768Y019530D01*
X029691Y019453D01*
X022456Y019453D01*
X022362Y019547D01*
X022231Y019601D01*
X022088Y019601D01*
X021957Y019547D01*
X021856Y019446D01*
X021801Y019315D01*
X021801Y019172D01*
X021856Y019040D01*
X021957Y018940D01*
X022088Y018885D01*
X022231Y018885D01*
X022362Y018940D01*
X022456Y019033D01*
X029691Y019033D01*
X029768Y018956D01*
X029892Y018905D01*
X029995Y018905D01*
X028951Y017860D01*
X028711Y017860D01*
X028617Y017767D01*
X028617Y017613D01*
X027168Y017613D01*
X027040Y017484D01*
X026694Y017139D01*
X026665Y017167D01*
X026624Y017191D01*
X026578Y017203D01*
X026307Y017203D01*
X026307Y016815D01*
X026212Y016815D01*
X026212Y017203D01*
X025941Y017203D01*
X025895Y017191D01*
X025854Y017167D01*
X025820Y017134D01*
X025797Y017093D01*
X025784Y017047D01*
X025784Y016815D01*
X026212Y016815D01*
X026212Y016719D01*
X025784Y016719D01*
X025784Y016593D01*
X024891Y016593D01*
X024819Y016767D01*
X024633Y016953D01*
X024391Y017053D01*
X024128Y017053D01*
X023886Y016953D01*
X023700Y016767D01*
X023600Y016525D01*
X023600Y016262D01*
X023700Y016019D01*
X023886Y015834D01*
X024128Y015733D01*
X024391Y015733D01*
X024633Y015834D01*
X024819Y016019D01*
X024891Y016193D01*
X025803Y016193D01*
X025804Y016192D01*
X025804Y015735D01*
X025460Y015390D01*
X025459Y015390D01*
X025460Y015390D02*
X025396Y015453D01*
X021996Y015453D01*
X020846Y016603D01*
X020832Y016603D01*
X020575Y016861D01*
X020575Y016956D01*
X020527Y017072D01*
X020438Y017160D01*
X020322Y017208D01*
X020197Y017208D01*
X020081Y017160D01*
X019992Y017072D01*
X019945Y016956D01*
X019945Y016831D01*
X019992Y016715D01*
X020081Y016626D01*
X020197Y016578D01*
X020292Y016578D01*
X020550Y016320D01*
X020550Y016306D01*
X021700Y015156D01*
X021823Y015033D01*
X024641Y015033D01*
X024593Y014985D01*
X024541Y014861D01*
X024541Y014726D01*
X024593Y014602D01*
X024670Y014525D01*
X024670Y014388D01*
X024637Y014355D01*
X024637Y013908D01*
X024731Y013814D01*
X025226Y013814D01*
X025239Y013806D01*
X025285Y013794D01*
X025387Y013794D01*
X025387Y014131D01*
X025387Y014131D01*
X025387Y013794D01*
X025490Y013794D01*
X025536Y013806D01*
X025549Y013814D01*
X025788Y013814D01*
X025882Y013908D01*
X025882Y014355D01*
X025788Y014449D01*
X025549Y014449D01*
X025536Y014457D01*
X025490Y014469D01*
X025387Y014469D01*
X025382Y014469D01*
X025546Y014633D01*
X025670Y014756D01*
X025670Y015006D01*
X026267Y015603D01*
X026621Y015603D01*
X026715Y015697D01*
X026715Y016037D01*
X026851Y016173D01*
X026980Y016302D01*
X026980Y016802D01*
X027351Y017173D01*
X027364Y017173D01*
X027354Y017167D01*
X027320Y017134D01*
X027297Y017093D01*
X027284Y017047D01*
X027284Y016815D01*
X027712Y016815D01*
X027712Y016719D01*
X027284Y016719D01*
X027284Y016488D01*
X027297Y016442D01*
X027320Y016401D01*
X027342Y016379D01*
X027304Y016341D01*
X026980Y016341D01*
X026980Y016500D02*
X027284Y016500D01*
X027284Y016658D02*
X026980Y016658D01*
X026994Y016817D02*
X027284Y016817D01*
X027284Y016975D02*
X027153Y016975D01*
X027311Y017134D02*
X027320Y017134D01*
X027006Y017451D02*
X018900Y017451D01*
X019059Y017609D02*
X021122Y017609D01*
X021081Y017626D02*
X021197Y017578D01*
X021322Y017578D01*
X021438Y017626D01*
X021527Y017715D01*
X021575Y017831D01*
X021575Y017911D01*
X021846Y018183D01*
X026724Y018183D01*
X026781Y018126D01*
X026897Y018078D01*
X027022Y018078D01*
X027138Y018126D01*
X027227Y018215D01*
X027275Y018331D01*
X027275Y018456D01*
X027227Y018572D01*
X027138Y018660D01*
X027022Y018708D01*
X026897Y018708D01*
X026781Y018660D01*
X026724Y018603D01*
X021846Y018603D01*
X021673Y018603D01*
X021278Y018208D01*
X021197Y018208D01*
X021081Y018160D01*
X020992Y018072D01*
X020945Y017956D01*
X020945Y017831D01*
X020992Y017715D01*
X021081Y017626D01*
X020971Y017768D02*
X019217Y017768D01*
X019376Y017926D02*
X020945Y017926D01*
X021006Y018085D02*
X019420Y018085D01*
X019420Y017970D02*
X019420Y018208D01*
X019477Y018265D01*
X019525Y018381D01*
X019525Y018506D01*
X019477Y018622D01*
X019388Y018710D01*
X019272Y018758D01*
X019147Y018758D01*
X019031Y018710D01*
X018942Y018622D01*
X018895Y018506D01*
X018895Y018381D01*
X018942Y018265D01*
X019000Y018208D01*
X019000Y018144D01*
X018298Y017443D01*
X018298Y017511D01*
X018246Y017635D01*
X018151Y017730D01*
X018060Y017768D01*
X018623Y017768D01*
X018782Y017926D02*
X018060Y017926D01*
X018060Y017768D02*
X018060Y018176D01*
X017942Y018293D01*
X017292Y018943D01*
X016727Y018943D01*
X016610Y018826D01*
X016450Y018667D01*
X016410Y018707D01*
X016369Y018730D01*
X016354Y018734D01*
X016254Y018834D01*
X016169Y018920D01*
X016727Y019478D01*
X016822Y019478D01*
X016938Y019526D01*
X017027Y019615D01*
X017075Y019731D01*
X017075Y019856D01*
X017027Y019972D01*
X017005Y019993D01*
X018110Y019993D01*
X018095Y019956D01*
X018095Y019831D01*
X018142Y019715D01*
X018231Y019626D01*
X018347Y019578D01*
X018472Y019578D01*
X018588Y019626D01*
X018655Y019693D01*
X022114Y019693D01*
X022181Y019626D01*
X022297Y019578D01*
X022422Y019578D01*
X022538Y019626D01*
X022627Y019715D01*
X022675Y019831D01*
X022675Y019956D01*
X022659Y019993D01*
X029642Y019993D01*
X029960Y020310D01*
X029960Y020398D01*
X030027Y020465D01*
X030075Y020581D01*
X030075Y020706D01*
X030027Y020822D01*
X029938Y020910D01*
X029822Y020958D01*
X029697Y020958D01*
X029581Y020910D01*
X029492Y020822D01*
X029445Y020706D01*
X029445Y020581D01*
X029492Y020465D01*
X029520Y020437D01*
X029477Y020393D01*
X028542Y020393D01*
X028704Y020555D01*
X028827Y020555D01*
X028951Y020606D01*
X029046Y020702D01*
X029098Y020826D01*
X029098Y020961D01*
X029046Y021085D01*
X028951Y021180D01*
X028827Y021232D01*
X028692Y021232D01*
X028568Y021180D01*
X028473Y021085D01*
X028421Y020961D01*
X028421Y020838D01*
X028177Y020593D01*
X025259Y020593D01*
X025275Y020631D01*
X025275Y020756D01*
X025238Y020843D01*
X027342Y020843D01*
X027727Y021228D01*
X027822Y021228D01*
X027938Y021276D01*
X028027Y021365D01*
X028075Y021481D01*
X028075Y021606D01*
X028027Y021722D01*
X027938Y021810D01*
X027822Y021858D01*
X027697Y021858D01*
X027581Y021810D01*
X027492Y021722D01*
X027445Y021606D01*
X027445Y021511D01*
X027177Y021243D01*
X026492Y021243D01*
X026727Y021478D01*
X026822Y021478D01*
X026938Y021526D01*
X027027Y021615D01*
X027075Y021731D01*
X027075Y021856D01*
X027027Y021972D01*
X026938Y022060D01*
X026822Y022108D01*
X026697Y022108D01*
X026581Y022060D01*
X026492Y021972D01*
X026445Y021856D01*
X026445Y021761D01*
X026277Y021593D01*
X024438Y021593D01*
X024475Y021681D01*
X024475Y021806D01*
X024459Y021843D01*
X025714Y021843D01*
X025781Y021776D01*
X025897Y021728D01*
X026022Y021728D01*
X026138Y021776D01*
X026227Y021865D01*
X026275Y021981D01*
X026275Y022106D01*
X026227Y022222D01*
X026138Y022310D01*
X026022Y022358D01*
X025897Y022358D01*
X025781Y022310D01*
X025714Y022243D01*
X018955Y022243D01*
X018888Y022310D01*
X018772Y022358D01*
X018647Y022358D01*
X018531Y022310D01*
X018442Y022222D01*
X018395Y022106D01*
X018395Y021981D01*
X018410Y021943D01*
X016797Y021943D01*
X016806Y021976D01*
X016806Y022316D01*
X016388Y022316D01*
X016388Y022471D01*
X016806Y022471D01*
X016806Y022811D01*
X016793Y022856D01*
X016770Y022898D01*
X016736Y022931D01*
X016715Y022943D01*
X022964Y022943D01*
X023031Y022876D01*
X023147Y022828D01*
X023272Y022828D01*
X023388Y022876D01*
X023477Y022965D01*
X023525Y023081D01*
X023525Y023206D01*
X023509Y023243D01*
X024014Y023243D01*
X024081Y023176D01*
X024197Y023128D01*
X024322Y023128D01*
X024438Y023176D01*
X024527Y023265D01*
X024575Y023381D01*
X024575Y023506D01*
X024527Y023622D01*
X024438Y023710D01*
X024322Y023758D01*
X024197Y023758D01*
X024081Y023710D01*
X024014Y023643D01*
X022938Y023643D01*
X022975Y023731D01*
X022975Y023825D01*
X023892Y024743D01*
X025158Y024743D01*
X025148Y024727D01*
X025136Y024681D01*
X025136Y024420D01*
X025632Y024420D01*
X025632Y024265D01*
X025136Y024265D01*
X025136Y024003D01*
X025148Y023958D01*
X025172Y023917D01*
X025205Y023883D01*
X025246Y023859D01*
X025292Y023847D01*
X025632Y023847D01*
X025632Y024265D01*
X025787Y024265D01*
X025787Y024420D01*
X026283Y024420D01*
X026283Y024681D01*
X026271Y024727D01*
X026261Y024743D01*
X026813Y024743D01*
X026673Y024603D01*
X026550Y024480D01*
X026550Y023766D01*
X026427Y023643D01*
X025155Y023643D01*
X025088Y023710D01*
X024972Y023758D01*
X024847Y023758D01*
X024731Y023710D01*
X024642Y023622D01*
X024595Y023506D01*
X024595Y023381D01*
X024642Y023265D01*
X024731Y023176D01*
X024847Y023128D01*
X024972Y023128D01*
X025088Y023176D01*
X025155Y023243D01*
X026592Y023243D01*
X026832Y023483D01*
X026846Y023483D01*
X026970Y023606D01*
X026970Y023710D01*
X027047Y023678D01*
X027172Y023678D01*
X027221Y023699D01*
X027263Y023657D01*
X027260Y023655D01*
X027227Y023622D01*
X027203Y023581D01*
X027191Y023535D01*
X027191Y023393D01*
X027191Y023251D01*
X027203Y023206D01*
X027227Y023165D01*
X027260Y023131D01*
X027301Y023107D01*
X027347Y023095D01*
X027607Y023095D01*
X027607Y023393D01*
X027607Y023393D01*
X027191Y023393D01*
X027607Y023393D01*
X027607Y023393D01*
X027607Y023095D01*
X027867Y023095D01*
X027913Y023107D01*
X027954Y023131D01*
X027987Y023165D01*
X028011Y023206D01*
X028023Y023251D01*
X028023Y023393D01*
X027607Y023393D01*
X027607Y023393D01*
X028023Y023393D01*
X028023Y023535D01*
X028011Y023581D01*
X027987Y023622D01*
X027954Y023655D01*
X027951Y023657D01*
X028003Y023709D01*
X028003Y024078D01*
X027938Y024143D01*
X028003Y024209D01*
X028003Y024578D01*
X027938Y024643D01*
X028003Y024709D01*
X028003Y025078D01*
X027938Y025143D01*
X028003Y025209D01*
X028003Y025578D01*
X027938Y025643D01*
X028003Y025709D01*
X028003Y026078D01*
X027938Y026143D01*
X027968Y026173D01*
X028212Y026173D01*
X028181Y026160D01*
X028092Y026072D01*
X028045Y025956D01*
X028045Y025831D01*
X028092Y025715D01*
X028181Y025626D01*
X028297Y025578D01*
X028422Y025578D01*
X028538Y025626D01*
X028585Y025673D01*
X029451Y025673D01*
X029481Y025643D01*
X029416Y025578D01*
X029416Y025209D01*
X029481Y025143D01*
X029416Y025078D01*
X029416Y024709D01*
X029481Y024643D01*
X029416Y024578D01*
X029416Y024209D01*
X029481Y024143D01*
X029416Y024078D01*
X029416Y023709D01*
X029481Y023643D01*
X029468Y023630D01*
X029438Y023660D01*
X029322Y023708D01*
X029197Y023708D01*
X029081Y023660D01*
X028992Y023572D01*
X028945Y023456D01*
X028945Y023331D01*
X028992Y023215D01*
X029081Y023126D01*
X029197Y023078D01*
X029322Y023078D01*
X029438Y023126D01*
X029468Y023156D01*
X029509Y023115D01*
X030114Y023115D01*
X030208Y023209D01*
X030208Y023578D01*
X030142Y023643D01*
X030208Y023709D01*
X030208Y024078D01*
X030142Y024143D01*
X030172Y024173D01*
X031520Y024173D01*
X031499Y024145D01*
X031465Y024078D01*
X031441Y024006D01*
X031430Y023931D01*
X031430Y023913D01*
X032190Y023913D01*
X032190Y024373D01*
X032001Y024373D01*
X032061Y024433D01*
X032601Y024433D01*
X032770Y024503D01*
X032899Y024633D01*
X032970Y024802D01*
X032970Y024985D01*
X032899Y025154D01*
X032770Y025283D01*
X032601Y025353D01*
X031981Y025353D01*
X032061Y025433D01*
X032601Y025433D01*
X032770Y025503D01*
X032899Y025633D01*
X032970Y025802D01*
X032970Y025985D01*
X032899Y026154D01*
X032770Y026283D01*
X032601Y026353D01*
X031818Y026353D01*
X031649Y026283D01*
X031520Y026154D01*
X031450Y025985D01*
X031450Y025802D01*
X031520Y025633D01*
X031579Y025574D01*
X031118Y025113D01*
X030172Y025113D01*
X030142Y025143D01*
X030208Y025209D01*
X030208Y025223D01*
X030701Y025223D01*
X030830Y025352D01*
X031082Y025605D01*
X031177Y025605D01*
X031301Y025656D01*
X031396Y025752D01*
X031448Y025876D01*
X031448Y026011D01*
X031396Y026135D01*
X031301Y026230D01*
X031177Y026282D01*
X031042Y026282D01*
X030918Y026230D01*
X030823Y026135D01*
X030771Y026011D01*
X030771Y025916D01*
X030518Y025663D01*
X030162Y025663D01*
X030208Y025709D01*
X030208Y026078D01*
X030142Y026143D01*
X030208Y026209D01*
X030208Y026555D01*
X030277Y026555D01*
X030401Y026606D01*
X030496Y026702D01*
X030548Y026826D01*
X030548Y026961D01*
X031450Y026961D01*
X031450Y026985D02*
X031450Y026802D01*
X031520Y026633D01*
X031649Y026503D01*
X031818Y026433D01*
X032601Y026433D01*
X032770Y026503D01*
X032899Y026633D01*
X032970Y026802D01*
X032970Y026985D01*
X032899Y027154D01*
X032770Y027283D01*
X032601Y027353D01*
X031818Y027353D01*
X031649Y027283D01*
X031520Y027154D01*
X031450Y026985D01*
X031505Y027119D02*
X030462Y027119D01*
X030496Y027085D02*
X030401Y027180D01*
X030277Y027232D01*
X030142Y027232D01*
X030018Y027180D01*
X029923Y027085D01*
X029871Y026961D01*
X025851Y026961D01*
X025848Y026963D02*
X021325Y026963D01*
X021355Y026993D01*
X025692Y026993D01*
X025727Y027028D01*
X025822Y027028D01*
X025938Y027076D01*
X026027Y027165D01*
X026075Y027281D01*
X026075Y027406D01*
X026027Y027522D01*
X026025Y027523D01*
X032818Y027523D01*
X033195Y027147D01*
X033195Y027081D01*
X033242Y026965D01*
X033331Y026876D01*
X033447Y026828D01*
X033572Y026828D01*
X033688Y026876D01*
X033777Y026965D01*
X033825Y027081D01*
X033825Y027206D01*
X033777Y027322D01*
X033688Y027410D01*
X033572Y027458D01*
X033506Y027458D01*
X033001Y027963D01*
X030417Y027963D01*
X030425Y027981D01*
X030425Y028106D01*
X030377Y028222D01*
X030288Y028310D01*
X030172Y028358D01*
X030047Y028358D01*
X029931Y028310D01*
X029884Y028263D01*
X028547Y028263D01*
X028575Y028331D01*
X028575Y028456D01*
X028527Y028572D01*
X028438Y028660D01*
X028322Y028708D01*
X028256Y028708D01*
X028251Y028713D01*
X028030Y028713D01*
X028149Y028833D01*
X028220Y029002D01*
X028220Y029785D01*
X028149Y029954D01*
X028020Y030083D01*
X027851Y030153D01*
X027668Y030153D01*
X027499Y030083D01*
X027370Y029954D01*
X027300Y029785D01*
X027300Y029002D01*
X027370Y028833D01*
X027489Y028713D01*
X027030Y028713D01*
X027149Y028833D01*
X027220Y029002D01*
X027220Y029785D01*
X027149Y029954D01*
X027020Y030083D01*
X026851Y030153D01*
X026668Y030153D01*
X026499Y030083D01*
X026370Y029954D01*
X026300Y029785D01*
X026300Y029002D01*
X026370Y028833D01*
X026489Y028713D01*
X026030Y028713D01*
X026149Y028833D01*
X026220Y029002D01*
X026220Y029785D01*
X026149Y029954D01*
X026020Y030083D01*
X025851Y030153D01*
X025668Y030153D01*
X025499Y030083D01*
X025370Y029954D01*
X025300Y029785D01*
X025300Y029002D01*
X025370Y028833D01*
X025489Y028713D01*
X025030Y028713D01*
X025149Y028833D01*
X025220Y029002D01*
X025220Y029785D01*
X025149Y029954D01*
X025020Y030083D01*
X024851Y030153D01*
X024668Y030153D01*
X024499Y030083D01*
X024370Y029954D01*
X024300Y029785D01*
X024300Y029002D01*
X024370Y028833D01*
X024489Y028713D01*
X024030Y028713D01*
X024149Y028833D01*
X024220Y029002D01*
X024220Y029785D01*
X024149Y029954D01*
X024020Y030083D01*
X023851Y030153D01*
X023668Y030153D01*
X023499Y030083D01*
X023370Y029954D01*
X023300Y029785D01*
X023300Y029002D01*
X023370Y028833D01*
X023489Y028713D01*
X023030Y028713D01*
X023149Y028833D01*
X023220Y029002D01*
X023220Y029785D01*
X023149Y029954D01*
X023020Y030083D01*
X022851Y030153D01*
X022668Y030153D01*
X022499Y030083D01*
X022370Y029954D01*
X022300Y029785D01*
X022300Y029002D01*
X022370Y028833D01*
X022489Y028713D01*
X022030Y028713D01*
X022149Y028833D01*
X022220Y029002D01*
X022220Y029785D01*
X022149Y029954D01*
X022140Y029963D01*
X022351Y030173D01*
X031618Y030173D01*
X031895Y029897D01*
X031895Y029831D01*
X031942Y029715D01*
X032031Y029626D01*
X032147Y029578D01*
X032272Y029578D01*
X032388Y029626D01*
X032477Y029715D01*
X032525Y029831D01*
X032525Y029956D01*
X032477Y030072D01*
X032388Y030160D01*
X032272Y030208D01*
X032206Y030208D01*
X031801Y030613D01*
X022168Y030613D01*
X021760Y030204D01*
X021351Y030613D01*
X018407Y030613D01*
X018438Y030626D01*
X018527Y030715D01*
X018575Y030831D01*
X018575Y030956D01*
X018547Y031023D01*
X030401Y031023D01*
X030468Y030956D01*
X030592Y030905D01*
X030727Y030905D01*
X030851Y030956D01*
X030946Y031052D01*
X030998Y031176D01*
X030998Y031311D01*
X030946Y031435D01*
X030851Y031530D01*
X030727Y031582D01*
X030592Y031582D01*
X030468Y031530D01*
X030401Y031463D01*
X009785Y031463D01*
X009738Y031510D01*
X009622Y031558D01*
X009497Y031558D01*
X009381Y031510D01*
X009292Y031422D01*
X009245Y031306D01*
X009245Y031181D01*
X009292Y031065D01*
X009381Y030976D01*
X009497Y030928D01*
X009622Y030928D01*
X009738Y030976D01*
X009785Y031023D01*
X011972Y031023D01*
X011945Y030956D01*
X011945Y030831D01*
X011952Y030813D01*
X007618Y030813D01*
X007168Y030363D01*
X007040Y030234D01*
X007040Y030100D01*
X006999Y030083D01*
X006870Y029954D01*
X006800Y029785D01*
X006800Y029002D01*
X006870Y028833D01*
X006999Y028703D01*
X007168Y028633D01*
X007351Y028633D01*
X007392Y028650D01*
X007498Y028543D01*
X007040Y028084D01*
X007040Y027902D01*
X007060Y027882D01*
X007060Y027876D01*
X006981Y027798D01*
X006981Y027193D01*
X007075Y027099D01*
X007444Y027099D01*
X007510Y027165D01*
X007540Y027135D01*
X007540Y026484D01*
X007168Y026113D01*
X006074Y026113D01*
X005974Y026214D01*
X005835Y026271D01*
X005684Y026271D01*
X005546Y026214D01*
X005439Y026107D01*
X005382Y025968D01*
X005382Y025818D01*
X005439Y025679D01*
X005546Y025573D01*
X005684Y025516D01*
X005835Y025516D01*
X005974Y025573D01*
X006074Y025673D01*
X007061Y025673D01*
X006981Y025593D01*
X006981Y025324D01*
X006853Y025196D01*
X006822Y025208D01*
X006697Y025208D01*
X006581Y025160D01*
X006492Y025072D01*
X006445Y024956D01*
X006445Y024831D01*
X006492Y024715D01*
X006581Y024626D01*
X006612Y024613D01*
X004668Y024613D01*
X004540Y024484D01*
X004240Y024184D01*
X004240Y024180D01*
X004240Y024180D01*
X004240Y032393D01*
X012767Y032393D01*
X012871Y032212D01*
X013078Y032005D01*
X013331Y031859D01*
X013613Y031783D01*
X013906Y031783D01*
X014188Y031859D01*
X014441Y032005D01*
X014648Y032212D01*
X014752Y032393D01*
X024767Y032393D01*
X024871Y032212D01*
X025078Y032005D01*
X025331Y031859D01*
X025613Y031783D01*
X025906Y031783D01*
X026188Y031859D01*
X026441Y032005D01*
X026648Y032212D01*
X026752Y032393D01*
X035297Y032393D01*
X035250Y002824D01*
X026720Y002837D01*
X026794Y002965D01*
X026869Y003247D01*
X026869Y003539D01*
X026794Y003822D01*
X026648Y004075D01*
X026441Y004281D01*
X026188Y004428D01*
X025906Y004503D01*
X025613Y004503D01*
X025331Y004428D01*
X025078Y004281D01*
X024871Y004075D01*
X024725Y003822D01*
X024650Y003539D01*
X024650Y003247D01*
X024725Y002965D01*
X024797Y002840D01*
X014731Y002856D01*
X014794Y002965D01*
X014869Y003247D01*
X014869Y003539D01*
X014794Y003822D01*
X014648Y004075D01*
X014441Y004281D01*
X014188Y004428D01*
X014035Y004468D01*
X014149Y004583D01*
X014220Y004752D01*
X014220Y005535D01*
X014149Y005704D01*
X014020Y005833D01*
X013851Y005903D01*
X013668Y005903D01*
X013499Y005833D01*
X013370Y005704D01*
X013300Y005535D01*
X013300Y004752D01*
X013370Y004583D01*
X013484Y004468D01*
X013331Y004428D01*
X013078Y004281D01*
X012871Y004075D01*
X012725Y003822D01*
X012650Y003539D01*
X012650Y003247D01*
X012725Y002965D01*
X012786Y002859D01*
X004240Y002873D01*
X004240Y010435D01*
X004268Y010406D01*
X004392Y010355D01*
X004487Y010355D01*
X005490Y009352D01*
X005618Y009223D01*
X006172Y009223D01*
X006068Y009180D01*
X005973Y009085D01*
X005921Y008961D01*
X005921Y008826D01*
X005973Y008702D01*
X006040Y008635D01*
X006040Y006100D01*
X005999Y006083D01*
X005870Y005954D01*
X005800Y005785D01*
X005800Y005002D01*
X005870Y004833D01*
X005999Y004703D01*
X006168Y004633D01*
X006351Y004633D01*
X006520Y004703D01*
X006649Y004833D01*
X006720Y005002D01*
X006720Y005785D01*
X006649Y005954D01*
X006520Y006083D01*
X006480Y006100D01*
X006480Y008635D01*
X006546Y008702D01*
X006598Y008826D01*
X006598Y008961D01*
X006546Y009085D01*
X006451Y009180D01*
X006347Y009223D01*
X006828Y009223D01*
X007580Y008472D01*
X007580Y007732D01*
X008380Y006932D01*
X008508Y006803D01*
X010611Y006803D01*
X012171Y008363D01*
X012181Y008363D01*
X012196Y008378D01*
X012262Y008378D01*
X012378Y008426D01*
X012467Y008515D01*
X012515Y008631D01*
X012515Y008756D01*
X012467Y008872D01*
X012465Y008873D01*
X013068Y008873D01*
X013371Y008571D01*
X013371Y008476D01*
X013423Y008352D01*
X013518Y008256D01*
X013642Y008205D01*
X013777Y008205D01*
X013901Y008256D01*
X013996Y008352D01*
X014048Y008476D01*
X014048Y008611D01*
X013996Y008735D01*
X013901Y008830D01*
X013777Y008882D01*
X013682Y008882D01*
X013380Y009184D01*
X013380Y009184D01*
X013271Y009293D01*
X015648Y009293D01*
X015540Y009184D01*
X015540Y009170D01*
X015351Y008982D01*
X015242Y008982D01*
X015118Y008930D01*
X015023Y008835D01*
X014971Y008711D01*
X014971Y008576D01*
X015023Y008452D01*
X015100Y008375D01*
X015100Y008158D01*
X014918Y008158D01*
X014825Y008065D01*
X014825Y007222D01*
X014918Y007128D01*
X015681Y007128D01*
X015775Y007222D01*
X015775Y008065D01*
X015681Y008158D01*
X015520Y008158D01*
X015520Y008375D01*
X015596Y008452D01*
X015648Y008576D01*
X015648Y008685D01*
X015836Y008873D01*
X020468Y008873D01*
X021999Y007342D01*
X021999Y006758D01*
X021838Y006758D01*
X021744Y006665D01*
X021744Y005822D01*
X021838Y005728D01*
X022601Y005728D01*
X022694Y005822D01*
X022694Y006665D01*
X022601Y006758D01*
X022439Y006758D01*
X022439Y007525D01*
X020780Y009184D01*
X020671Y009293D01*
X021777Y009293D01*
X023010Y008060D01*
X023127Y007943D01*
X023764Y007943D01*
X023831Y007876D01*
X023947Y007828D01*
X024072Y007828D01*
X024188Y007876D01*
X024277Y007965D01*
X024325Y008081D01*
X024325Y008206D01*
X024277Y008322D01*
X024188Y008410D01*
X024072Y008458D01*
X023947Y008458D01*
X023831Y008410D01*
X023764Y008343D01*
X023292Y008343D01*
X021962Y009673D01*
X024284Y009673D01*
X024331Y009626D01*
X024447Y009578D01*
X024572Y009578D01*
X024688Y009626D01*
X024777Y009715D01*
X024825Y009831D01*
X024825Y009956D01*
X024792Y010033D01*
X030696Y010033D01*
X031683Y011020D01*
X031699Y011003D01*
X031868Y010933D01*
X032651Y010933D01*
X032820Y011003D01*
X032949Y011133D01*
X033020Y011302D01*
X033020Y011485D01*
X032949Y011654D01*
X032820Y011783D01*
X032651Y011853D01*
X031868Y011853D01*
X031699Y011783D01*
X031570Y011654D01*
X031500Y011485D01*
X031500Y011430D01*
X030523Y010453D01*
X021113Y010453D01*
X021125Y010481D01*
X021125Y010606D01*
X021077Y010722D01*
X021065Y010733D01*
X021524Y010733D01*
X021581Y010676D01*
X021697Y010628D01*
X021822Y010628D01*
X021938Y010676D01*
X022027Y010765D01*
X022075Y010881D01*
X022075Y011006D01*
X022027Y011122D01*
X021938Y011210D01*
X021822Y011258D01*
X021697Y011258D01*
X021581Y011210D01*
X021524Y011153D01*
X020566Y011153D01*
X020751Y011338D01*
X020832Y011338D01*
X020948Y011386D01*
X021037Y011475D01*
X021085Y011591D01*
X021085Y011716D01*
X021037Y011832D01*
X020948Y011920D01*
X020832Y011968D01*
X020707Y011968D01*
X020591Y011920D01*
X020502Y011832D01*
X020455Y011716D01*
X020455Y011635D01*
X020273Y011453D01*
X019862Y011453D01*
X019895Y011531D01*
X019895Y011656D01*
X019847Y011772D01*
X019758Y011860D01*
X019642Y011908D01*
X019517Y011908D01*
X019440Y011876D01*
X019475Y011961D01*
X019475Y012086D01*
X019427Y012202D01*
X019338Y012290D01*
X019222Y012338D01*
X019097Y012338D01*
X018981Y012290D01*
X018914Y012223D01*
X018801Y012223D01*
X018808Y012226D01*
X018897Y012315D01*
X018945Y012431D01*
X018945Y012556D01*
X018897Y012672D01*
X018808Y012760D01*
X018692Y012808D01*
X018627Y012808D01*
X018152Y013284D01*
X018158Y013286D01*
X018247Y013375D01*
X018276Y013447D01*
X018297Y013438D01*
X018422Y013438D01*
X018538Y013486D01*
X018627Y013575D01*
X018675Y013691D01*
X018675Y013816D01*
X018627Y013932D01*
X018538Y014020D01*
X018422Y014068D01*
X018327Y014068D01*
X018302Y014093D01*
X018292Y014093D01*
X017844Y014542D01*
X017923Y014621D01*
X017923Y014621D01*
X018035Y014733D01*
X018176Y014874D01*
X018310Y015009D01*
X018411Y015109D01*
X022095Y011425D01*
X022095Y011331D01*
X022142Y011215D01*
X022231Y011126D01*
X022347Y011078D01*
X022472Y011078D01*
X022588Y011126D01*
X022645Y011183D01*
X022645Y011181D01*
X022692Y011065D01*
X022781Y010976D01*
X022897Y010928D01*
X023022Y010928D01*
X023138Y010976D01*
X023227Y011065D01*
X023275Y011181D01*
X023275Y011306D01*
X023259Y011344D01*
X023338Y011376D01*
X023427Y011465D01*
X023475Y011581D01*
X023475Y011706D01*
X023427Y011822D01*
X023338Y011910D01*
X023222Y011958D01*
X023127Y011958D01*
X019175Y015911D01*
X019175Y016006D01*
X019127Y016122D01*
X019038Y016210D01*
X018922Y016258D01*
X018797Y016258D01*
X018681Y016210D01*
X018592Y016122D01*
X018573Y016075D01*
X018538Y016110D01*
X018422Y016158D01*
X018297Y016158D01*
X018181Y016110D01*
X018092Y016022D01*
X018084Y016002D01*
X018047Y016039D01*
X018482Y016474D01*
X018482Y016607D01*
X018347Y016741D01*
X018269Y016820D01*
X019420Y017970D01*
X019455Y018243D02*
X021313Y018243D01*
X021471Y018402D02*
X019525Y018402D01*
X019502Y018560D02*
X021630Y018560D01*
X021748Y018085D02*
X026881Y018085D01*
X027038Y018085D02*
X029175Y018085D01*
X029017Y017926D02*
X021590Y017926D01*
X021548Y017768D02*
X028618Y017768D01*
X028645Y017173D02*
X028155Y017173D01*
X028165Y017167D01*
X028199Y017134D01*
X028223Y017093D01*
X028235Y017047D01*
X028235Y016815D01*
X027807Y016815D01*
X027807Y016719D01*
X028235Y016719D01*
X028235Y016488D01*
X028223Y016442D01*
X028199Y016401D01*
X028177Y016379D01*
X028215Y016341D01*
X028617Y016341D01*
X028617Y016183D02*
X028215Y016183D01*
X028215Y016341D02*
X028215Y015913D01*
X028420Y015913D01*
X028617Y016110D01*
X028617Y016664D01*
X028711Y016758D01*
X029060Y016758D01*
X029063Y016755D01*
X029082Y016766D01*
X029128Y016778D01*
X029260Y016778D01*
X029260Y016382D01*
X029260Y016382D01*
X029260Y016778D01*
X029391Y016778D01*
X029437Y016766D01*
X029456Y016755D01*
X029459Y016758D01*
X029808Y016758D01*
X029902Y016664D01*
X029902Y016424D01*
X029963Y016363D01*
X030390Y016363D01*
X030401Y016375D01*
X030401Y016465D01*
X030456Y016596D01*
X030533Y016673D01*
X030368Y016673D01*
X030287Y016755D01*
X030192Y016755D01*
X030068Y016806D01*
X029973Y016902D01*
X029921Y017026D01*
X029921Y017161D01*
X029973Y017285D01*
X030068Y017380D01*
X030192Y017432D01*
X030327Y017432D01*
X030451Y017380D01*
X030546Y017285D01*
X030598Y017161D01*
X030598Y017113D01*
X031553Y017113D01*
X031570Y017154D01*
X031699Y017283D01*
X031868Y017353D01*
X032651Y017353D01*
X032820Y017283D01*
X032949Y017154D01*
X033020Y016985D01*
X033020Y016802D01*
X032949Y016633D01*
X032820Y016503D01*
X032651Y016433D01*
X031868Y016433D01*
X031699Y016503D01*
X031570Y016633D01*
X031553Y016673D01*
X030986Y016673D01*
X031063Y016596D01*
X031118Y016465D01*
X031118Y016322D01*
X031063Y016190D01*
X030962Y016090D01*
X030831Y016035D01*
X030741Y016035D01*
X030645Y015940D01*
X030557Y015903D01*
X030462Y015903D01*
X030413Y015923D01*
X030051Y015923D01*
X029701Y015573D01*
X029068Y015573D01*
X028940Y015702D01*
X028885Y015756D01*
X028603Y015473D01*
X027968Y015473D01*
X027840Y015602D01*
X027838Y015603D01*
X027398Y015603D01*
X027304Y015697D01*
X027304Y016341D01*
X027304Y016183D02*
X026860Y016183D01*
X026715Y016024D02*
X027304Y016024D01*
X027304Y015866D02*
X026715Y015866D01*
X026715Y015707D02*
X027304Y015707D01*
X027893Y015549D02*
X026212Y015549D01*
X026054Y015390D02*
X035270Y015390D01*
X035270Y015232D02*
X025895Y015232D01*
X025737Y015073D02*
X035270Y015073D01*
X035270Y014915D02*
X025670Y014915D01*
X025670Y014756D02*
X035269Y014756D01*
X035269Y014598D02*
X025511Y014598D01*
X025387Y014469D02*
X025387Y014132D01*
X025387Y014469D01*
X025387Y014439D02*
X025387Y014439D01*
X025387Y014281D02*
X025387Y014281D01*
X025387Y014132D02*
X025387Y014132D01*
X025387Y014122D02*
X025387Y014122D01*
X025387Y013964D02*
X025387Y013964D01*
X025387Y013805D02*
X025387Y013805D01*
X025243Y013805D02*
X021280Y013805D01*
X021122Y013964D02*
X024637Y013964D01*
X024637Y014122D02*
X020963Y014122D01*
X020805Y014281D02*
X024637Y014281D01*
X024670Y014439D02*
X020646Y014439D01*
X020488Y014598D02*
X024596Y014598D01*
X024541Y014756D02*
X020329Y014756D01*
X020171Y014915D02*
X024564Y014915D01*
X024665Y015866D02*
X025804Y015866D01*
X025804Y016024D02*
X024821Y016024D01*
X024887Y016183D02*
X025804Y016183D01*
X025784Y016658D02*
X024864Y016658D01*
X024769Y016817D02*
X025784Y016817D01*
X025784Y016975D02*
X024579Y016975D01*
X023940Y016975D02*
X020566Y016975D01*
X020619Y016817D02*
X023750Y016817D01*
X023655Y016658D02*
X020777Y016658D01*
X020950Y016500D02*
X023600Y016500D01*
X023600Y016341D02*
X021108Y016341D01*
X021267Y016183D02*
X023632Y016183D01*
X023698Y016024D02*
X021425Y016024D01*
X021584Y015866D02*
X023854Y015866D01*
X025618Y015549D02*
X021901Y015549D01*
X021742Y015707D02*
X025777Y015707D01*
X026212Y016817D02*
X026307Y016817D01*
X026307Y016975D02*
X026212Y016975D01*
X026212Y017134D02*
X026307Y017134D01*
X025820Y017134D02*
X020464Y017134D01*
X020055Y017134D02*
X018583Y017134D01*
X018742Y017292D02*
X026847Y017292D01*
X027164Y017609D02*
X021397Y017609D01*
X020370Y016500D02*
X018482Y016500D01*
X018430Y016658D02*
X020049Y016658D01*
X019950Y016817D02*
X018272Y016817D01*
X018425Y016975D02*
X019953Y016975D01*
X020529Y016341D02*
X018349Y016341D01*
X018191Y016183D02*
X018654Y016183D01*
X019065Y016183D02*
X020673Y016183D01*
X020832Y016024D02*
X019167Y016024D01*
X019220Y015866D02*
X020990Y015866D01*
X021149Y015707D02*
X019378Y015707D01*
X019537Y015549D02*
X021307Y015549D01*
X021466Y015390D02*
X019695Y015390D01*
X019854Y015232D02*
X021624Y015232D01*
X021783Y015073D02*
X020012Y015073D01*
X019239Y014281D02*
X018105Y014281D01*
X017946Y014439D02*
X019081Y014439D01*
X018922Y014598D02*
X017900Y014598D01*
X018058Y014756D02*
X018764Y014756D01*
X018605Y014915D02*
X018217Y014915D01*
X018176Y014874D02*
X018176Y014874D01*
X018375Y015073D02*
X018447Y015073D01*
X018263Y014122D02*
X019398Y014122D01*
X019556Y013964D02*
X018594Y013964D01*
X018675Y013805D02*
X019715Y013805D01*
X019873Y013647D02*
X018656Y013647D01*
X018540Y013488D02*
X020032Y013488D01*
X020190Y013330D02*
X018202Y013330D01*
X018264Y013171D02*
X020349Y013171D01*
X020507Y013013D02*
X018423Y013013D01*
X018581Y012854D02*
X020666Y012854D01*
X020824Y012696D02*
X018872Y012696D01*
X018945Y012537D02*
X020983Y012537D01*
X021141Y012379D02*
X018923Y012379D01*
X019408Y012220D02*
X021300Y012220D01*
X021458Y012062D02*
X019475Y012062D01*
X019451Y011903D02*
X019505Y011903D01*
X019654Y011903D02*
X020574Y011903D01*
X020466Y011745D02*
X019858Y011745D01*
X019895Y011586D02*
X020406Y011586D01*
X020683Y011269D02*
X022120Y011269D01*
X022092Y011428D02*
X020990Y011428D01*
X021083Y011586D02*
X021934Y011586D01*
X021775Y011745D02*
X021073Y011745D01*
X020965Y011903D02*
X021617Y011903D01*
X022031Y011111D02*
X022268Y011111D01*
X022075Y010952D02*
X022839Y010952D01*
X022673Y011111D02*
X022551Y011111D01*
X023080Y010952D02*
X026178Y010952D01*
X026168Y010956D02*
X026292Y010905D01*
X026427Y010905D01*
X026551Y010956D01*
X026646Y011052D01*
X026694Y011167D01*
X027430Y011902D01*
X027430Y012067D01*
X027669Y012067D01*
X027763Y012161D01*
X027763Y012843D01*
X028411Y012843D01*
X028488Y012766D01*
X028612Y012715D01*
X028747Y012715D01*
X028871Y012766D01*
X028966Y012862D01*
X029018Y012986D01*
X029018Y013121D01*
X028966Y013245D01*
X028871Y013340D01*
X028747Y013392D01*
X028612Y013392D01*
X028488Y013340D01*
X028411Y013263D01*
X027772Y013263D01*
X027783Y013306D01*
X027783Y013567D01*
X027287Y013567D01*
X027287Y013722D01*
X027132Y013722D01*
X027132Y013567D01*
X026636Y013567D01*
X026636Y013306D01*
X026647Y013263D01*
X024923Y013263D01*
X024800Y013140D01*
X024670Y013010D01*
X024670Y012911D01*
X024637Y012879D01*
X024637Y012431D01*
X024731Y012338D01*
X024920Y012338D01*
X024920Y012306D01*
X025043Y012183D01*
X025050Y012176D01*
X025050Y012094D01*
X025040Y012084D01*
X025040Y011902D01*
X025568Y011373D01*
X025918Y011373D01*
X026021Y011271D01*
X026021Y011176D01*
X026073Y011052D01*
X026168Y010956D01*
X026048Y011111D02*
X023246Y011111D01*
X023275Y011269D02*
X026021Y011269D01*
X025514Y011428D02*
X023390Y011428D01*
X023475Y011586D02*
X025355Y011586D01*
X025197Y011745D02*
X023458Y011745D01*
X023345Y011903D02*
X025040Y011903D01*
X025040Y012062D02*
X023024Y012062D01*
X022865Y012220D02*
X025006Y012220D01*
X024689Y012379D02*
X022707Y012379D01*
X022548Y012537D02*
X024637Y012537D01*
X024637Y012696D02*
X022390Y012696D01*
X022231Y012854D02*
X024637Y012854D01*
X024672Y013013D02*
X022073Y013013D01*
X021914Y013171D02*
X024831Y013171D01*
X025532Y013805D02*
X026636Y013805D01*
X026636Y013722D02*
X027132Y013722D01*
X027132Y014139D01*
X026792Y014139D01*
X026746Y014127D01*
X026705Y014103D01*
X026672Y014070D01*
X026648Y014029D01*
X026636Y013983D01*
X026636Y013722D01*
X026636Y013488D02*
X021597Y013488D01*
X021439Y013647D02*
X027132Y013647D01*
X027287Y013647D02*
X035268Y013647D01*
X035268Y013805D02*
X027783Y013805D01*
X027783Y013722D02*
X027783Y013983D01*
X027771Y014029D01*
X027747Y014070D01*
X027714Y014103D01*
X027673Y014127D01*
X027627Y014139D01*
X027287Y014139D01*
X027287Y013722D01*
X027783Y013722D01*
X027783Y013488D02*
X035267Y013488D01*
X035267Y013330D02*
X028882Y013330D01*
X028997Y013171D02*
X035267Y013171D01*
X035267Y013013D02*
X029018Y013013D01*
X028959Y012854D02*
X035266Y012854D01*
X035266Y012696D02*
X032908Y012696D01*
X032949Y012654D02*
X032820Y012783D01*
X032651Y012853D01*
X031868Y012853D01*
X031699Y012783D01*
X031570Y012654D01*
X031500Y012485D01*
X031500Y012302D01*
X031570Y012133D01*
X031699Y012003D01*
X031868Y011933D01*
X032651Y011933D01*
X032820Y012003D01*
X032949Y012133D01*
X033020Y012302D01*
X033020Y012485D01*
X032949Y012654D01*
X032998Y012537D02*
X035266Y012537D01*
X035265Y012379D02*
X033020Y012379D01*
X032986Y012220D02*
X035265Y012220D01*
X035265Y012062D02*
X032879Y012062D01*
X032859Y011745D02*
X035264Y011745D01*
X035265Y011903D02*
X029597Y011903D01*
X029588Y011910D02*
X029659Y011856D01*
X029722Y011793D01*
X029776Y011722D01*
X029821Y011645D01*
X029855Y011562D01*
X029878Y011476D01*
X029885Y011423D01*
X029290Y011423D01*
X029290Y011263D01*
X029885Y011263D01*
X029878Y011210D01*
X029855Y011124D01*
X029821Y011042D01*
X029776Y010965D01*
X029722Y010894D01*
X029659Y010831D01*
X029588Y010777D01*
X029511Y010732D01*
X029429Y010698D01*
X029342Y010675D01*
X029290Y010668D01*
X029290Y011263D01*
X029130Y011263D01*
X029130Y010668D01*
X029077Y010675D01*
X028990Y010698D01*
X028908Y010732D01*
X028831Y010777D01*
X028760Y010831D01*
X028697Y010894D01*
X028643Y010965D01*
X028598Y011042D01*
X028564Y011124D01*
X028541Y011210D01*
X028534Y011263D01*
X029130Y011263D01*
X029130Y011423D01*
X029130Y012019D01*
X029077Y012012D01*
X028990Y011989D01*
X028908Y011954D01*
X028831Y011910D01*
X028760Y011856D01*
X028697Y011793D01*
X028643Y011722D01*
X028598Y011645D01*
X028564Y011562D01*
X028541Y011476D01*
X028534Y011423D01*
X029130Y011423D01*
X029290Y011423D01*
X029290Y012019D01*
X029342Y012012D01*
X029429Y011989D01*
X029511Y011954D01*
X029588Y011910D01*
X029759Y011745D02*
X031660Y011745D01*
X031542Y011586D02*
X029845Y011586D01*
X029884Y011428D02*
X031497Y011428D01*
X031339Y011269D02*
X029290Y011269D01*
X029290Y011111D02*
X029130Y011111D01*
X029130Y011269D02*
X026797Y011269D01*
X026671Y011111D02*
X028570Y011111D01*
X028652Y010952D02*
X026541Y010952D01*
X026955Y011428D02*
X028535Y011428D01*
X028574Y011586D02*
X027114Y011586D01*
X027272Y011745D02*
X028660Y011745D01*
X028822Y011903D02*
X027430Y011903D01*
X027430Y012062D02*
X031640Y012062D01*
X031533Y012220D02*
X027763Y012220D01*
X027763Y012379D02*
X031500Y012379D01*
X031521Y012537D02*
X027763Y012537D01*
X027763Y012696D02*
X031611Y012696D01*
X032977Y011586D02*
X035264Y011586D01*
X035264Y011428D02*
X033020Y011428D01*
X033006Y011269D02*
X035264Y011269D01*
X035263Y011111D02*
X032928Y011111D01*
X032697Y010952D02*
X035263Y010952D01*
X035263Y010794D02*
X032795Y010794D01*
X032820Y010783D02*
X032651Y010853D01*
X031868Y010853D01*
X031699Y010783D01*
X031570Y010654D01*
X031500Y010485D01*
X031500Y010302D01*
X031570Y010133D01*
X031699Y010003D01*
X031868Y009933D01*
X032651Y009933D01*
X032820Y010003D01*
X032949Y010133D01*
X033020Y010302D01*
X033020Y010485D01*
X032949Y010654D01*
X032820Y010783D01*
X032957Y010635D02*
X035263Y010635D01*
X035262Y010477D02*
X033020Y010477D01*
X033020Y010318D02*
X035262Y010318D01*
X035262Y010160D02*
X032961Y010160D01*
X032815Y010001D02*
X035262Y010001D01*
X035261Y009843D02*
X032676Y009843D01*
X032651Y009853D02*
X032820Y009783D01*
X032949Y009654D01*
X033020Y009485D01*
X033020Y009302D01*
X032949Y009133D01*
X032820Y009003D01*
X032651Y008933D01*
X031868Y008933D01*
X031699Y009003D01*
X031570Y009133D01*
X031500Y009302D01*
X031500Y009485D01*
X031570Y009654D01*
X031699Y009783D01*
X031868Y009853D01*
X032651Y009853D01*
X032919Y009684D02*
X035261Y009684D01*
X035261Y009526D02*
X033003Y009526D01*
X033020Y009367D02*
X035261Y009367D01*
X035260Y009209D02*
X032981Y009209D01*
X032867Y009050D02*
X035260Y009050D01*
X035260Y008892D02*
X022744Y008892D01*
X022585Y009050D02*
X031652Y009050D01*
X031538Y009209D02*
X022427Y009209D01*
X022268Y009367D02*
X031500Y009367D01*
X031517Y009526D02*
X022110Y009526D01*
X021861Y009209D02*
X020755Y009209D01*
X020914Y009050D02*
X022020Y009050D01*
X022178Y008892D02*
X021072Y008892D01*
X021231Y008733D02*
X022337Y008733D01*
X022495Y008575D02*
X021389Y008575D01*
X021548Y008416D02*
X022654Y008416D01*
X022812Y008258D02*
X021706Y008258D01*
X021865Y008099D02*
X022971Y008099D01*
X023219Y008416D02*
X023845Y008416D01*
X024174Y008416D02*
X031500Y008416D01*
X031500Y008485D02*
X031500Y008302D01*
X031570Y008133D01*
X031699Y008003D01*
X031868Y007933D01*
X032651Y007933D01*
X032820Y008003D01*
X032949Y008133D01*
X033020Y008302D01*
X033020Y008485D01*
X032949Y008654D01*
X032820Y008783D01*
X032651Y008853D01*
X031868Y008853D01*
X031699Y008783D01*
X031570Y008654D01*
X031500Y008485D01*
X031537Y008575D02*
X023061Y008575D01*
X022902Y008733D02*
X031649Y008733D01*
X031518Y008258D02*
X024303Y008258D01*
X024325Y008099D02*
X031603Y008099D01*
X031850Y007941D02*
X024253Y007941D01*
X023767Y007941D02*
X022023Y007941D01*
X022182Y007782D02*
X035258Y007782D01*
X035258Y007624D02*
X022340Y007624D01*
X022439Y007465D02*
X035258Y007465D01*
X035257Y007307D02*
X022439Y007307D01*
X022439Y007148D02*
X023537Y007148D01*
X023528Y007144D02*
X023467Y007099D01*
X023413Y007046D01*
X023369Y006985D01*
X023335Y006918D01*
X023311Y006846D01*
X023300Y006771D01*
X023300Y006753D01*
X024060Y006753D01*
X024060Y007213D01*
X023742Y007213D01*
X023667Y007201D01*
X023595Y007178D01*
X023528Y007144D01*
X023373Y006990D02*
X022439Y006990D01*
X022439Y006831D02*
X023309Y006831D01*
X023300Y006713D02*
X023300Y006696D01*
X023311Y006621D01*
X023335Y006549D01*
X023369Y006482D01*
X023413Y006421D01*
X023467Y006367D01*
X023528Y006323D01*
X023595Y006288D01*
X023667Y006265D01*
X023742Y006253D01*
X024060Y006253D01*
X024060Y006713D01*
X024100Y006713D01*
X024100Y006753D01*
X024860Y006753D01*
X024860Y006771D01*
X024848Y006846D01*
X024824Y006918D01*
X024790Y006985D01*
X024746Y007046D01*
X024692Y007099D01*
X024631Y007144D01*
X024564Y007178D01*
X024492Y007201D01*
X024417Y007213D01*
X024100Y007213D01*
X024100Y006753D01*
X024060Y006753D01*
X024060Y006713D01*
X023300Y006713D01*
X023303Y006673D02*
X022686Y006673D01*
X022694Y006514D02*
X023352Y006514D01*
X023482Y006356D02*
X022694Y006356D01*
X022694Y006197D02*
X035256Y006197D01*
X035255Y006039D02*
X022694Y006039D01*
X022694Y005880D02*
X035255Y005880D01*
X035255Y005722D02*
X021199Y005722D01*
X021206Y005728D02*
X021481Y005728D01*
X021575Y005822D01*
X021575Y006665D01*
X021481Y006758D01*
X020718Y006758D01*
X020625Y006665D01*
X020625Y005822D01*
X020651Y005796D01*
X020268Y005413D01*
X020099Y005413D01*
X020097Y005419D01*
X019985Y005531D01*
X019839Y005591D01*
X019680Y005591D01*
X019534Y005531D01*
X019510Y005506D01*
X019485Y005531D01*
X019339Y005591D01*
X019180Y005591D01*
X019034Y005531D01*
X019010Y005506D01*
X018985Y005531D01*
X018839Y005591D01*
X018680Y005591D01*
X018534Y005531D01*
X018510Y005506D01*
X018485Y005531D01*
X018339Y005591D01*
X018180Y005591D01*
X018034Y005531D01*
X018010Y005506D01*
X017985Y005531D01*
X017839Y005591D01*
X017680Y005591D01*
X017534Y005531D01*
X017422Y005419D01*
X017362Y005272D01*
X017362Y005114D01*
X017396Y005032D01*
X017362Y004997D01*
X017362Y004952D01*
X016639Y005675D01*
X016639Y007128D01*
X016801Y007128D01*
X016894Y007222D01*
X016894Y008065D01*
X016801Y008158D01*
X016038Y008158D01*
X015944Y008065D01*
X015944Y007222D01*
X016038Y007128D01*
X016199Y007128D01*
X016199Y005492D01*
X017090Y004602D01*
X017218Y004473D01*
X017362Y004473D01*
X017362Y004389D01*
X017455Y004296D01*
X018064Y004296D01*
X018083Y004315D01*
X018099Y004306D01*
X018162Y004286D01*
X018227Y004276D01*
X018260Y004276D01*
X018292Y004276D01*
X018357Y004286D01*
X018420Y004306D01*
X018478Y004336D01*
X018510Y004359D01*
X018541Y004336D01*
X018599Y004306D01*
X018662Y004286D01*
X018727Y004276D01*
X018760Y004276D01*
X018792Y004276D01*
X018857Y004286D01*
X018920Y004306D01*
X018978Y004336D01*
X019010Y004359D01*
X019041Y004336D01*
X019099Y004306D01*
X019162Y004286D01*
X019227Y004276D01*
X019260Y004276D01*
X019292Y004276D01*
X019357Y004286D01*
X019420Y004306D01*
X019478Y004336D01*
X019510Y004359D01*
X019541Y004336D01*
X019599Y004306D01*
X019662Y004286D01*
X019727Y004276D01*
X019760Y004276D01*
X019792Y004276D01*
X019857Y004286D01*
X019920Y004306D01*
X019978Y004336D01*
X020032Y004375D01*
X020078Y004421D01*
X020117Y004474D01*
X020147Y004533D01*
X020167Y004595D01*
X020177Y004660D01*
X020177Y004693D01*
X019760Y004693D01*
X019760Y004693D01*
X019760Y004276D01*
X019760Y004693D01*
X019760Y004693D01*
X020177Y004693D01*
X020177Y004726D01*
X020167Y004791D01*
X020147Y004854D01*
X020117Y004912D01*
X020085Y004956D01*
X020097Y004968D01*
X020099Y004973D01*
X020244Y004973D01*
X020770Y004448D01*
X020770Y003982D01*
X020863Y003888D01*
X021104Y003888D01*
X021490Y003502D01*
X021618Y003373D01*
X023501Y003373D01*
X023801Y003673D01*
X023930Y003802D01*
X023930Y004492D01*
X023931Y004493D01*
X024471Y004493D01*
X024640Y004563D01*
X024769Y004693D01*
X024786Y004733D01*
X025933Y004733D01*
X025950Y004693D01*
X026079Y004563D01*
X026248Y004493D01*
X027031Y004493D01*
X027200Y004563D01*
X027329Y004693D01*
X027400Y004862D01*
X027400Y005045D01*
X027329Y005214D01*
X027200Y005343D01*
X027031Y005413D01*
X026248Y005413D01*
X026079Y005343D01*
X025950Y005214D01*
X025933Y005173D01*
X024786Y005173D01*
X024769Y005214D01*
X024640Y005343D01*
X024471Y005413D01*
X023688Y005413D01*
X023519Y005343D01*
X023390Y005214D01*
X023320Y005045D01*
X023320Y004862D01*
X023390Y004693D01*
X023490Y004593D01*
X023490Y003984D01*
X023318Y003813D01*
X021801Y003813D01*
X021746Y003868D01*
X021886Y003868D01*
X021886Y004295D01*
X021981Y004295D01*
X021981Y003868D01*
X022213Y003868D01*
X022259Y003880D01*
X022300Y003904D01*
X022333Y003938D01*
X022357Y003979D01*
X022369Y004024D01*
X022369Y004295D01*
X023490Y004295D01*
X023490Y004137D02*
X022369Y004137D01*
X022369Y004295D02*
X021981Y004295D01*
X021886Y004295D01*
X021981Y004295D02*
X021981Y004391D01*
X021886Y004391D01*
X021886Y004819D01*
X021654Y004819D01*
X021608Y004806D01*
X021567Y004783D01*
X021545Y004761D01*
X021508Y004799D01*
X021041Y004799D01*
X020659Y005181D01*
X021101Y005623D01*
X021206Y005728D01*
X021041Y005563D02*
X035255Y005563D01*
X035254Y005405D02*
X027052Y005405D01*
X027297Y005246D02*
X035254Y005246D01*
X035254Y005088D02*
X027382Y005088D01*
X027400Y004929D02*
X035254Y004929D01*
X035253Y004771D02*
X027362Y004771D01*
X027249Y004612D02*
X035253Y004612D01*
X035253Y004454D02*
X026090Y004454D01*
X026030Y004612D02*
X024689Y004612D01*
X025102Y004295D02*
X023930Y004295D01*
X023930Y004137D02*
X024933Y004137D01*
X024816Y003978D02*
X023930Y003978D01*
X023930Y003820D02*
X024725Y003820D01*
X024682Y003661D02*
X023789Y003661D01*
X023630Y003503D02*
X024650Y003503D01*
X024650Y003344D02*
X014869Y003344D01*
X014869Y003503D02*
X021489Y003503D01*
X021330Y003661D02*
X014837Y003661D01*
X014794Y003820D02*
X021172Y003820D01*
X020773Y003978D02*
X014703Y003978D01*
X014586Y004137D02*
X020770Y004137D01*
X020770Y004295D02*
X019887Y004295D01*
X019760Y004295D02*
X019760Y004295D01*
X019632Y004295D02*
X019387Y004295D01*
X019260Y004295D02*
X019260Y004295D01*
X019260Y004276D02*
X019260Y004693D01*
X019260Y004693D01*
X019342Y004693D01*
X019760Y004693D01*
X019760Y004693D01*
X019260Y004693D01*
X019260Y004693D01*
X019260Y004276D01*
X019132Y004295D02*
X018887Y004295D01*
X018760Y004295D02*
X018760Y004295D01*
X018760Y004276D02*
X018760Y004693D01*
X018760Y004693D01*
X018842Y004693D01*
X019260Y004693D01*
X019260Y004693D01*
X018760Y004693D01*
X018760Y004693D01*
X018760Y004276D01*
X018632Y004295D02*
X018387Y004295D01*
X018260Y004295D02*
X018260Y004295D01*
X018260Y004276D02*
X018260Y004693D01*
X018260Y004693D01*
X018677Y004693D01*
X018760Y004693D01*
X018760Y004693D01*
X018260Y004693D01*
X018260Y004693D01*
X018260Y004276D01*
X018132Y004295D02*
X014417Y004295D01*
X014090Y004454D02*
X017362Y004454D01*
X017079Y004612D02*
X014162Y004612D01*
X014220Y004771D02*
X016921Y004771D01*
X016762Y004929D02*
X014220Y004929D01*
X014220Y005088D02*
X016604Y005088D01*
X016445Y005246D02*
X014220Y005246D01*
X014220Y005405D02*
X016287Y005405D01*
X016199Y005563D02*
X014208Y005563D01*
X014132Y005722D02*
X016199Y005722D01*
X016199Y005880D02*
X013907Y005880D01*
X013613Y005880D02*
X012907Y005880D01*
X012851Y005903D02*
X012668Y005903D01*
X012499Y005833D01*
X012370Y005704D01*
X012300Y005535D01*
X012300Y004752D01*
X012370Y004583D01*
X012499Y004453D01*
X012668Y004383D01*
X012851Y004383D01*
X013020Y004453D01*
X013149Y004583D01*
X013220Y004752D01*
X013220Y005535D01*
X013149Y005704D01*
X013020Y005833D01*
X012851Y005903D01*
X012613Y005880D02*
X009703Y005880D01*
X009704Y005878D02*
X009670Y005945D01*
X009626Y006006D01*
X009572Y006059D01*
X009511Y006104D01*
X009444Y006138D01*
X009372Y006161D01*
X009297Y006173D01*
X009280Y006173D01*
X009280Y005413D01*
X009740Y005413D01*
X009740Y005731D01*
X009728Y005806D01*
X009704Y005878D01*
X009740Y005722D02*
X012387Y005722D01*
X012311Y005563D02*
X009740Y005563D01*
X009740Y005373D02*
X009280Y005373D01*
X009280Y005413D01*
X009240Y005413D01*
X009240Y006173D01*
X009222Y006173D01*
X009147Y006161D01*
X009075Y006138D01*
X009008Y006104D01*
X008947Y006059D01*
X008893Y006006D01*
X008849Y005945D01*
X008815Y005878D01*
X008791Y005806D01*
X008780Y005731D01*
X008780Y005413D01*
X009240Y005413D01*
X009240Y005373D01*
X009280Y005373D01*
X009280Y004613D01*
X009297Y004613D01*
X009372Y004625D01*
X009444Y004648D01*
X009511Y004683D01*
X009572Y004727D01*
X009626Y004781D01*
X009670Y004842D01*
X009704Y004909D01*
X009728Y004981D01*
X009740Y005056D01*
X009740Y005373D01*
X009740Y005246D02*
X012300Y005246D01*
X012300Y005088D02*
X009740Y005088D01*
X009711Y004929D02*
X012300Y004929D01*
X012300Y004771D02*
X009616Y004771D01*
X009280Y004771D02*
X009240Y004771D01*
X009240Y004613D02*
X009240Y005373D01*
X008780Y005373D01*
X008780Y005056D01*
X008791Y004981D01*
X008815Y004909D01*
X008849Y004842D01*
X008893Y004781D01*
X008947Y004727D01*
X009008Y004683D01*
X009075Y004648D01*
X009147Y004625D01*
X009222Y004613D01*
X009240Y004613D01*
X009240Y004929D02*
X009280Y004929D01*
X009280Y005088D02*
X009240Y005088D01*
X009240Y005246D02*
X009280Y005246D01*
X009280Y005405D02*
X012300Y005405D01*
X012357Y004612D02*
X004240Y004612D01*
X004240Y004454D02*
X012498Y004454D01*
X013021Y004454D02*
X013429Y004454D01*
X013357Y004612D02*
X013162Y004612D01*
X013220Y004771D02*
X013300Y004771D01*
X013300Y004929D02*
X013220Y004929D01*
X013220Y005088D02*
X013300Y005088D01*
X013300Y005246D02*
X013220Y005246D01*
X013220Y005405D02*
X013300Y005405D01*
X013311Y005563D02*
X013208Y005563D01*
X013132Y005722D02*
X013387Y005722D01*
X013102Y004295D02*
X004240Y004295D01*
X004240Y004137D02*
X012933Y004137D01*
X012816Y003978D02*
X004240Y003978D01*
X004240Y003820D02*
X012725Y003820D01*
X012682Y003661D02*
X004240Y003661D01*
X004240Y003503D02*
X012650Y003503D01*
X012650Y003344D02*
X004240Y003344D01*
X004240Y003186D02*
X012666Y003186D01*
X012709Y003027D02*
X004240Y003027D01*
X004240Y004771D02*
X005931Y004771D01*
X005830Y004929D02*
X004240Y004929D01*
X004240Y005088D02*
X005800Y005088D01*
X005800Y005246D02*
X004240Y005246D01*
X004240Y005405D02*
X005800Y005405D01*
X005800Y005563D02*
X004240Y005563D01*
X004240Y005722D02*
X005800Y005722D01*
X005839Y005880D02*
X004240Y005880D01*
X004240Y006039D02*
X005954Y006039D01*
X006040Y006197D02*
X004240Y006197D01*
X004240Y006356D02*
X006040Y006356D01*
X006040Y006514D02*
X004240Y006514D01*
X004240Y006673D02*
X006040Y006673D01*
X006040Y006831D02*
X004240Y006831D01*
X004240Y006990D02*
X006040Y006990D01*
X006040Y007148D02*
X004240Y007148D01*
X004240Y007307D02*
X006040Y007307D01*
X006040Y007465D02*
X004240Y007465D01*
X004240Y007624D02*
X006040Y007624D01*
X006040Y007782D02*
X004240Y007782D01*
X004240Y007941D02*
X006040Y007941D01*
X006040Y008099D02*
X004240Y008099D01*
X004240Y008258D02*
X006040Y008258D01*
X006040Y008416D02*
X004240Y008416D01*
X004240Y008575D02*
X006040Y008575D01*
X005959Y008733D02*
X004240Y008733D01*
X004240Y008892D02*
X005921Y008892D01*
X005958Y009050D02*
X004240Y009050D01*
X004240Y009209D02*
X006137Y009209D01*
X006382Y009209D02*
X006843Y009209D01*
X007001Y009050D02*
X006561Y009050D01*
X006598Y008892D02*
X007160Y008892D01*
X007318Y008733D02*
X006560Y008733D01*
X006480Y008575D02*
X007477Y008575D01*
X007580Y008416D02*
X006480Y008416D01*
X006480Y008258D02*
X007580Y008258D01*
X007580Y008099D02*
X006480Y008099D01*
X006480Y007941D02*
X007580Y007941D01*
X007580Y007782D02*
X006480Y007782D01*
X006480Y007624D02*
X007688Y007624D01*
X007846Y007465D02*
X006480Y007465D01*
X006480Y007307D02*
X008005Y007307D01*
X008163Y007148D02*
X006480Y007148D01*
X006480Y006990D02*
X008322Y006990D01*
X008480Y006831D02*
X006480Y006831D01*
X006480Y006673D02*
X016199Y006673D01*
X016199Y006831D02*
X010639Y006831D01*
X010797Y006990D02*
X016199Y006990D01*
X016018Y007148D02*
X015701Y007148D01*
X015775Y007307D02*
X015944Y007307D01*
X015944Y007465D02*
X015775Y007465D01*
X015775Y007624D02*
X015944Y007624D01*
X015944Y007782D02*
X015775Y007782D01*
X015775Y007941D02*
X015944Y007941D01*
X015979Y008099D02*
X015740Y008099D01*
X015520Y008258D02*
X021084Y008258D01*
X020925Y008416D02*
X015561Y008416D01*
X015647Y008575D02*
X020767Y008575D01*
X020608Y008733D02*
X015697Y008733D01*
X015420Y009050D02*
X013514Y009050D01*
X013672Y008892D02*
X015079Y008892D01*
X014980Y008733D02*
X013997Y008733D01*
X014048Y008575D02*
X014972Y008575D01*
X015058Y008416D02*
X014023Y008416D01*
X013903Y008258D02*
X015100Y008258D01*
X014860Y008099D02*
X011907Y008099D01*
X012065Y008258D02*
X013516Y008258D01*
X013396Y008416D02*
X012354Y008416D01*
X012491Y008575D02*
X013367Y008575D01*
X013208Y008733D02*
X012515Y008733D01*
X011885Y008733D02*
X009568Y008733D01*
X009470Y008892D02*
X010400Y008892D01*
X010241Y009050D02*
X009470Y009050D01*
X009470Y009209D02*
X010083Y009209D01*
X009924Y009367D02*
X009470Y009367D01*
X009470Y009526D02*
X009766Y009526D01*
X009607Y009684D02*
X009547Y009684D01*
X009050Y009050D02*
X007624Y009050D01*
X007782Y008892D02*
X009050Y008892D01*
X009050Y008733D02*
X007941Y008733D01*
X008020Y008575D02*
X008427Y008575D01*
X008363Y008416D02*
X008020Y008416D01*
X008020Y008258D02*
X008363Y008258D01*
X008363Y007966D02*
X008363Y007626D01*
X008376Y007580D01*
X008399Y007539D01*
X008433Y007506D01*
X008474Y007482D01*
X008520Y007470D01*
X008781Y007470D01*
X008781Y007966D01*
X008363Y007966D01*
X008363Y007941D02*
X008020Y007941D01*
X008020Y008099D02*
X008781Y008099D01*
X008936Y008099D02*
X009486Y008099D01*
X009486Y007941D02*
X009353Y007941D01*
X009353Y007966D02*
X008936Y007966D01*
X008936Y007470D01*
X009197Y007470D01*
X009243Y007482D01*
X009284Y007506D01*
X009317Y007539D01*
X009341Y007580D01*
X009353Y007626D01*
X009353Y007966D01*
X009353Y007782D02*
X009486Y007782D01*
X009486Y007624D02*
X009353Y007624D01*
X008936Y007624D02*
X008781Y007624D01*
X008781Y007782D02*
X008936Y007782D01*
X008936Y007941D02*
X008781Y007941D01*
X008781Y008258D02*
X008936Y008258D01*
X008936Y008416D02*
X008781Y008416D01*
X008781Y008575D02*
X008936Y008575D01*
X009353Y008258D02*
X009449Y008258D01*
X010364Y008575D02*
X011760Y008575D01*
X011601Y008416D02*
X010436Y008416D01*
X010436Y008258D02*
X011443Y008258D01*
X011284Y008099D02*
X010436Y008099D01*
X010436Y007941D02*
X011126Y007941D01*
X010967Y007782D02*
X010436Y007782D01*
X010436Y007624D02*
X010809Y007624D01*
X010650Y007465D02*
X008469Y007465D01*
X008364Y007624D02*
X008310Y007624D01*
X008363Y007782D02*
X008152Y007782D01*
X008627Y007307D02*
X010492Y007307D01*
X010956Y007148D02*
X014899Y007148D01*
X014825Y007307D02*
X011114Y007307D01*
X011273Y007465D02*
X014825Y007465D01*
X014825Y007624D02*
X011431Y007624D01*
X011590Y007782D02*
X014825Y007782D01*
X014825Y007941D02*
X011748Y007941D01*
X013355Y009209D02*
X015564Y009209D01*
X016860Y008099D02*
X021242Y008099D01*
X021401Y007941D02*
X016894Y007941D01*
X016894Y007782D02*
X021559Y007782D01*
X021718Y007624D02*
X016894Y007624D01*
X016894Y007465D02*
X021876Y007465D01*
X021999Y007307D02*
X016894Y007307D01*
X016821Y007148D02*
X021999Y007148D01*
X021999Y006990D02*
X016639Y006990D01*
X016639Y006831D02*
X021999Y006831D01*
X021753Y006673D02*
X021566Y006673D01*
X021575Y006514D02*
X021744Y006514D01*
X021744Y006356D02*
X021575Y006356D01*
X021575Y006197D02*
X021744Y006197D01*
X021744Y006039D02*
X021575Y006039D01*
X021575Y005880D02*
X021744Y005880D01*
X020882Y005405D02*
X023668Y005405D01*
X023422Y005246D02*
X020724Y005246D01*
X020752Y005088D02*
X023337Y005088D01*
X023320Y004929D02*
X020911Y004929D01*
X020605Y004612D02*
X020170Y004612D01*
X020170Y004771D02*
X020447Y004771D01*
X020288Y004929D02*
X020104Y004929D01*
X019760Y004612D02*
X019760Y004612D01*
X019760Y004454D02*
X019760Y004454D01*
X020102Y004454D02*
X020764Y004454D01*
X021535Y004771D02*
X021555Y004771D01*
X021886Y004771D02*
X021981Y004771D01*
X021981Y004819D02*
X021981Y004391D01*
X022369Y004391D01*
X022369Y004662D01*
X022357Y004708D01*
X022333Y004749D01*
X022300Y004783D01*
X022259Y004806D01*
X022213Y004819D01*
X021981Y004819D01*
X021981Y004612D02*
X021886Y004612D01*
X021886Y004454D02*
X021981Y004454D01*
X021981Y004137D02*
X021886Y004137D01*
X021886Y003978D02*
X021981Y003978D01*
X021794Y003820D02*
X023325Y003820D01*
X023483Y003978D02*
X022357Y003978D01*
X022369Y004454D02*
X023490Y004454D01*
X023470Y004612D02*
X022369Y004612D01*
X022312Y004771D02*
X023357Y004771D01*
X023930Y004454D02*
X025429Y004454D01*
X025982Y005246D02*
X024737Y005246D01*
X024492Y005405D02*
X026228Y005405D01*
X026302Y006253D02*
X026620Y006253D01*
X026620Y006713D01*
X026660Y006713D01*
X026660Y006753D01*
X027420Y006753D01*
X027420Y006771D01*
X027408Y006846D01*
X027384Y006918D01*
X027350Y006985D01*
X027306Y007046D01*
X027252Y007099D01*
X027191Y007144D01*
X027124Y007178D01*
X027052Y007201D01*
X026977Y007213D01*
X026660Y007213D01*
X026660Y006753D01*
X026620Y006753D01*
X026620Y007213D01*
X026302Y007213D01*
X026227Y007201D01*
X026155Y007178D01*
X026088Y007144D01*
X026027Y007099D01*
X025973Y007046D01*
X025929Y006985D01*
X025895Y006918D01*
X025871Y006846D01*
X025860Y006771D01*
X025860Y006753D01*
X026620Y006753D01*
X026620Y006713D01*
X025860Y006713D01*
X025860Y006696D01*
X025871Y006621D01*
X025895Y006549D01*
X025929Y006482D01*
X025973Y006421D01*
X026027Y006367D01*
X026088Y006323D01*
X026155Y006288D01*
X026227Y006265D01*
X026302Y006253D01*
X026042Y006356D02*
X024677Y006356D01*
X024692Y006367D02*
X024746Y006421D01*
X024790Y006482D01*
X024824Y006549D01*
X024848Y006621D01*
X024860Y006696D01*
X024860Y006713D01*
X024100Y006713D01*
X024100Y006253D01*
X024417Y006253D01*
X024492Y006265D01*
X024564Y006288D01*
X024631Y006323D01*
X024692Y006367D01*
X024807Y006514D02*
X025912Y006514D01*
X025863Y006673D02*
X024856Y006673D01*
X024850Y006831D02*
X025869Y006831D01*
X025933Y006990D02*
X024786Y006990D01*
X024622Y007148D02*
X026097Y007148D01*
X026620Y007148D02*
X026660Y007148D01*
X026660Y006990D02*
X026620Y006990D01*
X026620Y006831D02*
X026660Y006831D01*
X026660Y006713D02*
X027420Y006713D01*
X027420Y006696D01*
X027408Y006621D01*
X027384Y006549D01*
X027350Y006482D01*
X027306Y006421D01*
X027252Y006367D01*
X027191Y006323D01*
X027124Y006288D01*
X027052Y006265D01*
X026977Y006253D01*
X026660Y006253D01*
X026660Y006713D01*
X026660Y006673D02*
X026620Y006673D01*
X026620Y006514D02*
X026660Y006514D01*
X026660Y006356D02*
X026620Y006356D01*
X027237Y006356D02*
X035256Y006356D01*
X035256Y006514D02*
X027367Y006514D01*
X027416Y006673D02*
X035256Y006673D01*
X035257Y006831D02*
X027410Y006831D01*
X027346Y006990D02*
X035257Y006990D01*
X035257Y007148D02*
X027182Y007148D01*
X024746Y009684D02*
X031600Y009684D01*
X031843Y009843D02*
X024825Y009843D01*
X024806Y010001D02*
X031704Y010001D01*
X031558Y010160D02*
X030823Y010160D01*
X030982Y010318D02*
X031500Y010318D01*
X031500Y010477D02*
X031140Y010477D01*
X031299Y010635D02*
X031562Y010635D01*
X031457Y010794D02*
X031724Y010794D01*
X031822Y010952D02*
X031616Y010952D01*
X031180Y011111D02*
X029849Y011111D01*
X029767Y010952D02*
X031022Y010952D01*
X030863Y010794D02*
X029610Y010794D01*
X029290Y010794D02*
X029130Y010794D01*
X029130Y010952D02*
X029290Y010952D01*
X029290Y011428D02*
X029130Y011428D01*
X029130Y011586D02*
X029290Y011586D01*
X029290Y011745D02*
X029130Y011745D01*
X029130Y011903D02*
X029290Y011903D01*
X028809Y010794D02*
X022039Y010794D01*
X021839Y010635D02*
X030705Y010635D01*
X030546Y010477D02*
X021123Y010477D01*
X021112Y010635D02*
X021680Y010635D01*
X021756Y013330D02*
X026636Y013330D01*
X027132Y013805D02*
X027287Y013805D01*
X027287Y013964D02*
X027132Y013964D01*
X027132Y014122D02*
X027287Y014122D01*
X027681Y014122D02*
X035268Y014122D01*
X035268Y013964D02*
X027783Y013964D01*
X027783Y013330D02*
X028477Y013330D01*
X026738Y014122D02*
X025882Y014122D01*
X025882Y013964D02*
X026636Y013964D01*
X025882Y014281D02*
X035269Y014281D01*
X035269Y014439D02*
X025798Y014439D01*
X028215Y016024D02*
X028531Y016024D01*
X028837Y015707D02*
X028934Y015707D01*
X028678Y015549D02*
X031625Y015549D01*
X031647Y015527D02*
X031708Y015483D01*
X031775Y015448D01*
X031847Y015425D01*
X031922Y015413D01*
X032240Y015413D01*
X032240Y015873D01*
X032280Y015873D01*
X032280Y015913D01*
X033040Y015913D01*
X033040Y015931D01*
X033028Y016006D01*
X033004Y016078D01*
X032970Y016145D01*
X032926Y016206D01*
X032872Y016259D01*
X032811Y016304D01*
X032744Y016338D01*
X032672Y016361D01*
X032597Y016373D01*
X032280Y016373D01*
X032280Y015913D01*
X032240Y015913D01*
X032240Y016373D01*
X031922Y016373D01*
X031847Y016361D01*
X031775Y016338D01*
X031708Y016304D01*
X031647Y016259D01*
X031593Y016206D01*
X031549Y016145D01*
X031515Y016078D01*
X031491Y016006D01*
X031480Y015931D01*
X031480Y015913D01*
X032240Y015913D01*
X032240Y015873D01*
X031480Y015873D01*
X031480Y015856D01*
X031491Y015781D01*
X031515Y015709D01*
X031549Y015642D01*
X031593Y015581D01*
X031647Y015527D01*
X031516Y015707D02*
X029835Y015707D01*
X029993Y015866D02*
X031480Y015866D01*
X031497Y016024D02*
X030730Y016024D01*
X030510Y016143D02*
X030760Y016393D01*
X031001Y016658D02*
X031559Y016658D01*
X031707Y016500D02*
X031103Y016500D01*
X031118Y016341D02*
X031785Y016341D01*
X031577Y016183D02*
X031055Y016183D01*
X030518Y016658D02*
X029902Y016658D01*
X029902Y016500D02*
X030416Y016500D01*
X030057Y016817D02*
X028235Y016817D01*
X028235Y016975D02*
X029942Y016975D01*
X029921Y017134D02*
X029835Y017134D01*
X029808Y017107D02*
X029902Y017201D01*
X029902Y017767D01*
X029808Y017860D01*
X029573Y017860D01*
X031980Y020267D01*
X031980Y020463D01*
X031980Y020304D02*
X035278Y020304D01*
X035278Y020462D02*
X033007Y020462D01*
X033166Y020621D02*
X035279Y020621D01*
X035279Y020779D02*
X033240Y020779D01*
X033240Y020938D02*
X035279Y020938D01*
X035279Y021096D02*
X033235Y021096D01*
X032780Y021572D02*
X032740Y021572D01*
X032740Y021730D02*
X032780Y021730D01*
X032740Y021889D02*
X032220Y021889D01*
X032220Y022047D02*
X032280Y022047D01*
X032220Y022084D02*
X031950Y022353D01*
X031569Y022353D01*
X031300Y022084D01*
X031300Y021703D01*
X031569Y021433D01*
X031950Y021433D01*
X032220Y021703D01*
X032220Y022084D01*
X032098Y022206D02*
X032393Y022206D01*
X032967Y022364D02*
X035281Y022364D01*
X035281Y022206D02*
X033126Y022206D01*
X032402Y021572D02*
X032089Y021572D01*
X032220Y021730D02*
X032280Y021730D01*
X032561Y021413D02*
X028047Y021413D01*
X028075Y021572D02*
X031430Y021572D01*
X031300Y021730D02*
X028018Y021730D01*
X027886Y021255D02*
X031471Y021255D01*
X031312Y021096D02*
X029035Y021096D01*
X029098Y020938D02*
X029647Y020938D01*
X029872Y020938D02*
X031300Y020938D01*
X031300Y020779D02*
X030044Y020779D01*
X030075Y020621D02*
X031381Y020621D01*
X031540Y020462D02*
X030024Y020462D01*
X029953Y020304D02*
X031394Y020304D01*
X031236Y020145D02*
X029794Y020145D01*
X029495Y020462D02*
X028611Y020462D01*
X028966Y020621D02*
X029445Y020621D01*
X029475Y020779D02*
X029079Y020779D01*
X028484Y021096D02*
X027595Y021096D01*
X027437Y020938D02*
X028421Y020938D01*
X028363Y020779D02*
X025265Y020779D01*
X025270Y020621D02*
X028204Y020621D01*
X027347Y021413D02*
X026662Y021413D01*
X026504Y021255D02*
X027188Y021255D01*
X026984Y021572D02*
X027445Y021572D01*
X027501Y021730D02*
X027074Y021730D01*
X027061Y021889D02*
X031300Y021889D01*
X031300Y022047D02*
X026951Y022047D01*
X026568Y022047D02*
X026275Y022047D01*
X026236Y021889D02*
X026458Y021889D01*
X026414Y021730D02*
X026027Y021730D01*
X025892Y021730D02*
X024475Y021730D01*
X023490Y022998D02*
X035282Y022998D01*
X035282Y022840D02*
X023300Y022840D01*
X023119Y022840D02*
X016798Y022840D01*
X016806Y022681D02*
X035282Y022681D01*
X035282Y022523D02*
X016806Y022523D01*
X016806Y022206D02*
X018436Y022206D01*
X018395Y022047D02*
X016806Y022047D01*
X015816Y022523D02*
X015683Y022523D01*
X015683Y022681D02*
X015816Y022681D01*
X015800Y022840D02*
X015824Y022840D01*
X013890Y023157D02*
X013569Y023157D01*
X013668Y023315D02*
X013890Y023315D01*
X013890Y023474D02*
X013667Y023474D01*
X013566Y023632D02*
X013890Y023632D01*
X013890Y023791D02*
X013075Y023791D01*
X013057Y023949D02*
X013890Y023949D01*
X013890Y024108D02*
X012940Y024108D01*
X013139Y024266D02*
X013890Y024266D01*
X013890Y024425D02*
X013248Y024425D01*
X013268Y024583D02*
X013758Y024583D01*
X013618Y025113D02*
X011035Y025113D01*
X010988Y025160D01*
X010872Y025208D01*
X010747Y025208D01*
X010631Y025160D01*
X010558Y025087D01*
X010558Y025291D01*
X010558Y025551D01*
X010545Y025597D01*
X010522Y025638D01*
X010488Y025671D01*
X010447Y025695D01*
X010401Y025707D01*
X010260Y025707D01*
X010260Y025291D01*
X010558Y025291D01*
X010260Y025291D01*
X010260Y025291D01*
X010260Y025291D01*
X010260Y024875D01*
X010401Y024875D01*
X010447Y024887D01*
X010488Y024911D01*
X010495Y024917D01*
X010495Y024831D01*
X010522Y024763D01*
X009601Y024763D01*
X009480Y024884D01*
X009480Y024930D01*
X009510Y024960D01*
X009575Y024895D01*
X009944Y024895D01*
X009996Y024947D01*
X009997Y024944D01*
X010031Y024911D01*
X010072Y024887D01*
X010118Y024875D01*
X010260Y024875D01*
X010260Y025291D01*
X010260Y025291D01*
X010260Y025707D01*
X010118Y025707D01*
X010072Y025695D01*
X010031Y025671D01*
X009997Y025638D01*
X009996Y025635D01*
X009944Y025687D01*
X009575Y025687D01*
X009510Y025622D01*
X009444Y025687D01*
X009360Y025687D01*
X009413Y025740D01*
X009468Y025872D01*
X009468Y026015D01*
X009413Y026146D01*
X009312Y026247D01*
X009181Y026301D01*
X009038Y026301D01*
X008907Y026247D01*
X008823Y026163D01*
X008564Y026163D01*
X008580Y026179D01*
X008637Y026318D01*
X008637Y026468D01*
X008580Y026607D01*
X008480Y026708D01*
X008480Y027135D01*
X008510Y027165D01*
X008575Y027099D01*
X008944Y027099D01*
X009010Y027165D01*
X009040Y027135D01*
X009040Y026802D01*
X009590Y026252D01*
X009718Y026123D01*
X012178Y026123D01*
X012113Y026058D01*
X012047Y026058D01*
X011931Y026010D01*
X011842Y025922D01*
X011795Y025806D01*
X011795Y025681D01*
X011842Y025565D01*
X011931Y025476D01*
X012047Y025428D01*
X012172Y025428D01*
X012288Y025476D01*
X012377Y025565D01*
X012425Y025681D01*
X012425Y025747D01*
X012701Y026023D01*
X014378Y026023D01*
X014240Y025884D01*
X014240Y025687D01*
X014075Y025687D01*
X013981Y025593D01*
X013981Y025463D01*
X013968Y025463D01*
X013840Y025334D01*
X013618Y025113D01*
X013722Y025217D02*
X010558Y025217D01*
X010558Y025376D02*
X013881Y025376D01*
X013981Y025534D02*
X012346Y025534D01*
X012425Y025693D02*
X014240Y025693D01*
X014240Y025851D02*
X012529Y025851D01*
X012687Y026010D02*
X014365Y026010D01*
X012680Y024266D02*
X012648Y024266D01*
X012445Y023791D02*
X009875Y023791D01*
X009834Y023632D02*
X012525Y023632D01*
X012994Y023632D02*
X013153Y023632D01*
X011344Y022523D02*
X010806Y022523D01*
X010806Y022206D02*
X011326Y022206D01*
X011295Y022364D02*
X010388Y022364D01*
X010388Y022206D02*
X010233Y022206D01*
X010233Y022316D02*
X010233Y021820D01*
X009972Y021820D01*
X009926Y021832D01*
X009885Y021856D01*
X009852Y021889D01*
X009893Y021572D02*
X007428Y021572D01*
X007496Y021503D02*
X007496Y021503D01*
X007586Y021413D02*
X009845Y021413D01*
X009876Y021255D02*
X008049Y021255D01*
X008049Y021096D02*
X009567Y021096D01*
X009581Y021110D02*
X009492Y021022D01*
X009445Y020906D01*
X009445Y020781D01*
X009492Y020665D01*
X009581Y020576D01*
X009697Y020528D01*
X009822Y020528D01*
X009938Y020576D01*
X009985Y020623D01*
X011634Y020623D01*
X011681Y020576D01*
X011797Y020528D01*
X011922Y020528D01*
X012038Y020576D01*
X012127Y020665D01*
X012175Y020781D01*
X012175Y020906D01*
X012127Y021022D01*
X012038Y021110D01*
X011922Y021158D01*
X011797Y021158D01*
X011681Y021110D01*
X011634Y021063D01*
X009985Y021063D01*
X009938Y021110D01*
X009822Y021158D01*
X009697Y021158D01*
X009581Y021110D01*
X009458Y020938D02*
X008049Y020938D01*
X008049Y020779D02*
X009445Y020779D01*
X009537Y020621D02*
X008049Y020621D01*
X008000Y020462D02*
X012710Y020462D01*
X012710Y020304D02*
X006767Y020304D01*
X006609Y020145D02*
X012710Y020145D01*
X012710Y019987D02*
X006450Y019987D01*
X006370Y019828D02*
X006756Y019828D01*
X006775Y019838D02*
X006708Y019804D01*
X006647Y019759D01*
X006593Y019706D01*
X006549Y019645D01*
X006515Y019578D01*
X006491Y019506D01*
X006480Y019431D01*
X006480Y019413D01*
X007240Y019413D01*
X007240Y019873D01*
X006922Y019873D01*
X006847Y019861D01*
X006775Y019838D01*
X006567Y019670D02*
X006370Y019670D01*
X006370Y019511D02*
X006493Y019511D01*
X006480Y019373D02*
X006480Y019356D01*
X006491Y019281D01*
X006515Y019209D01*
X006549Y019142D01*
X006593Y019081D01*
X006647Y019027D01*
X006708Y018983D01*
X006775Y018948D01*
X006847Y018925D01*
X006922Y018913D01*
X007240Y018913D01*
X007240Y019373D01*
X007280Y019373D01*
X007280Y019413D01*
X008040Y019413D01*
X008040Y019431D01*
X008028Y019506D01*
X008004Y019578D01*
X007970Y019645D01*
X007926Y019706D01*
X007872Y019759D01*
X007811Y019804D01*
X007744Y019838D01*
X007672Y019861D01*
X007597Y019873D01*
X007280Y019873D01*
X007280Y019413D01*
X007240Y019413D01*
X007240Y019373D01*
X006480Y019373D01*
X006480Y019353D02*
X006370Y019353D01*
X006370Y019194D02*
X006522Y019194D01*
X006638Y019036D02*
X006370Y019036D01*
X006370Y018877D02*
X008882Y018877D01*
X008724Y018719D02*
X007885Y018719D01*
X007744Y018948D02*
X007811Y018983D01*
X007872Y019027D01*
X007926Y019081D01*
X007970Y019142D01*
X008004Y019209D01*
X008028Y019281D01*
X008040Y019356D01*
X008040Y019373D01*
X007280Y019373D01*
X007280Y018913D01*
X007597Y018913D01*
X007672Y018925D01*
X007744Y018948D01*
X007881Y019036D02*
X009041Y019036D01*
X009081Y019194D02*
X007997Y019194D01*
X008039Y019353D02*
X009284Y019353D01*
X009435Y019353D02*
X010224Y019353D01*
X010110Y019194D02*
X009638Y019194D01*
X009675Y019036D02*
X010095Y019036D01*
X010180Y018877D02*
X009771Y018877D01*
X009869Y018719D02*
X011620Y018719D01*
X011595Y018877D02*
X010639Y018877D01*
X010725Y019036D02*
X011657Y019036D01*
X011770Y018560D02*
X009866Y018560D01*
X009834Y018402D02*
X011832Y018402D01*
X011877Y018447D02*
X011877Y018447D01*
X011706Y018275D02*
X011706Y018275D01*
X011674Y018243D02*
X009992Y018243D01*
X010151Y018085D02*
X011487Y018085D01*
X011502Y018099D02*
X011565Y018037D01*
X011565Y018037D01*
X011502Y018099D01*
X011516Y018085D02*
X011516Y018085D01*
X011357Y017926D02*
X010309Y017926D01*
X010468Y017768D02*
X011198Y017768D01*
X011019Y017609D02*
X010626Y017609D01*
X010785Y017451D02*
X010881Y017451D01*
X009902Y017768D02*
X007836Y017768D01*
X007902Y018085D02*
X009585Y018085D01*
X009427Y018243D02*
X008871Y018243D01*
X009029Y018402D02*
X009310Y018402D01*
X009253Y018560D02*
X009188Y018560D01*
X009744Y017926D02*
X006370Y017926D01*
X006370Y017768D02*
X006684Y017768D01*
X006551Y017609D02*
X006370Y017609D01*
X006449Y017451D02*
X006500Y017451D01*
X006617Y018085D02*
X006370Y018085D01*
X006370Y018243D02*
X006524Y018243D01*
X006500Y018402D02*
X006370Y018402D01*
X006370Y018560D02*
X006531Y018560D01*
X006635Y018719D02*
X006370Y018719D01*
X005450Y018719D02*
X004240Y018719D01*
X004240Y018877D02*
X005450Y018877D01*
X005450Y019036D02*
X004240Y019036D01*
X004240Y019194D02*
X005450Y019194D01*
X005450Y019353D02*
X004240Y019353D01*
X004240Y019511D02*
X005450Y019511D01*
X005450Y019670D02*
X004240Y019670D01*
X004240Y019828D02*
X005450Y019828D01*
X005450Y019987D02*
X004240Y019987D01*
X004240Y020145D02*
X005450Y020145D01*
X005450Y020304D02*
X004240Y020304D01*
X004240Y020462D02*
X005450Y020462D01*
X005450Y020621D02*
X004240Y020621D01*
X004240Y020779D02*
X005450Y020779D01*
X005450Y020938D02*
X004240Y020938D01*
X004240Y021096D02*
X005450Y021096D01*
X005450Y021255D02*
X004240Y021255D01*
X004240Y021413D02*
X005483Y021413D01*
X005641Y021572D02*
X004240Y021572D01*
X004240Y021730D02*
X005800Y021730D01*
X005945Y021889D02*
X004240Y021889D01*
X004240Y022047D02*
X005045Y022047D01*
X005045Y022206D02*
X004240Y022206D01*
X004240Y022364D02*
X005045Y022364D01*
X005045Y022523D02*
X004240Y022523D01*
X004240Y022681D02*
X005045Y022681D01*
X005120Y022840D02*
X004240Y022840D01*
X004705Y023632D02*
X005025Y023632D01*
X005025Y023791D02*
X004805Y023791D01*
X004818Y023949D02*
X005081Y023949D01*
X004785Y024108D02*
X008262Y024108D01*
X008104Y024266D02*
X007444Y024266D01*
X007602Y024425D02*
X008060Y024425D01*
X008060Y024583D02*
X007761Y024583D01*
X007919Y024742D02*
X008060Y024742D01*
X008060Y024900D02*
X007980Y024900D01*
X006981Y025376D02*
X004240Y025376D01*
X004240Y025534D02*
X005639Y025534D01*
X005880Y025534D02*
X006981Y025534D01*
X006875Y025217D02*
X004240Y025217D01*
X004240Y025059D02*
X006487Y025059D01*
X006445Y024900D02*
X004240Y024900D01*
X004240Y024742D02*
X006481Y024742D01*
X005434Y025693D02*
X004240Y025693D01*
X004240Y025851D02*
X005382Y025851D01*
X005399Y026010D02*
X004240Y026010D01*
X004240Y026168D02*
X005500Y026168D01*
X006019Y026168D02*
X007223Y026168D01*
X007382Y026327D02*
X004240Y026327D01*
X004240Y026485D02*
X007540Y026485D01*
X007540Y026644D02*
X004240Y026644D01*
X004240Y026802D02*
X007540Y026802D01*
X007540Y026961D02*
X004240Y026961D01*
X004240Y027119D02*
X007055Y027119D01*
X006981Y027278D02*
X004240Y027278D01*
X004240Y027436D02*
X006981Y027436D01*
X006981Y027595D02*
X004240Y027595D01*
X004240Y027753D02*
X006981Y027753D01*
X007040Y027912D02*
X004240Y027912D01*
X004240Y028070D02*
X007040Y028070D01*
X007184Y028229D02*
X004240Y028229D01*
X004240Y028387D02*
X007342Y028387D01*
X007496Y028546D02*
X004240Y028546D01*
X004240Y028704D02*
X006998Y028704D01*
X006857Y028863D02*
X004240Y028863D01*
X004240Y029021D02*
X006800Y029021D01*
X006800Y029180D02*
X004240Y029180D01*
X004240Y029338D02*
X006800Y029338D01*
X006800Y029497D02*
X004240Y029497D01*
X004240Y029655D02*
X006800Y029655D01*
X006812Y029814D02*
X004240Y029814D01*
X004240Y029972D02*
X006888Y029972D01*
X007040Y030131D02*
X004240Y030131D01*
X004240Y030289D02*
X007094Y030289D01*
X007253Y030448D02*
X004240Y030448D01*
X004240Y030606D02*
X007411Y030606D01*
X007570Y030765D02*
X004240Y030765D01*
X004240Y030923D02*
X011945Y030923D01*
X012431Y030310D02*
X012342Y030222D01*
X012295Y030106D01*
X012295Y029981D01*
X012342Y029865D01*
X012431Y029776D01*
X012547Y029728D01*
X012672Y029728D01*
X012788Y029776D01*
X012877Y029865D01*
X012925Y029981D01*
X012925Y030033D01*
X013921Y030033D01*
X013893Y030006D01*
X013849Y029945D01*
X013815Y029878D01*
X013791Y029806D01*
X013780Y029731D01*
X013780Y029413D01*
X014240Y029413D01*
X014240Y029373D01*
X013780Y029373D01*
X013780Y029056D01*
X013791Y028981D01*
X013815Y028909D01*
X013849Y028842D01*
X013893Y028781D01*
X013947Y028727D01*
X013966Y028713D01*
X012025Y028713D01*
X012027Y028715D01*
X012075Y028831D01*
X012075Y028956D01*
X012027Y029072D01*
X011938Y029160D01*
X011822Y029208D01*
X011697Y029208D01*
X011581Y029160D01*
X011534Y029113D01*
X010740Y029113D01*
X010740Y029373D01*
X010280Y029373D01*
X010280Y029413D01*
X010740Y029413D01*
X010740Y029731D01*
X010728Y029806D01*
X010704Y029878D01*
X010670Y029945D01*
X010626Y030006D01*
X010608Y030023D01*
X010868Y030023D01*
X010945Y029947D01*
X010945Y029831D01*
X010992Y029715D01*
X011081Y029626D01*
X011197Y029578D01*
X011322Y029578D01*
X011438Y029626D01*
X011527Y029715D01*
X011575Y029831D01*
X011575Y029956D01*
X011527Y030072D01*
X011438Y030160D01*
X011322Y030208D01*
X011306Y030208D01*
X011141Y030373D01*
X012643Y030373D01*
X012628Y030358D01*
X012547Y030358D01*
X012431Y030310D01*
X012410Y030289D02*
X011225Y030289D01*
X011467Y030131D02*
X012305Y030131D01*
X012298Y029972D02*
X011568Y029972D01*
X011568Y029814D02*
X012393Y029814D01*
X012826Y029814D02*
X013794Y029814D01*
X013780Y029655D02*
X011467Y029655D01*
X011052Y029655D02*
X010740Y029655D01*
X010740Y029497D02*
X013780Y029497D01*
X013780Y029338D02*
X010740Y029338D01*
X010740Y029180D02*
X011628Y029180D01*
X011891Y029180D02*
X013780Y029180D01*
X013785Y029021D02*
X012047Y029021D01*
X012075Y028863D02*
X013838Y028863D01*
X014280Y029373D02*
X014280Y029413D01*
X014740Y029413D01*
X014740Y029731D01*
X014728Y029806D01*
X014704Y029878D01*
X014670Y029945D01*
X014626Y030006D01*
X014598Y030033D01*
X014858Y030033D01*
X014904Y029988D01*
X014870Y029954D01*
X014800Y029785D01*
X014800Y029002D01*
X014870Y028833D01*
X014989Y028713D01*
X014553Y028713D01*
X014572Y028727D01*
X014626Y028781D01*
X014670Y028842D01*
X014704Y028909D01*
X014728Y028981D01*
X014740Y029056D01*
X014740Y029373D01*
X014280Y029373D01*
X014740Y029338D02*
X014800Y029338D01*
X014800Y029180D02*
X014740Y029180D01*
X014734Y029021D02*
X014800Y029021D01*
X014857Y028863D02*
X014681Y028863D01*
X014740Y029497D02*
X014800Y029497D01*
X014800Y029655D02*
X014740Y029655D01*
X014725Y029814D02*
X014812Y029814D01*
X014888Y029972D02*
X014650Y029972D01*
X013869Y029972D02*
X012921Y029972D01*
X013305Y031874D02*
X004240Y031874D01*
X004240Y031716D02*
X035296Y031716D01*
X035296Y031874D02*
X026214Y031874D01*
X026469Y032033D02*
X035297Y032033D01*
X035297Y032191D02*
X026627Y032191D01*
X026727Y032350D02*
X035297Y032350D01*
X035296Y031557D02*
X030786Y031557D01*
X030961Y031399D02*
X035296Y031399D01*
X035295Y031240D02*
X030998Y031240D01*
X030959Y031082D02*
X035295Y031082D01*
X035295Y030923D02*
X030771Y030923D01*
X030548Y030923D02*
X018575Y030923D01*
X018547Y030765D02*
X035295Y030765D01*
X035294Y030606D02*
X031808Y030606D01*
X031966Y030448D02*
X035294Y030448D01*
X035294Y030289D02*
X032125Y030289D01*
X032417Y030131D02*
X035294Y030131D01*
X035293Y029972D02*
X032518Y029972D01*
X032518Y029814D02*
X035293Y029814D01*
X035293Y029655D02*
X032417Y029655D01*
X032002Y029655D02*
X030220Y029655D01*
X030220Y029785D02*
X030149Y029954D01*
X030020Y030083D01*
X029851Y030153D01*
X029668Y030153D01*
X029499Y030083D01*
X029370Y029954D01*
X029300Y029785D01*
X029300Y029002D01*
X029370Y028833D01*
X029499Y028703D01*
X029668Y028633D01*
X029851Y028633D01*
X030020Y028703D01*
X030149Y028833D01*
X030220Y029002D01*
X030220Y029785D01*
X030207Y029814D02*
X031901Y029814D01*
X031819Y029972D02*
X030131Y029972D01*
X029905Y030131D02*
X031661Y030131D01*
X030220Y029497D02*
X035293Y029497D01*
X035292Y029338D02*
X030220Y029338D01*
X030220Y029180D02*
X035292Y029180D01*
X035292Y029021D02*
X030220Y029021D01*
X030162Y028863D02*
X035292Y028863D01*
X035291Y028704D02*
X030021Y028704D01*
X029498Y028704D02*
X029021Y028704D01*
X029020Y028703D02*
X029149Y028833D01*
X029220Y029002D01*
X029220Y029785D01*
X029149Y029954D01*
X029020Y030083D01*
X028851Y030153D01*
X028668Y030153D01*
X028499Y030083D01*
X028370Y029954D01*
X028300Y029785D01*
X028300Y029002D01*
X028370Y028833D01*
X028499Y028703D01*
X028668Y028633D01*
X028851Y028633D01*
X029020Y028703D01*
X029162Y028863D02*
X029357Y028863D01*
X029300Y029021D02*
X029220Y029021D01*
X029220Y029180D02*
X029300Y029180D01*
X029300Y029338D02*
X029220Y029338D01*
X029220Y029497D02*
X029300Y029497D01*
X029300Y029655D02*
X029220Y029655D01*
X029207Y029814D02*
X029312Y029814D01*
X029388Y029972D02*
X029131Y029972D01*
X028905Y030131D02*
X029614Y030131D01*
X028614Y030131D02*
X027905Y030131D01*
X028131Y029972D02*
X028388Y029972D01*
X028312Y029814D02*
X028207Y029814D01*
X028220Y029655D02*
X028300Y029655D01*
X028300Y029497D02*
X028220Y029497D01*
X028220Y029338D02*
X028300Y029338D01*
X028300Y029180D02*
X028220Y029180D01*
X028220Y029021D02*
X028300Y029021D01*
X028357Y028863D02*
X028162Y028863D01*
X028332Y028704D02*
X028498Y028704D01*
X028537Y028546D02*
X035291Y028546D01*
X035291Y028387D02*
X028575Y028387D01*
X027357Y028863D02*
X027162Y028863D01*
X027220Y029021D02*
X027300Y029021D01*
X027300Y029180D02*
X027220Y029180D01*
X027220Y029338D02*
X027300Y029338D01*
X027300Y029497D02*
X027220Y029497D01*
X027220Y029655D02*
X027300Y029655D01*
X027312Y029814D02*
X027207Y029814D01*
X027131Y029972D02*
X027388Y029972D01*
X027614Y030131D02*
X026905Y030131D01*
X026614Y030131D02*
X025905Y030131D01*
X026131Y029972D02*
X026388Y029972D01*
X026312Y029814D02*
X026207Y029814D01*
X026220Y029655D02*
X026300Y029655D01*
X026300Y029497D02*
X026220Y029497D01*
X026220Y029338D02*
X026300Y029338D01*
X026300Y029180D02*
X026220Y029180D01*
X026220Y029021D02*
X026300Y029021D01*
X026357Y028863D02*
X026162Y028863D01*
X025357Y028863D02*
X025162Y028863D01*
X025220Y029021D02*
X025300Y029021D01*
X025300Y029180D02*
X025220Y029180D01*
X025220Y029338D02*
X025300Y029338D01*
X025300Y029497D02*
X025220Y029497D01*
X025220Y029655D02*
X025300Y029655D01*
X025312Y029814D02*
X025207Y029814D01*
X025131Y029972D02*
X025388Y029972D01*
X025614Y030131D02*
X024905Y030131D01*
X024614Y030131D02*
X023905Y030131D01*
X024131Y029972D02*
X024388Y029972D01*
X024312Y029814D02*
X024207Y029814D01*
X024220Y029655D02*
X024300Y029655D01*
X024300Y029497D02*
X024220Y029497D01*
X024220Y029338D02*
X024300Y029338D01*
X024300Y029180D02*
X024220Y029180D01*
X024220Y029021D02*
X024300Y029021D01*
X024357Y028863D02*
X024162Y028863D01*
X023357Y028863D02*
X023162Y028863D01*
X023220Y029021D02*
X023300Y029021D01*
X023300Y029180D02*
X023220Y029180D01*
X023220Y029338D02*
X023300Y029338D01*
X023300Y029497D02*
X023220Y029497D01*
X023220Y029655D02*
X023300Y029655D01*
X023312Y029814D02*
X023207Y029814D01*
X023131Y029972D02*
X023388Y029972D01*
X023614Y030131D02*
X022905Y030131D01*
X022614Y030131D02*
X022308Y030131D01*
X022388Y029972D02*
X022150Y029972D01*
X022207Y029814D02*
X022312Y029814D01*
X022300Y029655D02*
X022220Y029655D01*
X022220Y029497D02*
X022300Y029497D01*
X022300Y029338D02*
X022220Y029338D01*
X022220Y029180D02*
X022300Y029180D01*
X022300Y029021D02*
X022220Y029021D01*
X022162Y028863D02*
X022357Y028863D01*
X021489Y028713D02*
X021053Y028713D01*
X021072Y028727D01*
X021126Y028781D01*
X021170Y028842D01*
X021204Y028909D01*
X021228Y028981D01*
X021240Y029056D01*
X021240Y029373D01*
X020780Y029373D01*
X020780Y029413D01*
X021240Y029413D01*
X021240Y029731D01*
X021228Y029806D01*
X021204Y029878D01*
X021170Y029945D01*
X021126Y030006D01*
X021072Y030059D01*
X021011Y030104D01*
X020944Y030138D01*
X020872Y030161D01*
X020797Y030173D01*
X020780Y030173D01*
X020780Y029413D01*
X020740Y029413D01*
X020740Y030173D01*
X020722Y030173D01*
X020647Y030161D01*
X020575Y030138D01*
X020508Y030104D01*
X020447Y030059D01*
X020393Y030006D01*
X020349Y029945D01*
X020315Y029878D01*
X020291Y029806D01*
X020280Y029731D01*
X020280Y029413D01*
X020740Y029413D01*
X020740Y029373D01*
X020280Y029373D01*
X020280Y029056D01*
X020291Y028981D01*
X020315Y028909D01*
X020349Y028842D01*
X020393Y028781D01*
X020447Y028727D01*
X020466Y028713D01*
X017530Y028713D01*
X017649Y028833D01*
X017720Y029002D01*
X017720Y029542D01*
X018351Y030173D01*
X021168Y030173D01*
X021379Y029963D01*
X021370Y029954D01*
X021300Y029785D01*
X021300Y029002D01*
X021370Y028833D01*
X021489Y028713D01*
X021357Y028863D02*
X021181Y028863D01*
X021234Y029021D02*
X021300Y029021D01*
X021300Y029180D02*
X021240Y029180D01*
X021240Y029338D02*
X021300Y029338D01*
X021300Y029497D02*
X021240Y029497D01*
X021240Y029655D02*
X021300Y029655D01*
X021312Y029814D02*
X021225Y029814D01*
X021150Y029972D02*
X021369Y029972D01*
X021211Y030131D02*
X020958Y030131D01*
X020780Y030131D02*
X020740Y030131D01*
X020740Y029972D02*
X020780Y029972D01*
X020780Y029814D02*
X020740Y029814D01*
X020740Y029655D02*
X020780Y029655D01*
X020780Y029497D02*
X020740Y029497D01*
X020280Y029497D02*
X017720Y029497D01*
X017720Y029338D02*
X020280Y029338D01*
X020280Y029180D02*
X017720Y029180D01*
X017720Y029021D02*
X020285Y029021D01*
X020338Y028863D02*
X017662Y028863D01*
X017833Y029655D02*
X020280Y029655D01*
X020294Y029814D02*
X017991Y029814D01*
X018150Y029972D02*
X020369Y029972D01*
X020561Y030131D02*
X018308Y030131D01*
X021358Y030606D02*
X022161Y030606D01*
X022003Y030448D02*
X021516Y030448D01*
X021675Y030289D02*
X021844Y030289D01*
X024892Y032191D02*
X014627Y032191D01*
X014727Y032350D02*
X024792Y032350D01*
X025050Y032033D02*
X014469Y032033D01*
X014214Y031874D02*
X025305Y031874D01*
X026062Y027436D02*
X032905Y027436D01*
X032776Y027278D02*
X033064Y027278D01*
X033195Y027119D02*
X032914Y027119D01*
X032970Y026961D02*
X033246Y026961D01*
X032970Y026802D02*
X035288Y026802D01*
X035288Y026644D02*
X032904Y026644D01*
X032727Y026485D02*
X035288Y026485D01*
X035288Y026327D02*
X032665Y026327D01*
X032885Y026168D02*
X035287Y026168D01*
X035287Y026010D02*
X032959Y026010D01*
X032970Y025851D02*
X035287Y025851D01*
X035287Y025693D02*
X032924Y025693D01*
X032801Y025534D02*
X035286Y025534D01*
X035286Y025376D02*
X032003Y025376D01*
X031539Y025534D02*
X031012Y025534D01*
X030853Y025376D02*
X031381Y025376D01*
X031222Y025217D02*
X030208Y025217D01*
X030192Y025693D02*
X030548Y025693D01*
X030706Y025851D02*
X030208Y025851D01*
X030208Y026010D02*
X030771Y026010D01*
X030856Y026168D02*
X030168Y026168D01*
X030208Y026327D02*
X031754Y026327D01*
X031692Y026485D02*
X030208Y026485D01*
X030439Y026644D02*
X031515Y026644D01*
X031450Y026802D02*
X030538Y026802D01*
X030548Y026961D02*
X030496Y027085D01*
X029957Y027119D02*
X025981Y027119D01*
X026073Y027278D02*
X031644Y027278D01*
X031534Y026168D02*
X031363Y026168D01*
X031448Y026010D02*
X031460Y026010D01*
X031450Y025851D02*
X031438Y025851D01*
X031495Y025693D02*
X031338Y025693D01*
X032052Y024425D02*
X035285Y024425D01*
X035285Y024583D02*
X032850Y024583D01*
X032945Y024742D02*
X035285Y024742D01*
X035285Y024900D02*
X032970Y024900D01*
X032939Y025059D02*
X035286Y025059D01*
X035286Y025217D02*
X032836Y025217D01*
X032622Y024361D02*
X032547Y024373D01*
X032230Y024373D01*
X032230Y023913D01*
X032990Y023913D01*
X032990Y023931D01*
X032978Y024006D01*
X032954Y024078D01*
X032920Y024145D01*
X032876Y024206D01*
X032822Y024259D01*
X032761Y024304D01*
X032694Y024338D01*
X032622Y024361D01*
X032813Y024266D02*
X035284Y024266D01*
X035284Y024108D02*
X032939Y024108D01*
X032987Y023949D02*
X035284Y023949D01*
X035284Y023791D02*
X032979Y023791D01*
X032978Y023781D02*
X032990Y023856D01*
X032990Y023873D01*
X032230Y023873D01*
X032230Y023913D01*
X032190Y023913D01*
X032190Y023873D01*
X032230Y023873D01*
X032230Y023413D01*
X032547Y023413D01*
X032622Y023425D01*
X032694Y023448D01*
X032761Y023483D01*
X032822Y023527D01*
X032876Y023581D01*
X032920Y023642D01*
X032954Y023709D01*
X032978Y023781D01*
X032913Y023632D02*
X035283Y023632D01*
X035283Y023474D02*
X032744Y023474D01*
X032230Y023474D02*
X032190Y023474D01*
X032190Y023413D02*
X031872Y023413D01*
X031797Y023425D01*
X031725Y023448D01*
X031658Y023483D01*
X031597Y023527D01*
X031543Y023581D01*
X031499Y023642D01*
X031465Y023709D01*
X031441Y023781D01*
X031430Y023856D01*
X031430Y023873D01*
X032190Y023873D01*
X032190Y023413D01*
X032190Y023632D02*
X032230Y023632D01*
X032230Y023791D02*
X032190Y023791D01*
X032190Y023949D02*
X032230Y023949D01*
X032230Y024108D02*
X032190Y024108D01*
X032190Y024266D02*
X032230Y024266D01*
X031480Y024108D02*
X030178Y024108D01*
X030208Y023949D02*
X031432Y023949D01*
X031440Y023791D02*
X030208Y023791D01*
X030153Y023632D02*
X031506Y023632D01*
X031675Y023474D02*
X030208Y023474D01*
X030208Y023315D02*
X035283Y023315D01*
X035283Y023157D02*
X030156Y023157D01*
X029470Y023632D02*
X029466Y023632D01*
X029416Y023791D02*
X028003Y023791D01*
X028003Y023949D02*
X029416Y023949D01*
X029446Y024108D02*
X027973Y024108D01*
X028003Y024266D02*
X029416Y024266D01*
X029416Y024425D02*
X028003Y024425D01*
X027998Y024583D02*
X029421Y024583D01*
X029416Y024742D02*
X028003Y024742D01*
X028003Y024900D02*
X029416Y024900D01*
X029416Y025059D02*
X028003Y025059D01*
X028003Y025217D02*
X029416Y025217D01*
X029416Y025376D02*
X028003Y025376D01*
X028003Y025534D02*
X029416Y025534D01*
X029416Y026377D02*
X029377Y026472D01*
X029288Y026560D01*
X029172Y026608D01*
X029106Y026608D01*
X029101Y026613D01*
X027968Y026613D01*
X027910Y026671D01*
X027305Y026671D01*
X027247Y026613D01*
X026198Y026613D01*
X025848Y026963D01*
X026009Y026802D02*
X029807Y026802D01*
X029871Y026866D02*
X029676Y026671D01*
X029509Y026671D01*
X029416Y026578D01*
X029416Y026377D01*
X029416Y026485D02*
X029363Y026485D01*
X029482Y026644D02*
X027937Y026644D01*
X027277Y026644D02*
X026168Y026644D01*
X025796Y026393D02*
X025490Y026087D01*
X025490Y025919D01*
X025250Y025919D01*
X025156Y025826D01*
X025156Y025143D01*
X023727Y025143D01*
X022692Y024108D01*
X022648Y024108D01*
X022648Y024211D01*
X022596Y024335D01*
X022501Y024430D01*
X022377Y024482D01*
X022242Y024482D01*
X022118Y024430D01*
X022081Y024393D01*
X020577Y024393D01*
X020460Y024276D01*
X020427Y024243D01*
X019508Y024243D01*
X019588Y024276D01*
X019677Y024365D01*
X019725Y024481D01*
X019725Y024606D01*
X019677Y024722D01*
X019588Y024810D01*
X019472Y024858D01*
X019391Y024858D01*
X019346Y024903D01*
X017475Y024903D01*
X017488Y024911D01*
X017522Y024944D01*
X017545Y024985D01*
X017558Y025031D01*
X017558Y025150D01*
X017581Y025126D01*
X017697Y025078D01*
X017822Y025078D01*
X017938Y025126D01*
X017995Y025183D01*
X021373Y025183D01*
X021595Y024961D01*
X021595Y024881D01*
X021642Y024765D01*
X021731Y024676D01*
X021847Y024628D01*
X021972Y024628D01*
X022088Y024676D01*
X022177Y024765D01*
X022225Y024881D01*
X022225Y025006D01*
X022177Y025122D01*
X022088Y025210D01*
X021972Y025258D01*
X021891Y025258D01*
X021576Y025573D01*
X023201Y025573D01*
X023363Y025735D01*
X023431Y025735D01*
X023562Y025790D01*
X023663Y025890D01*
X023718Y026022D01*
X023718Y026165D01*
X023663Y026296D01*
X023562Y026397D01*
X023431Y026451D01*
X023288Y026451D01*
X023157Y026397D01*
X023056Y026296D01*
X023001Y026165D01*
X023001Y026022D01*
X023005Y026013D01*
X020357Y026013D01*
X020388Y026026D01*
X020477Y026115D01*
X020525Y026231D01*
X020525Y026356D01*
X020477Y026472D01*
X020425Y026523D01*
X025666Y026523D01*
X025796Y026393D01*
X025730Y026327D02*
X023632Y026327D01*
X023716Y026168D02*
X025571Y026168D01*
X025490Y026010D02*
X023713Y026010D01*
X023624Y025851D02*
X025181Y025851D01*
X025156Y025693D02*
X023320Y025693D01*
X023003Y026168D02*
X020499Y026168D01*
X020525Y026327D02*
X023087Y026327D01*
X022071Y025217D02*
X025156Y025217D01*
X025156Y025376D02*
X021774Y025376D01*
X021615Y025534D02*
X025156Y025534D01*
X025704Y026485D02*
X020463Y026485D01*
X021497Y025059D02*
X017558Y025059D01*
X017461Y025291D02*
X017260Y025291D01*
X017461Y025291D01*
X017461Y025291D01*
X017260Y025291D02*
X017260Y025291D01*
X019349Y024900D02*
X021595Y024900D01*
X021666Y024742D02*
X019656Y024742D01*
X019725Y024583D02*
X023167Y024583D01*
X023008Y024425D02*
X022507Y024425D01*
X022625Y024266D02*
X022850Y024266D01*
X023098Y023949D02*
X025153Y023949D01*
X025136Y024108D02*
X023257Y024108D01*
X023415Y024266D02*
X025632Y024266D01*
X025787Y024265D02*
X025787Y023847D01*
X026127Y023847D01*
X026173Y023859D01*
X026214Y023883D01*
X026247Y023917D01*
X026271Y023958D01*
X026283Y024003D01*
X026283Y024265D01*
X025787Y024265D01*
X025787Y024266D02*
X026550Y024266D01*
X026550Y024108D02*
X026283Y024108D01*
X026266Y023949D02*
X026550Y023949D01*
X026550Y023791D02*
X022975Y023791D01*
X023525Y023157D02*
X024128Y023157D01*
X024391Y023157D02*
X024778Y023157D01*
X024622Y023315D02*
X024547Y023315D01*
X024575Y023474D02*
X024595Y023474D01*
X024653Y023632D02*
X024516Y023632D01*
X025041Y023157D02*
X027235Y023157D01*
X027191Y023315D02*
X026664Y023315D01*
X026823Y023474D02*
X027191Y023474D01*
X027237Y023632D02*
X026970Y023632D01*
X027607Y023315D02*
X027607Y023315D01*
X027607Y023157D02*
X027607Y023157D01*
X027980Y023157D02*
X029051Y023157D01*
X028951Y023315D02*
X028023Y023315D01*
X028023Y023474D02*
X028952Y023474D01*
X029053Y023632D02*
X027977Y023632D01*
X026811Y024742D02*
X026262Y024742D01*
X026283Y024583D02*
X026653Y024583D01*
X026550Y024425D02*
X026283Y024425D01*
X025787Y024108D02*
X025632Y024108D01*
X025632Y023949D02*
X025787Y023949D01*
X025136Y024425D02*
X023574Y024425D01*
X023732Y024583D02*
X025136Y024583D01*
X025157Y024742D02*
X023891Y024742D01*
X023642Y025059D02*
X022203Y025059D01*
X022225Y024900D02*
X023484Y024900D01*
X023325Y024742D02*
X022154Y024742D01*
X022112Y024425D02*
X019701Y024425D01*
X019564Y024266D02*
X020450Y024266D01*
X022662Y019987D02*
X031077Y019987D01*
X030919Y019828D02*
X022674Y019828D01*
X022582Y019670D02*
X030760Y019670D01*
X030602Y019511D02*
X030170Y019511D01*
X030280Y019353D02*
X030443Y019353D01*
X030749Y019036D02*
X031063Y019036D01*
X031124Y019097D02*
X030735Y018708D01*
X030697Y018708D01*
X030581Y018660D01*
X030492Y018572D01*
X030445Y018456D01*
X030445Y018331D01*
X030492Y018215D01*
X030581Y018126D01*
X030697Y018078D01*
X030822Y018078D01*
X030938Y018126D01*
X031027Y018215D01*
X031075Y018331D01*
X031075Y018369D01*
X031359Y018653D01*
X031561Y018653D01*
X031570Y018633D01*
X031699Y018503D01*
X031868Y018433D01*
X032651Y018433D01*
X032820Y018503D01*
X032949Y018633D01*
X033020Y018802D01*
X033020Y018985D01*
X032949Y019154D01*
X032820Y019283D01*
X032651Y019353D01*
X031868Y019353D01*
X031699Y019283D01*
X031570Y019154D01*
X031561Y019133D01*
X031212Y019133D01*
X031124Y019097D01*
X030907Y019194D02*
X031610Y019194D01*
X031867Y019353D02*
X031066Y019353D01*
X031224Y019511D02*
X035277Y019511D01*
X035277Y019353D02*
X032652Y019353D01*
X032909Y019194D02*
X035276Y019194D01*
X035276Y019036D02*
X032998Y019036D01*
X033020Y018877D02*
X035276Y018877D01*
X035276Y018719D02*
X032985Y018719D01*
X032877Y018560D02*
X035275Y018560D01*
X035275Y018402D02*
X031107Y018402D01*
X031038Y018243D02*
X031659Y018243D01*
X031699Y018283D02*
X031570Y018154D01*
X031500Y017985D01*
X031500Y017802D01*
X031570Y017633D01*
X031699Y017503D01*
X031868Y017433D01*
X032651Y017433D01*
X032820Y017503D01*
X032949Y017633D01*
X033020Y017802D01*
X033020Y017985D01*
X032949Y018154D01*
X032820Y018283D01*
X032651Y018353D01*
X031868Y018353D01*
X031699Y018283D01*
X031541Y018085D02*
X030838Y018085D01*
X030681Y018085D02*
X029798Y018085D01*
X029956Y018243D02*
X030481Y018243D01*
X030445Y018402D02*
X030115Y018402D01*
X030273Y018560D02*
X030488Y018560D01*
X030432Y018719D02*
X030746Y018719D01*
X030590Y018877D02*
X030904Y018877D01*
X031260Y018893D02*
X030760Y018393D01*
X031266Y018560D02*
X031642Y018560D01*
X031260Y018893D02*
X032260Y018893D01*
X032860Y018243D02*
X035275Y018243D01*
X035275Y018085D02*
X032978Y018085D01*
X033020Y017926D02*
X035274Y017926D01*
X035274Y017768D02*
X033005Y017768D01*
X032926Y017609D02*
X035274Y017609D01*
X035274Y017451D02*
X032693Y017451D01*
X032798Y017292D02*
X035273Y017292D01*
X035273Y017134D02*
X032958Y017134D01*
X033020Y016975D02*
X035273Y016975D01*
X035273Y016817D02*
X033020Y016817D01*
X032960Y016658D02*
X035272Y016658D01*
X035272Y016500D02*
X032812Y016500D01*
X032734Y016341D02*
X035272Y016341D01*
X035272Y016183D02*
X032942Y016183D01*
X033022Y016024D02*
X035271Y016024D01*
X035271Y015866D02*
X033040Y015866D01*
X033040Y015873D02*
X032280Y015873D01*
X032280Y015413D01*
X032597Y015413D01*
X032672Y015425D01*
X032744Y015448D01*
X032811Y015483D01*
X032872Y015527D01*
X032926Y015581D01*
X032970Y015642D01*
X033004Y015709D01*
X033028Y015781D01*
X033040Y015856D01*
X033040Y015873D01*
X033003Y015707D02*
X035271Y015707D01*
X035271Y015549D02*
X032894Y015549D01*
X032280Y015549D02*
X032240Y015549D01*
X032240Y015707D02*
X032280Y015707D01*
X032280Y015866D02*
X032240Y015866D01*
X032240Y016024D02*
X032280Y016024D01*
X032280Y016183D02*
X032240Y016183D01*
X032240Y016341D02*
X032280Y016341D01*
X031561Y017134D02*
X030598Y017134D01*
X030539Y017292D02*
X031721Y017292D01*
X031826Y017451D02*
X029902Y017451D01*
X029902Y017609D02*
X031593Y017609D01*
X031514Y017768D02*
X029901Y017768D01*
X029639Y017926D02*
X031500Y017926D01*
X029980Y017292D02*
X029902Y017292D01*
X029808Y017107D02*
X029459Y017107D01*
X029365Y017201D01*
X029365Y017652D01*
X029154Y017441D01*
X029154Y017201D01*
X029060Y017107D01*
X028711Y017107D01*
X028645Y017173D01*
X028684Y017134D02*
X028199Y017134D01*
X028235Y016658D02*
X028617Y016658D01*
X028617Y016500D02*
X028235Y016500D01*
X029260Y016500D02*
X029260Y016500D01*
X029260Y016658D02*
X029260Y016658D01*
X029087Y017134D02*
X029432Y017134D01*
X029365Y017292D02*
X029154Y017292D01*
X029164Y017451D02*
X029365Y017451D01*
X029365Y017609D02*
X029322Y017609D01*
X029334Y018243D02*
X027238Y018243D01*
X027275Y018402D02*
X029492Y018402D01*
X029651Y018560D02*
X027231Y018560D01*
X029749Y019511D02*
X022398Y019511D01*
X022138Y019670D02*
X018632Y019670D01*
X018188Y019670D02*
X017049Y019670D01*
X017075Y019828D02*
X018095Y019828D01*
X018107Y019987D02*
X017011Y019987D01*
X016902Y019511D02*
X021921Y019511D01*
X021817Y019353D02*
X016602Y019353D01*
X016443Y019194D02*
X021801Y019194D01*
X021861Y019036D02*
X016285Y019036D01*
X016211Y018877D02*
X016661Y018877D01*
X016502Y018719D02*
X016389Y018719D01*
X017358Y018877D02*
X029968Y018877D01*
X029809Y018719D02*
X019367Y018719D01*
X019052Y018719D02*
X017517Y018719D01*
X017675Y018560D02*
X018917Y018560D01*
X018895Y018402D02*
X017834Y018402D01*
X017992Y018243D02*
X018964Y018243D01*
X018940Y018085D02*
X018060Y018085D01*
X018257Y017609D02*
X018465Y017609D01*
X018306Y017451D02*
X018298Y017451D01*
X018095Y016024D02*
X018061Y016024D01*
X015695Y013779D02*
X015581Y013826D01*
X015492Y013915D01*
X015460Y013993D01*
X012642Y013993D01*
X012626Y013977D01*
X012675Y013928D01*
X012816Y013787D01*
X012958Y013646D01*
X013092Y013511D01*
X013263Y013340D01*
X013263Y013340D01*
X013375Y013228D01*
X013375Y013228D01*
X013546Y013057D01*
X013546Y013057D01*
X013639Y012964D01*
X013654Y012960D01*
X013695Y012937D01*
X013750Y012881D01*
X013681Y012811D01*
X013681Y012811D01*
X013750Y012881D01*
X013806Y012825D01*
X013830Y012784D01*
X013834Y012769D01*
X013963Y012640D01*
X013963Y012640D01*
X014068Y012535D01*
X014068Y012535D01*
X014239Y012364D01*
X014239Y012231D01*
X013770Y011762D01*
X013770Y011236D01*
X013646Y011113D01*
X013052Y010519D01*
X013147Y010558D01*
X013272Y010558D01*
X013388Y010510D01*
X013445Y010453D01*
X014056Y010453D01*
X014045Y010481D01*
X014045Y010606D01*
X014092Y010722D01*
X014181Y010810D01*
X014297Y010858D01*
X014422Y010858D01*
X014538Y010810D01*
X014605Y010743D01*
X016892Y010743D01*
X015469Y012167D01*
X015390Y012088D01*
X015279Y011977D01*
X015279Y011977D01*
X015107Y011805D01*
X014973Y011671D01*
X014840Y011671D01*
X014280Y012231D01*
X014280Y012364D01*
X014414Y012498D01*
X014556Y012640D01*
X014556Y012640D01*
X014697Y012781D01*
X014869Y012953D01*
X014869Y012953D01*
X014973Y013057D01*
X014973Y013057D01*
X015102Y013187D01*
X015106Y013202D01*
X015130Y013243D01*
X015186Y013298D01*
X015256Y013228D01*
X015256Y013228D01*
X015256Y013228D01*
X015186Y013298D01*
X015241Y013354D01*
X015283Y013378D01*
X015297Y013382D01*
X015378Y013462D01*
X015382Y013477D01*
X015406Y013518D01*
X015462Y013574D01*
X015524Y013511D01*
X015462Y013574D01*
X015517Y013630D01*
X015558Y013653D01*
X015573Y013657D01*
X015673Y013757D01*
X015695Y013779D01*
X015632Y013805D02*
X012798Y013805D01*
X012956Y013647D02*
X015547Y013647D01*
X015524Y013511D02*
X015524Y013511D01*
X015389Y013488D02*
X013115Y013488D01*
X013273Y013330D02*
X015217Y013330D01*
X015087Y013171D02*
X013432Y013171D01*
X013590Y013013D02*
X014929Y013013D01*
X014770Y012854D02*
X013777Y012854D01*
X013724Y012854D02*
X013724Y012854D01*
X013681Y012811D02*
X013681Y012811D01*
X013907Y012696D02*
X014612Y012696D01*
X014453Y012537D02*
X014066Y012537D01*
X014224Y012379D02*
X014295Y012379D01*
X014291Y012220D02*
X014228Y012220D01*
X014070Y012062D02*
X014449Y012062D01*
X014608Y011903D02*
X013911Y011903D01*
X013770Y011745D02*
X014766Y011745D01*
X015047Y011745D02*
X015891Y011745D01*
X016049Y011586D02*
X013770Y011586D01*
X013770Y011428D02*
X016208Y011428D01*
X016366Y011269D02*
X013770Y011269D01*
X013644Y011111D02*
X016525Y011111D01*
X016683Y010952D02*
X013486Y010952D01*
X013327Y010794D02*
X014165Y010794D01*
X014057Y010635D02*
X013169Y010635D01*
X013421Y010477D02*
X014046Y010477D01*
X014554Y010794D02*
X016842Y010794D01*
X015732Y011903D02*
X015205Y011903D01*
X015364Y012062D02*
X015574Y012062D01*
X015472Y013964D02*
X012639Y013964D01*
X011982Y013235D02*
X011877Y013340D01*
X011877Y013340D01*
X011706Y013511D01*
X011706Y013511D01*
X011565Y013653D01*
X011430Y013787D01*
X011289Y013928D01*
X011147Y014070D01*
X011108Y014109D01*
X010367Y013368D01*
X010377Y013358D01*
X010472Y013358D01*
X010588Y013310D01*
X010677Y013222D01*
X010725Y013106D01*
X010725Y012981D01*
X010677Y012865D01*
X010588Y012776D01*
X010472Y012728D01*
X010353Y012728D01*
X010327Y012665D01*
X010238Y012576D01*
X010122Y012528D01*
X009997Y012528D01*
X009989Y012531D01*
X009998Y012511D01*
X009998Y012376D01*
X009946Y012252D01*
X009860Y012165D01*
X009860Y011565D01*
X009832Y011537D01*
X009832Y011358D01*
X009738Y011264D01*
X009499Y011264D01*
X009486Y011256D01*
X009440Y011244D01*
X009337Y011244D01*
X009337Y011581D01*
X009337Y011581D01*
X009337Y011244D01*
X009270Y011244D01*
X009270Y011230D01*
X009496Y011003D01*
X012323Y011003D01*
X012395Y011075D01*
X012395Y011156D01*
X012442Y011272D01*
X012500Y011329D01*
X012500Y011630D01*
X012623Y011753D01*
X012637Y011753D01*
X013036Y012153D01*
X013029Y012160D01*
X013099Y012230D01*
X013099Y012230D01*
X013099Y012230D01*
X012780Y011910D01*
X012663Y011793D01*
X012205Y011793D01*
X012138Y011726D01*
X012022Y011678D01*
X011897Y011678D01*
X011781Y011726D01*
X011692Y011815D01*
X011645Y011931D01*
X011645Y012056D01*
X011692Y012172D01*
X011781Y012260D01*
X011800Y012268D01*
X011795Y012281D01*
X011795Y012406D01*
X011842Y012522D01*
X011931Y012610D01*
X012047Y012658D01*
X012172Y012658D01*
X012288Y012610D01*
X012345Y012553D01*
X012574Y012553D01*
X012619Y012598D01*
X012540Y012677D01*
X012540Y012677D01*
X012399Y012818D01*
X012265Y012953D01*
X012123Y013094D01*
X011982Y013235D01*
X012046Y013171D02*
X010697Y013171D01*
X010725Y013013D02*
X012204Y013013D01*
X012363Y012854D02*
X010666Y012854D01*
X010339Y012696D02*
X012521Y012696D01*
X011858Y012537D02*
X010144Y012537D01*
X009998Y012379D02*
X011795Y012379D01*
X011741Y012220D02*
X009915Y012220D01*
X009860Y012062D02*
X011647Y012062D01*
X011656Y011903D02*
X009860Y011903D01*
X009860Y011745D02*
X011763Y011745D01*
X012157Y011745D02*
X012614Y011745D01*
X012500Y011586D02*
X009860Y011586D01*
X009832Y011428D02*
X012500Y011428D01*
X012441Y011269D02*
X009744Y011269D01*
X009389Y011111D02*
X012395Y011111D01*
X012773Y011903D02*
X012787Y011903D01*
X012931Y012062D02*
X012945Y012062D01*
X013090Y012220D02*
X013090Y012220D01*
X011887Y013330D02*
X010541Y013330D01*
X010487Y013488D02*
X011729Y013488D01*
X011570Y013647D02*
X010646Y013647D01*
X010804Y013805D02*
X011412Y013805D01*
X011253Y013964D02*
X010963Y013964D01*
X010014Y014281D02*
X009667Y014281D01*
X009725Y014122D02*
X009856Y014122D01*
X009697Y013964D02*
X009697Y013964D01*
X009539Y013805D02*
X009537Y013805D01*
X009380Y013647D02*
X009260Y013647D01*
X009222Y013488D02*
X009102Y013488D01*
X009063Y013330D02*
X008943Y013330D01*
X008905Y013171D02*
X008785Y013171D01*
X008746Y013013D02*
X008626Y013013D01*
X008626Y012854D02*
X008468Y012854D01*
X008626Y012696D02*
X008033Y012696D01*
X008117Y012537D02*
X008626Y012537D01*
X008626Y012379D02*
X007380Y012379D01*
X007380Y012373D02*
X008140Y012373D01*
X008140Y012356D01*
X008128Y012281D01*
X008104Y012209D01*
X008070Y012142D01*
X008026Y012081D01*
X007972Y012027D01*
X007911Y011983D01*
X007844Y011948D01*
X007772Y011925D01*
X007697Y011913D01*
X007380Y011913D01*
X007380Y012373D01*
X007340Y012373D02*
X007340Y011913D01*
X007022Y011913D01*
X006947Y011925D01*
X006875Y011948D01*
X006808Y011983D01*
X006747Y012027D01*
X006693Y012081D01*
X006649Y012142D01*
X006615Y012209D01*
X006591Y012281D01*
X006580Y012356D01*
X006580Y012373D01*
X007340Y012373D01*
X007340Y012379D02*
X004240Y012379D01*
X004240Y012537D02*
X006602Y012537D01*
X006686Y012696D02*
X004240Y012696D01*
X004240Y012854D02*
X006152Y012854D01*
X005993Y013013D02*
X004240Y013013D01*
X004240Y013171D02*
X005835Y013171D01*
X005750Y013330D02*
X004240Y013330D01*
X004240Y013488D02*
X005750Y013488D01*
X005750Y013647D02*
X004240Y013647D01*
X004240Y013805D02*
X005750Y013805D01*
X005750Y013964D02*
X004240Y013964D01*
X004240Y014122D02*
X005750Y014122D01*
X005750Y014281D02*
X004240Y014281D01*
X004240Y014439D02*
X005750Y014439D01*
X005750Y014598D02*
X004240Y014598D01*
X004240Y014756D02*
X005750Y014756D01*
X005750Y014915D02*
X004240Y014915D01*
X004240Y015073D02*
X005750Y015073D01*
X005750Y015232D02*
X004240Y015232D01*
X004240Y015390D02*
X005750Y015390D01*
X005750Y015549D02*
X004240Y015549D01*
X004240Y015707D02*
X005649Y015707D01*
X005573Y015783D02*
X005573Y015783D01*
X005490Y015866D02*
X004240Y015866D01*
X004240Y016024D02*
X005450Y016024D01*
X005450Y016183D02*
X004240Y016183D01*
X004240Y016341D02*
X005450Y016341D01*
X005450Y016500D02*
X004240Y016500D01*
X004240Y016658D02*
X005450Y016658D01*
X005450Y016817D02*
X004240Y016817D01*
X004240Y016975D02*
X005450Y016975D01*
X005450Y017134D02*
X004240Y017134D01*
X004240Y017292D02*
X005450Y017292D01*
X005450Y017451D02*
X004240Y017451D01*
X004240Y017609D02*
X005450Y017609D01*
X005450Y017768D02*
X004240Y017768D01*
X004240Y017926D02*
X005450Y017926D01*
X005450Y018085D02*
X004240Y018085D01*
X004240Y018243D02*
X005450Y018243D01*
X005450Y018402D02*
X004240Y018402D01*
X004240Y018560D02*
X005450Y018560D01*
X007240Y019036D02*
X007280Y019036D01*
X007280Y019194D02*
X007240Y019194D01*
X007240Y019353D02*
X007280Y019353D01*
X007280Y019511D02*
X007240Y019511D01*
X007240Y019670D02*
X007280Y019670D01*
X007280Y019828D02*
X007240Y019828D01*
X007763Y019828D02*
X012710Y019828D01*
X012710Y019670D02*
X007952Y019670D01*
X008026Y019511D02*
X012862Y019511D01*
X012783Y019353D02*
X012183Y019353D01*
X012359Y019194D02*
X012625Y019194D01*
X013318Y018502D02*
X013410Y018410D01*
X013527Y018293D01*
X014414Y018293D01*
X014481Y018226D01*
X014597Y018178D01*
X014722Y018178D01*
X014838Y018226D01*
X014927Y018315D01*
X014975Y018431D01*
X014975Y018556D01*
X014927Y018672D01*
X014838Y018760D01*
X014722Y018808D01*
X014597Y018808D01*
X014575Y018799D01*
X014575Y018906D01*
X014527Y019022D01*
X014505Y019043D01*
X014577Y019115D01*
X014580Y019123D01*
X014727Y018975D01*
X014869Y018834D01*
X014973Y018730D01*
X014973Y018730D01*
X015144Y018558D01*
X015144Y018558D01*
X015256Y018447D01*
X015395Y018308D01*
X015281Y018260D01*
X015192Y018172D01*
X015145Y018056D01*
X015145Y017961D01*
X014177Y016993D01*
X014060Y016876D01*
X014060Y016576D01*
X013057Y015573D01*
X012972Y015608D01*
X012877Y015608D01*
X011651Y016835D01*
X011694Y016878D01*
X011709Y016882D01*
X011750Y016905D01*
X011806Y016961D01*
X011861Y017017D01*
X011885Y017058D01*
X011889Y017073D01*
X012012Y017195D01*
X012111Y017295D01*
X012126Y017299D01*
X012167Y017323D01*
X012223Y017378D01*
X012160Y017441D01*
X012160Y017441D01*
X012223Y017378D01*
X012279Y017434D01*
X012302Y017475D01*
X012306Y017490D01*
X012429Y017612D01*
X012429Y017612D01*
X012540Y017724D01*
X012540Y017724D01*
X012712Y017895D01*
X012846Y018030D01*
X012988Y018171D01*
X013129Y018313D01*
X013263Y018447D01*
X013318Y018502D01*
X013263Y018447D02*
X013263Y018447D01*
X013218Y018402D02*
X013418Y018402D01*
X013410Y018410D02*
X013410Y018410D01*
X013060Y018243D02*
X014464Y018243D01*
X014855Y018243D02*
X015264Y018243D01*
X015301Y018402D02*
X014963Y018402D01*
X014973Y018560D02*
X015142Y018560D01*
X015256Y018447D02*
X015256Y018447D01*
X015156Y018085D02*
X012901Y018085D01*
X012743Y017926D02*
X015110Y017926D01*
X014951Y017768D02*
X012584Y017768D01*
X012426Y017609D02*
X014793Y017609D01*
X014634Y017451D02*
X012288Y017451D01*
X012109Y017292D02*
X014476Y017292D01*
X014317Y017134D02*
X011950Y017134D01*
X011820Y016975D02*
X014159Y016975D01*
X014060Y016817D02*
X011669Y016817D01*
X011806Y016961D02*
X011743Y017024D01*
X011743Y017024D01*
X011806Y016961D01*
X011792Y016975D02*
X011792Y016975D01*
X011827Y016658D02*
X014060Y016658D01*
X013983Y016500D02*
X011986Y016500D01*
X012144Y016341D02*
X013825Y016341D01*
X013666Y016183D02*
X012303Y016183D01*
X012461Y016024D02*
X013508Y016024D01*
X013349Y015866D02*
X012620Y015866D01*
X012778Y015707D02*
X013191Y015707D01*
X010115Y015390D02*
X008989Y015390D01*
X008975Y015232D02*
X010037Y015232D01*
X010144Y015073D02*
X008930Y015073D01*
X008389Y015073D02*
X008049Y015073D01*
X008049Y014915D02*
X010000Y014915D01*
X009955Y014756D02*
X007994Y014756D01*
X007947Y014678D02*
X008208Y014678D01*
X008254Y014666D01*
X008295Y014642D01*
X008328Y014609D01*
X008352Y014568D01*
X008364Y014522D01*
X008364Y014221D01*
X007947Y014221D01*
X007792Y014221D01*
X007792Y014678D01*
X007531Y014678D01*
X007485Y014666D01*
X007444Y014642D01*
X007410Y014609D01*
X007387Y014568D01*
X007374Y014522D01*
X007374Y014221D01*
X007792Y014221D01*
X007792Y014066D01*
X007374Y014066D01*
X007374Y013765D01*
X007387Y013719D01*
X007410Y013678D01*
X007444Y013644D01*
X007485Y013621D01*
X007531Y013608D01*
X007792Y013608D01*
X007792Y014066D01*
X007947Y014066D01*
X007947Y014221D01*
X007947Y014678D01*
X007947Y014598D02*
X007792Y014598D01*
X007792Y014439D02*
X007947Y014439D01*
X007947Y014281D02*
X007792Y014281D01*
X007792Y014122D02*
X007225Y014122D01*
X007225Y013964D02*
X007374Y013964D01*
X007374Y013805D02*
X007225Y013805D01*
X007149Y013647D02*
X007441Y013647D01*
X007792Y013647D02*
X007947Y013647D01*
X007947Y013608D02*
X008208Y013608D01*
X008254Y013621D01*
X008295Y013644D01*
X008328Y013678D01*
X008352Y013719D01*
X008364Y013765D01*
X008364Y014066D01*
X007947Y014066D01*
X007947Y013608D01*
X007947Y013805D02*
X007792Y013805D01*
X007792Y013964D02*
X007947Y013964D01*
X007947Y014122D02*
X009095Y014122D01*
X009152Y014281D02*
X008364Y014281D01*
X008364Y014439D02*
X010070Y014439D01*
X009989Y014598D02*
X008335Y014598D01*
X008364Y013964D02*
X008983Y013964D01*
X008825Y013805D02*
X008364Y013805D01*
X008297Y013647D02*
X008666Y013647D01*
X008508Y013488D02*
X006170Y013488D01*
X006170Y013647D02*
X006350Y013647D01*
X006275Y013805D02*
X006170Y013805D01*
X006170Y013964D02*
X006275Y013964D01*
X006275Y014122D02*
X006170Y014122D01*
X006170Y014281D02*
X006275Y014281D01*
X006275Y014439D02*
X006170Y014439D01*
X006170Y014598D02*
X006308Y014598D01*
X006170Y014756D02*
X006525Y014756D01*
X006470Y014915D02*
X006170Y014915D01*
X006170Y015073D02*
X006470Y015073D01*
X007246Y014756D02*
X007273Y014756D01*
X007191Y014598D02*
X007404Y014598D01*
X007374Y014439D02*
X007225Y014439D01*
X007225Y014281D02*
X007374Y014281D01*
X008049Y015232D02*
X008345Y015232D01*
X008379Y015390D02*
X008049Y015390D01*
X008049Y015549D02*
X008574Y015549D01*
X008741Y015707D02*
X007921Y015707D01*
X008079Y015866D02*
X008899Y015866D01*
X008349Y013330D02*
X006270Y013330D01*
X006611Y012220D02*
X005906Y012220D01*
X006077Y012062D02*
X006712Y012062D01*
X006760Y011745D02*
X006247Y011745D01*
X006118Y011903D02*
X008626Y011903D01*
X008626Y012062D02*
X008007Y012062D01*
X008108Y012220D02*
X008626Y012220D01*
X008587Y011745D02*
X007959Y011745D01*
X007380Y012062D02*
X007340Y012062D01*
X007340Y012220D02*
X007380Y012220D01*
X007360Y011393D02*
X006260Y011393D01*
X005760Y010893D01*
X006008Y010635D02*
X008762Y010635D01*
X008921Y010477D02*
X004987Y010477D01*
X004829Y010635D02*
X005511Y010635D01*
X005413Y010794D02*
X004784Y010794D01*
X004679Y010952D02*
X005401Y010952D01*
X005471Y011111D02*
X004240Y011111D01*
X004240Y011269D02*
X005796Y011269D01*
X005886Y011428D02*
X004240Y011428D01*
X004240Y011586D02*
X005565Y011586D01*
X005433Y011745D02*
X004240Y011745D01*
X004240Y011903D02*
X005401Y011903D01*
X005442Y012062D02*
X004240Y012062D01*
X004240Y012220D02*
X005613Y012220D01*
X005760Y011893D02*
X006260Y011393D01*
X006316Y011111D02*
X006691Y011111D01*
X006922Y010952D02*
X006158Y010952D01*
X006106Y010794D02*
X008604Y010794D01*
X008445Y010952D02*
X007797Y010952D01*
X008028Y011111D02*
X008287Y011111D01*
X008434Y011586D02*
X008587Y011586D01*
X009337Y011586D02*
X009337Y011586D01*
X009337Y011582D02*
X009337Y011919D01*
X009310Y011919D01*
X009310Y011998D01*
X009377Y012065D01*
X009425Y012181D01*
X009425Y012200D01*
X009460Y012165D01*
X009460Y011914D01*
X009440Y011919D01*
X009337Y011919D01*
X009337Y011582D01*
X009337Y011582D01*
X009337Y011428D02*
X009337Y011428D01*
X009337Y011269D02*
X009337Y011269D01*
X009337Y011745D02*
X009337Y011745D01*
X009337Y011903D02*
X009337Y011903D01*
X009374Y012062D02*
X009460Y012062D01*
X008587Y010318D02*
X005146Y010318D01*
X005304Y010160D02*
X008587Y010160D01*
X008587Y010001D02*
X005463Y010001D01*
X005621Y009843D02*
X008600Y009843D01*
X008572Y009684D02*
X005780Y009684D01*
X005474Y009367D02*
X004240Y009367D01*
X004240Y009526D02*
X005316Y009526D01*
X005157Y009684D02*
X004240Y009684D01*
X004240Y009843D02*
X004999Y009843D01*
X004840Y010001D02*
X004240Y010001D01*
X004240Y010160D02*
X004682Y010160D01*
X004523Y010318D02*
X004240Y010318D01*
X007148Y009526D02*
X008477Y009526D01*
X008475Y009367D02*
X007307Y009367D01*
X007465Y009209D02*
X008565Y009209D01*
X006480Y006514D02*
X016199Y006514D01*
X016199Y006356D02*
X006480Y006356D01*
X006480Y006197D02*
X016199Y006197D01*
X016199Y006039D02*
X009593Y006039D01*
X009280Y006039D02*
X009240Y006039D01*
X009240Y005880D02*
X009280Y005880D01*
X009280Y005722D02*
X009240Y005722D01*
X009240Y005563D02*
X009280Y005563D01*
X009240Y005405D02*
X008720Y005405D01*
X008720Y005563D02*
X008780Y005563D01*
X008780Y005722D02*
X008720Y005722D01*
X008720Y005785D02*
X008649Y005954D01*
X008520Y006083D01*
X008351Y006153D01*
X008168Y006153D01*
X007999Y006083D01*
X007870Y005954D01*
X007800Y005785D01*
X007800Y005002D01*
X007870Y004833D01*
X007999Y004703D01*
X008168Y004633D01*
X008351Y004633D01*
X008520Y004703D01*
X008649Y004833D01*
X008720Y005002D01*
X008720Y005785D01*
X008680Y005880D02*
X008816Y005880D01*
X008926Y006039D02*
X008565Y006039D01*
X007954Y006039D02*
X007565Y006039D01*
X007520Y006083D02*
X007351Y006153D01*
X007168Y006153D01*
X006999Y006083D01*
X006870Y005954D01*
X006800Y005785D01*
X006800Y005002D01*
X006870Y004833D01*
X006999Y004703D01*
X007168Y004633D01*
X007351Y004633D01*
X007520Y004703D01*
X007649Y004833D01*
X007720Y005002D01*
X007720Y005785D01*
X007649Y005954D01*
X007520Y006083D01*
X007680Y005880D02*
X007839Y005880D01*
X007800Y005722D02*
X007720Y005722D01*
X007720Y005563D02*
X007800Y005563D01*
X007800Y005405D02*
X007720Y005405D01*
X007720Y005246D02*
X007800Y005246D01*
X007800Y005088D02*
X007720Y005088D01*
X007689Y004929D02*
X007830Y004929D01*
X007931Y004771D02*
X007588Y004771D01*
X006931Y004771D02*
X006588Y004771D01*
X006689Y004929D02*
X006830Y004929D01*
X006800Y005088D02*
X006720Y005088D01*
X006720Y005246D02*
X006800Y005246D01*
X006800Y005405D02*
X006720Y005405D01*
X006720Y005563D02*
X006800Y005563D01*
X006800Y005722D02*
X006720Y005722D01*
X006680Y005880D02*
X006839Y005880D01*
X006954Y006039D02*
X006565Y006039D01*
X008588Y004771D02*
X008903Y004771D01*
X008808Y004929D02*
X008689Y004929D01*
X008720Y005088D02*
X008780Y005088D01*
X008780Y005246D02*
X008720Y005246D01*
X006636Y002869D02*
X012781Y002869D01*
X014738Y002869D02*
X024781Y002869D01*
X024709Y003027D02*
X014811Y003027D01*
X014853Y003186D02*
X024666Y003186D01*
X026417Y004295D02*
X035253Y004295D01*
X035252Y004137D02*
X026586Y004137D01*
X026703Y003978D02*
X035252Y003978D01*
X035252Y003820D02*
X026794Y003820D01*
X026837Y003661D02*
X035252Y003661D01*
X035251Y003503D02*
X026869Y003503D01*
X026869Y003344D02*
X035251Y003344D01*
X035251Y003186D02*
X026853Y003186D01*
X026811Y003027D02*
X035251Y003027D01*
X035250Y002869D02*
X026738Y002869D01*
X024100Y006356D02*
X024060Y006356D01*
X024060Y006514D02*
X024100Y006514D01*
X024100Y006673D02*
X024060Y006673D01*
X024060Y006831D02*
X024100Y006831D01*
X024100Y006990D02*
X024060Y006990D01*
X024060Y007148D02*
X024100Y007148D01*
X020633Y006673D02*
X016639Y006673D01*
X016639Y006514D02*
X020625Y006514D01*
X020625Y006356D02*
X016639Y006356D01*
X016639Y006197D02*
X020625Y006197D01*
X020625Y006039D02*
X016639Y006039D01*
X016639Y005880D02*
X020625Y005880D01*
X020577Y005722D02*
X016639Y005722D01*
X016751Y005563D02*
X017613Y005563D01*
X017417Y005405D02*
X016909Y005405D01*
X017068Y005246D02*
X017362Y005246D01*
X017373Y005088D02*
X017226Y005088D01*
X017906Y005563D02*
X018113Y005563D01*
X018406Y005563D02*
X018613Y005563D01*
X018906Y005563D02*
X019113Y005563D01*
X019406Y005563D02*
X019613Y005563D01*
X019906Y005563D02*
X020418Y005563D01*
X019260Y004612D02*
X019260Y004612D01*
X019260Y004454D02*
X019260Y004454D01*
X018760Y004454D02*
X018760Y004454D01*
X018760Y004612D02*
X018760Y004612D01*
X018260Y004612D02*
X018260Y004612D01*
X018260Y004454D02*
X018260Y004454D01*
X032669Y007941D02*
X035258Y007941D01*
X035259Y008099D02*
X032916Y008099D01*
X033001Y008258D02*
X035259Y008258D01*
X035259Y008416D02*
X033020Y008416D01*
X032982Y008575D02*
X035259Y008575D01*
X035260Y008733D02*
X032870Y008733D01*
X031383Y019670D02*
X035277Y019670D01*
X035277Y019828D02*
X031541Y019828D01*
X031700Y019987D02*
X035278Y019987D01*
X035278Y020145D02*
X031858Y020145D01*
X032138Y020621D02*
X032353Y020621D01*
X032280Y020779D02*
X032220Y020779D01*
X032220Y020938D02*
X032280Y020938D01*
X032284Y021096D02*
X032207Y021096D01*
X032049Y021255D02*
X032442Y021255D01*
X031422Y022206D02*
X026233Y022206D01*
X027987Y025693D02*
X028114Y025693D01*
X028045Y025851D02*
X028003Y025851D01*
X028003Y026010D02*
X028067Y026010D01*
X027963Y026168D02*
X028200Y026168D01*
X029871Y026866D02*
X029871Y026961D01*
X030425Y028070D02*
X035290Y028070D01*
X035290Y027912D02*
X033052Y027912D01*
X033211Y027753D02*
X035290Y027753D01*
X035290Y027595D02*
X033369Y027595D01*
X033625Y027436D02*
X035289Y027436D01*
X035289Y027278D02*
X033795Y027278D01*
X033825Y027119D02*
X035289Y027119D01*
X035289Y026961D02*
X033773Y026961D01*
X035291Y028229D02*
X030369Y028229D01*
X030533Y031557D02*
X009624Y031557D01*
X009495Y031557D02*
X004240Y031557D01*
X004240Y031399D02*
X009283Y031399D01*
X009245Y031240D02*
X004240Y031240D01*
X004240Y031082D02*
X009285Y031082D01*
X009580Y030023D02*
X009911Y030023D01*
X009893Y030006D01*
X009849Y029945D01*
X009815Y029878D01*
X009791Y029806D01*
X009780Y029731D01*
X009780Y029413D01*
X010240Y029413D01*
X010240Y029373D01*
X009780Y029373D01*
X009780Y029056D01*
X009791Y028981D01*
X009815Y028909D01*
X009849Y028842D01*
X009893Y028781D01*
X009911Y028763D01*
X009580Y028763D01*
X009649Y028833D01*
X009720Y029002D01*
X009720Y029785D01*
X009649Y029954D01*
X009580Y030023D01*
X009631Y029972D02*
X009869Y029972D01*
X009794Y029814D02*
X009707Y029814D01*
X009720Y029655D02*
X009780Y029655D01*
X009780Y029497D02*
X009720Y029497D01*
X009720Y029338D02*
X009780Y029338D01*
X009780Y029180D02*
X009720Y029180D01*
X009720Y029021D02*
X009785Y029021D01*
X009838Y028863D02*
X009662Y028863D01*
X010725Y029814D02*
X010951Y029814D01*
X010919Y029972D02*
X010650Y029972D01*
X012892Y032191D02*
X004240Y032191D01*
X004240Y032033D02*
X013050Y032033D01*
X012792Y032350D02*
X004240Y032350D01*
X007464Y027119D02*
X007540Y027119D01*
X008480Y027119D02*
X008555Y027119D01*
X008480Y026961D02*
X009040Y026961D01*
X009040Y027119D02*
X008964Y027119D01*
X009040Y026802D02*
X008480Y026802D01*
X008543Y026644D02*
X009198Y026644D01*
X009356Y026485D02*
X008630Y026485D01*
X008637Y026327D02*
X009515Y026327D01*
X009391Y026168D02*
X009673Y026168D01*
X009468Y026010D02*
X011931Y026010D01*
X011813Y025851D02*
X009459Y025851D01*
X009365Y025693D02*
X010068Y025693D01*
X010260Y025693D02*
X010260Y025693D01*
X010260Y025534D02*
X010260Y025534D01*
X010260Y025376D02*
X010260Y025376D01*
X010260Y025217D02*
X010260Y025217D01*
X010260Y025059D02*
X010260Y025059D01*
X010260Y024900D02*
X010260Y024900D01*
X010470Y024900D02*
X010495Y024900D01*
X010049Y024900D02*
X009950Y024900D01*
X009570Y024900D02*
X009480Y024900D01*
X010451Y025693D02*
X011795Y025693D01*
X011873Y025534D02*
X010558Y025534D01*
X008828Y026168D02*
X008569Y026168D01*
X007395Y023474D02*
X005637Y023474D01*
X005637Y023315D02*
X005482Y023315D01*
X005482Y023157D02*
X005637Y023157D01*
X004480Y024425D02*
X004240Y024425D01*
X004240Y024583D02*
X004638Y024583D01*
X004321Y024266D02*
X004240Y024266D01*
X006077Y021413D02*
X006993Y021413D01*
X007269Y021730D02*
X011486Y021730D01*
X011445Y021889D02*
X010769Y021889D01*
X010806Y022047D02*
X011482Y022047D01*
X011667Y021096D02*
X010266Y021096D01*
X010053Y021096D02*
X009952Y021096D01*
X009983Y020621D02*
X011637Y020621D01*
X012083Y020621D02*
X012710Y020621D01*
X012710Y020779D02*
X012174Y020779D01*
X012161Y020938D02*
X012721Y020938D01*
X012795Y021096D02*
X012052Y021096D01*
X010388Y021889D02*
X010233Y021889D01*
X010233Y022047D02*
X010388Y022047D01*
X010388Y022523D02*
X010233Y022523D01*
X010233Y022681D02*
X010388Y022681D01*
X010388Y022840D02*
X010233Y022840D01*
X009824Y022840D02*
X009683Y022840D01*
X009683Y022681D02*
X009816Y022681D01*
X009816Y022523D02*
X009683Y022523D01*
X007267Y020462D02*
X007252Y020462D01*
X014512Y019036D02*
X014667Y019036D01*
X014575Y018877D02*
X014825Y018877D01*
X014869Y018834D02*
X014869Y018834D01*
X014879Y018719D02*
X014984Y018719D01*
D29*
X014660Y018493D02*
X013610Y018493D01*
X013114Y018989D01*
X013114Y018990D01*
X013248Y019104D02*
X013248Y019125D01*
X013510Y018864D01*
X013510Y018843D01*
X014260Y018843D01*
X014310Y019293D02*
X014700Y019683D01*
X014712Y019683D01*
X014846Y019549D02*
X014865Y019549D01*
X015660Y020343D01*
X015660Y020743D01*
X015010Y021393D01*
X010160Y021393D01*
X011610Y022343D02*
X013510Y022343D01*
X014110Y021743D01*
X024160Y021743D01*
X024960Y020693D02*
X017660Y020693D01*
X016910Y021043D02*
X027260Y021043D01*
X027760Y021543D01*
X026760Y021793D02*
X026360Y021393D01*
X016960Y021393D01*
X014988Y019422D01*
X014988Y019408D01*
X015129Y019266D02*
X015132Y019266D01*
X016910Y021043D01*
X016560Y020393D02*
X028260Y020393D01*
X028760Y020893D01*
X029560Y020193D02*
X029760Y020393D01*
X029760Y020643D01*
X029560Y020193D02*
X016610Y020193D01*
X015407Y018990D01*
X015405Y018990D01*
X015291Y019125D02*
X016560Y020393D01*
X016760Y019793D02*
X015688Y018722D01*
X015688Y018708D01*
X016107Y018290D02*
X017410Y019593D01*
X018010Y019593D01*
X018210Y019393D01*
X018410Y019893D02*
X022360Y019893D01*
X020260Y016893D02*
X020760Y016393D01*
X018860Y015943D02*
X023160Y011643D01*
X022960Y011243D02*
X018360Y015843D01*
X017960Y015843D02*
X017060Y015843D01*
X015410Y014193D01*
X012560Y014193D01*
X012138Y013772D01*
X012047Y013931D02*
X012610Y014493D01*
X015310Y014493D01*
X017060Y016243D01*
X017260Y016243D01*
X016710Y016543D02*
X014910Y014743D01*
X012560Y014743D01*
X011864Y014048D01*
X011862Y014048D01*
X011997Y013931D02*
X012047Y013931D01*
X011997Y013931D02*
X011997Y013913D01*
X011323Y014606D02*
X010160Y013443D01*
X010160Y013293D01*
X010410Y013043D01*
X010060Y012843D02*
X009960Y012943D01*
X009960Y013543D01*
X011162Y014746D01*
X011162Y014748D01*
X011304Y014606D02*
X011323Y014606D01*
X010270Y014743D02*
X010270Y014253D01*
X008826Y012809D01*
X008826Y011581D01*
X009060Y011559D02*
X009060Y011343D01*
X009060Y011559D02*
X009082Y011581D01*
X009110Y011609D01*
X009110Y012243D01*
X009660Y012443D02*
X009660Y011648D01*
X009593Y011581D01*
X011560Y011043D02*
X012260Y011743D01*
X012610Y011743D01*
X013387Y012520D01*
X013390Y012520D01*
X013390Y012524D01*
X013960Y013093D01*
X013248Y012662D02*
X012580Y011993D01*
X011960Y011993D01*
X012710Y011543D02*
X013531Y012365D01*
X013531Y012379D01*
X013673Y012238D02*
X013183Y011748D01*
X013160Y011691D02*
X013160Y011493D01*
X013160Y011691D02*
X013162Y011707D01*
X013166Y011722D01*
X013173Y011735D01*
X013183Y011748D01*
X013760Y012056D02*
X013807Y012103D01*
X013807Y012091D01*
X015260Y013225D02*
X015260Y013493D01*
X015560Y013493D01*
X015822Y013231D01*
X015822Y013213D01*
X015688Y013079D02*
X017174Y011593D01*
X019580Y011593D01*
X019160Y012023D02*
X018650Y012023D01*
X017260Y013413D01*
X017260Y013993D01*
X016939Y014313D01*
X016939Y014331D01*
X017074Y014465D02*
X017088Y014465D01*
X017560Y013993D01*
X017560Y013593D01*
X018630Y012523D01*
X018630Y012493D01*
X017980Y013553D02*
X017980Y013833D01*
X017570Y014243D01*
X017560Y014243D01*
X017215Y014588D01*
X017215Y014606D01*
X017357Y014746D02*
X018210Y013893D01*
X018220Y013893D01*
X018360Y013753D01*
X017357Y014746D02*
X017357Y014748D01*
X017960Y015843D02*
X022410Y011393D01*
X020810Y010543D02*
X014360Y010543D01*
X015546Y012938D02*
X015260Y013225D01*
X015777Y014093D02*
X016239Y013631D01*
X015777Y014093D02*
X015760Y014093D01*
X014860Y016493D02*
X016381Y018015D01*
X016860Y018493D01*
X017010Y018493D01*
X017392Y018111D01*
X017860Y018093D02*
X017210Y018743D01*
X016810Y018743D01*
X016239Y018173D01*
X016239Y018156D01*
X016522Y017873D02*
X016310Y017660D01*
X016310Y017643D01*
X016210Y017543D01*
X016210Y017293D01*
X016310Y017193D01*
X015460Y017993D02*
X014260Y016793D01*
X014260Y016493D01*
X013060Y015293D01*
X012910Y015293D01*
X011164Y017039D01*
X011162Y017039D01*
X011028Y016925D02*
X011028Y016904D01*
X011028Y016925D02*
X009510Y018443D01*
X009510Y018593D01*
X009560Y018643D01*
X010410Y019093D02*
X010560Y019243D01*
X012010Y019243D01*
X012160Y019093D01*
X012177Y019093D01*
X012697Y018573D01*
X012555Y018432D02*
X012144Y018843D01*
X011910Y018843D01*
X011560Y018043D02*
X011460Y018043D01*
X011160Y017743D01*
X011160Y017607D01*
X011445Y017322D01*
X011862Y017739D02*
X011864Y017739D01*
X012160Y017443D01*
X012410Y017443D01*
X012460Y017493D01*
X011862Y017739D02*
X011862Y017740D01*
X011560Y018043D01*
X010310Y017043D02*
X010731Y016622D01*
X010745Y016622D01*
X010887Y016763D02*
X011210Y016440D01*
X011210Y016293D01*
X010860Y015943D01*
X010310Y015943D01*
X010160Y016093D01*
X010110Y015743D02*
X009060Y015743D01*
X008660Y015343D01*
X008660Y015243D01*
X012910Y019746D02*
X013390Y019266D01*
X013531Y019408D02*
X013110Y019829D01*
X013110Y020543D01*
X013260Y020693D01*
X012910Y020843D02*
X013110Y021043D01*
X012910Y020843D02*
X012910Y019746D01*
X013310Y019893D02*
X013310Y020293D01*
X013860Y020843D01*
X013710Y020293D02*
X013510Y020093D01*
X013510Y019993D01*
X013798Y019705D01*
X013798Y019704D02*
X013803Y019698D01*
X013806Y019691D01*
X013807Y019683D01*
X013673Y019550D02*
X013661Y019552D01*
X013651Y019556D01*
X013641Y019563D01*
X013640Y019562D02*
X013310Y019893D01*
X015271Y019125D02*
X015291Y019125D01*
X017860Y018093D02*
X017860Y017543D01*
X017960Y017443D01*
X018710Y022043D02*
X025960Y022043D01*
X026510Y023443D02*
X024910Y023443D01*
X024260Y023443D02*
X016510Y023443D01*
X016060Y024043D02*
X017060Y024043D01*
X017110Y024093D01*
X017660Y024093D01*
X017710Y024043D01*
X020510Y024043D01*
X020660Y024193D01*
X022260Y024193D01*
X022310Y024143D01*
X022660Y023793D02*
X023810Y024943D01*
X026810Y024943D01*
X027260Y025393D01*
X027607Y025393D01*
X027607Y025893D02*
X026860Y025893D01*
X026660Y025693D01*
X026510Y025693D01*
X026460Y025643D01*
X025610Y027193D02*
X025760Y027343D01*
X025610Y027193D02*
X021110Y027193D01*
X020660Y023793D02*
X017260Y023793D01*
X015710Y023143D02*
X023210Y023143D01*
X026510Y023443D02*
X026760Y023693D01*
X029812Y026393D02*
X029812Y026496D01*
X025885Y016393D02*
X024260Y016393D01*
X025885Y016393D02*
X026260Y016019D01*
X021860Y009493D02*
X023210Y008143D01*
X024010Y008143D01*
X021860Y009493D02*
X011510Y009493D01*
X011360Y009643D01*
X009560Y023793D02*
X008860Y023793D01*
X008260Y024393D01*
X008260Y025291D01*
X007260Y027496D02*
X007260Y027993D01*
X010260Y027496D02*
X010260Y027293D01*
D30*
X009960Y026993D01*
X009810Y026343D02*
X012160Y026343D01*
X012360Y026543D01*
X012610Y026243D02*
X015510Y026243D01*
X015760Y026493D01*
X015760Y027496D01*
X015760Y027193D01*
X016260Y027496D02*
X016260Y027793D01*
X016110Y027943D01*
X015960Y027943D01*
X015260Y027496D02*
X015260Y026793D01*
X014760Y026643D02*
X014760Y027496D01*
X014260Y027496D02*
X014260Y027743D01*
X013860Y028143D01*
X010860Y028143D01*
X010460Y028543D01*
X010460Y028593D01*
X010760Y028893D01*
X011760Y028893D01*
X011660Y028493D02*
X028160Y028493D01*
X028260Y028393D01*
X030110Y028043D02*
X018860Y028043D01*
X017260Y027496D02*
X017260Y027043D01*
X017560Y026743D01*
X025757Y026743D01*
X026107Y026393D01*
X025710Y025996D01*
X025710Y025444D01*
X026107Y026393D02*
X027607Y026393D01*
X029010Y026393D01*
X029110Y026293D01*
X029812Y026496D02*
X030210Y026893D01*
X029812Y025893D02*
X028360Y025893D01*
X029812Y025393D02*
X029862Y025443D01*
X030610Y025443D01*
X031110Y025943D01*
X031210Y024893D02*
X029812Y024893D01*
X029812Y024393D02*
X031710Y024393D01*
X032210Y024893D01*
X031210Y024893D02*
X032210Y025893D01*
X033510Y027143D02*
X032910Y027743D01*
X023560Y027743D01*
X023360Y027543D01*
X023360Y026093D02*
X023360Y026043D01*
X023110Y025793D01*
X018910Y025793D01*
X017960Y026443D02*
X020060Y026443D01*
X020210Y026293D01*
X017960Y026443D02*
X017410Y025893D01*
X016260Y025893D01*
X015760Y025393D01*
X015760Y025343D01*
X015760Y025993D02*
X016510Y026743D01*
X016960Y026743D01*
X017260Y027043D01*
X015760Y025993D02*
X014660Y025993D01*
X014460Y025793D01*
X014460Y025491D01*
X014260Y025291D01*
X014212Y025243D01*
X014060Y025243D01*
X013710Y024893D01*
X013760Y024893D01*
X014110Y024543D01*
X014110Y022843D01*
X014560Y022393D01*
X015208Y022393D01*
X012760Y023843D02*
X012510Y024093D01*
X009460Y024093D01*
X008760Y024793D01*
X008760Y025291D01*
X009260Y025291D02*
X009260Y024793D01*
X009510Y024543D01*
X012910Y024543D01*
X013710Y024893D02*
X010810Y024893D01*
X010362Y025393D02*
X011260Y025393D01*
X012110Y025743D02*
X012610Y026243D01*
X014260Y027743D02*
X014310Y027743D01*
X015260Y029393D02*
X015260Y029943D01*
X014960Y030243D01*
X016060Y030593D02*
X007710Y030593D01*
X007260Y030143D01*
X007260Y029393D01*
X007260Y029093D01*
X007810Y028543D01*
X010460Y028543D01*
X009210Y028093D02*
X008960Y028093D01*
X008760Y027893D01*
X008760Y027496D01*
X009260Y027496D02*
X009260Y026893D01*
X009810Y026343D01*
X009110Y025943D02*
X007660Y025943D01*
X007260Y025543D01*
X007260Y025291D01*
X006862Y024893D01*
X006760Y024893D01*
X007260Y024393D02*
X007760Y024893D01*
X007760Y025291D01*
X007260Y025893D02*
X007760Y026393D01*
X007760Y027496D01*
X008260Y027496D02*
X008260Y026393D01*
X007260Y025893D02*
X005760Y025893D01*
X004760Y024393D02*
X007260Y024393D01*
X006260Y022893D02*
X006708Y022444D01*
X009260Y022444D01*
X010311Y022393D02*
X011060Y022393D01*
X011310Y022643D01*
X011310Y022843D01*
X011860Y020843D02*
X009760Y020843D01*
X009360Y019043D02*
X008710Y018393D01*
X007260Y018393D01*
X007260Y017393D02*
X009860Y017393D01*
X008315Y011393D02*
X007360Y011393D01*
X008315Y011393D02*
X009337Y010371D01*
X009593Y010009D02*
X010510Y009093D01*
X013160Y009093D01*
X013710Y008543D01*
X012200Y008693D02*
X012090Y008583D01*
X012080Y008583D01*
X010520Y007023D01*
X008600Y007023D01*
X007800Y007823D01*
X007800Y008563D01*
X006920Y009443D01*
X005710Y009443D01*
X004460Y010693D01*
X006260Y008893D02*
X006260Y005393D01*
X012260Y009893D02*
X024260Y009893D01*
X025660Y011593D02*
X026010Y011593D01*
X026360Y011243D01*
X026460Y011243D01*
X027210Y011993D01*
X027210Y012542D01*
X025660Y011593D02*
X025260Y011993D01*
X028060Y015693D02*
X028511Y015693D01*
X028885Y016067D01*
X029160Y015793D01*
X029610Y015793D01*
X029960Y016143D01*
X029872Y016143D01*
X029634Y016381D01*
X029960Y016143D02*
X030510Y016143D01*
X030460Y016893D02*
X032260Y016893D01*
X030460Y016893D02*
X030260Y017093D01*
X028885Y017484D02*
X028795Y017393D01*
X027260Y017393D01*
X026760Y016893D01*
X026760Y016393D01*
X026385Y016019D01*
X026260Y016019D01*
X027760Y016019D02*
X027760Y015993D01*
X028060Y015693D01*
X028885Y016067D02*
X028885Y016381D01*
X028885Y017484D02*
X031760Y020358D01*
X031760Y020893D01*
X029812Y023393D02*
X029260Y023393D01*
X032210Y029893D02*
X031710Y030393D01*
X022260Y030393D01*
X021760Y029893D01*
X021760Y029393D01*
X021760Y029893D02*
X021260Y030393D01*
X018260Y030393D01*
X017260Y029393D01*
X016060Y030593D01*
X018260Y030893D02*
X012260Y030893D01*
X011260Y029943D02*
X011260Y029893D01*
X011260Y029943D02*
X010960Y030243D01*
X009110Y030243D01*
X008260Y029393D01*
X007810Y028543D02*
X007260Y027993D01*
X010260Y025291D02*
X010362Y025393D01*
X004760Y024393D02*
X004460Y024093D01*
X004460Y023893D01*
X009560Y031243D02*
X030660Y031243D01*
X020560Y009093D02*
X015760Y009093D01*
X016419Y007643D02*
X016419Y005583D01*
X017310Y004693D01*
X017760Y004693D01*
X019760Y005193D02*
X020335Y005193D01*
X020360Y005193D01*
X021010Y005843D01*
X021010Y006153D01*
X021100Y006243D01*
X022219Y006243D02*
X022219Y007433D01*
X020560Y009093D01*
X020335Y005193D02*
X021185Y004343D01*
X021185Y004117D01*
X021710Y003593D01*
X023410Y003593D01*
X023710Y003893D01*
X023710Y004583D01*
X024080Y004953D01*
X026640Y004953D01*
D31*
X026360Y011243D03*
X028680Y013053D03*
X024880Y014793D03*
X029960Y019243D03*
X028760Y020893D03*
X030260Y017093D03*
X022310Y024143D03*
X018210Y019393D03*
X017960Y017443D03*
X011310Y022843D03*
X011260Y025393D03*
X013010Y027643D03*
X009210Y028093D03*
X007610Y013443D03*
X009660Y012443D03*
X011360Y009643D03*
X013710Y008543D03*
X015310Y008643D03*
X008810Y009443D03*
X006260Y008893D03*
X004460Y010693D03*
X030210Y026893D03*
X031110Y025943D03*
X030660Y031243D03*
D32*
X032210Y029893D03*
X030110Y028043D03*
X028260Y028393D03*
X029110Y026293D03*
X028360Y025893D03*
X026460Y025643D03*
X027110Y023993D03*
X026760Y021793D03*
X025960Y022043D03*
X024960Y020693D03*
X024160Y021743D03*
X023210Y023143D03*
X022660Y023793D03*
X021910Y024943D03*
X020660Y023793D03*
X019410Y024543D03*
X018710Y024393D03*
X017910Y024993D03*
X017760Y025393D03*
X016210Y024543D03*
X016060Y024043D03*
X016510Y023443D03*
X017260Y023793D03*
X017360Y022543D03*
X018710Y022043D03*
X017660Y020693D03*
X018410Y019893D03*
X016760Y019793D03*
X017392Y018111D03*
X016310Y017193D03*
X016710Y016543D03*
X017260Y016243D03*
X018360Y015843D03*
X018860Y015943D03*
X020260Y016893D03*
X021260Y017893D03*
X019210Y018443D03*
X022360Y019893D03*
X024260Y023443D03*
X024910Y023443D03*
X027760Y021543D03*
X029260Y023393D03*
X029760Y020643D03*
X030760Y018393D03*
X026960Y018393D03*
X023160Y011643D03*
X022960Y011243D03*
X022410Y011393D03*
X021760Y010943D03*
X020810Y010543D03*
X020770Y011653D03*
X019580Y011593D03*
X019160Y012023D03*
X018630Y012493D03*
X017980Y013553D03*
X018360Y013753D03*
X015760Y014093D03*
X015260Y013493D03*
X013960Y013093D03*
X013160Y011493D03*
X012710Y011093D03*
X012510Y010283D03*
X013210Y010243D03*
X014360Y010543D03*
X012200Y008693D03*
X011960Y011993D03*
X012110Y012343D03*
X010410Y013043D03*
X010060Y012843D03*
X009110Y012243D03*
X009410Y014093D03*
X010270Y014743D03*
X010110Y015743D03*
X008660Y015243D03*
X008610Y016693D03*
X009860Y017393D03*
X009560Y018643D03*
X009360Y019043D03*
X010410Y019093D03*
X011910Y018843D03*
X012460Y017493D03*
X014260Y018843D03*
X014310Y019293D03*
X014660Y018493D03*
X015460Y017993D03*
X014860Y016493D03*
X012910Y015293D03*
X013710Y020293D03*
X013260Y020693D03*
X013110Y021043D03*
X013860Y020843D03*
X013310Y021993D03*
X013360Y023393D03*
X012760Y023843D03*
X014510Y023193D03*
X015060Y023643D03*
X015710Y023143D03*
X012110Y025743D03*
X012360Y026543D03*
X011660Y028493D03*
X011760Y028893D03*
X011260Y029893D03*
X012610Y030043D03*
X012260Y030893D03*
X009560Y031243D03*
X015960Y027943D03*
X018860Y028043D03*
X020210Y026293D03*
X021110Y027193D03*
X018260Y030893D03*
X025760Y027343D03*
X033510Y027143D03*
X024510Y009893D03*
X024010Y008143D03*
X011860Y020843D03*
X011760Y021893D03*
X011610Y022343D03*
X010160Y021393D03*
X009760Y020843D03*
X007660Y023293D03*
X006260Y022893D03*
X006260Y021893D03*
X006760Y024893D03*
X009560Y023793D03*
X010810Y024893D03*
D33*
X013260Y023293D02*
X013360Y023393D01*
X013260Y023293D02*
X007660Y023293D01*
X006319Y022383D02*
X007410Y021293D01*
X007410Y021117D01*
X007634Y020893D01*
X006885Y020893D02*
X006810Y020817D01*
X006810Y020643D01*
X006160Y019993D01*
X006160Y017443D01*
X006710Y016893D01*
X007760Y016893D01*
X007910Y017043D01*
X010310Y017043D01*
X010160Y016093D02*
X008010Y016093D01*
X007634Y015717D01*
X007634Y015193D01*
X006885Y015193D02*
X006750Y015057D01*
X006750Y014143D01*
X007610Y013443D02*
X007869Y013703D01*
X007869Y014143D01*
X008360Y013043D02*
X009410Y014093D01*
X008360Y013043D02*
X006260Y013043D01*
X005960Y013343D01*
X005960Y015693D01*
X005660Y015993D01*
X005660Y021293D01*
X006260Y021893D01*
X006319Y022383D02*
X005560Y022383D01*
X009208Y022393D02*
X009260Y022444D01*
X011760Y021893D02*
X011860Y021993D01*
X013310Y021993D01*
X014510Y023193D02*
X014510Y023893D01*
X014760Y024143D01*
X014760Y025291D01*
X015260Y025291D02*
X015260Y023843D01*
X015060Y023643D01*
X016210Y024543D02*
X016360Y024393D01*
X018710Y024393D01*
X019260Y024693D02*
X019410Y024543D01*
X019310Y024643D01*
X019260Y024693D02*
X016660Y024693D01*
X016310Y025043D01*
X016260Y025043D01*
X016260Y025291D01*
X015760Y025291D02*
X015760Y025343D01*
X017260Y025291D02*
X017312Y025291D01*
X017312Y025191D01*
X017510Y024993D01*
X017910Y024993D01*
X017760Y025393D02*
X021460Y025393D01*
X021910Y024943D01*
X026760Y024393D02*
X026760Y023693D01*
X027110Y023993D02*
X027110Y024193D01*
X027310Y024393D01*
X027607Y024393D01*
X027260Y024893D02*
X026760Y024393D01*
X029960Y019243D02*
X022160Y019243D01*
X021760Y018393D02*
X021260Y017893D01*
X021760Y018393D02*
X026960Y018393D01*
X026260Y016019D02*
X026210Y015969D01*
X026210Y015843D01*
X025460Y015093D01*
X025310Y015243D01*
X021910Y015243D01*
X020760Y016393D01*
X019210Y018057D02*
X017774Y016622D01*
X019210Y018057D02*
X019210Y018443D01*
X016107Y018290D02*
X016105Y018290D01*
X016311Y022393D02*
X017210Y022393D01*
X017360Y022543D01*
X013010Y027643D02*
X010810Y027643D01*
X010360Y028093D01*
X009210Y028093D01*
X007260Y027496D02*
X007210Y027446D01*
X012610Y030043D02*
X012810Y030243D01*
X014960Y030243D01*
X008610Y016693D02*
X008310Y016393D01*
X007260Y016393D01*
X012110Y012343D02*
X012661Y012343D01*
X013114Y012796D01*
X013807Y012103D02*
X013560Y011856D01*
X013560Y011323D01*
X012520Y010283D01*
X012510Y010283D01*
X012260Y009893D02*
X011860Y009893D01*
X011260Y010493D01*
X009460Y010493D01*
X009337Y010371D01*
X009337Y010105D01*
X009337Y009721D01*
X009260Y009643D01*
X009110Y009793D01*
X009110Y010077D01*
X009082Y010105D01*
X008826Y010105D02*
X008810Y010089D01*
X008810Y009443D01*
X009260Y009643D02*
X009260Y008743D01*
X009336Y008667D01*
X009337Y008667D01*
X009961Y008043D01*
X009593Y010009D02*
X009593Y010105D01*
X009410Y010793D02*
X012410Y010793D01*
X012710Y011093D01*
X012710Y011543D01*
X013210Y010243D02*
X030610Y010243D01*
X031760Y011393D01*
X032260Y011393D01*
X028680Y013053D02*
X025010Y013053D01*
X024880Y012923D01*
X024880Y012651D01*
X024876Y012655D01*
X025130Y012653D02*
X025130Y012393D01*
X025260Y012263D01*
X025260Y012203D01*
X025387Y012331D01*
X025387Y012655D01*
X025132Y012655D02*
X025130Y012653D01*
X025260Y012203D02*
X025260Y011993D01*
X025387Y014131D02*
X025390Y014134D01*
X025132Y014131D02*
X025132Y014515D01*
X025460Y014843D01*
X025460Y015093D01*
X024880Y014793D02*
X024880Y014135D01*
X024876Y014131D01*
X021760Y010943D02*
X016989Y010943D01*
X015271Y012662D01*
X015405Y012796D02*
X016958Y011243D01*
X020360Y011243D01*
X020770Y011653D01*
X024260Y009893D02*
X024510Y009893D01*
X015760Y009093D02*
X015310Y008643D01*
X015310Y007653D01*
X015300Y007643D01*
X011560Y011043D02*
X009560Y011043D01*
X009360Y011243D01*
X009360Y011559D01*
X009337Y011581D01*
X009060Y011343D02*
X009060Y011143D01*
X009410Y010793D01*
D34*
X005760Y010893D03*
X005760Y011893D03*
X004460Y023893D03*
X009110Y025943D03*
X009960Y026993D03*
X012910Y024543D03*
X014760Y026643D03*
X015260Y026793D03*
X018910Y025793D03*
X023360Y026093D03*
X023360Y027543D03*
X022160Y019243D03*
X030760Y016393D03*
D35*
X027607Y024893D02*
X027260Y024893D01*
D36*
X008260Y026393D03*
X005760Y025893D03*
M02*
