G75*
%MOIN*%
%OFA0B0*%
%FSLAX24Y24*%
%IPPOS*%
%LPD*%
%AMOC8*
5,1,8,0,0,1.08239X$1,22.5*
%
%ADD10C,0.0000*%
%ADD11C,0.0060*%
%ADD12C,0.0040*%
%ADD13C,0.0030*%
%ADD14C,0.0020*%
%ADD15C,0.0051*%
%ADD16R,3.2000X0.1500*%
%ADD17C,0.0050*%
%ADD18C,0.0080*%
%ADD19R,0.0591X0.0531*%
%ADD20C,0.0010*%
%ADD21R,0.0079X0.0079*%
%ADD22R,0.0098X0.0059*%
%ADD23R,0.0059X0.0098*%
D10*
X003760Y002393D02*
X003760Y033889D01*
X035780Y033889D01*
X035730Y002343D01*
X003760Y002393D01*
X013130Y003393D02*
X013132Y003443D01*
X013138Y003493D01*
X013148Y003542D01*
X013162Y003590D01*
X013179Y003637D01*
X013200Y003682D01*
X013225Y003726D01*
X013253Y003767D01*
X013285Y003806D01*
X013319Y003843D01*
X013356Y003877D01*
X013396Y003907D01*
X013438Y003934D01*
X013482Y003958D01*
X013528Y003979D01*
X013575Y003995D01*
X013623Y004008D01*
X013673Y004017D01*
X013722Y004022D01*
X013773Y004023D01*
X013823Y004020D01*
X013872Y004013D01*
X013921Y004002D01*
X013969Y003987D01*
X014015Y003969D01*
X014060Y003947D01*
X014103Y003921D01*
X014144Y003892D01*
X014183Y003860D01*
X014219Y003825D01*
X014251Y003787D01*
X014281Y003747D01*
X014308Y003704D01*
X014331Y003660D01*
X014350Y003614D01*
X014366Y003566D01*
X014378Y003517D01*
X014386Y003468D01*
X014390Y003418D01*
X014390Y003368D01*
X014386Y003318D01*
X014378Y003269D01*
X014366Y003220D01*
X014350Y003172D01*
X014331Y003126D01*
X014308Y003082D01*
X014281Y003039D01*
X014251Y002999D01*
X014219Y002961D01*
X014183Y002926D01*
X014144Y002894D01*
X014103Y002865D01*
X014060Y002839D01*
X014015Y002817D01*
X013969Y002799D01*
X013921Y002784D01*
X013872Y002773D01*
X013823Y002766D01*
X013773Y002763D01*
X013722Y002764D01*
X013673Y002769D01*
X013623Y002778D01*
X013575Y002791D01*
X013528Y002807D01*
X013482Y002828D01*
X013438Y002852D01*
X013396Y002879D01*
X013356Y002909D01*
X013319Y002943D01*
X013285Y002980D01*
X013253Y003019D01*
X013225Y003060D01*
X013200Y003104D01*
X013179Y003149D01*
X013162Y003196D01*
X013148Y003244D01*
X013138Y003293D01*
X013132Y003343D01*
X013130Y003393D01*
X025130Y003393D02*
X025132Y003443D01*
X025138Y003493D01*
X025148Y003542D01*
X025162Y003590D01*
X025179Y003637D01*
X025200Y003682D01*
X025225Y003726D01*
X025253Y003767D01*
X025285Y003806D01*
X025319Y003843D01*
X025356Y003877D01*
X025396Y003907D01*
X025438Y003934D01*
X025482Y003958D01*
X025528Y003979D01*
X025575Y003995D01*
X025623Y004008D01*
X025673Y004017D01*
X025722Y004022D01*
X025773Y004023D01*
X025823Y004020D01*
X025872Y004013D01*
X025921Y004002D01*
X025969Y003987D01*
X026015Y003969D01*
X026060Y003947D01*
X026103Y003921D01*
X026144Y003892D01*
X026183Y003860D01*
X026219Y003825D01*
X026251Y003787D01*
X026281Y003747D01*
X026308Y003704D01*
X026331Y003660D01*
X026350Y003614D01*
X026366Y003566D01*
X026378Y003517D01*
X026386Y003468D01*
X026390Y003418D01*
X026390Y003368D01*
X026386Y003318D01*
X026378Y003269D01*
X026366Y003220D01*
X026350Y003172D01*
X026331Y003126D01*
X026308Y003082D01*
X026281Y003039D01*
X026251Y002999D01*
X026219Y002961D01*
X026183Y002926D01*
X026144Y002894D01*
X026103Y002865D01*
X026060Y002839D01*
X026015Y002817D01*
X025969Y002799D01*
X025921Y002784D01*
X025872Y002773D01*
X025823Y002766D01*
X025773Y002763D01*
X025722Y002764D01*
X025673Y002769D01*
X025623Y002778D01*
X025575Y002791D01*
X025528Y002807D01*
X025482Y002828D01*
X025438Y002852D01*
X025396Y002879D01*
X025356Y002909D01*
X025319Y002943D01*
X025285Y002980D01*
X025253Y003019D01*
X025225Y003060D01*
X025200Y003104D01*
X025179Y003149D01*
X025162Y003196D01*
X025148Y003244D01*
X025138Y003293D01*
X025132Y003343D01*
X025130Y003393D01*
X025130Y032893D02*
X025132Y032943D01*
X025138Y032993D01*
X025148Y033042D01*
X025162Y033090D01*
X025179Y033137D01*
X025200Y033182D01*
X025225Y033226D01*
X025253Y033267D01*
X025285Y033306D01*
X025319Y033343D01*
X025356Y033377D01*
X025396Y033407D01*
X025438Y033434D01*
X025482Y033458D01*
X025528Y033479D01*
X025575Y033495D01*
X025623Y033508D01*
X025673Y033517D01*
X025722Y033522D01*
X025773Y033523D01*
X025823Y033520D01*
X025872Y033513D01*
X025921Y033502D01*
X025969Y033487D01*
X026015Y033469D01*
X026060Y033447D01*
X026103Y033421D01*
X026144Y033392D01*
X026183Y033360D01*
X026219Y033325D01*
X026251Y033287D01*
X026281Y033247D01*
X026308Y033204D01*
X026331Y033160D01*
X026350Y033114D01*
X026366Y033066D01*
X026378Y033017D01*
X026386Y032968D01*
X026390Y032918D01*
X026390Y032868D01*
X026386Y032818D01*
X026378Y032769D01*
X026366Y032720D01*
X026350Y032672D01*
X026331Y032626D01*
X026308Y032582D01*
X026281Y032539D01*
X026251Y032499D01*
X026219Y032461D01*
X026183Y032426D01*
X026144Y032394D01*
X026103Y032365D01*
X026060Y032339D01*
X026015Y032317D01*
X025969Y032299D01*
X025921Y032284D01*
X025872Y032273D01*
X025823Y032266D01*
X025773Y032263D01*
X025722Y032264D01*
X025673Y032269D01*
X025623Y032278D01*
X025575Y032291D01*
X025528Y032307D01*
X025482Y032328D01*
X025438Y032352D01*
X025396Y032379D01*
X025356Y032409D01*
X025319Y032443D01*
X025285Y032480D01*
X025253Y032519D01*
X025225Y032560D01*
X025200Y032604D01*
X025179Y032649D01*
X025162Y032696D01*
X025148Y032744D01*
X025138Y032793D01*
X025132Y032843D01*
X025130Y032893D01*
X013130Y032893D02*
X013132Y032943D01*
X013138Y032993D01*
X013148Y033042D01*
X013162Y033090D01*
X013179Y033137D01*
X013200Y033182D01*
X013225Y033226D01*
X013253Y033267D01*
X013285Y033306D01*
X013319Y033343D01*
X013356Y033377D01*
X013396Y033407D01*
X013438Y033434D01*
X013482Y033458D01*
X013528Y033479D01*
X013575Y033495D01*
X013623Y033508D01*
X013673Y033517D01*
X013722Y033522D01*
X013773Y033523D01*
X013823Y033520D01*
X013872Y033513D01*
X013921Y033502D01*
X013969Y033487D01*
X014015Y033469D01*
X014060Y033447D01*
X014103Y033421D01*
X014144Y033392D01*
X014183Y033360D01*
X014219Y033325D01*
X014251Y033287D01*
X014281Y033247D01*
X014308Y033204D01*
X014331Y033160D01*
X014350Y033114D01*
X014366Y033066D01*
X014378Y033017D01*
X014386Y032968D01*
X014390Y032918D01*
X014390Y032868D01*
X014386Y032818D01*
X014378Y032769D01*
X014366Y032720D01*
X014350Y032672D01*
X014331Y032626D01*
X014308Y032582D01*
X014281Y032539D01*
X014251Y032499D01*
X014219Y032461D01*
X014183Y032426D01*
X014144Y032394D01*
X014103Y032365D01*
X014060Y032339D01*
X014015Y032317D01*
X013969Y032299D01*
X013921Y032284D01*
X013872Y032273D01*
X013823Y032266D01*
X013773Y032263D01*
X013722Y032264D01*
X013673Y032269D01*
X013623Y032278D01*
X013575Y032291D01*
X013528Y032307D01*
X013482Y032328D01*
X013438Y032352D01*
X013396Y032379D01*
X013356Y032409D01*
X013319Y032443D01*
X013285Y032480D01*
X013253Y032519D01*
X013225Y032560D01*
X013200Y032604D01*
X013179Y032649D01*
X013162Y032696D01*
X013148Y032744D01*
X013138Y032793D01*
X013132Y032843D01*
X013130Y032893D01*
D11*
X014010Y029893D02*
X013760Y029643D01*
X013760Y029143D01*
X014010Y028893D01*
X014510Y028893D01*
X014760Y029143D01*
X014760Y029643D01*
X014510Y029893D01*
X014010Y029893D01*
X014760Y029643D02*
X015010Y029893D01*
X015510Y029893D01*
X015760Y029643D01*
X016010Y029893D01*
X016510Y029893D01*
X016760Y029643D01*
X017010Y029893D01*
X017510Y029893D01*
X017760Y029643D01*
X017760Y029143D01*
X017510Y028893D01*
X017010Y028893D01*
X016760Y029143D01*
X016510Y028893D01*
X016010Y028893D01*
X015760Y029143D01*
X015760Y029643D01*
X015760Y029143D02*
X015510Y028893D01*
X015010Y028893D01*
X014760Y029143D01*
X016760Y029143D02*
X016760Y029643D01*
X020260Y029643D02*
X020260Y029143D01*
X020510Y028893D01*
X021010Y028893D01*
X021260Y029143D01*
X021510Y028893D01*
X022010Y028893D01*
X022260Y029143D01*
X022260Y029643D01*
X022010Y029893D01*
X021510Y029893D01*
X021260Y029643D01*
X021260Y029143D01*
X021260Y029643D02*
X021010Y029893D01*
X020510Y029893D01*
X020260Y029643D01*
X022260Y029643D02*
X022510Y029893D01*
X023010Y029893D01*
X023260Y029643D01*
X023510Y029893D01*
X024010Y029893D01*
X024260Y029643D01*
X024510Y029893D01*
X025010Y029893D01*
X025260Y029643D01*
X025260Y029143D01*
X025010Y028893D01*
X024510Y028893D01*
X024260Y029143D01*
X024010Y028893D01*
X023510Y028893D01*
X023260Y029143D01*
X023010Y028893D01*
X022510Y028893D01*
X022260Y029143D01*
X023260Y029143D02*
X023260Y029643D01*
X024260Y029643D02*
X024260Y029143D01*
X025260Y029143D02*
X025510Y028893D01*
X026010Y028893D01*
X026260Y029143D01*
X026510Y028893D01*
X027010Y028893D01*
X027260Y029143D01*
X027510Y028893D01*
X028010Y028893D01*
X028260Y029143D01*
X028260Y029643D01*
X028010Y029893D01*
X027510Y029893D01*
X027260Y029643D01*
X027260Y029143D01*
X027260Y029643D02*
X027010Y029893D01*
X026510Y029893D01*
X026260Y029643D01*
X026260Y029143D01*
X026260Y029643D02*
X026010Y029893D01*
X025510Y029893D01*
X025260Y029643D01*
X028260Y029643D02*
X028510Y029893D01*
X029010Y029893D01*
X029260Y029643D01*
X029510Y029893D01*
X030010Y029893D01*
X030260Y029643D01*
X030260Y029143D01*
X030010Y028893D01*
X029510Y028893D01*
X029260Y029143D01*
X029010Y028893D01*
X028510Y028893D01*
X028260Y029143D01*
X029260Y029143D02*
X029260Y029643D01*
X031710Y027143D02*
X031710Y026643D01*
X031960Y026393D01*
X031710Y026143D01*
X031710Y025643D01*
X031960Y025393D01*
X032460Y025393D01*
X032710Y025643D01*
X032710Y026143D01*
X032460Y026393D01*
X031960Y026393D01*
X032460Y026393D02*
X032710Y026643D01*
X032710Y027143D01*
X032460Y027393D01*
X031960Y027393D01*
X031710Y027143D01*
X031960Y025393D02*
X031710Y025143D01*
X031710Y024643D01*
X031960Y024393D01*
X031710Y024143D01*
X031710Y023643D01*
X031960Y023393D01*
X032460Y023393D01*
X032710Y023643D01*
X032710Y024143D01*
X032460Y024393D01*
X031960Y024393D01*
X032460Y024393D02*
X032710Y024643D01*
X032710Y025143D01*
X032460Y025393D01*
X033010Y022393D02*
X031510Y022393D01*
X031260Y022143D01*
X031260Y021643D01*
X031510Y021393D01*
X033010Y021393D01*
X033260Y021143D01*
X033260Y020643D01*
X033010Y020393D01*
X031510Y020393D01*
X031260Y020643D01*
X031260Y021143D01*
X031510Y021393D01*
X033010Y021393D02*
X033260Y021643D01*
X033260Y022143D01*
X033010Y022393D01*
X032510Y019393D02*
X032010Y019393D01*
X031760Y019143D01*
X031760Y018643D01*
X032010Y018393D01*
X031760Y018143D01*
X031760Y017643D01*
X032010Y017393D01*
X032510Y017393D01*
X032760Y017643D01*
X032760Y018143D01*
X032510Y018393D01*
X032010Y018393D01*
X032510Y018393D02*
X032760Y018643D01*
X032760Y019143D01*
X032510Y019393D01*
X032510Y017393D02*
X032760Y017143D01*
X032760Y016643D01*
X032510Y016393D01*
X032760Y016143D01*
X032760Y015643D01*
X032510Y015393D01*
X032010Y015393D01*
X031760Y015643D01*
X031760Y016143D01*
X032010Y016393D01*
X031760Y016643D01*
X031760Y017143D01*
X032010Y017393D01*
X032010Y016393D02*
X032510Y016393D01*
X032510Y012893D02*
X032010Y012893D01*
X031760Y012643D01*
X031760Y012143D01*
X032010Y011893D01*
X031760Y011643D01*
X031760Y011143D01*
X032010Y010893D01*
X032510Y010893D01*
X032760Y011143D01*
X032760Y011643D01*
X032510Y011893D01*
X032010Y011893D01*
X032510Y011893D02*
X032760Y012143D01*
X032760Y012643D01*
X032510Y012893D01*
X032510Y010893D02*
X032760Y010643D01*
X032760Y010143D01*
X032510Y009893D01*
X032760Y009643D01*
X032760Y009143D01*
X032510Y008893D01*
X032760Y008643D01*
X032760Y008143D01*
X032510Y007893D01*
X032010Y007893D01*
X031760Y008143D01*
X031760Y008643D01*
X032010Y008893D01*
X031760Y009143D01*
X031760Y009643D01*
X032010Y009893D01*
X031760Y010143D01*
X031760Y010643D01*
X032010Y010893D01*
X032010Y009893D02*
X032510Y009893D01*
X032510Y008893D02*
X032010Y008893D01*
X031088Y004964D02*
X031195Y004857D01*
X031195Y004430D01*
X031088Y004323D01*
X030874Y004323D01*
X030768Y004430D01*
X030768Y004857D01*
X030874Y004964D01*
X031088Y004964D01*
X030981Y004537D02*
X031195Y004323D01*
X030550Y004323D02*
X030550Y004964D01*
X030337Y004750D01*
X030123Y004964D01*
X030123Y004323D01*
X029906Y004430D02*
X029799Y004323D01*
X029585Y004323D01*
X029479Y004430D01*
X029692Y004644D02*
X029799Y004644D01*
X029906Y004537D01*
X029906Y004430D01*
X029799Y004644D02*
X029906Y004750D01*
X029906Y004857D01*
X029799Y004964D01*
X029585Y004964D01*
X029479Y004857D01*
X029261Y004644D02*
X028834Y004644D01*
X028617Y004857D02*
X028510Y004964D01*
X028190Y004964D01*
X028190Y004323D01*
X028510Y004323D01*
X028617Y004430D01*
X028617Y004857D01*
X020486Y001683D02*
X020379Y001790D01*
X020166Y001790D01*
X020059Y001683D01*
X020486Y001683D02*
X020486Y001577D01*
X020059Y001149D01*
X020486Y001149D01*
X019843Y001149D02*
X019737Y001149D01*
X019737Y001256D01*
X019843Y001256D01*
X019843Y001149D01*
X019519Y001256D02*
X019519Y001363D01*
X019412Y001470D01*
X019305Y001470D01*
X019412Y001470D02*
X019519Y001577D01*
X019519Y001683D01*
X019412Y001790D01*
X019199Y001790D01*
X019092Y001683D01*
X019092Y001256D02*
X019199Y001149D01*
X019412Y001149D01*
X019519Y001256D01*
X014260Y004893D02*
X014010Y004643D01*
X013510Y004643D01*
X013260Y004893D01*
X013010Y004643D01*
X012510Y004643D01*
X012260Y004893D01*
X012260Y005393D01*
X012510Y005643D01*
X013010Y005643D01*
X013260Y005393D01*
X013510Y005643D01*
X014010Y005643D01*
X014260Y005393D01*
X014260Y004893D01*
X013260Y004893D02*
X013260Y005393D01*
X009760Y005143D02*
X009510Y004893D01*
X009010Y004893D01*
X008760Y005143D01*
X008510Y004893D01*
X008010Y004893D01*
X007760Y005143D01*
X007510Y004893D01*
X007010Y004893D01*
X006760Y005143D01*
X006510Y004893D01*
X006010Y004893D01*
X005760Y005143D01*
X005760Y005643D01*
X006010Y005893D01*
X006510Y005893D01*
X006760Y005643D01*
X007010Y005893D01*
X007510Y005893D01*
X007760Y005643D01*
X007760Y005143D01*
X007760Y005643D02*
X008010Y005893D01*
X008510Y005893D01*
X008760Y005643D01*
X009010Y005893D01*
X009510Y005893D01*
X009760Y005643D01*
X009760Y005143D01*
X008760Y005143D02*
X008760Y005643D01*
X006760Y005643D02*
X006760Y005143D01*
X007110Y010893D02*
X006860Y011143D01*
X006860Y011643D01*
X007110Y011893D01*
X006860Y012143D01*
X006860Y012643D01*
X007110Y012893D01*
X007610Y012893D01*
X007860Y012643D01*
X007860Y012143D01*
X007610Y011893D01*
X007860Y011643D01*
X007860Y011143D01*
X007610Y010893D01*
X007110Y010893D01*
X007110Y011893D02*
X007610Y011893D01*
X010710Y014932D02*
X010788Y014854D01*
X011063Y015130D01*
X010986Y015207D01*
X010710Y014932D01*
X010653Y014988D02*
X010929Y015264D01*
X010851Y015342D01*
X010575Y015066D01*
X010653Y014988D01*
X010512Y015130D02*
X010788Y015405D01*
X010710Y015483D01*
X010434Y015207D01*
X010512Y015130D01*
X010370Y015271D02*
X010646Y015547D01*
X010568Y015625D01*
X010293Y015349D01*
X010370Y015271D01*
X010851Y014790D02*
X010929Y014712D01*
X011205Y014988D01*
X011127Y015066D01*
X010851Y014790D01*
X010993Y014649D02*
X011070Y014571D01*
X011346Y014847D01*
X011268Y014925D01*
X010993Y014649D01*
X011127Y014514D02*
X011205Y014437D01*
X011481Y014712D01*
X011403Y014790D01*
X011127Y014514D01*
X011268Y014373D02*
X011544Y014649D01*
X011622Y014571D01*
X011346Y014295D01*
X011268Y014373D01*
X011410Y014232D02*
X011488Y014154D01*
X011763Y014430D01*
X011686Y014507D01*
X011410Y014232D01*
X011544Y014097D02*
X011622Y014019D01*
X011898Y014295D01*
X011820Y014373D01*
X011544Y014097D01*
X011686Y013956D02*
X011763Y013878D01*
X012039Y014154D01*
X011961Y014232D01*
X011686Y013956D01*
X011827Y013814D02*
X011905Y013737D01*
X012181Y014012D01*
X012103Y014090D01*
X011827Y013814D01*
X011968Y013673D02*
X012046Y013595D01*
X012322Y013871D01*
X012237Y013956D01*
X011968Y013673D01*
X012103Y013539D02*
X012181Y013461D01*
X012456Y013737D01*
X012379Y013814D01*
X012103Y013539D01*
X012244Y013397D02*
X012322Y013319D01*
X012598Y013595D01*
X012520Y013673D01*
X012244Y013397D01*
X012386Y013256D02*
X012463Y013178D01*
X012739Y013454D01*
X012661Y013532D01*
X012386Y013256D01*
X012520Y013121D02*
X012598Y013044D01*
X012874Y013319D01*
X012796Y013397D01*
X012520Y013121D01*
X012661Y012980D02*
X012739Y012902D01*
X013015Y013178D01*
X012937Y013256D01*
X012661Y012980D01*
X012803Y012839D02*
X012881Y012761D01*
X013156Y013037D01*
X013079Y013114D01*
X012803Y012839D01*
X012937Y012704D02*
X013015Y012626D01*
X013291Y012902D01*
X013213Y012980D01*
X012937Y012704D01*
X013079Y012563D02*
X013156Y012485D01*
X013432Y012761D01*
X013354Y012839D01*
X013079Y012563D01*
X013220Y012421D02*
X013298Y012344D01*
X013574Y012619D01*
X013496Y012697D01*
X013220Y012421D01*
X013354Y012287D02*
X013432Y012209D01*
X013708Y012485D01*
X013630Y012563D01*
X013354Y012287D01*
X013496Y012146D02*
X013574Y012068D01*
X013849Y012344D01*
X013772Y012421D01*
X013496Y012146D01*
X013637Y012004D02*
X013715Y011926D01*
X013991Y012202D01*
X013913Y012280D01*
X013637Y012004D01*
X014260Y011934D02*
X018219Y015893D01*
X014260Y019853D01*
X010300Y015893D01*
X014260Y011934D01*
X014528Y012202D02*
X014606Y012280D01*
X014882Y012004D01*
X014804Y011926D01*
X014528Y012202D01*
X014670Y012344D02*
X014945Y012068D01*
X015023Y012146D01*
X014747Y012421D01*
X014670Y012344D01*
X014811Y012485D02*
X015087Y012209D01*
X015165Y012287D01*
X014889Y012563D01*
X014811Y012485D01*
X014945Y012619D02*
X015221Y012344D01*
X015299Y012421D01*
X015023Y012697D01*
X014945Y012619D01*
X015087Y012761D02*
X015363Y012485D01*
X015440Y012563D01*
X015165Y012839D01*
X015087Y012761D01*
X015228Y012902D02*
X015504Y012626D01*
X015582Y012704D01*
X015306Y012980D01*
X015228Y012902D01*
X015363Y013037D02*
X015638Y012761D01*
X015716Y012839D01*
X015440Y013114D01*
X015363Y013037D01*
X015504Y013178D02*
X015780Y012902D01*
X015858Y012980D01*
X015582Y013256D01*
X015504Y013178D01*
X015645Y013319D02*
X015921Y013044D01*
X015999Y013121D01*
X015723Y013397D01*
X015645Y013319D01*
X015780Y013454D02*
X016056Y013178D01*
X016133Y013256D01*
X015858Y013532D01*
X015780Y013454D01*
X015921Y013595D02*
X016197Y013319D01*
X016275Y013397D01*
X015999Y013673D01*
X015921Y013595D01*
X016063Y013737D02*
X016338Y013461D01*
X016416Y013539D01*
X016140Y013814D01*
X016063Y013737D01*
X016197Y013871D02*
X016480Y013602D01*
X016558Y013680D01*
X016282Y013956D01*
X016197Y013871D01*
X016338Y014012D02*
X016614Y013737D01*
X016692Y013814D01*
X016416Y014090D01*
X016338Y014012D01*
X016480Y014154D02*
X016756Y013878D01*
X016833Y013956D01*
X016558Y014232D01*
X016480Y014154D01*
X016621Y014295D02*
X016897Y014019D01*
X016975Y014097D01*
X016699Y014373D01*
X016621Y014295D01*
X016756Y014430D02*
X017031Y014154D01*
X017109Y014232D01*
X016833Y014507D01*
X016756Y014430D01*
X016897Y014571D02*
X017173Y014295D01*
X017251Y014373D01*
X016975Y014649D01*
X016897Y014571D01*
X017038Y014712D02*
X017314Y014437D01*
X017392Y014514D01*
X017116Y014790D01*
X017038Y014712D01*
X017173Y014847D02*
X017449Y014571D01*
X017526Y014649D01*
X017251Y014925D01*
X017173Y014847D01*
X017314Y014988D02*
X017590Y014712D01*
X017668Y014790D01*
X017392Y015066D01*
X017314Y014988D01*
X017456Y015130D02*
X017731Y014854D01*
X017809Y014932D01*
X017533Y015207D01*
X017456Y015130D01*
X017590Y015264D02*
X017866Y014988D01*
X017944Y015066D01*
X017668Y015342D01*
X017590Y015264D01*
X017731Y015405D02*
X018007Y015130D01*
X018085Y015207D01*
X017809Y015483D01*
X017731Y015405D01*
X017866Y015540D02*
X017866Y016247D01*
X017873Y016240D02*
X018149Y016516D01*
X018226Y016438D01*
X017951Y016162D01*
X017873Y016240D01*
X017809Y016303D02*
X018085Y016579D01*
X018007Y016657D01*
X017731Y016381D01*
X017809Y016303D01*
X017668Y016445D02*
X017944Y016721D01*
X017866Y016798D01*
X017590Y016523D01*
X017668Y016445D01*
X017533Y016579D02*
X017809Y016855D01*
X017731Y016933D01*
X017456Y016657D01*
X017533Y016579D01*
X017392Y016721D02*
X017668Y016996D01*
X017590Y017074D01*
X017314Y016798D01*
X017392Y016721D01*
X017251Y016862D02*
X017526Y017138D01*
X017449Y017216D01*
X017173Y016940D01*
X017251Y016862D01*
X017116Y016996D02*
X017392Y017272D01*
X017314Y017350D01*
X017038Y017074D01*
X017116Y016996D01*
X016975Y017138D02*
X017251Y017414D01*
X017173Y017491D01*
X016897Y017216D01*
X016975Y017138D01*
X016833Y017279D02*
X017109Y017555D01*
X017031Y017633D01*
X016756Y017357D01*
X016833Y017279D01*
X016699Y017414D02*
X016621Y017491D01*
X016897Y017767D01*
X016975Y017689D01*
X016699Y017414D01*
X016558Y017555D02*
X016833Y017831D01*
X016756Y017909D01*
X016480Y017633D01*
X016558Y017555D01*
X016416Y017696D02*
X016692Y017972D01*
X016614Y018050D01*
X016338Y017774D01*
X016416Y017696D01*
X016282Y017831D02*
X016551Y018114D01*
X016473Y018191D01*
X016197Y017916D01*
X016282Y017831D01*
X016140Y017972D02*
X016416Y018248D01*
X016338Y018326D01*
X016063Y018050D01*
X016140Y017972D01*
X015999Y018114D02*
X015921Y018191D01*
X016197Y018467D01*
X016275Y018389D01*
X015999Y018114D01*
X015858Y018255D02*
X016133Y018531D01*
X016056Y018609D01*
X015780Y018333D01*
X015858Y018255D01*
X015723Y018389D02*
X015999Y018665D01*
X015921Y018743D01*
X015645Y018467D01*
X015723Y018389D01*
X015582Y018531D02*
X015858Y018807D01*
X015780Y018884D01*
X015504Y018609D01*
X015582Y018531D01*
X015440Y018672D02*
X015716Y018948D01*
X015638Y019026D01*
X015363Y018750D01*
X015440Y018672D01*
X015306Y018807D02*
X015228Y018884D01*
X015504Y019160D01*
X015582Y019082D01*
X015306Y018807D01*
X015165Y018948D02*
X015440Y019224D01*
X015363Y019302D01*
X015087Y019026D01*
X015165Y018948D01*
X015023Y019089D02*
X015299Y019365D01*
X015221Y019443D01*
X014945Y019167D01*
X015023Y019089D01*
X014889Y019224D02*
X015165Y019500D01*
X015087Y019577D01*
X014811Y019302D01*
X014889Y019224D01*
X014747Y019365D02*
X014670Y019443D01*
X014945Y019719D01*
X015023Y019641D01*
X014747Y019365D01*
X014606Y019507D02*
X014882Y019782D01*
X014804Y019860D01*
X014528Y019584D01*
X014606Y019507D01*
X013991Y019584D02*
X013715Y019860D01*
X013637Y019782D01*
X013913Y019507D01*
X013991Y019584D01*
X013849Y019443D02*
X013574Y019719D01*
X013496Y019641D01*
X013772Y019365D01*
X013849Y019443D01*
X013708Y019302D02*
X013432Y019577D01*
X013354Y019500D01*
X013630Y019224D01*
X013708Y019302D01*
X013574Y019167D02*
X013298Y019443D01*
X013220Y019365D01*
X013496Y019089D01*
X013574Y019167D01*
X013432Y019026D02*
X013354Y018948D01*
X013079Y019224D01*
X013156Y019302D01*
X013432Y019026D01*
X013291Y018884D02*
X013015Y019160D01*
X012937Y019082D01*
X013213Y018807D01*
X013291Y018884D01*
X013156Y018750D02*
X012881Y019026D01*
X012803Y018948D01*
X013079Y018672D01*
X013156Y018750D01*
X013015Y018609D02*
X012739Y018884D01*
X012661Y018807D01*
X012937Y018531D01*
X013015Y018609D01*
X012874Y018467D02*
X012598Y018743D01*
X012520Y018665D01*
X012796Y018389D01*
X012874Y018467D01*
X012739Y018333D02*
X012661Y018255D01*
X012386Y018531D01*
X012463Y018609D01*
X012739Y018333D01*
X012598Y018191D02*
X012322Y018467D01*
X012244Y018389D01*
X012520Y018114D01*
X012598Y018191D01*
X012456Y018050D02*
X012181Y018326D01*
X012103Y018248D01*
X012379Y017972D01*
X012456Y018050D01*
X012322Y017916D02*
X012039Y018184D01*
X011961Y018107D01*
X012237Y017831D01*
X012322Y017916D01*
X012181Y017774D02*
X011905Y018050D01*
X011827Y017972D01*
X012103Y017696D01*
X012181Y017774D01*
X012039Y017633D02*
X011961Y017555D01*
X011686Y017831D01*
X011763Y017909D01*
X012039Y017633D01*
X011898Y017491D02*
X011622Y017767D01*
X011544Y017689D01*
X011820Y017414D01*
X011898Y017491D01*
X011763Y017357D02*
X011488Y017633D01*
X011410Y017555D01*
X011686Y017279D01*
X011763Y017357D01*
X011622Y017216D02*
X011544Y017138D01*
X011268Y017414D01*
X011346Y017491D01*
X011622Y017216D01*
X011481Y017074D02*
X011403Y016996D01*
X011127Y017272D01*
X011205Y017350D01*
X011481Y017074D01*
X011346Y016940D02*
X011070Y017216D01*
X010993Y017138D01*
X011268Y016862D01*
X011346Y016940D01*
X011205Y016798D02*
X010929Y017074D01*
X010851Y016996D01*
X011127Y016721D01*
X011205Y016798D01*
X011063Y016657D02*
X010788Y016933D01*
X010710Y016855D01*
X010986Y016579D01*
X011063Y016657D01*
X010929Y016523D02*
X010653Y016798D01*
X010575Y016721D01*
X010851Y016445D01*
X010929Y016523D01*
X010788Y016381D02*
X010710Y016303D01*
X010434Y016579D01*
X010512Y016657D01*
X010788Y016381D01*
X010646Y016240D02*
X010370Y016516D01*
X010293Y016438D01*
X010568Y016162D01*
X010646Y016240D01*
X007760Y016143D02*
X007760Y016643D01*
X007510Y016893D01*
X007760Y017143D01*
X007760Y017643D01*
X007510Y017893D01*
X007010Y017893D01*
X006760Y017643D01*
X006760Y017143D01*
X007010Y016893D01*
X007510Y016893D01*
X007010Y016893D02*
X006760Y016643D01*
X006760Y016143D01*
X007010Y015893D01*
X007510Y015893D01*
X007760Y016143D01*
X007510Y017893D02*
X007760Y018143D01*
X007760Y018643D01*
X007510Y018893D01*
X007760Y019143D01*
X007760Y019643D01*
X007510Y019893D01*
X007010Y019893D01*
X006760Y019643D01*
X006760Y019143D01*
X007010Y018893D01*
X007510Y018893D01*
X007010Y018893D02*
X006760Y018643D01*
X006760Y018143D01*
X007010Y017893D01*
X001003Y017948D02*
X001003Y017841D01*
X000897Y017841D01*
X000897Y017948D01*
X001003Y017948D01*
X001003Y018163D02*
X001003Y018590D01*
X001003Y018377D02*
X000363Y018377D01*
X000576Y018163D01*
X000576Y017623D02*
X000683Y017517D01*
X000790Y017623D01*
X000897Y017623D01*
X001003Y017517D01*
X001003Y017303D01*
X000897Y017196D01*
X000683Y017410D02*
X000683Y017517D01*
X000576Y017623D02*
X000470Y017623D01*
X000363Y017517D01*
X000363Y017303D01*
X000470Y017196D01*
X000363Y018808D02*
X000683Y018808D01*
X000576Y019021D01*
X000576Y019128D01*
X000683Y019235D01*
X000897Y019235D01*
X001003Y019128D01*
X001003Y018915D01*
X000897Y018808D01*
X000363Y018808D02*
X000363Y019235D01*
X007010Y028893D02*
X007510Y028893D01*
X007760Y029143D01*
X008010Y028893D01*
X008510Y028893D01*
X008760Y029143D01*
X008760Y029643D01*
X008510Y029893D01*
X008010Y029893D01*
X007760Y029643D01*
X007760Y029143D01*
X007760Y029643D02*
X007510Y029893D01*
X007010Y029893D01*
X006760Y029643D01*
X006760Y029143D01*
X007010Y028893D01*
X008760Y029143D02*
X009010Y028893D01*
X009510Y028893D01*
X009760Y029143D01*
X010010Y028893D01*
X010510Y028893D01*
X010760Y029143D01*
X010760Y029643D01*
X010510Y029893D01*
X010010Y029893D01*
X009760Y029643D01*
X009760Y029143D01*
X009760Y029643D02*
X009510Y029893D01*
X009010Y029893D01*
X008760Y029643D01*
X017951Y015625D02*
X018226Y015349D01*
X018149Y015271D01*
X017873Y015547D01*
X017951Y015625D01*
D12*
X016049Y021413D02*
X015896Y021413D01*
X015819Y021490D01*
X015819Y021644D01*
X016049Y021644D01*
X016126Y021567D01*
X016126Y021490D01*
X016049Y021413D01*
X015819Y021644D02*
X015973Y021797D01*
X016126Y021874D01*
X015666Y021797D02*
X015666Y021644D01*
X015589Y021567D01*
X015359Y021567D01*
X015512Y021567D02*
X015666Y021413D01*
X015359Y021413D02*
X015359Y021874D01*
X015589Y021874D01*
X015666Y021797D01*
X010126Y021874D02*
X009819Y021874D01*
X009819Y021644D01*
X009973Y021720D01*
X010049Y021720D01*
X010126Y021644D01*
X010126Y021490D01*
X010049Y021413D01*
X009896Y021413D01*
X009819Y021490D01*
X009666Y021413D02*
X009512Y021567D01*
X009589Y021567D02*
X009359Y021567D01*
X009359Y021413D02*
X009359Y021874D01*
X009589Y021874D01*
X009666Y021797D01*
X009666Y021644D01*
X009589Y021567D01*
X007526Y020397D02*
X007219Y020090D01*
X007296Y020013D01*
X007449Y020013D01*
X007526Y020090D01*
X007526Y020397D01*
X007449Y020474D01*
X007296Y020474D01*
X007219Y020397D01*
X007219Y020090D01*
X007066Y020013D02*
X006759Y020013D01*
X006912Y020013D02*
X006912Y020474D01*
X006759Y020320D01*
X006605Y020244D02*
X006529Y020167D01*
X006298Y020167D01*
X006298Y020013D02*
X006298Y020474D01*
X006529Y020474D01*
X006605Y020397D01*
X006605Y020244D01*
X006452Y020167D02*
X006605Y020013D01*
X005040Y022463D02*
X004579Y022463D01*
X005040Y022463D02*
X005040Y022770D01*
X005040Y022924D02*
X004579Y022924D01*
X004579Y023231D01*
X004579Y023384D02*
X004579Y023614D01*
X004656Y023691D01*
X004963Y023691D01*
X005040Y023614D01*
X005040Y023384D01*
X004579Y023384D01*
X004809Y023077D02*
X004809Y022924D01*
X005040Y022924D02*
X005040Y023231D01*
X005363Y023160D02*
X005340Y023137D01*
X005320Y023111D01*
X005303Y023083D01*
X005289Y023054D01*
X005278Y023023D01*
X005271Y022992D01*
X005267Y022959D01*
X005267Y022927D01*
X005271Y022894D01*
X005278Y022863D01*
X005289Y022832D01*
X005303Y022803D01*
X005320Y022775D01*
X005340Y022749D01*
X005363Y022726D01*
X005757Y022726D02*
X005780Y022749D01*
X005800Y022775D01*
X005817Y022803D01*
X005831Y022832D01*
X005842Y022863D01*
X005849Y022894D01*
X005853Y022927D01*
X005853Y022959D01*
X005849Y022992D01*
X005842Y023023D01*
X005831Y023054D01*
X005817Y023083D01*
X005800Y023111D01*
X005780Y023137D01*
X005757Y023160D01*
X005040Y023844D02*
X004733Y024151D01*
X004656Y024151D01*
X004579Y024075D01*
X004579Y023921D01*
X004656Y023844D01*
X005040Y023844D02*
X005040Y024151D01*
X007093Y014340D02*
X007116Y014363D01*
X007142Y014383D01*
X007170Y014400D01*
X007199Y014414D01*
X007230Y014425D01*
X007261Y014432D01*
X007294Y014436D01*
X007326Y014436D01*
X007359Y014432D01*
X007390Y014425D01*
X007421Y014414D01*
X007450Y014400D01*
X007478Y014383D01*
X007504Y014363D01*
X007527Y014340D01*
X007527Y013946D02*
X007504Y013923D01*
X007478Y013903D01*
X007450Y013886D01*
X007421Y013872D01*
X007390Y013861D01*
X007359Y013854D01*
X007326Y013850D01*
X007294Y013850D01*
X007261Y013854D01*
X007230Y013861D01*
X007199Y013872D01*
X007170Y013886D01*
X007142Y013903D01*
X007116Y013923D01*
X007093Y013946D01*
X008688Y011394D02*
X009731Y011394D01*
X009731Y011395D02*
X009746Y011393D01*
X009761Y011389D01*
X009775Y011382D01*
X009787Y011372D01*
X009797Y011360D01*
X009804Y011346D01*
X009808Y011331D01*
X009810Y011316D01*
X009810Y010371D01*
X009808Y010356D01*
X009804Y010341D01*
X009797Y010327D01*
X009787Y010315D01*
X009775Y010305D01*
X009761Y010298D01*
X009746Y010294D01*
X009731Y010292D01*
X008688Y010292D01*
X008673Y010294D01*
X008658Y010298D01*
X008644Y010305D01*
X008632Y010315D01*
X008622Y010327D01*
X008615Y010341D01*
X008611Y010356D01*
X008609Y010371D01*
X008609Y011316D01*
X008611Y011331D01*
X008615Y011346D01*
X008622Y011360D01*
X008632Y011372D01*
X008644Y011382D01*
X008658Y011389D01*
X008673Y011393D01*
X008688Y011395D01*
X009009Y007524D02*
X009239Y007524D01*
X009316Y007447D01*
X009316Y007294D01*
X009239Y007217D01*
X009009Y007217D01*
X009162Y007217D02*
X009316Y007063D01*
X009469Y007063D02*
X009469Y007140D01*
X009776Y007447D01*
X009776Y007524D01*
X009469Y007524D01*
X009009Y007524D02*
X009009Y007063D01*
X010850Y006244D02*
X010850Y005883D01*
X011090Y005883D02*
X011090Y006244D01*
X010970Y006124D01*
X010850Y006244D01*
X011218Y006184D02*
X011218Y005943D01*
X011278Y005883D01*
X011398Y005883D01*
X011458Y005943D01*
X011458Y006184D01*
X011398Y006244D01*
X011278Y006244D01*
X011218Y006184D01*
X011586Y006244D02*
X011826Y006244D01*
X011706Y006244D02*
X011706Y005883D01*
X011954Y005883D02*
X011954Y006244D01*
X011954Y006063D02*
X012195Y006063D01*
X012323Y006063D02*
X012443Y006063D01*
X012323Y005883D02*
X012563Y005883D01*
X012691Y005883D02*
X012691Y006244D01*
X012871Y006244D01*
X012931Y006184D01*
X012931Y006063D01*
X012871Y006003D01*
X012691Y006003D01*
X012811Y006003D02*
X012931Y005883D01*
X013059Y005883D02*
X013240Y005883D01*
X013300Y005943D01*
X013300Y006003D01*
X013240Y006063D01*
X013059Y006063D01*
X013059Y005883D02*
X013059Y006244D01*
X013240Y006244D01*
X013300Y006184D01*
X013300Y006124D01*
X013240Y006063D01*
X013428Y006184D02*
X013428Y005943D01*
X013488Y005883D01*
X013608Y005883D01*
X013668Y005943D01*
X013668Y006184D01*
X013608Y006244D01*
X013488Y006244D01*
X013428Y006184D01*
X013796Y006124D02*
X013796Y005883D01*
X013796Y006063D02*
X014036Y006063D01*
X014036Y006124D02*
X014036Y005883D01*
X014164Y005883D02*
X014164Y006244D01*
X014344Y006244D01*
X014405Y006184D01*
X014405Y006063D01*
X014344Y006003D01*
X014164Y006003D01*
X014284Y006003D02*
X014405Y005883D01*
X014533Y005883D02*
X014533Y006244D01*
X014713Y006244D01*
X014773Y006184D01*
X014773Y005943D01*
X014713Y005883D01*
X014533Y005883D01*
X014901Y005823D02*
X015141Y005823D01*
X015269Y005943D02*
X015269Y006244D01*
X015509Y006244D02*
X015509Y005943D01*
X015449Y005883D01*
X015329Y005883D01*
X015269Y005943D01*
X015638Y005883D02*
X015638Y006124D01*
X015758Y006244D01*
X015878Y006124D01*
X015878Y005883D01*
X016006Y005883D02*
X016006Y006244D01*
X016186Y006244D01*
X016246Y006184D01*
X016246Y006063D01*
X016186Y006003D01*
X016006Y006003D01*
X016126Y006003D02*
X016246Y005883D01*
X016494Y005883D02*
X016494Y006244D01*
X016374Y006244D02*
X016614Y006244D01*
X015878Y006063D02*
X015638Y006063D01*
X014036Y006124D02*
X013916Y006244D01*
X013796Y006124D01*
X012563Y006244D02*
X012323Y006244D01*
X012323Y005883D01*
X012195Y005883D02*
X012195Y006244D01*
X015380Y008163D02*
X015380Y008624D01*
X015610Y008624D01*
X015686Y008547D01*
X015686Y008394D01*
X015610Y008317D01*
X015380Y008317D01*
X015533Y008317D02*
X015686Y008163D01*
X015840Y008240D02*
X015917Y008163D01*
X016070Y008163D01*
X016147Y008240D01*
X016147Y008317D01*
X016070Y008394D01*
X015917Y008394D01*
X015840Y008470D01*
X015840Y008547D01*
X015917Y008624D01*
X016070Y008624D01*
X016147Y008547D01*
X016147Y008470D01*
X016070Y008394D01*
X015917Y008394D02*
X015840Y008317D01*
X015840Y008240D01*
X017683Y006224D02*
X017836Y006224D01*
X017760Y006224D02*
X017760Y005840D01*
X017683Y005763D01*
X017606Y005763D01*
X017530Y005840D01*
X017990Y006224D02*
X018297Y006224D01*
X018143Y006224D02*
X018143Y005763D01*
X018450Y005763D02*
X018450Y006070D01*
X018604Y006224D01*
X018757Y006070D01*
X018757Y005763D01*
X018911Y005840D02*
X018987Y005763D01*
X019141Y005763D01*
X019218Y005840D01*
X019218Y005994D01*
X019064Y005994D01*
X018911Y006147D02*
X018911Y005840D01*
X018757Y005994D02*
X018450Y005994D01*
X018911Y006147D02*
X018987Y006224D01*
X019141Y006224D01*
X019218Y006147D01*
X024738Y012842D02*
X025781Y012842D01*
X025796Y012844D01*
X025811Y012848D01*
X025825Y012855D01*
X025837Y012865D01*
X025847Y012877D01*
X025854Y012891D01*
X025858Y012906D01*
X025860Y012921D01*
X025860Y013866D01*
X025858Y013881D01*
X025854Y013896D01*
X025847Y013910D01*
X025837Y013922D01*
X025825Y013932D01*
X025811Y013939D01*
X025796Y013943D01*
X025781Y013945D01*
X025781Y013944D02*
X024738Y013944D01*
X024738Y013945D02*
X024723Y013943D01*
X024708Y013939D01*
X024694Y013932D01*
X024682Y013922D01*
X024672Y013910D01*
X024665Y013896D01*
X024661Y013881D01*
X024659Y013866D01*
X024659Y012921D01*
X024661Y012906D01*
X024665Y012891D01*
X024672Y012877D01*
X024682Y012865D01*
X024694Y012855D01*
X024708Y012848D01*
X024723Y012844D01*
X024738Y012842D01*
X026229Y012844D02*
X026306Y012920D01*
X026459Y012920D01*
X026536Y012844D01*
X026536Y012613D01*
X026690Y012613D02*
X026229Y012613D01*
X026229Y012844D01*
X026383Y013074D02*
X026229Y013227D01*
X026690Y013227D01*
X026690Y013074D02*
X026690Y013381D01*
X026690Y012920D02*
X026536Y012767D01*
X026856Y015913D02*
X027163Y015913D01*
X027240Y015990D01*
X027240Y016144D01*
X027163Y016220D01*
X027240Y016374D02*
X027240Y016681D01*
X027240Y016527D02*
X026779Y016527D01*
X026933Y016374D01*
X026856Y016220D02*
X026779Y016144D01*
X026779Y015990D01*
X026856Y015913D01*
X025740Y015990D02*
X025663Y015913D01*
X025356Y015913D01*
X025279Y015990D01*
X025279Y016144D01*
X025356Y016220D01*
X025356Y016374D02*
X025279Y016450D01*
X025279Y016604D01*
X025356Y016681D01*
X025433Y016681D01*
X025740Y016374D01*
X025740Y016681D01*
X025663Y016220D02*
X025740Y016144D01*
X025740Y015990D01*
X025190Y024413D02*
X024729Y024413D01*
X024729Y024644D01*
X024806Y024720D01*
X024959Y024720D01*
X025036Y024644D01*
X025036Y024413D01*
X025036Y024567D02*
X025190Y024720D01*
X024959Y024874D02*
X024959Y025181D01*
X024729Y025104D02*
X024959Y024874D01*
X025190Y025104D02*
X024729Y025104D01*
X031780Y003420D02*
X031780Y003113D01*
X031780Y003267D02*
X031933Y003420D01*
X032010Y003420D01*
X032163Y003344D02*
X032240Y003420D01*
X032393Y003420D01*
X032470Y003344D01*
X032470Y003267D01*
X032163Y003267D01*
X032163Y003190D02*
X032163Y003344D01*
X032163Y003190D02*
X032240Y003113D01*
X032393Y003113D01*
X032624Y003420D02*
X032777Y003113D01*
X032930Y003420D01*
X033544Y003497D02*
X033621Y003574D01*
X033775Y003574D01*
X033851Y003497D01*
X033851Y003420D01*
X033775Y003344D01*
X033851Y003267D01*
X033851Y003190D01*
X033775Y003113D01*
X033621Y003113D01*
X033544Y003190D01*
X033698Y003344D02*
X033775Y003344D01*
X034005Y003190D02*
X034081Y003190D01*
X034081Y003113D01*
X034005Y003113D01*
X034005Y003190D01*
X034235Y003190D02*
X034235Y003497D01*
X034312Y003574D01*
X034465Y003574D01*
X034542Y003497D01*
X034235Y003190D01*
X034312Y003113D01*
X034465Y003113D01*
X034542Y003190D01*
X034542Y003497D01*
D13*
X034620Y004308D02*
X034435Y004493D01*
X034373Y004432D02*
X034620Y004679D01*
X034741Y004555D02*
X034741Y004370D01*
X034803Y004308D01*
X034988Y004308D01*
X034988Y004555D01*
X035110Y004555D02*
X035171Y004555D01*
X035233Y004493D01*
X035295Y004555D01*
X035357Y004493D01*
X035357Y004308D01*
X035233Y004308D02*
X035233Y004493D01*
X035110Y004555D02*
X035110Y004308D01*
X035478Y004370D02*
X035540Y004432D01*
X035725Y004432D01*
X035725Y004493D02*
X035725Y004308D01*
X035540Y004308D01*
X035478Y004370D01*
X035540Y004555D02*
X035663Y004555D01*
X035725Y004493D01*
X035846Y004432D02*
X035970Y004555D01*
X036031Y004555D01*
X035846Y004555D02*
X035846Y004308D01*
X035904Y004958D02*
X035842Y005020D01*
X035842Y005143D01*
X035904Y005205D01*
X036089Y005205D01*
X036089Y005329D02*
X036089Y004958D01*
X035904Y004958D01*
X035720Y005020D02*
X035720Y005143D01*
X035659Y005205D01*
X035535Y005205D01*
X035474Y005143D01*
X035474Y005020D01*
X035535Y004958D01*
X035659Y004958D01*
X035720Y005020D01*
X035352Y005020D02*
X035352Y005143D01*
X035290Y005205D01*
X035167Y005205D01*
X035105Y005143D01*
X035105Y005020D01*
X035167Y004958D01*
X035290Y004958D01*
X035352Y005020D01*
X034984Y005020D02*
X034984Y005205D01*
X034984Y005020D02*
X034922Y004958D01*
X034860Y005020D01*
X034799Y004958D01*
X034737Y005020D01*
X034737Y005205D01*
X034615Y005143D02*
X034615Y004958D01*
X034430Y004958D01*
X034369Y005020D01*
X034430Y005082D01*
X034615Y005082D01*
X034615Y005143D02*
X034554Y005205D01*
X034430Y005205D01*
X034247Y005267D02*
X034185Y005329D01*
X034000Y005329D01*
X034000Y004958D01*
X034185Y004958D01*
X034247Y005020D01*
X034247Y005267D01*
X034413Y005485D02*
X034475Y005485D01*
X034536Y005547D01*
X034536Y005855D01*
X034351Y005855D01*
X034289Y005793D01*
X034289Y005670D01*
X034351Y005608D01*
X034536Y005608D01*
X034658Y005608D02*
X034658Y005855D01*
X034781Y005855D02*
X034843Y005855D01*
X034781Y005855D02*
X034658Y005732D01*
X034965Y005670D02*
X035026Y005732D01*
X035211Y005732D01*
X035211Y005793D02*
X035211Y005608D01*
X035026Y005608D01*
X034965Y005670D01*
X035026Y005855D02*
X035150Y005855D01*
X035211Y005793D01*
X035333Y005855D02*
X035333Y005670D01*
X035395Y005608D01*
X035456Y005670D01*
X035518Y005608D01*
X035580Y005670D01*
X035580Y005855D01*
X035763Y005855D02*
X035886Y005855D01*
X035948Y005793D01*
X035948Y005608D01*
X035763Y005608D01*
X035701Y005670D01*
X035763Y005732D01*
X035948Y005732D01*
X036070Y005608D02*
X036193Y005608D01*
X036131Y005608D02*
X036131Y005979D01*
X036070Y005979D01*
X036056Y006258D02*
X035994Y006320D01*
X036056Y006382D01*
X036241Y006382D01*
X036241Y006443D02*
X036241Y006258D01*
X036056Y006258D01*
X035873Y006320D02*
X035873Y006505D01*
X036056Y006505D02*
X036179Y006505D01*
X036241Y006443D01*
X036363Y006258D02*
X036486Y006258D01*
X036424Y006258D02*
X036424Y006629D01*
X036363Y006629D01*
X035941Y006970D02*
X035879Y006908D01*
X035756Y006908D01*
X035694Y006970D01*
X035756Y007093D02*
X035941Y007093D01*
X035941Y006970D02*
X035941Y007217D01*
X035879Y007279D01*
X035756Y007279D01*
X035694Y007217D01*
X035694Y007155D01*
X035756Y007093D01*
X035205Y007093D02*
X035205Y006908D01*
X035081Y006908D02*
X035081Y007093D01*
X035143Y007155D01*
X035205Y007093D01*
X035081Y007093D02*
X035019Y007155D01*
X034958Y007155D01*
X034958Y006908D01*
X034836Y006908D02*
X034651Y006908D01*
X034589Y006970D01*
X034651Y007032D01*
X034836Y007032D01*
X034836Y007093D02*
X034836Y006908D01*
X034836Y007093D02*
X034775Y007155D01*
X034651Y007155D01*
X034468Y007093D02*
X034468Y007032D01*
X034221Y007032D01*
X034221Y007093D02*
X034283Y007155D01*
X034406Y007155D01*
X034468Y007093D01*
X034406Y006908D02*
X034283Y006908D01*
X034221Y006970D01*
X034221Y007093D01*
X034100Y007279D02*
X033853Y007279D01*
X033976Y007279D02*
X033976Y006908D01*
X033969Y006629D02*
X034093Y006505D01*
X034093Y006258D01*
X034214Y006320D02*
X034276Y006258D01*
X034461Y006258D01*
X034461Y006197D02*
X034461Y006505D01*
X034276Y006505D01*
X034214Y006443D01*
X034214Y006320D01*
X034093Y006443D02*
X033846Y006443D01*
X033846Y006505D02*
X033846Y006258D01*
X033846Y006505D02*
X033969Y006629D01*
X034338Y006135D02*
X034399Y006135D01*
X034461Y006197D01*
X034582Y006320D02*
X034644Y006258D01*
X034829Y006258D01*
X034829Y006197D02*
X034829Y006505D01*
X034644Y006505D01*
X034582Y006443D01*
X034582Y006320D01*
X034706Y006135D02*
X034768Y006135D01*
X034829Y006197D01*
X034951Y006320D02*
X035012Y006382D01*
X035198Y006382D01*
X035198Y006443D02*
X035198Y006258D01*
X035012Y006258D01*
X034951Y006320D01*
X035012Y006505D02*
X035136Y006505D01*
X035198Y006443D01*
X035319Y006382D02*
X035442Y006505D01*
X035504Y006505D01*
X035626Y006505D02*
X035626Y006320D01*
X035688Y006258D01*
X035749Y006320D01*
X035811Y006258D01*
X035873Y006320D01*
X035319Y006258D02*
X035319Y006505D01*
X034168Y005855D02*
X034168Y005608D01*
X034168Y005793D02*
X033921Y005793D01*
X033921Y005855D02*
X034044Y005979D01*
X034168Y005855D01*
X033921Y005855D02*
X033921Y005608D01*
X033431Y005608D02*
X033431Y005793D01*
X033370Y005855D01*
X033308Y005793D01*
X033308Y005608D01*
X033184Y005608D02*
X033184Y005855D01*
X033246Y005855D01*
X033308Y005793D01*
X033063Y005793D02*
X033063Y005608D01*
X032878Y005608D01*
X032816Y005670D01*
X032878Y005732D01*
X033063Y005732D01*
X033063Y005793D02*
X033001Y005855D01*
X032878Y005855D01*
X032695Y005793D02*
X032695Y005608D01*
X032695Y005793D02*
X032633Y005855D01*
X032509Y005855D01*
X032448Y005793D01*
X032326Y005793D02*
X032265Y005855D01*
X032079Y005855D01*
X031958Y005855D02*
X031958Y005608D01*
X031773Y005608D01*
X031711Y005670D01*
X031711Y005855D01*
X031590Y005793D02*
X031590Y005608D01*
X031590Y005793D02*
X031528Y005855D01*
X031405Y005855D01*
X031343Y005793D01*
X031221Y005732D02*
X031221Y005670D01*
X031160Y005608D01*
X031036Y005608D01*
X030975Y005670D01*
X031036Y005793D02*
X031160Y005793D01*
X031221Y005732D01*
X031343Y005608D02*
X031343Y005979D01*
X031221Y005917D02*
X031160Y005979D01*
X031036Y005979D01*
X030975Y005917D01*
X030975Y005855D01*
X031036Y005793D01*
X031575Y006258D02*
X031575Y006505D01*
X031698Y006629D01*
X031821Y006505D01*
X031821Y006258D01*
X031943Y006258D02*
X031943Y006505D01*
X031943Y006382D02*
X032066Y006505D01*
X032128Y006505D01*
X032250Y006443D02*
X032250Y006320D01*
X032311Y006258D01*
X032497Y006258D01*
X032618Y006258D02*
X032618Y006629D01*
X032680Y006505D02*
X032618Y006443D01*
X032680Y006505D02*
X032803Y006505D01*
X032865Y006443D01*
X032865Y006258D01*
X032986Y006258D02*
X033110Y006258D01*
X033048Y006258D02*
X033048Y006505D01*
X032986Y006505D01*
X033048Y006629D02*
X033048Y006690D01*
X033116Y006908D02*
X033116Y006970D01*
X033363Y007217D01*
X033363Y007279D01*
X033116Y007279D01*
X032995Y007279D02*
X032995Y007217D01*
X032748Y006970D01*
X032748Y006908D01*
X032565Y006908D02*
X032565Y007279D01*
X032379Y007093D01*
X032626Y007093D01*
X032748Y007279D02*
X032995Y007279D01*
X032258Y007279D02*
X032011Y007279D01*
X032011Y006908D01*
X032258Y006908D01*
X032135Y007093D02*
X032011Y007093D01*
X031890Y006970D02*
X031828Y006908D01*
X031705Y006908D01*
X031643Y006970D01*
X031643Y007217D01*
X031705Y007279D01*
X031828Y007279D01*
X031890Y007217D01*
X031521Y007279D02*
X031275Y007279D01*
X031275Y006908D01*
X031521Y006908D01*
X031398Y007093D02*
X031275Y007093D01*
X031575Y006443D02*
X031821Y006443D01*
X032250Y006443D02*
X032311Y006505D01*
X032497Y006505D01*
X032448Y005979D02*
X032448Y005608D01*
X032326Y005670D02*
X032326Y005793D01*
X032326Y005670D02*
X032265Y005608D01*
X032079Y005608D01*
X032079Y005979D01*
X032036Y005329D02*
X031975Y005267D01*
X031975Y005205D01*
X032036Y005143D01*
X032160Y005143D01*
X032221Y005082D01*
X032221Y005020D01*
X032160Y004958D01*
X032036Y004958D01*
X031975Y005020D01*
X032036Y005329D02*
X032160Y005329D01*
X032221Y005267D01*
X032343Y005329D02*
X032343Y004958D01*
X032343Y005143D02*
X032405Y005205D01*
X032528Y005205D01*
X032590Y005143D01*
X032590Y004958D01*
X032711Y005020D02*
X032711Y005143D01*
X032773Y005205D01*
X032896Y005205D01*
X032958Y005143D01*
X032958Y005082D01*
X032711Y005082D01*
X032711Y005020D02*
X032773Y004958D01*
X032896Y004958D01*
X033079Y004958D02*
X033203Y004958D01*
X033141Y004958D02*
X033141Y005205D01*
X033079Y005205D01*
X033141Y005329D02*
X033141Y005390D01*
X033325Y005329D02*
X033325Y004958D01*
X033325Y005082D02*
X033510Y005205D01*
X033325Y005082D02*
X033510Y004958D01*
X033636Y004679D02*
X033636Y004308D01*
X033515Y004370D02*
X033453Y004432D01*
X033330Y004432D01*
X033268Y004493D01*
X033330Y004555D01*
X033515Y004555D01*
X033636Y004493D02*
X033698Y004555D01*
X033822Y004555D01*
X033883Y004493D01*
X033883Y004308D01*
X033515Y004370D02*
X033453Y004308D01*
X033268Y004308D01*
X033147Y004308D02*
X032961Y004308D01*
X032900Y004370D01*
X032961Y004432D01*
X033147Y004432D01*
X033147Y004493D02*
X033147Y004308D01*
X033147Y004493D02*
X033085Y004555D01*
X032961Y004555D01*
X032778Y004555D02*
X032593Y004432D01*
X032778Y004308D01*
X032593Y004308D02*
X032593Y004679D01*
X032471Y004555D02*
X032471Y004308D01*
X032471Y004493D02*
X032225Y004493D01*
X032225Y004555D02*
X032348Y004679D01*
X032471Y004555D01*
X032225Y004555D02*
X032225Y004308D01*
X034373Y004308D02*
X034373Y004679D01*
X033355Y006258D02*
X033294Y006320D01*
X033294Y006567D01*
X033355Y006505D02*
X033232Y006505D01*
X033225Y008308D02*
X033225Y008599D01*
X033370Y008599D01*
X033418Y008550D01*
X033418Y008453D01*
X033370Y008405D01*
X033225Y008405D01*
X033519Y008453D02*
X033664Y008599D01*
X033664Y008308D01*
X033814Y008308D02*
X033862Y008308D01*
X033862Y008357D01*
X033814Y008357D01*
X033814Y008308D01*
X033961Y008308D02*
X033961Y008357D01*
X034155Y008550D01*
X034155Y008599D01*
X033961Y008599D01*
X033713Y008453D02*
X033519Y008453D01*
X033614Y009308D02*
X033614Y009599D01*
X033469Y009453D01*
X033663Y009453D01*
X033764Y009357D02*
X033812Y009357D01*
X033812Y009308D01*
X033764Y009308D01*
X033764Y009357D01*
X033911Y009357D02*
X033960Y009308D01*
X034056Y009308D01*
X034105Y009357D01*
X034105Y009405D01*
X034056Y009453D01*
X033911Y009453D01*
X033911Y009357D01*
X033911Y009453D02*
X034008Y009550D01*
X034105Y009599D01*
X034056Y010308D02*
X033960Y010308D01*
X033911Y010357D01*
X033911Y010453D02*
X034008Y010502D01*
X034056Y010502D01*
X034105Y010453D01*
X034105Y010357D01*
X034056Y010308D01*
X033911Y010453D02*
X033911Y010599D01*
X034105Y010599D01*
X033812Y010357D02*
X033812Y010308D01*
X033764Y010308D01*
X033764Y010357D01*
X033812Y010357D01*
X033663Y010453D02*
X033469Y010453D01*
X033614Y010599D01*
X033614Y010308D01*
X033368Y010453D02*
X033368Y010550D01*
X033320Y010599D01*
X033175Y010599D01*
X033175Y010308D01*
X033175Y010405D02*
X033320Y010405D01*
X033368Y010453D01*
X033320Y009599D02*
X033368Y009550D01*
X033368Y009453D01*
X033320Y009405D01*
X033175Y009405D01*
X033175Y009308D02*
X033175Y009599D01*
X033320Y009599D01*
X033125Y011258D02*
X033125Y011549D01*
X033270Y011549D01*
X033318Y011500D01*
X033318Y011403D01*
X033270Y011355D01*
X033125Y011355D01*
X033419Y011403D02*
X033613Y011403D01*
X033714Y011307D02*
X033762Y011307D01*
X033762Y011258D01*
X033714Y011258D01*
X033714Y011307D01*
X033861Y011258D02*
X034055Y011258D01*
X033958Y011258D02*
X033958Y011549D01*
X033861Y011452D01*
X033564Y011549D02*
X033419Y011403D01*
X033564Y011258D02*
X033564Y011549D01*
X033614Y012208D02*
X033614Y012499D01*
X033469Y012353D01*
X033663Y012353D01*
X033764Y012257D02*
X033764Y012208D01*
X033812Y012208D01*
X033812Y012257D01*
X033764Y012257D01*
X033911Y012257D02*
X034105Y012450D01*
X034105Y012257D01*
X034056Y012208D01*
X033960Y012208D01*
X033911Y012257D01*
X033911Y012450D01*
X033960Y012499D01*
X034056Y012499D01*
X034105Y012450D01*
X033368Y012450D02*
X033368Y012353D01*
X033320Y012305D01*
X033175Y012305D01*
X033175Y012208D02*
X033175Y012499D01*
X033320Y012499D01*
X033368Y012450D01*
X029808Y010717D02*
X029808Y010470D01*
X029746Y010408D01*
X029561Y010408D01*
X029561Y010779D01*
X029746Y010779D01*
X029808Y010717D01*
X029440Y010779D02*
X029440Y010408D01*
X029193Y010779D01*
X029193Y010408D01*
X029071Y010470D02*
X029071Y010593D01*
X028948Y010593D01*
X029071Y010470D02*
X029010Y010408D01*
X028886Y010408D01*
X028825Y010470D01*
X028825Y010717D01*
X028886Y010779D01*
X029010Y010779D01*
X029071Y010717D01*
X028545Y015758D02*
X028174Y015758D01*
X028174Y016127D02*
X028174Y016312D01*
X028236Y016373D01*
X028483Y016373D01*
X028545Y016312D01*
X028545Y016127D01*
X028174Y016127D01*
X028236Y016495D02*
X028483Y016495D01*
X028545Y016557D01*
X028545Y016680D01*
X028483Y016742D01*
X028236Y016742D01*
X028174Y016680D01*
X028174Y016557D01*
X028236Y016495D01*
X028545Y016005D02*
X028545Y015758D01*
X028545Y017232D02*
X028174Y017232D01*
X028174Y017417D01*
X028236Y017478D01*
X028359Y017478D01*
X028421Y017417D01*
X028421Y017232D01*
X028421Y017355D02*
X028545Y017478D01*
X028483Y017600D02*
X028359Y017600D01*
X028298Y017662D01*
X028298Y017785D01*
X028359Y017847D01*
X028421Y017847D01*
X028421Y017600D01*
X028483Y017600D02*
X028545Y017662D01*
X028545Y017785D01*
X028483Y017968D02*
X028545Y018030D01*
X028545Y018215D01*
X028606Y018215D02*
X028298Y018215D01*
X028298Y018030D01*
X028359Y017968D01*
X028483Y017968D01*
X028668Y018092D02*
X028668Y018153D01*
X028606Y018215D01*
X028483Y018337D02*
X028545Y018398D01*
X028545Y018583D01*
X028298Y018583D01*
X028174Y018705D02*
X028174Y018767D01*
X028545Y018767D01*
X028545Y018828D02*
X028545Y018705D01*
X028483Y018950D02*
X028421Y019012D01*
X028421Y019197D01*
X028359Y019197D02*
X028545Y019197D01*
X028545Y019012D01*
X028483Y018950D01*
X028298Y019012D02*
X028298Y019136D01*
X028359Y019197D01*
X028298Y019319D02*
X028298Y019442D01*
X028236Y019380D02*
X028483Y019380D01*
X028545Y019442D01*
X028483Y019564D02*
X028545Y019626D01*
X028545Y019749D01*
X028483Y019811D01*
X028359Y019811D01*
X028298Y019749D01*
X028298Y019626D01*
X028359Y019564D01*
X028483Y019564D01*
X028545Y019933D02*
X028298Y019933D01*
X028298Y020056D02*
X028298Y020118D01*
X028298Y020056D02*
X028421Y019933D01*
X028483Y018337D02*
X028298Y018337D01*
X023708Y016567D02*
X023708Y016505D01*
X023646Y016443D01*
X023708Y016382D01*
X023708Y016320D01*
X023646Y016258D01*
X023523Y016258D01*
X023461Y016320D01*
X023340Y016382D02*
X023340Y016629D01*
X023461Y016567D02*
X023523Y016629D01*
X023646Y016629D01*
X023708Y016567D01*
X023646Y016443D02*
X023585Y016443D01*
X023340Y016382D02*
X023216Y016258D01*
X023093Y016382D01*
X023093Y016629D01*
X022971Y016567D02*
X022971Y016505D01*
X022910Y016443D01*
X022971Y016382D01*
X022971Y016320D01*
X022910Y016258D01*
X022786Y016258D01*
X022725Y016320D01*
X022848Y016443D02*
X022910Y016443D01*
X022971Y016567D02*
X022910Y016629D01*
X022786Y016629D01*
X022725Y016567D01*
X019705Y014163D02*
X019455Y014163D01*
X019517Y014226D02*
X019330Y014038D01*
X019455Y013913D02*
X019080Y014288D01*
X019267Y014476D01*
X019392Y014476D01*
X019517Y014351D01*
X019517Y014226D01*
X019340Y013799D02*
X019090Y013549D01*
X019215Y013674D02*
X018840Y014049D01*
X018840Y013799D01*
X018663Y013747D02*
X018663Y013247D01*
X018788Y013247D01*
X018913Y013372D01*
X018913Y013497D01*
X018663Y013747D01*
X018538Y013747D01*
X018413Y013622D01*
X018413Y013497D01*
X018663Y013247D01*
X018424Y013257D02*
X018174Y013007D01*
X018174Y013382D01*
X018549Y013007D01*
X018059Y012892D02*
X018059Y012767D01*
X017871Y012580D01*
X017997Y012455D02*
X017621Y012830D01*
X017809Y013017D01*
X017934Y013017D01*
X018059Y012892D01*
X017632Y012590D02*
X017569Y012653D01*
X017444Y012653D01*
X017319Y012528D01*
X017319Y012403D01*
X017205Y012288D02*
X017267Y012226D01*
X017267Y012101D01*
X017392Y012101D01*
X017455Y012038D01*
X017455Y011913D01*
X017330Y011788D01*
X017205Y011788D01*
X016965Y011799D02*
X016715Y011549D01*
X016715Y011924D01*
X017090Y011549D01*
X017205Y012038D02*
X017267Y012101D01*
X017205Y012288D02*
X017080Y012288D01*
X016955Y012163D01*
X016955Y012038D01*
X016476Y011559D02*
X016601Y011434D01*
X016601Y011309D01*
X016413Y011121D01*
X016298Y011007D02*
X016361Y010944D01*
X016361Y010819D01*
X016236Y010694D01*
X016111Y010694D01*
X016059Y010517D02*
X015684Y010892D01*
X015684Y010642D01*
X015434Y010642D01*
X015809Y010267D01*
X015923Y010882D02*
X016048Y010882D01*
X016173Y011007D01*
X016298Y011007D01*
X016538Y010996D02*
X016163Y011371D01*
X016351Y011559D01*
X016476Y011559D01*
X016111Y011194D02*
X015986Y011194D01*
X015861Y011069D01*
X015861Y010944D01*
X015923Y010882D01*
X017632Y012090D02*
X017632Y012590D01*
X017882Y012340D02*
X017632Y012090D01*
X021475Y007149D02*
X021620Y007149D01*
X021668Y007100D01*
X021668Y007003D01*
X021620Y006955D01*
X021475Y006955D01*
X021571Y006955D02*
X021668Y006858D01*
X021769Y006858D02*
X021963Y007052D01*
X021963Y007100D01*
X021914Y007149D01*
X021818Y007149D01*
X021769Y007100D01*
X021769Y006858D02*
X021963Y006858D01*
X021475Y006858D02*
X021475Y007149D01*
X021566Y005229D02*
X021566Y004858D01*
X021443Y004858D02*
X021690Y004858D01*
X021811Y004920D02*
X021873Y004858D01*
X021996Y004858D01*
X022058Y004920D01*
X022058Y004982D01*
X021996Y005043D01*
X021935Y005043D01*
X021996Y005043D02*
X022058Y005105D01*
X022058Y005167D01*
X021996Y005229D01*
X021873Y005229D01*
X021811Y005167D01*
X021566Y005229D02*
X021443Y005105D01*
X021321Y005167D02*
X021260Y005229D01*
X021136Y005229D01*
X021075Y005167D01*
X021075Y004920D01*
X021136Y004858D01*
X021260Y004858D01*
X021321Y004920D01*
X023775Y004279D02*
X023775Y003908D01*
X023775Y004032D02*
X023960Y004032D01*
X024021Y004093D01*
X024021Y004217D01*
X023960Y004279D01*
X023775Y004279D01*
X023898Y004032D02*
X024021Y003908D01*
X024143Y003908D02*
X024390Y003908D01*
X024511Y003970D02*
X024573Y003908D01*
X024696Y003908D01*
X024758Y003970D01*
X024758Y004032D01*
X024696Y004093D01*
X024573Y004093D01*
X024511Y004155D01*
X024511Y004217D01*
X024573Y004279D01*
X024696Y004279D01*
X024758Y004217D01*
X024879Y004279D02*
X024879Y003908D01*
X025126Y003908D01*
X025003Y004093D02*
X024879Y004093D01*
X024879Y004279D02*
X025126Y004279D01*
X025248Y004279D02*
X025495Y004279D01*
X025371Y004279D02*
X025371Y003908D01*
X025984Y003970D02*
X026046Y003908D01*
X026170Y003908D01*
X026231Y003970D01*
X026231Y004032D01*
X026170Y004093D01*
X026046Y004093D01*
X025984Y004155D01*
X025984Y004217D01*
X026046Y004279D01*
X026170Y004279D01*
X026231Y004217D01*
X026353Y004279D02*
X026353Y003908D01*
X026476Y004032D01*
X026600Y003908D01*
X026600Y004279D01*
X026721Y004279D02*
X026844Y004279D01*
X026783Y004279D02*
X026783Y003908D01*
X026844Y003908D02*
X026721Y003908D01*
X027090Y003908D02*
X027090Y004279D01*
X026967Y004279D02*
X027213Y004279D01*
X027335Y004217D02*
X027335Y003970D01*
X027397Y003908D01*
X027520Y003908D01*
X027582Y003970D01*
X027703Y003908D02*
X027703Y004279D01*
X027582Y004217D02*
X027520Y004279D01*
X027397Y004279D01*
X027335Y004217D01*
X027703Y004093D02*
X027950Y004093D01*
X027950Y003908D02*
X027950Y004279D01*
X024390Y004279D02*
X024143Y004279D01*
X024143Y003908D01*
X024143Y004093D02*
X024266Y004093D01*
X017371Y004258D02*
X017125Y004258D01*
X017248Y004258D02*
X017248Y004629D01*
X017125Y004505D01*
X006295Y013708D02*
X006004Y013708D01*
X006004Y013853D01*
X006053Y013902D01*
X006149Y013902D01*
X006198Y013853D01*
X006198Y013708D01*
X006246Y014003D02*
X006053Y014003D01*
X006004Y014051D01*
X006004Y014148D01*
X006053Y014196D01*
X006246Y014196D01*
X006295Y014148D01*
X006295Y014051D01*
X006246Y014003D01*
X006295Y014298D02*
X006004Y014298D01*
X006004Y014491D02*
X006295Y014491D01*
X006198Y014394D01*
X006295Y014298D01*
X006295Y014592D02*
X006295Y014786D01*
X006295Y014887D02*
X006004Y014887D01*
X006004Y015032D01*
X006053Y015080D01*
X006149Y015080D01*
X006198Y015032D01*
X006198Y014887D01*
X006198Y014984D02*
X006295Y015080D01*
X006343Y015182D02*
X006343Y015375D01*
X006295Y015476D02*
X006295Y015670D01*
X006295Y015771D02*
X006295Y015964D01*
X006295Y016066D02*
X006004Y016066D01*
X006004Y016211D01*
X006053Y016259D01*
X006246Y016259D01*
X006295Y016211D01*
X006295Y016066D01*
X006149Y015868D02*
X006149Y015771D01*
X006004Y015771D02*
X006295Y015771D01*
X006004Y015771D02*
X006004Y015964D01*
X006004Y015476D02*
X006295Y015476D01*
X006004Y014786D02*
X006004Y014592D01*
X006295Y014592D01*
X006149Y014592D02*
X006149Y014689D01*
D14*
X007120Y015603D02*
X007120Y015823D01*
X007230Y015823D01*
X007266Y015787D01*
X007266Y015713D01*
X007230Y015677D01*
X007120Y015677D01*
X007193Y015677D02*
X007266Y015603D01*
X007341Y015640D02*
X007377Y015603D01*
X007451Y015603D01*
X007487Y015640D01*
X007487Y015787D01*
X007451Y015823D01*
X007377Y015823D01*
X007341Y015787D01*
X007341Y015750D01*
X007377Y015713D01*
X007487Y015713D01*
X006535Y016250D02*
X006488Y016203D01*
X006395Y016203D01*
X006348Y016250D01*
X006348Y016437D01*
X006395Y016484D01*
X006488Y016484D01*
X006535Y016437D01*
X006259Y016437D02*
X006259Y016250D01*
X006212Y016203D01*
X006072Y016203D01*
X006072Y016484D01*
X006212Y016484D01*
X006259Y016437D01*
X005983Y016484D02*
X005983Y016297D01*
X005889Y016203D01*
X005796Y016297D01*
X005796Y016484D01*
X005706Y016484D02*
X005520Y016484D01*
X005520Y016343D01*
X005613Y016390D01*
X005660Y016390D01*
X005706Y016343D01*
X005706Y016250D01*
X005660Y016203D01*
X005566Y016203D01*
X005520Y016250D01*
X005529Y017203D02*
X005529Y017390D01*
X005529Y017297D02*
X005622Y017390D01*
X005669Y017390D01*
X005759Y017390D02*
X005806Y017390D01*
X005806Y017203D01*
X005759Y017203D02*
X005853Y017203D01*
X005943Y017250D02*
X005990Y017203D01*
X006130Y017203D01*
X006130Y017157D02*
X006130Y017390D01*
X005990Y017390D01*
X005943Y017343D01*
X005943Y017250D01*
X006037Y017110D02*
X006083Y017110D01*
X006130Y017157D01*
X005806Y017484D02*
X005806Y017530D01*
X005440Y017484D02*
X005253Y017484D01*
X005346Y017484D02*
X005346Y017203D01*
X005570Y018253D02*
X005756Y018253D01*
X005846Y018300D02*
X005846Y018393D01*
X005892Y018440D01*
X006033Y018440D01*
X006122Y018393D02*
X006169Y018440D01*
X006262Y018440D01*
X006309Y018393D01*
X006309Y018253D01*
X006398Y018300D02*
X006445Y018253D01*
X006538Y018253D01*
X006585Y018300D01*
X006585Y018393D01*
X006538Y018440D01*
X006445Y018440D01*
X006398Y018393D01*
X006398Y018300D01*
X006122Y018253D02*
X006122Y018534D01*
X006033Y018253D02*
X005892Y018253D01*
X005846Y018300D01*
X005663Y018393D02*
X005570Y018393D01*
X005570Y018253D02*
X005570Y018534D01*
X005756Y018534D01*
X005716Y019203D02*
X005810Y019203D01*
X005856Y019250D01*
X005856Y019343D01*
X005763Y019343D01*
X005670Y019250D02*
X005716Y019203D01*
X005670Y019250D02*
X005670Y019437D01*
X005716Y019484D01*
X005810Y019484D01*
X005856Y019437D01*
X005946Y019484D02*
X006133Y019203D01*
X006133Y019484D01*
X006222Y019484D02*
X006222Y019203D01*
X006362Y019203D01*
X006409Y019250D01*
X006409Y019437D01*
X006362Y019484D01*
X006222Y019484D01*
X005946Y019484D02*
X005946Y019203D01*
X007020Y024653D02*
X007166Y024653D01*
X007241Y024653D02*
X007387Y024653D01*
X007461Y024727D02*
X007535Y024653D01*
X007608Y024727D01*
X007608Y024873D01*
X007682Y024873D02*
X007682Y024653D01*
X007829Y024653D01*
X007903Y024653D02*
X008050Y024653D01*
X008124Y024617D02*
X008271Y024617D01*
X008419Y024653D02*
X008419Y024873D01*
X008492Y024873D02*
X008345Y024873D01*
X008566Y024873D02*
X008566Y024653D01*
X008566Y024727D02*
X008677Y024727D01*
X008713Y024763D01*
X008713Y024837D01*
X008677Y024873D01*
X008566Y024873D01*
X008640Y024727D02*
X008713Y024653D01*
X008787Y024653D02*
X008787Y024800D01*
X008861Y024873D01*
X008934Y024800D01*
X008934Y024653D01*
X009008Y024653D02*
X009008Y024873D01*
X009155Y024653D01*
X009155Y024873D01*
X009229Y024837D02*
X009229Y024800D01*
X009266Y024763D01*
X009339Y024763D01*
X009376Y024727D01*
X009376Y024690D01*
X009339Y024653D01*
X009266Y024653D01*
X009229Y024690D01*
X009229Y024837D02*
X009266Y024873D01*
X009339Y024873D01*
X009376Y024837D01*
X009450Y024873D02*
X009450Y024653D01*
X009597Y024653D01*
X009671Y024653D02*
X009671Y024800D01*
X009745Y024873D01*
X009818Y024800D01*
X009818Y024653D01*
X009818Y024763D02*
X009671Y024763D01*
X009892Y024873D02*
X010039Y024873D01*
X009966Y024873D02*
X009966Y024653D01*
X010113Y024690D02*
X010150Y024653D01*
X010223Y024653D01*
X010260Y024690D01*
X010260Y024837D01*
X010223Y024873D01*
X010150Y024873D01*
X010113Y024837D01*
X010113Y024690D01*
X010334Y024653D02*
X010334Y024873D01*
X010444Y024873D01*
X010481Y024837D01*
X010481Y024763D01*
X010444Y024727D01*
X010334Y024727D01*
X010408Y024727D02*
X010481Y024653D01*
X010555Y024617D02*
X010702Y024617D01*
X010776Y024653D02*
X010923Y024800D01*
X010923Y024837D01*
X010886Y024873D01*
X010813Y024873D01*
X010776Y024837D01*
X010776Y024653D02*
X010923Y024653D01*
X008934Y024763D02*
X008787Y024763D01*
X007903Y024873D02*
X007903Y024653D01*
X007756Y024763D02*
X007682Y024763D01*
X007682Y024873D02*
X007829Y024873D01*
X007461Y024873D02*
X007461Y024727D01*
X007314Y024763D02*
X007241Y024763D01*
X007241Y024873D02*
X007241Y024653D01*
X007241Y024873D02*
X007387Y024873D01*
X007020Y024873D02*
X007020Y024653D01*
X007069Y030053D02*
X007209Y030053D01*
X007163Y030147D01*
X007163Y030193D01*
X007209Y030240D01*
X007303Y030240D01*
X007350Y030193D01*
X007350Y030100D01*
X007303Y030053D01*
X007069Y030053D02*
X007069Y030240D01*
X007069Y030330D02*
X007256Y030330D01*
X007350Y030423D01*
X007256Y030516D01*
X007069Y030516D01*
X007069Y030606D02*
X007069Y030746D01*
X007116Y030793D01*
X007303Y030793D01*
X007350Y030746D01*
X007350Y030606D01*
X007069Y030606D01*
X007116Y030882D02*
X007303Y030882D01*
X007350Y030929D01*
X007350Y031022D01*
X007303Y031069D01*
X007116Y031069D02*
X007069Y031022D01*
X007069Y030929D01*
X007116Y030882D01*
X007973Y030806D02*
X008019Y030806D01*
X008113Y030806D02*
X008300Y030806D01*
X008300Y030760D02*
X008300Y030853D01*
X008253Y030944D02*
X008300Y030991D01*
X008300Y031131D01*
X008346Y031131D02*
X008113Y031131D01*
X008113Y030991D01*
X008159Y030944D01*
X008253Y030944D01*
X008393Y031037D02*
X008393Y031084D01*
X008346Y031131D01*
X008113Y030806D02*
X008113Y030760D01*
X008113Y030670D02*
X008113Y030623D01*
X008206Y030530D01*
X008113Y030530D02*
X008300Y030530D01*
X008300Y030347D02*
X008019Y030347D01*
X008019Y030440D02*
X008019Y030253D01*
X009019Y030340D02*
X009019Y030153D01*
X009300Y030153D01*
X009300Y030340D01*
X009253Y030430D02*
X009300Y030476D01*
X009300Y030616D01*
X009300Y030706D02*
X009019Y030706D01*
X009113Y030752D02*
X009113Y030846D01*
X009159Y030893D01*
X009300Y030893D01*
X009253Y030982D02*
X009300Y031029D01*
X009300Y031122D01*
X009253Y031169D01*
X009159Y031169D01*
X009113Y031122D01*
X009113Y031029D01*
X009159Y030982D01*
X009253Y030982D01*
X009113Y030752D02*
X009159Y030706D01*
X009113Y030616D02*
X009113Y030476D01*
X009159Y030430D01*
X009253Y030430D01*
X009159Y030247D02*
X009159Y030153D01*
X010069Y030250D02*
X010116Y030203D01*
X010303Y030203D01*
X010350Y030250D01*
X010350Y030343D01*
X010303Y030390D01*
X010209Y030390D01*
X010209Y030297D01*
X010116Y030390D02*
X010069Y030343D01*
X010069Y030250D01*
X010069Y030480D02*
X010350Y030666D01*
X010069Y030666D01*
X010069Y030756D02*
X010069Y030896D01*
X010116Y030943D01*
X010303Y030943D01*
X010350Y030896D01*
X010350Y030756D01*
X010069Y030756D01*
X010069Y030480D02*
X010350Y030480D01*
X013969Y030530D02*
X014250Y030716D01*
X013969Y030716D01*
X013969Y030806D02*
X013969Y030946D01*
X014016Y030993D01*
X014203Y030993D01*
X014250Y030946D01*
X014250Y030806D01*
X013969Y030806D01*
X013969Y030530D02*
X014250Y030530D01*
X014203Y030440D02*
X014109Y030440D01*
X014109Y030347D01*
X014016Y030440D02*
X013969Y030393D01*
X013969Y030300D01*
X014016Y030253D01*
X014203Y030253D01*
X014250Y030300D01*
X014250Y030393D01*
X014203Y030440D01*
X014969Y030353D02*
X015250Y030353D01*
X015250Y030540D01*
X015203Y030630D02*
X015250Y030676D01*
X015250Y030816D01*
X015250Y030906D02*
X014969Y030906D01*
X015063Y030952D02*
X015063Y031046D01*
X015109Y031093D01*
X015250Y031093D01*
X015203Y031182D02*
X015250Y031229D01*
X015250Y031322D01*
X015203Y031369D01*
X015109Y031369D01*
X015063Y031322D01*
X015063Y031229D01*
X015109Y031182D01*
X015203Y031182D01*
X015063Y030952D02*
X015109Y030906D01*
X015063Y030816D02*
X015063Y030676D01*
X015109Y030630D01*
X015203Y030630D01*
X015109Y030447D02*
X015109Y030353D01*
X014969Y030353D02*
X014969Y030540D01*
X016019Y030490D02*
X016019Y030303D01*
X016019Y030397D02*
X016300Y030397D01*
X016300Y030580D02*
X016113Y030580D01*
X016206Y030580D02*
X016113Y030673D01*
X016113Y030720D01*
X016113Y030810D02*
X016113Y030856D01*
X016300Y030856D01*
X016300Y030810D02*
X016300Y030903D01*
X016253Y030994D02*
X016300Y031041D01*
X016300Y031181D01*
X016346Y031181D02*
X016113Y031181D01*
X016113Y031041D01*
X016159Y030994D01*
X016253Y030994D01*
X016393Y031087D02*
X016393Y031134D01*
X016346Y031181D01*
X016019Y030856D02*
X015973Y030856D01*
X017119Y030896D02*
X017119Y030756D01*
X017400Y030756D01*
X017400Y030896D01*
X017353Y030943D01*
X017166Y030943D01*
X017119Y030896D01*
X017166Y031032D02*
X017353Y031032D01*
X017400Y031079D01*
X017400Y031172D01*
X017353Y031219D01*
X017166Y031219D02*
X017119Y031172D01*
X017119Y031079D01*
X017166Y031032D01*
X017119Y030666D02*
X017306Y030666D01*
X017400Y030573D01*
X017306Y030480D01*
X017119Y030480D01*
X017119Y030390D02*
X017119Y030203D01*
X017259Y030203D01*
X017213Y030297D01*
X017213Y030343D01*
X017259Y030390D01*
X017353Y030390D01*
X017400Y030343D01*
X017400Y030250D01*
X017353Y030203D01*
X020529Y030340D02*
X020566Y030303D01*
X020713Y030303D01*
X020750Y030340D01*
X020750Y030413D01*
X020713Y030450D01*
X020639Y030450D01*
X020639Y030377D01*
X020566Y030450D02*
X020529Y030413D01*
X020529Y030340D01*
X020529Y030524D02*
X020750Y030671D01*
X020529Y030671D01*
X020529Y030745D02*
X020529Y030855D01*
X020566Y030892D01*
X020713Y030892D01*
X020750Y030855D01*
X020750Y030745D01*
X020529Y030745D01*
X020529Y030524D02*
X020750Y030524D01*
X021579Y030474D02*
X021726Y030474D01*
X021800Y030548D01*
X021726Y030621D01*
X021579Y030621D01*
X021579Y030695D02*
X021579Y030805D01*
X021616Y030842D01*
X021763Y030842D01*
X021800Y030805D01*
X021800Y030695D01*
X021579Y030695D01*
X021616Y030916D02*
X021763Y030916D01*
X021800Y030953D01*
X021800Y031026D01*
X021763Y031063D01*
X021616Y031063D02*
X021579Y031026D01*
X021579Y030953D01*
X021616Y030916D01*
X021579Y030400D02*
X021579Y030253D01*
X021689Y030253D01*
X021653Y030327D01*
X021653Y030363D01*
X021689Y030400D01*
X021763Y030400D01*
X021800Y030363D01*
X021800Y030290D01*
X021763Y030253D01*
X017886Y024873D02*
X017923Y024837D01*
X017923Y024800D01*
X017886Y024763D01*
X017923Y024727D01*
X017923Y024690D01*
X017886Y024653D01*
X017813Y024653D01*
X017776Y024690D01*
X017850Y024763D02*
X017886Y024763D01*
X017886Y024873D02*
X017813Y024873D01*
X017776Y024837D01*
X017702Y024617D02*
X017555Y024617D01*
X017481Y024653D02*
X017408Y024727D01*
X017444Y024727D02*
X017334Y024727D01*
X017334Y024653D02*
X017334Y024873D01*
X017444Y024873D01*
X017481Y024837D01*
X017481Y024763D01*
X017444Y024727D01*
X017260Y024690D02*
X017260Y024837D01*
X017223Y024873D01*
X017150Y024873D01*
X017113Y024837D01*
X017113Y024690D01*
X017150Y024653D01*
X017223Y024653D01*
X017260Y024690D01*
X017039Y024873D02*
X016892Y024873D01*
X016966Y024873D02*
X016966Y024653D01*
X016818Y024653D02*
X016818Y024800D01*
X016745Y024873D01*
X016671Y024800D01*
X016671Y024653D01*
X016597Y024653D02*
X016450Y024653D01*
X016450Y024873D01*
X016376Y024837D02*
X016339Y024873D01*
X016266Y024873D01*
X016229Y024837D01*
X016229Y024800D01*
X016266Y024763D01*
X016339Y024763D01*
X016376Y024727D01*
X016376Y024690D01*
X016339Y024653D01*
X016266Y024653D01*
X016229Y024690D01*
X016155Y024653D02*
X016155Y024873D01*
X016008Y024873D02*
X016155Y024653D01*
X016008Y024653D02*
X016008Y024873D01*
X015934Y024800D02*
X015934Y024653D01*
X015934Y024763D02*
X015787Y024763D01*
X015787Y024800D02*
X015861Y024873D01*
X015934Y024800D01*
X015787Y024800D02*
X015787Y024653D01*
X015713Y024653D02*
X015640Y024727D01*
X015677Y024727D02*
X015566Y024727D01*
X015566Y024653D02*
X015566Y024873D01*
X015677Y024873D01*
X015713Y024837D01*
X015713Y024763D01*
X015677Y024727D01*
X015492Y024873D02*
X015345Y024873D01*
X015419Y024873D02*
X015419Y024653D01*
X015271Y024617D02*
X015124Y024617D01*
X015050Y024653D02*
X014903Y024653D01*
X014903Y024873D01*
X014829Y024873D02*
X014682Y024873D01*
X014682Y024653D01*
X014829Y024653D01*
X014756Y024763D02*
X014682Y024763D01*
X014608Y024727D02*
X014608Y024873D01*
X014608Y024727D02*
X014535Y024653D01*
X014461Y024727D01*
X014461Y024873D01*
X014387Y024873D02*
X014241Y024873D01*
X014241Y024653D01*
X014387Y024653D01*
X014314Y024763D02*
X014241Y024763D01*
X014166Y024653D02*
X014020Y024653D01*
X014020Y024873D01*
X016671Y024763D02*
X016818Y024763D01*
X029236Y021984D02*
X029236Y021797D01*
X029329Y021703D01*
X029423Y021797D01*
X029423Y021984D01*
X029512Y021984D02*
X029652Y021984D01*
X029699Y021937D01*
X029699Y021890D01*
X029652Y021843D01*
X029512Y021843D01*
X029512Y021703D02*
X029512Y021984D01*
X029652Y021843D02*
X029699Y021797D01*
X029699Y021750D01*
X029652Y021703D01*
X029512Y021703D01*
X029788Y021703D02*
X029788Y021890D01*
X029882Y021984D01*
X029975Y021890D01*
X029975Y021703D01*
X029975Y021843D02*
X029788Y021843D01*
X030065Y021984D02*
X030251Y021984D01*
X030158Y021984D02*
X030158Y021703D01*
X030341Y021657D02*
X030528Y021657D01*
X030710Y021703D02*
X030710Y021984D01*
X030617Y021984D02*
X030804Y021984D01*
X030893Y021984D02*
X031080Y021703D01*
X030893Y021703D02*
X031080Y021984D01*
X031069Y021034D02*
X031162Y021034D01*
X031209Y020987D01*
X031209Y020940D01*
X031162Y020893D01*
X031209Y020847D01*
X031209Y020800D01*
X031162Y020753D01*
X031069Y020753D01*
X031022Y020800D01*
X030933Y020847D02*
X030933Y021034D01*
X031022Y020987D02*
X031069Y021034D01*
X031115Y020893D02*
X031162Y020893D01*
X030933Y020847D02*
X030839Y020753D01*
X030746Y020847D01*
X030746Y021034D01*
X030656Y020987D02*
X030656Y020940D01*
X030610Y020893D01*
X030656Y020847D01*
X030656Y020800D01*
X030610Y020753D01*
X030516Y020753D01*
X030470Y020800D01*
X030563Y020893D02*
X030610Y020893D01*
X030656Y020987D02*
X030610Y021034D01*
X030516Y021034D01*
X030470Y020987D01*
X030469Y022896D02*
X030690Y022896D01*
X030690Y023043D01*
X030690Y023117D02*
X030690Y023264D01*
X030616Y023338D02*
X030690Y023412D01*
X030616Y023485D01*
X030469Y023485D01*
X030469Y023559D02*
X030690Y023559D01*
X030690Y023706D01*
X030690Y023780D02*
X030690Y023927D01*
X030726Y024001D02*
X030726Y024148D01*
X030690Y024296D02*
X030469Y024296D01*
X030469Y024369D02*
X030469Y024222D01*
X030469Y024443D02*
X030469Y024554D01*
X030506Y024590D01*
X030579Y024590D01*
X030616Y024554D01*
X030616Y024443D01*
X030690Y024443D02*
X030469Y024443D01*
X030616Y024517D02*
X030690Y024590D01*
X030690Y024664D02*
X030543Y024664D01*
X030469Y024738D01*
X030543Y024811D01*
X030690Y024811D01*
X030690Y024885D02*
X030469Y024885D01*
X030690Y025032D01*
X030469Y025032D01*
X030506Y025106D02*
X030469Y025143D01*
X030469Y025216D01*
X030506Y025253D01*
X030579Y025216D02*
X030616Y025253D01*
X030653Y025253D01*
X030690Y025216D01*
X030690Y025143D01*
X030653Y025106D01*
X030579Y025143D02*
X030579Y025216D01*
X030579Y025143D02*
X030543Y025106D01*
X030506Y025106D01*
X030469Y025327D02*
X030690Y025327D01*
X030690Y025474D01*
X030690Y025548D02*
X030543Y025548D01*
X030469Y025622D01*
X030543Y025695D01*
X030690Y025695D01*
X030579Y025695D02*
X030579Y025548D01*
X030469Y025769D02*
X030469Y025916D01*
X030469Y025843D02*
X030690Y025843D01*
X030653Y025990D02*
X030690Y026027D01*
X030690Y026100D01*
X030653Y026137D01*
X030506Y026137D01*
X030469Y026100D01*
X030469Y026027D01*
X030506Y025990D01*
X030653Y025990D01*
X030690Y026211D02*
X030469Y026211D01*
X030469Y026321D01*
X030506Y026358D01*
X030579Y026358D01*
X030616Y026321D01*
X030616Y026211D01*
X030616Y026285D02*
X030690Y026358D01*
X030690Y026432D02*
X030690Y026579D01*
X030690Y026506D02*
X030469Y026506D01*
X030543Y026432D01*
X030579Y024811D02*
X030579Y024664D01*
X030469Y023780D02*
X030690Y023780D01*
X030579Y023633D02*
X030579Y023559D01*
X030469Y023559D02*
X030469Y023706D01*
X030469Y023338D02*
X030616Y023338D01*
X030579Y023191D02*
X030579Y023117D01*
X030469Y023117D02*
X030690Y023117D01*
X030469Y023117D02*
X030469Y023264D01*
X032915Y024853D02*
X033101Y024853D01*
X033191Y024900D02*
X033238Y024853D01*
X033378Y024853D01*
X033467Y024853D02*
X033467Y025134D01*
X033514Y025040D02*
X033607Y025040D01*
X033654Y024993D01*
X033654Y024853D01*
X033743Y024900D02*
X033790Y024853D01*
X033883Y024853D01*
X033930Y024900D01*
X033930Y024993D01*
X033883Y025040D01*
X033790Y025040D01*
X033743Y024993D01*
X033743Y024900D01*
X033514Y025040D02*
X033467Y024993D01*
X033378Y025040D02*
X033238Y025040D01*
X033191Y024993D01*
X033191Y024900D01*
X033008Y024993D02*
X032915Y024993D01*
X032915Y024853D02*
X032915Y025134D01*
X033101Y025134D01*
X033129Y025703D02*
X033129Y025890D01*
X033129Y025797D02*
X033222Y025890D01*
X033269Y025890D01*
X033359Y025890D02*
X033406Y025890D01*
X033406Y025703D01*
X033359Y025703D02*
X033453Y025703D01*
X033543Y025750D02*
X033590Y025703D01*
X033730Y025703D01*
X033730Y025657D02*
X033730Y025890D01*
X033590Y025890D01*
X033543Y025843D01*
X033543Y025750D01*
X033637Y025610D02*
X033683Y025610D01*
X033730Y025657D01*
X033406Y025984D02*
X033406Y026030D01*
X033040Y025984D02*
X032853Y025984D01*
X032946Y025984D02*
X032946Y025703D01*
X032911Y026753D02*
X032865Y026800D01*
X032911Y026753D02*
X033005Y026753D01*
X033051Y026800D01*
X033051Y026893D01*
X033005Y026940D01*
X032958Y026940D01*
X032865Y026893D01*
X032865Y027034D01*
X033051Y027034D01*
X033141Y027034D02*
X033141Y026847D01*
X033234Y026753D01*
X033328Y026847D01*
X033328Y027034D01*
X033417Y027034D02*
X033417Y026753D01*
X033557Y026753D01*
X033604Y026800D01*
X033604Y026987D01*
X033557Y027034D01*
X033417Y027034D01*
X033693Y026987D02*
X033693Y026800D01*
X033740Y026753D01*
X033833Y026753D01*
X033880Y026800D01*
X033880Y026987D02*
X033833Y027034D01*
X033740Y027034D01*
X033693Y026987D01*
X033733Y024134D02*
X033593Y024134D01*
X033593Y023853D01*
X033733Y023853D01*
X033780Y023900D01*
X033780Y024087D01*
X033733Y024134D01*
X033504Y024134D02*
X033504Y023853D01*
X033317Y024134D01*
X033317Y023853D01*
X033228Y023900D02*
X033228Y023993D01*
X033134Y023993D01*
X033041Y023900D02*
X033088Y023853D01*
X033181Y023853D01*
X033228Y023900D01*
X033228Y024087D02*
X033181Y024134D01*
X033088Y024134D01*
X033041Y024087D01*
X033041Y023900D01*
X033065Y019134D02*
X033065Y018993D01*
X033158Y019040D01*
X033205Y019040D01*
X033251Y018993D01*
X033251Y018900D01*
X033205Y018853D01*
X033111Y018853D01*
X033065Y018900D01*
X033065Y019134D02*
X033251Y019134D01*
X033341Y019134D02*
X033341Y018947D01*
X033434Y018853D01*
X033528Y018947D01*
X033528Y019134D01*
X033617Y019134D02*
X033757Y019134D01*
X033804Y019087D01*
X033804Y018900D01*
X033757Y018853D01*
X033617Y018853D01*
X033617Y019134D01*
X033893Y019087D02*
X033893Y018900D01*
X033940Y018853D01*
X034033Y018853D01*
X034080Y018900D01*
X034080Y019087D02*
X034033Y019134D01*
X033940Y019134D01*
X033893Y019087D01*
X033506Y018080D02*
X033506Y018034D01*
X033506Y017940D02*
X033506Y017753D01*
X033459Y017753D02*
X033553Y017753D01*
X033643Y017800D02*
X033690Y017753D01*
X033830Y017753D01*
X033830Y017707D02*
X033830Y017940D01*
X033690Y017940D01*
X033643Y017893D01*
X033643Y017800D01*
X033737Y017660D02*
X033783Y017660D01*
X033830Y017707D01*
X033506Y017940D02*
X033459Y017940D01*
X033369Y017940D02*
X033322Y017940D01*
X033229Y017847D01*
X033229Y017940D02*
X033229Y017753D01*
X033046Y017753D02*
X033046Y018034D01*
X032953Y018034D02*
X033140Y018034D01*
X033101Y017084D02*
X032915Y017084D01*
X032915Y016803D01*
X033101Y016803D01*
X033191Y016850D02*
X033238Y016803D01*
X033378Y016803D01*
X033467Y016803D02*
X033467Y017084D01*
X033514Y016990D02*
X033607Y016990D01*
X033654Y016943D01*
X033654Y016803D01*
X033743Y016850D02*
X033790Y016803D01*
X033883Y016803D01*
X033930Y016850D01*
X033930Y016943D01*
X033883Y016990D01*
X033790Y016990D01*
X033743Y016943D01*
X033743Y016850D01*
X033514Y016990D02*
X033467Y016943D01*
X033378Y016990D02*
X033238Y016990D01*
X033191Y016943D01*
X033191Y016850D01*
X033008Y016943D02*
X032915Y016943D01*
X033238Y015984D02*
X033191Y015937D01*
X033191Y015750D01*
X033238Y015703D01*
X033331Y015703D01*
X033378Y015750D01*
X033378Y015843D01*
X033284Y015843D01*
X033378Y015937D02*
X033331Y015984D01*
X033238Y015984D01*
X033467Y015984D02*
X033654Y015703D01*
X033654Y015984D01*
X033743Y015984D02*
X033883Y015984D01*
X033930Y015937D01*
X033930Y015750D01*
X033883Y015703D01*
X033743Y015703D01*
X033743Y015984D01*
X033467Y015984D02*
X033467Y015703D01*
X014850Y005266D02*
X014569Y005080D01*
X014616Y004990D02*
X014709Y004990D01*
X014756Y004943D01*
X014756Y004803D01*
X014850Y004803D02*
X014569Y004803D01*
X014569Y004943D01*
X014616Y004990D01*
X014756Y004897D02*
X014850Y004990D01*
X014850Y005080D02*
X014569Y005266D01*
X011900Y005266D02*
X011619Y005080D01*
X011619Y004990D02*
X011619Y004803D01*
X011619Y004897D02*
X011900Y004897D01*
X011900Y005080D02*
X011619Y005266D01*
X009400Y004596D02*
X009353Y004643D01*
X009166Y004643D01*
X009119Y004596D01*
X009119Y004456D01*
X009400Y004456D01*
X009400Y004596D01*
X009400Y004366D02*
X009119Y004366D01*
X009119Y004180D02*
X009400Y004366D01*
X009400Y004180D02*
X009119Y004180D01*
X009166Y004090D02*
X009119Y004043D01*
X009119Y003950D01*
X009166Y003903D01*
X009353Y003903D01*
X009400Y003950D01*
X009400Y004043D01*
X009353Y004090D01*
X009259Y004090D01*
X009259Y003997D01*
X008400Y004011D02*
X008400Y003871D01*
X008353Y003825D01*
X008259Y003825D01*
X008213Y003871D01*
X008213Y004011D01*
X008259Y004101D02*
X008213Y004148D01*
X008213Y004241D01*
X008259Y004288D01*
X008400Y004288D01*
X008353Y004377D02*
X008400Y004424D01*
X008400Y004517D01*
X008353Y004564D01*
X008259Y004564D01*
X008213Y004517D01*
X008213Y004424D01*
X008259Y004377D01*
X008353Y004377D01*
X008400Y004101D02*
X008119Y004101D01*
X008119Y003735D02*
X008119Y003548D01*
X008400Y003548D01*
X008400Y003735D01*
X008259Y003642D02*
X008259Y003548D01*
X007350Y004047D02*
X007069Y004047D01*
X007069Y004140D02*
X007069Y003953D01*
X007163Y004230D02*
X007350Y004230D01*
X007256Y004230D02*
X007163Y004323D01*
X007163Y004370D01*
X007163Y004460D02*
X007163Y004506D01*
X007350Y004506D01*
X007350Y004460D02*
X007350Y004553D01*
X007303Y004644D02*
X007350Y004691D01*
X007350Y004831D01*
X007396Y004831D02*
X007163Y004831D01*
X007163Y004691D01*
X007209Y004644D01*
X007303Y004644D01*
X007443Y004737D02*
X007443Y004784D01*
X007396Y004831D01*
X007069Y004506D02*
X007023Y004506D01*
X006400Y004446D02*
X006400Y004306D01*
X006119Y004306D01*
X006119Y004446D01*
X006166Y004493D01*
X006353Y004493D01*
X006400Y004446D01*
X006353Y004582D02*
X006400Y004629D01*
X006400Y004722D01*
X006353Y004769D01*
X006353Y004582D02*
X006166Y004582D01*
X006119Y004629D01*
X006119Y004722D01*
X006166Y004769D01*
X006119Y004216D02*
X006306Y004216D01*
X006400Y004123D01*
X006306Y004030D01*
X006119Y004030D01*
X006119Y003940D02*
X006119Y003753D01*
X006259Y003753D01*
X006213Y003847D01*
X006213Y003893D01*
X006259Y003940D01*
X006353Y003940D01*
X006400Y003893D01*
X006400Y003800D01*
X006353Y003753D01*
X005617Y011203D02*
X005617Y011484D01*
X005430Y011484D02*
X005430Y011203D01*
X005339Y011203D02*
X005246Y011203D01*
X005292Y011203D02*
X005292Y011484D01*
X005246Y011484D02*
X005339Y011484D01*
X005430Y011484D02*
X005617Y011203D01*
X005156Y011297D02*
X005156Y011484D01*
X004970Y011484D02*
X004970Y011297D01*
X005063Y011203D01*
X005156Y011297D01*
X005196Y012403D02*
X005196Y012684D01*
X005383Y012403D01*
X005383Y012684D01*
X005472Y012684D02*
X005472Y012403D01*
X005612Y012403D01*
X005659Y012450D01*
X005659Y012637D01*
X005612Y012684D01*
X005472Y012684D01*
X005106Y012637D02*
X005060Y012684D01*
X004966Y012684D01*
X004920Y012637D01*
X004920Y012450D01*
X004966Y012403D01*
X005060Y012403D01*
X005106Y012450D01*
X005106Y012543D01*
X005013Y012543D01*
D15*
X003760Y002393D02*
X000492Y002393D01*
X001260Y002393D02*
X001362Y003417D01*
X001385Y003417D02*
X001260Y002393D01*
X001157Y003417D01*
X001134Y003417D02*
X001385Y003417D01*
X001311Y003417D02*
X001260Y002393D01*
X001208Y003417D01*
X001134Y003417D02*
X001260Y002393D01*
X001260Y033893D01*
X001362Y032870D01*
X001385Y032870D02*
X001260Y033893D01*
X001157Y032870D01*
X001134Y032870D02*
X001385Y032870D01*
X001311Y032870D02*
X001260Y033893D01*
X001208Y032870D01*
X001134Y032870D02*
X001260Y033893D01*
X000492Y033893D02*
X003760Y033893D01*
X003760Y002393D02*
X003760Y000126D01*
X003760Y000893D02*
X004783Y000791D01*
X004783Y000768D02*
X003760Y000893D01*
X004783Y000996D01*
X004783Y001019D02*
X004783Y000768D01*
X004783Y000842D02*
X003760Y000893D01*
X004783Y000944D01*
X004783Y001019D02*
X003760Y000893D01*
X035760Y000893D01*
X034736Y000791D01*
X034736Y000768D02*
X035760Y000893D01*
X034736Y000996D01*
X034736Y001019D02*
X034736Y000768D01*
X034736Y000842D02*
X035760Y000893D01*
X034736Y000944D01*
X034736Y001019D02*
X035760Y000893D01*
X035760Y000393D02*
X035760Y001661D01*
D16*
X019760Y033143D03*
D17*
X016479Y031849D02*
X016479Y031398D01*
X016554Y031623D02*
X016254Y031623D01*
X016479Y031849D01*
X016094Y031699D02*
X016094Y031398D01*
X016094Y031623D02*
X015794Y031623D01*
X015794Y031699D02*
X015794Y031398D01*
X015634Y031398D02*
X015483Y031548D01*
X015559Y031548D02*
X015333Y031548D01*
X015333Y031398D02*
X015333Y031849D01*
X015559Y031849D01*
X015634Y031774D01*
X015634Y031623D01*
X015559Y031548D01*
X015794Y031699D02*
X015944Y031849D01*
X016094Y031699D01*
X015173Y031849D02*
X014873Y031849D01*
X015023Y031849D02*
X015023Y031398D01*
X014713Y031398D02*
X014413Y031398D01*
X014413Y031849D01*
X014252Y031849D02*
X014252Y031473D01*
X014177Y031398D01*
X014027Y031398D01*
X013952Y031473D01*
X013952Y031849D01*
X010507Y031488D02*
X010206Y031488D01*
X010357Y031488D02*
X010357Y031939D01*
X010206Y031789D01*
X010046Y031789D02*
X010046Y031488D01*
X010046Y031713D02*
X009746Y031713D01*
X009746Y031789D02*
X009896Y031939D01*
X010046Y031789D01*
X009746Y031789D02*
X009746Y031488D01*
X009586Y031488D02*
X009436Y031638D01*
X009511Y031638D02*
X009286Y031638D01*
X009286Y031488D02*
X009286Y031939D01*
X009511Y031939D01*
X009586Y031864D01*
X009586Y031713D01*
X009511Y031638D01*
X009126Y031939D02*
X008825Y031939D01*
X008975Y031939D02*
X008975Y031488D01*
X008665Y031488D02*
X008365Y031488D01*
X008365Y031939D01*
X008205Y031939D02*
X008205Y031563D01*
X008130Y031488D01*
X007980Y031488D01*
X007905Y031563D01*
X007905Y031939D01*
X008104Y019038D02*
X008179Y018888D01*
X008329Y018738D01*
X008329Y018963D01*
X008404Y019038D01*
X008479Y019038D01*
X008555Y018963D01*
X008555Y018813D01*
X008479Y018738D01*
X008329Y018738D01*
X008329Y018578D02*
X008329Y018278D01*
X008254Y018278D02*
X008104Y018428D01*
X008254Y018578D01*
X008555Y018578D01*
X008555Y018278D02*
X008254Y018278D01*
X008179Y018117D02*
X008329Y018117D01*
X008404Y018042D01*
X008404Y017817D01*
X008404Y017967D02*
X008555Y018117D01*
X008555Y017817D02*
X008104Y017817D01*
X008104Y018042D01*
X008179Y018117D01*
X008104Y017657D02*
X008104Y017357D01*
X008104Y017507D02*
X008555Y017507D01*
X008555Y017197D02*
X008555Y016896D01*
X008104Y016896D01*
X008104Y016736D02*
X008479Y016736D01*
X008555Y016661D01*
X008555Y016511D01*
X008479Y016436D01*
X008104Y016436D01*
X006539Y013041D02*
X006464Y013041D01*
X006389Y012965D01*
X006389Y012740D01*
X006239Y012580D02*
X006164Y012505D01*
X006164Y012280D01*
X006615Y012280D01*
X006615Y012505D01*
X006539Y012580D01*
X006239Y012580D01*
X006164Y012740D02*
X006164Y012965D01*
X006239Y013041D01*
X006314Y013041D01*
X006389Y012965D01*
X006539Y013041D02*
X006615Y012965D01*
X006615Y012740D01*
X006164Y012740D01*
X006239Y012120D02*
X006164Y012045D01*
X006164Y011819D01*
X006615Y011819D01*
X006464Y011819D02*
X006464Y012045D01*
X006389Y012120D01*
X006239Y012120D01*
X006690Y011659D02*
X006690Y011359D01*
X006464Y011199D02*
X006164Y011199D01*
X006164Y010899D02*
X006464Y010899D01*
X006615Y011049D01*
X006464Y011199D01*
X006389Y010739D02*
X006539Y010739D01*
X006615Y010663D01*
X006615Y010513D01*
X006539Y010438D01*
X006389Y010438D02*
X006314Y010588D01*
X006314Y010663D01*
X006389Y010739D01*
X006164Y010739D02*
X006164Y010438D01*
X006389Y010438D01*
X006215Y006589D02*
X006215Y006138D01*
X006515Y006138D01*
X006825Y006138D02*
X006825Y006589D01*
X006675Y006589D02*
X006976Y006589D01*
X007136Y006589D02*
X007361Y006589D01*
X007436Y006514D01*
X007436Y006363D01*
X007361Y006288D01*
X007136Y006288D01*
X007136Y006138D02*
X007136Y006589D01*
X007286Y006288D02*
X007436Y006138D01*
X007596Y006138D02*
X007596Y006439D01*
X007746Y006589D01*
X007896Y006439D01*
X007896Y006138D01*
X008056Y006213D02*
X008132Y006138D01*
X008282Y006138D01*
X008357Y006213D01*
X008357Y006288D01*
X008282Y006363D01*
X008207Y006363D01*
X008282Y006363D02*
X008357Y006439D01*
X008357Y006514D01*
X008282Y006589D01*
X008132Y006589D01*
X008056Y006514D01*
X007896Y006363D02*
X007596Y006363D01*
X006055Y006213D02*
X006055Y006589D01*
X005755Y006589D02*
X005755Y006213D01*
X005830Y006138D01*
X005980Y006138D01*
X006055Y006213D01*
X017510Y005623D02*
X017510Y004443D01*
X017690Y004263D01*
X017510Y004263D01*
X017510Y004443D01*
X017690Y004263D02*
X017910Y004263D01*
X017910Y004443D01*
X018110Y004443D01*
X018110Y004513D01*
X018110Y004443D02*
X018110Y004263D01*
X018410Y004263D01*
X018410Y004443D01*
X018610Y004443D01*
X018610Y004513D01*
X018610Y004443D02*
X018610Y004263D01*
X018910Y004263D01*
X018910Y004443D01*
X019110Y004443D01*
X019110Y004513D01*
X019110Y004443D02*
X019110Y004263D01*
X019410Y004263D01*
X019410Y004443D01*
X019610Y004443D01*
X019610Y004513D01*
X019610Y004443D02*
X019610Y004263D01*
X020010Y004263D01*
X020010Y005623D01*
X019610Y005623D01*
X019610Y005443D01*
X019610Y005373D01*
X019610Y005443D02*
X019410Y005443D01*
X019410Y005373D01*
X019410Y005443D02*
X019410Y005623D01*
X019110Y005623D01*
X019110Y005443D01*
X019110Y005373D01*
X019110Y005443D02*
X018910Y005443D01*
X018910Y005373D01*
X018910Y005443D02*
X018910Y005623D01*
X018610Y005623D01*
X018610Y005443D01*
X018610Y005373D01*
X018610Y005443D02*
X018410Y005443D01*
X018410Y005373D01*
X018410Y005443D02*
X018410Y005623D01*
X018110Y005623D01*
X018110Y005443D01*
X018110Y005373D01*
X018110Y005443D02*
X017910Y005443D01*
X017910Y005373D01*
X017910Y005443D02*
X017910Y005623D01*
X017510Y005623D01*
X017910Y005013D02*
X017910Y004873D01*
X018110Y004873D02*
X018110Y005013D01*
X018410Y005013D02*
X018410Y004873D01*
X018610Y004873D02*
X018610Y005013D01*
X018910Y005013D02*
X018910Y004873D01*
X019110Y004873D02*
X019110Y005013D01*
X019410Y005013D02*
X019410Y004873D01*
X019610Y004873D02*
X019610Y005013D01*
X019410Y004513D02*
X019410Y004443D01*
X018910Y004443D02*
X018910Y004513D01*
X018410Y004513D02*
X018410Y004443D01*
X017910Y004443D02*
X017910Y004513D01*
X028885Y012018D02*
X028885Y012469D01*
X028735Y012469D02*
X029035Y012469D01*
X029195Y012469D02*
X029420Y012469D01*
X029495Y012394D01*
X029495Y012243D01*
X029420Y012168D01*
X029195Y012168D01*
X029195Y012018D02*
X029195Y012469D01*
X029655Y012394D02*
X029730Y012469D01*
X029880Y012469D01*
X029956Y012394D01*
X029956Y012319D01*
X029655Y012018D01*
X029956Y012018D01*
X034554Y011853D02*
X034629Y011928D01*
X034779Y011928D01*
X034854Y011853D01*
X034854Y011628D01*
X034854Y011778D02*
X035005Y011928D01*
X035005Y012088D02*
X034704Y012088D01*
X034554Y012238D01*
X034704Y012388D01*
X035005Y012388D01*
X034779Y012388D02*
X034779Y012088D01*
X034554Y011853D02*
X034554Y011628D01*
X035005Y011628D01*
X035005Y011317D02*
X034554Y011317D01*
X034554Y011167D02*
X034554Y011467D01*
X034554Y011007D02*
X035005Y010707D01*
X035005Y010547D02*
X035005Y010246D01*
X034554Y010246D01*
X034554Y010547D01*
X034554Y010707D02*
X035005Y011007D01*
X034779Y010396D02*
X034779Y010246D01*
X035080Y010086D02*
X035080Y009786D01*
X034929Y009626D02*
X034629Y009626D01*
X034554Y009551D01*
X034554Y009401D01*
X034629Y009326D01*
X034929Y009326D01*
X035005Y009401D01*
X035005Y009551D01*
X034929Y009626D01*
X035005Y009169D02*
X035005Y009019D01*
X035005Y009094D02*
X034554Y009094D01*
X034554Y009019D02*
X034554Y009169D01*
X034629Y008858D02*
X034779Y008858D01*
X034854Y008783D01*
X034854Y008558D01*
X035005Y008558D02*
X034554Y008558D01*
X034554Y008783D01*
X034629Y008858D01*
X034629Y008398D02*
X034554Y008323D01*
X034554Y008173D01*
X034629Y008098D01*
X034929Y008098D01*
X035005Y008173D01*
X035005Y008323D01*
X034929Y008398D01*
X034779Y008398D01*
X034779Y008248D01*
X034654Y016136D02*
X035029Y016136D01*
X035105Y016211D01*
X035105Y016361D01*
X035029Y016436D01*
X034654Y016436D01*
X034654Y016596D02*
X035105Y016596D01*
X035105Y016897D01*
X035105Y017207D02*
X034654Y017207D01*
X034654Y017057D02*
X034654Y017357D01*
X034654Y017517D02*
X034654Y017742D01*
X034729Y017817D01*
X034879Y017817D01*
X034954Y017742D01*
X034954Y017517D01*
X034954Y017667D02*
X035105Y017817D01*
X035105Y017978D02*
X034804Y017978D01*
X034654Y018128D01*
X034804Y018278D01*
X035105Y018278D01*
X035029Y018438D02*
X035105Y018513D01*
X035105Y018663D01*
X035029Y018738D01*
X034879Y018738D01*
X034804Y018663D01*
X034804Y018588D01*
X034879Y018438D01*
X034654Y018438D01*
X034654Y018738D01*
X034879Y018278D02*
X034879Y017978D01*
X034654Y017517D02*
X035105Y017517D01*
X034289Y022443D02*
X033988Y022443D01*
X033828Y022593D02*
X033753Y022518D01*
X033603Y022518D01*
X033528Y022593D01*
X033528Y022894D01*
X033603Y022969D01*
X033753Y022969D01*
X033828Y022894D01*
X034449Y022969D02*
X034449Y022518D01*
X034449Y022668D02*
X034674Y022668D01*
X034749Y022743D01*
X034749Y022894D01*
X034674Y022969D01*
X034449Y022969D01*
X034909Y022969D02*
X035059Y022969D01*
X034984Y022969D02*
X034984Y022518D01*
X034909Y022518D02*
X035059Y022518D01*
X035216Y022518D02*
X035216Y022969D01*
X035516Y022518D01*
X035516Y022969D01*
X035677Y022894D02*
X035677Y022819D01*
X035752Y022743D01*
X035902Y022743D01*
X035977Y022668D01*
X035977Y022593D01*
X035902Y022518D01*
X035752Y022518D01*
X035677Y022593D01*
X035677Y022894D02*
X035752Y022969D01*
X035902Y022969D01*
X035977Y022894D01*
X035079Y024086D02*
X035155Y024161D01*
X035155Y024311D01*
X035079Y024386D01*
X034704Y024386D01*
X034704Y024546D02*
X035155Y024546D01*
X035155Y024847D01*
X035155Y025157D02*
X034704Y025157D01*
X034704Y025007D02*
X034704Y025307D01*
X034704Y025467D02*
X034704Y025692D01*
X034779Y025767D01*
X034929Y025767D01*
X035004Y025692D01*
X035004Y025467D01*
X035004Y025617D02*
X035155Y025767D01*
X035155Y025928D02*
X034854Y025928D01*
X034704Y026078D01*
X034854Y026228D01*
X035155Y026228D01*
X035155Y026388D02*
X034854Y026688D01*
X034779Y026688D01*
X034704Y026613D01*
X034704Y026463D01*
X034779Y026388D01*
X034929Y026228D02*
X034929Y025928D01*
X035155Y026388D02*
X035155Y026688D01*
X035155Y025467D02*
X034704Y025467D01*
X034704Y024086D02*
X035079Y024086D01*
X033368Y022969D02*
X033068Y022969D01*
X033068Y022518D01*
X032908Y022443D02*
X032607Y022443D01*
X032297Y022518D02*
X032297Y022743D01*
X032447Y022894D01*
X032447Y022969D01*
X032297Y022743D02*
X032147Y022894D01*
X032147Y022969D01*
X031987Y022894D02*
X031987Y022743D01*
X031912Y022668D01*
X031686Y022668D01*
X031686Y022518D02*
X031686Y022969D01*
X031912Y022969D01*
X031987Y022894D01*
X031837Y022668D02*
X031987Y022518D01*
X031526Y022518D02*
X031226Y022518D01*
X031226Y022969D01*
X031526Y022969D01*
X031376Y022743D02*
X031226Y022743D01*
X031066Y022969D02*
X030766Y022969D01*
X030916Y022969D02*
X030916Y022518D01*
X030606Y022969D02*
X030305Y022969D01*
X030455Y022969D02*
X030455Y022518D01*
X030145Y022518D02*
X030145Y022819D01*
X029995Y022969D01*
X029845Y022819D01*
X029845Y022518D01*
X029685Y022593D02*
X029610Y022518D01*
X029385Y022518D01*
X029385Y022969D01*
X029610Y022969D01*
X029685Y022894D01*
X029685Y022819D01*
X029610Y022743D01*
X029385Y022743D01*
X029610Y022743D02*
X029685Y022668D01*
X029685Y022593D01*
X029845Y022743D02*
X030145Y022743D01*
X033068Y022743D02*
X033218Y022743D01*
X029771Y017208D02*
X028708Y017208D01*
X028708Y016657D01*
X029771Y016657D01*
X029771Y017208D01*
X025006Y017218D02*
X025006Y017143D01*
X024930Y017068D01*
X024780Y017068D01*
X024705Y017143D01*
X024855Y017293D02*
X024930Y017293D01*
X025006Y017218D01*
X024930Y017293D02*
X025006Y017369D01*
X025006Y017444D01*
X024930Y017519D01*
X024780Y017519D01*
X024705Y017444D01*
X024545Y017444D02*
X024545Y017293D01*
X024470Y017218D01*
X024245Y017218D01*
X024245Y017068D02*
X024245Y017519D01*
X024470Y017519D01*
X024545Y017444D01*
X024085Y017519D02*
X023785Y017519D01*
X023935Y017519D02*
X023935Y017068D01*
X018573Y016530D02*
X018575Y016553D01*
X018581Y016576D01*
X018590Y016597D01*
X018603Y016617D01*
X018619Y016634D01*
X018637Y016648D01*
X018657Y016659D01*
X018679Y016667D01*
X018702Y016671D01*
X018726Y016671D01*
X018749Y016667D01*
X018771Y016659D01*
X018791Y016648D01*
X018809Y016634D01*
X018825Y016617D01*
X018838Y016597D01*
X018847Y016576D01*
X018853Y016553D01*
X018855Y016530D01*
X018853Y016507D01*
X018847Y016484D01*
X018838Y016463D01*
X018825Y016443D01*
X018809Y016426D01*
X018791Y016412D01*
X018771Y016401D01*
X018749Y016393D01*
X018726Y016389D01*
X018702Y016389D01*
X018679Y016393D01*
X018657Y016401D01*
X018637Y016412D01*
X018619Y016426D01*
X018603Y016443D01*
X018590Y016463D01*
X018581Y016484D01*
X018575Y016507D01*
X018573Y016530D01*
X023205Y031388D02*
X023205Y031839D01*
X023505Y031388D01*
X023505Y031839D01*
X023665Y031689D02*
X023665Y031388D01*
X023665Y031613D02*
X023965Y031613D01*
X023965Y031689D02*
X023965Y031388D01*
X024125Y031388D02*
X024426Y031388D01*
X024586Y031388D02*
X024886Y031388D01*
X025046Y031463D02*
X025121Y031388D01*
X025271Y031388D01*
X025346Y031463D01*
X025346Y031538D01*
X025271Y031613D01*
X025196Y031613D01*
X025271Y031613D02*
X025346Y031689D01*
X025346Y031764D01*
X025271Y031839D01*
X025121Y031839D01*
X025046Y031764D01*
X024886Y031839D02*
X024586Y031839D01*
X024586Y031388D01*
X024586Y031613D02*
X024736Y031613D01*
X024426Y031764D02*
X024125Y031463D01*
X024125Y031388D01*
X023965Y031689D02*
X023815Y031839D01*
X023665Y031689D01*
X024125Y031839D02*
X024426Y031839D01*
X024426Y031764D01*
X025506Y031764D02*
X025582Y031839D01*
X025732Y031839D01*
X025807Y031764D01*
X025807Y031689D01*
X025506Y031388D01*
X025807Y031388D01*
X025967Y031313D02*
X026267Y031313D01*
X026427Y031388D02*
X026427Y031839D01*
X026652Y031839D01*
X026728Y031764D01*
X026728Y031613D01*
X026652Y031538D01*
X026427Y031538D01*
X026888Y031388D02*
X027038Y031388D01*
X026963Y031388D02*
X026963Y031839D01*
X026888Y031839D02*
X027038Y031839D01*
X027195Y031839D02*
X027495Y031388D01*
X027495Y031839D01*
X027655Y031839D02*
X027655Y031388D01*
X027655Y031613D02*
X027955Y031613D01*
X028115Y031613D02*
X028265Y031613D01*
X028115Y031388D02*
X028416Y031388D01*
X028576Y031388D02*
X028576Y031689D01*
X028726Y031839D01*
X028876Y031689D01*
X028876Y031388D01*
X029036Y031388D02*
X029036Y031839D01*
X029261Y031839D01*
X029336Y031764D01*
X029336Y031463D01*
X029261Y031388D01*
X029036Y031388D01*
X028876Y031613D02*
X028576Y031613D01*
X028416Y031839D02*
X028115Y031839D01*
X028115Y031388D01*
X027955Y031388D02*
X027955Y031839D01*
X027195Y031839D02*
X027195Y031388D01*
D18*
X028054Y026713D02*
X028450Y026713D01*
X028450Y026693D02*
X028452Y026663D01*
X028457Y026633D01*
X028466Y026604D01*
X028479Y026577D01*
X028494Y026551D01*
X028513Y026527D01*
X028534Y026506D01*
X028558Y026487D01*
X028584Y026472D01*
X028611Y026459D01*
X028640Y026450D01*
X028670Y026445D01*
X028700Y026443D01*
X028730Y026445D01*
X028760Y026450D01*
X028789Y026459D01*
X028816Y026472D01*
X028842Y026487D01*
X028866Y026506D01*
X028887Y026527D01*
X028906Y026551D01*
X028921Y026577D01*
X028934Y026604D01*
X028943Y026633D01*
X028948Y026663D01*
X028950Y026693D01*
X028950Y026713D02*
X029281Y026713D01*
X029286Y026714D02*
X029311Y026715D01*
X029335Y026713D01*
X029359Y026707D01*
X029381Y026698D01*
X029402Y026685D01*
X029421Y026670D01*
X029438Y026652D01*
X029452Y026632D01*
X029463Y026611D01*
X029471Y026588D01*
X029476Y026564D01*
X029476Y026563D02*
X029476Y023223D01*
X029474Y023200D01*
X029469Y023177D01*
X029460Y023155D01*
X029447Y023135D01*
X029432Y023117D01*
X029414Y023102D01*
X029394Y023089D01*
X029372Y023080D01*
X029349Y023075D01*
X029326Y023073D01*
X028093Y023073D01*
X028094Y023073D02*
X028073Y023072D01*
X028052Y023074D01*
X028032Y023079D01*
X028013Y023087D01*
X027996Y023098D01*
X027980Y023111D01*
X027967Y023127D01*
X027956Y023145D01*
X027948Y023164D01*
X027943Y023184D01*
X027943Y026563D01*
X027942Y026563D02*
X027941Y026584D01*
X027943Y026605D01*
X027948Y026625D01*
X027956Y026644D01*
X027967Y026661D01*
X027980Y026677D01*
X027996Y026690D01*
X028014Y026701D01*
X028033Y026709D01*
X028053Y026714D01*
X017580Y027010D02*
X017580Y025777D01*
X017581Y025756D01*
X017579Y025735D01*
X017574Y025715D01*
X017566Y025696D01*
X017555Y025679D01*
X017542Y025663D01*
X017526Y025650D01*
X017508Y025639D01*
X017489Y025631D01*
X017469Y025626D01*
X017469Y025627D02*
X014090Y025627D01*
X014090Y025626D02*
X014069Y025625D01*
X014048Y025627D01*
X014028Y025632D01*
X014009Y025640D01*
X013992Y025651D01*
X013976Y025664D01*
X013963Y025680D01*
X013952Y025698D01*
X013944Y025717D01*
X013939Y025737D01*
X013940Y025738D02*
X013940Y026133D01*
X013960Y026133D02*
X013990Y026135D01*
X014020Y026140D01*
X014049Y026149D01*
X014076Y026162D01*
X014102Y026177D01*
X014126Y026196D01*
X014147Y026217D01*
X014166Y026241D01*
X014181Y026267D01*
X014194Y026294D01*
X014203Y026323D01*
X014208Y026353D01*
X014210Y026383D01*
X014208Y026413D01*
X014203Y026443D01*
X014194Y026472D01*
X014181Y026499D01*
X014166Y026525D01*
X014147Y026549D01*
X014126Y026570D01*
X014102Y026589D01*
X014076Y026604D01*
X014049Y026617D01*
X014020Y026626D01*
X013990Y026631D01*
X013960Y026633D01*
X013940Y026633D02*
X013940Y026965D01*
X013939Y026970D02*
X013938Y026995D01*
X013940Y027019D01*
X013946Y027043D01*
X013955Y027065D01*
X013968Y027086D01*
X013983Y027105D01*
X014001Y027122D01*
X014021Y027136D01*
X014042Y027147D01*
X014065Y027155D01*
X014089Y027160D01*
X014090Y027160D02*
X017430Y027160D01*
X017453Y027158D01*
X017476Y027153D01*
X017498Y027144D01*
X017518Y027131D01*
X017536Y027116D01*
X017551Y027098D01*
X017564Y027078D01*
X017573Y027056D01*
X017578Y027033D01*
X017580Y027010D01*
X010580Y027010D02*
X010580Y025777D01*
X010581Y025756D01*
X010579Y025735D01*
X010574Y025715D01*
X010566Y025696D01*
X010555Y025679D01*
X010542Y025663D01*
X010526Y025650D01*
X010508Y025639D01*
X010489Y025631D01*
X010469Y025626D01*
X010469Y025627D02*
X007090Y025627D01*
X007090Y025626D02*
X007069Y025625D01*
X007048Y025627D01*
X007028Y025632D01*
X007009Y025640D01*
X006992Y025651D01*
X006976Y025664D01*
X006963Y025680D01*
X006952Y025698D01*
X006944Y025717D01*
X006939Y025737D01*
X006940Y025738D02*
X006940Y026133D01*
X006960Y026133D02*
X006990Y026135D01*
X007020Y026140D01*
X007049Y026149D01*
X007076Y026162D01*
X007102Y026177D01*
X007126Y026196D01*
X007147Y026217D01*
X007166Y026241D01*
X007181Y026267D01*
X007194Y026294D01*
X007203Y026323D01*
X007208Y026353D01*
X007210Y026383D01*
X007208Y026413D01*
X007203Y026443D01*
X007194Y026472D01*
X007181Y026499D01*
X007166Y026525D01*
X007147Y026549D01*
X007126Y026570D01*
X007102Y026589D01*
X007076Y026604D01*
X007049Y026617D01*
X007020Y026626D01*
X006990Y026631D01*
X006960Y026633D01*
X006940Y026633D02*
X006940Y026965D01*
X006939Y026970D02*
X006938Y026995D01*
X006940Y027019D01*
X006946Y027043D01*
X006955Y027065D01*
X006968Y027086D01*
X006983Y027105D01*
X007001Y027122D01*
X007021Y027136D01*
X007042Y027147D01*
X007065Y027155D01*
X007089Y027160D01*
X007090Y027160D02*
X010430Y027160D01*
X010453Y027158D01*
X010476Y027153D01*
X010498Y027144D01*
X010518Y027131D01*
X010536Y027116D01*
X010551Y027098D01*
X010564Y027078D01*
X010573Y027056D01*
X010578Y027033D01*
X010580Y027010D01*
X024510Y007043D02*
X026210Y007043D01*
X026560Y006236D02*
X026560Y005443D01*
X026210Y004643D02*
X024510Y004643D01*
X024160Y005443D02*
X024160Y006248D01*
X024660Y005843D02*
X024662Y005895D01*
X024668Y005947D01*
X024678Y005999D01*
X024691Y006049D01*
X024708Y006099D01*
X024729Y006147D01*
X024754Y006193D01*
X024782Y006237D01*
X024813Y006279D01*
X024847Y006319D01*
X024884Y006356D01*
X024924Y006390D01*
X024966Y006421D01*
X025010Y006449D01*
X025056Y006474D01*
X025104Y006495D01*
X025154Y006512D01*
X025204Y006525D01*
X025256Y006535D01*
X025308Y006541D01*
X025360Y006543D01*
X025412Y006541D01*
X025464Y006535D01*
X025516Y006525D01*
X025566Y006512D01*
X025616Y006495D01*
X025664Y006474D01*
X025710Y006449D01*
X025754Y006421D01*
X025796Y006390D01*
X025836Y006356D01*
X025873Y006319D01*
X025907Y006279D01*
X025938Y006237D01*
X025966Y006193D01*
X025991Y006147D01*
X026012Y006099D01*
X026029Y006049D01*
X026042Y005999D01*
X026052Y005947D01*
X026058Y005895D01*
X026060Y005843D01*
X026058Y005791D01*
X026052Y005739D01*
X026042Y005687D01*
X026029Y005637D01*
X026012Y005587D01*
X025991Y005539D01*
X025966Y005493D01*
X025938Y005449D01*
X025907Y005407D01*
X025873Y005367D01*
X025836Y005330D01*
X025796Y005296D01*
X025754Y005265D01*
X025710Y005237D01*
X025664Y005212D01*
X025616Y005191D01*
X025566Y005174D01*
X025516Y005161D01*
X025464Y005151D01*
X025412Y005145D01*
X025360Y005143D01*
X025308Y005145D01*
X025256Y005151D01*
X025204Y005161D01*
X025154Y005174D01*
X025104Y005191D01*
X025056Y005212D01*
X025010Y005237D01*
X024966Y005265D01*
X024924Y005296D01*
X024884Y005330D01*
X024847Y005367D01*
X024813Y005407D01*
X024782Y005449D01*
X024754Y005493D01*
X024729Y005539D01*
X024708Y005587D01*
X024691Y005637D01*
X024678Y005687D01*
X024668Y005739D01*
X024662Y005791D01*
X024660Y005843D01*
D19*
X025555Y013659D03*
X009505Y011109D03*
D20*
X028915Y017852D02*
X028940Y017827D01*
X028990Y017827D01*
X029015Y017852D01*
X029015Y017977D01*
X029062Y017952D02*
X029087Y017977D01*
X029137Y017977D01*
X029162Y017952D01*
X029209Y017952D02*
X029234Y017977D01*
X029284Y017977D01*
X029309Y017952D01*
X029309Y017927D01*
X029209Y017827D01*
X029309Y017827D01*
X029162Y017852D02*
X029162Y017877D01*
X029137Y017902D01*
X029087Y017902D01*
X029062Y017927D01*
X029062Y017952D01*
X029112Y018002D02*
X029112Y017802D01*
X029137Y017827D02*
X029162Y017852D01*
X029137Y017827D02*
X029087Y017827D01*
X029062Y017852D01*
X028915Y017852D02*
X028915Y017977D01*
D21*
X007310Y014143D03*
X005560Y022943D03*
D22*
X005786Y023150D03*
D23*
X007516Y013917D03*
M02*
